<svg xmlns="http://www.w3.org/2000/svg" width="49" height="61" viewBox="0 0 49 61" fill="none">
    <rect width="49" height="61" fill="LAB(39.4 59.0 29.6)"/>
    <path d="M26.02 48.76C25.97 48.94 25.81 49.15 25.64 49.21C25.81 49.34 25.95 49.52 26.02 49.74C26.1 49.51 26.24 49.33 26.4 49.21C26.24 49.15 26.08 48.94 26.02 48.76"
          fill="#FFF"></path>

    <path d="M28.83 47.73C28.62 47.59 28.5 47.39 28.42 47.2C28.31 47.33 28.09 47.41 27.89 47.43C28.04 47.54 28.18 47.75 28.18 47.93C28.35 47.82 28.57 47.73 28.83 47.73"
          fill="#FFF"></path>
    <path d="M24.16 47.43C23.96 47.41 23.74 47.33 23.63 47.2C23.55 47.39 23.43 47.59 23.22 47.73C23.48 47.73 23.69 47.82 23.87 47.93C23.86 47.74 24.01 47.54 24.16 47.43"
          fill="#FFF"></path>
    <path d="M27.37 47.27C27.54 47.25 27.72 47.22 27.89 47.17C28.19 47.07 28.32 46.82 28.24 46.55C28.19 46.43 28.13 46.31 28.07 46.17C28.02 46.02 28.02 45.88 27.97 45.76C27.88 45.51 27.63 45.36 27.33 45.46C27.16 45.51 27.01 45.6 26.85 45.69C26.88 45.52 26.93 45.34 26.93 45.17C26.93 44.85 26.72 44.65 26.45 44.65C26.31 44.65 26.19 44.69 26.03 44.69C25.87 44.69 25.74 44.65 25.61 44.65C25.34 44.65 25.13 44.85 25.13 45.17C25.13 45.34 25.18 45.52 25.21 45.69C25.05 45.61 24.89 45.52 24.73 45.46C24.43 45.36 24.17 45.51 24.09 45.76C24.05 45.88 24.04 46.02 23.99 46.17C23.94 46.31 23.87 46.43 23.82 46.55C23.74 46.81 23.87 47.07 24.17 47.17C24.34 47.22 24.52 47.25 24.69 47.27C24.57 47.41 24.43 47.52 24.32 47.65C24.12 47.9 24.19 48.19 24.41 48.35C24.52 48.43 24.64 48.48 24.76 48.57C24.9 48.67 24.98 48.77 25.08 48.84C25.31 48.99 25.58 48.97 25.77 48.71C25.88 48.57 25.95 48.39 26.03 48.24C26.11 48.4 26.18 48.57 26.29 48.71C26.48 48.97 26.76 49.01 26.98 48.84C27.08 48.76 27.17 48.67 27.3 48.57C27.42 48.48 27.55 48.43 27.65 48.35C27.86 48.18 27.92 47.91 27.74 47.65C27.64 47.51 27.49 47.41 27.37 47.27"
          fill="#FFF"></path>
    <path d="M26.87 46.83C26.87 47.33 26.51 47.71 26.03 47.71C25.53 47.71 25.16 47.33 25.16 46.83C25.16 46.36 25.54 45.99 26.03 45.99C26.51 45.99 26.87 46.36 26.87 46.83"
          fill="LAB(39.4 59.0 29.6)"></path>
    <path d="M26.03 47.4C26.35 47.4 26.58 47.15 26.58 46.82C26.58 46.51 26.35 46.28 26.03 46.28C25.71 46.28 25.46 46.51 25.46 46.82C25.46 47.15 25.71 47.4 26.03 47.4"
          fill="#FFF"></path>
    <path d="M27.17 45.25C27.33 45.12 27.57 45.05 27.74 45.11C27.69 44.91 27.67 44.67 27.75 44.45C27.55 44.59 27.33 44.65 27.13 44.65C27.23 44.81 27.23 45.06 27.17 45.25"
          fill="#FFF"></path>
    <path d="M24.3 44.45C24.38 44.68 24.36 44.91 24.31 45.11C24.48 45.04 24.72 45.12 24.88 45.25C24.82 45.06 24.82 44.81 24.93 44.66C24.72 44.65 24.5 44.59 24.3 44.45"
          fill="#FFF"></path>

    <path d="M39.6 18.03C39.55 18.21 39.39 18.42 39.22 18.48C39.39 18.61 39.53 18.79 39.6 19.01C39.68 18.78 39.82 18.6 39.98 18.48C39.81 18.42 39.65 18.21 39.6 18.03"
          fill="#FFF"></path>
    <path d="M42.4 17C42.19 16.86 42.07 16.66 41.99 16.47C41.88 16.6 41.66 16.68 41.46 16.7C41.61 16.81 41.75 17.02 41.75 17.2C41.93 17.09 42.14 17 42.4 17"
          fill="#FFF"></path>
    <path d="M37.73 16.7C37.53 16.68 37.31 16.6 37.2 16.47C37.12 16.66 37 16.86 36.79 17C37.05 17 37.26 17.09 37.44 17.2C37.44 17.02 37.58 16.81 37.73 16.7"
          fill="#FFF"></path>
    <path d="M40.95 16.54C41.12 16.52 41.3 16.49 41.47 16.44C41.77 16.34 41.9 16.09 41.82 15.82C41.77 15.7 41.71 15.58 41.65 15.44C41.6 15.29 41.6 15.15 41.55 15.03C41.46 14.78 41.21 14.63 40.91 14.73C40.74 14.78 40.59 14.87 40.43 14.96C40.46 14.79 40.51 14.61 40.51 14.44C40.51 14.12 40.3 13.92 40.03 13.92C39.89 13.92 39.77 13.96 39.61 13.96C39.45 13.96 39.32 13.92 39.19 13.92C38.92 13.92 38.71 14.12 38.71 14.44C38.71 14.61 38.76 14.79 38.79 14.96C38.63 14.88 38.47 14.79 38.31 14.73C38.01 14.63 37.75 14.78 37.67 15.03C37.63 15.15 37.62 15.29 37.57 15.44C37.52 15.58 37.45 15.7 37.4 15.82C37.32 16.08 37.45 16.34 37.75 16.44C37.92 16.49 38.1 16.52 38.27 16.54C38.15 16.68 38.01 16.79 37.9 16.92C37.7 17.17 37.77 17.46 37.99 17.62C38.1 17.7 38.22 17.75 38.34 17.84C38.48 17.94 38.56 18.04 38.66 18.11C38.89 18.26 39.16 18.24 39.35 17.98C39.46 17.84 39.53 17.66 39.61 17.51C39.69 17.67 39.76 17.84 39.87 17.98C40.06 18.24 40.34 18.28 40.56 18.11C40.66 18.03 40.75 17.94 40.88 17.84C41 17.75 41.13 17.7 41.23 17.62C41.44 17.45 41.5 17.18 41.32 16.92C41.22 16.78 41.07 16.68 40.95 16.54"
          fill="#FFF"></path>
    <path d="M40.44 16.11C40.44 16.61 40.08 16.99 39.6 16.99C39.1 16.99 38.73 16.61 38.73 16.11C38.73 15.64 39.11 15.27 39.6 15.27C40.08 15.26 40.44 15.63 40.44 16.11"
          fill="LAB(39.4 59.0 29.6)"></path>
    <path d="M39.61 16.67C39.93 16.67 40.16 16.42 40.16 16.09C40.16 15.78 39.93 15.55 39.61 15.55C39.29 15.55 39.04 15.78 39.04 16.09C39.04 16.42 39.28 16.67 39.61 16.67"
          fill="#FFF"></path>
    <path d="M40.74 14.52C40.9 14.39 41.14 14.32 41.31 14.38C41.26 14.18 41.24 13.94 41.32 13.72C41.12 13.86 40.9 13.92 40.7 13.92C40.8 14.08 40.8 14.34 40.74 14.52"
          fill="#FFF"></path>
    <path d="M37.88 13.73C37.96 13.96 37.94 14.19 37.89 14.39C38.06 14.32 38.3 14.4 38.46 14.53C38.4 14.34 38.4 14.09 38.51 13.94C38.3 13.92 38.08 13.86 37.88 13.73"
          fill="#FFF"></path>

    <path d="M43.57 38.38C43.52 38.56 43.36 38.77 43.19 38.83C43.36 38.96 43.5 39.14 43.57 39.36C43.65 39.13 43.79 38.95 43.95 38.83C43.78 38.77 43.62 38.56 43.57 38.38"
          fill="#FFF"></path>
    <path d="M46.37 37.35C46.16 37.21 46.04 37.01 45.96 36.82C45.85 36.95 45.63 37.03 45.43 37.05C45.58 37.16 45.72 37.37 45.72 37.55C45.89 37.44 46.11 37.35 46.37 37.35"
          fill="#FFF"></path>
    <path d="M41.7 37.05C41.5 37.03 41.28 36.95 41.17 36.82C41.09 37.01 40.97 37.21 40.76 37.35C41.02 37.35 41.23 37.44 41.41 37.55C41.41 37.36 41.55 37.16 41.7 37.05"
          fill="#FFF"></path>
    <path d="M44.92 36.89C45.09 36.87 45.27 36.84 45.44 36.79C45.74 36.69 45.87 36.44 45.79 36.17C45.74 36.05 45.68 35.93 45.62 35.79C45.57 35.64 45.57 35.5 45.52 35.38C45.43 35.13 45.18 34.98 44.88 35.08C44.71 35.13 44.56 35.22 44.4 35.31C44.43 35.14 44.48 34.96 44.48 34.79C44.48 34.47 44.27 34.27 44 34.27C43.86 34.27 43.74 34.31 43.58 34.31C43.42 34.31 43.29 34.27 43.16 34.27C42.89 34.27 42.68 34.47 42.68 34.79C42.68 34.96 42.73 35.14 42.76 35.31C42.6 35.23 42.44 35.14 42.28 35.08C41.98 34.98 41.72 35.13 41.64 35.38C41.6 35.5 41.59 35.64 41.54 35.79C41.49 35.93 41.42 36.05 41.37 36.17C41.29 36.43 41.42 36.69 41.72 36.79C41.89 36.84 42.07 36.87 42.24 36.89C42.12 37.03 41.98 37.14 41.87 37.27C41.67 37.52 41.74 37.81 41.96 37.97C42.07 38.05 42.19 38.1 42.31 38.19C42.45 38.29 42.53 38.39 42.63 38.46C42.86 38.61 43.13 38.59 43.32 38.33C43.43 38.19 43.5 38.01 43.58 37.86C43.66 38.02 43.73 38.19 43.84 38.33C44.03 38.59 44.31 38.63 44.53 38.46C44.63 38.38 44.72 38.29 44.85 38.19C44.97 38.1 45.1 38.05 45.2 37.97C45.41 37.8 45.47 37.53 45.29 37.27C45.19 37.13 45.04 37.02 44.92 36.89"
          fill="#FFF"></path>
    <path d="M44.41 36.45C44.41 36.95 44.05 37.33 43.57 37.33C43.07 37.33 42.7 36.95 42.7 36.45C42.7 35.98 43.08 35.61 43.57 35.61C44.05 35.61 44.41 35.98 44.41 36.45"
          fill="LAB(39.4 59.0 29.6)"></path>
    <path d="M43.58 37.02C43.9 37.02 44.13 36.77 44.13 36.44C44.13 36.13 43.9 35.9 43.58 35.9C43.26 35.9 43.01 36.13 43.01 36.44C43 36.77 43.25 37.02 43.58 37.02"
          fill="#FFF"></path>
    <path d="M44.71 34.87C44.87 34.74 45.11 34.67 45.28 34.73C45.23 34.53 45.21 34.29 45.29 34.07C45.09 34.21 44.87 34.27 44.67 34.27C44.77 34.43 44.77 34.68 44.71 34.87"
          fill="#FFF"></path>
    <path d="M41.84 34.07C41.92 34.3 41.9 34.53 41.85 34.73C42.02 34.66 42.26 34.74 42.42 34.87C42.36 34.68 42.36 34.43 42.47 34.28C42.27 34.27 42.05 34.21 41.84 34.07"
          fill="#FFF"></path>

    <path d="M16.84 38.38C16.79 38.56 16.63 38.77 16.46 38.83C16.63 38.96 16.77 39.14 16.84 39.36C16.92 39.13 17.06 38.95 17.22 38.83C17.05 38.77 16.89 38.56 16.84 38.38"
          fill="#FFF"></path>
    <path d="M19.64 37.35C19.43 37.21 19.31 37.01 19.23 36.82C19.12 36.95 18.9 37.03 18.7 37.05C18.85 37.16 18.99 37.37 18.99 37.55C19.16 37.44 19.38 37.35 19.64 37.35"
          fill="#FFF"></path>
    <path d="M14.97 37.05C14.77 37.03 14.55 36.95 14.44 36.82C14.36 37.01 14.24 37.21 14.03 37.35C14.29 37.35 14.5 37.44 14.68 37.55C14.68 37.36 14.82 37.16 14.97 37.05"
          fill="#FFF"></path>
    <path d="M18.19 36.89C18.36 36.87 18.54 36.84 18.71 36.79C19.01 36.69 19.14 36.44 19.06 36.17C19.01 36.05 18.95 35.93 18.89 35.79C18.84 35.64 18.84 35.5 18.79 35.38C18.7 35.13 18.45 34.98 18.15 35.08C17.98 35.13 17.83 35.22 17.67 35.31C17.7 35.14 17.75 34.96 17.75 34.79C17.75 34.47 17.54 34.27 17.27 34.27C17.13 34.27 17.01 34.31 16.85 34.31C16.69 34.31 16.56 34.27 16.43 34.27C16.16 34.27 15.95 34.47 15.95 34.79C15.95 34.96 16 35.14 16.03 35.31C15.87 35.23 15.71 35.14 15.55 35.08C15.25 34.98 14.99 35.13 14.91 35.38C14.87 35.5 14.86 35.64 14.81 35.79C14.76 35.93 14.69 36.05 14.64 36.17C14.56 36.43 14.69 36.69 14.99 36.79C15.16 36.84 15.34 36.87 15.51 36.89C15.39 37.03 15.25 37.14 15.14 37.27C14.94 37.52 15.01 37.81 15.23 37.97C15.34 38.05 15.46 38.1 15.58 38.19C15.72 38.29 15.8 38.39 15.9 38.46C16.13 38.61 16.4 38.59 16.59 38.33C16.7 38.19 16.77 38.01 16.85 37.86C16.93 38.02 17 38.19 17.11 38.33C17.3 38.59 17.58 38.63 17.8 38.46C17.9 38.38 17.99 38.29 18.12 38.19C18.24 38.1 18.37 38.05 18.47 37.97C18.68 37.8 18.74 37.53 18.56 37.27C18.46 37.13 18.31 37.02 18.19 36.89"
          fill="#FFF"></path>
    <path d="M17.68 36.45C17.68 36.95 17.32 37.33 16.84 37.33C16.34 37.33 15.97 36.95 15.97 36.45C15.97 35.98 16.35 35.61 16.84 35.61C17.32 35.61 17.68 35.98 17.68 36.45"
          fill="LAB(39.4 59.0 29.6)"></path>
    <path d="M16.85 37.02C17.17 37.02 17.4 36.77 17.4 36.44C17.4 36.13 17.17 35.9 16.85 35.9C16.53 35.9 16.28 36.13 16.28 36.44C16.27 36.77 16.52 37.02 16.85 37.02"
          fill="#FFF"></path>
    <path d="M17.98 34.87C18.14 34.74 18.38 34.67 18.55 34.73C18.5 34.53 18.48 34.29 18.56 34.07C18.36 34.21 18.14 34.27 17.94 34.27C18.04 34.43 18.04 34.68 17.98 34.87"
          fill="#FFF"></path>
    <path d="M15.11 34.07C15.19 34.3 15.17 34.53 15.12 34.73C15.29 34.66 15.53 34.74 15.69 34.87C15.63 34.68 15.63 34.43 15.74 34.28C15.54 34.27 15.32 34.21 15.11 34.07"
          fill="#FFF"></path>

    <path d="M6.37002 38.38C6.32002 38.56 6.16001 38.77 5.99001 38.83C6.16001 38.96 6.30002 39.14 6.37002 39.36C6.45002 39.13 6.59002 38.95 6.75002 38.83C6.58002 38.77 6.42002 38.56 6.37002 38.38"
          fill="#FFF"></path>
    <path d="M9.17001 37.35C8.96001 37.21 8.84002 37.01 8.76002 36.82C8.65002 36.95 8.43002 37.03 8.23002 37.05C8.38002 37.16 8.52001 37.37 8.52001 37.55C8.70001 37.44 8.92001 37.35 9.17001 37.35"
          fill="#FFF"></path>
    <path d="M4.50002 37.05C4.30002 37.03 4.08002 36.95 3.97002 36.82C3.89002 37.01 3.77001 37.21 3.56001 37.35C3.82001 37.35 4.03001 37.44 4.21001 37.55C4.21001 37.36 4.35002 37.16 4.50002 37.05"
          fill="#FFF"></path>
    <path d="M7.72002 36.89C7.89002 36.87 8.07001 36.84 8.24001 36.79C8.54001 36.69 8.67001 36.44 8.59001 36.17C8.54001 36.05 8.48001 35.93 8.42001 35.79C8.37001 35.64 8.37001 35.5 8.32001 35.38C8.23001 35.13 7.98002 34.98 7.68002 35.08C7.51002 35.13 7.36001 35.22 7.20001 35.31C7.23001 35.14 7.28001 34.96 7.28001 34.79C7.28001 34.47 7.07002 34.27 6.80002 34.27C6.66002 34.27 6.54001 34.31 6.38001 34.31C6.22001 34.31 6.09001 34.27 5.96001 34.27C5.69001 34.27 5.48002 34.47 5.48002 34.79C5.48002 34.96 5.53001 35.14 5.56001 35.31C5.40001 35.23 5.24002 35.14 5.08002 35.08C4.78002 34.98 4.52002 35.13 4.44002 35.38C4.40002 35.5 4.39001 35.64 4.34001 35.79C4.29001 35.93 4.22001 36.05 4.17001 36.17C4.09001 36.43 4.22001 36.69 4.52001 36.79C4.69001 36.84 4.87002 36.87 5.04002 36.89C4.92002 37.03 4.78001 37.14 4.67001 37.27C4.47001 37.52 4.54002 37.81 4.76002 37.97C4.87002 38.05 4.99002 38.1 5.11002 38.19C5.25002 38.29 5.33002 38.39 5.43002 38.46C5.66002 38.61 5.93002 38.59 6.12002 38.33C6.23002 38.19 6.30001 38.01 6.38001 37.86C6.46001 38.02 6.53001 38.19 6.64001 38.33C6.83001 38.59 7.11002 38.63 7.33002 38.46C7.43002 38.38 7.52002 38.29 7.65002 38.19C7.77002 38.1 7.90002 38.05 8.00002 37.97C8.21002 37.8 8.27001 37.53 8.09001 37.27C7.99001 37.13 7.84002 37.02 7.72002 36.89"
          fill="#FFF"></path>
    <path d="M7.22002 36.45C7.22002 36.95 6.86001 37.33 6.38001 37.33C5.88001 37.33 5.51002 36.95 5.51002 36.45C5.51002 35.98 5.89001 35.61 6.38001 35.61C6.85001 35.61 7.22002 35.98 7.22002 36.45"
          fill="LAB(39.4 59.0 29.6)"></path>
    <path d="M6.38001 37.02C6.70001 37.02 6.93002 36.77 6.93002 36.44C6.93002 36.13 6.70001 35.9 6.38001 35.9C6.06001 35.9 5.81001 36.13 5.81001 36.44C5.81001 36.77 6.06001 37.02 6.38001 37.02"
          fill="#FFF"></path>
    <path d="M7.52001 34.87C7.68001 34.74 7.92001 34.67 8.09001 34.73C8.04001 34.53 8.02001 34.29 8.10001 34.07C7.90001 34.21 7.68002 34.27 7.48002 34.27C7.58002 34.43 7.58001 34.68 7.52001 34.87"
          fill="#FFF"></path>
    <path d="M4.65002 34.07C4.73002 34.3 4.71002 34.53 4.66002 34.73C4.83002 34.66 5.07002 34.74 5.23002 34.87C5.17002 34.68 5.17001 34.43 5.28001 34.28C5.07001 34.27 4.85002 34.21 4.65002 34.07"
          fill="#FFF"></path>

    <path d="M6.37002 20.53C6.32002 20.71 6.16001 20.92 5.99001 20.98C6.16001 21.11 6.30002 21.29 6.37002 21.51C6.45002 21.28 6.59002 21.1 6.75002 20.98C6.58002 20.92 6.42002 20.71 6.37002 20.53"
          fill="#FFF"></path>
    <path d="M9.17001 19.49C8.96001 19.35 8.84002 19.15 8.76002 18.96C8.65002 19.09 8.43002 19.17 8.23002 19.19C8.38002 19.3 8.52001 19.51 8.52001 19.69C8.70001 19.58 8.92001 19.49 9.17001 19.49"
          fill="#FFF"></path>
    <path d="M4.50002 19.19C4.30002 19.17 4.08002 19.09 3.97002 18.96C3.89002 19.15 3.77001 19.35 3.56001 19.49C3.82001 19.49 4.03001 19.58 4.21001 19.69C4.21001 19.51 4.35002 19.31 4.50002 19.19"
          fill="#FFF"></path>
    <path d="M7.72002 19.03C7.89002 19.01 8.07001 18.98 8.24001 18.93C8.54001 18.83 8.67001 18.58 8.59001 18.31C8.54001 18.19 8.48001 18.07 8.42001 17.93C8.37001 17.78 8.37001 17.64 8.32001 17.52C8.23001 17.27 7.98002 17.12 7.68002 17.22C7.51002 17.27 7.36001 17.36 7.20001 17.45C7.23001 17.28 7.28001 17.1 7.28001 16.93C7.28001 16.61 7.07002 16.41 6.80002 16.41C6.66002 16.41 6.54001 16.45 6.38001 16.45C6.22001 16.45 6.09001 16.41 5.96001 16.41C5.69001 16.41 5.48002 16.61 5.48002 16.93C5.48002 17.1 5.53001 17.28 5.56001 17.45C5.40001 17.37 5.24002 17.28 5.08002 17.22C4.78002 17.12 4.52002 17.27 4.44002 17.52C4.40002 17.64 4.39001 17.78 4.34001 17.93C4.29001 18.07 4.22001 18.19 4.17001 18.31C4.09001 18.57 4.22001 18.83 4.52001 18.93C4.69001 18.98 4.87002 19.01 5.04002 19.03C4.92002 19.17 4.78001 19.28 4.67001 19.41C4.47001 19.66 4.54002 19.95 4.76002 20.11C4.87002 20.19 4.99002 20.24 5.11002 20.33C5.25002 20.43 5.33002 20.53 5.43002 20.6C5.66002 20.75 5.93002 20.73 6.12002 20.47C6.23002 20.33 6.30001 20.15 6.38001 20C6.46001 20.16 6.53001 20.33 6.64001 20.47C6.83001 20.73 7.11002 20.77 7.33002 20.6C7.43002 20.52 7.52002 20.43 7.65002 20.33C7.77002 20.24 7.90002 20.19 8.00002 20.11C8.21002 19.94 8.27001 19.67 8.09001 19.41C7.99001 19.28 7.84002 19.17 7.72002 19.03"
          fill="#FFF"></path>
    <path d="M7.22002 18.6C7.22002 19.1 6.86001 19.48 6.38001 19.48C5.88001 19.48 5.51002 19.1 5.51002 18.6C5.51002 18.13 5.89001 17.76 6.38001 17.76C6.85001 17.75 7.22002 18.12 7.22002 18.6"
          fill="LAB(39.4 59.0 29.6)"></path>
    <path d="M6.38001 19.16C6.70001 19.16 6.93002 18.91 6.93002 18.58C6.93002 18.27 6.70001 18.04 6.38001 18.04C6.06001 18.04 5.81001 18.27 5.81001 18.58C5.81001 18.91 6.06001 19.16 6.38001 19.16"
          fill="#FFF"></path>
    <path d="M7.52001 17.02C7.68001 16.89 7.92001 16.82 8.09001 16.88C8.04001 16.68 8.02001 16.44 8.10001 16.22C7.90001 16.36 7.68002 16.42 7.48002 16.42C7.58002 16.57 7.58001 16.83 7.52001 17.02"
          fill="#FFF"></path>
    <path d="M4.65002 16.22C4.73002 16.45 4.71002 16.68 4.66002 16.88C4.83002 16.81 5.07002 16.89 5.23002 17.02C5.17002 16.83 5.17001 16.58 5.28001 16.43C5.07001 16.41 4.85002 16.35 4.65002 16.22"
          fill="#FFF"></path>

    <path d="M43.56 6.51003C43.51 6.69003 43.35 6.90003 43.18 6.96003C43.35 7.09003 43.49 7.27003 43.56 7.49003C43.64 7.26003 43.78 7.08003 43.94 6.96003C43.77 6.90003 43.61 6.69003 43.56 6.51003"
          fill="#FFF"></path>
    <path d="M46.36 5.47003C46.15 5.33003 46.03 5.13003 45.95 4.94003C45.84 5.07003 45.62 5.15003 45.42 5.17003C45.57 5.28003 45.71 5.49003 45.71 5.67003C45.89 5.56003 46.11 5.47003 46.36 5.47003"
          fill="#FFF"></path>
    <path d="M41.69 5.17003C41.49 5.15003 41.27 5.07003 41.16 4.94003C41.08 5.13003 40.96 5.33003 40.75 5.47003C41.01 5.47003 41.22 5.56003 41.4 5.67003C41.4 5.49003 41.54 5.29003 41.69 5.17003"
          fill="#FFF"></path>
    <path d="M44.91 5.01003C45.08 4.99003 45.26 4.96003 45.43 4.91003C45.73 4.81003 45.86 4.56003 45.78 4.29003C45.73 4.17003 45.67 4.05003 45.61 3.91003C45.56 3.76003 45.56 3.62003 45.51 3.50003C45.42 3.25003 45.17 3.10003 44.87 3.20003C44.7 3.25003 44.55 3.34003 44.39 3.43003C44.42 3.26003 44.47 3.08003 44.47 2.91003C44.47 2.59003 44.26 2.39003 43.99 2.39003C43.85 2.39003 43.73 2.43003 43.57 2.43003C43.41 2.43003 43.28 2.39003 43.15 2.39003C42.88 2.39003 42.67 2.59003 42.67 2.91003C42.67 3.08003 42.72 3.26003 42.75 3.43003C42.59 3.35003 42.43 3.26003 42.27 3.20003C41.97 3.10003 41.71 3.25003 41.63 3.50003C41.59 3.62003 41.58 3.76003 41.53 3.91003C41.48 4.05003 41.41 4.17003 41.36 4.29003C41.28 4.55003 41.41 4.81003 41.71 4.91003C41.88 4.96003 42.06 4.99003 42.23 5.01003C42.11 5.15003 41.97 5.26003 41.86 5.39003C41.66 5.64003 41.73 5.93003 41.95 6.09003C42.06 6.17003 42.18 6.22003 42.3 6.31003C42.44 6.41003 42.52 6.51003 42.62 6.58003C42.85 6.73003 43.12 6.71003 43.31 6.45003C43.42 6.31003 43.49 6.13003 43.57 5.98003C43.65 6.14003 43.72 6.31003 43.83 6.45003C44.02 6.71003 44.3 6.75003 44.52 6.58003C44.62 6.50003 44.71 6.41003 44.84 6.31003C44.96 6.22003 45.09 6.17003 45.19 6.09003C45.4 5.92003 45.46 5.65003 45.28 5.39003C45.18 5.26003 45.03 5.15003 44.91 5.01003"
          fill="#FFF"></path>
    <path d="M44.4 4.58003C44.4 5.08003 44.04 5.46003 43.56 5.46003C43.06 5.46003 42.69 5.08003 42.69 4.58003C42.69 4.11003 43.07 3.74003 43.56 3.74003C44.04 3.73003 44.4 4.10003 44.4 4.58003"
          fill="LAB(39.4 59.0 29.6)"></path>
    <path d="M43.57 5.14003C43.89 5.14003 44.12 4.89003 44.12 4.56003C44.12 4.25003 43.89 4.02003 43.57 4.02003C43.25 4.02003 43 4.25003 43 4.56003C43 4.89003 43.24 5.14003 43.57 5.14003"
          fill="#FFF"></path>
    <path d="M44.7 3.00003C44.86 2.87003 45.1 2.80003 45.27 2.86003C45.22 2.66003 45.2 2.42003 45.28 2.20003C45.08 2.34003 44.86 2.40003 44.66 2.40003C44.77 2.55003 44.77 2.81003 44.7 3.00003"
          fill="#FFF"></path>
    <path d="M41.84 2.20003C41.92 2.43003 41.9 2.66003 41.85 2.86003C42.02 2.79003 42.26 2.87003 42.42 3.00003C42.36 2.81003 42.36 2.56003 42.47 2.41003C42.26 2.39003 42.04 2.33003 41.84 2.20003"
          fill="#FFF"></path>

    <path d="M16.83 6.51003C16.78 6.69003 16.62 6.90003 16.45 6.96003C16.62 7.09003 16.76 7.27003 16.83 7.49003C16.91 7.26003 17.05 7.08003 17.21 6.96003C17.04 6.90003 16.88 6.69003 16.83 6.51003"
          fill="#FFF"></path>
    <path d="M19.63 5.47003C19.42 5.33003 19.3 5.13003 19.22 4.94003C19.11 5.07003 18.89 5.15003 18.69 5.17003C18.84 5.28003 18.98 5.49003 18.98 5.67003C19.16 5.56003 19.38 5.47003 19.63 5.47003"
          fill="#FFF"></path>
    <path d="M14.96 5.17003C14.76 5.15003 14.54 5.07003 14.43 4.94003C14.35 5.13003 14.23 5.33003 14.02 5.47003C14.28 5.47003 14.49 5.56003 14.67 5.67003C14.67 5.49003 14.81 5.29003 14.96 5.17003"
          fill="#FFF"></path>
    <path d="M18.18 5.01003C18.35 4.99003 18.53 4.96003 18.7 4.91003C19 4.81003 19.13 4.56003 19.05 4.29003C19 4.17003 18.94 4.05003 18.88 3.91003C18.83 3.76003 18.83 3.62003 18.78 3.50003C18.69 3.25003 18.44 3.10003 18.14 3.20003C17.97 3.25003 17.82 3.34003 17.66 3.43003C17.69 3.26003 17.74 3.08003 17.74 2.91003C17.74 2.59003 17.53 2.39003 17.26 2.39003C17.12 2.39003 17 2.43003 16.84 2.43003C16.68 2.43003 16.55 2.39003 16.42 2.39003C16.15 2.39003 15.94 2.59003 15.94 2.91003C15.94 3.08003 15.99 3.26003 16.02 3.43003C15.86 3.35003 15.7 3.26003 15.54 3.20003C15.24 3.10003 14.98 3.25003 14.9 3.50003C14.86 3.62003 14.85 3.76003 14.8 3.91003C14.75 4.05003 14.68 4.17003 14.63 4.29003C14.55 4.55003 14.68 4.81003 14.98 4.91003C15.15 4.96003 15.33 4.99003 15.5 5.01003C15.38 5.15003 15.24 5.26003 15.13 5.39003C14.93 5.64003 15 5.93003 15.22 6.09003C15.33 6.17003 15.45 6.22003 15.57 6.31003C15.71 6.41003 15.79 6.51003 15.89 6.58003C16.12 6.73003 16.39 6.71003 16.58 6.45003C16.69 6.31003 16.76 6.13003 16.84 5.98003C16.92 6.14003 16.99 6.31003 17.1 6.45003C17.29 6.71003 17.57 6.75003 17.79 6.58003C17.89 6.50003 17.98 6.41003 18.11 6.31003C18.23 6.22003 18.36 6.17003 18.46 6.09003C18.67 5.92003 18.73 5.65003 18.55 5.39003C18.45 5.26003 18.3 5.15003 18.18 5.01003"
          fill="#FFF"></path>
    <path d="M17.67 4.58003C17.67 5.08003 17.31 5.46003 16.83 5.46003C16.33 5.46003 15.96 5.08003 15.96 4.58003C15.96 4.11003 16.34 3.74003 16.83 3.74003C17.31 3.73003 17.67 4.10003 17.67 4.58003"
          fill="LAB(39.4 59.0 29.6)"></path>
    <path d="M16.84 5.14003C17.16 5.14003 17.39 4.89003 17.39 4.56003C17.39 4.25003 17.16 4.02003 16.84 4.02003C16.52 4.02003 16.27 4.25003 16.27 4.56003C16.27 4.89003 16.51 5.14003 16.84 5.14003"
          fill="#FFF"></path>
    <path d="M17.98 3.00003C18.14 2.87003 18.38 2.80003 18.55 2.86003C18.5 2.66003 18.48 2.42003 18.56 2.20003C18.36 2.34003 18.14 2.40003 17.94 2.40003C18.04 2.55003 18.04 2.81003 17.98 3.00003"
          fill="#FFF"></path>
    <path d="M15.11 2.20003C15.19 2.43003 15.17 2.66003 15.12 2.86003C15.29 2.79003 15.53 2.87003 15.69 3.00003C15.63 2.81003 15.63 2.56003 15.74 2.41003C15.53 2.39003 15.31 2.33003 15.11 2.20003"
          fill="#FFF"></path>

    <path d="M6.37002 6.51003C6.32002 6.69003 6.16001 6.90003 5.99001 6.96003C6.16001 7.09003 6.30002 7.27003 6.37002 7.49003C6.45002 7.26003 6.59002 7.08003 6.75002 6.96003C6.58002 6.90003 6.42002 6.69003 6.37002 6.51003"
          fill="#FFF"></path>
    <path d="M9.17001 5.47003C8.96001 5.33003 8.84002 5.13003 8.76002 4.94003C8.65002 5.07003 8.43002 5.15003 8.23002 5.17003C8.38002 5.28003 8.52001 5.49003 8.52001 5.67003C8.70001 5.56003 8.92001 5.47003 9.17001 5.47003"
          fill="#FFF"></path>
    <path d="M4.50002 5.17003C4.30002 5.15003 4.08002 5.07003 3.97002 4.94003C3.89002 5.13003 3.77001 5.33003 3.56001 5.47003C3.82001 5.47003 4.03001 5.56003 4.21001 5.67003C4.21001 5.49003 4.35002 5.29003 4.50002 5.17003"
          fill="#FFF"></path>
    <path d="M7.72002 5.01003C7.89002 4.99003 8.07001 4.96003 8.24001 4.91003C8.54001 4.81003 8.67001 4.56003 8.59001 4.29003C8.54001 4.17003 8.48001 4.05003 8.42001 3.91003C8.37001 3.76003 8.37001 3.62003 8.32001 3.50003C8.23001 3.25003 7.98002 3.10003 7.68002 3.20003C7.51002 3.25003 7.36001 3.34003 7.20001 3.43003C7.23001 3.26003 7.28001 3.08003 7.28001 2.91003C7.28001 2.59003 7.07002 2.39003 6.80002 2.39003C6.66002 2.39003 6.54001 2.43003 6.38001 2.43003C6.22001 2.43003 6.09001 2.39003 5.96001 2.39003C5.69001 2.39003 5.48002 2.59003 5.48002 2.91003C5.48002 3.08003 5.53001 3.26003 5.56001 3.43003C5.40001 3.35003 5.24002 3.26003 5.08002 3.20003C4.78002 3.10003 4.52002 3.25003 4.44002 3.50003C4.40002 3.62003 4.39001 3.76003 4.34001 3.91003C4.29001 4.05003 4.22001 4.17003 4.17001 4.29003C4.09001 4.55003 4.22001 4.81003 4.52001 4.91003C4.69001 4.96003 4.87002 4.99003 5.04002 5.01003C4.92002 5.15003 4.78001 5.26003 4.67001 5.39003C4.47001 5.64003 4.54002 5.93003 4.76002 6.09003C4.87002 6.17003 4.99002 6.22003 5.11002 6.31003C5.25002 6.41003 5.33002 6.51003 5.43002 6.58003C5.66002 6.73003 5.93002 6.71003 6.12002 6.45003C6.23002 6.31003 6.30001 6.13003 6.38001 5.98003C6.46001 6.14003 6.53001 6.31003 6.64001 6.45003C6.83001 6.71003 7.11002 6.75003 7.33002 6.58003C7.43002 6.50003 7.52002 6.41003 7.65002 6.31003C7.77002 6.22003 7.90002 6.17003 8.00002 6.09003C8.21002 5.92003 8.27001 5.65003 8.09001 5.39003C7.99001 5.26003 7.84002 5.15003 7.72002 5.01003"
          fill="#FFF"></path>
    <path d="M7.22002 4.58003C7.22002 5.08003 6.86001 5.46003 6.38001 5.46003C5.88001 5.46003 5.51002 5.08003 5.51002 4.58003C5.51002 4.11003 5.89001 3.74003 6.38001 3.74003C6.85001 3.73003 7.22002 4.10003 7.22002 4.58003"
          fill="LAB(39.4 59.0 29.6)"></path>
    <path d="M6.38001 5.14003C6.70001 5.14003 6.93002 4.89003 6.93002 4.56003C6.93002 4.25003 6.70001 4.02003 6.38001 4.02003C6.06001 4.02003 5.81001 4.25003 5.81001 4.56003C5.81001 4.89003 6.06001 5.14003 6.38001 5.14003"
          fill="#FFF"></path>
    <path d="M7.52001 3.00003C7.68001 2.87003 7.92001 2.80003 8.09001 2.86003C8.04001 2.66003 8.02001 2.42003 8.10001 2.20003C7.90001 2.34003 7.68002 2.40003 7.48002 2.40003C7.58002 2.55003 7.58001 2.81003 7.52001 3.00003"
          fill="#FFF"></path>
    <path d="M4.65002 2.20003C4.73002 2.43003 4.71002 2.66003 4.66002 2.86003C4.83002 2.79003 5.07002 2.87003 5.23002 3.00003C5.17002 2.81003 5.17001 2.56003 5.28001 2.41003C5.07001 2.39003 4.85002 2.33003 4.65002 2.20003"
          fill="#FFF"></path>

    <path d="M6.50002 24.37C6.72002 24.14 6.93002 23.94 7.19002 23.82C6.54002 23.43 5.62001 23.32 4.92001 23.54C5.54001 23.76 6.10002 24.03 6.50002 24.37"
          fill="LAB(73.4 14.8 79)"></path>
    <path d="M30.61 7.11003L38.15 4.97003L39.16 3.95003L37.81 3.56003L30.3 5.39003C30.29 5.68003 30.2 5.94003 29.88 6.22003C34.16 5.11003 37.61 4.22003 38.18 4.19003C37.65 4.44003 34.29 5.36003 30 6.45003C30.39 6.57003 30.53 6.83003 30.61 7.11003"
          fill="#FFF"></path>
    <path d="M36.06 28.66C36.97 28.86 37.82 28.33 37.82 27.63C37.82 26.24 35.37 26.01 35.37 24.59C35.37 23.84 35.82 23.34 37.17 23.13C36.36 23.5 36.03 23.96 36.03 24.5C36.03 25.74 38.4 25.6 38.4 27.44C38.4 27.62 38.4 27.7 38.39 27.82C39.21 27.67 39.77 27.18 39.77 26.59C39.77 25.26 37.32 25.03 37.32 24.29C37.32 23.87 37.67 23.52 38.51 23.23C43.52 21.25 45.59 18.89 45.63 15.81C45.67 12.53 42.96 9.97003 39.79 9.88003C36.54 9.79003 33.81 12.46 33.8 15.78C33.79 18.69 35.91 20.52 37.47 21.57C37.93 21.51 38.38 21.4 38.83 21.25C36.23 19.47 35.08 17.76 35.08 15.79C35.08 14.53 35.61 13.44 36.09 12.85C36.47 12.31 36.95 12.15 37.32 12.49C37.73 12.87 38.22 12.91 38.74 12.6C38.36 12.55 38.17 12.3 38.05 11.94C37.98 11.72 37.82 11.56 37.59 11.6C38.06 11.32 38.53 11.54 38.75 11.98C39.04 12.57 39.58 12.7 40.05 12.5C39.75 12.39 39.57 12.12 39.51 11.71C39.46 11.42 39.33 11.12 39.07 11.08C39.74 10.88 40.09 11.32 40.15 11.64C40.29 12.39 40.57 12.64 41.32 12.63C41.14 12.45 41.04 12.23 41.04 12.04C41.04 11.62 41.48 11.48 41.86 11.72C43.43 12.68 44.25 14.13 44.25 15.8C44.25 19.11 40.69 22 36.51 21.91C33.61 21.91 32.1 23.04 32.1 24.49C32.1 25.84 33.34 26.61 34.38 26.52C33.86 26.08 33.32 25.47 33.32 24.57C33.32 23.46 34.44 22.63 36.48 22.65C34.94 22.97 34.12 23.5 34.12 24.6C34.12 26.22 36.33 26.68 36.33 27.99C36.32 28.24 36.23 28.48 36.06 28.66"
          fill="LAB(73.4 14.8 79)"></path>
    <path d="M22.94 19.93C25.17 19.93 26.47 18.12 26.47 15.19C26.47 13.04 25.76 12.25 24.57 12.25C24.1 12.25 23.82 12.35 23.35 12.63C24.08 12.15 24.52 11.92 24.99 11.92C25.37 11.92 25.68 12.04 25.95 12.22C26.62 12.68 26.73 13.23 27.26 13.23C27.56 13.23 27.8 13.03 28.3 12.15C28.07 12.37 27.84 12.45 27.56 12.45C27.12 12.45 26.9 12.19 26.9 11.99C26.9 11.84 27.01 11.73 27.16 11.73C27.36 11.73 27.42 11.91 27.67 11.91C28.01 11.91 28.27 11.7 28.47 11.13C27.79 11.48 26.97 10.5 25.93 11.31C26.16 10.01 27.61 10.2 27.64 9.49003C27.84 9.86003 27.72 10.21 27.16 10.32C26.83 10.39 26.53 10.59 26.35 10.84C26.78 10.64 27.13 10.64 27.49 10.68C28.7 10.79 29.03 9.32003 27.72 8.74003C27.56 9.26003 27.12 9.23003 26.88 9.59003C26.9 9.42003 26.97 9.30003 27.06 9.18003L23.57 7.57003C23.02 8.47003 22.88 8.43003 22.88 8.68003C22.88 8.79003 22.91 8.88003 23.01 9.02003C22.55 9.25003 22.35 9.44003 21.98 9.98003C21.34 10.91 21.07 11.41 20.98 11.92C21.06 12.18 21.18 12.36 21.46 12.58C21.46 13.39 21.88 13.85 22.52 13.85C23.31 13.85 23.43 13.18 24.35 13.18C25.19 13.18 25.72 13.99 25.72 15.27C25.72 16.34 25.55 17.16 25.22 17.72C24.82 18.39 24.17 18.66 23.46 18.66C22.09 18.66 22.07 17.79 21.25 17.79C20.66 17.79 20.3 18.29 20.23 18.77C20.83 19.57 21.76 19.93 22.94 19.93"
          fill="LAB(73.4 14.8 79)"></path>
    <path d="M23.29 11.07C23.64 10.43 23.81 10.21 24.04 9.97003C23.98 9.81003 23.98 9.62003 24.02 9.47003C23.92 9.39003 23.7 9.20003 23.33 9.15003C24.21 8.68003 24.98 9.84003 25.54 9.50003C25.08 10.29 23.93 9.98003 23.29 11.07"
          fill="LAB(39.4 59.0 29.6)"></path>
    <path d="M16.73 25.78C17.2 25.45 17.75 25.31 18.41 25C19.64 24.42 20.01 23.74 20.3 23.1L20.53 22.59C20.76 22.08 21.15 21.79 21.76 21.69C21.42 21.8 21.23 22.12 21.09 22.61L20.94 23.12C20.76 23.78 20.57 24.44 19.92 24.78C20.25 24.76 20.57 24.76 20.79 24.76C21.95 24.79 22.2 24.01 22.43 23.2L22.57 22.7C22.73 22.14 22.9 21.98 23.5 21.73C23.21 21.93 23.15 22.33 23.12 22.72L23.07 23.22C23 23.89 23.06 24.52 22.37 24.82C22.8 24.87 23.04 24.91 23.45 24.98C24.08 25.07 24.7 24.57 24.64 23.68L24.55 22.63C24.49 21.76 24.72 21.59 25.05 21.17C24.91 21.54 24.99 22 25.13 22.51L25.27 23.04C25.47 23.82 25.6 24.53 24.91 25.16C25.82 25.24 26.21 25.27 26.64 25.18C27.4 25.03 27.94 24.06 26.77 22.4L26.32 21.75C25.93 21.17 25.97 20.61 26.31 19.97C26.17 20.72 26.59 21.27 27.09 21.62L27.44 22.24C27.82 22.95 28.4 23.57 28.19 24.7C28.58 24.5 28.95 24.21 29.41 23.61C30.06 22.56 29.45 21.74 28.53 21L28.03 20.57C27.07 19.68 26.94 19.14 27.28 18.21C27.18 19.2 27.86 19.68 28.53 20.14L28.94 20.43C29.64 20.9 30.28 21.36 30.26 22.22C30.44 21.85 30.52 21.39 30.58 21.04C30.74 19.81 30.18 19.19 29.38 18.8L28.88 18.56C28.24 18.24 27.54 17.7 27.74 16.41C27.85 17.49 28.47 17.71 29.1 17.94L29.53 18.1C30.22 18.36 30.61 18.7 30.83 19.2L30.93 18.34C31.04 17.38 30.66 16.81 29.91 16.71L29.41 16.63C28.78 16.53 28.07 16.14 28.13 15.14C28.25 15.76 28.86 15.99 29.49 16.05L29.99 16.11C30.61 16.17 31.09 16.28 31.13 17.01L31.27 15.99C31.35 15.33 31.03 15.01 30.32 15.05L29.81 15.07C29.04 15.11 28.55 14.75 28.56 13.96C28.7 14.63 29.46 14.58 29.91 14.53L30.42 14.47C31.01 14.39 31.39 14.45 31.43 14.79L31.51 14.36C31.64 13.75 31.35 13.48 30.67 13.65L30.29 13.75C29.6 13.92 29.03 13.66 29.01 13.01C29.23 13.49 29.84 13.55 30.46 13.29L30.86 13.11C31.31 12.91 31.64 12.97 31.7 13.26L31.78 12.64C31.83 12.29 31.49 11.9 30.98 12.29L30.68 12.51C30.28 12.82 29.61 12.9 29.29 12.43C29.77 12.66 30.32 12.44 30.65 12.05L31.01 11.62C31.34 11.21 31.74 11.23 31.87 11.64C31.89 11.5 31.9 11.38 31.9 11.27C31.9 10.8 31.68 10.51 31.32 10.51C31.06 10.51 30.87 10.67 30.73 10.94L30.44 11.49C30.29 11.76 30.04 11.87 29.62 11.92C30.08 11.72 30.23 11.46 30.37 11.03L29.25 10.37C29.3 10.28 29.33 10.17 29.35 10.05L30.59 10.67C31.53 9.38002 33.02 8.92002 34.68 8.17002C33.97 7.63002 33.44 7.62003 33.05 7.85003C32.68 8.07003 32.57 8.51003 32.35 8.65003C32.23 8.72003 32.08 8.67003 32 8.54003C31.94 8.43003 31.94 8.25003 31.84 8.07003C31.66 7.75003 31.02 7.57003 30.83 7.66003C31.1 7.96003 31.18 8.51003 30.81 8.74003C30.67 8.82003 30.48 8.76003 30.4 8.63003C30.32 8.49003 30.35 8.39003 30.48 8.24003C30.57 8.13003 30.59 8.06003 30.54 7.95003C30.47 7.80003 30.25 7.72003 30.12 7.79003C30.04 7.84003 30.02 7.91003 29.98 8.01003C29.93 8.09003 29.9 8.14003 29.82 8.18003C29.68 8.25003 29.52 8.20003 29.44 8.06003C29.33 7.86003 29.43 7.59003 29.7 7.45003C29.93 7.33003 30.14 7.28003 30.36 7.34003C30.32 6.99003 29.98 6.69003 29.63 6.73003C29.33 6.77003 29.21 6.39003 29.45 6.21003C29.95 5.83003 30.08 5.40003 29.84 4.75003C29.15 4.86003 28.82 5.19003 28.76 5.81003C28.72 6.10003 28.37 6.17003 28.22 5.89003C28.08 5.58003 27.48 5.57003 27.29 5.62003C27.44 5.79003 27.52 6.00003 27.52 6.25003C27.52 6.56003 27.33 6.79003 27.1 6.79003C26.94 6.79003 26.8 6.65003 26.8 6.51003C26.8 6.43003 26.82 6.35003 26.88 6.28003C26.94 6.20003 27 6.14003 27 6.05003C27 5.90003 26.82 5.76003 26.65 5.76003C26.54 5.76003 26.47 5.82003 26.42 5.96003C26.35 6.15003 26.26 6.23003 26.11 6.23003C25.95 6.23003 25.81 6.08003 25.81 5.92003C25.81 5.48003 26.34 5.27003 26.76 5.35003C26.73 4.69003 26.33 4.63003 25.95 4.63003C25.75 4.63003 25.59 4.73003 25.46 4.73003C25.32 4.73003 25.2 4.62003 25.2 4.47003C25.2 4.22003 25.55 3.91003 25.55 3.47003C25.55 3.03003 25.19 2.51003 24.32 2.32003L24.33 2.34003L24.31 2.32003C24.69 3.51003 24.68 5.59003 24.25 6.38003L23.86 7.12003L27.35 8.91003C27.48 8.76003 27.58 8.53003 27.62 8.19003C29.19 8.69003 29.68 10.58 27.98 10.86C28.53 10.91 28.79 10.87 29.03 10.66L28.75 11.61C28.4 12.82 27.85 13.69 27.29 13.69C26.91 13.69 26.71 13.55 26.26 12.85C26.67 13.72 26.81 14.44 26.81 15.23C26.81 18.33 25.41 20.27 22.92 20.27C21.68 20.27 20.65 19.92 20.01 19.22C19.12 19.5 18.9 20.65 18.64 21.47C19.45 21.01 20.09 20.98 20.35 21.07C19.9 21.14 18.82 21.86 18.12 22.67C17.17 23.7 17.37 24.54 16.73 25.78"
          fill="LAB(73.4 14.8 79)"></path>
    <path d="M14.51 9.77003L22.72 8.08003L23.42 7.05003L14.05 9.00003C14.23 9.22003 14.38 9.49003 14.51 9.77003"
          fill="#FFF"></path>
    <path d="M14.52 11.08L21.73 9.57003C21.99 9.22003 22.19 9.02003 22.45 8.84003C22.44 8.79003 22.43 8.74003 22.43 8.69003C22.43 8.62003 22.45 8.55003 22.48 8.47003L14.6 10.15C14.62 10.47 14.56 10.79 14.52 11.08"
          fill="#FFF"></path>
    <path d="M22.79 15.01C22.79 14.61 22.86 14.29 23.1 13.96C22.86 14.07 22.71 14.09 22.53 14.09C22.39 14.09 22.27 14.08 22.17 14.04C22.18 14.5 22.4 14.77 22.79 15.01"
          fill="LAB(73.4 14.8 79)"></path>
    <path d="M11.76 5.62003C11.86 5.57003 11.98 5.53003 12.13 5.48003C12.27 5.44003 12.39 5.43003 12.5 5.42003C12.52 5.06003 12.28 4.80003 12 4.86003C11.67 4.93003 11.59 5.29003 11.76 5.62003"
          fill="LAB(73.4 14.8 79)"></path>
    <path d="M24.18 18.32C24.77 18.05 25.05 17.59 25.05 17.19C25.05 16.53 24.61 15.65 23.15 15.65C21.97 15.65 20.74 16.55 19.11 16.55C18.42 16.55 17.93 16.11 17.93 15.5C17.93 14.96 18.39 14.59 18.86 14.59C19.04 14.59 19.23 14.65 19.39 14.78L19.37 14.75L19.39 14.77C19.25 14.32 18.82 14.1 18.35 14.1C17.64 14.1 16.86 14.6 16.86 15.59C16.86 16.52 17.76 17.25 18.9 17.25C20.26 17.25 22.08 16.14 23.19 16.14C24.15 16.14 24.69 16.62 24.69 17.43C24.69 17.78 24.52 18.16 24.18 18.32"
          fill="LAB(73.4 14.8 79)"></path>
    <path d="M22.69 18.27C22.34 17.87 22.31 17.68 22.31 17.37C22.31 17.14 22.35 16.96 22.54 16.73C22.13 16.87 21.81 17.18 21.69 17.54C22.02 17.68 22.21 17.89 22.69 18.27"
          fill="LAB(73.4 14.8 79)"></path>
    <path d="M14.27 14.67C14.8 14.53 14.9 14.44 14.85 14.14C14.8 13.91 14.51 13.69 14.27 12.69C13.89 11 14.32 10.87 14.13 10.05C13.94 9.27003 13.45 9.27003 13.11 7.63003C12.89 6.62003 13.03 6.30003 12.99 6.06003C12.94 5.75003 12.73 5.62003 12.21 5.75003C11.71 5.86003 11.63 6.15003 11.69 6.34003C11.75 6.59003 12.01 6.83003 12.35 8.20003L12.47 8.68003C12.56 9.06003 12.45 9.24003 12.18 9.37003C12.45 9.75003 12.86 10 13.43 10.12C13.38 10.88 13.31 11.52 13.19 12.03L13.39 12.59C13.71 13.82 13.5 14.19 13.55 14.41C13.62 14.71 13.8 14.79 14.27 14.67"
          fill="LAB(73.4 14.8 79)"></path>
    <path d="M11.06 11.57C11.22 11.4 11.31 11.34 11.5 11.22L11.57 10.99C10.62 10.3 10.99 9.27003 11.5 8.99003C11.24 8.70003 10.59 8.85003 10.57 9.35003L10.51 10.5L11.06 11.57"
          fill="#FFF"></path>
    <path d="M10.53 12.21C10.55 12.09 10.64 11.95 10.82 11.83L10.13 10.6L10.15 9.37003C10.15 9.21003 10.25 9.06003 10.43 8.98003C10.22 8.81003 9.48002 8.82003 9.48002 9.54003V10.74L10.01 11.94C10.09 12.13 10.29 12.23 10.53 12.21"
          fill="#FFF"></path>
    <path d="M14.51 15.59C14.8 15.53 14.87 15.18 14.71 14.89C14.61 14.94 14.5 14.96 14.35 15C14.22 15.03 14.09 15.05 13.99 15.05C13.95 15.39 14.2 15.66 14.51 15.59"
          fill="LAB(73.4 14.8 79)"></path>
    <path d="M9.74001 14.15C10.34 13.84 11.19 13.62 11.9 13.54C12.56 12.92 12.86 12.03 12.98 10.36C12.36 10.16 11.95 9.84003 11.68 9.36003C11.23 9.74003 11.4 10.61 12.06 10.75L11.88 11.47C11.18 11.85 10.67 12.14 10.69 13.41C10.49 13.18 10.4 12.97 10.37 12.77C10.21 12.77 10.08 12.74 9.97002 12.67C9.77002 12.87 9.37001 12.94 9.07001 12.76C8.93001 12.9 8.69002 12.96 8.48002 12.96C8.83002 13.65 9.21001 14.02 9.74001 14.15"
          fill="#FFF"></path>
    <path d="M9.96001 12.23C9.87001 12.23 9.74002 12.13 9.69002 12.01L9.10001 10.81L9.11002 9.54003C9.11002 9.40003 9.13002 9.31003 9.22002 9.19003C8.96002 9.15003 8.49001 9.27003 8.49001 9.77003L8.48002 10.97L8.97002 12.11C9.21002 12.65 9.75001 12.52 9.96001 12.23"
          fill="#FFF"></path>
    <path d="M8.92001 12.42C8.73001 12.35 8.67002 12.25 8.62002 12.16L8.09001 11.06L8.14001 9.89003C8.14001 9.83003 8.16002 9.73003 8.22002 9.62003C7.83002 9.58003 7.60001 9.93003 7.59001 10.34L7.57001 11.18L8.07001 12.24C8.27001 12.66 8.71001 12.6 8.92001 12.42"
          fill="#FFF"></path>
    <path d="M9.79002 15C10.41 14.62 11.57 14.28 12.27 14.27L12.15 13.8C11.49 13.79 10.27 14.13 9.70001 14.5L9.79002 15"
          fill="LAB(73.4 14.8 79)"></path>
    <path d="M10.79 19.35C12.46 19.36 13.08 19.11 13.75 18.15L12.19 14.64C11.51 14.69 10.59 14.93 10 15.23L10.79 19.35"
          fill="#FFF"></path>
    <path d="M6.65002 12.85C6.96002 12.8 6.73001 12.45 7.27001 12.34L7.64001 12.26L7.17001 11.36V10.94L6.98002 10.98C6.44002 11.07 6.39001 10.78 6.10001 10.83C5.66001 10.89 6.13002 12.97 6.65002 12.85"
          fill="LAB(73.4 14.8 79)"></path>
    <path d="M16.85 24.43C17.03 23.71 17.2 23.05 17.83 22.31C18.23 21.88 18.21 21.03 18.53 20.3L15.2 19.58C14.34 20.4 14.02 21.31 13.82 22.97L16.85 24.43"
          fill="#FFF"></path>
    <path d="M5.93002 12.79C5.63002 12.42 5.47002 11.77 5.58002 11.25C5.20002 11.41 4.84001 11.73 4.95001 12.11C4.94001 12.6 5.57002 12.82 5.93002 12.79"
          fill="LAB(73.4 14.8 79)"></path>
    <path d="M13.39 23.11C13.62 21.14 13.99 20.15 15.06 19.2L14.44 18.93L14.1 18.34C13.32 19.48 12.59 19.74 10.61 19.73L10.63 22.67L13.39 23.11"
          fill="LAB(73.4 14.8 79)"></path>
    <path d="M34.04 51.98C34.77 50.78 35.98 50.23 37.31 50.78C37.53 50.87 37.81 50.88 38.05 50.83C39.34 50.6 38.54 48.85 39.76 48.74C40.23 48.7 40.48 49.04 40.57 49.7C41.81 48.08 39.7 48.17 40.37 46.27C40.25 47.35 41.12 47.21 41.23 48.15C42.25 46.44 40.27 46.87 40.91 44.66C40.91 45.97 41.64 45.78 41.76 46.69C42.42 45.18 41.34 44.88 41.34 43.76C41.34 42.84 41.82 42.76 41.82 41.98C41.82 41.33 41.32 40.81 40.67 40.81C40.4 40.81 40.14 40.93 40.08 40.95C39.88 39.22 38.02 39.62 37.25 38.59C36.94 38.17 36.84 37.49 37.02 36.84C37.43 37.85 37.84 37.44 38.38 38.05C38.44 36.28 37.34 37.12 37.02 35.34C37.14 35.9 37.86 35.86 38.26 36.46C38.48 34.56 37.02 35.38 36.87 33.73C37.08 34.37 37.95 34.39 38.19 34.78C38.24 33.86 37.9 33.38 37.16 33.07C36.87 32.94 36.72 32.69 36.72 32.46C36.72 32.14 36.99 31.83 37.5 31.83C39.17 31.83 41.05 30.98 41.99 29.68C41.8 30.37 42.23 31.01 41.91 31.68C43.04 30.93 42.9 30.35 42.71 29.74C42.56 29.24 42.43 28.84 42.66 27.93C42.68 28.37 42.83 28.66 43.01 28.95C43.2 29.3 43.43 29.66 43.28 30.17C44.12 29.18 43.74 28.45 43.36 27.81C43.08 27.35 42.92 27.09 42.92 26.04C43.06 26.58 43.27 26.79 43.5 27.01C43.73 27.24 44 27.63 44.02 28.15C44.83 25.8 43.16 25.94 42.66 24.72C42.33 23.88 41.73 23.06 40.91 22.51C40.57 22.67 40.22 22.84 39.86 22.99C41.21 23.8 41.89 25.29 41.89 26.67C41.89 30.88 35.63 33.35 29.01 24.72C27.94 25.53 26.86 25.69 25.82 25.69C23.84 25.69 22.79 25.23 20.52 25.23C19.18 25.23 17.94 25.74 16.79 26.31C13.43 27.97 13.13 28.1 10.58 26.19C9.55002 25.43 9.30002 24.63 8.83002 24.29C8.04002 23.71 6.86001 23.92 6.64001 25.07C6.99001 25.06 7.32001 25.15 7.59001 25.34C8.55001 26.03 8.08002 26.11 10.29 27.31C7.72002 26.43 8.29001 26.11 6.96001 25.64C6.08001 25.33 4.99001 25.91 5.03001 26.95C5.05001 27.26 5.11002 27.54 5.48002 28.01C5.65002 27.63 6.24002 27.32 6.83002 27.35C7.64002 27.39 8.12002 27.95 9.97002 28.36C8.10002 28.31 7.71001 27.86 6.74001 27.93C6.28001 27.98 5.69001 28.39 5.70001 29.13C5.71001 29.83 6.30001 30.49 7.09001 30.47C8.16001 30.44 9.27001 28.93 10.24 30.17C10.41 30.4 10.7 30.54 11.02 30.52C12.09 30.6 11.89 29.92 12.86 29.93C13.27 29.95 13.54 30.23 13.66 30.63C13.91 31.39 14.49 31.7 15.47 31.59C15.09 31.33 14.97 31.09 14.88 30.69C14.77 30.16 14.62 29.73 13.93 29.71C14.74 29.73 15.35 29.93 15.52 30.67C15.65 31.33 16.22 31.64 17.19 31.48C16.85 31.27 16.6 31.03 16.52 30.57C16.43 30.07 16.28 29.64 15.7 29.64C16.41 29.64 17.03 29.82 17.15 30.49C17.26 31.15 17.82 31.47 18.76 31.3C18.42 31.12 18.23 30.85 18.12 30.39C18.04 30.03 17.91 29.63 17.31 29.59C18 29.63 18.64 29.77 18.74 30.31C18.91 30.99 19.28 31.27 20.2 31.18C19.4 30.57 19.54 29.49 20.56 29.25L20.87 29.19C21.68 29.04 22.07 28.64 21.87 27.83C23.12 27.39 24.38 26.83 24.88 26.27C24.32 27.05 23.31 27.89 22.45 28.27C24.58 31.49 28.99 30.19 31.21 31.75C33.21 33.15 32.96 35.3 32.43 39.38C32.29 40.33 31.74 40.74 31.15 40.38C31.19 41.1 31.98 41.46 32.51 40.92C32.62 42.35 33.38 42 33.72 42.82C33.87 42.41 33.93 42.01 33.58 41.49C33.18 40.9 33.52 40.38 34.18 40.56C34.99 40.79 38.31 42.83 38.49 43.95C38.78 45.36 38.02 46.94 37.18 47.49C36.68 47.81 36.21 47.71 35.28 47.5C34.35 47.28 33.93 46.61 33.04 46.36C32.26 46.16 31.37 46.72 31.37 47.62C31.57 47.55 31.79 47.52 32.02 47.52C32.97 47.52 33.26 48.08 35.11 48.39C32.86 48.58 33.45 48.1 31.89 48.1C31.16 48.1 30.56 48.66 30.56 49.42C30.56 49.83 30.74 50.28 31.18 50.66C31.27 50.17 31.61 49.8 32.05 49.67C32.82 49.44 33.47 49.78 35.19 49.32C33.66 50.21 32.89 49.91 32.19 50.3C31.85 50.5 31.63 50.88 31.63 51.36C31.61 52.73 33.35 53.18 34.04 51.98"
          fill="LAB(73.4 14.8 79)"></path>
    <path d="M37.07 52.56C37.65 52.21 38.09 51.66 38.27 51.09C37.96 51.22 37.61 51.24 37.22 51.14C37.33 51.59 37.3 52.07 37.07 52.56"
          fill="LAB(73.4 14.8 79)"></path>
    <path d="M31.08 46.76C31.22 46.47 31.44 46.26 31.69 46.12C30.86 45.8 29.94 45.83 29.3 46.17C29.95 46.26 30.58 46.47 31.08 46.76"
          fill="LAB(73.4 14.8 79)"></path>
    <path d="M12.79 47.04C13.82 46.75 14.51 45.01 15.77 45.97C16 46.14 16.31 46.21 16.62 46.12C17.37 45.9 17.11 45.16 17.78 44.87C18.31 44.64 18.64 45.06 18.62 45.4C18.6 45.6 18.51 45.78 18.31 45.9C18.93 45.98 19.36 45.73 19.51 45.11C19.65 44.53 19.83 44.21 20.38 44C20.18 44.31 20.15 44.61 20.13 44.86C20.12 45.24 20.09 45.45 19.79 45.72C20.54 45.73 20.86 45.4 21.02 44.6C21.1 44.23 21.27 43.84 21.41 43.83C21.64 43.89 21.59 44.14 21.59 44.37C21.59 44.69 21.63 44.96 21.34 45.28C22.07 45.23 22.3 44.88 22.49 44.32C22.72 43.66 22.87 43.36 23.32 43.42C23.44 43.44 23.59 43.48 23.73 43.5C24.14 43.52 24.51 43.15 24.56 42.68C24.59 42.36 24.43 42.18 24.24 41.99C25.13 41.49 24.7 40.75 25.43 37.61C25.63 36.76 26.17 36.53 27.28 36.48C26.76 36.8 27.17 37.42 26.69 38.01C28.79 37.91 27.44 36.44 29.06 35.88C28.55 36.34 29.01 36.99 28.4 37.51C30.52 37.43 29.12 36.09 30.61 35.48C30.29 35.89 30.59 36.47 30.09 37.06C31.25 36.92 31.47 36.58 31.5 35.53C31.52 34.95 32.14 34.84 32.28 35.21C32.22 33.55 31.3 32.55 29.7 32.2L30.08 31.73C29.6 31.56 29.06 31.46 28.47 31.43C26.31 32.54 24.1 33.69 23.15 33.79C21.96 33.91 22.12 33.1 21.18 33.21C21.62 33.77 21.34 34.45 21.87 34.73C21.12 34.85 20.84 35.64 21.17 36.28C21.43 35.82 22.47 36.08 22.29 37.21C21.95 39.33 22.21 40.74 21.37 41.26C20.13 42.03 18.5 42.58 16.51 42.35C14 42.06 14.08 41.01 12.95 40.63C12.02 40.31 10.95 40.75 11.02 41.93C11.35 41.83 11.7 41.84 12.01 41.96C13.11 42.39 12.67 42.58 15.06 43.02C12.4 42.97 12.87 42.52 11.47 42.4C10.54 42.32 9.63002 43.15 9.93002 44.15C10.01 44.44 10.16 44.7 10.63 45.06C10.7 44.65 11.19 44.2 11.77 44.09C12.57 43.93 13.16 44.36 15.06 44.29C13.24 44.71 12.74 44.36 11.82 44.68C11.39 44.83 10.92 45.37 11.11 46.1C11.3 46.77 12.04 47.26 12.79 47.04"
          fill="LAB(73.4 14.8 79)"></path>
    <path d="M31.62 55.23C33.37 54.69 34.93 53.92 36.45 52.91C35.79 52.85 35.08 52.6 34.46 52.24C34.02 52.96 33.34 53.25 32.69 53.2C32.16 53.81 31.9 54.27 31.62 55.23"
          fill="#FFF"></path>
    <path d="M10.38 32.29C11.13 32.01 11.35 31.55 11.55 30.82C11.24 30.97 10.94 30.99 10.65 30.98C10.72 31.45 10.69 31.88 10.38 32.29"
          fill="LAB(73.4 14.8 79)"></path>
    <path d="M28.55 51.18C29.08 50.79 29.62 50.53 30.22 50.42C30.06 50.21 29.95 49.85 29.96 49.59C29.32 49.88 28.81 50.46 28.55 51.18"
          fill="LAB(73.4 14.8 79)"></path>
    <path d="M31.44 54.6C31.56 54.04 31.82 53.52 32.23 53.02C31.95 52.91 31.73 52.73 31.54 52.49C31.18 53.12 31.16 53.86 31.44 54.6"
          fill="LAB(73.4 14.8 79)"></path>
    <path d="M2.98002 27.51C3.51002 27.21 4.09002 27.12 4.65002 27.27C4.60002 27.01 4.60002 26.78 4.69002 26.55L4.75002 26.38C4.01002 26.41 3.38002 26.83 2.98002 27.51"
          fill="LAB(73.4 14.8 79)"></path>
    <path d="M4.50002 31.44C4.83002 30.99 5.24002 30.6 5.73002 30.28C5.56002 30.08 5.44001 29.84 5.39001 29.53C4.86001 30.01 4.54002 30.68 4.50002 31.44"
          fill="LAB(73.4 14.8 79)"></path>
    <path d="M24.74 54.63C27.15 54.63 28.79 54.37 30.76 53.53C30.78 53 30.92 52.51 31.18 52.07C31.13 51.97 31.1 51.82 31.1 51.69C28.96 53.01 26.73 53.41 24.75 53.41C19.65 53.41 16.43 51.76 14.59 49.94C14.61 50.32 14.57 50.63 14.33 50.93C16.06 52.49 19.71 54.63 24.74 54.63"
          fill="#FFF"></path>
    <path d="M16.45 47.96C17.11 47.5 17.21 47 17.23 46.24C16.97 46.47 16.68 46.56 16.39 46.62C16.57 47.07 16.66 47.48 16.45 47.96"
          fill="LAB(73.4 14.8 79)"></path>
    <path d="M10.72 41.22C10.88 40.95 11.05 40.72 11.28 40.56C10.56 40.3 9.64002 40.37 9.00002 40.71C9.65002 40.8 10.25 40.97 10.72 41.22"
          fill="LAB(73.4 14.8 79)"></path>
    <path d="M24.74 56.32C27.37 56.32 29.52 55.88 31.43 55.29C31.1 54.94 30.86 54.46 30.78 53.9C29.21 54.72 27.14 55.04 24.74 55.04C19.72 55.04 15.9 52.95 14 51.18C13.81 51.38 13.47 51.53 13.09 51.6C15.19 53.6 19.41 56.32 24.74 56.32"
          fill="#FFF"></path>
    <path d="M8.07001 45.11C8.51001 44.69 9.04001 44.45 9.63001 44.46C9.52001 44.23 9.47001 44 9.49001 43.75L9.51002 43.57C8.80002 43.79 8.28001 44.35 8.07001 45.11"
          fill="LAB(73.4 14.8 79)"></path>
    <path d="M10.63 48.72C10.8 48.19 11.07 47.7 11.43 47.24C11.21 47.1 11.02 46.9 10.88 46.64C10.52 47.25 10.43 47.98 10.63 48.72"
          fill="LAB(73.4 14.8 79)"></path>
    <path d="M11.51 54.05C11.9 54.06 12.16 53.73 12.16 53.43C12.16 53 11.64 52.83 11.33 53.14C11.43 52.52 11.92 52.52 12.64 51.54L12.96 51.1C13.82 51.03 14.25 50.41 14.11 49.69L14.78 48.74C15.65 47.51 15.74 47.25 15.75 47.02C15.77 46.49 15.4 46.21 14.91 46.19C14.53 46.17 14.25 46.48 14.25 46.78C14.25 47.07 14.49 47.25 14.69 47.25C14.91 47.25 15.11 47.1 15.1 46.75C15.41 47.41 14.59 47.56 13.82 48.58L13.32 49.25C12.68 49.3 12.31 49.75 12.42 50.45L11.01 52.27C10.78 52.56 10.67 52.88 10.67 53.14C10.68 53.65 10.99 54.04 11.51 54.05"
          fill="LAB(73.4 14.8 79)"></path>
    <path d="M12.01 50.15C12.05 49.89 12.09 49.59 12.24 49.37C12.41 49.14 12.63 48.98 12.93 48.93C12.34 48.53 11.89 48.18 11.54 47.86C11.17 48.17 11 48.63 10.95 49.13C11.31 49.48 11.69 49.85 12.01 50.15"
          fill="LAB(73.4 14.8 79)"></path>
    <path d="M10.26 48.71C10 47.8 10.13 46.96 10.55 46.2C10.44 45.92 10.46 45.74 10.48 45.52C9.59002 44.72 7.94001 45.61 8.09001 46.39C7.85001 46.68 7.66001 46.77 7.35001 47C6.93001 47.31 6.78001 47.56 6.78001 47.81C6.78001 48.07 6.95002 48.32 7.16002 48.59C7.50002 47.69 8.71001 47.4 9.49001 48.03C9.74001 48.23 10.08 48.54 10.26 48.71"
          fill="LAB(73.4 14.8 79)"></path>
    <path d="M9.34001 46.71C9.16001 46.84 8.90001 46.79 8.78001 46.6L9.44002 46.16C9.55002 46.34 9.50001 46.58 9.34001 46.71"
          fill="LAB(39.4 59.0 29.6)"></path>
</svg>