<svg width="433.95332" height="289.49466" xmlns="http://www.w3.org/2000/svg">
  <rect width="433.95332" height="289.49466" fill="#1B1415"/>
  <rect width="433.95332" height="144.824" fill="#E41B2C"/>
    <g fill="#FC0">
        <path d="m 276.71467,217.83998 c -0.016,-0.59867 -0.528,-1.07467 -1.12534,-1.04667 -0.6,0.0173 -1.07066,0.52667 -1.04666,1.13334 0.016,0.59733 0.528,1.06666 1.12666,1.044 0.59734,-0.0253 1.07067,-0.53067 1.04534,-1.13067 m 6.48533,4.796 c -0.024,-0.59867 -0.52667,-1.06933 -1.12667,-1.04533 -0.608,0.0187 -1.06933,0.53066 -1.04666,1.13333 0.0253,0.59733 0.528,1.07067 1.11866,1.04533 0.60534,-0.0187 1.07734,-0.53066 1.05467,-1.13333 m 6.444,4.916 c -0.0227,-0.608 -0.53333,-1.07333 -1.13333,-1.05467 -0.6,0.024 -1.07067,0.532 -1.04667,1.13867 0.016,0.59867 0.52667,1.06933 1.12667,1.04667 0.60533,-0.0253 1.06933,-0.532 1.05333,-1.13067 m 4.912,7.91067 c 0,0 -1.38,1.584 -3.60133,1.46133 -3.54534,-0.21733 -4.28,-4.40133 -9.728,-8.95333 -2.57067,-2.14934 -6.492,-5.00667 -11.23734,-7.27867 -1.22133,-0.584 -5.4,-1.264 -5.4,-1.264 l 6.26134,-8.83867 21.51733,15.424 c 3.64267,2.55334 4.44,6.48534 2.188,9.44934"/>
        <path d="m 204.22534,202.56932 c -14.71734,2.24667 -28.248,-0.0413 -40.23734,-6.91333 -0.0333,-0.0187 -0.848,-0.456 -0.88133,-0.476 0,0 -3.332,5.78 -5.00933,8.60533 2.42933,1.50133 5.12666,2.79467 7.916,3.90267 l -2.288,7.364 c 3.06,1.216 8.344,3.19066 13.68933,4.2 l 2.28933,-7.20134 c 3.96134,0.736 9.13067,1.29467 13.292,1.40267 l 0.62,7.5 c 3.78,0.128 10.844,-0.38133 14.38534,-1.20667 l -0.636,-7.46666 c 4.336,-0.66667 8.796,-1.96934 12.852,-3.48667 l 3.44,6.46533 c 5.37733,-2.20266 9.484,-4.35733 12.91733,-6.62666 l -3.12,-5.95734 c 0,0 -10.008,-6.168 -10.44933,-6.43066 -5.80267,3.112 -11.92534,5.27466 -18.78,6.32533"/>
        <path d="m 272.80001,152.74532 c 0.63333,-4.26533 0.85866,-10.93467 0.66933,-15.22667 l -6.96,-0.292 c -0.0333,-0.34666 -0.0227,-0.55466 -0.0653,-0.90533 -0.12667,-2.552 -1.616,-11.41333 -1.72,-12.052 l 6.532,-2.29467 c -0.95334,-4.38933 -3.06134,-9.832 -4.89867,-13.84133 l -6.55467,2.33467 c -1.67733,-4.012 -4.29066,-8.68667 -6.67733,-11.60534 0,0 4.748,-4.24266 5.172,-4.53333 -3.73733,-5.09867 -6.38533,-7.61467 -9.428,-10.68533 l -5.32933,4.66266 c -4.096,-3.98933 -5.47734,-5.07866 -10.43067,-8.36266 l 3.132,-6.05333 c -3.60133,-2.35067 -8.52533,-5.00534 -12.584,-6.46667 l -3.148,6.168 c -1.04,-0.50267 -5.93867,-2.14667 -9.41867,-3.004 -0.80533,3.21733 -1.81866,7.41467 -2.484,10.21333 0.61467,0.15867 1.15067,0.32534 1.76,0.49734 0.0147,0.004 0.0147,0.008 0.0293,0.012 24.91866,7.14266 43.94933,29.42799 45.588,56.73066 1.104,18.25733 -6.276,34.88667 -17.96534,47.148 -0.0587,0.0613 -0.44666,0.43067 -0.50533,0.492 l 14.51333,10.192 c 0.34267,-0.372 1.38667,-1.50533 1.78267,-1.95333 l -4.808,-4.12534 c 2.87467,-3.40133 5.92,-8.01466 8.188,-11.82 l 6.036,2.80667 c 2.41067,-4.35467 4.568,-9.21867 6.00533,-13.32 l -6.332,-2.89733 c 1.36667,-4.188 1.904,-7.776 2.66267,-12.22534 z"/>
        <path d="m 208.73867,126.72798 -14.44,10.49467 5.51733,-16.988 -14.43867,-10.49334 H 203.22 l 5.51867,-16.99066 5.50266,16.99066 h 17.84 l -14.43066,10.49334 5.51866,16.988 z"/>
        <path d="m 268.26667,211.45865 1.30133,-1.74133 -63.644,-45.18134 c -11.29866,-8.22133 -30.89466,-20.37866 -30.89466,-31.99866 0,0 -7.76534,5.24667 -7.76534,15.42666 0,10.35467 5.176,15.46667 18.11734,23.52534 18.28399,11.388 77.73199,47.24133 77.73199,47.24133 l 4.44,-6.40133 -71.94666,-50.60134 0.60667,-0.93466 z"/>
    </g>
</svg>
