<?xml version="1.0" encoding="UTF-8"?>
<!DOCTYPE xml>
<svg width="2000" height="1000" viewBox="0 0 529.16664 264.58333" version="1.1" id="svg5"
	xmlns="http://www.w3.org/2000/svg">
	<defs id="defs2" />
	<g id="layer1">
		<rect style="fill:#ffffff;fill-opacity:1;fill-rule:evenodd;stroke-width:0.115627" id="rect234" width="88.194435" height="264.58334" x="-1.110223e-16" y="0" />
		<rect style="fill:#d2501e;fill-opacity:1;fill-rule:evenodd;stroke-width:0.258556" id="rect234-1" width="440.9722" height="264.58334" x="88.194435" y="0" />
		<path id="path53708" style="fill:#ffffff;fill-opacity:1;fill-rule:evenodd;stroke-width:0.304726" d="m 303.16839,13.229167 a 119.0625,119.0625 0 0 0 -19.70061,1.699638 119.0625,119.0625 0 0 1 99.07561,117.362865 119.0625,119.0625 0 0 1 -99.21875,117.33547 119.0625,119.0625 0 0 0 19.84375,1.72703 119.0625,119.0625 0 0 0 119.0625,-119.0625 119.0625,119.0625 0 0 0 -119.0625,-119.062503 z" />
		<path style="fill:#ffffff;fill-opacity:1;fill-rule:evenodd;stroke-width:0.264583" id="path53496" d="m 235.02013,22.602448 19.07923,58.736823 61.75784,-0.0052 -49.96623,36.296097 19.08921,58.73358 -49.96005,-36.3046 -49.96007,36.3046 19.08922,-58.73358 -49.96623,-36.296101 61.75785,0.0053 z" transform="matrix(1.0037659,0,0,1.0037657,-2.6282727,-7.6944962)" />
	</g>
</svg>
