<?xml version="1.0" encoding="UTF-8"?>
<!DOCTYPE svg PUBLIC "-//W3C//DTD SVG 20010904//EN" "https://www.w3.org/Graphics/SVG/1.1/DTD/svg11-flat-20110816.dtd">
<svg width="1500" height="1000" viewBox="0 0 396.87498 264.58333" version="1.1" id="svg5"
	xmlns="http://www.w3.org/2000/svg">
	<defs id="defs2" />
	<g id="layer1">
		<rect style="fill:#ffffff;fill-opacity:1;fill-rule:evenodd;stroke-width:0.141614" id="rect234" width="132.29166" height="264.58334" x="-1.110223e-16" y="0" />
		<rect style="fill:#fa6042;fill-opacity:1;fill-rule:evenodd;stroke-width:0.200276" id="rect234-1" width="264.58331" height="264.58334" x="132.29166" y="0" />
		<g id="g57719" transform="matrix(-1,0,0,1,572.55298,-1.3333333e-6)">
			<path id="path53708" style="fill:#ffffff;fill-opacity:1;fill-rule:evenodd;stroke-width:0.253938" d="m 299.8611,33.072906 a 99.218749,99.218749 0 0 0 -16.41718,1.416365 99.218749,99.218749 0 0 1 82.56301,97.802409 99.218749,99.218749 0 0 1 -82.68229,97.77956 99.218749,99.218749 0 0 0 16.53646,1.43919 99.218749,99.218749 0 0 0 99.21875,-99.21875 99.218749,99.218749 0 0 0 -99.21875,-99.218774 z" />
			<path style="fill:#ffffff;fill-opacity:1;fill-rule:evenodd;stroke-width:0.199184" id="path53496" d="m 332.61449,132.29167 -44.21845,14.36329 0.004,46.49278 -27.32455,-37.61577 -44.21601,14.37082 27.33095,-37.61112 -27.33095,-37.611135 44.21601,14.370815 27.32455,-37.615767 -0.004,46.492787 z" />
		</g>
	</g>
</svg>
