<svg xmlns="http://www.w3.org/2000/svg" width="2000" height="1000" viewBox="0 0 529.167 264.583"><g fill-rule="evenodd"><path fill="#fff" d="M0 0h88.194v264.583H0z"/><path fill="#fd6b48" d="M88.194 0h440.972v264.583H88.194z"/><g fill="#fff"><path d="M286.351 33.073a99.219 99.219 0 0116.417 1.416 99.219 99.219 0 00-82.563 97.803 99.219 99.219 0 0082.682 97.78 99.219 99.219 0 01-16.536 1.438 99.219 99.219 0 01-99.219-99.218 99.219 99.219 0 0199.219-99.22z"/><path d="M314.84 99.219l8.207 25.267 26.567-.002-21.495 15.614 8.212 25.267-21.492-15.618-21.492 15.618 8.212-25.267-21.495-15.614 26.567.003z"/></g></g></svg>