<svg xmlns="http://www.w3.org/2000/svg" width="2000" height="1000" viewBox="0 0 529.167 264.583"><g fill-rule="evenodd"><path fill="#fff" d="M0 0h88.194v264.583H0z"/><path fill="#fa5533" d="M88.194 0h440.972v264.583H88.194z"/><g fill="#fff"><path d="M286.351 33.073a99.219 99.219 0 0116.417 1.416 99.219 99.219 0 00-82.563 97.803 99.219 99.219 0 0082.682 97.78 99.219 99.219 0 01-16.536 1.438 99.219 99.219 0 01-99.219-99.218 99.219 99.219 0 0199.219-99.22z"/><path d="M430.229 132.292l-58.958 19.15.005 61.991-36.433-50.154-58.955 19.16 36.442-50.147-36.442-50.149 58.955 19.162 36.433-50.155-.005 61.99z"/></g></g></svg>