<svg xmlns="http://www.w3.org/2000/svg" width="1500" height="1000" viewBox="0 0 396.875 264.583"><g fill-rule="evenodd"><path fill="#fff" d="M0 0h132.292v264.583H0z"/><path fill="#fa6042" d="M132.292 0h264.583v264.583H132.292z"/><g fill="#fff"><path d="M272.692 33.073a99.219 99.219 0 0116.417 1.416 99.219 99.219 0 00-82.563 97.803 99.219 99.219 0 0082.682 97.78 99.219 99.219 0 01-16.536 1.438 99.219 99.219 0 01-99.219-99.218 99.219 99.219 0 0199.219-99.22z"/><path d="M239.938 132.292l44.219 14.363-.004 46.493 27.324-37.616 44.217 14.37-27.331-37.61 27.33-37.611-44.216 14.37-27.324-37.615.004 46.492z"/></g></g></svg>