<svg width="2000" height="1000" viewBox="0 0 529.167 264.583" xmlns="http://www.w3.org/2000/svg">
	<g fill-rule="evenodd">
		<path fill="#fff" d="M0 0h88.194v264.583H0z" />
		<path fill="#d2501e" d="M88.194 0h440.972v264.583H88.194z" />
		<path
			d="M303.168 13.23a119.063 119.063 0 00-19.7 1.699 119.063 119.063 0 0199.075 117.363 119.063 119.063 0 01-99.218 117.335 119.063 119.063 0 0019.843 1.727 119.063 119.063 0 00119.063-119.062A119.063 119.063 0 00303.168 13.229z"
			fill="#fff" />
		<path
			d="M233.277 14.993l19.151 58.958 61.99-.005-50.154 36.433 19.161 58.954-50.148-36.44-50.148 36.44 19.16-58.954-50.154-36.433 61.99.005z"
			fill="#fff" />
	</g>
</svg>