<svg width="300" height="150" xmlns="http://www.w3.org/2000/svg">
    <rect width="300" height="150" fill="#009839"/>
    <rect width="300" height="100" fill="#E13C32"/>
    <rect width="300" height="50" fill="#0073CE"/>
    <circle cx="100.24084" cy="75" r="49.759163" fill="#FEDC00"/>
    <path d="m 118.45816,121.3044 c -3.23602,-4.73874 -10.07305,-13.05137 -18.21744,-13.05137 -8.144399,0 -14.981425,8.31263 -18.217445,13.05137 a 49.759163,49.759163 0 0 0 18.217445,3.45488 49.759163,49.759163 0 0 0 18.21744,-3.45488 z"/>
    <path d="m 105.87481,96.403376 c 0,3.205841 -2.52242,10.812654 -5.63397,10.812654 -3.11155,0 -5.633961,-7.606813 -5.633961,-10.812654 0,-3.205842 2.522411,-5.80469 5.633961,-5.80469 3.11155,0 5.63397,2.598848 5.63397,5.80469 z"/>
    <path d="m 105.87481,58.21302 c 0,-3.205869 -1.38424,-7.512044 -5.63397,-7.512044 -4.249725,0 -5.633961,4.306175 -5.633961,7.512044 0,3.205867 2.522411,5.804738 5.633961,5.804738 3.11155,0 5.63397,-2.598871 5.63397,-5.804738 z"/>
    <path d="m 93.379561,47.461873 c 1.195357,-0.579622 1.567358,-1.680004 1.081265,-6.544505 1.920226,-1.884055 3.979546,-2.667927 7.170494,-2.162532 1.85516,0.0059 6.28996,-5.787588 6.88596,-6.032322 2.69013,1.527872 -8.629741,16.053181 -15.137719,14.739359 z"/>
    <path d="m 100.24084,27.343953 0.91109,23.731446 -1.822179,1.19e-4 z"/>
    <path d="m 100.39854,84.338803 c -7.608724,0 -9.395068,4.106975 -9.454906,8.877926 -0.05984,4.770952 -0.479795,7.333091 -1.538692,9.033441 3.573682,-3.686004 2.472932,-13.699053 10.993638,-13.699055 9.02211,-10e-7 7.14067,12.188685 10.67816,13.031465 -0.9583,-1.31975 -1.1227,-3.022601 -1.2029,-8.079676 -0.0802,-5.057073 -1.86656,-9.164061 -9.47527,-9.164061 z"/>
    <path d="m 100.39854,68.939486 c -7.608724,0 -9.395068,-3.035775 -9.454906,-6.562346 -0.05984,-3.52657 -0.479795,-5.420441 -1.538692,-6.677299 3.573682,2.724605 2.472932,10.126005 10.993638,10.126008 9.02211,10e-7 7.14067,-9.009575 10.67816,-9.632541 -0.9583,0.975527 -1.1227,2.234233 -1.2029,5.972299 -0.0802,3.738065 -1.86656,6.77385 -9.47527,6.77385 z"/>
    <rect width="12.323802" height="6.685461" x="94.078941" y="73.298431" rx="3.2256932" ry="3.1413612"/>
    <path d="m 90.217847,82.214376 c 6.681996,-0.457628 13.363993,-0.39963 20.045993,0 0.17372,0.01045 0.31413,0.09866 0.31413,0.221224 0,0.122556 -0.14038,0.21146 -0.31413,0.221222 -6.682,0.375408 -13.363997,0.375408 -20.045993,0 -0.173757,-0.0097 -0.314135,-0.09866 -0.314135,-0.221222 0,-0.122558 0.140511,-0.209333 0.314135,-0.221224 z"/>
    <path d="m 90.217847,70.50492 c 6.681996,-0.457629 13.363993,-0.39963 20.045993,0 0.17372,0.01045 0.31413,0.09866 0.31413,0.221223 0,0.122557 -0.14038,0.211461 -0.31413,0.221222 -6.682,0.375408 -13.363997,0.375408 -20.045993,0 -0.173757,-0.0097 -0.314135,-0.09866 -0.314135,-0.221222 0,-0.122557 0.140511,-0.209333 0.314135,-0.221223 z"/>
</svg>
