<svg width="120" height="60" xmlns="http://www.w3.org/2000/svg">
    <rect width="120" height="60" fill="#012168"/>
    <path fill="#FFD100"
          d="M 66.180905,52.863183 C 51.256281,52.725721 34.784949,52.511451 29.577944,52.387028 l -9.371801,-0.083 3.16745,-2.01909 C 30.559019,45.704588 34.566622,42.8089 48.241206,32.243511 55.090791,26.951318 63.628892,21.178187 69.949749,17.56504 c 1.504616,-0.860073 10.887004,-6.213895 11.60804,-6.623834 2.872872,-1.633348 12.442537,-6.5677573 12.738693,-6.5684567 0.765716,-0.00181 0.341145,0.5266588 -0.857292,1.0670787 -2.191742,0.9883381 -4.568607,5.690257 -5.404314,10.690825 -1.01432,6.069326 0.799326,14.427177 4.678019,21.557789 3.757257,6.907362 9.882755,13.28746 13.925315,14.504089 0.76853,0.231294 1.96431,0.388757 3.00497,0.436447 1.04175,0.04774 2.34395,0.135679 2.47826,0.381076 0.0369,0.06745 -0.18431,0.261187 -0.72212,0.300629 -0.1974,0.01448 -0.52942,-0.116034 -0.84872,-0.105104 -3.30254,0.113046 -13.693387,-0.05985 -44.369695,-0.342396"/>
    <path fill="#FFD100"
          d="M 61.809045,56.493661 C 39.263763,56.323733 25.128693,55.890459 20.459268,55.633677 c -1.138893,-0.06263 -1.588126,-0.313785 -1.701502,-0.424419 -0.446829,-0.436022 -0.218734,-1.266384 0.414631,-1.509429 0.237768,-0.09124 11.183308,-0.0399 24.323422,0.114081 13.140113,0.153984 33.320764,0.36795 44.84589,0.475481 13.768061,0.128458 18.682301,0.169353 20.760571,0.198238 0.7081,0.0098 1.05828,0.391229 1.31708,0.493515 1.57914,0.624135 1.48144,1.04603 -1.18097,1.531435 -1.99255,0.363278 -5.47327,0.0418 -10.796179,0.08273 -6.301507,0.04846 -22.786432,0.0027 -36.633166,-0.101648"/>
    <polygon id="s" points="91.854102,14.551952 87,11.025241 93,11.025241 88.145898,14.551952 90,8.8456133"
             fill="#FFF" stroke="#FFF" transform="matrix(0.8597861,0,0,0.8597861,-56.263383,-0.44182596)"/>
    <use href="#s" transform="translate(-11.91986,11.992658)"/>
    <polygon points="103.4283,24.456547 99.38322,21.517621 104.38322,21.517621 100.33814,24.456547 101.88322,19.701264"
             fill="#FFF" stroke="#FFF" transform="matrix(0.8597861,0,0,0.8597861,-56.263383,-0.44182596)"/>
    <polygon points="92.163119,50.977278 86.5,46.862781 93.5,46.862781 87.836881,50.977278 90,44.319882"
             fill="#FFF" stroke="#FFF" transform="matrix(0.8597861,0,0,0.8597861,-56.263383,-0.44182596)"/>
</svg>
