<svg width="71.57147" height="87.238554869857396395449459539482923907933057491181909360779650584"
     xmlns="http://www.w3.org/2000/svg">
    <polygon
            points=" 2.582337711169396395449459539482923907933057491181909360779650586,4.656217158688 2.582337711169396395449459539482923907933057491181909360779650586,84.656217158688 62.582337711169396395449459539482923907933057491181909360779650586,84.656217158688 20.155930839976544931398797813191981550842901229873467165479258446,42.22981028749514853594933827370905764290984373869155780469960786 62.582337711169396395449459539482923907933057491181909360779650586,42.22981028749514853594933827370905764290984373869155780469960786"
            fill="#E00025" stroke-width="5.164675422338792790898919078965847815866114982363818721559301172"
            paint-order="stroke" stroke="#353B91"/>
    <path d="m 16.075669,26.134658 -0.621343,2.43685 -2.162666,-1.283698 0.358519,2.489222 -2.489222,-0.358518 1.283698,2.162665 -2.43685,0.621536 2.013636,1.506664 -1.022992,0.765367 a 12.840097,12.840097 0 0 1 -5.36623,-6.326837 11.950277,11.950277 0 0 0 23.900421,0 12.840097,12.840097 0 0 1 -5.366229,6.326837 l -1.022992,-0.765367 2.013636,-1.506664 -2.43685,-0.621536 1.283698,-2.162665 -2.489222,0.358518 0.358518,-2.489222 -2.162665,1.283698 -0.621343,-2.43685 -1.506857,2.013636 z"
          style="fill:#FFF"/>
    <path d="m 17.582334,50.611174 -2.107598,4.974208 -4.312431,-3.253818 0.661777,5.361608 -5.361416,-0.661969 3.2538184,4.31243 -4.9742084,2.107791 4.9742084,2.107598 -3.2538184,4.31243 5.361416,-0.661777 -0.661777,5.361416 4.312431,-3.253818 2.107598,4.974208 2.10779,-4.974208 4.312431,3.253818 -0.66197,-5.361416 5.361609,0.661777 -3.253819,-4.31243 4.974208,-2.107598 -4.974208,-2.107791 3.253819,-4.31243 -5.361609,0.661969 v -1.92e-4 l 0.66197,-5.361416 -4.312431,3.253818 z"
          style="fill:#FFF"/>
</svg>
