<svg xmlns="http://www.w3.org/2000/svg" width="425.197" height="283.465">
    <polygon fill="#214D9B" points="0,0 0,283.634 425.197,283.634 425.197,0 0,0 "/>
    <polygon fill="#FFF" points="313.54,216.583 318.19,216.583 318.19,152.373
	327.458,152.373 327.458,216.583 332.092,216.583 322.824,237.993 "/>
    <polygon fill="none" stroke="#FFF" stroke-width="0.7502" stroke-linecap="round" stroke-linejoin="round"
             stroke-miterlimit="10" points="
	313.54,216.583 318.19,216.583 318.19,152.373 327.458,152.373 327.458,216.583 332.092,216.583 322.824,237.993 "/>
    <polygon fill="#FFF" points="301.75,152.373 301.75,160.146 347.758,160.146
	347.758,152.373 301.75,152.373 "/>
    <rect x="301.75" y="152.373" fill="none" stroke="#FFF" stroke-width="0.7502" stroke-linecap="round"
          stroke-miterlimit="8" width="46.008" height="7.773"/>
    <path fill="#FFF" d="M347.114,210.256c-4.403,0-8.806,0-13.209,0
	c-0.593,2.026-1.236,4.036-1.83,6.063c-3.941,0-7.898,0-11.857,0c4.634-12.257,9.515-24.433,14.148-36.706c4.222,0,8.443,0,12.681,0
	c4.617,12.273,9.498,24.449,14.133,36.706c-4.058,0-8.13,0-12.187,0C348.384,214.292,347.724,212.282,347.114,210.256
	L347.114,210.256z M344.706,202.334c-1.368-4.418-2.803-8.804-4.155-13.205c-1.352,4.401-2.771,8.787-4.105,13.205
	C339.199,202.334,341.953,202.334,344.706,202.334L344.706,202.334z"/>
    <path fill="none" stroke="#FFF" stroke-width="0.7502" stroke-linecap="round" stroke-linejoin="round"
          stroke-miterlimit="10" d="
	M347.114,210.256c-4.403,0-8.806,0-13.209,0c-0.593,2.026-1.236,4.036-1.83,6.063c-3.941,0-7.898,0-11.857,0
	c4.634-12.257,9.515-24.433,14.148-36.706c4.222,0,8.443,0,12.681,0c4.617,12.273,9.498,24.449,14.133,36.706
	c-4.058,0-8.13,0-12.187,0C348.384,214.292,347.724,212.282,347.114,210.256L347.114,210.256z M344.706,202.334
	c-1.368-4.418-2.803-8.804-4.155-13.205c-1.352,4.401-2.771,8.787-4.105,13.205C339.199,202.334,341.953,202.334,344.706,202.334
	L344.706,202.334z"/>
    <path fill="#FFF" d="M311.66,210.256c-4.402,0-8.806,0-13.208,0
	c-0.594,2.026-1.237,4.036-1.83,6.063c-3.941,0-7.899,0-11.856,0c4.633-12.257,9.515-24.433,14.147-36.706c4.222,0,8.443,0,12.682,0
	c4.617,12.273,9.498,24.449,14.132,36.706c-4.057,0-8.13,0-12.187,0C312.93,214.292,312.271,212.282,311.66,210.256L311.66,210.256z
	 M309.253,202.334c-1.369-4.418-2.804-8.804-4.155-13.205c-1.353,4.401-2.771,8.787-4.106,13.205
	C303.745,202.334,306.499,202.334,309.253,202.334L309.253,202.334z"/>
    <path fill="none" stroke="#FFF" stroke-width="0.7502" stroke-linecap="round" stroke-linejoin="round"
          stroke-miterlimit="10" d="
	M311.66,210.256c-4.402,0-8.806,0-13.208,0c-0.594,2.026-1.237,4.036-1.83,6.063c-3.941,0-7.899,0-11.856,0
	c4.633-12.257,9.515-24.433,14.147-36.706c4.222,0,8.443,0,12.682,0c4.617,12.273,9.498,24.449,14.132,36.706
	c-4.057,0-8.13,0-12.187,0C312.93,214.292,312.271,212.282,311.66,210.256L311.66,210.256z M309.253,202.334
	c-1.369-4.418-2.804-8.804-4.155-13.205c-1.353,4.401-2.771,8.787-4.106,13.205C303.745,202.334,306.499,202.334,309.253,202.334
	L309.253,202.334z"/>
    <path fill="#FFF" d="M318.108,152.373c7.618,0,15.253,0,22.871,0
	c0,2.641,0,5.267,0,7.889c-4.518,0-9.053,0-13.57,0c0,2.144,0,4.287,0,6.429c3.857,0,7.733,0,11.592,0c0,2.458,0,4.933,0,7.407
	c-3.858,0-7.734,0-11.592,0c0,5.001,0,10.016,0,15.015c-3.101,0-6.201,0-9.301,0C318.108,176.872,318.108,164.614,318.108,152.373"
    />
    <path fill="none" stroke="#FFF" stroke-width="0.7502" stroke-linecap="round" stroke-linejoin="round"
          stroke-miterlimit="10" d="
	M318.108,152.373c7.618,0,15.253,0,22.871,0c0,2.641,0,5.267,0,7.889c-4.518,0-9.053,0-13.57,0c0,2.144,0,4.287,0,6.429
	c3.857,0,7.733,0,11.592,0c0,2.458,0,4.933,0,7.407c-3.858,0-7.734,0-11.592,0c0,5.001,0,10.016,0,15.015c-3.101,0-6.201,0-9.301,0
	C318.108,176.872,318.108,164.614,318.108,152.373"/>
    <polygon fill="#FFF" points="361.378,164.796 359.597,170.461 353.727,170.461
	358.492,173.999 356.712,179.612 361.378,176.174 366.061,179.612 364.28,173.999 369.029,170.461 363.176,170.461 "/>
    <polygon fill="#FFF" points="286.332,164.796 284.534,170.461 278.664,170.461
	283.43,173.999 281.648,179.612 286.332,176.174 290.998,179.612 289.218,173.999 293.983,170.461 288.112,170.461 "/>
    <polygon fill="#FFF" points="323.945,246.43 322.165,252.094 316.294,252.094
	321.06,255.631 319.279,261.245 323.945,257.807 328.629,261.245 326.848,255.631 331.597,252.094 325.743,252.094 "/>
    <polygon fill="#FFF" points="342.002,226.732 340.221,232.395 334.351,232.395
	339.116,235.916 337.336,241.531 342.002,238.092 346.685,241.531 344.904,235.916 349.653,232.395 343.8,232.395 "/>
    <polygon fill="#FFF" points="304.686,226.732 302.904,232.395 297.033,232.395
	301.8,235.916 300.002,241.531 304.686,238.092 309.368,241.531 307.571,235.916 312.337,232.395 306.466,232.395 "/>
    <polyline fill="#214D9B" points="333.326,175.411 339.92,177.171 354.444,147.939
	347.851,146.178 "/>
    <polygon fill="#214D9B" points="299.037,146.178 310.984,175.427 305.579,177.171 293.632,147.939 "/>
    <rect x="0" y="-0.149" fill="#FFF" width="212.401" height="141.545"/>
    <rect x="1.256" y="1.173" fill="#214D9B" width="67.89" height="138.827"/>
    <rect x="142.856" y="1.373" fill="#EB2E2E" width="67.89" height="138.827"/>
</svg>
