<svg width="1900" height="1000" xmlns="http://www.w3.org/2000/svg">
    <rect width="1900" height="1000" fill="#00416A" />
    <polygon points="0,968 0,984 1900,196 1900,0" fill="#ED872D" />
    <polygon points="0,984 0,1000 1900,392 1900,196" fill="#F2F3F4" />
    <polygon points="367.8123992467367,57.812399246736675 380.6039660843017,270.65080283210324 425.27022725949627,153.37686581056352 405.3153756185155,277.27220506063054 478.8123992467367,175.5547596065913 427.4710192895913,290.0637718981956 524.7901046701502,210.8346938233231 445.5610265952777,308.15377920388204 560.070038886882,256.8123992467366 458.3525934328428,330.3094228749579 582.2479326829098,310.354571233977 464.9739956613701,355.0208324091716 677.8123992467367,367.8123992467367 464.9739956613701,380.6039660843017 582.2479326829098,425.27022725949627 458.3525934328428,405.3153756185154 560.070038886882,478.8123992467366 445.5610265952777,427.47101928959125 524.7901046701502,524.7901046701502 427.4710192895913,445.5610265952777 478.81239924673673,560.070038886882 405.3153756185155,458.3525934328428 425.2702272594963,582.2479326829098 380.60396608430176,464.9739956613701 367.81239924673673,677.8123992467367 355.02083240917165,464.9739956613701 310.35457123397714,582.2479326829099 330.30942287495793,458.3525934328428 256.81239924673673,560.0700388868821 308.1537792038821,445.5610265952777 210.83469382332322,524.7901046701503 290.0637718981957,427.4710192895913 175.55475960659135,478.8123992467368 277.2722050606306,405.31537561851553 153.37686581056357,425.27022725949644 270.6508028321033,380.6039660843018 57.812399246736675,367.81239924673673 270.65080283210324,355.02083240917165 153.3768658105635,310.35457123397714 277.27220506063054,330.30942287495793 175.5547596065912,256.81239924673685 290.06377189819557,308.1537792038821 210.83469382332308,210.83469382332316 308.15377920388204,290.0637718981957 256.81239924673656,175.55475960659135 330.3094228749578,277.2722050606306 310.3545712339769,153.37686581056357 355.02083240917153,270.6508028321033"
             fill="#F2F3F4" />
</svg>