<svg width="100" height="60" viewBox="0 0 26.458 15.875" xmlns="http://www.w3.org/2000/svg">
  <path fill="#75aadb" d="M0 0h5.292v15.875H0z" />
  <path fill="#f9f9f9" d="M5.292 0h2.646v15.875H5.292z" />
  <path fill="#e1050f" d="M7.938 0h10.583v15.875H7.938z" />
  <path fill="#f9f9f9" d="M18.521 0h2.646v15.875h-2.646z" />
  <path fill="#75aadb" d="M21.167 0h5.292v15.875h-5.292z" />
  <path
    d="M13.2 11.874a81.833 81.833 0 00-.203-1.857.39.39 0 00-.104-.027l-.152-.026c-.053-.01-.06-.006-.083.039a1.413 1.413 0 01-.144.178c-.16.174-.191.23-.229.421-.04.206-.081.28-.226.41-.126.113-.124.11-.186.376-.03.127-.085.229-.151.275-.056.04-.058.036-.012-.05.028-.055.037-.105.045-.263.013-.234.038-.31.135-.424.148-.173.154-.187.154-.373 0-.163 0-.166.058-.26.085-.138.093-.17.098-.363l.004-.176-.08-.048a2.455 2.455 0 01-.162-.11l-.082-.06-.178.144-.49.395c-.267.213-.468.375-.772.622-.096.077-.059.028.361-.489.595-.731.755-.93.768-.95.007-.013-.023-.072-.077-.153a2.566 2.566 0 00-.092-.133l-.065.023a.849.849 0 01-.22.024c-.21 0-.303.028-.456.132-.185.126-.213.134-.432.133-.207-.001-.218.002-.383.114a.505.505 0 01-.317.106h-.096l.092-.038c.099-.04.111-.05.255-.183a.586.586 0 01.407-.184c.187-.019.275-.058.335-.147.054-.08.11-.113.257-.154.151-.042.166-.05.303-.183l.119-.114-.03-.144a3.256 3.256 0 01-.034-.19c-.006-.056.04-.047-.572-.11l-.668-.07c-.151-.016-.359-.04-.461-.05-.102-.01-.174-.03-.174-.03s.094-.02.194-.03l.527-.056.749-.08.403-.042.02-.12a13.8 13.8 0 01.027-.16c.007-.034 0-.046-.045-.069a1.62 1.62 0 01-.198-.157c-.08-.071-.167-.141-.194-.155s-.118-.038-.203-.054c-.211-.04-.28-.077-.396-.206s-.146-.147-.33-.187c-.204-.044-.286-.09-.375-.206-.016-.021-.001-.017.062.015.071.037.11.044.273.055.262.015.32.035.468.163.128.11.188.132.354.128l.14-.004.283.155.37.006.035-.058c.018-.031.068-.103.109-.16l.075-.104-.05-.06a95.535 95.535 0 01-.33-.405l-.527-.648c-.288-.353-.307-.377-.297-.377.004 0 .166.127.36.282l.74.595c.214.172.396.313.405.313.013 0 .092-.053.24-.16.025-.018.025-.026.005-.083a.796.796 0 01-.024-.211c-.002-.189-.03-.304-.096-.4-.172-.252-.172-.254-.172-.491 0-.201.001-.197-.14-.422a.46.46 0 01-.08-.322c.01-.047.01-.047.03.023.024.087.057.135.186.272a.6.6 0 01.19.421c.019.18.061.27.16.333.07.044.105.107.157.287.03.105.045.128.155.242.079.083.131.126.152.125a3.63 3.63 0 00.199-.031l.167-.03.019-.187.049-.47a89.64 89.64 0 00.125-1.192c0-.016.005-.02.013-.012.008.009.026.132.04.273l.04.384.071.665c.031.297.06.54.06.541.002 0 .075.016.162.032l.16.031.033-.063c.019-.035.09-.126.16-.2s.135-.157.148-.182.038-.116.055-.203.043-.184.055-.214a.909.909 0 01.149-.177c.068-.066.132-.136.143-.155s.031-.1.048-.177c.036-.168.093-.28.176-.346l.06-.047-.043.082c-.036.069-.044.11-.053.264-.017.267-.037.326-.165.473-.112.128-.134.188-.13.352.005.147.008.135-.099.326-.05.09-.053.103-.057.275l-.005.182.136.092c.075.05.148.1.162.112.022.016.05 0 .176-.102l.423-.34c.63-.507.905-.724.91-.72.004.003-.106.145-.243.314-.461.57-.595.734-.773.952-.177.216-.178.217-.148.25.016.018.06.077.096.13l.068.098c.002 0 .039-.01.08-.023a.996.996 0 01.24-.023.577.577 0 00.419-.13c.171-.123.217-.137.431-.133.203.003.2.004.37-.107.134-.088.214-.116.333-.114.104.001.107-.003-.045.06a.913.913 0 00-.183.137c-.163.152-.235.186-.44.208-.19.021-.266.056-.337.157-.052.075-.098.102-.248.143-.146.04-.16.05-.302.183l-.12.114.024.113c.013.061.029.148.035.192l.01.08.096.01.23.025.834.087c.385.04.712.085.712.085s-.139.026-.323.046l-.61.065-.605.063-.332.036c-.005.004-.053.29-.052.31 0 .012.026.033.058.048s.116.082.185.148a.68.68 0 00.424.216c.185.034.241.065.382.212.124.13.143.14.334.18.152.03.27.087.322.156.049.063.046.065-.04.02-.052-.027-.105-.036-.257-.044-.243-.013-.32-.04-.478-.168-.142-.115-.201-.136-.355-.122-.106.01-.117.007-.199-.038-.188-.106-.21-.113-.4-.117l-.18-.004-.221.323.206.255.969 1.19c.063.073-.033.005-.312-.22-.912-.735-1.134-.913-1.154-.92-.011-.005-.08.031-.15.08-.097.066-.127.095-.12.115.024.06.04.187.04.313 0 .177.017.23.121.382.136.198.147.234.143.447-.004.194.011.244.108.37a.503.503 0 01.113.324l-.005.098-.036-.097a.602.602 0 00-.151-.219c-.153-.162-.194-.245-.214-.433-.022-.21-.052-.273-.166-.35-.064-.043-.102-.112-.145-.265-.04-.142-.037-.138-.175-.278l-.115-.12-.148.032a1.469 1.469 0 01-.194.032c-.028 0-.048.008-.048.02 0 .01-.032.318-.07.684l-.096.9c-.014.13-.03.248-.038.266l-.014.031v-.031z"
    fill="#d4af37" />
  <path
    d="M13.203 9.732c0-.01-.011-.103-.024-.208-.067-.552-.083-1.11-.055-2.028.008-.27.013-.493.011-.495a7.457 7.457 0 00-.267-.01l-.265-.007.01.043c.005.025.002.048-.008.054-.023.015-.063-.02-.063-.054 0-.014-.018-.035-.04-.045-.021-.01-.04-.028-.04-.042s.018-.032.04-.042c.022-.01.04-.03.04-.045 0-.034.04-.068.063-.054.01.006.013.029.008.052l-.01.042.256-.006c.141-.002.261-.01.267-.016s.017-.153.023-.327c.01-.292.008-.317-.016-.308-.037.014-.074-.004-.063-.031.004-.013.024-.028.042-.034s.05-.028.068-.05c.029-.035.037-.039.059-.02.014.012.025.03.025.041s.022.024.048.029c.062.012.068.073.008.073h-.04l.002.239c0 .13.006.273.012.317l.01.078.249.008c.136.004.254.006.26.003.008-.002.01-.02.007-.041-.004-.02 0-.042.01-.048.025-.015.064.02.064.058 0 .017.013.034.03.039.048.012.052.049.009.077-.022.014-.04.038-.04.054 0 .035-.055.07-.07.045-.006-.01-.007-.033-.002-.053l.01-.036-.264.007c-.144.004-.265.01-.267.012-.003.002.004.299.014.659s.014.782.009.936c-.017.46-.08 1.15-.107 1.15-.007 0-.013-.007-.013-.016z"
    fill="#e1050f" />
</svg>