<svg width="180cm" height="120cm" viewBox="0 0 1800 1200" xmlns="http://www.w3.org/2000/svg"
	xmlns:xlink="http://www.w3.org/1999/xlink">
	<g stroke-width=".257">
		<path fill="green" d="M0 0h600v1200H0z" />
		<path fill="#fff" d="M600 0h600v1200H600z" />
		<path fill="#75aadb" d="M1200 0h600v1200h-600z" />
	</g>
	<g id="prefix__c" transform="translate(-699.94 -619.96) scale(3.9999)">
		<path id="prefix__a"
			d="M396.84 251.31l28.454 61.992s.49 1.185 1.28.859c.79-.327.299-1.512.299-1.512l-23.715-63.956m-.68 24.12c-.347 9.428 5.452 14.613 4.694 23.032-.757 8.42 3.867 13.18 4.94 16.454s-1.16 5.232-.198 5.698c.963.466 3.07-2.12 2.383-6.775s-4.22-6.037-3.39-16.32-4.206-12.678-2.98-22.058"
			fill="#fcbf49" stroke="#843511" stroke-width="1.112" />
		<use transform="rotate(22.5 400 250)" xlink:href="#prefix__a" />
		<use transform="rotate(45 400 250)" xlink:href="#prefix__a" />
		<use transform="rotate(67.5 400 250)" xlink:href="#prefix__a" />
		<path id="prefix__b"
			d="M404.31 274.41c.453 9.054 5.587 13.063 4.579 21.314 2.213-6.525-3.124-11.583-2.82-21.22m-7.649-23.757l19.487 42.577-16.329-43.887"
			fill="#843511" />
		<use transform="rotate(22.5 400 250)" xlink:href="#prefix__b" />
		<use transform="rotate(45 400 250)" xlink:href="#prefix__b" />
		<use transform="rotate(67.5 400 250)" xlink:href="#prefix__b" />
	</g>
	<use transform="rotate(90 900 380)" xlink:href="#prefix__c" />
	<use transform="rotate(180 900 380)" xlink:href="#prefix__c" />
	<use transform="rotate(-90 900 380)" xlink:href="#prefix__c" />
	<circle cx="900" cy="380" r="111.11" fill="#fcbf49" stroke="#843511" stroke-width="6" />
	<path id="prefix__h"
		d="M937.88 356.24c-7.588 0-14.852 3.288-19.123 10.124 8.544 7.692 27.423 8.528 40.246-.877a29.331 29.331 0 00-21.123-9.248zm-.121 1.752c7.384-.136 14.284 3.256 15.248 6.624-8.544 9.4-22.199 8.584-30.747 1.748 3.74-5.98 9.756-8.268 15.499-8.376z"
		fill="#843511" stroke-width="4" />
	<use transform="matrix(-1 0 0 1 1801 0)" xlink:href="#prefix__d" />
	<use transform="matrix(-1 0 0 1 1801 0)" xlink:href="#prefix__e" />
	<use transform="translate(75.445)" xlink:href="#prefix__f" />
	<use transform="matrix(-1 0 0 1 1801 0)" xlink:href="#prefix__g" />
	<g fill="#843511" stroke-width="4">
		<path
			d="M883 395.36c-3.652.668-6.252 3.908-6.252 7.624 0 4.248 3.512 7.623 7.752 7.623a7.56 7.56 0 006.252-3.247c2.956 2.224 7.055 2.46 9.247 2.5.336.007.773 0 1 0 2.191-.046 6.291-.276 9.251-2.5 1.44 2.064 3.74 3.247 6.248 3.247 4.24 0 7.752-3.375 7.752-7.623 0-3.716-2.6-6.96-6.252-7.624 2.052.72 3.376 2.704 3.376 4.876a5.12 5.12 0 01-5.124 5.124c-2.72 0-4.968-2.16-5.128-4.876-.831 1.668-4.136 6.62-10.624 6.876-6.488-.256-9.787-5.208-10.624-6.876-.16 2.716-2.4 4.876-5.124 4.876a5.12 5.12 0 01-5.123-5.124c0-2.168 1.32-4.152 3.372-4.876zm8.36 22.759c-8.552 0-11.932 7.748-19.623 12.875 4.272-1.708 7.64-5.08 13.624-8.5 5.984-3.42 11.088.749 14.5.749h.12c3.413 0 8.52-4.164 14.5-.749 5.987 3.424 9.475 6.792 13.752 8.5-7.696-5.128-11.2-12.875-19.751-12.875-1.704 0-5.084.92-8.5 2.624h-.12c-3.413-1.704-6.793-2.624-8.5-2.624z" />
		<path
			d="M888.48 428.24c-3.376.151-7.84.828-14.252 2.752 15.391-3.42 18.787 1.748 25.627 1.748h.12c6.84 0 10.24-5.168 25.628-1.752-17.096-5.128-20.495-1.748-25.623-1.748h-.121c-3.208 0-5.748-1.247-11.376-1z" />
		<path
			d="M875 430.88c-.992.012-2.076.015-3.252.12 17.951 1.713 9.324 12 28.127 12h.121c18.807 0 10.3-10.287 28.251-12-18.799-1.703-12.856 9.377-28.247 9.377h-.121c-14.431 0-9.984-9.684-24.879-9.5zm40.399 27.759a15.391 15.391 0 00-15.384-15.383 15.391 15.391 0 00-15.387 15.383 15.819 15.819 0 0115.387-12.16 15.807 15.807 0 0115.384 12.16z" />
		<path id="prefix__e"
			d="M830.92 356.08c19.659-17.091 44.438-19.659 58.118-6.836 3.348 4.484 5.492 9.28 6.372 14.28 1.72 9.73-1.32 20.246-8.944 31.022.86-.004 2.572.848 3.424 1.708 6.788-12.976 9.188-26.307 6.96-38.983a55.258 55.258 0 00-2.68-9.743c-18.8-15.38-44.438-17.087-63.238 8.551z"
			fill="#843511" stroke-width="4" />
		<path id="prefix__d"
			d="M861.68 350.96c11.108 0 13.676 2.568 18.799 6.84 5.136 4.272 7.696 3.416 8.548 4.272.852.86 0 3.416-1.704 2.56-1.704-.856-5.136-2.56-10.256-6.832-5.132-4.28-10.252-4.276-15.384-4.276-15.383 0-23.931 12.82-25.64 11.964-1.703-.856 8.548-14.528 25.64-14.528z"
			fill="#843511" stroke-width="4" />
	</g>
	<use transform="translate(-76.721)" xlink:href="#prefix__h" />
	<circle id="prefix__f" cx="862.16" cy="364.6" r="7.692" fill="#843511" stroke-width="4" />
	<path id="prefix__g"
		d="M841.16 369.76c14.531 11.112 29.059 10.256 37.607 5.128 8.544-5.128 8.544-6.836 6.84-6.836-1.708 0-3.412 1.708-10.256 5.124-6.84 3.424-17.091 3.424-34.183-3.416z"
		fill="#843511" stroke-width="4" />
	<g fill-rule="evenodd" stroke-width=".819">
		<path
			d="M713.65 1022.1c8.5-8.567 19.612-6.104 24.977-5.09 13.321 4.034 18.937 12.747 14.495 22.462 25.358.635 37.393-2.963 40.416-5.447 7.923-7.352 3.438-26.848 15.54-26.29 14.658 2.718-3.728 14.904.873 21.744 14.914-7.64 57.535-23.945 79.099-25.283 26.462-2.27 48.222 2.59 55.876 7.894 10.215-27.098 20.952-65.782 63.558-70.598 16.435-.183 19.571 7.668 20.49 13.63.59 6.866-4.176 12.157-13.19 12.564-7.95 1.054-9.25-8.921-19.415-7.552-6.245 2.251-9.903 6.394-13.747 13.688l28.975 23.057c18.04-13.867 36.634-26.473 54.673-26.002 16.124.29 24.294 13.445 23.234 20.66-1.083 7.37-2.238 12.116-16.246 14.737-14.082 2.634-21.616-11.434-44.274 4.06l-53.293 44.272c17.453 6.683 26.04 14.785 17.448 19.578-11.9 4.76-22.757 4.657-32.464 6.655-11.503 2.368-17.117 3.616-15.84 25.523l.108 5.521-94.608.06c12.08-2.578 49.465-13.035 60.99-34.205l-.167-17.401 11-4.526-2.763-3.265c-26.143-13.448-69.11-6.318-118.77 1.485-.437 8.962-2.836 22.429-14.136 28.39l-.893 2.132c1.92 1.44 10.497 9.157 10.477 17.947-.017 8.791-9.146 18.096-24.446 18.171-15.213.074-21.565-12.547-21.652-18.096-.087-5.624 4.467-20.228 25.036-20.102l1.222-2.583c-5.988-3.814.618-17.107 2.408-19.974-11.077 2.126-28.945 3.696-45.116.585-23.168-7.489-27.006-31.8-19.873-38.399zm243.25-.237c4.136-6.648 20.158-35.131 22.204-42.224 1.872 3.49 20.854 19.794 25.992 22.616-6.574 2.34-34.569 28.967-39.314 34.426-1.742-4.568-6.356-11.921-8.882-14.818zm-186.41 70.857c0 2.077-1.976 3.763-4.412 3.763-2.435 0-4.411-1.686-4.411-3.763s1.976-3.763 4.411-3.763c2.436 0 4.412 1.686 4.412 3.763zm18.286 5.682c0 2.077-1.976 3.763-4.411 3.763-2.436 0-4.412-1.686-4.412-3.763s1.976-3.763 4.412-3.763c2.435 0 4.411 1.686 4.411 3.763zm-15.151 10.25c0 2.077-1.976 3.763-4.412 3.763-2.435 0-4.411-1.686-4.411-3.763s1.976-3.763 4.411-3.763c2.436 0 4.412 1.686 4.412 3.763z"
			fill="#c24900" stroke="#c24900" transform="matrix(.99996 0 0 1 .037 -51.123)" />
		<path
			d="M734.18 1034.4c-12.931-3.74-7.378-11.802-1.572-10.899 16.679 3.707-2.114 15.88 9.249 22.587 7.92 3.81 44.484-.273 51.034-5.43 8.05-8.179 7.169-29.397 12.807-28.366 4.868 1.615-9.64 21.995-5.408 26.786 19.532-3.543 48.854-25.678 86.857-27.488 33.112-1.64 46.005 6.528 52.366 11.518 13.161 8.333 16.658 22.236 18.325 28.675 3.158-3.325 67.742-72.999 98.426-74.185 16.613.015 19.257 7.299 16.502 8.628-7.452 2.106-5.469-3.223-13.85-3.05-25.31 1.833-83.969 56.918-96.354 71.126 12.145 8.056 11.907 10.797 10.15 13.7-3.855 4.234-11.842-1.65-15.656-2.086-7.465-.856-15.229 24.529-30.714 36.496l-34.13-.092c33.63-5.253 43.316-25.526 49.225-36.113 10.061-15.72-5.477-39.46-31.465-40.027l28.662 21.775-17.547-.036-11.72-9.646c-16.446-11.478-60.799-7.186-114.34 10.072-5.73 9.512-8.32 29.896-12.202 28.695-4.325-2.24 6.447-25.231 8.238-28.097-7.159 1.235-39.081 3.864-47.676 1.757-10.285-2.352-14.38-6.916-9.206-16.3z"
			fill="#db8e45" stroke="#db8e45" transform="matrix(.99996 0 0 1 .037 -51.123)" />
		<path
			d="M866.1 1014.9c5.367-16.08 22.512-56.084 56.181-67.72 7.019-1.438 9.52 1.428 10.888 3.462.992 1.38 2.525 6.734-6.253 7.363-4.134.25-3.743-3.948-12.494-2.872-14.995 3.896-35.123 39.126-42.42 60.294-1.015 2.975-6.502 2.138-5.902-.527z"
			color="#000" fill="#db8e45" stroke="#db8e45" transform="matrix(.99996 0 0 1 .037 -51.123)" />
	</g>
	<g stroke-width=".265" fill="#d4af37">
		<path
			d="M1130.75 972.72l-15.277 4.965v16.064l-9.443-12.996-15.279 4.964 9.442-12.997-9.442-12.996 15.279 4.963 9.443-12.996v16.064zM1123.466 915.343l-13.563 8.608 3.995 15.56-12.379-10.24-13.564 8.607 5.913-14.936-12.377-10.24 16.033 1.008 5.914-14.937 3.996 15.56zM1102.237 861.57l-10.997 11.71 7.739 14.078-14.536-6.839-10.997 11.71 2.013-15.938-14.536-6.84 15.78-3.011 2.014-15.938 7.74 14.077zM1068.222 814.78l-7.739 14.078 10.996 11.71-15.78-3.01-7.74 14.078-2.013-15.938-15.78-3.01 14.536-6.84-2.013-15.939 10.997 11.71zM1023.635 777.924l-3.994 15.56 13.563 8.608-16.033 1.01-3.996 15.56-5.914-14.937-16.033 1.008 12.378-10.24-5.913-14.937 13.564 8.607zM971.304 753.29v16.065l15.279 4.964-15.278 4.965v16.065l-9.444-12.996-15.278 4.963 9.442-12.996-9.442-12.997 15.278 4.963zM914.493 742.456l3.995 15.56 16.033 1.009-13.563 8.608 3.994 15.56-12.378-10.24-13.564 8.608 5.913-14.937-12.377-10.24 16.032 1.008zM856.77 746.08l7.739 14.078 15.78-3.01-10.997 11.711 7.739 14.078-14.536-6.84-10.997 11.71 2.013-15.937-14.536-6.84 15.78-3.011zM801.77 763.954l10.997 11.71 14.535-6.84-7.738 14.078 10.996 11.71-15.78-3.009-7.739 14.077-2.014-15.937-15.78-3.011 14.535-6.84zM752.937 794.939l13.564 8.607 12.378-10.24-3.994 15.56 13.563 8.608-16.032 1.01-3.996 15.56-5.914-14.936-16.033 1.008 12.377-10.24zM713.339 837.114l15.278 4.964 9.443-12.996v16.065l15.278 4.965-15.278 4.964v16.065l-9.443-12.996-15.279 4.963 9.442-12.997zM685.472 887.813l16.033 1.008 5.914-14.936 3.996 15.56 16.032 1.01-13.563 8.607 3.994 15.56-12.378-10.24-13.564 8.608 5.914-14.937zM671.098 943.839l15.78-3.01 2.014-15.938 7.74 14.077 15.78-3.01-10.997 11.711 7.738 14.077-14.535-6.839-10.997 11.71 2.012-15.937zM671.097 1001.64l14.535-6.84-2.013-15.938 10.998 11.71 14.535-6.84-7.738 14.078 10.996 11.71-15.78-3.009-7.74 14.077-2.013-15.937zM685.476 1057.618l12.378-10.24-5.914-14.937 13.564 8.607 12.378-10.239-3.994 15.56 13.563 8.608-16.032 1.01-3.996 15.559-5.914-14.936zM713.34 1108.309l9.442-12.997-9.442-12.997 15.279 4.964 9.442-12.996.001 16.064 15.278 4.964-15.278 4.965v16.065l-9.443-12.996zM752.936 1150.476l5.914-14.936-12.378-10.24 16.033 1.008 5.915-14.936 3.995 15.56 16.033 1.009-13.564 8.608 3.994 15.56-12.377-10.24zM801.774 1181.525l2.013-15.938-14.535-6.84 15.78-3.011 2.014-15.938 7.74 14.077 15.78-3.01-10.997 11.711 7.738 14.078-14.535-6.84zM856.727 1199.33l-2.014-15.938-15.78-3.01 14.535-6.841-2.012-15.938 10.997 11.71 14.536-6.84-7.739 14.078 10.997 11.711-15.78-3.01zM914.498 1203.035l-5.915-14.936-16.032 1.008 12.377-10.24-5.913-14.937 13.564 8.607 12.378-10.24-3.994 15.56 13.563 8.609-16.032 1.01zM971.333 1192.11l-9.443-12.996-15.279 4.963 9.442-12.996-9.441-12.997 15.278 4.963 9.443-12.996v16.065l15.279 4.965-15.278 4.964zM1023.659 1167.498l-12.379-10.24-13.564 8.608 5.913-14.937-12.377-10.24 16.032 1.008 5.915-14.936 3.996 15.56 16.033 1.009-13.564 8.608zM1068.244 1130.658l-14.536-6.84-10.997 11.71 2.013-15.937-14.535-6.84 15.78-3.011 2.013-15.938 7.74 14.077 15.78-3.01-10.997 11.711zM1102.193 1083.883l-15.78-3.009-7.74 14.077-2.014-15.937-15.78-3.011 14.536-6.84-2.013-15.938 10.997 11.71 14.536-6.84-7.738 14.078zM1123.488 1030.11l-16.033 1.009-3.995 15.56-5.915-14.937-16.032 1.008 12.377-10.24-5.913-14.937 13.564 8.607 12.378-10.24-3.994 15.56z" />
	</g>
</svg>