<svg width="1400" height="900" viewBox="0 0 370.42 238.12" xmlns="http://www.w3.org/2000/svg">
	<path fill="#75aadb" d="M0 238.12h370.42V0H0z" />
	<path fill="#fff" d="M0 158.747h370.42V79.372H0z" />
	<g transform="translate(214.55 120.905) scale(1.0696)">
		<ellipse cx="-27.429" cy="-1.724" rx="60.937" ry="61.093" fill="#ece6cc" stroke="#f3eee1"
			stroke-linejoin="round" stroke-width=".835" />
		<g fill="none" stroke="#805e13" stroke-linecap="round" stroke-linejoin="round" stroke-width=".723">
			<path
				d="M-27.426-56.248l-.006 110.83M27.985-1.157l-110.83-.006M11.757-40.342l-78.371 78.363M-66.615-40.342l78.371 78.363" />
		</g>
		<g fill="none" stroke="#805e13" stroke-linecap="round" stroke-linejoin="round" stroke-width="2.716">
			<path
				d="M666.68 263.47l86.098 106.69M684.75 256.86l73.027 109.64M703.2 246.23l59.957 117.03M719.03 238.7l50.662 122.93M738.78 232.2l35.849 127.06M757.22 225.12l23.069 132.08M773.49 216.11l12.612 140.05"
				transform="matrix(.26838 0 0 .26403 -239.59 -110.883)" />
			<g>
				<path
					d="M666.68 263.47l86.098 106.69M684.75 256.86l73.027 109.64M703.2 246.23l59.957 117.03M719.03 238.7l50.662 122.93M738.78 232.2l35.849 127.06M757.22 225.12l23.069 132.08M773.49 216.11l12.612 140.05"
					transform="matrix(-.26838 0 0 .26403 184.826 -110.883)" />
			</g>
		</g>
		<g fill="none" stroke="#805e13" stroke-linecap="round" stroke-linejoin="round" stroke-width="2.716">
			<path
				d="M666.68 263.47l86.098 106.69M684.75 256.86l73.027 109.64M703.2 246.23l59.957 117.03M719.03 238.7l50.662 122.93M738.78 232.2l35.849 127.06M757.22 225.12l23.069 132.08M773.49 216.11l12.612 140.05"
				transform="matrix(.26838 0 0 -.26403 -239.59 108.553)" />
			<g>
				<path
					d="M666.68 263.47l86.098 106.69M684.75 256.86l73.027 109.64M703.2 246.23l59.957 117.03M719.03 238.7l50.662 122.93M738.78 232.2l35.849 127.06M757.22 225.12l23.069 132.08M773.49 216.11l12.612 140.05"
					transform="matrix(-.26838 0 0 -.26403 184.826 108.553)" />
			</g>
		</g>
		<g fill="none" stroke="#805e13" stroke-linecap="round" stroke-linejoin="round" stroke-width="2.716">
			<path
				d="M666.68 263.47l86.098 106.69M684.75 256.86l73.027 109.64M703.2 246.23l59.957 117.03M719.03 238.7l50.662 122.93M738.78 232.2l35.849 127.06M757.22 225.12l23.069 132.08M773.49 216.11l12.612 140.05"
				transform="matrix(0 .26838 .26403 0 -137.383 -213.37)" />
			<g>
				<path
					d="M666.68 263.47l86.098 106.69M684.75 256.86l73.027 109.64M703.2 246.23l59.957 117.03M719.03 238.7l50.662 122.93M738.78 232.2l35.849 127.06M757.22 225.12l23.069 132.08M773.49 216.11l12.612 140.05"
					transform="matrix(0 -.26838 .26403 0 -137.383 211.046)" />
			</g>
		</g>
		<g fill="none" stroke="#805e13" stroke-linecap="round" stroke-linejoin="round" stroke-width="2.716">
			<path
				d="M666.68 263.47l86.098 106.69M684.75 256.86l73.027 109.64M703.2 246.23l59.957 117.03M719.03 238.7l50.662 122.93M738.78 232.2l35.849 127.06M757.22 225.12l23.069 132.08M773.49 216.11l12.612 140.05"
				transform="matrix(0 .26838 -.26403 0 82.26 -213.37)" />
			<g>
				<path
					d="M666.68 263.47l86.098 106.69M684.75 256.86l73.027 109.64M703.2 246.23l59.957 117.03M719.03 238.7l50.662 122.93M738.78 232.2l35.849 127.06M757.22 225.12l23.069 132.08M773.49 216.11l12.612 140.05"
					transform="matrix(0 -.26838 -.26403 0 82.26 211.046)" />
			</g>
		</g>
		<circle transform="matrix(.36282 0 0 .36002 -145.594 -48.026)" cx="325.69" cy="130.17" r="42.529" fill="#c5a14b"
			stroke="#805e13" stroke-linecap="round" stroke-linejoin="round" stroke-width="2.646" />
		<path
			d="M-36.267-4.485l1.5-.955 1.54-.35 1.637.604.897.974-1.111.721-1.403.254-1.072-.137zM-18.595-4.493l-1.5-.955-1.54-.35-1.637.603-.897.975 1.111.72 1.403.254 1.072-.136z"
			fill="#fff" />
		<g fill="#805e13">
			<g transform="matrix(-.26673 0 0 .28645 -126.728 -124.464)">
				<path
					d="M-331.29 413.85c-11.5-10-26-11.5-34-4a140 50 10 001.5 26.5c-.5 0-1.5.5-2 1a80 50 10 01-2.5-28.5c11-9 26-10 37 5" />
				<path
					d="M-349.29 410.85c-6.5 0-8 1.5-11 4s-4.5 2-5 2.5 0 2 1 1.5 3-1.5 6-4 6-2.5 9-2.5c9 0 14 7.5 15 7s-5-8.5-15-8.5" />
				<path d="M-337.79 419.35c-6.5-7-18.5-7.5-23.5.5h2c5-8 17-4.5 18-1v1" />
				<circle transform="translate(-372.29 427.85)" cx="22" cy="-9" r="4.5" />
				<path d="M-361.29 419.85c5 4.5 16 5 23.5-.5l-3.5-.5c-5 5.5-13 5-18 1v-1" />
				<path
					d="M-337.29 421.85c-8.5 6.5-17 6-22 3s-5-4-4-4 2 1 6 3 10 2 20-2M-361.79 436.85a3 3 0 11-4 3c-.5 1-2.5 4-6.5 4h-1l1 1.5c1 0 4 0 6-1.5a4.5 4.5 0 104.5-7M-355.79 457.85c-4.5-3-6.5-7.5-11.5-7.5-1 0-3 .5-5 1.5h-1l1 1.5c2 0 5-2.5 8.5-.5s5.5 4 8 5M-357.29 457.85c-10-3-12-1-15-1h-1l1 2c4 0 6-3 15-1" />
				<path d="M-355.79 457.85c-11-1-7.5 5.5-16.5 5.5h-1l1 1.5c11 0 6-6 16.5-7" />
				<path d="M-363.29 473.85a9 9 0 10-18 0 9.25 9.25 0 0118 0" />
			</g>
			<g transform="matrix(.26673 0 0 .28645 71.867 -124.464)">
				<path
					d="M-331.29 413.85c-11.5-10-26-11.5-34-4a140 50 10 001.5 26.5c-.5 0-1.5.5-2 1a80 50 10 01-2.5-28.5c11-9 26-10 37 5" />
				<path
					d="M-349.29 410.85c-6.5 0-8 1.5-11 4s-4.5 2-5 2.5 0 2 1 1.5 3-1.5 6-4 6-2.5 9-2.5c9 0 14 7.5 15 7s-5-8.5-15-8.5" />
				<path d="M-337.79 419.35c-6.5-7-18.5-7.5-23.5.5h2c5-8 17-4.5 18-1v1" />
				<circle transform="translate(-372.29 427.85)" cx="22" cy="-9" r="4.5" />
				<path d="M-361.29 419.85c5 4.5 16 5 23.5-.5l-3.5-.5c-5 5.5-13 5-18 1v-1" />
				<path
					d="M-337.29 421.85c-8.5 6.5-17 6-22 3s-5-4-4-4 2 1 6 3 10 2 20-2M-361.79 436.85a3 3 0 11-4 3c-.5 1-2.5 4-6.5 4h-1l1 1.5c1 0 4 0 6-1.5a4.5 4.5 0 104.5-7M-355.79 457.85c-4.5-3-6.5-7.5-11.5-7.5-1 0-3 .5-5 1.5h-1l1 1.5c2 0 5-2.5 8.5-.5s5.5 4 8 5M-357.29 457.85c-10-3-12-1-15-1h-1l1 2c4 0 6-3 15-1" />
				<path d="M-355.79 457.85c-11-1-7.5 5.5-16.5 5.5h-1l1 1.5c11 0 6-6 16.5-7" />
				<path d="M-363.29 473.85a9 9 0 10-18 0 9.25 9.25 0 0118 0" />
			</g>
		</g>
	</g>
</svg>