<svg width="21" height="14" xmlns="http://www.w3.org/2000/svg">
    <rect width="21" height="14" fill="#006400"/>
    <rect width="21" height="10" y="2" fill="#FFD200"/>
    <rect width="21" height="6" y="4" fill="#D40000"/>
    <rect width="21" height="2" y="6"/>
    <polygon fill="#FFF" stroke="#000" stroke-width="0.7" paint-order="stroke" points="0,14 0,0 9.3,7 "/>
    <polygon fill="#d40000"
             points="6.442923,6.041345 1.669016,9.509791 3.492486,3.897727 5.315956,9.509791 0.542049,6.041345 "/>
    <path d="M 4.2270867,8.8214391 4.1352253,8.7978535 3.9180984,8.7685779 3.7009714,8.7393024 3.383632,8.7494799 3.0662925,8.7596575 2.9326759,8.7865792 2.7990593,8.8135009 2.7280755,8.824419 2.6570917,8.835337 2.6569404,8.7939185 2.6567891,8.7525001 2.6151674,8.5615455 2.5735458,8.3705908 2.5209046,8.1728547 2.4682635,7.9751186 2.437412,7.947663 2.4065606,7.9202073 v -0.058502 -0.058502 l 0.033404,-0.044138 0.033404,-0.044138 V 7.6745203 7.6341143 L 2.5081626,7.5374593 2.5429566,7.4408043 2.6584816,7.3113062 2.7740065,7.181808 2.7734613,7.168617 2.772916,7.155426 2.740602,7.059949 2.708288,6.964472 2.7077428,6.8326534 2.7071975,6.7008348 2.7406015,6.5999223 2.7740055,6.4990097 V 6.0611854 5.6233596 L 2.7531286,5.6061368 2.732251,5.5889141 2.66949,5.567902 2.606729,5.5468899 2.5901552,5.5147023 2.5228,5.486421 2.5345188,5.451609 2.6282683,5.4324223 2.6869945,5.4285084 2.6402526,5.4050634 2.5610542,5.399821 2.423262,5.402391 V 5.353735 5.305079 L 2.464258,5.262469 2.505254,5.219859 H 2.57313 2.641005 l 0.083963,-0.045631 0.083963,-0.045631 0.1240223,0.00827 0.1240223,0.00827 0.064681,0.044489 0.064682,0.044489 0.027423,0.060064 0.027423,0.060064 0.042328,0.2930148 0.042328,0.2930149 0.00749,0.021699 0.00749,0.021699 h 0.034273 0.034273 l 0.8347595,0.6534992 0.795697,0.6339679 0.039063,0.060957 v 0.041426 l -0.026647,0.010628 -0.026647,0.010628 -0.1232223,-0.031892 -0.1232224,-0.031892 -0.00653,0.0077 -0.00653,0.0077 -0.076481,0.1388761 -0.076481,0.1388761 -0.065905,0.1735951 -0.065905,0.1735951 -0.035007,0.1475558 -0.035007,0.1475559 -0.016621,0.1215166 -0.016621,0.1215165 -3.308e-4,0.1692553 -3.309e-4,0.1692552 -0.029229,-0.00148 -0.029229,-0.00148 z"/>
    <path fill="#FFD200"
          d="M 4.3515625,8.484375 4.203125,8.4648438 3.8242188,8.4414063 3.3828125,8.4375 3.078125,8.453125 2.8789063,8.4882813 2.84375,8.3671875 l 0.2578125,-0.035156 0.6992188,-0.00781 0.4335937,0.039063 0.1328125,0.023437 z"/>
    <path fill="none" stroke="#000" stroke-width="0.0485353"
          d="M 2.8743586,8.5042355 3.0073094,8.3320649 3.1636788,8.4605589 3.3083262,8.2950586 3.4412581,8.4566527 3.6015527,8.2874745 3.7383782,8.4729631 3.8791226,8.2911523 4.0276605,8.4839964 4.160608,8.3221739 4.2622618,8.4874457 4.3717373,8.3959582"/>
    <path fill="#FFD200"
          d="m 2.7851563,8.1295007 0.4257812,-0.045261 0.1523438,-0.013927 h 0.5820312 l 0.3007812,0.013927 0.1640625,0.017408 -0.019531,0.111413 L 4.3398437,8.1886889 3.71875,8.1712806 3.0976563,8.1852073 2.8203125,8.2304688 Z"/>
    <path fill="none" stroke="#000" stroke-width="0.0485353"
          d="M 2.8235773,8.2620479 2.9955906,8.0781586 3.1441475,8.2105589 3.2887949,8.0450585 3.4373518,8.2105589 3.6093651,8.0413807 3.7422844,8.1995255 3.8908413,8.0450585 4.0159418,8.2105589 4.1840456,8.0487363 l 0.1133725,0.1691782 0.1251005,-0.0993"/>
    <path fill="#FFD200"
          d="m 2.9542657,6.2339837 0.1004947,-0.092279 0.1175462,-0.085596 0.101921,-0.085596 0.00806,-0.043353 -0.00756,-0.043353 L 3.2412106,5.6249757 3.1998746,5.358333 3.1747156,5.298569 3.1339316,5.234898 3.0806846,5.195967 3.0079066,5.180473 2.9179196,5.160012 2.8240266,5.174707 2.7405996,5.201813 2.6806096,5.236731 h -0.049069 l -0.060788,0.015625 -0.053674,0.00329 -0.045862,0.042354 -0.015625,0.035537 0.042969,0.019913 0.056188,-0.011336 0.091345,-0.00743 0.058571,0.039385 0.033019,0.027527 -0.00604,0.035339 -0.053447,0.014833 -0.04793,-2.437e-4 -0.047931,0.015381 0.021358,0.031877 0.036984,0.012346 0.06817,0.021167 0.06817,0.036792 0.018176,0.024379 0.018176,0.024379 -0.00263,0.4176954 0.00519,0.3512891 0.022827,-9.862e-4 0.038452,-0.063485 z"/>
    <path fill="#FFD200"
          d="m 4.6660579,7.4722456 0.070931,-0.1244371 -0.00735,-0.00736 -0.00735,-0.00736 -0.2409603,-0.068232 -0.2487726,-0.064326 -0.055083,0.079973 -0.053762,0.042033 -0.073744,0.010499 -0.089369,-0.00122 -0.083966,0.004 -0.1151622,0.00591 -0.042913,0.03316 -0.05054,0.02556 -0.058353,0.017747 -0.062453,0.026521 -0.062453,0.026521 0.046685,0.010005 0.046686,0.010006 0.100963,0.00186 0.100963,0.00186 0.2143881,0.024607 0.2143881,0.024607 0.1813269,0.036638 0.1931485,0.026252 z"/>
    <path fill="#FFD200"
          d="m 3.0653107,8.0451881 0.1794957,-0.020835 0.4021259,-8.776e-4 0.4021261,-8.778e-4 0.1893139,0.013385 0.189314,0.013385 0.037685,-0.1179572 0.037685,-0.1179572 0.030539,-0.068767 0.03054,-0.068767 -0.00377,-0.00379 -0.00377,-0.00379 -0.227267,-0.042316 -0.2272695,-0.042316 -0.2480821,-0.023638 -0.2480821,-0.023638 -0.1074076,-0.0036 -0.1074076,-0.0036 -0.081346,0.060816 -0.081345,0.060816 -0.1559264,0.076106 -0.1559263,0.076106 -0.024496,0.012219 -0.024496,0.01222 -0.01326,0.056189 -0.013261,0.056189 -0.013567,0.041367 -0.013568,0.041367 -0.01298,0.03158 -0.01298,0.03158 0.048942,-0.00987 0.048942,-0.00987 z"/>
    <path fill="#FFD200"
          d="M 4.2508918,8.2464402 4.1220051,8.2341068 3.709617,8.2332487 3.2972287,8.2323908 l -0.2214705,0.021057 -0.2148981,0.019486 -0.00479,0.026575 0.010869,0.018443 0.2351247,-0.023249 0.2507932,-0.023251 0.366128,-1.002e-4 0.370044,0.02836 0.140212,0.016288 0.1284632,0.016288 0.02855,-0.033648 -0.034109,-0.033648 z"/>
    <path fill="#FFD200"
          d="m 4.3395081,8.6787117 0.00664,-0.1306393 -0.014999,-0.00997 -0.014999,-0.00997 -0.1830387,-0.0217 -0.1830385,-0.021699 -0.4191462,0.0013 -0.4191461,0.0013 -0.1049086,0.017944 -0.1049087,0.017943 -0.00486,0.00468 -0.00486,0.00468 0.023878,0.1097391 0.023878,0.1097393 0.00557,0.00537 0.00557,0.00537 0.1214115,-0.019475 0.1214116,-0.019475 0.2958679,3.698e-4 0.2958679,3.699e-4 0.1939283,0.028117 0.1939284,0.028116 0.04441,0.0129 0.04441,0.0129 0.035243,0.00136 0.035243,0.00136 z"/>
    <path fill="#FFD200"
          d="M 2.8660415,8.7256396 2.8464141,8.6652783 2.8235035,8.5052304 2.7771555,8.3022137 2.7476905,8.1955829 2.7065068,8.104577 2.6730233,8.07281 l -0.056921,-5.16e-4 -0.06099,-0.036759 -0.034579,-0.00995 0.00839,0.029113 0.041221,0.1401366 0.041222,0.1401363 0.046637,0.1989417 0.034919,0.1950356 0.00825,0.035044 0.00825,0.035043 0.082281,-0.022142 0.074468,-0.00652 z"/>
    <path fill="#FFD200"
          d="M 3.3613281,6.015625 3.3085941,6.033203 3.2363281,6.070312 3.1328125,6.148437 3.03125,6.228515 2.943359,6.33789 2.855468,6.447265 2.787109,6.5507806 2.757812,6.6542963 2.748042,6.77539 2.738272,6.8964838 2.775381,7.0175775 2.810537,7.1386713 v 0.029297 0.029297 L 2.7070312,7.3164062 2.609375,7.4277344 2.5625,7.5078125 2.539063,7.5781245 2.535153,7.5917965 v 0.00195 l -0.023437,0.074219 h 0.00195 l -0.017578,0.058594 -0.046875,0.0625 -0.00391,0.097656 0.03125,0.00781 0.00391,-0.140625 0.046875,0.027344 L 2.523428,7.929682 2.570303,7.8085883 2.59374,7.6699164 2.615224,7.6308534 2.660146,7.5898374 2.755849,7.4980404 2.855458,7.3945247 2.980458,7.2617123 3.1132704,7.0956966 V 6.9335938 l 0.027344,-0.021484 0.037109,0.017578 V 7.1113281 L 3.0292969,7.2871094 2.9101562,7.4179688 2.7734375,7.5527344 l -0.087891,0.1015625 -0.041016,0.041016 -0.00391,0.1132813 -0.058594,0.0625 -0.00391,0.09375 L 2.6132812,8 2.609375,7.8476562 l 0.050781,0.015625 0.00195,0.078125 -0.00586,0.070313 0.035156,-0.0625 0.00781,-0.1015626 0.042969,0.039063 v 0.097656 l -0.035156,0.023437 v 0.027344 l 0.058594,0.00781 0.027344,-0.1054688 0.00781,-0.1132812 0.0625,-0.048828 0.1660157,-0.082031 0.1210937,-0.076172 0.1347656,-0.078125 0.09375,-0.068359 0.097656,-0.076172 0.074219,-0.023437 0.070313,-0.011719 0.044922,-0.025391 0.042969,-0.025391 0.035156,-0.03125 0.035156,-0.03125 L 3.79882,7.2089826 3.818351,7.1503886 3.8027344,7.1054688 3.78125,7.0722656 3.7441406,7.0488281 3.4726562,6.96875 3.203125,6.8710938 3.1621094,6.828125 3.1210934,6.787109 3.1132834,6.710937 3.1054734,6.634765 3.1406294,6.578124 3.1738324,6.521483 h 0.017578 0.017578 V 6.537108 6.55078 l -0.033203,0.03125 -0.027344,0.042969 -0.00781,0.060547 0.00391,0.052734 0.023438,0.056641 0.044922,0.035156 0.091797,0.039063 0.1132813,0.035156 0.8007812,0.2324219 0.796875,0.2070312 0.00977,-0.019531 -0.015625,-0.015625 -0.015625,-0.015625 -0.75,-0.625 L 3.4511719,6.0703125 3.40625,6.0429688 Z"/>
    <path fill="#FFD200"
          d="m 3.7929688,7.2851562 0.3085937,-0.00453 0.050781,-0.038885 0.03125,-0.045899 -0.058593,-0.0601 -0.1425781,-0.040528 -0.1425781,0.00635 0.027341,0.032137 -0.042968,0.115234 z"/>
    <path fill="#FFD200" stroke="#000" stroke-width="0.04" d="m 4.1679687,7.1445312 -0.1445312,0.15625 v 0"/>
    <path fill="#FFD200" stroke="#000" stroke-width="0.04" d="M 4.0969489,7.111748 3.925074,7.3031543"/>
    <path fill="#FFD200" stroke="#000" stroke-width="0.04" d="M 4.0188239,7.0961231 3.831324,7.3070606"/>
    <path fill="#FFD200" stroke="#000" stroke-width="0.04" d="M 3.9367927,7.0765918 3.7766366,7.2719043"/>
    <ellipse fill="#FFD200" stroke="#000" stroke-width="0.097841" cx="3.5253892" cy="7.8027358" rx="0.12817173"
             ry="0.12803414"/>
    <ellipse fill="#FFD200" stroke="#000" stroke-width="0.05" cx="2.8664465" cy="5.2960954" rx="0.035999998"
             ry="0.036178209"/>
    <ellipse fill="#FFD200" stroke="#000" stroke-width="0.097841" cx="4.0833421" cy="7.8175793" rx="0.12817173"
             ry="0.12803414"/>
</svg>