<svg width="300" height="200" xmlns="http://www.w3.org/2000/svg">
    <rect width="300" height="200" fill="#EE1F25"/>
    <rect y="50" width="300" height="100" fill="#FEFEFE"/>
    <g transform="translate(-.074216 .16303)">
        <g fill="#FFCE17">
            <path d="m159.39 58.441-6.916 29.967 2.9863 1.1953 14.096-27.336a42.028 42.963 0 0 0-10.166-3.8262z"/>
            <path
                    d="m171.84 63.584-16.086 26.875 1.9648 2.2637 22.645-22.174a42.028 42.963 0 0 0-8.5234-6.9648z"/>
            <path
                    d="m182.02 72.424-23.932 20.701 0.91601 2.8242 28.998-14.113a42.028 42.963 0 0 0-5.9824-9.4121z"/>
            <path
                    d="m189.03 84.221-29.74 12.139 0.60742 2.623 31.885-3.916a42.028 42.963 0 0 0-2.752-10.846z"/>
            <path
                    d="m192.02 97.621-19.936 1.3887 0.27735 9.8809 18.906-0.0176a42.028 42.963 0 0 0 0.83594-8.5371 42.028 42.963 0 0 0-0.084-2.7148z"/>
        </g>
        <g transform="matrix(-1 0 0 1 299.75 0)" fill="#FFCE17">
            <path transform="matrix(-1 0 0 1 299.74 0)"
                  d="m140.38 58.533a42.028 42.963 0 0 0-10.1 3.9062l14.008 27.164 2.9863-1.1953z"/>
            <path transform="matrix(-1 0 0 1 299.74 0)"
                  d="m128.02 63.768a42.028 42.963 0 0 0-8.4199 6.9902l22.434 21.965 1.9629-2.2637z"/>
            <path transform="matrix(-1 0 0 1 299.74 0)"
                  d="m117.96 72.629a42.028 42.963 0 0 0-5.8867 9.3672l28.668 13.953 0.91601-2.8242z"/>
            <path transform="matrix(-1 0 0 1 299.74 0)"
                  d="m111.06 84.363a42.028 42.963 0 0 0-2.7012 10.754l31.484 3.8652 0.60742-2.623z"/>
            <path transform="matrix(-1 0 0 1 299.74 0)"
                  d="m108.13 97.648a42.028 42.963 0 0 0-0.082 2.6875 42.028 42.963 0 0 0 0.83789 8.5371l18.5 0.0176 0.27735-9.8809z"/>
        </g>
        <g fill="#194BA4">
            <path d="m124.71 124.42 4e-3 5.5176h16.92l-4e-3 -5.5137c-4.5042 0-4.0202 3.4453-8.5137 3.4453s-3.9208-3.4492-8.4062-3.4492zm16.924 0 2e-3 5.5176h16.922l-4e-3 -5.5137c-4.5042 0-4.0202 3.4453-8.5137 3.4453s-3.9208-3.4492-8.4062-3.4492zm16.924 0 2e-3 5.5156h16.92l-4e-3 -5.5117c-4.5042 0-4.0202 3.4453-8.5137 3.4453s-3.9189-3.4492-8.4043-3.4492zm16.922 0 2e-3 5.5156h5.0586a42.028 42.963 0 0 0 1.916-2.207c-2.9996-0.64572-3.035-3.3086-6.9766-3.3086zm-50.773 4e-3c-3.9287 0-4.0618 2.6213-7.0137 3.291a42.028 42.963 0 0 0 1.9277 2.2226h5.0898z"/>
            <path d="m124.71 111.02 4e-3 5.5176h16.92l-4e-3 -5.5137c-4.5042 0-4.0202 3.4453-8.5137 3.4453s-3.9208-3.4492-8.4062-3.4492zm16.924 0 2e-3 5.5176h16.922l-4e-3 -5.5137c-4.5042 0-4.0202 3.4453-8.5137 3.4453s-3.9208-3.4492-8.4062-3.4492zm16.924 0 2e-3 5.5176h16.92l-4e-3 -5.5137c-4.5042 0-4.0202 3.4453-8.5137 3.4453s-3.9189-3.4492-8.4043-3.4492zm16.922 0 2e-3 5.5176h13.523a42.028 42.963 0 0 0 1.7324-5.3203c-2.8064 0.72568-3.0033 3.252-6.8516 3.252-4.4935 0-3.9208-3.4492-8.4062-3.4492zm-50.773 4e-3c-4.5042 0-4.0202 3.4453-8.5137 3.4453-3.8559 0-3.9796-2.5392-6.7715-3.2598a42.028 42.963 0 0 0 1.7344 5.3281h13.555z"/>
            <path d="m116.01 117.72 2e-3 5.5156h16.92l-4e-3 -5.5137c-4.5042 0-4.0202 3.4453-8.5137 3.4453-4.4935 0-3.9189-3.4473-8.4043-3.4473zm16.924 0 2e-3 5.5156h16.92l-4e-3 -5.5137c-4.5042 0-4.0202 3.4453-8.5137 3.4453-4.4935 0-3.9189-3.4473-8.4043-3.4473zm16.922 0 4e-3 5.5156h16.92l-4e-3 -5.5137c-4.5042 0-4.0202 3.4453-8.5137 3.4453s-3.9208-3.4473-8.4062-3.4473zm16.924 0 2e-3 5.5156h16.92l-4e-3 -5.5137c-4.5042 0-4.0202 3.4453-8.5137 3.4453s-3.9189-3.4473-8.4043-3.4473zm16.924 0 2e-3 5.5156h1.9316a42.028 42.963 0 0 0 2.1367-3.9043c-0.93833-0.82275-1.9252-1.6113-4.0703-1.6113zm-67.697 2e-3c-1.8868 0-2.8988 0.60399-3.7676 1.3066a42.028 42.963 0 0 0 2.2812 4.207h1.4902z"/>
            <path d="m158.55 137.62 2e-3 4.7949a42.028 42.963 0 0 0 6.0664-1.7715c-2.1498-0.92264-2.5687-3.0234-6.0684-3.0234zm-16.924 2e-3 2e-3 4.8008a42.028 42.963 0 0 0 4.8164 0.71484h7.2558a42.028 42.963 0 0 0 4.8496-0.72265l-4e-3 -4.791c-4.5042 0-4.0202 3.4453-8.5137 3.4453s-3.9208-3.4473-8.4062-3.4473zm-4e-3 2e-3c-3.4959 0-3.9872 2.0767-6.1328 3.0059a42.028 42.963 0 0 0 6.1367 1.791z"/>
            <path d="m132.93 130.92 2e-3 5.5176h16.92l-4e-3 -5.5137c-4.5042 0-4.0202 3.4453-8.5137 3.4453-4.4935 0-3.9189-3.4492-8.4043-3.4492zm16.922 0 4e-3 5.5156h16.92l-4e-3 -5.5117c-4.5042 0-4.0202 3.4453-8.5137 3.4453s-3.9208-3.4492-8.4062-3.4492zm16.924 0 2e-3 5.5156h6.0801a42.028 42.963 0 0 0 2.8926-2.0879c-0.1805 0.0129-0.37112 0.0215-0.57031 0.0215-4.4935 0-3.9189-3.4492-8.4043-3.4492zm-33.852 4e-3c-4.4993 0-4.0202 3.4378-8.498 3.4453a42.028 42.963 0 0 0 2.8652 2.0684h5.6367z"/>
        </g>
        <path d="m139.87 88.706 0.14959 8.9753-9.6485 0.29918 10.097 2.8422 25.729-0.89753 1.8699-2.0942-8.377 0.07479z"
              fill="#FEFEFE"/>
        <g id="a">
            <path d="m138.91 110.57 5.9373-0.0747-3.1367 4.1075-7.7297-0.0747z" fill="#792D15"
                  style="paint-order:stroke fill markers"/>
            <path d="m131.46 87.513-0.78561-0.92396 0.75393-1.6965-0.76586-1.8143 0.86429-1.7457-0.83372-1.6846 0.8889-1.7703-4.261 0.01193-0.97539 1.8702 0.74126 1.6719-0.82105 1.6905 0.88293 1.7517-0.81506 1.7524 6e-3 1.3475 5.0582-0.20354z"
                  fill="none" stroke="#FEFEFE" stroke-width="1.3" style="paint-order:stroke fill markers"/>
            <path d="m126.99 88.258 0.0186 25.157 1.8e-4 0.81161c3.9e-4 5.0233 4.2589 9.2072 9.2821 9.2076 5.024 6.8e-4 9.0414-4.109 9.0417-9.133-3e-3 -0.75447-0.0803-1.3938-0.26847-2.1245-1.447 2.3503-3.9516 3.523-6.7116 3.5281-3.4728 2.9e-4 -6.4896-2.2497-7.5378-5.5605l0.0552-21.591z"
                  fill="none" stroke="#FEFEFE" stroke-width="2.6" style="paint-order:stroke fill markers"/>
            <path d="m131.44 87.555-1.0178-1.0156 0.95078-1.6965-0.9135-1.7897 0.9135-1.6965-0.93214-1.7338 0.9135-1.6965-4.0641-0.03728-0.95078 1.8456 0.9135 1.6965-0.89486 1.7151 0.93214 1.6779-0.94882 1.7736 2e-3 1.2349 5.083-0.05593z"
                  fill="#792D15" style="paint-order:stroke fill markers"/>
            <path d="m126.99 88.258 0.0186 25.157 1.8e-4 0.81161c3.9e-4 5.0233 4.2589 9.2072 9.2821 9.2076 5.024 6.8e-4 9.0414-4.109 9.0417-9.133-3e-3 -0.75447-0.0803-1.3938-0.26847-2.1245-1.447 2.3503-3.9516 3.523-6.7116 3.5281-3.4728 2.9e-4 -6.4896-2.2497-7.5378-5.5605l-0.0186-21.886z"
                  fill="#EE1F25" stroke="#792D15" stroke-width="1.3" style="paint-order:stroke fill markers"/>
        </g>
        <use transform="matrix(-1 0 0 1 299.76 0)" href="#a"/>
        <rect x="133.1" y="107.13" width="33.582" height="1.7183" fill="#792D15"/>
        <g id="b" fill="#792D15">
            <circle cx="136.05" cy="100.15" r=".78446"/>
            <path d="m134.11 99.402 1.9425 1.5316 1.8304-1.5316 1.0086-0.03736-1.6063 2.6149 1.7557 3.474-1.3074 0.0374-1.2701-1.793-0.93388 0.0373-1.1954 1.7184h-1.3074l1.7557-3.5114-1.7184-2.5028z"/>
        </g>
        <use transform="translate(6.9)" href="#b"/>
        <use transform="translate(13.8)" href="#b"/>
        <use transform="translate(20.7)" href="#b"/>
        <use transform="translate(27.6)" href="#b"/>
        <path d="m149.81 58.035c-1.4624 0.01492-2.6773 0.36363-3.6856 0.91211-2.9095 1.4012-4.7593 4.3449-4.7598 7.5742-2e-5 0.01107-2e-5 0.02214 0 0.0332 0 0 0.0745 21.561 0.0371 22.832s1.3086 2.0938 1.3086 2.0938l15.658 5.2305v-23.289a7.7167 7.7167 0 0 1-0.84179 0.04687 7.7167 7.7167 0 0 1-7.7168-7.7168 7.7167 7.7167 0 0 1 5.2305-7.3066c-1.5688-0.22091-3.2805-0.31781-5.2305-0.41016z"
              fill="none" stroke="#FEFEFE" stroke-width="3" style="paint-order:stroke fill markers"/>
        <path d="m149.81 58.035c-1.4624 0.01492-2.6773 0.36363-3.6856 0.91211-2.9095 1.4012-4.7593 4.3449-4.7598 7.5742-2e-5 0.01107-2e-5 0.02214 0 0.0332 0 0 0.0745 21.561 0.0371 22.832s1.3086 2.0938 1.3086 2.0938l15.658 5.2305v-23.289a7.7167 7.7167 0 0 1-0.84179 0.04687 7.7167 7.7167 0 0 1-7.7168-7.7168 7.7167 7.7167 0 0 1 5.2305-7.3066c-1.5688-0.22091-3.2805-0.31781-5.2305-0.41016z"
              fill="#EE1F25" stroke="#792D15" stroke-width="1.5" style="paint-order:stroke fill markers"/>
        <path d="m155.08 57.698 2.2795 0.33632v0.85949l-2.1674 0.29895z" fill="#792D15"
              style="paint-order:stroke fill markers"/>
    </g>
</svg>
