<svg width="500" height="300" xmlns="http://www.w3.org/2000/svg">
    <polygon points="0,0 500,300 0,300 500,0" fill="#FF0E14"/>
    <polygon points="0,0 500,300 500,0 0,300" fill="#13A748"/>
    <line x1="0" y1="0" x2="500" y2="300" stroke="#FFF" stroke-width="40"/>
    <line x1="0" y1="300" x2="500" y2="0" stroke="#FFF" stroke-width="40"/>
    <circle r="85" cx="250" cy="150" fill="#FFF"/>
    <polygon
            points="250,86 255.77350269189625,96 267.3205080756888,96 261.5470053837925,106 267.3205080756888,116 255.77350269189625,116 250,126 244.22649730810375,116 232.67949192431124,116 238.4529946162075,106 232.6794919243112,96 244.22649730810375,96"
            fill="#FF0E14" stroke="#13A748" stroke-width="3.6" paint-order="stroke"/>
    <polygon
            points="288.1051177665153,152 293.8786204584116,162 305.4256258422041,162 299.65212315030783,172 305.4256258422041,182 293.8786204584116,182 288.1051177665153,192 282.3316150746191,182 270.7846096908265,182 276.5581123827228,172 270.7846096908265,162 282.33161507461904,162"
            fill="#FF0E14" stroke="#13A748" stroke-width="3.6" paint-order="stroke"/>
    <polygon
            points="211.8948822334847,152 217.66838492538096,162 229.21539030917347,162 223.44188761727722,172 229.21539030917347,182 217.66838492538096,182 211.8948822334847,192 206.12137954158845,182 194.57437415779594,182 200.3478768496922,172 194.57437415779592,162 206.12137954158845,162"
            fill="#FF0E14" stroke="#13A748" stroke-width="3.6" paint-order="stroke"/>
</svg>