<svg width="500" height="300" xmlns="http://www.w3.org/2000/svg">
    <polygon points="0,0 500,300 0,300 500,0" fill="#FF0E14" />
    <polygon points="0,0 500,300 500,0 0,300" fill="#13A748" />
    <line x1="0" y1="0" x2="500" y2="300" stroke="#FFF" stroke-width="40" />
    <line x1="0" y1="300" x2="500" y2="0" stroke="#FFF" stroke-width="40" />
    <circle r="85" cx="250" cy="150" fill="#FFF" />
    <polygon
        points="211.8948822334847,150.2 218.18800016765164,161.1 230.77423603598547,161.1 224.48111810181854,172 230.77423603598547,182.9 218.18800016765164,182.9 211.8948822334847,193.8 205.60176429931778,182.9 193.01552843098395,182.9 199.30864636515088,172 193.01552843098392,161.1 205.60176429931778,161.1"
        fill="#FF0E14" stroke="#13A748" stroke-width="1.8" />
    <polygon
        points="288.1051177665153,150.2 294.3982357006822,161.1 306.9844715690161,161.1 300.6913536348492,172 306.9844715690161,182.9 294.3982357006822,182.9 288.1051177665153,193.8 281.8119998323484,182.9 269.22576396401456,182.9 275.51888189818146,172 269.22576396401456,161.1 281.8119998323484,161.1"
        fill="#FF0E14" stroke="#13A748" stroke-width="1.8" />
    <polygon
        points="250,84.2 256.2931179341669,95.1 268.87935380250076,95.1 262.58623586833386,106 268.87935380250076,116.9 256.2931179341669,116.9 250,127.8 243.70688206583307,116.9 231.12064619749924,116.9 237.41376413166617,106 231.12064619749924,95.1 243.70688206583307,95.1"
        fill="#FF0E14" stroke="#13A748" stroke-width="1.8" />
</svg>