<svg width="500" height="300" xmlns="http://www.w3.org/2000/svg">
    <polygon points="0,0 500,300 0,300 500,0" fill="#FF0E14" />
    <polygon points="0,0 500,300 500,0 0,300" fill="#13A748" />
    <line x1="0" y1="0" x2="500" y2="300" stroke="#FFF" stroke-width="40" />
    <line x1="0" y1="300" x2="500" y2="0" stroke="#FFF" stroke-width="40" />
    <circle r="85" cx="250" cy="150" fill="#FFF" />
    <polygon
        points="250,87.8 255.25388744962558,96.9 265.76166234887677,96.9 260.5077748992512,106 265.76166234887677,115.1 255.2538874496256,115.1 250,124.2 244.74611255037442,115.1 234.23833765112323,115.1 239.4922251007488,106 234.2383376511232,96.9 244.7461125503744,96.9"
        fill="#FF0E14" stroke="#13A748" stroke-width="1.8" />
    <polygon
        points="288.1051177665153,153.8 293.35900521614093,162.9 303.8667801153921,162.9 298.6128926657665,172 303.8667801153921,181.1 293.35900521614093,181.1 288.1051177665153,190.2 282.8512303168897,181.1 272.34345541763855,181.1 277.59734286726416,172 272.34345541763855,162.9 282.8512303168897,162.9"
        fill="#FF0E14" stroke="#13A748" stroke-width="1.8" />
    <polygon
        points="211.8948822334847,153.8 217.1487696831103,162.9 227.65654458236148,162.9 222.4026571327359,172 227.6565445823615,181.1 217.14876968311032,181.1 211.8948822334847,190.2 206.64099478385913,181.1 196.13321988460794,181.1 201.38710733423352,172 196.1332198846079,162.9 206.6409947838591,162.9"
        fill="#FF0E14" stroke="#13A748" stroke-width="1.8" />
</svg>