<svg width="500" height="300" xmlns="http://www.w3.org/2000/svg">
    <polygon points="0,0 500,300 0,300 500,0" fill="#FF0E14" />
    <polygon points="0,0 500,300 500,0 0,300" fill="#13A748" />
    <line x1="0" y1="0" x2="500" y2="300" stroke="#FFF" stroke-width="40" />
    <line x1="0" y1="300" x2="500" y2="0" stroke="#FFF" stroke-width="40" />
    <circle r="85" cx="250" cy="150" fill="#FFF" />
    <polygon
            points="250,89.6 254.73427220735493,97.8 264.2028166220648,97.8 259.46854441470987,106 264.2028166220648,114.2 254.73427220735493,114.2 250,122.4 245.26572779264507,114.2 235.7971833779352,114.2 240.53145558529013,106 235.7971833779352,97.8 245.26572779264507,97.8"
            fill="#FF0E14" stroke="#13A748" stroke-width="3.6" paint-order="stroke" />
    <polygon
            points="288.1051177665153,155.6 292.83938997387025,163.8 302.3079343885801,163.8 297.5736621812252,172 302.3079343885801,180.2 292.83938997387025,180.2 288.1051177665153,188.4 283.3708455591604,180.2 273.9023011444505,180.2 278.63657335180545,172 273.9023011444505,163.8 283.3708455591604,163.8"
            fill="#FF0E14" stroke="#13A748" stroke-width="3.6" paint-order="stroke" />
    <polygon
            points="211.8948822334847,155.6 216.62915444083964,163.8 226.0976988555495,163.8 221.36342664819458,172 226.0976988555495,180.2 216.62915444083964,180.2 211.8948822334847,188.4 207.16061002612977,180.2 197.69206561141993,180.2 202.42633781877484,172 197.6920656114199,163.8 207.16061002612977,163.8"
            fill="#FF0E14" stroke="#13A748" stroke-width="3.6" paint-order="stroke" />
</svg>