<svg width="382.15402" height="191.62604" xmlns="http://www.w3.org/2000/svg">
    <rect width="382.15402" height="191.62604" fill="LAB(90.78146412545756 0.484392504408071 7.969256157321669)"/>
    <rect width="95.628995" height="191.62604" fill="LAB(36.930754485213654 55.60125613908157 28.982706876270605)"/>
    <rect width="95.628995" height="191.62604" x="286.525025"
          fill="LAB(36.930754485213654 55.60125613908157 28.982706876270605)"/>
    <path
            d="m 194.9093,176.29652 -1.825,-32.485 c 0,-2.92 1.095,-6.57 5.475,-5.84 l 32.85,5.84 -4.015,-10.95 c 0.73,1.46 -1.095,-2.555 0.73,-4.015 l 36.865,-30.661003 -7.665,-3.65 c 1.46,0.73 -2.555,-0.73 -1.46,-4.745 l 7.3,-21.17 -18.98,3.65 c -1.095,0.365 -4.38,1.095 -5.11,-0.73 l -4.745,-9.49 -16.425,17.155 c -1.825,1.825 -5.84,2.555 -4.745,-2.92 l 8.03,-40.15 -10.585,5.84 c -1.46,0.73 -4.745,2.555 -6.935,-1.095 l -12.41,-24.455 -12.41,24.455 c -2.19,3.65 -5.11,1.825 -6.57,1.095 l -10.585,-5.84 7.665,40.15 c 1.095,5.475 -2.92,4.745 -4.745,2.92 l -16.06,-17.155 -4.745,9.49 c -1.095,1.825 -4.38,1.095 -5.475,0.73 l -18.615,-3.65 7.3,21.17 c 1.095,4.015 -2.92,5.475 -1.46,4.745 l -7.665,3.65 36.865,30.661003 c 1.825,1.46 0,5.475 0.365,4.015 l -4.015,10.95 32.85,-5.84 c 4.38,-0.73 5.84,2.92 5.475,5.84 l -1.825,32.485 z"
            fill="LAB(36.930754485213654 55.60125613908157 28.982706876270605)"/>
    <!-- xyY to LAB because svg doesn't support xyY-->
</svg>