<?xml version="1.0" encoding="UTF-8"?>
<!DOCTYPE xml>
<svg width="690" height="460" version="1.1" viewBox="0 0 138 92" xml:space="preserve" id="svg157"
	xmlns="http://www.w3.org/2000/svg">
	<path d="M0 0h138v92H0z" id="path147" />
	<path
		d="m69 4.2667 3.4335 9.1384 6.6693-7.1288-0.32491 9.7568 8.8897-4.0339-4.0339 8.8897 9.7568-0.3249-7.1288 6.6693 9.1384 3.4336-9.1384 3.4335 7.1288 6.6693-9.7568-0.32491 4.0339 8.8897-8.8897-4.0339 0.3249 9.7568-6.6693-7.1288-3.4336 9.1384-3.4335-9.1384-6.6693 7.1288 0.32491-9.7568-8.8897 4.0339 4.0339-8.8897-9.7568 0.3249 7.1288-6.6693-9.1384-3.4336 9.1384-3.4336-7.1288-6.6693 9.7568 0.32491-4.0339-8.8897 8.8897 4.0339-0.3249-9.7568 6.6693 7.1288z"
		fill="#fc0" fill-rule="evenodd" stroke-width=".2" id="path149" />
	<path d="m0 46h138v46h-138z" fill="#fff" id="path151" />
	<path d="m0 30.667h138v26.667h-138z" fill="#91cdfa" stroke-width="1.1546" id="path153" />
	<path d="M0 0v92h138V0L69 92z" fill="#f00" id="path155" />
</svg>