<svg width="756.67" height="460" viewBox="0 0 151.33 92" xmlns="http://www.w3.org/2000/svg">
	<path d="M-.002 0h151.333v92H-.002z" fill="#fff" />
	<path d="M-.002 0h151.333v46H-.002z" />
	<path
		d="M75.667 4.267l3.433 9.138 6.67-7.129-.325 9.757 8.89-4.034-4.035 8.89 9.757-.325-7.129 6.67 9.139 3.433-9.139 3.433 7.129 6.67-9.757-.326 4.034 8.89-8.89-4.034.325 9.757-6.669-7.129-3.433 9.139-3.434-9.139-6.669 7.129.325-9.757-8.89 4.034 4.034-8.89-9.757.325 7.13-6.669-9.14-3.433 9.14-3.434-7.13-6.67 9.757.326L57 11.999l8.89 4.034-.325-9.757 6.67 7.129z"
		fill="#ffd300" fill-rule="evenodd" />
	<path d="M-.002 30.667h151.333v30.667H-.002z" fill="#0088bf" />
	<path d="M0 0v92h75.667l-69-92zm75.667 92h75.666V0h-6.666z" fill="#c40233" />
</svg>