<?xml version="1.0" encoding="UTF-8"?>
<!DOCTYPE xml>
<svg width="756.67" height="460" version="1.1" viewBox="0 0 151.33 92" xml:space="preserve" id="svg16"
	xmlns="http://www.w3.org/2000/svg">
	<path d="M -0.00199829,0 H 151.3314 V 92 H -0.00199829 Z" fill="#ffffff" id="path4" style="stroke-width:1.0472" />
	<path d="M -0.00199829,0 H 151.3314 V 46 H -0.00199829 Z" id="path6" style="stroke-width:1.0472" />
	<path d="m 75.666729,4.2666466 3.433499,9.1383354 6.669229,-7.1287259 -0.3249,9.7566839 8.889678,-4.033887 -4.033887,8.889678 9.756682,-0.3249 -7.128723,6.669229 9.138333,3.433599 -9.138333,3.433498 7.128723,6.66923 -9.756682,-0.3249 4.033887,8.889678 -8.889678,-4.033887 0.3249,9.756684 -6.669229,-7.128726 -3.433499,9.138335 -3.433499,-9.138335 -6.669229,7.128726 0.3249,-9.756684 -8.889678,4.033887 4.033887,-8.889678 -9.756684,0.3249 7.128726,-6.66923 -9.138335,-3.433598 9.138335,-3.433499 -7.128726,-6.669229 9.756684,0.3249 -4.033887,-8.889678 8.889678,4.033887 -0.3249,-9.7566839 6.669229,7.1287259 z" fill="#ffd300" fill-rule="evenodd" stroke-width="0.199564" id="path8" />
	<path d="M -0.00199829,30.667 H 151.3314 V 61.334 H -0.00199829 Z" fill="#0088bf" stroke-width="1.29674" id="path10" />
	<path d="m 0,0 v 92 h 6.6668 69 l -69,-92 z m 75.667,92 h 69 6.6664 V 0 h -6.6664 z" fill="#c40233" id="path12" />
</svg>
