<svg xmlns="http://www.w3.org/2000/svg" width="259.2" height="144">
    <rect width="259.2" height="36" fill="#FFED00"/>
    <rect width="259.2" height="36" y="36" fill="#FFF"/>
    <rect width="259.2" height="36" y="72" fill="#E51C20"/>
    <rect width="259.2" height="36" y="108" fill="#204B9B"/>
    <polygon points="0,0 123.5,72 0,144" fill="#189438"/>
    <path d="M 53.225,37.05448 A 35.8,35.8 0 1 0 53.225,106.94552 35.8,35.8 1 0 1 53.225,37.05448" fill="#FFF"/>
    <polygon points="53.225,42.4 55.16469133256516,46.33024391856267 59.50197300754802,46.96048783712535 56.363486503774006,50.01975608143733 57.10438266513032,54.339512162874655 53.225,52.3 49.34561733486968,54.339512162874655 50.086513496226,50.01975608143733 46.948026992451986,46.96048783712535 51.28530866743484,46.33024391856267"
             fill="#FFF"/>
    <polygon points="53.225,58.2 55.16469133256516,62.13024391856267 59.50197300754802,62.760487837125346 56.363486503774006,65.81975608143732 57.10438266513032,70.13951216287465 53.225,68.1 49.34561733486968,70.13951216287465 50.086513496226,65.81975608143732 46.948026992451986,62.760487837125346 51.28530866743484,62.13024391856267"
             fill="#FFF"/>
    <polygon points="53.225,74 55.16469133256516,77.93024391856267 59.50197300754802,78.56048783712534 56.363486503774006,81.61975608143732 57.10438266513032,85.93951216287465 53.225,83.9 49.34561733486968,85.93951216287465 50.086513496226,81.61975608143732 46.948026992451986,78.56048783712534 51.28530866743484,77.93024391856267"
             fill="#FFF"/>
    <polygon points="53.225,89.8 55.16469133256516,93.73024391856266 59.50197300754802,94.36048783712533 56.363486503774006,97.41975608143731 57.10438266513032,101.73951216287465 53.225,99.7 49.34561733486968,101.73951216287465 50.086513496226,97.41975608143731 46.948026992451986,94.36048783712533 51.28530866743484,93.73024391856266"
             fill="#FFF"/>
</svg>