<svg width="200" height="100" xmlns="http://www.w3.org/2000/svg">
    <rect width="200" height="100" fill="RGB(0 153 255)"/>
    <polygon points="53,0 153,0 153,100" fill="RGB(255 204 0)"/>
    <!-- CMYK to RBG because svg doesn't support CMYK-->
    <polygon
            points="34,-9.5 39.583959896778495,7.6856614465619995 24.96496309519604,-2.9356614465619986 43.03503690480396,-2.935661446562001 28.416040103221505,7.685661446562001"
            fill="#FFF"/>
    <polygon
            points="46.5,3 52.083959896778495,20.185661446562 37.46496309519604,9.564338553438002 55.53503690480396,9.564338553437999 40.916040103221505,20.185661446562"
            fill="#FFF"/>
    <polygon
            points="59,15.5 64.5839598967785,32.685661446562 49.96496309519604,22.064338553438002 68.03503690480396,22.064338553438 53.416040103221505,32.685661446562"
            fill="#FFF"/>
    <polygon
            points="71.5,28 77.0839598967785,45.185661446562 62.46496309519604,34.564338553438 80.53503690480396,34.564338553438 65.9160401032215,45.185661446562"
            fill="#FFF"/>
    <polygon
            points="84,40.5 89.5839598967785,57.685661446562 74.96496309519604,47.064338553438 93.03503690480396,47.064338553438 78.4160401032215,57.685661446562"
            fill="#FFF"/>
    <polygon
            points="96.5,53 102.0839598967785,70.185661446562 87.46496309519604,59.564338553438 105.53503690480396,59.564338553438 90.9160401032215,70.185661446562"
            fill="#FFF"/>
    <polygon
            points="109,65.5 114.5839598967785,82.685661446562 99.96496309519604,72.064338553438 118.03503690480396,72.064338553438 103.4160401032215,82.685661446562"
            fill="#FFF"/>
    <polygon
            points="121.5,78 127.0839598967785,95.185661446562 112.46496309519604,84.564338553438 130.53503690480395,84.564338553438 115.9160401032215,95.185661446562"
            fill="#FFF"/>
    <polygon
            points="134,90.5 139.5839598967785,107.685661446562 124.96496309519604,97.064338553438 143.03503690480395,97.064338553438 128.41604010322152,107.685661446562"
            fill="#FFF"/>
</svg>