<svg xmlns="http://www.w3.org/2000/svg" width="90" height="60">
    <rect width="90" height="60" fill="LAB(36.36762658192651 54.26321902725895 36.14875313529144)"/>
    <g transform="translate(45 30)">
        <g id="b">
            <g id="a" transform="rotate(24.8123169635717)">
                <path d="M 0,0 A 9,9 0 0 1 -5.1339657200675,-17.1811880544026 2.7811529493745215450320300978719781030489354021698212090928,2.7811529493745215450320300978719781030489354021698212090928 0 0 0 -4.3047861133174,-12.8395472679027 4.5,4.5 0 0 1 -2.7064068404013,-6.1291396216456 3.8504222279218158492297545554487609726965637657277429701293,3.8504222279218158492297545554487609726965637657277429701293 0 0 0 0,0"
                      fill="LAB(90.778373985 0 0)"/>
                <path d="M -6.7454497930672,-7.2917903084031 a 6.9617867,6.9617867 0 0 0 6.2762484,7.37543449 9,9 0 0 0 0.4692012,-0.0836442 6.848022,6.848022 0 0 1 -6.6311416,-7.26589899 1.575,1.575 0 0 1 -0.114308,-0.025891"
                      fill="LAB(36.36762658192651 54.26321902725895 36.14875313529144)"/>
                <polygon
                        points="-4.7802791260032996,-8.8146249084031 -7.6294808921438425,-7.888863136042454 -5.868577359862758,-10.312538921567966 -5.868577359862758,-7.316710895238234 -7.6294808921438425,-9.740386680763744"
                        fill="LAB(36.36762658192651 54.26321902725895 36.14875313529144)"/>
            </g>
            <use href="#a" transform="rotate(72)"/>
        </g>
        <use href="#b" transform="rotate(144)"/>
        <use href="#a" transform="rotate(288)"/>
    </g>
    <!-- xyY to LAB because svg doesn't support xyY-->
</svg>