<svg width="900" height="600" xmlns="http://www.w3.org/2000/svg">
    <rect width="900" height="600" fill="#254AA5"/>
    <path fill="#CFA550"
          d="m 454.41418,190.75978 c 3.20329,4.03396 5.87311,8.06806 5.87311,13.11061 -3.20365,1.51287 -7.47475,2.01717 -9.61073,4.53839 14.41591,-2.01692 17.61945,15.12778 33.63701,8.5726 1.06755,2.52121 3.20328,4.53838 6.40682,3.52979 l 1.60164,-4.53838 c 6.40708,-2.01717 4.80518,8.57235 11.7461,6.55556 3.20353,3.02538 1.0678,8.06806 3.20353,11.59773 0,4.03397 2.13573,7.56377 3.73738,11.09344 1.60152,-2.01679 2.66944,-5.04231 6.9409,-4.03397 3.20354,3.02576 5.3389,6.05114 5.87299,9.58094 -1.06781,6.55543 -2.66945,12.60669 4.27146,16.13636 v 2.0168 c 4.80518,2.0173 14.94938,-2.0168 14.94938,6.05126 -0.53384,3.02576 3.20391,0.5043 4.27134,2.01717 3.20366,-1.00858 6.94091,-0.50429 10.67866,-0.50429 2.66944,6.05127 -3.73775,10.58953 -5.33927,16.13649 2.66945,3.02538 1.60152,8.06794 1.0678,11.59774 l -1.60189,1.0082 c 4.27135,1.0086 10.14445,-0.50391 14.41554,2.01718 l 7.475,3.02576 c 3.73775,-2.01718 8.00871,-2.52147 12.27981,-2.01718 3.73775,2.52122 -1.06743,7.05948 2.1361,9.07665 3.73738,0 7.47463,0.50429 8.00847,4.03409 l 0.53409,1.00859 c 3.20354,-5.04268 11.212,-1.51288 14.94963,-5.54697 5.87273,0 6.94066,6.55555 9.61048,10.08523 1.0678,9.07664 -9.61048,13.1106 -6.4072,22.18726 -2.13573,4.53838 -6.94091,8.06843 -10.14419,12.10239 1.06755,0.5043 0.53384,2.01692 0.53384,3.02551 -3.73738,2.01717 -0.53384,8.06806 -5.33902,8.57235 -0.53409,4.03397 -8.00872,2.52146 -5.33928,6.55544 4.80519,6.05088 -2.66944,10.08522 -2.66944,15.63219 -2.66982,3.02538 -8.54293,-3.02589 -8.54293,3.02538 -3.73725,1.00821 -6.94091,-3.02538 -9.61036,0.50429 -1.0678,4.03397 2.66945,5.54697 2.13574,9.58094 5.87297,-0.50429 7.47462,5.0423 9.61035,8.57198 l 5.87311,6.05151 c -5.87311,4.53838 -13.34811,-0.50467 -20.28864,2.01692 -1.60164,-1.00858 0,-3.0255 -1.60164,-4.03409 -2.13574,-2.01717 -5.33928,-2.01717 -8.54294,-2.52146 0.53422,2.52146 -4.27096,3.53005 -2.13561,6.55555 0,1.00858 1.06781,3.52968 -1.06755,3.52968 -4.80556,1.51288 -4.27147,-4.03397 -8.54293,-2.0168 -5.33927,2.0168 -1.0678,10.08523 -8.54243,9.07664 1.06781,7.05936 -11.74609,11.59774 -3.20366,17.64888 1.60164,1.51262 0.53409,3.52979 1.06793,5.54697 -5.3394,4.53826 -14.94975,3.02538 -20.82274,1.00858 -4.80517,-1.00858 -1.60164,-7.05985 -3.73737,-10.08523 -1.60201,-3.02576 -6.94091,-5.04255 -6.94091,-9.07664 -3.20353,-1.51288 -6.4072,-2.52146 -8.54255,-5.54684 -8.54281,8.06792 -18.15317,15.63207 -29.89939,16.13598 -5.33889,2.52147 -8.00834,13.11099 -16.55127,8.57273 -3.20353,5.54684 -12.81389,0 -13.34798,7.56376 -3.73737,1.51288 -2.13548,6.55519 -4.27109,9.07666 -1.06793,5.54684 0,10.58952 4.80518,14.11919 2.13573,4.53826 -4.27146,4.53826 -1.60202,8.57235 0.53409,1.51288 0,3.52968 -1.06755,4.03397 -1.60189,1.00858 -2.13561,2.01717 -1.60189,3.53018 -1.60165,0 -2.13537,1.00858 -3.20329,2.01679 -1.6019,3.02538 -6.40708,4.53825 -9.61073,6.55543 -3.20317,1.00833 -5.3389,-1.51288 -7.47463,-3.53005 -0.53409,3.02575 -3.20354,5.04267 -6.40682,5.04267 -4.80556,0 -3.73763,-4.03409 -7.475,-6.05088 1.60164,-5.04268 -3.20329,-7.56414 -1.60165,-12.1024 3.73738,-3.02538 10.14457,-5.04268 8.54256,-11.09344 -4.27147,-5.04268 -2.66945,-12.60669 -6.94091,-18.15367 -2.66946,-2.52108 -6.94092,-6.05088 -5.33928,-11.59773 3.73763,-4.53838 0,-9.58094 -2.13535,-14.11932 -1.06793,-4.03397 -3.20366,-7.56364 -3.20366,-12.1024 -6.40707,-3.52968 -6.94092,-13.61491 -16.01756,-14.62349 -6.4067,0 -7.47462,-8.06769 -13.88182,-7.56377 -0.53372,-1.00821 -2.13535,-2.01679 -3.20316,-3.02538 -4.80556,3.02538 -10.67829,-1.00859 -16.55165,0.50429 -3.73737,-6.55556 3.20354,-15.1279 -6.94091,-19.16187 v -4.03397 c 1.06818,0.5043 1.60189,-0.50429 2.13611,-1.00858 0.53372,-4.53838 -7.47513,-5.04268 -4.27147,-10.08523 -1.60201,-1.51263 -3.73738,-2.01693 -2.66982,-5.04231 -4.27109,-9.07701 -17.6192,-8.06843 -20.28864,-17.14507 2.13573,-2.0168 2.13573,-4.03397 3.20353,-6.05114 -2.13573,-3.5298 -2.66982,-7.05948 -2.13573,-11.09344 2.13573,-0.5043 3.20366,-3.02588 4.27146,-5.04268 -2.66982,-2.01717 -5.87298,-4.53826 -8.5428,-3.53005 -5.33902,-1.00821 -9.07627,-5.0423 -13.88157,-7.56376 -1.06818,-1.00859 -0.53409,-3.02538 -0.53409,-4.53826 6.40682,-2.01692 -1.06781,-11.09382 6.94091,-10.08524 2.13573,-2.5212 6.4072,-3.5298 9.61035,-5.54696 3.20367,-0.50392 5.87311,0.50466 9.07665,1.51288 2.66957,3.5298 7.47513,2.01716 10.14457,5.04268 2.66945,-0.5043 5.87261,-2.01718 9.07665,-0.5043 0,-5.04268 2.13536,-8.06806 5.8726,-11.59786 0.53409,-2.01717 3.73776,-3.53005 6.4072,-4.53863 4.80518,1.00858 10.67829,1.00858 14.41554,-2.52109 2.13574,1.51288 4.27147,-1.5125 6.94091,-1.5125 3.20366,-0.50467 5.87311,0.50391 8.00885,2.01679 0.53409,-6.05126 10.67816,-1.00859 12.81389,-8.06806 2.13573,-4.53864 -6.40707,-6.55543 -5.87298,-10.58952 -1.60165,-4.53826 2.13573,-7.05947 3.73725,-10.08523 2.13573,-1.00821 4.27146,-2.01679 6.94091,-1.51287 6.94091,-2.5211 1.60164,-16.13612 12.27993,-11.09344 0,1.51287 -0.53372,3.02538 0.53409,3.52966 3.73737,0 4.27146,-4.53826 6.94091,-6.05113 1.0678,-4.03409 -1.60165,-9.07665 2.13573,-12.10215 1.60164,-0.50429 3.20353,-1.00859 4.27147,-2.52109 0,-3.02576 -1.60203,-5.04255 -4.27147,-7.05972 -1.06793,1.51287 -3.20353,0.50429 -4.80518,1.00858 0,-3.5298 -2.13573,-6.05126 -2.66945,-9.07664 -1.60201,-1.00859 -2.66982,-2.52146 -2.1361,-4.53838 2.66982,-2.52147 0,-9.07666 6.4072,-7.56402 2.1356,-2.01692 6.40706,-0.5043 8.54243,-4.0341 6.40719,-3.52967 14.41591,-3.52967 19.22121,-10.08485 2.13561,0.50392 4.27109,-1.51288 6.40669,0 0.53423,4.03397 5.87311,2.52109 6.4072,6.05089"/>
    <polygon id="s" fill="#FFF"
             points="316.295,175.241 339.673,106.837 360.907,175.401 301.782,133.636 376.678,133.636 "
             transform="matrix(0.93897617,0,0,0.93897617,5.869796,0.52947101)"/>
    <use href="#s" x="83.040397" y="-17.3575"/>
    <use href="#s" x="-78.018898" y="24.9"/>
    <polygon id="t" fill="#FFF"
             points="620.765,169.347 597.388,100.943 576.153,169.508 635.278,127.743 560.382,127.743 "
             transform="matrix(0.93897617,0,0,0.93897617,5.869796,0.52947101)"/>
    <use href="#t" x="-84.2053" y="-11.4641"/>
    <use href="#t" x="86.402298" y="23.4069"/>
</svg>
