<svg width="700" height="500" fill-rule="evenodd" version="1.1" xmlns="http://www.w3.org/2000/svg">
	<path d="M0 0h700v500H0z" fill="#fff" />
	<g clip-rule="evenodd" image-rendering="optimizeQuality" shape-rendering="geometricPrecision">
		<path
			d="M349.996 62.135h-3.13v7.94h-3.284v-7.94h-9.238v7.94h-3.36v-7.94h-9.315v14.43l4.352 3.97v27.946c-4.199.305-8.322.687-12.445 1.221l1.45 10.537-5.344.763-1.527-10.613a232.601 232.601 0 00-14.583 2.52l2.214 10.613-5.345 1.145-2.214-10.689c-.458.153-.992.23-1.527.382l-6.032-25.35 1.833-8.016c-1.07-4.658-2.673-9.086-3.742-13.82-3.97.993-8.093 2.062-12.14 3.207l2.52 8.017-3.588 1.222-2.596-8.17c-4.658 1.374-9.315 2.825-13.896 4.428l2.672 8.246-3.665 1.222-2.596-8.17a285.225 285.225 0 00-12.14 4.581c1.298 4.658 2.901 9.086 4.581 13.744l5.88 5.497 8.169 23.975a136.423 136.423 0 00-9.162 3.817c1.832 4.887 3.588 9.315 5.726 14.125 1.298 2.75 5.803 4.2 6.872 7.025 2.672 7.177 4.963 15.728 7.406 23.21-1.45.459-3.589 1.222-5.803 2.062 1.298 3.436 2.214 6.108 3.512 9.544 29.701-10.384 60.242-14.125 89.485-14.354 29.166.23 59.707 3.97 89.484 14.354 1.298-3.436 2.215-6.108 3.513-9.544-2.291-.84-4.352-1.603-5.803-2.061 2.443-7.483 4.734-16.034 7.406-23.211.993-2.825 5.574-4.276 6.795-7.025 2.215-4.81 3.97-9.238 5.803-14.125-3.054-1.374-6.108-2.672-9.239-3.817l8.17-23.975 5.956-5.497c1.68-4.658 3.206-9.086 4.58-13.744a392.84 392.84 0 00-12.14-4.58l-2.595 8.169-3.665-1.222 2.672-8.246a324.923 324.923 0 00-13.896-4.428l-2.596 8.17-3.665-1.222 2.596-8.017a414.41 414.41 0 00-12.216-3.207c-.993 4.734-2.672 9.162-3.665 13.82l1.832 8.017-6.108 25.349c-.458-.153-.992-.23-1.527-.382l-2.214 10.69-5.268-1.146 2.214-10.613a234.987 234.987 0 00-14.66-2.52l-1.45 10.613-5.421-.763 1.527-10.537c-4.123-.534-8.323-.916-12.446-1.221V80.536l4.352-3.97V62.135h-9.39v7.94h-3.284v-7.94h-9.239v7.94h-3.36v-7.94zm0 97.349c-3.894.076-7.635.153-11.453.229v-14.049c0-1.832.535-3.588 1.374-5.04.535-.992.993-1.45.993-1.45a10.137 10.137 0 017.788-3.665h2.596c3.054 0 5.879 1.451 7.788 3.665 0 0 .458.458.992 1.45.84 1.452 1.375 3.208 1.375 5.04v14.049l-11.453-.23z" />
		<path
			d="M261.122 183.458c28.098-9.696 57.57-13.743 87.194-14.125h3.36c29.624.382 59.096 4.429 87.194 14.125a293.978 293.978 0 002.672-7.482 157.816 157.816 0 00-12.827-4.276 265.846 265.846 0 00-31.915-7.33c-15.423-2.443-30.77-3.512-46.804-3.588-16.034.076-31.38 1.145-46.88 3.588-10.46 1.756-21.073 4.123-31.84 7.33a150.154 150.154 0 00-12.903 4.276c.917 2.443 1.833 5.04 2.75 7.482zm-3.894-83.376l3.589 11.071-3.589 1.145-3.588-11.07zm15.27-4.581l3.36 11.07-3.588 1.146-3.36-11.147zm88.416-8.78h3.741v11.605h-3.74zm-25.654 0H339v11.605h-3.741zm12.827 0h3.741v11.605h-3.74zm94.677 13.36l-3.589 11.072 3.589 1.145 3.512-11.07zm-15.27-4.58l-3.36 11.07 3.588 1.146 3.36-11.147zm-157.668 48.102a199.49 199.49 0 00-13.896 5.039c.23.305.382.61.458.916.764 1.985 1.451 4.047 2.138 6.108 4.505-1.68 9.01-3.283 13.514-4.657zm16.721-4.658a305.912 305.912 0 00-15.5 4.276l2.139 7.406a255.261 255.261 0 0114.965-4.123zm19.546-3.894c-2.214.382-4.352.764-6.49 1.145a295.34 295.34 0 00-11.834 2.52l1.603 7.559c4.123-.993 8.323-1.909 12.522-2.672l5.04-.917zm15.195-1.985a218.656 218.656 0 00-13.973 1.832l.84 7.636c4.505-.764 9.01-1.375 13.514-1.833zm13.437-1.145c-4.046.229-8.17.534-12.216.992l.458 7.636c2.367-.23 4.81-.459 7.254-.611.84-3.054 2.367-5.803 4.504-8.017zm-70.32 22.905c-1.832.611-3.665 1.298-5.497 1.985.687 2.291 1.374 4.505 2.061 6.796 1.833-.611 3.665-1.222 5.498-1.756zm15.805-4.963a247.903 247.903 0 00-14.583 4.582l2.061 7.024a215.839 215.839 0 0114.43-4.047zm17.027-4.123c-5.345 1.146-10.613 2.367-15.805 3.818l1.909 7.559a284.014 284.014 0 0115.194-3.207zm17.026-2.9c-4.047.61-8.093 1.22-12.14 1.984l-3.665.687 1.298 8.17c1.07-.153 2.138-.382 3.207-.534 4.047-.688 8.093-1.222 12.14-1.68zm15.652-1.68c-4.81.381-9.62.916-14.354 1.526l.764 8.628c4.428-.458 8.78-.84 13.209-1.145v-5.497c0-1.146.152-2.367.381-3.513zm-54.973 19.47a248.968 248.968 0 00-13.59 4.122 241.108 241.108 0 002.442 7.94c4.582-1.45 9.086-2.824 13.515-4.046zm15.347-3.819a272.734 272.734 0 00-14.202 3.436l2.443 8.094c4.582-1.146 9.086-2.215 13.515-3.13zm17.79-3.206c-1.604.229-3.284.534-4.963.763-3.818.611-7.712 1.375-11.606 2.138l1.756 8.399c3.283-.611 6.49-1.222 9.697-1.756 1.985-.306 4.047-.611 6.108-.917zM322.356 152c-4.352.382-8.704.84-12.98 1.451l.917 8.628c4.2-.535 8.322-.993 12.522-1.375zm7.178-.61l-5.956.458.458 8.78 5.498-.458zm-2.291-51.92v19.546h.305l5.421-.382v-10.612c3.054-.153 6.185-.23 9.239-.306V99.47h-8.093zm12.903-1.222h6.796v-7.482h-6.796zm-12.903-7.482v7.482h6.872v-7.482zm0-9.697v8.475h6.872v-3.97h6.031v3.97h2.062V81.07zm-41.765 33.519l-2.061-8.552a263.128 263.128 0 00-16.34 4.734l2.444 8.094 3.13 10.46 5.192-1.527-3.13-10.46a278.155 278.155 0 0110.765-2.75zm-35.045 1.985l6.184 18.172 4.963-1.833-3.741-10.155c3.436-1.297 6.948-2.443 10.46-3.512l-2.443-8.093c-5.192 1.68-10.308 3.512-15.423 5.421zm26.57-10.078c2.062-.611 4.123-1.146 6.185-1.68l-2.062-8.475c-2.214.534-4.428 1.145-6.642 1.756zm-15.041 4.58c1.603-.457 3.13-.992 4.734-1.526 1.45-.459 2.978-.917 4.505-1.375l-2.52-8.322c-1.45.382-2.901.84-4.276 1.298-1.68.534-3.436 1.145-5.115 1.68zm-14.736-3.893l2.825 8.17c2.062-.764 4.123-1.528 6.261-2.291l-2.672-8.246c-2.138.763-4.276 1.527-6.414 2.367zm16.568-7.101l.23-.076c1.45-.459 2.825-.917 4.275-1.375l-.84-2.825 5.803-1.756.84 2.902c2.214-.611 4.505-1.222 6.719-1.833l-1.222-5.192c-5.344 1.45-10.613 2.978-15.805 4.658-.534.152-.992.305-1.527.458zm-18.63.993l1.68 4.886c2.138-.763 4.276-1.527 6.414-2.367l-1.07-3.054 5.804-1.909.916 2.978c1.222-.382 2.443-.764 3.741-1.145l-1.527-5.04c-5.42 1.757-10.69 3.665-15.957 5.65zm-5.497-5.65l4.963 4.58a339.504 339.504 0 0118.783-6.642c5.268-1.68 10.689-3.283 16.034-4.658l1.527-6.566c-6.643 1.68-13.286 3.589-19.928 5.65-7.177 2.29-14.354 4.887-21.379 7.635zm-4.81-12.904c1.145 3.97 2.596 7.94 4.047 11.91a320.18 320.18 0 0121.836-7.787c6.72-2.214 13.591-4.123 20.463-5.803-.993-4.123-2.367-8.093-3.36-12.14-3.207.84-6.413 1.68-9.696 2.52l2.595 8.017-6.031 1.985-2.596-8.246a335.247 335.247 0 00-11.53 3.665l2.673 8.322-5.956 1.985-2.596-8.17c-3.359 1.146-6.642 2.444-9.849 3.742zm115.139 36.954h5.192v-10.689c3.588 0 7.177.153 10.69.305v10.537l7.558.535h.534V109.55c3.742.305 7.483.61 11.224 1.069l-1.45 10.536 7.482 1.069 1.45-10.613c4.2.61 8.323 1.298 12.446 2.138l-2.214 10.613 7.406 1.527 2.214-10.613c3.818.84 7.635 1.756 11.377 2.825l-3.13 10.384 7.253 2.138 3.13-10.384c3.207.992 6.414 1.985 9.62 3.13l-3.817 10.155 7.1 2.672 3.818-10.154c2.672 1.069 5.345 2.137 7.94 3.283a213.913 213.913 0 01-4.657 11.529c-6.184-2.367-12.674-4.581-19.011-6.566-9.315-2.825-18.172-5.192-25.12-6.567-9.926-2.061-19.775-3.435-29.701-4.275-9.01-.764-18.02-1.146-27.334-1.222-9.315.076-18.401.458-27.334 1.222-9.926.84-19.775 2.214-29.701 4.275-6.948 1.375-15.881 3.742-25.12 6.567a352.094 352.094 0 00-19.088 6.566 213.913 213.913 0 01-4.657-11.53c2.672-1.145 5.344-2.213 8.017-3.282l3.74 10.154 7.102-2.672-3.742-10.155c3.207-1.145 6.414-2.138 9.62-3.13l3.131 10.384 7.254-2.138-3.13-10.384c3.74-1.069 7.558-1.985 11.3-2.825l2.29 10.613 7.406-1.527-2.29-10.613c4.199-.84 8.322-1.527 12.521-2.138l1.45 10.613 7.483-1.069-1.45-10.536c3.74-.459 7.482-.764 11.223-1.07v10.614h.458l7.56-.535v-10.537c3.588-.152 7.176-.305 10.765-.305v10.69zm0 3.97c9.238.077 18.248.459 27.181 1.222 9.926.917 19.699 2.29 29.625 4.276 6.871 1.374 15.728 3.665 24.967 6.566a291.612 291.612 0 0118.935 6.49l-.229.458c-.916 1.985-3.818 3.207-5.65 5.116-13.743-5.497-28.708-9.697-44.208-12.598-12.14-2.29-24.509-3.741-36.801-4.429-3.207-2.672-7.407-4.352-11.911-4.352h-3.894c-4.505 0-8.628 1.68-11.835 4.352-12.293.688-24.738 2.138-36.802 4.429-15.499 2.901-30.54 7.1-44.207 12.598-1.833-1.909-4.734-3.13-5.65-5.116l-.23-.458a276.673 276.673 0 0118.936-6.49c9.238-2.901 18.095-5.192 24.967-6.566 9.85-1.985 19.699-3.36 29.548-4.276 9.01-.763 18.02-1.145 27.258-1.221zm80.17 20.158a199.49 199.49 0 0113.896 5.039c-.23.305-.382.61-.535.916-.687 1.985-1.374 4.047-2.061 6.108-4.505-1.68-9.01-3.283-13.515-4.657zm-16.722-4.658a305.912 305.912 0 0115.5 4.276l-2.214 7.406a270.349 270.349 0 00-14.889-4.123zm-19.546-3.894c2.138.382 4.352.764 6.49 1.145 3.97.764 7.94 1.604 11.835 2.52l-1.604 7.559c-4.199-.993-8.322-1.909-12.521-2.672l-5.04-.917zm-15.194-1.985c4.658.458 9.315 1.069 13.973 1.832l-.84 7.636a200.421 200.421 0 00-13.59-1.833zm-13.514-1.145c4.123.229 8.17.534 12.293.992l-.459 7.636c-2.443-.23-4.81-.459-7.253-.611a18.699 18.699 0 00-4.581-8.017zm70.32 22.905c1.909.611 3.741 1.298 5.574 1.985a233.386 233.386 0 00-2.138 6.796c-1.833-.611-3.665-1.222-5.421-1.756zm-15.728-4.963a247.903 247.903 0 0114.583 4.582l-2.062 7.024c-4.886-1.527-9.696-2.901-14.507-4.047zm-17.027-4.123c5.268 1.146 10.537 2.367 15.805 3.818l-1.909 7.559a284.014 284.014 0 00-15.194-3.207zm-17.103-2.9c4.123.61 8.17 1.22 12.217 1.984l3.664.687-1.374 8.17c-.992-.153-2.061-.382-3.13-.534-4.047-.688-8.094-1.222-12.14-1.68zm-15.576-1.68c4.81.381 9.62.916 14.355 1.526l-.764 8.628c-4.428-.458-8.857-.84-13.285-1.145v-5.497c0-1.146-.077-2.367-.306-3.513zm54.974 19.47a248.968 248.968 0 0113.59 4.122c-.84 2.672-1.603 5.345-2.443 7.94-4.58-1.45-9.086-2.824-13.59-4.046zm-15.423-3.819a240.09 240.09 0 0114.201 3.436l-2.367 8.094c-4.58-1.146-9.086-2.215-13.59-3.13zm-17.79-3.206c1.68.229 3.36.534 4.963.763 3.894.611 7.788 1.375 11.681 2.138l-1.832 8.399c-3.207-.611-6.414-1.222-9.62-1.756-2.062-.306-4.047-.611-6.108-.917zM377.635 152c4.352.382 8.628.84 12.98 1.451l-.916 8.628c-4.2-.535-8.399-.993-12.598-1.375zm-7.253-.61c1.985.152 4.046.305 6.032.458l-.535 8.78-5.497-.458zm-20.386-23.899h1.909c9.467 0 17.255 7.712 17.255 17.18v15.423c-2.138-.077-4.352-.23-6.49-.306v-14.125c0-6.26-5.115-11.453-11.376-11.453h-2.596c-6.261 0-11.377 5.192-11.377 11.453v14.125c-2.214.077-4.352.23-6.49.306v-15.423c0-9.468 7.712-17.18 17.18-17.18zm0-28.02h6.49v8.245h-2.367v10.69h-8.246v-10.69h-2.443V99.47h3.512zm22.676 0v19.545h-.305l-5.421-.382v-10.612c-3.054-.153-6.108-.23-9.162-.306V99.47h8.017zm-12.903-1.223h-6.795v-7.482h6.795zm12.903-7.482v7.482h-6.871v-7.482zm-16.186-1.222h-3.512v-3.97h-6.032v3.97h-3.512V81.07h13.056zm16.186-8.475v8.475h-6.871v-3.97h-6.032v3.97h-1.985V81.07zm4.2-4.886l-3.97 3.588H327.09l-4.046-3.588h26.952zm37.565 38.405l2.061-8.552c5.498 1.375 10.995 2.978 16.416 4.734l-2.443 8.094-3.13 10.46-5.269-1.527 3.13-10.46c-3.512-.993-7.1-1.91-10.765-2.75zm35.046 1.985l-6.185 18.172-4.963-1.833 3.818-10.155c-3.512-1.297-7.025-2.443-10.537-3.512l2.443-8.093c5.269 1.68 10.384 3.512 15.424 5.421zm-26.495-10.078c-2.061-.611-4.123-1.146-6.184-1.68l2.061-8.475c2.215.534 4.429 1.145 6.643 1.756zm14.965 4.58c-1.527-.457-3.13-.992-4.657-1.526-1.527-.459-2.978-.917-4.505-1.375l2.52-8.322c1.374.382 2.825.84 4.275 1.298 1.68.534 3.36 1.145 5.04 1.68zm14.736-3.893l-2.748 8.17c-2.062-.764-4.2-1.528-6.261-2.291l2.672-8.246c2.138.763 4.276 1.527 6.337 2.367zm-16.492-7.101l-.229-.076-4.352-1.375.916-2.825-5.802-1.756-.917 2.902-6.642-1.833 1.221-5.192c5.269 1.45 10.613 2.978 15.805 4.658.535.152.993.305 1.451.458zm18.554.993l-1.604 4.886c-2.137-.763-4.275-1.527-6.413-2.367l.992-3.054L442 98.631l-.993 2.978-3.664-1.145 1.527-5.04a354.787 354.787 0 0115.88 5.65zm5.497-5.65l-4.886 4.58c-6.109-2.366-12.446-4.58-18.783-6.642-5.345-1.68-10.69-3.283-16.034-4.658l-1.527-6.566c6.643 1.68 13.285 3.589 19.852 5.65 7.253 2.29 14.43 4.887 21.378 7.635zm4.887-12.904c-1.222 3.97-2.596 7.94-4.047 11.91-7.1-2.824-14.43-5.42-21.837-7.787a281.945 281.945 0 00-20.462-5.803c.916-4.123 2.29-8.093 3.283-12.14 3.283.84 6.49 1.68 9.697 2.52l-2.52 8.017 5.956 1.985 2.672-8.246a331.43 331.43 0 0111.453 3.665l-2.596 8.322 5.955 1.985 2.596-8.17c3.283 1.146 6.567 2.444 9.85 3.742zm-115.14-19.164h2.215v7.635h5.04v-7.635h7.482v7.635h5.115v-7.635h7.254v11.605h-54.21V63.357h7.253v7.635h5.04v-7.635h7.482v7.635h5.116v-7.635z"
			fill="#bebebe" />
		<path
			d="m346.26 434.66c-15.042-12.903-33.672-19.927-51.92-26.875-16.644-6.414-35.962-13.515-48.025-27.182-9.391-10.69-12.98-23.44-12.98-37.489v-158.28h233.33v158.28c0 14.05-3.589 26.8-12.98 37.49-12.064 13.666-31.38 20.767-48.026 27.18-18.248 6.949-36.954 13.973-51.919 26.876l-3.741 3.207z"
			fill="#eba904" />
		<path
			d="m350 430.3c-42.452-36.42-110.94-27.868-110.94-87.194v-152.55h221.88v152.55c0 59.326-68.488 50.774-110.94 87.194z"
			fill="#1d9add" />
		<path
			d="m350 430.3c-42.452-36.42-110.94-27.868-110.94-87.194v-20.157l62.075-33.213 7.864-47.109 29.472-7.33 2.977-0.763 0.306-5.65h16.492l0.305 5.65 2.978 0.763 29.472 7.33 7.788 47.11 62.15 33.212v20.157c0 59.326-68.487 50.774-110.94 87.194z"
			fill="#fff" />
		<path
			d="M398.937 377.774c4.429.153 7.636 1.222 10.842 2.29 4.353 1.451 3.97 1.451 8.246 0 3.513-1.145 6.949-2.29 11.911-2.29 1.833 0 3.436.153 4.963.382.458 2.901.84 5.726 1.146 8.399l.076 1.145c-.23.153-.535.382-.84.534a19.204 19.204 0 00-5.345-.763c-3.435 0-6.108.916-8.78 1.832-7.1 2.367-7.33 2.367-14.43 0-2.673-.916-5.269-1.756-8.628-1.832.152-3.207.458-6.49.84-9.697zm-113 20.539c.992.076 1.985-.306 4.199-1.07 3.512-1.144 6.948-2.29 11.91-2.29h.077c0 3.284 0 6.49-.153 9.62-5.497-2.137-10.842-4.122-16.033-6.26zm49.705-3.283c4.046.152 7.1 1.221 10.23 2.214 4.277 1.45 3.895 1.45 8.247 0 3.13-.993 6.108-2.062 10.231-2.214-4.276 7.1-9.086 14.048-14.354 19.317-5.268-5.269-10.079-12.217-14.354-19.317zm62.227-.077h.076c4.963 0 8.322 1.146 11.834 2.29 2.291.764 3.207 1.146 4.276 1.07-5.192 2.138-10.613 4.123-16.034 6.26-.152-3.13-.229-6.336-.152-9.62zm-117.735-49.781c.61.153 1.221.382 1.756.534 3.741 1.298 3.97 1.451 6.795.535 2.52 1.985 4.505 5.192 6.032 8.17-.534.152-.993.381-1.45.534-7.101 2.367-7.407 2.367-14.431 0-1.909-.687-3.818-1.298-6.032-1.603 1.603-2.902 4.123-6.49 7.33-8.17zm131.173 1.069c2.825.916 2.977.763 6.718-.535.611-.152 1.222-.381 1.833-.534 3.13 1.68 5.726 5.268 7.253 8.17-2.137.305-4.046.916-5.955 1.603-7.1 2.367-7.33 2.367-14.43 0-.459-.153-.993-.382-1.451-.535 1.45-2.977 3.512-6.184 6.032-8.17zM269.52 360.595h.534c4.963 0 8.323 1.145 11.835 2.29 4.352 1.451 3.97 1.451 8.246 0 2.29-.763 4.581-1.527 7.253-1.908.993 2.977 1.756 6.184 2.444 9.467-2.444.306-4.505.993-6.567 1.68-7.1 2.367-7.406 2.367-14.43 0-2.673-.916-5.345-1.832-8.78-1.832-1.222 0-2.368.152-3.437.305a84.063 84.063 0 012.902-10.002zm48.789 3.36c.84 0 1.832-.382 3.817-1.07 3.513-1.145 6.948-2.29 11.835-2.29 4.963 0 8.399 1.145 11.91 2.29 4.277 1.451 3.895 1.451 8.247 0 3.512-1.145 6.948-2.29 11.834-2.29 4.963 0 8.4 1.145 11.911 2.29 1.91.688 2.902 1.07 3.818 1.07-1.756 3.054-3.36 6.031-4.887 8.78-.61-.153-1.298-.382-2.061-.61-2.672-.917-5.345-1.833-8.78-1.833s-6.032.916-8.781 1.832c-7.024 2.367-7.33 2.367-14.354 0-2.749-.916-5.345-1.832-8.857-1.832-3.436 0-6.032.916-8.78 1.832-.688.23-1.375.458-1.986.61-1.527-2.748-3.206-5.725-4.886-8.78zm84.292-2.978c2.673.381 4.887 1.145 7.177 1.909 4.353 1.45 3.97 1.45 8.246 0 3.513-1.146 6.949-2.291 11.911-2.291h.459a72.06 72.06 0 012.977 10.002c-1.069-.153-2.214-.305-3.436-.305-3.435 0-6.108.916-8.78 1.832-7.1 2.367-7.33 2.367-14.43 0-2.062-.687-4.124-1.374-6.567-1.68.61-3.283 1.45-6.49 2.443-9.467zm-137.51 17.179c1.527-.23 3.13-.382 4.963-.382 4.963 0 8.323 1.145 11.835 2.29 4.352 1.451 3.97 1.451 8.246 0 3.283-1.068 6.49-2.137 10.842-2.29.458 3.207.687 6.49.916 9.697-3.436.076-6.032.916-8.628 1.832-7.1 2.367-7.406 2.367-14.43 0-2.673-.916-5.345-1.832-8.78-1.832-1.986 0-3.742.305-5.345.763-.306-.152-.611-.381-.917-.534l.153-1.145c.306-2.673.687-5.498 1.145-8.4zm61.387.61c2.215-.61 4.582-.992 7.483-.992 4.963 0 8.399 1.145 11.91 2.29 4.277 1.451 3.895 1.451 8.247 0 3.512-1.145 6.948-2.29 11.834-2.29 2.978 0 5.345.382 7.56.993-1.528 2.825-3.208 5.802-4.887 8.933-.84-.153-1.756-.23-2.673-.23-3.435 0-6.031.917-8.78 1.833-7.024 2.367-7.33 2.367-14.354 0-2.749-.916-5.345-1.832-8.857-1.832-.916 0-1.756.076-2.596.229-1.756-3.13-3.36-6.108-4.887-8.933z"
			fill="#0971ce" fill-rule="nonzero" />
		<path
			d="M349.996 417.554c9.85-9.01 18.095-24.204 26.418-39.322 8.627-15.728 17.255-31.457 27.334-39.855 7.1-5.956 16.72-4.887 26.341-3.818 9.162 1.069 18.325 2.061 25.96-2.672 1.909-1.146 1.145-3.054-.916-1.833-4.2 2.672-8.705 3.741-13.897 3.665-4.046-20.462-18.324-22.295-20.767-1.756-3.894-.076-8.857.61-12.37 1.756l-7.634-43.062 60.47 32.296v20.157c0 2.902-.152 5.65-.534 8.246-2.367-11.681-12.75-6.413-12.75 7.254v20.08c-2.75 2.825-5.88 5.345-9.316 7.636-7.711-67.801-45.658-55.127-42.604 19.088-2.596.992-5.192 2.061-7.865 3.13v-4.123c0-10.918-3.435-14.354-6.795-13.82-3.207.535-6.413 4.581-6.413 12.904v10.994c-8.705 4.276-17.103 9.315-24.662 15.805-7.559-6.49-15.958-11.529-24.662-15.805v-10.994c0-8.323-3.207-12.37-6.413-12.904-3.436-.534-6.872 2.902-6.872 13.82v4.123c-2.596-1.069-5.192-2.138-7.788-3.13 3.054-74.215-34.893-86.889-42.604-19.088-3.436-2.291-6.567-4.81-9.392-7.636v-20.08c0-13.667-10.384-18.935-12.75-7.254a70.646 70.646 0 01-.459-8.246v-20.157l60.395-32.296-7.559 43.062c-3.512-1.145-8.551-1.832-12.369-1.756-2.52-20.539-16.721-18.706-20.768 1.756-5.192.076-9.696-.993-13.896-3.665-2.061-1.221-2.825.687-.916 1.833 7.635 4.733 16.797 3.74 25.96 2.672 9.62-1.069 19.164-2.138 26.341 3.818 10.079 8.398 18.706 24.127 27.334 39.855 8.322 15.118 16.568 30.312 26.418 39.322zm-8.093-191.568l-.459 8.552-4.428 1.069-1.832 11.605h29.624l-1.909-11.605-4.352-1.07-.458-8.55h2.825v-21.914l-10.918-7.864-10.918 7.864v21.913zm8.093 2.902h-5.803v-2.902h11.53v2.902zm-43.139 26.647l26.265-6.567-19.012 106.97c-.992-.611-1.832-1.451-2.596-2.596-4.275-6.414-8.78-11.988-13.667-16.11a25.4 25.4 0 00-4.428-2.826c4.505-25.807 9.239-53.064 13.438-78.871zm27.792-6.567h30.617l19.165 107.81c-5.498 1.068-9.315-2.444-17.867-2.978-6.719-.458-10.842 3.206-16.568 3.206-5.345 0-9.239-3.13-15.041-3.206.076-2.902-.23-6.185-.23-8.4 0-2.442 1.146-1.297 1.604-4.198.229-1.757 2.214-.917 3.13-1.833 1.451-1.45 1.222-3.894-.229-4.886-1.069-.764-2.52-.688-3.741 0-2.367 1.374-1.374 3.36-2.138 4.275-.916 1.07-2.443 1.451-2.596 2.52-.229 1.832 2.367 2.214 2.825 3.818.382 1.527.23 6.108.23 8.704h-.383c-8.551.534-12.369 4.046-17.866 2.977zm-27.563 4.887l2.825-16.95 6.108-1.527-.458 5.65 4.658-1.222.458-5.65 5.955-1.45-.458 5.65 4.734-1.222.458-5.65 5.04-1.222-2.979 16.95zm86.049 1.68l-26.265-6.567 19.011 106.97a9.31 9.31 0 002.596-2.596c4.276-6.414 8.78-11.988 13.667-16.11a25.4 25.4 0 014.429-2.826c-4.505-25.807-9.239-53.064-13.438-78.871zm-.306-1.68l-2.748-16.95-6.109-1.527.459 5.65-4.734-1.222-.458-5.65-5.956-1.45.458 5.65-4.657-1.222-.458-5.65-5.116-1.222 3.054 16.95z"
			fill="#bebebe" />
		<path d="m346.64 209.04h6.696v7.18h-6.696z" fill="#fff" />
		<path
			d="M424.363 216.824l2.061-.61-2.443 8.016-.076.077-2.902 9.85h-.076l-2.902 10.001-9.314 5.04 7.711-1.604-1.756 6.719-2.138 9.01h-.076l-1.833 7.864-.763.382c-28.174 12.827-51.08 34.587-67.572 60.547-2.748 4.275-4.963 2.367-3.206-1.451 20.69-47.262 49.323-89.56 87.117-124.836l4.581-4.352-3.588 12.064z"
			fill="#056ba9" />
		<path
			d="M427.34 207.127c-38.023 35.504-66.426 77.803-86.964 124.76 16.568-26.342 39.855-48.713 68.716-61.922l1.07-4.352-16.646 5.421 17.561-8.933 1.146-4.887-20.615 8.704 21.455-12.063.992-3.97-16.263 3.36 18.783-10.232 1.909-6.566-10.384 3.283 11.453-6.72 1.756-5.802-12.828 7.33 14.05-11.3 1.297-4.505-4.58 1.298 6.413-7.33z"
			fill="#fff" />
	</g>
</svg>