<?xml version="1.0" encoding="UTF-8"?>
<!DOCTYPE xml>
<svg width="700" height="500" fill-rule="evenodd" version="1.1" id="svg979"
	xmlns="http://www.w3.org/2000/svg">
	<defs id="defs983" />
	<rect width="700" height="500" fill="#fff" id="rect941" />
	<g transform="matrix(0.08475382,0,0,0.08475382,236.76805,17.13938)" id="g977" style="display:inline">
		<path d="m 1268.9,4487.3 c -39.297,-29.384 -109.21,-46.176 -152.58,-60.581 -85.658,-28.448 -199.37,-57.484 -250.84,-76.279 C 771.492,4316.12 674.33,4273.662 593.1,4215.12 434.03,4100.47 202.82,3780.79 159.26,3675.7 66.26,3485.7 16.01,3282.95 16.01,3076.95 v -2121 h 2640 v 2121 c -5.0653,212.82 -58.057,431.3 -155.55,621.35 -120.25,211.63 -293.02,418.53 -424.93,516.11 -81.681,60.102 -182.01,102.3 -276.66,135.16 -82.655,30.278 -182.93,52.736 -248.54,76.18 -45.865,15.194 -113.83,34.971 -152.34,63.465 l -61.976,47.032 z" id="path943" style="display:inline;stroke:#000000;stroke-width:22.6608;stroke-linecap:butt;stroke-miterlimit:8;stroke-dasharray:none;stroke-opacity:1" />
		<path d="m 1444,3211 v -324 h 1113 v 190 c 0,44 -3,89 -9,134 z m 0,1146 v -739 h 985 c -93,197 -234,379 -413,515 -158,119 -405,163 -567,223 -3,1 -2,0 -5,1 z M 116,2705 h 1112 v -695 h -24 c -29,0 -52,-23 -52,-52 0,-29 23,-52 52,-52 h 18 c -12,-53 -37,-99 -59,-149 h -32 c -29,0 -52,-24 -52,-53 0,-28 23,-52 52,-52 h 24 c -29,-235 -232,-420 -474,-420 -263,0 -479,216 -479,479 v 34 h -86 z" fill="#fe0000" id="path945" style="stroke:#000000;stroke-width:22.6608;stroke-dasharray:none;stroke-opacity:1" />
		<path d="M 1228,3211 V 2887 H 116 v 190 c 0,44 3,89 8,134 z m 0,1146 V 3618 H 243 c 93,197 234,379 414,515 157,119 404,163 566,223 3,1 2,0 5,1 z M 2557,2705 H 1444 v -695 h 25 c 15,0 28,-6 38,-17 22,0 44,-8 61,-22 17,15 39,22 61,22 23,0 45,-7 62,-22 17,15 39,22 62,22 23,0 45,-7 62,-22 17,15 39,22 62,22 22,0 44,-7 61,-22 18,15 40,22 62,22 23,0 45,-7 62,-22 17,15 39,22 62,22 22,0 45,-7 62,-22 17,15 39,22 62,22 22,0 44,-7 61,-22 18,15 40,22 62,22 23,0 45,-7 62,-22 17,15 39,22 62,22 22,0 45,-7 62,-22 z M 1450,1906 c 12,-53 38,-99 59,-149 h 33 c 28,0 52,-24 52,-53 0,-28 -24,-52 -52,-52 h -25 c 29,-235 232,-420 475,-420 263,0 478,216 478,479 v 34 h 87 v 159 l -6,9 c -13,18 -33,30 -56,30 -23,0 -44,-12 -56,-30 l -6,-9 -6,9 c -12,18 -33,30 -56,30 -22,0 -43,-12 -56,-30 l -6,-9 -5,9 c -13,18 -34,30 -56,30 -23,0 -44,-12 -56,-30 l -6,-9 -6,9 c -13,18 -33,30 -56,30 -23,0 -44,-12 -56,-30 l -6,-9 -6,9 c -12,18 -33,30 -56,30 -22,0 -43,-12 -56,-30 l -6,-9 -5,9 c -13,18 -34,30 -56,30 -23,0 -44,-12 -56,-30 l -6,-9 -6,9 c -13,18 -33,30 -56,30 -23,0 -43,-12 -56,-30 l -6,-9 -6,9 c -12,18 -33,30 -56,30 -22,0 -43,-12 -56,-30 l -5,-9 -6,9 c -10,15 -26,25 -44,29 -7,-21 -26,-36 -49,-36 z" fill="#0052b6" id="path947" style="stroke:#000000;stroke-width:22.6608;stroke-dasharray:none;stroke-opacity:1" />
		<path d="M 1228,3574 V 3256 H 130 c 17,106 49,214 93,318 z" fill="#357600" id="path949" style="stroke:#000000;stroke-width:22.6608;stroke-dasharray:none;stroke-opacity:1" />
		<path d="m 816,1699 c 38,-16 64,-8 94,14 l -11,7 c -100,66 -95,188 -144,285 -23,43 -57,75 -92,108 31,-5 59,8 83,38 l 17,21 -26,-8 c -90,-27 -141,50 -172,122 59,-11 61,48 60,88 -15,-15 -35,-39 -59,-35 -33,6 -57,66 -67,94 -18,49 -28,97 -43,146 l -52,48 c 18,-79 38,-157 55,-236 8,-38 15,-77 16,-115 0,-41 -8,-82 -15,-121 -16,-81 -5,-189 60,-240 0,-25 4,-52 13,-79 23,-70 55,-99 61,-179 9,14 17,23 21,40 15,-64 47,-126 90,-177 63,-76 136,-118 233,-133 -26,60 -10,92 -13,153 -3,49 -18,66 -52,99 -19,19 -40,38 -57,60 z m -11,663 c -23,2 -31,-4 -62,-4 -32,5 -42,35 -53,64 -10,26 -23,50 -20,76 2,28 20,34 41,46 -14,6 -15,19 -4,28 33,0 65,-2 98,-2 32,0 65,2 97,2 11,-9 10,-22 -4,-28 21,-12 39,-18 42,-46 2,-26 -10,-50 -20,-76 -12,-29 -22,-59 -54,-64 -31,0 -38,6 -61,4 z" id="path951" />
		<path d="m 2374,2278 3,-1 c 36,-18 56,-42 87,-65 l 4,-3 5,4 c 5,5 9,10 13,16 26,38 1,68 4,107 0,3 0,7 1,10 5,35 39,63 29,88 l -4,10 -7,-8 c -8,-9 -16,-15 -27,-19 -8,-3 -17,-5 -26,-8 -12,-3 -23,-8 -34,-14 -13,-7 -24,-18 -33,-29 h -1 c -58,-4 -95,-20 -147,8 6,5 16,8 23,12 l 4,3 -1,5 c -5,17 17,58 -7,59 -29,2 -63,-15 -85,-33 l -2,-2 c -30,13 -75,10 -108,12 -19,1 -47,8 -68,14 10,6 22,11 31,16 6,2 14,6 12,14 -2,8 -16,8 -22,7 -19,-2 -43,-11 -60,-18 -6,-2 -14,-6 -21,-12 l -7,1 c -58,5 -110,6 -167,-1 -8,-1 -16,-2 -23,-4 4,4 8,7 13,10 4,2 8,6 7,12 -3,8 -16,8 -22,7 -18,-4 -41,-19 -55,-30 -8,-6 -13,-9 -16,-16 -4,4 -11,4 -18,1 -9,-5 -20,-16 -27,-18 l -3,-1 -4,-1 c -21,-6 -34,-9 -54,-19 -8,-4 -24,-13 -32,-14 -9,-2 -39,-17 -45,-24 l -5,-6 6,-4 c 5,-4 9,-8 15,-12 h 1 c -5,-5 -9,-11 -14,-18 l -5,-8 9,-2 c 19,-5 39,-11 58,-17 13,-5 41,-13 52,-20 25,-16 58,-21 86,-22 67,-3 132,-17 199,-13 h 5 l 4,-4 c 19,-18 47,-52 75,-52 15,0 79,33 92,44 6,6 -3,16 -9,23 h 1 c 34,2 69,5 102,10 33,5 65,18 98,22 1,0 2,0 3,1 l 7,-5 c 14,-9 28,-22 44,-27 8,-3 17,-3 23,4 3,5 5,12 2,17 -3,5 -5,11 -7,16 16,0 33,0 46,-2 z" id="path953" />
		<path d="m 449,2574 -31,29 c 66,-291 79,-296 50,-450 -14,-70 1,-177 48,-222 8,38 23,73 46,105 -39,-73 -41,-137 -21,-197 16,-50 51,-97 58,-159 15,22 8,65 14,100 0,-180 145,-357 312,-383 -25,60 10,143 -24,199 -20,32 -83,74 -111,127 44,-31 77,-29 105,-10 -104,68 -99,192 -148,288 -28,55 -75,90 -119,132 46,-24 81,-14 111,23 -90,-27 -146,39 -189,143 40,-15 66,-3 67,55 -58,-59 -98,2 -126,76 40,-188 114,-384 186,-573 7,-18 14,-37 21,-55 1,-2 0,-4 -2,-4 -2,-1 -4,0 -5,2 -7,18 -14,36 -20,54 -80,210 -162,427 -199,634 -10,36 -18,69 -23,86 z M 843,1474 c 1,-2 3,-3 5,-1 2,1 2,3 1,4 -75,127 -143,259 -202,396 -57,131 -105,266 -142,403 0,2 -2,3 -4,3 -2,-1 -3,-3 -3,-5 37,-137 85,-272 142,-404 59,-137 127,-270 203,-396 z m 1147,965 c 17,-5 56,-15 75,-16 28,-2 78,1 106,-12 12,-5 26,-16 37,-23 7,-5 14,-11 22,-16 58,-34 91,-17 158,-13 9,-13 12,-22 10,-32 -2,-11 -10,-24 -25,-42 -22,4 -60,2 -84,1 -12,-1 -25,-2 -36,-4 -32,-4 -65,-17 -98,-22 -23,-4 -68,-8 -101,-11 l -169,-10 c -66,-4 -131,9 -198,12 -20,1 -56,4 -82,21 -17,11 -101,35 -112,38 14,22 22,27 38,39 4,4 7,9 3,11 -4,2 -24,-16 -31,-22 -5,3 -10,8 -14,11 5,6 33,21 41,22 8,2 21,9 34,15 3,2 18,3 26,-10 7,-11 9,-25 7,-38 -1,-6 -4,-12 -8,-19 -1,-1 0,-3 2,-4 1,-1 3,0 4,1 4,7 7,13 8,21 4,21 -2,46 -19,58 11,4 22,6 33,9 5,-7 13,-12 21,-17 9,-5 17,-10 18,-18 2,-12 -5,-28 -14,-43 -9,-15 -20,-28 -26,-35 -1,-1 -1,-3 1,-4 1,-1 3,-1 4,0 6,7 17,20 26,36 3,3 5,6 6,10 1,-4 3,-8 6,-11 3,-3 9,-6 14,-6 6,0 11,3 14,6 4,4 6,9 6,15 0,6 -2,11 -6,15 -3,4 -8,6 -14,6 -4,0 -8,-1 -11,-4 1,6 1,11 1,16 -2,11 -12,17 -22,23 -6,4 -13,8 -18,13 10,3 17,13 29,18 5,3 12,5 11,-5 -1,-6 0,-12 4,-15 8,-7 18,0 21,1 16,9 35,28 42,34 55,8 93,15 199,6 0,-1 -1,-3 -2,-5 -1,-5 0,-10 3,-15 1,-1 2,-2 4,-3 11,-9 41,8 55,17 z m 364,-144 c 6,0 11,3 14,6 4,4 6,9 6,15 0,6 -2,11 -6,15 -3,4 -8,6 -14,6 -6,0 -11,-2 -14,-6 -4,-4 -6,-9 -6,-15 0,-6 2,-11 6,-15 3,-3 8,-6 14,-6 z m -109,2 c 6,0 11,2 14,6 4,4 6,9 6,15 0,5 -2,11 -6,14 -3,4 -8,7 -14,7 -6,0 -11,-3 -14,-7 -4,-3 -6,-9 -6,-14 0,-6 2,-11 6,-15 3,-4 8,-6 14,-6 z m -85,17 c 6,0 11,2 14,6 4,4 6,9 6,15 0,5 -2,11 -6,14 -3,4 -8,6 -14,6 -6,0 -11,-2 -14,-6 -4,-3 -6,-9 -6,-14 0,-6 2,-11 6,-15 3,-4 8,-6 14,-6 z m -86,0 c 6,0 11,2 14,6 4,4 6,9 6,15 0,6 -2,11 -6,15 -3,3 -8,6 -14,6 -5,0 -11,-3 -14,-6 -4,-4 -6,-9 -6,-15 0,-6 2,-11 6,-15 3,-4 9,-6 14,-6 z m -70,11 c 6,0 11,2 15,6 3,4 6,9 6,15 0,6 -3,11 -6,15 -4,3 -9,6 -15,6 -5,0 -10,-3 -14,-6 -3,-4 -6,-9 -6,-15 0,-6 3,-11 6,-15 4,-4 9,-6 14,-6 z m -109,-7 c 5,0 10,2 14,6 4,4 6,9 6,15 0,5 -2,11 -6,14 -4,4 -9,7 -14,7 -6,0 -11,-3 -14,-7 h -1 c -3,-3 -5,-9 -5,-14 0,-6 2,-11 5,-15 h 1 c 3,-4 8,-6 14,-6 z m -80,0 c 6,0 11,2 15,6 3,4 5,9 5,15 0,11 -8,21 -20,21 -5,0 -10,-3 -14,-7 -4,-3 -6,-9 -6,-14 0,-6 2,-11 6,-15 4,-4 9,-6 14,-6 z m -79,0 c 11,0 20,9 20,21 0,11 -9,21 -20,21 -6,0 -11,-3 -14,-7 -4,-3 -6,-9 -6,-14 0,-6 2,-11 6,-15 3,-4 8,-6 14,-6 z m -182,-8 c 4,0 9,2 12,5 3,4 5,8 5,13 0,4 -2,9 -5,12 -3,3 -8,5 -12,5 -5,0 -9,-2 -13,-5 -3,-3 -5,-8 -5,-12 0,-5 2,-9 5,-13 4,-3 8,-5 13,-5 z m 7,10 c -2,-2 -4,-3 -7,-3 -3,0 -6,1 -8,3 -2,2 -3,5 -3,8 0,3 1,5 3,7 2,2 5,3 8,3 3,0 5,-1 7,-3 2,-2 3,-4 3,-7 0,-3 -1,-6 -3,-8 z m 483,-78 c 6,-6 15,-16 13,-17 -15,-14 -77,-43 -87,-43 -25,0 -52,34 -70,51 l 34,2 35,-35 c 1,-2 4,-2 5,0 1,1 1,3 0,4 l -31,32 14,1 30,-30 c 1,-2 3,-2 5,0 1,1 1,3 0,4 l -26,26 10,1 25,-25 c 2,-1 4,-1 5,0 1,1 1,4 0,5 l -21,20 12,1 19,-19 c 1,-1 3,-1 5,0 1,1 1,3 0,5 l -16,15 h 11 l 14,-14 c 1,-1 3,-1 5,0 1,1 1,4 0,5 l -10,10 z m -357,198 c 15,11 36,26 52,29 6,1 22,0 10,-7 -15,-9 -47,-39 -65,-50 -8,-5 -14,-3 -14,6 2,13 7,15 17,22 z m 273,17 c 19,7 43,16 58,17 12,2 24,-1 7,-8 -11,-6 -32,-16 -42,-23 -9,-5 -39,-25 -48,-14 -7,12 16,24 25,28 z m 219,-42 c 18,14 51,33 81,32 14,-1 -6,-34 1,-55 -11,-7 -19,-8 -26,-15 -3,2 -5,4 -8,5 3,3 7,5 10,8 5,3 10,7 15,10 2,1 2,3 1,5 -1,1 -3,2 -5,1 -5,-4 -10,-7 -15,-11 -4,-3 -8,-6 -11,-9 -3,2 -7,4 -10,7 4,3 8,6 13,9 7,5 14,11 20,14 1,1 2,3 1,5 -1,1 -3,2 -5,1 -6,-4 -13,-9 -20,-14 -5,-4 -10,-8 -14,-11 -4,2 -7,5 -11,7 5,4 12,9 20,13 8,5 16,9 23,12 1,0 2,2 2,4 -1,2 -3,3 -5,2 -7,-3 -15,-7 -23,-12 -9,-5 -18,-11 -23,-15 -3,2 -7,4 -11,7 z m 140,-135 c 2,-6 7,-16 8,-18 2,-5 -1,-17 -17,-12 -15,5 -31,19 -43,27 3,0 6,1 10,1 6,-2 12,-5 18,-8 5,-2 10,-5 13,-8 2,-1 4,-1 5,0 1,2 1,4 0,5 -4,3 -9,6 -15,9 l -6,3 c 9,1 18,1 27,1 z m 75,82 c 8,9 18,21 31,28 41,21 62,11 89,41 4,-9 1,-17 -5,-26 -10,-6 -21,-11 -33,-15 -14,-4 -29,-7 -45,-10 -2,0 -3,-2 -3,-4 0,-2 2,-3 4,-3 17,3 32,6 46,11 9,3 17,6 25,10 -3,-5 -6,-10 -9,-16 -7,-3 -14,-6 -22,-8 -14,-4 -30,-6 -48,-8 -2,0 -3,-1 -3,-3 0,-2 2,-3 4,-3 17,1 34,4 49,8 6,2 11,3 16,5 -2,-4 -3,-10 -4,-15 -16,-5 -34,-6 -53,-5 -1,0 -3,-1 -3,-3 0,-2 1,-3 3,-4 18,-1 36,1 51,5 0,-4 -1,-7 -1,-10 0,-7 0,-14 1,-21 -4,1 -7,3 -11,4 -14,6 -27,10 -41,13 -2,0 -4,-1 -4,-2 -1,-2 0,-4 2,-4 14,-4 27,-8 40,-13 l 15,-6 c 1,-5 2,-9 3,-14 -5,3 -10,6 -16,8 -13,6 -26,12 -40,16 -1,0 -3,-1 -4,-2 0,-2 1,-4 2,-4 14,-5 27,-10 40,-16 6,-3 13,-6 20,-10 0,-5 1,-10 1,-14 -5,3 -10,7 -15,10 -13,8 -26,15 -42,21 -2,0 -4,0 -5,-2 0,-2 1,-4 2,-4 16,-6 29,-13 41,-21 7,-4 13,-8 19,-13 0,-3 0,-6 -1,-9 -7,5 -13,9 -20,13 -13,8 -26,14 -40,20 -1,0 -3,-1 -4,-2 -1,-2 0,-4 2,-5 14,-5 26,-11 38,-18 8,-5 15,-10 22,-15 -1,-3 -2,-6 -4,-9 -7,6 -14,11 -22,15 -11,7 -23,13 -36,20 -2,1 -4,0 -5,-2 0,-1 0,-3 2,-4 13,-7 25,-13 36,-19 7,-5 15,-10 22,-15 -3,-5 -8,-10 -13,-15 -40,29 -47,44 -88,65 14,18 22,30 25,43 2,11 -2,22 -11,36 z M 176,3682 C 81,3493 27,3284 27,3077 V 967 h 2618 v 2110 c 0,207 -54,416 -148,605 M 1240,3223 H 114 l -1,-10 c -5,-45 -8,-91 -8,-136 v -201 h 1135 z m 0,362 H 216 l -3,-7 c -44,-102 -76,-210 -94,-320 l -2,-13 h 1123 z m -15,783 c -2,-1 -4,-1 -5,-2 -50,-18 -100,-33 -151,-48 -56,-17 -112,-33 -168,-52 C 814,4235 724,4197 650,4142 472,4007 329,3825 233,3623 l -7,-16 h 1014 v 766 z m 208,5 v -766 h 1014 l -8,16 c -95,202 -238,384 -417,519 -73,55 -164,93 -251,124 -55,19 -112,35 -168,52 -50,15 -101,30 -150,48 -2,1 -4,1 -5,2 z m 0,-788 v -340 h 1122 l -2,13 c -17,110 -50,218 -94,320 l -3,7 z m 0,-362 v -347 h 1135 v 201 c 0,45 -3,91 -9,136 l -1,10 z m 73,-1571 c 29,-241 237,-431 486,-431 268,0 490,221 489,490 v 23 h 87 v 982 H 1433 v -706 h -193 v 706 H 105 v -982 h 86 v -23 c -1,-269 221,-490 490,-490 249,0 456,190 485,431 z m -67,254 c 11,-53 36,-98 58,-149 h -322 c 22,51 47,96 58,149 z m -103,-861 h 1232 v 328 l -21,-30 c -89,-135 -226,-234 -382,-276 -125,-21 -240,-20 -346,0 -78,21 -151,56 -216,103 -123,78 -209,194 -256,330 l -11,30 -10,-30 c -48,-136 -134,-252 -256,-330 h -1 c -65,-47 -138,-82 -216,-103 -106,-20 -221,-21 -345,0 -157,42 -293,141 -383,276 l -20,30 v -328 z m 1161,2637 c -99,176 -272,404 -428,522 -81,60 -177,102 -272,135 -83,29 -167,51 -251,77 -46,15 -118,37 -157,66 l -53,40 -53,-40 c -39,-29 -111,-51 -157,-66 -83,-26 -168,-48 -250,-77 C 781,4306 684,4264 603,4204 447,4086 276,3858 176,3682" fill="#ffffff" id="path955" style="display:inline" />
		<path d="m 1002,3434 5,1 h 2 c 4,1 8,3 12,5 16,10 23,29 24,47 1,22 -5,44 -15,63 6,7 9,16 3,25 -6,7 -15,8 -24,5 -14,16 -32,29 -51,39 3,10 3,21 -7,26 -11,7 -24,-2 -30,-12 -19,6 -39,9 -59,10 -1,10 -6,19 -17,19 -11,1 -18,-9 -21,-18 -13,-1 -27,-2 -40,-4 -3,7 -8,12 -16,12 -12,1 -19,-10 -21,-21 -42,-13 -84,-37 -122,-58 -43,-25 -113,-67 -162,-73 -26,-3 -52,-5 -79,-5 -17,-1 -36,-1 -53,-3 -55,-6 -79,-21 -124,-52 -17,-12 -12,-37 -3,-53 l 1,-2 -1,-1 c -12,-18 2,-37 18,-44 -7,-19 1,-42 16,-54 14,-10 27,-26 29,-44 v -6 l 1,-2 c 17,-101 177,-75 247,-64 54,9 175,38 203,88 l 1,1 v 1 c 1,5 1,10 1,14 l 4,5 c 87,100 106,125 245,150 h 4 l 3,1 c 8,1 16,3 24,4 z" id="path957" />
		<path d="m 768,3646 c -9,0 -15,-10 -15,-20 -93,-29 -211,-123 -289,-133 -65,-7 -103,-4 -132,-7 -52,-6 -73,-19 -121,-52 -13,-9 -9,-30 -1,-43 83,53 135,60 186,67 25,4 50,7 77,16 33,11 67,24 101,38 155,63 322,132 432,-70 34,5 45,59 16,110 6,5 10,13 6,19 -5,5 -13,5 -21,1 -14,17 -33,32 -59,44 6,8 8,19 0,23 -9,5 -20,-4 -24,-14 -19,6 -42,10 -68,12 0,9 -3,18 -11,19 -9,0 -14,-10 -15,-19 -14,0 -30,-2 -46,-4 -2,0 -4,0 -5,-1 -1,7 -5,13 -11,14 z" id="path1838" style="display:inline;fill:#ffe330;fill-opacity:1" />
		<path d="m 904,3590 c 3,2 5,7 3,11 -3,9 -14,13 -23,10 -10,-3 -12,-13 -1,-20 6,-4 14,-6 21,-1 z" id="path1844" style="fill:#000000;fill-opacity:1" />
		<path d="m 957,3558 c 6,-2 15,5 16,11 2,8 -4,15 -13,14 -7,-1 -14,-6 -14,-13 -1,-5 5,-11 11,-12 z" id="path1842" style="display:inline;fill:#000000;fill-opacity:1" />
		<path d="m 816,3594 c 7,0 10,5 9,11 0,4 -2,7 -5,10 -3,5 -11,5 -16,3 -15,-7 2,-26 12,-24 z" id="path1840" style="fill:#000000;fill-opacity:1" />
		<path d="m 712,3261 c -27,-50 -157,-77 -198,-84 -70,-11 -224,-36 -239,58 3,1 8,-2 15,-8 l 6,-6 -1,8 c 0,6 0,12 1,16 1,4 2,6 4,8 2,1 6,2 11,1 5,0 10,-2 16,-4 l 6,-3 -1,6 c -1,5 -2,10 -1,14 0,4 2,7 5,9 2,1 4,2 7,2 3,-1 6,-2 9,-4 l 6,-3 -1,6 c 0,7 1,12 3,17 2,3 4,5 7,6 3,2 6,2 10,1 4,-1 9,-3 14,-8 l 5,-5 1,6 c 1,6 6,24 13,26 5,1 12,-4 21,-13 l 4,-5 1,7 c 2,4 3,8 4,11 2,2 4,5 6,8 1,0 1,1 2,1 5,2 12,1 21,-6 l 4,-3 1,6 c 1,5 2,10 4,13 1,3 4,5 7,6 3,0 6,0 9,-2 4,-3 7,-7 11,-12 l 4,-6 2,7 c 2,5 3,9 6,12 1,2 4,3 6,3 3,0 5,-1 7,-3 3,-2 5,-6 8,-11 l 3,-6 3,6 c 2,5 5,9 8,12 3,2 5,3 7,3 3,0 6,-2 9,-5 3,-3 5,-7 7,-12 l 2,-8 4,7 c 1,2 2,3 2,5 3,5 6,12 14,11 2,0 4,-1 6,-4 2,-3 3,-9 3,-15 l 1,-7 5,5 c 3,3 7,7 10,9 3,1 6,2 10,0 4,-1 5,-5 6,-13 1,-2 1,-4 2,-7 l 1,-7 5,6 c 6,7 11,12 16,13 4,1 9,-2 13,-7 l 2,-2 3,2 c 53,58 100,97 142,123 40,24 76,36 109,39 9,-8 17,-17 25,-27 -122,-15 -172,-64 -247,-138 l -10,-10 2,-2 c 0,-1 1,-2 2,-3 5,-7 13,-18 9,-40 z m -31,10 c -4,14 -26,23 -53,28 -40,8 -93,9 -112,6 -30,-4 -61,-14 -91,-27 -29,-12 -58,-28 -85,-42 -12,-7 -19,-13 -22,-19 -3,-5 -3,-10 0,-14 2,-4 7,-7 12,-10 14,-7 37,-10 58,-11 11,0 26,1 47,3 17,1 39,4 65,8 38,5 79,13 111,23 21,6 40,13 52,22 13,9 21,19 19,30 0,1 0,2 -1,3 z m 287,164 c -149,-26 -169,-59 -249,-152 -2,10 -7,17 -11,22 v 1 l 5,5 c 76,74 125,123 247,136 3,-3 5,-7 8,-12 z m -82,162 c -5,3 -5,6 0,8 h 6 c 4,0 8,-2 9,-6 0,-2 0,-3 -1,-4 -5,-3 -10,-1 -14,2 z m -70,3 c -4,0 -16,9 -10,12 3,1 8,1 9,-1 2,-2 3,-4 3,-7 1,-2 0,-3 -2,-4 z m 138,-27 c 2,1 5,3 8,3 3,1 5,-2 5,-5 -1,-2 -3,-4 -5,-5 -6,-5 -12,3 -8,7 z M 225,3346 c -12,5 -25,20 -16,34 4,5 7,6 12,9 77,49 127,56 176,63 25,3 50,7 78,16 33,10 67,24 102,38 151,62 315,129 422,-66 -9,-1 -17,-2 -24,-3 -83,147 -257,84 -390,36 -46,-16 -86,-31 -116,-34 l -4,-1 1,-3 c 4,-20 3,-39 -3,-58 -4,-15 -12,-30 -22,-45 -3,-2 -5,-5 -6,-9 l -2,-2 c 0,-2 -1,-3 -1,-5 -7,6 -13,10 -18,11 8,12 14,25 18,38 6,20 7,41 3,62 v 3 h -3 c -45,-3 -85,-13 -120,-29 -32,-15 -60,-33 -87,-55 z" fill="#ffffff" id="path959" />
		<path d="m 1683,2327 c -3,-3 -6,-4 -10,-4 -4,0 -7,1 -9,4 -3,3 -4,6 -4,10 0,4 1,8 4,10 2,3 5,4 9,4 4,0 7,-1 10,-4 2,-2 4,-6 4,-10 0,-4 -2,-7 -4,-10 z m 331,9 c -2,-3 -6,-4 -10,-4 -3,0 -7,1 -9,4 -3,2 -4,6 -4,10 0,4 1,7 4,10 2,3 6,4 9,4 4,0 8,-1 10,-4 2,-3 4,-6 4,-10 0,-4 -2,-8 -4,-10 z m 349,-30 c -2,-2 -5,-4 -9,-4 -4,0 -7,2 -10,4 -2,3 -4,6 -4,10 0,4 2,8 4,10 3,3 6,4 10,4 4,0 7,-1 9,-4 3,-2 4,-6 4,-10 0,-4 -1,-7 -4,-10 z" fill="#f70d0e" id="path961" />
		<path d="m 1825,2328 c -3,-2 -6,-4 -10,-4 -3,0 -7,2 -9,4 -3,3 -4,7 -4,11 0,4 1,7 4,10 2,2 6,4 9,4 4,0 7,-2 10,-4 2,-3 4,-6 4,-10 0,-4 -2,-8 -4,-11 z m 344,-4 c -2,-2 -5,-4 -9,-4 -4,0 -7,2 -10,4 -2,3 -4,7 -4,11 0,4 2,7 4,10 3,2 6,4 10,4 4,0 7,-2 9,-4 3,-3 4,-6 4,-10 0,-4 -1,-8 -4,-11 z" fill="#1268a5" id="path963" />
		<path d="m 1904,2328 c -2,-2 -5,-4 -9,-4 -4,0 -7,2 -10,4 -2,3 -4,7 -4,11 0,4 2,7 4,10 3,2 6,4 10,4 4,0 7,-2 9,-4 3,-3 4,-6 4,-10 0,-4 -1,-8 -4,-11 z m 351,-20 c -3,-3 -6,-5 -10,-5 -4,0 -7,2 -9,5 -3,2 -5,6 -5,10 0,4 2,7 5,10 2,2 5,4 9,4 4,0 7,-2 10,-4 2,-3 4,-6 4,-10 0,-4 -2,-8 -4,-10 z" fill="#3b3c45" id="path965" />
		<path d="m 383,3251 c 15,7 30,15 45,21 29,13 59,23 89,27 15,2 52,1 87,-3 -30,-22 -64,-37 -102,-45 -37,-7 -77,-8 -119,0 z" id="path1852" style="fill:#ffe330;fill-opacity:1" />
		<path d="m 627,3292 c 25,-5 45,-12 48,-23 v -2 c 2,-8 -5,-16 -16,-24 -12,-8 -29,-15 -50,-21 -32,-10 -72,-17 -110,-23 -26,-3 -47,-6 -65,-8 -20,-1 -36,-2 -45,-2 -21,0 -43,4 -56,10 -4,2 -8,5 -9,7 -1,3 -2,5 0,8 3,5 9,10 20,16 9,5 19,10 29,16 46,-10 90,-10 131,-1 40,8 77,25 109,50 5,-1 9,-2 14,-3 z" id="path1850" style="fill:#ffe330;fill-opacity:1" />
		<path d="m 274,3242 v 1 c -2,19 -15,35 -32,49 -15,12 -21,35 -11,50 26,21 53,39 83,53 35,15 72,25 115,28 3,-19 2,-38 -4,-57 -4,-14 -11,-28 -21,-41 -7,-5 -11,-16 -13,-24 -4,4 -9,6 -13,7 -5,1 -10,1 -14,-1 -4,-2 -7,-6 -10,-10 -2,-4 -3,-9 -3,-14 -3,1 -5,1 -7,1 -5,1 -9,-1 -12,-3 -5,-3 -7,-8 -8,-13 v -10 c -4,2 -9,3 -13,3 -6,1 -11,0 -15,-3 -3,-2 -5,-6 -6,-11 -1,-3 -1,-7 -1,-11 -6,4 -11,6 -15,6 z" id="path1848" style="fill:#ffe330;fill-opacity:1" />
		<path d="m 452,3337 c 8,12 14,25 18,38 5,19 7,38 3,58 30,4 70,18 115,34 109,40 247,89 336,20 -32,-4 -67,-16 -106,-40 -42,-25 -88,-64 -141,-120 -5,5 -10,6 -16,5 -5,-1 -10,-4 -16,-10 v 1 c -2,9 -3,14 -11,18 -5,2 -10,1 -15,-1 v -1 c -2,-1 -5,-3 -7,-4 -1,4 -2,7 -3,10 -3,5 -6,8 -11,8 -12,1 -16,-6 -20,-13 -1,3 -3,5 -5,8 -4,4 -9,7 -14,7 -3,0 -8,-2 -12,-5 -2,-3 -4,-5 -6,-8 -2,3 -4,5 -6,7 -4,4 -8,5 -12,5 -5,0 -9,-2 -12,-6 -1,-2 -3,-5 -4,-8 -3,4 -6,6 -9,8 -5,3 -10,4 -14,3 -6,-1 -9,-4 -12,-9 -2,-3 -3,-6 -4,-10 -6,3 -11,5 -16,5 z" id="path1846" style="fill:#ffe330;fill-opacity:1" />
		<path d="m 2084,2325 c -3,-3 -6,-4 -10,-4 -4,0 -7,1 -9,4 -3,2 -4,6 -4,10 0,4 1,7 4,10 2,3 5,4 9,4 4,0 7,-1 10,-4 2,-3 4,-6 4,-10 0,-4 -2,-8 -4,-10 z" id="path1836" style="fill:#ffe330;fill-opacity:1" />
		<path d="m 1746,2328 c -3,-2 -6,-4 -10,-4 -4,0 -7,2 -10,4 -2,3 -4,7 -4,11 0,4 2,7 4,10 3,2 6,4 10,4 4,0 7,-2 10,-4 2,-3 4,-6 4,-10 0,-4 -2,-8 -4,-11 z" id="path1834" style="fill:#ffe330;fill-opacity:1" />
		<path d="m 2557,1056 h -389 c 160,44 298,145 389,280 z" id="path1832" style="fill:#ffe330;fill-opacity:1;stroke:#000000;stroke-width:22.6608;stroke-dasharray:none;stroke-opacity:1" />
		<path d="m 116,1056 h 389 c -161,44 -299,145 -389,280 z" id="path1830" style="fill:#ffe330;fill-opacity:1;stroke:#000000;stroke-width:22.6608;stroke-dasharray:none;stroke-opacity:1" />
		<path d="m 1816,1056 c -80,22 -154,58 -219,105 -125,79 -213,198 -261,335 -48,-137 -135,-256 -260,-335 -66,-47 -140,-83 -220,-105 z" id="path967" style="fill:#ffe330;fill-opacity:1;stroke:#000000;stroke-width:22.6608;stroke-dasharray:none;stroke-opacity:1" />
		<path d="m 953,3195 c 9,-5 21,-24 38,-24 h 8 c 0,17 -2,16 -8,31 44,-20 56,-16 61,-13 7,6 -10,21 -12,31 7,-3 47,-22 67,-3 14,14 3,24 -1,38 0,2 69,-8 47,33 -2,3 51,0 43,6 -6,6 -30,26 -30,34 -2,7 24,7 25,29 0,16 -25,11 -43,31 9,12 24,18 27,32 2,10 -4,26 -32,31 16,6 27,14 26,31 -16,-13 -65,-12 -56,-3 14,16 9,45 8,45 -30,-18 -66,3 -88,13 -8,3 -27,0 -34,-2 -23,-4 -44,-18 -68,-25 -16,-4 -44,-22 -57,-32 -19,-15 -33,-48 -35,-72 -1,-15 -8,-23 -14,-37 -33,-66 2,-42 3,-92 0,-41 63,-71 94,-87 16,-8 21,-12 31,5 z m 1156,-41 c 25,-22 45,-27 75,-12 1,-7 4,-15 9,-20 22,-22 51,-1 68,18 5,-4 11,-6 17,-7 28,-4 45,26 46,51 1,9 11,28 22,27 9,0 8,-17 7,-23 -5,-24 7,-40 31,-42 41,-3 67,45 71,81 11,92 -59,141 -137,168 -6,5 -12,14 -18,20 -7,6 -16,12 -25,13 -10,1 -18,-5 -24,-13 -8,10 -19,19 -32,18 -14,-1 -24,-10 -30,-22 -27,25 -54,10 -76,-16 -1,11 -7,22 -18,26 -3,1 -6,2 -10,1 3,17 1,36 -16,43 -11,4 -22,-1 -30,-8 -4,20 -17,42 -39,42 -22,0 -34,-22 -39,-42 -8,7 -19,12 -29,8 -17,-7 -20,-26 -17,-43 -3,1 -6,0 -10,-1 -11,-4 -16,-15 -17,-26 -22,26 -50,41 -77,16 -5,12 -15,21 -29,22 -14,1 -24,-8 -33,-18 -5,8 -14,14 -23,13 -10,-1 -19,-7 -25,-13 -7,-6 -13,-15 -18,-20 -78,-27 -149,-76 -137,-168 4,-36 29,-84 71,-81 23,2 35,18 31,42 -2,6 -2,23 6,23 11,1 22,-18 22,-27 2,-25 19,-55 47,-51 6,1 12,3 16,7 17,-19 47,-40 69,-18 5,5 8,13 9,20 29,-15 50,-10 74,12 3,-6 8,-11 14,-13 4,-2 7,-2 10,-2 -3,-16 0,-36 17,-42 10,-4 21,0 29,8 5,-21 17,-42 39,-42 22,0 35,21 39,42 8,-8 19,-12 30,-8 17,6 19,26 16,42 4,0 7,0 10,2 7,2 11,7 14,13 z" id="path969" />
		<path d="m 995,3527 c 1,0 2,0 3,1 3,0 6,1 6,1 11,2 36,6 13,-6 -12,-5 -21,-33 -9,-51 24,-33 -18,-50 1,-61 13,-8 9,-12 12,-24 1,-5 9,-12 11,-18 3,-21 -27,-25 -25,-39 1,-7 9,-6 11,-19 2,-10 3,-27 -10,-29 -25,-3 5,-25 1,-38 -4,-14 -25,-8 -27,-24 -4,-24 9,-26 9,-42 -14,0 -34,29 -41,25 h -3 c -1,3 -4,8 -4,9 -2,4 -3,8 -4,12 -2,10 0,20 21,24 4,1 9,5 13,11 1,2 0,3 1,5 1,2 1,4 0,6 0,2 -1,3 -3,4 -7,5 -5,13 -4,21 0,7 0,12 -7,19 -10,10 -10,19 -6,23 3,3 8,5 13,6 11,4 25,8 25,24 0,9 -9,13 -16,21 -6,6 -12,16 -13,21 -2,7 -1,13 2,18 2,6 7,10 13,13 l 1,1 c 4,2 6,6 7,11 0,4 0,9 -2,13 -1,0 -1,1 -2,2 -5,7 -6,17 -4,28 0,2 1,3 1,4 3,10 8,17 16,28 z m 573,-1565 c -14,13 -34,22 -55,24 5,-8 8,-18 8,-28 0,-3 -1,-7 -1,-10 20,-4 37,-15 48,-31 13,20 36,33 61,33 26,0 49,-13 62,-33 14,20 36,33 62,33 26,0 48,-13 62,-33 13,20 36,33 62,33 25,0 48,-13 61,-33 14,20 37,33 62,33 26,0 49,-13 62,-33 14,20 36,33 62,33 26,0 48,-13 62,-33 13,20 36,33 62,33 25,0 48,-13 61,-33 14,20 37,33 62,33 26,0 49,-13 62,-33 14,20 36,33 62,33 26,0 48,-13 62,-33 v 45 c -16,15 -38,24 -62,24 -25,0 -47,-9 -62,-24 -15,15 -37,24 -62,24 -24,0 -46,-9 -62,-24 -15,15 -37,24 -61,24 -25,0 -47,-9 -62,-24 -16,15 -38,24 -62,24 -25,0 -47,-9 -62,-24 -15,15 -37,24 -62,24 -24,0 -46,-9 -62,-24 -15,15 -37,24 -61,24 -25,0 -47,-9 -62,-24 -16,15 -38,24 -62,24 -24,0 -46,-9 -62,-24 -15,15 -37,24 -62,24 -24,0 -46,-9 -61,-24 z m -364,-45 h 265 c 22,0 41,19 41,41 0,23 -19,41 -41,41 h -265 c -23,0 -41,-18 -41,-41 0,-22 18,-41 41,-41 z m -73,-254 h 411 c 22,0 41,19 41,41 0,23 -19,41 -41,41 h -411 c -23,0 -41,-18 -41,-41 0,-22 18,-41 41,-41 z m 761,1500 c -22,-21 -41,-34 -82,-9 6,-27 -25,-60 -71,-4 -17,-24 -54,-6 -56,34 -1,15 -15,35 -29,34 -14,-1 -15,-20 -13,-31 5,-25 -10,-33 -25,-34 -37,-3 -60,43 -64,75 -10,87 54,134 134,161 3,1 22,31 40,32 8,1 19,-5 22,-19 3,4 16,25 33,24 9,-1 22,-6 28,-27 22,27 50,25 81,-17 16,-32 25,-64 27,-98 1,-37 -6,-77 -25,-121 z m 381,95 c 3,-5 3,-9 1,-14 -2,-4 -6,-6 -12,-7 -3,0 -8,1 -12,3 1,-5 2,-10 2,-13 -1,-6 -3,-10 -7,-12 -4,-2 -9,-1 -14,1 -4,3 -8,7 -11,13 v 1 -1 c -3,-6 -7,-10 -11,-13 -5,-2 -10,-3 -14,-1 -4,2 -6,6 -7,12 0,3 1,8 2,13 -4,-2 -9,-3 -13,-3 -5,1 -9,3 -11,7 -2,5 -2,9 1,14 3,4 7,8 13,11 v 1 c -6,2 -10,6 -13,10 -3,5 -3,10 -1,14 2,4 6,6 11,7 4,0 9,-1 13,-2 -1,4 -2,9 -2,13 1,5 3,9 7,11 4,2 9,2 14,-1 4,-3 8,-7 11,-13 3,6 7,10 11,13 5,3 10,3 14,1 4,-2 6,-6 7,-11 0,-4 -1,-9 -2,-13 4,1 9,2 12,2 6,-1 10,-3 12,-7 2,-4 2,-9 -1,-14 -3,-4 -7,-8 -13,-10 l -1,-1 h 1 c 6,-3 10,-7 13,-11 z m -23,-93 c -9,0 -17,3 -23,9 -3,3 -5,6 -7,10 -2,-4 -4,-7 -7,-10 -6,-6 -14,-9 -23,-9 -9,0 -17,3 -23,9 -6,6 -10,14 -10,23 0,4 1,8 2,11 -3,-1 -7,-1 -11,-1 -9,0 -17,3 -23,9 -6,6 -9,14 -9,23 0,9 3,18 9,23 3,3 6,5 10,7 -4,2 -7,4 -10,7 -6,6 -9,14 -9,23 0,9 3,17 9,23 6,6 14,10 23,10 4,0 8,-1 11,-2 -1,3 -2,7 -2,11 0,9 4,17 10,23 6,6 14,10 23,10 9,0 17,-4 23,-10 3,-3 5,-6 7,-10 2,4 4,7 7,10 6,6 14,10 23,10 9,0 17,-4 23,-10 6,-6 9,-14 9,-23 0,-4 0,-8 -1,-11 3,1 7,2 11,2 9,0 17,-4 23,-10 6,-6 9,-14 9,-23 0,-9 -3,-17 -9,-23 -3,-3 -6,-5 -10,-7 4,-2 7,-4 10,-7 6,-5 9,-14 9,-23 0,-9 -3,-17 -9,-23 -6,-6 -14,-9 -23,-9 -4,0 -8,0 -11,1 1,-3 1,-7 1,-11 0,-9 -3,-17 -9,-23 -6,-6 -14,-9 -23,-9 z m 68,134 c 0,7 -3,14 -8,19 -4,5 -11,8 -18,8 -7,0 -13,-3 -18,-7 l -1,-1 -5,-6 -5,5 5,5 c 1,1 2,1 2,2 4,4 6,10 6,17 0,7 -3,14 -7,19 -5,4 -12,7 -19,7 -8,0 -14,-3 -19,-7 -5,-5 -8,-12 -8,-19 v -8 h -6 v 8 c 0,7 -3,14 -8,19 -5,4 -12,7 -19,7 -7,0 -14,-3 -19,-7 -5,-5 -8,-12 -8,-19 0,-7 3,-13 7,-17 0,-1 1,-1 1,-2 l 6,-5 -5,-5 -5,6 c -1,0 -1,1 -2,1 -4,4 -10,7 -17,7 -7,0 -14,-3 -19,-8 -4,-5 -7,-12 -7,-19 0,-7 3,-14 7,-19 5,-5 12,-8 19,-8 h 8 v -6 h -8 c -7,0 -14,-3 -19,-8 -4,-5 -7,-11 -7,-19 0,-7 3,-14 7,-19 5,-4 12,-7 19,-7 7,0 13,2 17,6 1,0 1,1 2,2 l 5,5 5,-5 -6,-5 -1,-1 c -4,-5 -7,-11 -7,-18 0,-7 3,-14 8,-18 5,-5 12,-8 19,-8 7,0 14,3 19,8 5,4 8,11 8,18 v 8 h 6 v -8 c 0,-7 3,-14 8,-18 5,-5 11,-8 19,-8 7,0 14,3 19,8 4,4 7,11 7,18 0,7 -2,13 -6,18 0,0 -1,1 -2,1 l -5,6 c 2,1 3,2 5,4 l 5,-5 c 0,-1 1,-2 2,-2 4,-4 10,-6 17,-6 7,0 14,3 18,7 5,5 8,12 8,19 0,8 -3,14 -8,19 -4,5 -11,8 -18,8 h -8 v 6 h 8 c 7,0 14,3 18,8 5,5 8,12 8,19 z m 99,-27 c -13,-2 -23,-6 -32,-10 -8,-5 -14,-11 -21,-19 l -4,-5 -2,7 c -4,26 -12,46 -22,63 -11,21 -26,40 -36,54 25,-8 46,-16 67,-31 18,-13 36,-30 52,-53 l 3,-5 z m -17,-90 c -8,0 -16,3 -21,9 -6,5 -9,13 -9,21 0,9 3,17 9,22 5,6 13,9 21,9 9,0 16,-3 22,-9 5,-6 9,-13 9,-22 0,-8 -4,-16 -9,-21 -6,-6 -13,-9 -22,-9 z m -400,143 c -10,0 -20,-4 -27,-10 8,15 15,28 20,40 3,7 6,13 7,19 2,-6 4,-12 7,-19 5,-12 12,-25 21,-40 -8,6 -17,10 -28,10 z m -27,-78 c 7,-6 17,-10 27,-10 11,0 20,4 28,10 -9,-15 -16,-29 -21,-41 -3,-6 -5,-13 -7,-18 -1,5 -4,12 -7,18 -5,12 -12,26 -20,41 z m -245,11 c -3,-5 -4,-9 -2,-14 2,-4 7,-6 12,-7 4,0 9,1 13,3 -2,-5 -2,-10 -2,-13 1,-6 3,-10 7,-12 4,-2 9,-1 14,1 4,3 8,7 10,13 l 1,1 v -1 c 3,-6 7,-10 11,-13 4,-2 9,-3 13,-1 4,2 7,6 7,12 1,3 0,8 -2,13 5,-2 9,-3 13,-3 6,1 10,3 12,7 2,5 1,9 -2,14 -2,4 -7,8 -12,11 h -1 l 1,1 c 5,2 10,6 12,10 3,5 4,10 2,14 -2,4 -6,6 -12,7 -4,0 -8,-1 -13,-2 2,4 3,9 2,13 0,5 -3,9 -7,11 -4,2 -9,2 -13,-1 -4,-3 -8,-7 -11,-13 h -1 c -2,6 -6,10 -10,13 -5,3 -10,3 -14,1 -4,-2 -6,-6 -7,-11 0,-4 0,-9 2,-13 -4,1 -9,2 -13,2 -5,-1 -10,-3 -12,-7 -2,-4 -1,-9 2,-14 3,-4 7,-8 12,-10 l 1,-1 h -1 c -5,-3 -9,-7 -12,-11 z m 23,-93 c 9,0 17,3 23,9 3,3 5,6 7,10 1,-4 4,-7 6,-10 6,-6 14,-9 24,-9 9,0 17,3 23,9 6,6 9,14 9,23 0,4 0,8 -2,11 4,-1 7,-1 11,-1 9,0 18,3 23,9 6,6 10,14 10,23 0,9 -4,18 -10,23 -2,3 -6,5 -9,7 3,2 7,4 9,7 6,6 10,14 10,23 0,9 -4,17 -10,23 -5,6 -14,10 -23,10 -4,0 -7,-1 -11,-2 2,3 2,7 2,11 0,9 -3,17 -9,23 -6,6 -14,10 -23,10 -10,0 -18,-4 -24,-10 -2,-3 -5,-6 -6,-10 -2,4 -4,7 -7,10 -6,6 -14,10 -23,10 -9,0 -17,-4 -23,-10 -6,-6 -10,-14 -10,-23 0,-4 1,-8 2,-11 -3,1 -7,2 -11,2 -9,0 -17,-4 -23,-10 -6,-6 -10,-14 -10,-23 0,-9 4,-17 10,-23 3,-3 6,-5 10,-7 -4,-2 -7,-4 -10,-7 -6,-5 -10,-14 -10,-23 0,-9 4,-17 10,-23 6,-6 14,-9 23,-9 4,0 8,0 11,1 -1,-3 -2,-7 -2,-11 0,-9 4,-17 10,-23 6,-6 14,-9 23,-9 z m -69,134 c 0,7 3,14 8,19 5,5 12,8 19,8 7,0 13,-3 17,-7 1,0 1,-1 2,-1 l 5,-6 c 1,2 3,3 4,5 l -5,5 c 0,1 -1,1 -2,2 -3,4 -6,10 -6,17 0,7 3,14 8,19 5,4 12,7 19,7 7,0 14,-3 19,-7 5,-5 7,-12 7,-19 v -8 h 7 v 8 c 0,7 3,14 8,19 4,4 11,7 19,7 7,0 14,-3 18,-7 5,-5 8,-12 8,-19 0,-7 -2,-13 -6,-17 l -7,-7 c 1,-2 3,-3 4,-5 l 7,7 c 5,4 11,7 17,7 8,0 14,-3 19,-8 5,-5 8,-12 8,-19 0,-7 -3,-14 -8,-19 -5,-5 -11,-8 -19,-8 h -7 v -6 h 7 c 8,0 14,-3 19,-8 5,-5 8,-11 8,-19 0,-7 -3,-14 -8,-19 -5,-4 -11,-7 -19,-7 -6,0 -12,2 -17,6 0,0 -1,1 -1,2 l -6,5 c -1,-2 -3,-3 -4,-5 l 5,-5 c 1,0 1,-1 2,-1 4,-5 6,-11 6,-18 0,-7 -3,-14 -8,-18 -4,-5 -11,-8 -18,-8 -8,0 -15,3 -19,8 -5,4 -8,11 -8,18 v 8 h -7 v -8 c 0,-7 -2,-14 -7,-18 -5,-5 -12,-8 -19,-8 -7,0 -14,3 -19,8 -5,4 -8,11 -8,18 0,7 3,13 6,18 1,0 2,1 2,1 l 5,6 c -1,1 -3,2 -4,4 l -5,-5 c -1,-1 -1,-2 -2,-2 -5,-4 -10,-6 -17,-6 -7,0 -14,3 -19,7 -5,5 -8,12 -8,19 0,8 3,14 8,19 5,5 12,8 19,8 h 7 v 6 h -7 c -7,0 -14,3 -19,8 -5,5 -8,12 -8,19 z m -98,-27 c 13,-2 23,-6 31,-10 8,-5 15,-11 21,-19 l 5,-5 1,7 c 5,26 13,46 22,63 11,21 27,40 36,54 -24,-8 -45,-16 -66,-31 -19,-13 -36,-30 -52,-53 l -3,-5 z m 16,-90 c 9,0 16,3 22,9 5,5 9,13 9,21 0,9 -4,17 -9,22 -6,6 -13,9 -22,9 -8,0 -16,-3 -21,-9 -6,-6 -9,-13 -9,-22 0,-8 3,-16 9,-21 5,-6 13,-9 21,-9 z m 509,-19 c 22,-21 41,-34 82,-9 -7,-27 25,-60 70,-4 18,-24 54,-6 57,34 0,15 15,35 29,34 14,-1 15,-20 13,-31 -5,-25 10,-33 24,-34 38,-3 60,43 64,75 11,87 -54,134 -133,161 -3,1 -23,31 -40,32 -8,1 -19,-5 -22,-19 -3,4 -17,25 -33,24 -9,-1 -22,-6 -28,-27 -23,27 -50,25 -81,-17 -16,-32 -25,-64 -27,-98 -2,-37 6,-77 25,-121 z m -215,225 c 0,12 4,23 14,27 5,2 12,1 18,-3 -1,1 -1,2 -2,4 -7,18 -3,38 10,42 11,4 24,-4 32,-18 v 1 c 0,28 16,51 34,51 19,0 34,-23 34,-51 v -1 c 8,14 22,22 33,18 12,-4 17,-24 9,-42 0,-2 -1,-3 -1,-4 6,4 12,5 18,3 9,-4 14,-15 13,-27 -13,-25 -22,-51 -26,-78 h -35 c 2,5 4,10 6,16 9,27 20,59 11,84 -4,13 -12,20 -20,24 -6,2 -11,3 -17,2 -5,-1 -10,-3 -14,-7 -5,-4 -8,-9 -11,-15 -2,6 -6,11 -10,15 -4,4 -9,6 -15,7 -5,1 -11,0 -16,-2 -9,-4 -17,-11 -21,-24 -8,-25 3,-57 12,-84 2,-6 4,-11 5,-16 h -34 c -5,27 -14,53 -27,78 z m 149,-85 v -3 l -1,-5 c 1,-4 2,-9 2,-14 0,-5 -1,-10 -2,-15 l 1,-5 v -3 h 34 v 26 c 1,7 1,13 2,19 z m -86,0 1,-3 1,-5 c -2,-4 -3,-9 -3,-14 0,-5 1,-10 3,-15 l -1,-5 -1,-3 h -34 c 1,9 1,18 0,26 0,7 -1,13 -1,19 z m -2,-51 c -1,-5 -3,-11 -5,-16 -9,-27 -20,-60 -12,-85 4,-12 12,-20 21,-24 5,-2 11,-2 16,-2 6,1 11,4 15,7 4,4 8,9 10,16 3,-7 6,-12 11,-16 4,-3 9,-6 14,-7 6,0 11,0 17,2 8,4 16,12 20,24 9,25 -2,58 -11,85 -2,5 -4,11 -6,16 h 33 c 3,-30 11,-61 26,-94 -2,-5 -6,-9 -11,-11 -6,-2 -12,-1 -18,2 0,-1 1,-2 1,-3 8,-19 3,-38 -9,-43 -11,-4 -25,4 -33,19 v -2 c 0,-28 -15,-50 -34,-50 -18,0 -34,22 -34,50 v 2 c -8,-15 -21,-23 -32,-19 -13,5 -17,24 -10,43 1,1 1,2 2,3 -6,-3 -13,-4 -18,-2 -5,2 -9,6 -11,11 15,33 23,64 26,94 z" fill="#ffffff" id="path971" />
		<path d="m 948,3201 c -9,-16 -10,-11 -23,-4 -12,6 -89,41 -90,80 -1,55 -35,26 -3,89 6,13 13,22 15,40 0,1 5,45 32,66 15,12 42,28 54,31 30,8 44,20 65,25 -6,-10 -11,-20 -13,-29 -5,-13 -4,-26 2,-35 1,0 1,-1 2,-2 2,-4 2,-8 2,-13 -1,-4 -3,-8 -7,-10 0,-1 -1,-1 -1,-1 -6,-4 -11,-8 -13,-13 -3,-5 -4,-11 -2,-18 1,-5 6,-11 12,-17 8,-8 17,-17 17,-25 0,-16 -14,-21 -25,-24 -6,-2 -10,-3 -13,-6 -4,-4 -3,-10 7,-20 7,-8 6,-16 6,-23 -1,-7 -1,-14 6,-19 2,-1 3,-2 3,-4 v -6 c -1,-2 -2,-4 -3,-7 -4,-5 -9,-10 -13,-11 -21,-4 -23,-13 -21,-23 0,-4 2,-8 4,-12 1,-3 1,-5 2,-7 -1,0 -2,-1 -2,-2 z" fill="#fe0000" id="path973" />
		<path d="m 2000,3272 c -2,0 -4,1 -6,2 -2,2 -3,4 -3,7 0,2 1,5 3,6 2,2 4,3 6,3 3,0 5,-1 7,-3 1,-1 2,-4 2,-6 0,-3 -1,-5 -2,-7 -2,-1 -4,-2 -7,-2 z m 207,-16 c 3,-3 8,-5 13,-5 5,0 10,2 13,5 3,4 5,8 5,13 0,5 -2,10 -5,13 -3,3 -8,5 -13,5 -5,0 -10,-2 -13,-5 -3,-3 -5,-8 -5,-13 0,-5 2,-9 5,-13 z m -1,-6 c -4,-2 -6,-6 -9,-10 -2,-5 -3,-9 -2,-13 0,-3 1,-6 3,-7 2,-1 5,0 7,2 4,2 7,5 9,10 2,4 3,9 3,12 v 1 c -4,1 -8,2 -11,5 z m 17,-5 v -2 c 0,-4 1,-7 3,-11 2,-5 5,-8 8,-10 3,-2 6,-3 8,-2 2,1 3,4 3,7 1,4 0,8 -3,13 -2,4 -5,8 -8,10 -3,-3 -7,-4 -11,-5 z m 16,10 c 2,-3 6,-6 10,-8 5,-3 9,-4 13,-3 3,0 6,1 7,3 1,2 0,5 -2,8 -2,3 -5,6 -10,8 -3,2 -7,3 -11,3 h -2 c -1,-4 -2,-8 -5,-11 z m 5,17 h 2 c 4,0 8,1 11,3 5,2 8,5 10,9 2,2 3,5 2,7 -1,2 -4,3 -7,4 -4,0 -8,-1 -13,-3 -4,-2 -8,-5 -10,-8 3,-4 4,-7 5,-12 z m -10,17 c 3,2 6,5 8,9 3,5 4,9 3,13 0,3 -1,6 -3,7 -2,1 -5,0 -8,-1 -3,-2 -6,-6 -8,-10 -2,-4 -3,-8 -3,-12 v -2 c 4,0 8,-2 11,-4 z m -17,4 v 2 c 0,4 -1,8 -3,12 -2,4 -5,8 -9,10 -2,1 -5,2 -7,1 -2,-1 -3,-4 -3,-7 -1,-4 0,-8 2,-13 3,-4 5,-7 8,-9 4,2 8,4 12,4 z m -46,-2 c -1,-2 0,-5 2,-7 2,-4 5,-7 9,-9 5,-2 10,-3 13,-3 h 1 c 0,5 2,8 4,12 -2,3 -5,6 -9,8 -5,2 -9,3 -13,3 -3,-1 -6,-2 -7,-4 z m 25,-25 h -2 c -4,0 -8,-1 -12,-3 -4,-2 -7,-5 -9,-8 -2,-3 -3,-6 -2,-8 1,-2 4,-3 7,-3 4,-1 8,0 13,3 4,2 7,5 9,8 -2,3 -4,7 -4,11 z m 187,-70 c 5,-5 11,-7 17,-7 7,0 13,2 17,7 4,4 7,10 7,16 0,7 -3,13 -7,17 -4,5 -10,7 -17,7 -6,0 -12,-2 -17,-7 -4,-4 -7,-10 -7,-17 0,-6 3,-12 7,-16 z m -1,71 c 8,5 17,8 29,11 -15,21 -31,36 -48,48 -15,10 -30,18 -46,23 9,-11 18,-23 25,-37 9,-17 17,-36 22,-59 5,6 11,11 18,14 z m -338,61 c -2,-7 -4,-13 -6,-18 -10,18 -19,34 -25,48 -6,15 -10,27 -9,38 0,13 5,23 11,28 3,3 7,5 11,6 5,0 9,0 13,-2 7,-3 14,-10 17,-20 8,-23 -3,-54 -12,-80 z m 0,-94 -6,18 c -10,-19 -19,-35 -25,-48 -6,-15 -10,-28 -9,-38 0,-14 5,-23 11,-29 3,-3 7,-4 11,-5 5,-1 9,0 13,2 7,3 14,9 17,19 8,23 -3,55 -12,81 z m -427,-38 c -4,-5 -10,-7 -17,-7 -6,0 -12,2 -17,7 -4,4 -7,10 -7,16 0,7 3,13 7,17 5,5 11,7 17,7 7,0 13,-2 17,-7 5,-4 7,-10 7,-17 0,-6 -2,-12 -7,-16 z m 1,71 c -7,5 -16,8 -28,11 15,21 31,36 48,48 15,10 30,18 46,23 -9,-11 -18,-23 -26,-37 -9,-17 -16,-36 -21,-59 -6,6 -12,11 -19,14 z m 176,-11 c -4,-3 -8,-5 -13,-5 -5,0 -10,2 -13,5 -3,4 -5,8 -5,13 0,5 2,10 5,13 3,3 8,5 13,5 5,0 9,-2 13,-5 3,-3 5,-8 5,-13 0,-5 -2,-9 -5,-13 z m 1,-6 c 3,-2 6,-6 8,-10 2,-5 3,-9 3,-13 0,-3 -1,-6 -3,-7 -2,-1 -5,0 -8,2 -3,2 -6,5 -8,10 -3,4 -3,9 -3,12 v 1 c 4,1 8,2 11,5 z m -18,-5 v -1 c 0,0 1,0 1,-1 0,-4 -1,-7 -3,-11 -3,-5 -6,-8 -9,-10 -3,-2 -5,-3 -7,-2 -2,1 -3,4 -4,7 0,4 1,8 3,13 2,4 5,8 8,10 3,-3 7,-4 11,-5 z m -16,10 c -2,-3 -5,-6 -10,-8 -4,-3 -9,-4 -12,-3 -4,0 -6,1 -7,3 -1,2 0,5 1,8 2,3 6,6 10,8 4,2 8,3 11,3 h 3 c 0,-4 2,-8 4,-11 z m -4,17 h -3 c -3,0 -7,1 -11,3 -4,2 -8,5 -10,9 -1,2 -2,5 -1,7 1,2 3,3 7,4 3,0 8,-1 12,-3 5,-2 8,-5 10,-8 -2,-4 -4,-7 -4,-12 z m 9,17 c -3,2 -6,5 -8,9 -2,5 -3,9 -3,13 1,3 2,6 4,7 2,1 4,0 7,-1 3,-2 6,-6 9,-10 2,-4 3,-8 3,-12 l -1,-1 v -1 c -4,0 -8,-2 -11,-4 z m 18,4 v 2 c 0,4 1,8 3,12 2,4 5,8 8,10 3,1 6,2 8,1 2,-1 3,-4 3,-7 0,-4 -1,-8 -3,-13 -2,-4 -5,-7 -8,-9 -3,2 -7,4 -11,4 z m 45,-2 c 1,-2 1,-5 -1,-7 -2,-4 -5,-7 -10,-9 -4,-2 -9,-3 -13,-3 -1,5 -2,8 -5,12 2,3 6,6 10,8 4,2 9,3 13,3 3,-1 5,-2 6,-4 z m -24,-25 h 2 c 3,0 7,-1 11,-3 5,-2 8,-5 10,-8 2,-3 2,-6 1,-8 -1,-2 -3,-3 -6,-3 -4,-1 -9,0 -13,3 -4,2 -8,5 -10,8 3,3 4,7 5,11 z m 151,62 c 2,-7 4,-13 6,-18 11,18 19,34 25,48 7,15 10,27 10,38 0,13 -5,23 -11,28 -4,3 -8,5 -12,6 -4,0 -8,0 -12,-2 -8,-3 -14,-10 -17,-20 -8,-23 2,-54 11,-80 z m 0,-94 6,18 c 11,-19 19,-35 25,-48 7,-15 10,-28 10,-38 0,-14 -5,-23 -11,-29 -4,-3 -8,-4 -12,-5 -4,-1 -8,0 -12,2 -8,3 -14,9 -17,19 -8,23 2,55 11,81 z m 44,62 c -4,0 -8,-1 -11,-4 -3,-3 -4,-7 -4,-11 0,-5 1,-8 4,-11 3,-3 7,-5 11,-5 5,0 9,2 11,5 3,3 5,6 5,11 0,4 -2,8 -5,11 -2,3 -6,4 -11,4 z m 0,-52 c -10,0 -19,4 -26,10 -7,7 -11,17 -11,27 0,10 4,19 11,26 7,7 16,11 26,11 11,0 20,-4 27,-11 6,-7 10,-16 10,-26 0,-10 -4,-20 -10,-27 -7,-6 -16,-10 -27,-10 z" fill="#ffe330" id="path975" />
	</g>
	<rect style="fill:#000000;fill-opacity:1;fill-rule:evenodd;stroke:none;stroke-width:2.20134;stroke-linecap:butt;stroke-miterlimit:8;stroke-dasharray:none;stroke-opacity:1" id="rect2134" width="28.800318" height="1.925" x="335.80508" y="165.035" />
	<rect style="fill:#000000;fill-opacity:1;fill-rule:evenodd;stroke:none;stroke-width:2.22809;stroke-linecap:butt;stroke-miterlimit:8;stroke-dasharray:none;stroke-opacity:1" id="rect2134-1" width="30.700666" height="1.85" x="334.60123" y="156.233" />
	<rect style="fill:#000000;fill-opacity:1;fill-rule:evenodd;stroke:none;stroke-width:1.70987;stroke-linecap:butt;stroke-miterlimit:8;stroke-dasharray:none;stroke-opacity:1" id="rect2134-7" width="19.784708" height="1.6906408" x="340.12552" y="177.76543" />
	<rect style="fill:#000000;fill-opacity:1;fill-rule:evenodd;stroke:none;stroke-width:1.65491;stroke-linecap:butt;stroke-miterlimit:8;stroke-dasharray:none;stroke-opacity:1" id="rect2134-3" width="18.061132" height="1.7348349" x="340.92102" y="186.69266" />
	<path style="fill:#000000;stroke:none;stroke-width:1px;stroke-linecap:butt;stroke-linejoin:miter;stroke-opacity:1" d="m 365.98437,180.64844 c 0.7583,2.10757 0.65384,4.61372 -1.09887,6.30524 L 364,185.67969 l 1.26562,-2.59375 -0.65625,-2.16407 z" id="path2247" />
</svg>
