<?xml version="1.0" encoding="UTF-8"?>
<!DOCTYPE xml>
<svg xml:space="preserve" width="1082.074" height="772.90997" version="1.1" style="clip-rule:evenodd;fill-rule:evenodd;image-rendering:optimizeQuality;shape-rendering:geometricPrecision;text-rendering:geometricPrecision" viewBox="0 0 11272.473 8050.933" id="svg91"
	xmlns="http://www.w3.org/2000/svg">
	<defs id="defs4">
		<style type="text/css" id="style2">
			<![CDATA[
	.fil4 {fill:black}
	.fil1 {fill:#009240}
	.fil0 {fill:#393633}
	.fil8 {fill:#C3C3C2}
	.fil2 {fill:#DA241D}
	.fil9 {fill:#F8C400}
	.fil5 {fill:#FFF500}
	.fil3 {fill:white}
	.fil7 {fill:black;fill-rule:nonzero}
	.fil6 {fill:#FFF500;fill-rule:nonzero}
	]]>
		</style>
	</defs>
	<g id="Layer_x0020_1">
		<metadata id="CorelCorpID_0Corel-Layer" />
		<rect width="11272.471" height="8051.7646" fill="#ff0000" id="rect175" x="-4.5474735e-13" y="-0.41666886" style="clip-rule:evenodd;fill:#ffffff;fill-rule:evenodd;stroke-width:16.1035;image-rendering:optimizeQuality;shape-rendering:geometricPrecision;text-rendering:geometricPrecision" />
		<g id="_623482224" transform="translate(3949.2354,1560.9655)">
			<g id="g71">
				<path id="rect980" style="clip-rule:evenodd;display:inline;fill:#ffffff;fill-rule:evenodd;stroke:none;stroke-width:10.4175;stroke-linecap:square;image-rendering:optimizeQuality;shape-rendering:geometricPrecision;text-rendering:geometricPrecision" d="m 47.997678,3087.833 v 183.9945 c 0,133.2499 12.798272,258.1708 36.807037,374.7644 24.008765,116.5937 59.236255,224.8557 104.052615,324.7931 44.81637,99.9374 99.23112,191.561 161.65391,274.8422 62.42278,83.2812 132.84387,158.2256 209.67192,224.8505 76.82805,66.6249 160.05421,124.9308 248.08635,174.8995 88.03214,49.9687 180.88245,91.5955 276.91749,124.908 96.0351,33.3124 195.2676,58.3007 296.1044,74.9569 100.8368,16.6562 203.2706,24.9857 305.708,24.9857 102.4374,0 204.8711,-8.3295 305.7079,-24.9857 100.8369,-16.6562 200.0694,-41.6445 296.1044,-74.9569 96.0351,-33.3125 188.8854,-74.9393 276.9175,-124.908 88.0322,-49.9687 171.2583,-108.2746 248.0864,-174.8995 76.828,-66.6249 147.2491,-141.5693 209.6719,-224.8505 62.4228,-83.2812 116.8375,-174.9048 161.6539,-274.8422 44.8164,-99.9374 80.0438,-208.1994 104.0526,-324.7931 24.0088,-116.5936 36.8071,-241.5145 36.8071,-374.7644 V 3087.833 Z" />
				<path class="fil0" d="M 0,1126 H 3374 V 3272 C 3374,5471 0,5471 0,3272 Z m 3326,1962 v 184 c 0,2132 -3278,2132 -3278,0 v -184 z" id="path7" style="display:inline" />
				<path class="fil1" d="m 387,3749 c 118,33 129,-34 130,-34 29,-22 -16,1 26,-14 22,-9 4,2 32,-7 79,-24 1,-14 56,-32 59,63 24,96 142,106 -48,-76 -65,-40 -93,-98 15,-42 15,-21 65,-50 l -24,-50 c 147,5 302,117 417,124 -180,-138 -170,-65 -266,-134 43,-11 51,3 80,-14 50,-28 4,7 34,-57 l 31,9 c 94,32 31,38 100,71 49,-86 -58,-62 -18,-174 7,-11 49,-41 88,-29 34,10 83,58 90,98 l 1,23 c 36,29 216,106 263,111 -51,-38 -96,-33 -98,-126 45,9 52,21 84,13 l 18,-6 c 2,-1 7,-3 9,-4 3,-1 7,-4 11,-4 39,83 15,-32 78,126 l 14,29 c 18,24 25,23 62,28 -14,-10 -21,-10 -31,-20 -26,-28 -12,0 -25,-39 76,12 130,46 200,75 -55,-59 -132,-98 -223,-127 24,-23 185,-126 265,-30 l -155,6 c 20,47 199,96 216,99 78,9 -12,-10 83,-18 l -32,-40 116,12 c -18,-18 2,1 -25,-21 -61,-49 -43,-51 -34,-96 50,33 106,49 162,5 44,86 127,20 264,93 79,42 147,102 234,128 -20,-39 -105,-114 -140,-146 52,3 61,30 106,44 45,14 93,5 151,21 79,23 178,81 252,81 -131,-100 -485,-194 -655,-270 -113,-50 -98,-5 -176,5 -229,30 -363,32 -602,-32 -77,-21 -111,-16 -193,-31 -27,-4 -60,-14 -85,-22 -283,-89 -316,6 -441,61 -111,49 -81,56 -150,78 -56,17 -120,32 -164,64 -55,41 -222,169 -250,215 z m 489,303 27,6 c -14,20 -7,6 -14,39 l 89,5 40,30 c 25,10 25,6 47,8 1,-3 2,-8 2,-9 7,-29 -9,-10 39,-14 0,0 -15,-48 -18,-56 14,0 25,-1 37,-1 l -8,-13 c -4,-1 -10,-8 -11,-5 -2,3 -15,-7 -20,-12 -27,-28 -5,10 -22,-40 l -7,-42 c -77,-2 -71,-16 -128,29 l 35,30 -59,14 -10,-2 c -28,-36 -23,-23 -18,-67 -18,-57 -1,-14 -23,-26 l -17,25 c -6,24 -1,38 -4,57 -6,31 -9,6 -20,61 z m -78,-353 c -30,-37 -17,-34 -76,-48 12,25 -11,12 24,37 20,13 29,9 52,11 z m 1207,20 -124,-52 c 26,50 57,60 124,52 z m -203,454 86,-23 c -19,-77 -23,-29 -35,-101 l -37,60 c -2,2 -5,6 -7,7 l -21,21 c -23,19 -9,6 -27,21 z m -248,14 c -51,30 -35,38 -63,95 45,-9 83,-21 124,-34 61,-18 52,-12 86,-69 l -66,-3 -3,-6 64,-32 c -50,-8 -50,-17 -102,-21 91,-24 124,-5 152,-43 l -140,-13 c 20,-20 8,-4 22,-33 l 51,-57 -36,-8 -52,-73 c -14,116 -20,145 -56,194 -43,23 3,-4 -9,48 -12,51 -8,14 -32,53 z m -316,-204 11,48 c 0,0 -1,2 -1,3 l 297,33 c -37,-61 -30,-2 -39,-81 l -58,24 c -21,4 14,28 -56,-13 -2,-2 -6,-4 -8,-6 -3,-2 -6,-4 -9,-6 l -43,-22 c -3,-1 -6,-3 -8,-3 -95,-38 -32,39 -85,-46 -3,2 -7,2 -8,6 l -38,16 -4,-25 -26,56 z m -690,109 57,-14 c 34,20 25,11 68,4 l -78,110 c 244,-25 90,-114 159,-145 -22,-12 -18,-9 -31,-21 -17,19 -35,38 -50,56 5,-53 -7,-22 20,-56 -32,-32 -26,-31 -45,-81 -1,-6 -2,-8 -4,-12 -48,43 -18,57 -18,57 -54,-12 -37,-9 -44,-56 l -34,28 c -22,14 -4,9 -36,16 14,-56 19,-15 13,-77 -66,53 -54,116 -103,158 l 22,8 49,34 c 35,11 38,1 55,-9 z m -167,-43 c 39,-18 40,-30 27,-66 -47,5 -68,11 -27,66 z m 1783,-78 c -16,-20 -11,-16 -15,-32 -8,-36 23,-6 -15,-37 -10,-68 -18,-39 17,-56 -92,-7 -1,35 -101,68 52,122 -20,-6 1,63 7,23 16,9 20,9 -72,29 -43,23 -66,73 -15,33 6,-6 -9,19 -1,1 -23,24 -28,30 l 120,-31 c -17,23 19,5 -24,28 52,-1 43,7 82,-23 158,-34 109,-78 191,-94 33,-6 44,-12 76,-23 l -22,-100 c 330,7 127,67 275,42 83,-14 0,-22 83,-41 -14,85 -17,63 -16,157 0,1 -24,-13 -3,32 7,16 -20,9 23,14 l 111,13 c 3,-107 -9,-22 -29,-143 -1,-6 -9,-1 -3,-25 11,-41 67,-35 111,-31 l -70,104 111,-19 -26,-112 91,-6 c -39,-17 -44,-4 -110,-30 -26,-10 -13,-35 -88,21 -20,-34 -4,-4 -8,-51 -28,41 -39,67 -78,49 -125,-58 -175,-1 -232,11 -56,13 -97,-6 -142,15 l -71,68 c -27,-9 -15,-24 -42,-32 -111,122 3,84 -88,144 -22,-47 13,-36 -26,-74 z m 317,-13 26,-17 c 59,-14 26,3 41,-31 -21,-12 -1,-12 -37,0 l -18,-5 c -50,22 -19,-33 -43,48 z" id="path9" />
				<rect class="fil2" x="48" y="1177" width="1639" height="1912" id="rect11" />
				<path class="fil3" d="m 392,2712 h 314 v -225 c 0,-95 72,-174 161,-174 v 0 c 89,0 162,79 162,174 v 225 h 314 v -925 h -94 v 105 h -56 -56 v -339 h -102 v 113 h -56 -56 v -113 h -56 -56 v 113 H 756 700 V 1553 H 598 v 339 h -56 -56 v -105 h -94 z" id="path13" />
				<g id="g69">
					<path class="fil4" d="m 1915,2541 v -308 c 0,-28 21,-51 47,-51 h 451 c 27,0 48,23 48,51 v 308 z" id="path15" />
					<path class="fil5" d="m 1929,2525 h 518 v -292 c 0,-19 -15,-35 -34,-35 h -451 c -18,0 -33,16 -33,35 z" id="path17" />
					<path class="fil4" d="m 2234,2253 h 214 v 30 c 0,118 -90,214 -199,214 h -15 z" id="path19" />
					<path class="fil5" d="m 2249,2268 h 185 v 29 c 0,102 -84,185 -185,185 v 0 z" id="path21" />
					<polygon class="fil4" points="3058,1883 2126,2127 2102,2023 3034,1779 " id="polygon23" />
					<polygon class="fil6" points="3041,1872 2136,2109 2119,2034 3024,1797 " id="polygon25" />
					<polygon class="fil4" points="2044,2264 1966,1966 2154,1910 2231,2208 " id="polygon27" />
					<polygon class="fil6" points="2054,2245 1984,1977 2144,1929 2214,2197 " id="polygon29" />
					<polygon class="fil4" points="2946,2527 2873,2527 2723,2070 2666,2070 2516,2527 2444,2527 2646,1911 2744,1911 " id="polygon31" />
					<polygon class="fil5" points="2656,1926 2464,2511 2506,2511 2656,2055 2683,2055 2707,2055 2733,2055 2884,2511 2926,2511 2733,1926 2707,1926 2683,1926 " id="polygon33" />
					<rect class="fil4" x="2289" y="1888" width="69.729698" height="542.80603" id="rect35" />
					<rect class="fil5" x="2303" y="1903" width="41.2131" height="512.08502" id="rect37" />
					<rect class="fil4" x="1875" y="2494" width="1156.77" height="75.685799" rx="14" ry="15" id="rect39" />
					<rect class="fil5" x="1890" y="2510" width="1128.25" height="44.965" rx="9508" ry="10240" id="rect41" />
					<polygon class="fil7" points="3062,2259 3062,1997 3077,1997 3077,2259 " id="polygon43" />
					<path class="fil4" d="m 3070,2201 c 16,0 29,14 29,31 v 260 c 0,18 -13,32 -29,32 -17,0 -30,-14 -30,-32 v -260 c 0,-17 13,-31 30,-31 z" id="path45" />
					<path class="fil5" d="m 3070,2216 v 0 c 8,0 15,7 15,16 v 260 c 0,9 -7,17 -15,17 v 0 c -9,0 -16,-8 -16,-17 v -260 c 0,-9 7,-16 16,-16 z" id="path47" />
					<path class="fil4" d="m 2954,1792 c -11,-22 -5,-43 16,-56 v 0 h 1 c 21,-12 43,-23 65,-34 14,-7 31,-11 43,2 5,7 5,11 9,18 v 0 l 1,1 c 12,30 23,59 35,88 21,52 18,134 -10,181 -7,11 -13,15 -23,21 -29,16 -47,-1 -59,-30 -26,-63 -51,-127 -78,-191 z" id="path49" />
					<path class="fil5" d="m 3076,1729 c 11,30 23,59 35,89 18,44 18,121 -9,166 -5,8 -10,11 -18,15 -15,9 -27,6 -39,-22 -26,-63 -52,-129 -78,-192 -9,-16 -3,-27 10,-35 22,-12 43,-23 65,-34 27,-15 29,4 34,13 z" id="path51" />
					<ellipse class="fil4" cx="2695" cy="1960" rx="27" ry="29" id="ellipse53" />
					<ellipse class="fil5" cx="2695" cy="1960" rx="13" ry="14" id="ellipse55" />
					<ellipse class="fil4" cx="2323" cy="2026" rx="27" ry="29" id="ellipse57" />
					<ellipse class="fil5" cx="2323" cy="2026" rx="13" ry="14" id="ellipse59" />
					<ellipse class="fil4" cx="2323" cy="2337" rx="27" ry="29" id="ellipse61" />
					<ellipse class="fil5" cx="2323" cy="2337" rx="13" ry="14" id="ellipse63" />
					<ellipse class="fil4" cx="2263" cy="2284" rx="27" ry="29" id="ellipse65" />
					<ellipse class="fil5" cx="2263" cy="2284" rx="13" ry="14" id="ellipse67" />
				</g>
			</g>
			<g id="g87">
				<path class="fil0" d="m 1687,0 c 561,0 1123,74 1666,228 l 21,5 -348,904 -16,-5 C 2580,1004 2133,942 1687,942 c -446,0 -893,62 -1324,190 l -15,5 L 0,233 21,228 C 564,74 1126,0 1687,0 Z" id="path73" />
				<path class="fil8" d="m 85,402 27,70 c 6,0 17,1 36,0 60,-2 63,35 43,85 -9,23 19,27 16,2 -6,-53 6,-88 64,-69 60,21 32,-3 65,55 32,56 4,77 -46,83 -23,3 -12,31 6,16 40,-32 74,-39 87,25 14,66 19,29 -11,89 -29,57 -60,41 -90,-2 -14,-20 -32,4 -10,14 46,21 68,49 24,93 -13,13 -19,20 -24,26 l 27,69 h 2 c 38,-12 77,-23 116,-34 l 13,-3 16,61 c 5,16 20,25 35,21 14,-5 23,-22 19,-37 l -16,-59 14,-4 c 35,-9 70,-17 105,-25 l 14,-3 10,47 c 4,16 19,26 34,22 14,-4 24,-20 20,-36 l -10,-45 14,-3 c 36,-8 71,-15 107,-22 l 14,-2 8,50 c 3,16 17,27 32,24 15,-2 25,-18 23,-34 l -8,-50 14,-2 c 35,-6 70,-12 106,-17 l 14,-2 7,50 c 2,16 16,28 31,25 15,-2 25,-17 23,-34 l -7,-48 15,-2 c 35,-5 71,-9 107,-13 l 13,-1 6,45 c 1,16 15,28 30,26 16,-2 26,-17 25,-33 l -5,-43 14,-2 c 38,-3 76,-6 114,-8 l 14,-1 3,44 c 1,16 14,28 29,27 16,-1 27,-15 26,-32 l -3,-42 14,-1 c 29,-1 57,-3 85,-3 l 15,-1 v 55 c 0,16 12,29 28,29 15,0 27,-13 27,-29 v -56 h 14 c 22,-1 45,-1 67,-1 22,0 44,0 67,1 h 14 v 56 c 0,16 12,29 27,29 15,0 28,-13 28,-29 v -55 l 14,1 c 29,0 57,2 85,3 l 15,1 -3,42 c -1,17 10,31 25,32 15,1 29,-11 30,-27 l 3,-44 14,1 c 38,2 76,5 114,8 l 14,2 -5,43 c -2,16 9,31 24,33 15,2 29,-10 31,-26 l 5,-45 14,1 c 36,4 71,8 107,13 l 14,2 -6,48 c -3,17 8,32 23,34 15,3 29,-9 31,-25 l 7,-50 14,2 c 35,5 71,11 106,17 l 14,2 -8,50 c -3,16 8,32 22,34 15,3 30,-8 33,-24 l 8,-50 14,2 c 35,7 71,14 107,22 l 14,3 -10,45 c -4,16 5,32 20,36 15,4 30,-6 34,-22 l 10,-47 14,3 c 35,8 70,16 105,25 l 14,4 -16,59 c -4,15 5,32 19,37 15,4 30,-5 34,-21 l 17,-61 13,3 c 39,11 77,22 116,34 h 2 l 10,-25 c -60,-30 -104,-82 -128,-142 -25,-65 -28,-139 -1,-209 26,-70 76,-122 136,-149 58,-26 124,-29 186,-4 l 11,-27 c -42,-12 -84,-23 -127,-34 l -13,-4 11,-52 c 3,-16 -7,-32 -21,-35 -15,-4 -30,6 -33,22 l -11,52 -14,-3 c -33,-8 -67,-16 -101,-23 l -13,-3 9,-53 c 3,-16 -7,-32 -22,-35 -15,-3 -29,8 -32,24 l -9,52 -14,-2 c -36,-8 -72,-15 -108,-21 l -13,-3 7,-53 c 2,-16 -8,-31 -23,-33 -15,-3 -30,8 -32,25 l -7,51 -14,-2 c -34,-6 -69,-11 -104,-17 l -14,-2 7,-52 c 2,-16 -9,-31 -24,-34 -15,-2 -29,10 -31,26 l -7,52 -13,-2 c -39,-5 -78,-10 -117,-15 l -14,-1 5,-54 c 2,-16 -9,-31 -24,-32 -16,-2 -29,10 -31,26 l -5,53 -14,-1 c -36,-4 -72,-7 -108,-10 l -14,-1 3,-54 c 1,-16 -10,-30 -26,-31 -15,-1 -28,11 -29,27 l -3,53 -14,-1 c -37,-3 -74,-5 -112,-7 l -13,-1 1,-53 c 1,-17 -11,-30 -26,-31 -15,-1 -28,12 -29,29 l -2,53 -14,-1 c -33,-1 -67,-2 -100,-3 l -14,-1 v -57 c 0,-17 -13,-30 -28,-30 -15,0 -27,13 -27,30 v 56 h -15 c -22,0 -44,0 -66,0 -22,0 -44,0 -67,0 h -14 v -56 c 0,-17 -12,-30 -27,-30 -16,0 -28,13 -28,30 v 57 l -14,1 c -33,1 -67,2 -101,3 l -14,1 -1,-53 c -1,-17 -14,-30 -29,-29 -15,1 -27,14 -27,31 l 2,53 -14,1 c -37,2 -74,4 -111,7 l -14,1 -3,-53 c -1,-16 -15,-28 -30,-27 -15,1 -26,15 -25,31 l 3,54 -14,1 c -36,3 -72,6 -108,10 l -14,1 -5,-53 c -2,-16 -16,-28 -31,-26 -15,1 -26,16 -24,32 l 5,54 -14,1 c -39,5 -78,10 -117,15 l -14,2 -6,-52 c -3,-16 -17,-28 -32,-26 -15,3 -25,18 -23,34 l 6,52 -13,2 c -35,6 -70,11 -104,17 l -14,2 -7,-51 c -3,-17 -17,-28 -32,-25 -15,2 -25,17 -23,33 l 7,53 -13,3 c -36,6 -72,13 -108,21 l -14,2 -9,-52 c -3,-16 -17,-27 -32,-24 -15,3 -25,19 -22,35 l 9,53 -14,3 c -33,7 -67,15 -100,23 l -14,3 -11,-52 c -3,-16 -18,-26 -33,-22 -15,3 -24,19 -21,35 l 11,52 -14,4 c -42,11 -84,22 -126,34 z M 1687,197 c 70,0 133,30 179,80 46,49 74,117 74,193 0,75 -28,143 -74,193 -46,49 -109,80 -179,80 -70,0 -133,-31 -179,-80 -46,-50 -75,-118 -75,-193 0,-76 29,-144 75,-193 46,-50 109,-80 179,-80 z m 169,90 c -43,-46 -103,-75 -169,-75 -66,0 -126,29 -169,75 -44,47 -71,111 -71,183 0,71 27,135 71,182 43,47 103,76 169,76 66,0 126,-29 169,-76 43,-47 70,-111 70,-182 0,-72 -27,-136 -70,-183 z m -117,68 c -16,17 8,33 14,8 13,-52 37,-79 83,-38 49,44 31,11 42,78 10,64 -24,72 -72,58 -23,-6 -23,24 0,17 48,-13 82,-6 72,59 -11,67 7,34 -42,77 -46,42 -70,14 -83,-38 -6,-24 -30,-9 -14,9 36,38 46,73 -11,96 -59,24 -24,24 -83,0 -56,-23 -46,-58 -10,-96 16,-18 -8,-33 -15,-9 -13,52 -36,80 -82,38 -49,-43 -31,-10 -42,-77 -10,-65 24,-72 72,-59 22,7 22,-23 0,-17 -48,14 -82,6 -72,-58 11,-67 -7,-34 42,-78 46,-41 69,-14 82,38 7,25 31,9 15,-8 -36,-39 -46,-74 10,-97 59,-23 24,-23 83,0 57,23 47,58 11,97 z m -52,84 c -16,0 -29,14 -29,31 0,17 13,31 29,31 16,0 28,-14 28,-31 0,-17 -12,-31 -28,-31 z m -1505,215 21,53 v 0 c 8,-8 11,-22 7,-34 -5,-12 -16,-20 -28,-19 z M 289,933 C 349,903 393,851 417,791 442,726 444,652 418,582 392,512 341,460 282,433 224,407 158,404 95,429 l 6,14 c 59,-24 121,-21 175,4 57,26 104,74 129,140 25,66 23,137 -1,198 -23,57 -64,106 -120,134 z m 2801,-14 12,-30 c -5,-6 -12,-13 -24,-26 -45,-44 -22,-72 24,-93 21,-10 4,-34 -10,-14 -31,43 -62,59 -90,2 -30,-60 -25,-23 -11,-89 13,-64 46,-57 86,-25 19,15 29,-13 7,-16 -50,-6 -79,-27 -47,-83 34,-58 6,-34 66,-55 58,-19 69,16 63,69 -3,25 25,21 16,-2 -19,-50 -16,-87 44,-85 19,1 30,0 36,0 l -19,48 35,-90 -5,13 c -59,-24 -121,-21 -175,4 -57,26 -104,74 -129,140 -25,66 -23,137 1,198 22,57 64,106 120,134 z m 81,-212 21,-53 c -12,-1 -23,7 -28,19 -5,12 -1,26 7,34 z" id="path75" />
				<path class="fil9" d="m 1687,771 c -22,0 -45,1 -67,1 v 41 c 0,24 -19,45 -41,45 v 0 c -23,0 -42,-21 -42,-45 v -39 c -28,1 -57,2 -85,3 l 2,27 c 2,25 -16,46 -39,48 v 0 c -22,2 -42,-17 -44,-41 l -2,-29 c -38,2 -76,5 -114,8 l 3,28 c 3,25 -13,47 -36,50 v 0 c -23,3 -43,-14 -46,-39 l -4,-31 c -35,4 -71,8 -107,13 l 5,33 c 3,25 -12,47 -35,51 v 0 c -23,4 -44,-13 -47,-38 l -5,-35 c -36,5 -71,11 -106,17 l 5,34 c 4,25 -11,48 -33,52 v 0 c -23,5 -45,-12 -49,-36 l -5,-36 c -36,7 -72,14 -107,21 l 7,30 c 5,24 -9,49 -31,55 v 0 c -22,5 -45,-9 -50,-33 l -8,-34 c -35,8 -70,17 -105,26 l 12,44 c 6,23 -7,48 -29,55 v 0 c -22,7 -45,-7 -51,-31 l -13,-47 c -38,11 -77,22 -116,33 l 54,141 c 413,-123 861,-191 1329,-191 468,0 916,68 1328,191 l 54,-141 c -38,-11 -77,-22 -116,-33 l -12,47 c -6,24 -30,38 -52,31 v 0 c -22,-7 -35,-32 -28,-55 l 11,-44 c -34,-9 -69,-18 -104,-26 l -8,34 c -5,24 -28,38 -50,33 v 0 c -22,-6 -36,-31 -31,-55 l 7,-30 c -36,-7 -71,-14 -107,-21 l -6,36 c -4,24 -25,41 -48,36 v 0 c -23,-4 -38,-27 -34,-52 l 6,-34 c -35,-6 -71,-12 -106,-17 l -5,35 c -3,25 -25,42 -47,38 v 0 c -23,-4 -39,-26 -35,-51 l 4,-33 c -35,-5 -71,-9 -106,-13 l -4,31 c -3,25 -24,42 -46,39 v 0 c -23,-3 -39,-25 -37,-50 l 3,-28 c -37,-3 -75,-6 -113,-8 l -2,29 c -2,24 -22,43 -45,41 v 0 c -23,-2 -40,-23 -38,-48 l 2,-27 c -29,-1 -57,-2 -85,-3 v 39 c 0,24 -19,45 -42,45 v 0 c -23,0 -41,-21 -41,-45 v -41 c -23,0 -45,-1 -67,-1 z" id="path77" />
				<path class="fil9" d="M 1687,20 C 1103,20 544,100 25,247 l 54,140 c 43,-11 86,-23 129,-34 l -8,-38 c -5,-24 10,-48 32,-53 v 0 c 22,-6 45,10 50,34 l 7,37 c 34,-8 68,-16 101,-23 l -6,-38 c -4,-25 11,-48 33,-53 v 0 c 23,-4 45,12 49,36 l 6,38 c 36,-8 72,-15 108,-21 l -5,-38 c -3,-25 12,-48 35,-51 v 0 c 23,-4 44,13 47,37 l 5,37 c 35,-6 70,-11 105,-17 l -5,-37 c -3,-24 13,-47 35,-51 v 0 c 23,-3 44,14 47,39 l 5,37 c 39,-5 78,-10 117,-15 l -3,-38 c -3,-25 14,-47 37,-49 v 0 c 23,-3 43,15 46,40 l 3,38 c 36,-4 73,-7 109,-10 l -2,-38 c -2,-25 15,-47 38,-48 v 0 c 23,-2 43,17 45,41 l 2,38 c 37,-3 74,-5 112,-7 l -2,-39 c 0,-24 18,-45 41,-46 v 0 c 22,-1 42,19 43,43 l 1,38 c 34,-1 67,-2 101,-3 v -43 c 0,-25 19,-45 42,-45 v 0 c 22,0 41,20 41,45 v 41 c 22,0 45,0 67,0 22,0 44,0 67,0 v -41 c 0,-25 18,-45 41,-45 v 0 c 23,0 42,20 42,45 v 43 c 34,1 67,2 101,3 l 1,-38 c 1,-24 20,-44 43,-43 v 0 c 23,1 41,22 40,46 l -1,39 c 37,2 74,4 112,7 l 2,-38 c 2,-24 22,-43 44,-41 v 0 c 23,1 41,23 39,48 l -2,38 c 36,3 72,6 109,10 l 3,-38 c 3,-25 23,-43 46,-40 v 0 c 23,2 39,24 37,49 l -4,38 c 40,5 79,10 118,15 l 4,-37 c 4,-25 25,-42 47,-39 v 0 c 23,4 39,27 36,51 l -5,37 c 35,6 70,11 104,17 l 5,-37 c 4,-24 25,-41 48,-37 v 0 c 22,3 38,26 35,51 l -5,38 c 36,6 72,13 108,21 l 6,-38 c 4,-24 26,-40 49,-36 v 0 c 22,5 37,28 33,53 l -7,38 c 34,7 68,15 101,23 l 8,-37 c 5,-24 27,-40 50,-34 v 0 c 22,5 36,29 31,53 l -7,38 c 43,11 85,23 128,34 l 54,-140 C 2830,100 2270,20 1687,20 Z" id="path79" />
				<path class="fil9" d="m 1729,344 c 28,-30 41,-53 -5,-71 -58,-23 -16,-23 -74,0 -46,18 -34,41 -6,71 34,36 -25,72 -37,23 -10,-41 -22,-64 -60,-30 -47,42 -27,3 -37,68 -8,53 16,52 54,41 46,-13 46,60 0,47 -38,-11 -62,-11 -54,41 10,65 -10,26 37,68 38,34 50,11 60,-30 12,-49 71,-13 37,23 -28,31 -40,53 6,72 58,23 16,23 74,0 46,-19 33,-41 5,-72 -33,-36 26,-72 38,-23 10,41 22,64 60,30 47,-42 26,-3 37,-68 8,-52 -16,-52 -55,-41 -45,13 -45,-60 0,-47 39,11 63,12 55,-41 -11,-65 10,-26 -37,-68 -38,-34 -50,-11 -60,30 -12,49 -71,13 -38,-23 z m -42,80 c 23,0 42,20 42,46 0,25 -19,46 -42,46 -24,0 -43,-21 -43,-46 0,-26 19,-46 43,-46 z" id="path81" />
				<path class="fil9" d="m 3256,486 c -5,1 -15,2 -30,1 -50,-2 -46,25 -31,64 19,47 -48,57 -43,6 5,-42 2,-68 -45,-52 -58,20 -25,-8 -58,48 -26,45 -3,55 36,60 47,7 21,74 -16,44 -32,-26 -54,-37 -65,15 -13,65 -19,20 10,79 24,47 43,30 67,-4 28,-40 70,17 26,37 -36,17 -56,32 -19,68 10,10 15,17 19,22 l 59,-152 c -16,-12 -22,-35 -15,-55 8,-20 27,-31 46,-28 z" id="path83" />
				<path class="fil9" d="m 118,486 c 5,1 14,2 30,1 50,-2 46,25 30,64 -18,47 49,57 43,6 -5,-42 -2,-68 46,-52 58,20 25,-8 57,48 27,45 4,55 -36,60 -46,7 -21,74 17,44 31,-26 54,-37 65,15 13,65 18,20 -10,79 -24,47 -43,30 -67,-4 -28,-40 -70,17 -26,37 36,17 56,32 19,68 -10,10 -16,17 -20,22 L 208,722 c 16,-12 22,-35 15,-55 -8,-20 -27,-31 -47,-28 z" id="path85" />
			</g>
		</g>
	</g>
</svg>
