<svg width="700" height="500" fill-rule="evenodd" xmlns="http://www.w3.org/2000/svg">
    <path d="M0 0h700v500H0z" fill="#fff" />
    <g stroke="#000" stroke-width="1.9863140000000001">
        <path
            d="M344.132 402.484c-3.444-2.574-9.571-4.046-13.372-5.308-7.507-2.493-17.472-5.038-21.983-6.685-8.236-3.008-16.75-6.728-23.869-11.86-13.94-10.046-34.202-38.061-38.02-47.271-8.15-16.65-12.554-34.419-12.554-52.472V93.017h231.358v185.871c-.445 18.65-5.088 37.797-13.632 54.452-10.538 18.547-25.679 36.678-37.239 45.23-7.158 5.267-15.95 8.965-24.245 11.845-7.243 2.653-16.031 4.622-21.781 6.676-4.02 1.33-9.975 3.065-13.35 5.562l-5.432 4.122z"
            stroke-miterlimit="8" />
        <path
            d="M359.476 290.626v-28.393h97.537v16.65c0 3.857-.262 7.8-.788 11.743zm0 100.43v-64.762h86.32c-8.15 17.264-20.506 33.213-36.193 45.132-13.846 10.43-35.493 14.285-49.69 19.543-.262.088-.175 0-.437.088zM243.1 246.287h97.452v-60.905h-2.103a4.526 4.526 0 01-4.558-4.558 4.526 4.526 0 014.558-4.557h1.576c-1.051-4.645-3.242-8.675-5.17-13.057h-2.804c-2.541 0-4.558-2.104-4.558-4.645 0-2.454 2.017-4.557 4.558-4.557h2.103c-2.541-20.594-20.331-36.807-41.54-36.807-23.047 0-41.977 18.93-41.977 41.977v2.98H243.1z"
            fill="#fe0000" />
        <path
            d="M340.554 290.626v-28.393h-97.451v16.65c0 3.857.263 7.8.702 11.743zm0 100.43v-64.762h-86.322c8.15 17.264 20.508 33.213 36.281 45.132 13.76 10.43 35.405 14.285 49.602 19.543.263.088.176 0 .439.088zm116.47-144.77h-97.539v-60.905h2.19c1.316 0 2.455-.527 3.33-1.49a8.502 8.502 0 005.347-1.929c1.489 1.314 3.417 1.929 5.345 1.929 2.017 0 3.944-.615 5.434-1.929 1.49 1.314 3.418 1.929 5.433 1.929 2.016 0 3.943-.615 5.433-1.929 1.49 1.314 3.419 1.929 5.434 1.929 1.929 0 3.857-.615 5.346-1.929 1.578 1.314 3.505 1.929 5.434 1.929 2.015 0 3.943-.615 5.432-1.929 1.49 1.314 3.419 1.929 5.434 1.929 1.928 0 3.944-.615 5.434-1.929 1.489 1.314 3.417 1.929 5.433 1.929 1.928 0 3.856-.615 5.346-1.929 1.577 1.314 3.505 1.929 5.433 1.929 2.016 0 3.943-.615 5.433-1.929 1.49 1.314 3.418 1.929 5.434 1.929 1.927 0 3.944-.615 5.434-1.929zm-97.014-70.02c1.051-4.645 3.33-8.675 5.17-13.057h2.892c2.454 0 4.558-2.104 4.558-4.645 0-2.454-2.104-4.557-4.558-4.557h-2.19c2.54-20.594 20.33-36.807 41.627-36.807 23.047 0 41.889 18.93 41.889 41.977v2.98h7.625v13.934l-.527.788c-1.14 1.578-2.892 2.63-4.907 2.63a5.943 5.943 0 01-4.907-2.63l-.527-.788-.525.788a5.943 5.943 0 01-4.908 2.63c-1.928 0-3.768-1.052-4.908-2.63l-.525-.788-.438.788c-1.14 1.578-2.98 2.63-4.908 2.63a5.943 5.943 0 01-4.908-2.63l-.525-.788-.527.788c-1.138 1.578-2.89 2.63-4.907 2.63a5.943 5.943 0 01-4.908-2.63l-.526-.788-.525.788a5.943 5.943 0 01-4.907 2.63c-1.929 0-3.77-1.052-4.909-2.63l-.525-.788-.439.788c-1.139 1.578-2.978 2.63-4.907 2.63a5.943 5.943 0 01-4.907-2.63l-.527-.788-.525.788c-1.14 1.578-2.892 2.63-4.908 2.63-2.016 0-3.768-1.052-4.908-2.63l-.525-.788-.526.788a5.943 5.943 0 01-4.908 2.63c-1.928 0-3.767-1.052-4.907-2.63l-.438-.788-.526.788c-.876 1.315-2.279 2.192-3.856 2.542-.614-1.84-2.278-3.154-4.295-3.154z"
            fill="#0052b6" />
        <path d="M340.554 322.443v-27.869H244.33c1.489 9.29 4.294 18.754 8.15 27.869z" fill="#357600" />
    </g>
    <path
        d="M304.447 158.13c3.33-1.403 5.608-.701 8.237 1.227l-.963.613c-8.764 5.784-8.326 16.476-12.62 24.976-2.016 3.768-4.994 6.572-8.062 9.465 2.716-.439 5.17.7 7.273 3.329l1.49 1.84-2.278-.7c-7.887-2.366-12.356 4.382-15.074 10.692 5.17-.965 5.346 4.206 5.258 7.712-1.314-1.315-3.067-3.418-5.17-3.067-2.892.525-4.995 5.783-5.872 8.237-1.577 4.294-2.454 8.501-3.768 12.794l-4.557 4.208c1.577-6.924 3.33-13.76 4.82-20.682.7-3.33 1.314-6.748 1.402-10.079 0-3.593-.701-7.186-1.314-10.603-1.402-7.099-.439-16.564 5.258-21.033 0-2.191.351-4.557 1.14-6.924 2.015-6.133 4.819-8.675 5.345-15.685.789 1.226 1.489 2.015 1.84 3.505 1.315-5.61 4.119-11.043 7.887-15.512 5.521-6.66 11.919-10.34 20.42-11.656-2.279 5.258-.877 8.063-1.14 13.408-.263 4.295-1.577 5.785-4.557 8.676-1.665 1.665-3.505 3.331-4.994 5.259zm-.964 58.102c-2.016.176-2.716-.351-5.434-.351-2.804.439-3.68 3.067-4.644 5.609-.876 2.279-2.017 4.382-1.753 6.66.176 2.455 1.753 2.98 3.593 4.033-1.227.525-1.314 1.664-.35 2.452 2.892 0 5.696-.176 8.588-.176 2.804 0 5.696.176 8.5.176.964-.789.877-1.927-.35-2.453 1.84-1.052 3.417-1.577 3.681-4.032.176-2.278-.877-4.381-1.753-6.659-1.051-2.543-1.928-5.171-4.732-5.61-2.718 0-3.33.526-5.346.351zm137.501-7.361l.263-.088c3.155-1.578 4.907-3.68 7.624-5.697l.351-.262.438.35c.438.438.788.877 1.139 1.403 2.279 3.33.088 5.959.352 9.376 0 .264 0 .614.086.877.439 3.067 3.418 5.522 2.542 7.712l-.352.876-.613-.7c-.7-.79-1.402-1.316-2.366-1.665-.7-.264-1.489-.439-2.278-.702-1.052-.263-2.016-.702-2.98-1.227-1.139-.613-2.103-1.578-2.892-2.541h-.087c-5.084-.352-8.325-1.753-12.883.7.526.44 1.402.702 2.016 1.052l.35.263-.087.438c-.439 1.49 1.489 5.083-.613 5.17-2.542.176-5.522-1.313-7.45-2.89l-.175-.177c-2.63 1.14-6.572.877-9.464 1.052-1.665.088-4.12.701-5.96 1.227.877.526 1.928.964 2.717 1.402.525.176 1.227.526 1.052 1.227-.176.7-1.402.7-1.929.614-1.664-.176-3.768-.965-5.258-1.578a5.745 5.745 0 01-1.84-1.051l-.613.087c-5.083.439-9.64.526-14.635-.087-.701-.088-1.403-.176-2.017-.351.352.35.702.613 1.14.877.351.175.702.525.614 1.051-.263.701-1.402.701-1.928.614-1.577-.352-3.594-1.665-4.82-2.63-.701-.525-1.14-.789-1.402-1.402-.352.352-.965.352-1.578.088-.789-.438-1.753-1.402-2.366-1.578l-.263-.087-.35-.088c-1.841-.526-2.98-.789-4.733-1.664-.7-.352-2.103-1.14-2.804-1.228-.789-.176-3.418-1.489-3.943-2.103l-.439-.526.525-.35c.439-.351.79-.702 1.316-1.052h.088c-.439-.438-.79-.964-1.228-1.577l-.438-.701.789-.176a112.6 112.6 0 005.083-1.489c1.14-.438 3.593-1.14 4.557-1.754 2.19-1.402 5.083-1.84 7.537-1.927 5.87-.264 11.567-1.49 17.439-1.14h.438l.351-.351c1.665-1.577 4.118-4.556 6.572-4.556 1.314 0 6.924 2.892 8.062 3.856.526.525-.262 1.402-.788 2.016h.087c2.98.175 6.047.438 8.939.876s5.697 1.577 8.588 1.927c.088 0 .176 0 .263.088l.614-.438c1.227-.788 2.454-1.928 3.856-2.366.701-.263 1.489-.263 2.016.35.262.439.438 1.052.175 1.49-.264.439-.438.964-.614 1.403 1.402 0 2.892 0 4.033-.176z" />
    <path
        d="M272.279 234.811l-2.717 2.542c5.784-25.503 6.923-25.941 4.382-39.437-1.228-6.134.088-15.511 4.206-19.455.701 3.33 2.016 6.397 4.031 9.203-3.418-6.399-3.593-12.007-1.84-17.265 1.402-4.382 4.469-8.5 5.083-13.934 1.313 1.927.701 5.696 1.226 8.763 0-15.775 12.708-31.286 27.343-33.564-2.192 5.258.876 12.532-2.104 17.439-1.752 2.805-7.273 6.485-9.726 11.13 3.855-2.717 6.747-2.542 9.201-.876-9.115 5.959-8.675 16.825-12.97 25.239-2.454 4.82-6.573 7.887-10.43 11.567 4.033-2.103 7.1-1.226 9.729 2.016-7.888-2.366-12.795 3.418-16.563 12.533 3.505-1.316 5.783-.264 5.871 4.818-5.083-5.17-8.588.176-11.042 6.661 3.505-16.476 9.99-33.651 16.3-50.215.614-1.577 1.227-3.243 1.84-4.82.088-.175 0-.351-.175-.351-.175-.087-.35 0-.438.176-.613 1.577-1.227 3.154-1.752 4.732-7.01 18.403-14.197 37.42-17.44 55.561-.877 3.155-1.578 6.047-2.016 7.537zm34.528-96.4c.087-.175.263-.262.438-.087.175.088.175.263.088.35-6.573 11.13-12.533 22.698-17.703 34.704-4.995 11.48-9.202 23.311-12.444 35.317 0 .176-.176.263-.351.263a.482.482 0 01-.263-.437c3.243-12.007 7.45-23.837 12.444-35.406 5.171-12.005 11.13-23.662 17.791-34.703zm100.517 84.569c1.49-.438 4.908-1.314 6.574-1.402 2.453-.176 6.834.088 9.289-1.052 1.052-.438 2.278-1.402 3.242-2.016.614-.437 1.227-.964 1.928-1.402 5.083-2.98 7.975-1.49 13.846-1.139.79-1.139 1.052-1.928.877-2.804-.176-.964-.877-2.104-2.192-3.68-1.927.35-5.257.175-7.36.087-1.053-.088-2.192-.176-3.156-.351-2.804-.35-5.696-1.49-8.587-1.928-2.016-.35-5.96-.7-8.851-.964l-14.811-.876c-5.784-.35-11.48.789-17.352 1.051-1.752.088-4.907.352-7.186 1.84-1.489.964-8.851 3.068-9.815 3.33 1.227 1.929 1.928 2.368 3.33 3.419.351.351.613.789.262.963-.35.176-2.103-1.402-2.716-1.927-.438.263-.876.701-1.227.964.438.526 2.892 1.84 3.593 1.928.7.176 1.84.788 2.98 1.314.263.176 1.578.263 2.279-.877.613-.963.788-2.19.613-3.33-.088-.525-.352-1.05-.701-1.664-.088-.088 0-.263.176-.351.087-.087.262 0 .35.088.35.614.613 1.139.7 1.84.352 1.84-.176 4.032-1.664 5.083.963.35 1.928.525 2.892.79.438-.615 1.14-1.052 1.84-1.49.79-.44 1.49-.878 1.577-1.579.176-1.051-.437-2.453-1.226-3.768-.79-1.315-1.753-2.453-2.28-3.068-.087-.086-.087-.262.089-.35a.267.267 0 01.35 0c.526.614 1.49 1.753 2.28 3.156.262.262.436.525.524.876a2.089 2.089 0 01.527-.964c.262-.264.788-.526 1.226-.526.526 0 .964.262 1.227.526.35.35.526.789.526 1.314 0 .526-.176.964-.526 1.314-.263.352-.7.527-1.227.527-.35 0-.701-.088-.964-.352.088.527.088.965.088 1.403-.176.964-1.051 1.49-1.928 2.016-.526.35-1.14.7-1.578 1.139.877.263 1.49 1.14 2.541 1.578.439.262 1.052.437.965-.439-.088-.526 0-1.051.35-1.314.702-.614 1.578 0 1.841.087 1.402.789 3.067 2.454 3.681 2.98 4.819.701 8.15 1.314 17.439.525 0-.087-.088-.262-.176-.437-.087-.439 0-.877.264-1.315.087-.087.175-.176.35-.263.964-.789 3.593.701 4.82 1.489zm31.9-12.62c.527 0 .964.264 1.227.526.351.35.526.79.526 1.315 0 .526-.176.964-.526 1.315-.263.35-.701.525-1.227.525-.526 0-.964-.176-1.227-.525-.35-.352-.526-.79-.526-1.315 0-.526.176-.964.526-1.315.263-.262.701-.526 1.227-.526zm-9.553.176c.527 0 .965.176 1.228.525.35.352.525.789.525 1.315 0 .439-.176.964-.525 1.227a1.533 1.533 0 01-2.454 0c-.352-.263-.526-.788-.526-1.227 0-.526.175-.964.526-1.315.263-.35.701-.525 1.226-.525zm-7.449 1.489c.527 0 .965.176 1.228.527.35.35.525.788.525 1.313 0 .439-.176.965-.525 1.228-.263.351-.701.526-1.228.526-.525 0-.963-.176-1.226-.526-.352-.263-.526-.79-.526-1.227 0-.526.175-.964.526-1.315.263-.35.701-.525 1.226-.525zm-7.537 0c.527 0 .965.176 1.228.527.35.35.526.788.526 1.313 0 .528-.176.965-.526 1.316-.263.262-.701.525-1.228.525-.437 0-.963-.263-1.226-.525-.351-.352-.526-.79-.526-1.315 0-.526.176-.964.526-1.315.263-.35.79-.525 1.226-.525zm-6.133.964c.525 0 .963.176 1.314.527.263.35.526.788.526 1.313 0 .527-.263.965-.526 1.315-.35.263-.789.527-1.314.527-.439 0-.877-.264-1.228-.527-.262-.35-.525-.789-.525-1.314 0-.526.263-.964.525-1.314a1.73 1.73 0 011.228-.527zm-9.552-.613c.437 0 .876.176 1.226.526.352.351.526.789.526 1.315 0 .437-.175.964-.526 1.226-.35.352-.789.613-1.226.613-.527 0-.965-.262-1.228-.613h-.088c-.262-.262-.438-.789-.438-1.226 0-.526.176-.965.438-1.315h.088c.263-.351.701-.526 1.228-.526zm-7.01 0c.524 0 .963.176 1.312.526.264.351.439.789.439 1.315 0 .964-.701 1.84-1.753 1.84-.438 0-.876-.263-1.226-.614-.352-.262-.526-.789-.526-1.226 0-.526.175-.965.526-1.315a1.73 1.73 0 011.226-.526zm-6.924 0c.963 0 1.752.79 1.752 1.84 0 .965-.789 1.841-1.752 1.841-.527 0-.965-.263-1.228-.614-.35-.262-.525-.789-.525-1.226 0-.526.176-.965.525-1.315.263-.351.701-.526 1.228-.526zm-15.951-.7c.352 0 .789.175 1.053.437.262.351.437.702.437 1.14 0 .35-.176.788-.437 1.05a1.617 1.617 0 01-1.053.44c-.437 0-.788-.177-1.138-.44a1.617 1.617 0 01-.439-1.05c0-.438.176-.79.439-1.14.35-.263.7-.438 1.138-.438zm.614.875a.796.796 0 00-.614-.263c-.263 0-.525.088-.701.263-.176.176-.263.438-.263.701a.796.796 0 00.263.614c.176.176.438.263.701.263a.796.796 0 00.614-.263.796.796 0 00.263-.614c0-.263-.088-.525-.263-.701zm42.328-6.835c.525-.527 1.314-1.403 1.14-1.49-1.316-1.227-6.748-3.769-7.625-3.769-2.191 0-4.557 2.98-6.135 4.47l2.98.176 3.067-3.068c.088-.176.351-.176.438 0a.267.267 0 010 .35l-2.716 2.805 1.226.088 2.63-2.63c.088-.175.262-.175.438 0a.267.267 0 010 .352l-2.279 2.278.877.087 2.19-2.19c.176-.088.352-.088.439 0 .087.087.087.35 0 .437l-1.841 1.753 1.052.088 1.664-1.665c.09-.088.264-.088.44 0 .087.088.087.263 0 .438l-1.403 1.313h.964l1.227-1.226c.088-.087.263-.087.438 0 .088.088.088.352 0 .439l-.876.876zm-31.286 17.35c1.315.966 3.154 2.28 4.557 2.543.525.087 1.929 0 .876-.614-1.313-.788-4.118-3.417-5.696-4.38-.701-.44-1.227-.264-1.227.524.176 1.14.613 1.315 1.49 1.929zm23.925 1.492c1.665.613 3.768 1.402 5.082 1.489 1.052.176 2.103-.087.614-.701-.964-.526-2.805-1.402-3.68-2.016-.79-.438-3.42-2.19-4.207-1.227-.614 1.052 1.402 2.104 2.191 2.455zm19.191-3.681c1.578 1.226 4.47 2.892 7.1 2.804 1.226-.088-.527-2.98.086-4.82-.963-.614-1.664-.702-2.278-1.315-.262.176-.438.352-.7.439.262.262.613.438.875.7.439.263.877.614 1.315.878.176.086.176.262.087.437-.087.088-.262.176-.437.088-.438-.35-.877-.613-1.315-.964-.35-.262-.701-.526-.964-.789-.263.176-.613.35-.877.613.352.264.702.527 1.14.79.614.438 1.227.963 1.752 1.227.088.087.176.262.088.437-.088.088-.262.176-.438.088a70.714 70.714 0 01-1.753-1.226 52.601 52.601 0 00-1.226-.965c-.352.176-.614.438-.965.614a10.13 10.13 0 001.754 1.139c.7.438 1.402.789 2.015 1.051.088 0 .176.176.176.352-.088.174-.264.262-.439.174a14.98 14.98 0 01-2.016-1.051c-.789-.439-1.577-.964-2.016-1.314-.262.175-.612.35-.963.613zm12.27-11.831c.175-.525.613-1.402.7-1.577.176-.438-.087-1.49-1.488-1.053-1.316.439-2.718 1.665-3.77 2.367.263 0 .526.088.876.088.527-.176 1.053-.438 1.578-.701.439-.176.877-.438 1.14-.701.176-.088.35-.088.438 0 .087.175.087.35 0 .437a8.657 8.657 0 01-1.315.79l-.525.262c.789.088 1.577.088 2.366.088zm6.573 7.186c.7.789 1.576 1.84 2.716 2.454 3.593 1.84 5.434.963 7.8 3.593.351-.789.087-1.489-.439-2.279a14.53 14.53 0 00-2.891-1.314c-1.227-.35-2.542-.613-3.944-.877-.176 0-.263-.175-.263-.35s.175-.263.351-.263c1.49.262 2.803.526 4.03.963.79.264 1.49.527 2.192.877-.263-.438-.527-.877-.79-1.402-.612-.262-1.226-.526-1.928-.7-1.226-.352-2.628-.527-4.206-.702-.176 0-.263-.088-.263-.263 0-.175.176-.263.352-.263 1.489.088 2.978.351 4.293.7.526.177.964.265 1.402.44-.176-.351-.262-.877-.35-1.315-1.402-.438-2.98-.526-4.645-.438-.088 0-.263-.088-.263-.263 0-.176.088-.263.263-.352 1.578-.086 3.155.09 4.47.44 0-.352-.088-.614-.088-.877 0-.613 0-1.226.088-1.84-.352.087-.614.262-.965.351a18.94 18.94 0 01-3.593 1.139c-.176 0-.35-.088-.35-.176-.087-.175 0-.35.175-.35 1.227-.351 2.366-.702 3.506-1.14l1.314-.526c.088-.438.176-.788.264-1.226-.439.263-.877.525-1.404.701-1.138.525-2.278 1.052-3.505 1.402-.087 0-.263-.088-.35-.175 0-.176.087-.351.175-.351 1.227-.438 2.366-.876 3.506-1.402.526-.263 1.14-.525 1.752-.876 0-.438.088-.877.088-1.227-.438.262-.877.613-1.314.877-1.14.7-2.279 1.313-3.681 1.84-.176 0-.352 0-.439-.176 0-.175.088-.351.176-.351a17.23 17.23 0 003.592-1.84 11.16 11.16 0 001.665-1.14c0-.262 0-.524-.087-.788a19.832 19.832 0 01-1.752 1.14c-1.14.7-2.28 1.227-3.506 1.752-.088 0-.262-.087-.351-.176-.087-.175 0-.35.176-.437 1.227-.439 2.279-.964 3.33-1.577a36.755 36.755 0 001.929-1.315c-.088-.263-.176-.526-.352-.79-.613.527-1.226.965-1.927 1.316-.964.613-2.017 1.14-3.155 1.753-.176.088-.352 0-.439-.176 0-.087 0-.263.176-.35 1.139-.614 2.19-1.14 3.154-1.665.614-.439 1.315-.877 1.928-1.315-.262-.438-.7-.876-1.14-1.315-3.504 2.542-4.118 3.857-7.71 5.697 1.227 1.577 1.928 2.629 2.19 3.768.176.964-.175 1.928-.963 3.154zM248.358 331.916c-8.325-16.564-13.058-34.879-13.058-53.02V93.987h229.434v184.91c0 18.141-4.732 36.456-12.97 53.02M341.6 291.69h-98.677l-.088-.877c-.439-3.943-.701-7.974-.701-11.917V261.28H341.6zm0 31.723h-89.738l-.263-.612c-3.857-8.939-6.661-18.404-8.238-28.044l-.176-1.138h98.415zm-1.315 68.62c-.175-.088-.35-.088-.437-.176-4.382-1.577-8.764-2.891-13.233-4.206-4.908-1.49-9.816-2.892-14.724-4.557-7.623-2.716-15.51-6.047-21.996-10.868-15.599-11.83-28.13-27.779-36.543-45.482l-.615-1.402H341.6v67.13zm18.23.438v-67.13h88.861l-.7 1.403c-8.326 17.702-20.858 33.653-36.545 45.484-6.398 4.819-14.373 8.15-21.997 10.867-4.819 1.665-9.814 3.067-14.723 4.556-4.38 1.315-8.85 2.63-13.145 4.207-.176.087-.35.087-.437.176zm0-69.057V293.62h98.326l-.176 1.138c-1.49 9.64-4.381 19.105-8.237 28.044l-.264.613zm0-31.724v-30.41h99.465v17.616c0 3.943-.262 7.974-.789 11.917l-.088.877zm6.396-137.677c2.541-21.12 20.77-37.772 42.59-37.772 23.488 0 42.942 19.368 42.854 42.942v2.017h7.625v86.057h-99.467v-61.87h-16.913v61.87h-99.466V161.2h7.537v-2.017c-.088-23.574 19.366-42.942 42.942-42.942 21.82 0 39.96 16.652 42.502 37.772zm-5.871 22.26c.963-4.646 3.153-8.59 5.083-13.058h-28.219c1.927 4.469 4.118 8.412 5.083 13.057zm-9.027-75.455h107.97v28.745l-1.84-2.63c-7.8-11.83-19.806-20.507-33.477-24.187-10.954-1.84-21.032-1.752-30.322 0a58.034 58.034 0 00-18.93 9.027c-10.778 6.835-18.315 17.001-22.434 28.92l-.964 2.629-.876-2.63c-4.207-11.918-11.743-22.084-22.434-28.92h-.088a58.034 58.034 0 00-18.93-9.027c-9.29-1.751-19.367-1.84-30.234 0-13.758 3.681-25.677 12.358-33.564 24.189l-1.753 2.628v-28.744zM451.76 331.917c-8.677 15.424-23.838 35.404-37.509 45.745-7.098 5.26-15.512 8.94-23.837 11.831-7.274 2.542-14.635 4.47-21.997 6.748-4.03 1.315-10.34 3.243-13.758 5.784l-4.645 3.506-4.645-3.506c-3.417-2.541-9.727-4.469-13.758-5.784-7.274-2.278-14.723-4.206-21.91-6.748-8.324-2.892-16.825-6.572-23.923-11.83-13.672-10.34-28.658-30.322-37.42-45.746"
        fill="#fff" />
    <path
        d="M320.742 310.169l.439.088h.176c.35.088.7.262 1.051.438 1.402.876 2.015 2.54 2.103 4.119.088 1.928-.438 3.856-1.315 5.521.526.613.79 1.402.264 2.19-.526.614-1.315.701-2.103.439-1.228 1.402-2.805 2.541-4.47 3.417.262.877.262 1.84-.613 2.279-.964.613-2.104-.176-2.63-1.052-1.665.527-3.417.79-5.17.877-.088.876-.526 1.665-1.49 1.665-.964.088-1.578-.789-1.84-1.578-1.14-.087-2.366-.176-3.506-.35-.262.614-.7 1.051-1.402 1.051-1.051.088-1.665-.876-1.84-1.84-3.681-1.139-7.362-3.242-10.692-5.083-3.768-2.192-9.903-5.872-14.197-6.397-2.279-.264-4.557-.438-6.922-.438-1.49-.088-3.156-.088-4.645-.263-4.82-.526-6.924-1.84-10.867-4.557-1.49-1.052-1.052-3.242-.263-4.645l.088-.175-.088-.088c-1.052-1.577.176-3.243 1.577-3.856-.613-1.665.088-3.681 1.402-4.733 1.227-.875 2.367-2.277 2.541-3.855v-.526l.088-.175c1.49-8.851 15.511-6.573 21.646-5.609 4.733.79 15.336 3.33 17.79 7.712l.088.088v.088c.088.438.088.875.088 1.226l.35.438c7.624 8.764 9.29 10.954 21.471 13.146h.35l.264.087c.7.088 1.402.263 2.103.35z" />
    <path
        d="M300.238 328.75c-.789 0-1.314-.877-1.314-1.753-8.15-2.541-18.491-10.78-25.327-11.656-5.697-.613-9.027-.35-11.568-.613-4.557-.525-6.398-1.665-10.604-4.557-1.14-.789-.789-2.63-.088-3.768 7.274 4.645 11.831 5.258 16.301 5.871 2.19.352 4.381.613 6.748 1.402 2.891.964 5.871 2.103 8.851 3.33 13.584 5.521 28.218 11.568 37.858-6.134 2.98.438 3.944 5.17 1.402 9.64.526.438.877 1.14.526 1.665-.438.438-1.139.438-1.84.088-1.226 1.489-2.892 2.804-5.17 3.856.525.7.701 1.665 0 2.016-.789.437-1.753-.352-2.103-1.228-1.665.527-3.681.877-5.96 1.052 0 .789-.263 1.578-.964 1.665-.789 0-1.227-.876-1.314-1.665-1.227 0-2.63-.176-4.032-.35-.175 0-.35 0-.438-.088-.087.614-.437 1.139-.964 1.227z"
        fill="#ffe330" />
    <path
        d="M312.16 323.849c.263.176.438.613.263.963-.263.79-1.227 1.14-2.016.876-.876-.262-1.052-1.138-.087-1.752.525-.35 1.226-.526 1.84-.087zm4.644-2.806c.526-.174 1.315.439 1.403.965.175.701-.351 1.314-1.14 1.227-.614-.087-1.227-.526-1.227-1.139-.088-.438.439-.965.964-1.053zm-12.356 3.156c.613 0 .876.438.789.964 0 .35-.176.613-.439.876-.262.438-.964.438-1.402.263-1.314-.614.176-2.279 1.052-2.103z" />
    <path
        d="M295.327 295.01c-2.367-4.382-13.76-6.747-17.352-7.362-6.135-.963-19.63-3.153-20.946 5.084.264.087.702-.176 1.316-.702l.525-.526-.088.701c0 .527 0 1.053.088 1.403s.176.526.352.701c.174.087.525.176.962.087.439 0 .877-.175 1.403-.35l.526-.263-.088.526c-.087.438-.176.876-.087 1.227 0 .351.176.613.437.789.176.088.352.175.614.175.263-.087.526-.175.788-.351l.527-.263-.088.527c0 .613.088 1.051.262 1.489.176.263.352.438.615.526.262.176.525.176.875.088a2.557 2.557 0 001.228-.701l.438-.439.087.526c.088.526.526 2.104 1.14 2.278.438.088 1.051-.35 1.84-1.139l.35-.438.088.614c.176.35.263.7.35.963.177.176.351.439.526.702.088 0 .088.087.176.087.438.176 1.052.088 1.84-.526l.351-.263.087.527c.088.437.176.876.351 1.138.087.264.35.439.614.527.262 0 .525 0 .788-.176.351-.263.614-.613.964-1.052l.35-.525.177.613c.174.438.262.789.525 1.052.088.175.35.262.525.262a.796.796 0 00.614-.262c.263-.176.438-.526.701-.964l.263-.526.263.526c.175.438.438.789.7 1.052.263.175.44.262.614.262.263 0 .526-.176.789-.438s.438-.613.613-1.052l.176-.7.35.613c.088.176.176.263.176.438.263.438.525 1.051 1.226.964.176 0 .352-.087.527-.351.175-.263.262-.788.262-1.313l.088-.615.438.439c.263.263.614.613.876.789.263.087.526.176.876 0 .352-.088.439-.439.526-1.14.088-.175.088-.351.176-.613l.087-.614.439.526c.526.613.963 1.052 1.402 1.14.351.087.789-.176 1.14-.614l.175-.176.263.176c4.644 5.083 8.763 8.5 12.444 10.779 3.505 2.103 6.66 3.155 9.552 3.417.789-.7 1.489-1.489 2.19-2.365-10.69-1.315-15.073-5.609-21.645-12.094l-.877-.876.176-.176c0-.088.087-.175.175-.262.438-.614 1.14-1.578.789-3.506zm-2.718.876c-.35 1.228-2.278 2.017-4.644 2.454-3.506.701-8.15.789-9.815.526-2.63-.351-5.346-1.227-7.975-2.367-2.54-1.051-5.082-2.453-7.45-3.68-1.05-.614-1.664-1.139-1.927-1.665-.262-.438-.262-.876 0-1.227.176-.351.614-.613 1.052-.876 1.226-.614 3.243-.876 5.083-.964.964 0 2.278.088 4.119.262 1.488.088 3.417.352 5.696.702 3.33.438 6.923 1.139 9.728 2.016 1.84.525 3.505 1.138 4.557 1.927 1.139.79 1.84 1.665 1.664 2.63 0 .088 0 .175-.088.262zm25.152 14.373c-13.058-2.28-14.81-5.17-21.821-13.321-.176.877-.613 1.49-.964 1.928v.088l.439.438c6.659 6.485 10.954 10.779 21.645 11.918.263-.262.438-.613.701-1.051zm-7.186 14.197c-.438.262-.438.525 0 .7h.525c.352 0 .701-.175.79-.526 0-.175 0-.262-.089-.35-.437-.263-.875-.087-1.226.176zm-6.135.262c-.35 0-1.402.79-.875 1.052.262.088.7.088.788-.088a.796.796 0 00.263-.613c.087-.176 0-.263-.176-.35zm12.094-2.365c.176.087.438.262.701.262.263.088.439-.176.439-.438a1.056 1.056 0 00-.439-.438c-.525-.438-1.051.263-.7.614zm-63.886-19.895c-1.051.439-2.192 1.754-1.402 2.98.35.439.613.527 1.052.79 6.748 4.294 11.129 4.907 15.423 5.52 2.192.264 4.382.614 6.836 1.403 2.892.876 5.872 2.103 8.939 3.33 13.233 5.433 27.604 11.305 36.982-5.784a68.64 68.64 0 01-2.103-.263c-7.275 12.883-22.523 7.362-34.178 3.154-4.032-1.402-7.537-2.716-10.165-2.979l-.352-.087.088-.263c.351-1.753.264-3.419-.263-5.083-.35-1.314-1.051-2.63-1.928-3.944-.263-.176-.438-.438-.525-.789l-.176-.176c0-.174-.087-.261-.087-.437-.614.526-1.14.877-1.578.964a12.838 12.838 0 011.578 3.33c.525 1.753.613 3.593.263 5.434v.262h-.263c-3.944-.262-7.45-1.139-10.516-2.541-2.805-1.314-5.259-2.892-7.625-4.82z"
        fill="#fff" />
    <path
        d="M380.425 213.159c-.264-.264-.526-.352-.877-.352s-.613.088-.789.352c-.262.263-.35.525-.35.876s.088.7.351.877c.175.262.438.35.788.35.352 0 .613-.088.877-.351.176-.175.35-.526.35-.876s-.175-.613-.351-.876zm29.007.788c-.176-.263-.526-.35-.876-.35-.264 0-.614.087-.789.351-.263.175-.352.525-.352.876s.09.613.352.876c.176.263.525.351.789.351.35 0 .701-.088.876-.351.176-.263.351-.526.351-.876 0-.352-.175-.701-.351-.877zm30.585-2.628a1.11 1.11 0 00-.788-.352c-.352 0-.615.176-.877.352-.176.262-.35.525-.35.875 0 .352.175.701.35.877.262.263.526.35.877.35s.613-.087.787-.35c.264-.176.352-.526.352-.877s-.088-.613-.352-.875z"
        fill="#f70d0e" />
    <path
        d="M392.864 213.252c-.263-.176-.526-.35-.877-.35-.263 0-.613.175-.789.351-.262.263-.35.613-.35.964s.088.613.351.876c.175.175.525.351.788.351.352 0 .614-.176.877-.351.176-.263.35-.526.35-.876 0-.352-.175-.701-.351-.965zm30.146-.35a1.11 1.11 0 00-.789-.351c-.35 0-.613.176-.876.352-.175.262-.351.613-.351.963s.176.613.351.876c.263.176.526.352.876.352.352 0 .614-.176.79-.352.262-.263.35-.525.35-.876s-.088-.7-.35-.964z"
        fill="#1268a5" />
    <path
        d="M399.792 213.252a1.11 1.11 0 00-.79-.35c-.35 0-.613.175-.876.351-.176.263-.35.613-.35.964s.175.613.35.876c.263.175.526.351.877.351s.613-.176.788-.351c.263-.263.351-.526.351-.876 0-.352-.088-.701-.351-.965zm30.76-1.753c-.263-.262-.527-.438-.878-.438s-.613.176-.788.438c-.263.176-.438.527-.438.877s.176.613.438.876c.176.176.438.352.788.352.352 0 .615-.176.877-.352.176-.263.35-.525.35-.876s-.175-.7-.35-.877z"
        fill="#3b3c45" />
    <g fill="#ffe330">
        <path
            d="M266.499 294.132c1.314.613 2.628 1.314 3.943 1.84 2.542 1.14 5.17 2.016 7.8 2.366 1.314.176 4.557.088 7.624-.263-2.629-1.928-5.609-3.242-8.94-3.943a27.797 27.797 0 00-10.427 0z" />
        <path
            d="M287.882 297.73c2.191-.439 3.944-1.052 4.206-2.016v-.175c.176-.701-.438-1.402-1.402-2.103-1.051-.701-2.541-1.315-4.382-1.84-2.804-.877-6.31-1.49-9.64-2.017-2.278-.262-4.118-.525-5.696-.7-1.753-.088-3.154-.176-3.944-.176-1.84 0-3.768.352-4.907.877-.35.176-.701.438-.79.613-.086.263-.175.438 0 .701.264.439.79.877 1.753 1.402.79.439 1.665.877 2.542 1.402 4.032-.875 7.887-.875 11.48-.087a22.67 22.67 0 019.553 4.382c.438-.088.789-.176 1.227-.263zm-30.936-4.382v.088c-.175 1.664-1.313 3.067-2.805 4.294-1.313 1.051-1.84 3.067-.963 4.382 2.279 1.84 4.645 3.417 7.274 4.645 3.067 1.313 6.31 2.19 10.077 2.453.264-1.664.176-3.33-.35-4.995a10.78 10.78 0 00-1.84-3.593c-.614-.438-.964-1.402-1.14-2.103-.35.35-.788.525-1.139.613-.438.088-.876.088-1.227-.088s-.613-.525-.876-.876c-.176-.351-.262-.789-.262-1.227-.264.088-.439.088-.615.088-.437.088-.787-.088-1.051-.263-.438-.263-.613-.7-.701-1.14v-.876a2.699 2.699 0 01-1.14.264c-.525.086-.963 0-1.313-.264-.264-.176-.44-.525-.527-.964-.087-.262-.087-.613-.087-.963-.526.35-.964.525-1.314.525zm15.6 8.326a12.838 12.838 0 011.577 3.33c.438 1.664.614 3.33.263 5.082 2.629.352 6.134 1.578 10.078 2.98 9.552 3.505 21.645 7.8 29.446 1.753-2.805-.352-5.872-1.402-9.29-3.505-3.68-2.191-7.712-5.609-12.356-10.516-.438.437-.877.525-1.403.437-.437-.088-.876-.35-1.402-.876v.087c-.176.79-.263 1.228-.964 1.578-.438.176-.877.088-1.314-.088v-.088c-.176-.087-.439-.262-.614-.35-.087.351-.176.614-.263.877-.263.438-.525.7-.964.7-1.051.089-1.402-.526-1.752-1.139-.088.263-.264.439-.439.701-.35.352-.789.613-1.227.613-.263 0-.701-.175-1.052-.437-.175-.264-.35-.438-.525-.701-.176.263-.351.437-.526.613a1.388 1.388 0 01-1.052.439c-.437 0-.788-.176-1.051-.527-.088-.176-.263-.438-.35-.7-.264.35-.526.526-.79.7-.437.263-.876.352-1.226.263-.526-.087-.79-.35-1.052-.788-.175-.264-.262-.526-.351-.877-.526.263-.963.439-1.401.439zm143.023-88.688c-.263-.262-.527-.35-.877-.35s-.613.088-.788.35c-.264.176-.352.527-.352.877s.088.613.352.876c.176.263.437.352.788.352.351 0 .614-.09.877-.352.175-.263.35-.525.35-.876s-.176-.7-.35-.877zm-29.621.263c-.263-.176-.526-.35-.876-.35-.352 0-.614.175-.877.351-.176.263-.35.613-.35.964s.175.613.35.876c.263.175.526.351.877.351s.613-.176.876-.351c.175-.263.351-.526.351-.876 0-.352-.176-.701-.351-.965z" />
        <path
            d="M457.013 101.777h-34.09c14.02 3.855 26.115 12.706 34.09 24.536zm-213.914 0h34.09c-14.11 3.855-26.203 12.706-34.09 24.536zm148.98 0a59.832 59.832 0 00-19.193 9.201c-10.954 6.923-18.667 17.35-22.872 29.357-4.207-12.005-11.832-22.434-22.786-29.357-5.784-4.12-12.269-7.274-19.28-9.202z"
            stroke="#000" stroke-width="1.9863140000000001" />
    </g>
    <path
        d="M316.451 289.23c.79-.438 1.84-2.103 3.33-2.103h.702c0 1.49-.176 1.402-.701 2.717 3.857-1.753 4.907-1.403 5.346-1.14.613.526-.876 1.84-1.052 2.717.613-.263 4.118-1.928 5.872-.263 1.226 1.227.263 2.104-.088 3.33 0 .176 6.047-.7 4.119 2.892-.176.263 4.47 0 3.769.526-.527.526-2.63 2.279-2.63 2.98-.176.613 2.103.613 2.191 2.541 0 1.402-2.19.964-3.769 2.717.79 1.051 2.104 1.577 2.367 2.804.176.877-.351 2.279-2.804 2.717 1.402.525 2.366 1.226 2.278 2.716-1.402-1.139-5.697-1.051-4.908-.262 1.228 1.402.79 3.943.701 3.943-2.629-1.577-5.784.263-7.711 1.14-.701.263-2.367 0-2.98-.176-2.016-.35-3.857-1.577-5.959-2.19-1.402-.351-3.857-1.928-4.995-2.805-1.665-1.314-2.892-4.206-3.067-6.31-.088-1.314-.702-2.016-1.227-3.242-2.893-5.784.175-3.681.262-8.062 0-3.593 5.522-6.223 8.238-7.625 1.402-.701 1.84-1.052 2.716.438zm101.308-3.593c2.19-1.928 3.943-2.366 6.572-1.051.088-.613.351-1.315.789-1.753 1.928-1.928 4.47-.088 5.959 1.577.438-.35.964-.525 1.49-.613 2.453-.35 3.943 2.279 4.031 4.47.088.788.964 2.453 1.929 2.366.787 0 .7-1.49.613-2.017-.439-2.103.613-3.505 2.716-3.68 3.593-.262 5.872 3.944 6.223 7.099.963 8.062-5.17 12.356-12.007 14.723-.525.437-1.052 1.226-1.577 1.752-.613.526-1.402 1.052-2.191 1.139-.877.088-1.578-.438-2.103-1.139-.701.876-1.665 1.665-2.804 1.577-1.228-.088-2.104-.876-2.63-1.927-2.366 2.19-4.733.876-6.66-1.402-.088.963-.613 1.927-1.578 2.278-.262.088-.525.175-.876.088.263 1.489.088 3.154-1.402 3.767-.964.352-1.928-.086-2.63-.7-.35 1.752-1.488 3.68-3.417 3.68s-2.98-1.928-3.418-3.68c-.701.614-1.665 1.051-2.542.7-1.488-.613-1.752-2.277-1.488-3.767-.264.087-.527 0-.877-.088-.964-.35-1.402-1.315-1.49-2.278-1.928 2.278-4.381 3.593-6.748 1.402-.439 1.051-1.314 1.84-2.542 1.927-1.226.088-2.103-.7-2.892-1.577-.437.701-1.226 1.227-2.015 1.139-.876-.087-1.665-.613-2.191-1.139-.613-.526-1.14-1.315-1.577-1.752-6.836-2.367-13.058-6.661-12.007-14.723.352-3.155 2.542-7.362 6.223-7.099 2.016.176 3.067 1.577 2.716 3.681-.176.526-.176 2.016.526 2.016.964.087 1.928-1.578 1.928-2.366.176-2.192 1.665-4.82 4.12-4.47.525.088 1.05.262 1.401.613 1.49-1.665 4.119-3.505 6.047-1.577.439.438.701 1.14.79 1.753 2.54-1.315 4.38-.877 6.484 1.051.263-.526.701-.963 1.227-1.14.351-.175.613-.175.877-.175-.264-1.401 0-3.154 1.488-3.68.877-.352 1.841 0 2.542.701.438-1.84 1.49-3.681 3.418-3.681 1.928 0 3.067 1.84 3.418 3.681.7-.701 1.665-1.052 2.63-.701 1.488.525 1.664 2.279 1.401 3.681.35 0 .614 0 .876.176.614.175.965.612 1.228 1.137z" />
    <path
        d="M320.132 318.327c.088 0 .176 0 .263.088.264 0 .526.088.526.088.964.176 3.155.525 1.14-.526-1.052-.439-1.84-2.892-.79-4.47 2.104-2.891-1.577-4.381.089-5.345 1.138-.701.788-1.052 1.051-2.103.087-.439.788-1.052.964-1.578.263-1.84-2.366-2.191-2.191-3.417.088-.615.789-.527.964-1.665.175-.877.263-2.368-.876-2.543-2.191-.262.438-2.19.088-3.33-.352-1.227-2.192-.7-2.367-2.102-.35-2.104.789-2.28.789-3.682-1.226 0-2.98 2.542-3.593 2.192h-.263c-.088.262-.351.7-.351.788-.175.351-.262.702-.35 1.052-.176.876 0 1.753 1.84 2.103.351.088.79.439 1.14.964.087.176 0 .263.087.438a.558.558 0 010 .526c0 .175-.087.263-.263.351-.613.438-.438 1.139-.35 1.84 0 .613 0 1.051-.613 1.665-.877.876-.877 1.665-.527 2.016.263.262.701.438 1.14.525.963.352 2.19.701 2.19 2.103 0 .789-.788 1.14-1.401 1.84-.527.527-1.052 1.403-1.14 1.841-.176.613-.088 1.14.176 1.578.175.525.613.876 1.138 1.14l.088.086c.352.176.527.527.613.965 0 .35 0 .788-.175 1.139-.087 0-.087.087-.175.175-.437.613-.525 1.49-.35 2.454 0 .176.087.263.087.35.263.877.701 1.49 1.402 2.454zm50.216-137.15c-1.228 1.14-2.98 1.929-4.82 2.104a4.71 4.71 0 00.701-2.454c0-.263-.088-.613-.088-.876 1.753-.351 3.243-1.314 4.207-2.717a6.413 6.413 0 005.345 2.892c2.28 0 4.295-1.139 5.434-2.892 1.226 1.753 3.154 2.892 5.433 2.892s4.207-1.139 5.433-2.892c1.14 1.753 3.155 2.892 5.434 2.892a6.413 6.413 0 005.346-2.892c1.227 1.753 3.242 2.892 5.433 2.892 2.278 0 4.295-1.139 5.433-2.892 1.227 1.753 3.156 2.892 5.434 2.892 2.279 0 4.206-1.139 5.433-2.892 1.14 1.753 3.155 2.892 5.434 2.892a6.413 6.413 0 005.346-2.892c1.226 1.753 3.243 2.892 5.433 2.892 2.278 0 4.294-1.139 5.433-2.892 1.228 1.753 3.155 2.892 5.434 2.892 2.278 0 4.206-1.139 5.434-2.892v3.943c-1.403 1.316-3.331 2.104-5.434 2.104-2.191 0-4.12-.788-5.434-2.104-1.314 1.316-3.242 2.104-5.433 2.104-2.104 0-4.031-.788-5.433-2.104-1.315 1.316-3.243 2.104-5.346 2.104-2.192 0-4.12-.788-5.434-2.104-1.402 1.316-3.33 2.104-5.433 2.104-2.191 0-4.119-.788-5.434-2.104-1.313 1.316-3.242 2.104-5.433 2.104-2.103 0-4.031-.788-5.433-2.104-1.314 1.316-3.243 2.104-5.346 2.104-2.191 0-4.118-.788-5.434-2.104-1.402 1.316-3.33 2.104-5.433 2.104-2.103 0-4.03-.788-5.433-2.104-1.315 1.316-3.243 2.104-5.434 2.104-2.103 0-4.031-.788-5.345-2.104zm-31.9-3.943h23.224c1.928 0 3.592 1.664 3.592 3.593 0 2.016-1.664 3.593-3.593 3.593h-23.223a3.554 3.554 0 01-3.592-3.593c0-1.927 1.576-3.593 3.593-3.593zm-6.397-22.26h36.018c1.928 0 3.593 1.666 3.593 3.594 0 2.016-1.665 3.593-3.593 3.593H332.05a3.554 3.554 0 01-3.593-3.593c0-1.928 1.577-3.593 3.593-3.593zm66.69 131.453c-1.927-1.84-3.593-2.978-7.186-.788.526-2.365-2.19-5.258-6.222-.351-1.489-2.102-4.732-.525-4.907 2.98-.088 1.314-1.315 3.068-2.542 2.98-1.227-.088-1.314-1.753-1.14-2.717.44-2.19-.875-2.892-2.19-2.98-3.243-.262-5.258 3.77-5.609 6.574-.876 7.623 4.733 11.743 11.744 14.109.262.087 1.928 2.716 3.505 2.804.7.088 1.665-.439 1.928-1.665.263.35 1.402 2.191 2.892 2.103.788-.088 1.928-.526 2.454-2.366 1.927 2.366 4.381 2.19 7.098-1.49 1.403-2.804 2.192-5.608 2.366-8.588.088-3.243-.525-6.748-2.19-10.604zm33.39 8.326c.263-.437.263-.788.087-1.226-.176-.352-.525-.527-1.052-.615-.262 0-.7.088-1.051.264.088-.438.176-.877.176-1.14-.088-.526-.264-.876-.615-1.05-.35-.177-.787-.089-1.226.087a3.164 3.164 0 00-.964 1.138v.088-.088a3.164 3.164 0 00-.964-1.138c-.439-.176-.876-.264-1.227-.088-.351.176-.526.525-.614 1.052 0 .262.088.7.176 1.14a2.699 2.699 0 00-1.14-.265c-.438.088-.788.264-.963.615-.176.438-.176.789.088 1.226a3.164 3.164 0 001.138.965v.087c-.525.175-.876.526-1.138.876-.264.439-.264.876-.088 1.227.176.351.525.526.963.614.352 0 .79-.088 1.14-.176-.088.352-.176.79-.176 1.14.088.438.264.789.614.963.35.176.788.176 1.227-.087a3.164 3.164 0 00.964-1.139c.263.525.614.876.964 1.14.439.262.876.262 1.226.086.352-.175.527-.525.615-.963 0-.35-.088-.79-.176-1.14.351.088.789.176 1.051.176.527-.088.877-.264 1.052-.614.176-.35.176-.788-.088-1.227-.263-.351-.613-.7-1.138-.876l-.088-.087h.088a3.164 3.164 0 001.138-.965zm-2.016-8.15c-.79 0-1.49.263-2.016.789a3.147 3.147 0 00-.613.877 3.147 3.147 0 00-.614-.877c-.525-.526-1.226-.789-2.016-.789-.788 0-1.489.263-2.014.789-.527.526-.877 1.227-.877 2.016 0 .35.088.7.176.964-.264-.088-.615-.088-.965-.088-.789 0-1.489.263-2.016.789-.526.525-.788 1.226-.788 2.015s.262 1.578.789 2.017c.262.262.525.437.875.613-.35.176-.613.35-.875.613-.527.525-.79 1.226-.79 2.016 0 .788.263 1.49.79 2.015.525.526 1.226.876 2.016.876.35 0 .7-.088.964-.176a3.152 3.152 0 00-.176.965c0 .79.351 1.49.877 2.017.525.525 1.226.875 2.015.875s1.489-.351 2.016-.877c.263-.262.438-.525.613-.875.175.35.35.613.614.875.525.527 1.226.877 2.016.877.788 0 1.489-.351 2.014-.877.526-.525.79-1.226.79-2.016 0-.35 0-.7-.088-.962.263.086.613.175.964.175.789 0 1.489-.351 2.016-.877.525-.526.788-1.227.788-2.016s-.263-1.489-.789-2.016a3.147 3.147 0 00-.876-.612 3.16 3.16 0 00.876-.614c.526-.438.79-1.227.79-2.016s-.264-1.489-.79-2.016c-.525-.525-1.226-.788-2.016-.788-.35 0-.7 0-.963.088.087-.264.087-.614.087-.965 0-.788-.263-1.489-.789-2.015-.525-.526-1.226-.789-2.015-.789zm5.959 11.743a2.39 2.39 0 01-.701 1.665c-.35.438-.964.702-1.577.702s-1.14-.264-1.578-.614l-.088-.087-.437-.526-.439.438.439.438c.087.087.176.087.176.176.349.35.525.876.525 1.49s-.264 1.226-.614 1.664c-.438.352-1.052.613-1.665.613-.701 0-1.226-.263-1.665-.613a2.395 2.395 0 01-.7-1.665v-.7h-.527v.7c0 .613-.263 1.227-.701 1.665-.439.352-1.052.613-1.665.613s-1.227-.263-1.665-.613a2.395 2.395 0 01-.7-1.665c0-.613.262-1.14.612-1.489 0-.089.088-.089.088-.176l.525-.438-.438-.438-.437.526c-.088 0-.088.087-.176.087a2.115 2.115 0 01-1.49.614 2.395 2.395 0 01-1.665-.701c-.351-.438-.613-1.052-.613-1.665 0-.614.263-1.227.613-1.666a2.395 2.395 0 011.665-.7h.701v-.527h-.701a2.395 2.395 0 01-1.665-.701c-.351-.437-.613-.964-.613-1.665 0-.613.263-1.227.613-1.664.439-.352 1.052-.615 1.665-.615.614 0 1.14.176 1.49.527.088 0 .088.088.176.175l.437.438.438-.439-.525-.437-.088-.088c-.351-.438-.613-.964-.613-1.578 0-.613.263-1.226.701-1.577a2.395 2.395 0 011.665-.7c.613 0 1.226.262 1.665.7.438.35.7.964.7 1.577v.701h.527v-.7c0-.614.263-1.227.701-1.578.439-.438.964-.7 1.665-.7.613 0 1.227.262 1.665.7.351.35.614.964.614 1.577 0 .614-.176 1.14-.527 1.578 0 0-.087.088-.175.088l-.438.525c.176.088.263.176.439.352l.437-.44c0-.086.088-.175.176-.175.35-.35.877-.526 1.489-.526.614 0 1.227.264 1.578.615.438.437.7 1.051.7 1.664 0 .701-.262 1.228-.7 1.665-.35.438-.964.701-1.577.701h-.701v.526h.7c.614 0 1.227.263 1.578.701.438.439.7 1.052.7 1.665zm8.676-2.366c-1.14-.175-2.016-.526-2.804-.876-.701-.438-1.227-.964-1.84-1.665l-.351-.439-.176.615c-.35 2.277-1.05 4.03-1.927 5.52-.964 1.84-2.28 3.505-3.155 4.733 2.191-.701 4.032-1.402 5.871-2.718a19.177 19.177 0 004.558-4.644l.262-.438zm-1.489-7.887c-.702 0-1.403.263-1.84.789-.528.438-.79 1.14-.79 1.84 0 .788.263 1.49.789 1.928.438.526 1.139.789 1.84.789.789 0 1.402-.263 1.928-.79.439-.524.79-1.139.79-1.927 0-.7-.352-1.402-.79-1.84-.526-.526-1.139-.789-1.928-.789zm-35.055 12.532a3.74 3.74 0 01-2.366-.877c.7 1.316 1.315 2.454 1.752 3.506.264.614.527 1.139.614 1.664.176-.525.351-1.05.614-1.664.438-1.052 1.051-2.19 1.84-3.506-.7.527-1.49.877-2.454.877zm-2.366-6.836a3.74 3.74 0 012.366-.877c.964 0 1.753.352 2.454.877a28.157 28.157 0 01-1.84-3.593c-.263-.525-.439-1.14-.614-1.577-.087.438-.351 1.052-.614 1.577-.437 1.052-1.051 2.28-1.752 3.593zm-21.47.964c-.264-.437-.352-.788-.176-1.226.176-.352.613-.527 1.051-.615.352 0 .79.088 1.14.264-.176-.438-.176-.877-.176-1.14.088-.526.264-.876.614-1.05.35-.177.79-.089 1.227.087.351.263.7.613.876 1.138l.088.088v-.088a3.164 3.164 0 01.964-1.138c.35-.176.789-.264 1.14-.088s.613.525.613 1.052c.088.262 0 .7-.176 1.14.438-.177.789-.265 1.14-.265.526.088.876.264 1.051.615.176.438.088.789-.176 1.226-.175.352-.612.701-1.05.965h-.088l.088.087c.438.175.875.526 1.051.876.263.439.35.876.176 1.227-.176.351-.527.526-1.053.614-.35 0-.7-.088-1.14-.176.177.352.265.79.177 1.14 0 .438-.263.789-.613.963a1.077 1.077 0 01-1.14-.087 3.164 3.164 0 01-.964-1.139h-.088c-.175.525-.526.876-.876 1.14-.438.262-.876.262-1.227.086-.351-.175-.526-.525-.614-.963 0-.35 0-.79.176-1.14-.35.088-.789.176-1.14.176-.438-.088-.875-.264-1.051-.614s-.088-.788.176-1.227c.262-.351.613-.7 1.051-.876l.087-.087h-.087a3.736 3.736 0 01-1.051-.965zm2.015-8.15c.789 0 1.489.263 2.016.789.263.263.438.526.613.877.087-.352.35-.614.526-.877.526-.526 1.227-.789 2.103-.789.789 0 1.49.263 2.016.789.525.526.788 1.227.788 2.016 0 .35 0 .7-.176.964.352-.088.614-.088.965-.088.789 0 1.578.263 2.016.789.526.525.876 1.226.876 2.015s-.35 1.578-.877 2.017c-.175.262-.525.437-.788.613.263.176.613.35.788.613.527.525.877 1.226.877 2.016 0 .788-.35 1.49-.877 2.015-.437.526-1.226.876-2.015.876-.35 0-.613-.088-.964-.176.176.264.176.615.176.965 0 .79-.264 1.49-.789 2.017-.526.525-1.227.875-2.016.875a2.902 2.902 0 01-2.103-.877c-.176-.262-.439-.525-.526-.875a3.16 3.16 0 01-.614.875c-.525.527-1.226.877-2.015.877s-1.489-.351-2.016-.877c-.526-.525-.876-1.226-.876-2.016 0-.35.088-.7.176-.962a3.183 3.183 0 01-.965.175c-.788 0-1.49-.351-2.015-.877-.527-.526-.877-1.227-.877-2.016s.351-1.489.877-2.016c.262-.262.526-.438.876-.612a3.147 3.147 0 01-.876-.614c-.527-.438-.877-1.227-.877-2.016s.351-1.489.877-2.016c.526-.525 1.227-.788 2.016-.788.35 0 .7 0 .964.088a3.15 3.15 0 01-.176-.965c0-.788.351-1.489.877-2.015s1.226-.789 2.015-.789zm-6.047 11.743a2.395 2.395 0 002.366 2.367c.614 0 1.14-.264 1.49-.614.088 0 .088-.087.176-.087l.437-.526c.088.175.264.262.352.438l-.439.438c0 .087-.088.087-.176.176-.262.35-.525.876-.525 1.49s.263 1.226.701 1.664c.438.352 1.052.613 1.665.613s1.227-.263 1.665-.613c.438-.438.614-1.052.614-1.665v-.7h.613v.7c0 .613.263 1.227.701 1.665.35.352.964.613 1.665.613.613 0 1.227-.263 1.578-.613a2.395 2.395 0 00.7-1.665c0-.613-.175-1.14-.526-1.489l-.613-.614c.088-.176.263-.263.35-.438l.614.613c.438.351.965.614 1.49.614.701 0 1.227-.264 1.665-.701a2.395 2.395 0 00.7-1.665c0-.614-.262-1.227-.7-1.666-.438-.438-.964-.7-1.665-.7h-.613v-.527h.613c.701 0 1.227-.263 1.665-.701.438-.437.7-.964.7-1.665 0-.613-.262-1.227-.7-1.664-.438-.352-.964-.615-1.665-.615-.525 0-1.052.176-1.489.527 0 0-.088.088-.088.175l-.526.438c-.088-.176-.263-.263-.35-.439l.438-.437c.088 0 .088-.088.175-.088.35-.438.526-.964.526-1.578 0-.613-.263-1.226-.701-1.577-.352-.438-.965-.7-1.578-.7-.701 0-1.314.262-1.665.7-.438.35-.701.964-.701 1.577v.701h-.613v-.7c0-.614-.176-1.227-.614-1.578a2.395 2.395 0 00-1.665-.7c-.613 0-1.227.262-1.665.7-.438.35-.7.964-.7 1.577 0 .614.262 1.14.524 1.578.088 0 .176.088.176.088l.438.525c-.087.088-.263.176-.351.352l-.437-.44c-.088-.086-.088-.175-.176-.175a2.212 2.212 0 00-1.49-.526c-.613 0-1.226.264-1.665.615a2.395 2.395 0 00-.7 1.664c0 .701.262 1.228.7 1.665a2.395 2.395 0 001.665.701h.614v.526h-.614a2.395 2.395 0 00-2.366 2.366zm-8.588-2.366a8.99 8.99 0 002.716-.876 6.626 6.626 0 001.84-1.665l.439-.439.088.615c.438 2.277 1.14 4.03 1.927 5.52.965 1.84 2.367 3.505 3.156 4.733-2.104-.701-3.944-1.402-5.784-2.718-1.665-1.138-3.155-2.628-4.557-4.644l-.264-.438zm1.402-7.887c.789 0 1.402.263 1.928.789.439.438.79 1.14.79 1.84 0 .788-.352 1.49-.79 1.928-.526.526-1.14.789-1.928.789-.701 0-1.402-.263-1.84-.79-.526-.524-.789-1.139-.789-1.927 0-.7.263-1.402.788-1.84.439-.526 1.14-.789 1.84-.789zm44.607-1.665c1.927-1.84 3.593-2.98 7.186-.789-.614-2.365 2.19-5.258 6.134-.351 1.577-2.102 4.732-.525 4.995 2.98 0 1.314 1.315 3.068 2.541 2.98 1.228-.088 1.316-1.753 1.14-2.717-.439-2.19.877-2.892 2.103-2.98 3.33-.262 5.258 3.77 5.608 6.574.965 7.623-4.731 11.743-11.655 14.109-.262.087-2.016 2.716-3.505 2.804-.701.088-1.665-.439-1.929-1.665-.262.35-1.488 2.191-2.89 2.103-.79-.088-1.929-.526-2.455-2.366-2.016 2.366-4.381 2.19-7.099-1.49-1.402-2.804-2.19-5.608-2.366-8.588-.175-3.243.527-6.748 2.192-10.604zm-18.842 19.719c0 1.05.35 2.015 1.226 2.365.439.176 1.052.087 1.578-.263-.088.088-.088.176-.176.351-.613 1.577-.262 3.33.877 3.681.964.35 2.103-.351 2.804-1.578v.087c0 2.454 1.403 4.47 2.98 4.47 1.665 0 2.98-2.016 2.98-4.47v-.087c.7 1.227 1.928 1.928 2.892 1.577 1.051-.35 1.49-2.103.788-3.68 0-.176-.087-.263-.087-.351.526.351 1.051.438 1.577.263.79-.351 1.227-1.315 1.14-2.366-1.14-2.191-1.929-4.47-2.279-6.835h-3.067c.176.437.35.876.525 1.402.79 2.366 1.753 5.17.964 7.361-.35 1.14-1.051 1.753-1.753 2.103-.525.176-.963.263-1.489.176-.438-.088-.876-.264-1.227-.614-.438-.35-.7-.79-.964-1.314-.175.525-.526.963-.876 1.314-.35.351-.79.526-1.315.614-.438.087-.963 0-1.402-.176-.789-.35-1.49-.963-1.84-2.103-.701-2.191.262-4.995 1.051-7.362.176-.525.35-.964.439-1.401h-2.98a24.363 24.363 0 01-2.366 6.835zm13.057-7.45v-.263l-.088-.438a5.16 5.16 0 00.176-1.227c0-.438-.088-.877-.176-1.315l.088-.437v-.264h2.98v2.279c.087.613.087 1.14.176 1.665zm-7.536 0l.087-.263.088-.438c-.175-.35-.262-.79-.262-1.227a3.516 3.516 0 01.262-1.315l-.088-.437-.087-.264h-2.98a9.898 9.898 0 010 2.279c0 .613-.087 1.14-.087 1.665zm-.176-4.47a8.613 8.613 0 00-.438-1.401c-.789-2.367-1.752-5.258-1.051-7.45.35-1.05 1.051-1.752 1.84-2.102.439-.176.964-.176 1.402-.176.526.088.964.351 1.315.613.351.351.7.789.876 1.402.263-.613.526-1.052.964-1.402.35-.263.79-.525 1.227-.613.526 0 .964 0 1.49.176.7.35 1.402 1.051 1.752 2.103.789 2.19-.176 5.082-.964 7.449-.175.438-.35.963-.525 1.402h2.891c.264-2.63.965-5.346 2.28-8.238a1.736 1.736 0 00-.965-.964c-.526-.176-1.051-.088-1.577.176 0-.089.087-.176.087-.264.701-1.664.263-3.33-.788-3.769-.964-.35-2.192.352-2.893 1.665v-.175c0-2.453-1.314-4.38-2.979-4.38-1.577 0-2.98 1.927-2.98 4.38v.176c-.7-1.315-1.84-2.016-2.804-1.665-1.14.438-1.489 2.104-.877 3.768.088.088.088.176.176.263-.526-.263-1.14-.35-1.578-.176a1.745 1.745 0 00-.963.965c1.314 2.892 2.016 5.608 2.279 8.238z"
        fill="#fff" />
    <path
        d="M316.017 289.758c-.789-1.402-.877-.964-2.016-.35-1.052.526-7.8 3.592-7.888 7.01-.086 4.82-3.066 2.279-.262 7.8.526 1.14 1.14 1.928 1.315 3.506 0 .087.437 3.943 2.804 5.784 1.314 1.051 3.681 2.453 4.732 2.716 2.63.701 3.857 1.753 5.697 2.191-.527-.877-.965-1.753-1.14-2.542-.438-1.139-.35-2.278.176-3.066.087 0 .087-.088.175-.176.176-.35.176-.701.176-1.14-.089-.35-.264-.7-.614-.875 0-.088-.088-.088-.088-.088-.525-.35-.964-.701-1.14-1.14-.262-.438-.35-.963-.175-1.577.089-.438.527-.964 1.052-1.49.701-.7 1.49-1.49 1.49-2.19 0-1.403-1.227-1.841-2.19-2.104-.527-.176-.878-.262-1.14-.526-.352-.35-.263-.876.613-1.753.614-.7.526-1.402.526-2.015-.088-.613-.088-1.227.526-1.665.175-.088.263-.176.263-.351v-.526c-.088-.175-.176-.35-.263-.613-.351-.438-.788-.877-1.14-.963-1.84-.352-2.015-1.14-1.84-2.017 0-.35.175-.7.351-1.051.087-.263.087-.439.176-.613a.188.188 0 01-.176-.176z"
        fill="#fe0000" />
    <path
        d="M408.209 295.972c-.176 0-.352.088-.527.176a.796.796 0 00-.262.613c0 .176.087.437.262.525.176.176.352.263.527.263a.796.796 0 00.613-.263c.088-.088.175-.35.175-.525 0-.264-.087-.438-.175-.614-.176-.087-.35-.176-.613-.176zm18.14-1.402c.263-.263.701-.438 1.14-.438.437 0 .875.175 1.138.438.264.35.438.701.438 1.14 0 .437-.175.875-.438 1.138-.263.264-.701.438-1.139.438-.438 0-.876-.175-1.139-.438-.264-.263-.438-.701-.438-1.139 0-.438.175-.788.438-1.139zm-.088-.526c-.35-.176-.526-.526-.789-.876-.176-.439-.262-.789-.176-1.14 0-.262.088-.526.264-.613.176-.088.438 0 .613.176.352.175.613.437.79.876.175.35.262.789.262 1.051v.088c-.35.087-.701.175-.964.438zm1.49-.438v-.175c0-.351.088-.614.263-.964a1.83 1.83 0 01.7-.877c.263-.176.527-.263.702-.176.176.088.262.352.262.614.088.351 0 .701-.262 1.14-.176.35-.439.7-.701.876-.263-.263-.613-.35-.964-.438zm1.402.876c.176-.263.525-.525.876-.7.438-.264.789-.351 1.14-.264.262 0 .526.088.613.263.088.176 0 .438-.175.701a1.83 1.83 0 01-.877.701c-.263.176-.613.263-.964.263h-.175c-.087-.35-.175-.701-.438-.964zm.439 1.49h.175c.35 0 .7.088.963.263.438.176.701.438.877.789.176.175.263.438.176.613-.088.176-.352.262-.615.351-.35 0-.7-.089-1.139-.263-.35-.176-.701-.439-.876-.701.263-.352.35-.613.439-1.052zm-.877 1.49c.262.176.526.437.7.788.263.438.352.789.263 1.14 0 .263-.086.526-.262.614-.176.087-.439 0-.701-.088-.263-.176-.525-.527-.701-.877a2.334 2.334 0 01-.263-1.052v-.175c.35 0 .701-.175.964-.35zm-1.49.35v.176c0 .35-.087.7-.263 1.05-.176.353-.438.702-.789.878-.176.088-.438.176-.613.088-.176-.088-.263-.352-.263-.615-.087-.35 0-.7.176-1.139.262-.35.438-.613.7-.788.352.176.701.35 1.052.35zm-4.032-.175c-.087-.176 0-.439.176-.613a1.72 1.72 0 01.789-.79c.438-.175.876-.262 1.14-.262h.086c0 .439.176.701.352 1.052a2.08 2.08 0 01-.79.7c-.438.177-.788.263-1.139.263-.262-.088-.526-.175-.613-.35zm2.192-2.191h-.175c-.352 0-.702-.087-1.052-.263a2.069 2.069 0 01-.789-.7c-.176-.264-.263-.526-.176-.702.088-.176.352-.263.614-.263.351-.087.701 0 1.14.263.35.176.613.438.788.701-.176.263-.35.613-.35.964zm16.387-6.134a2.052 2.052 0 011.49-.614c.613 0 1.14.176 1.49.614.35.35.613.876.613 1.402 0 .613-.262 1.139-.613 1.49-.35.438-.877.613-1.489.613a2.053 2.053 0 01-1.49-.614 2.115 2.115 0 01-.614-1.489c0-.526.263-1.051.613-1.402zm-.087 6.222c.701.438 1.49.7 2.542.963-1.315 1.84-2.717 3.156-4.207 4.208-1.315.876-2.629 1.577-4.031 2.015.788-.964 1.577-2.016 2.19-3.243.789-1.489 1.49-3.154 1.928-5.17.439.526.964.964 1.578 1.227zm-29.62 5.345a16.544 16.544 0 00-.527-1.576c-.876 1.576-1.665 2.979-2.191 4.206-.525 1.314-.876 2.366-.788 3.33 0 1.139.437 2.016.964 2.453.262.264.613.439.963.526.439 0 .79 0 1.14-.175.613-.263 1.227-.876 1.489-1.753.702-2.015-.262-4.732-1.05-7.01zm0-8.237l-.527 1.577c-.876-1.664-1.665-3.067-2.191-4.206-.525-1.315-.876-2.454-.788-3.33 0-1.228.437-2.017.964-2.542.262-.263.613-.35.963-.438.439-.087.79 0 1.14.175a2.595 2.595 0 011.489 1.665c.702 2.016-.262 4.82-1.05 7.099zm-37.421-3.33c-.35-.438-.877-.614-1.49-.614-.526 0-1.052.176-1.49.614-.35.35-.613.876-.613 1.402 0 .613.262 1.139.613 1.49.438.438.965.613 1.49.613.613 0 1.14-.175 1.49-.614.438-.35.613-.876.613-1.489 0-.526-.176-1.051-.613-1.402zm.088 6.222c-.614.438-1.402.7-2.454.963 1.313 1.84 2.716 3.156 4.206 4.208 1.315.876 2.629 1.577 4.03 2.015-.787-.964-1.576-2.016-2.277-3.243-.789-1.489-1.402-3.154-1.84-5.17-.526.526-1.052.964-1.665 1.227zm15.423-.964c-.35-.263-.701-.438-1.139-.438-.438 0-.876.175-1.139.438-.263.35-.438.701-.438 1.14 0 .437.175.875.438 1.138.263.264.701.438 1.14.438.437 0 .787-.175 1.138-.438.264-.263.438-.701.438-1.139 0-.438-.175-.788-.438-1.139zm.088-.526c.262-.176.526-.526.7-.876.177-.439.263-.789.263-1.14 0-.262-.086-.526-.262-.613-.176-.088-.439 0-.701.176a1.83 1.83 0 00-.701.876c-.263.35-.263.789-.263 1.051v.088c.35.087.701.175.964.438zm-1.577-.438v-.088s.087 0 .087-.087c0-.351-.087-.614-.263-.964-.262-.439-.525-.701-.789-.877-.262-.176-.437-.263-.613-.176-.176.088-.263.352-.35.614 0 .351.087.701.262 1.14.176.35.439.7.701.876.264-.263.614-.35.965-.438zm-1.402.876a1.83 1.83 0 00-.877-.7c-.35-.264-.789-.351-1.052-.264-.351 0-.526.088-.613.263-.088.176 0 .438.087.701.176.263.526.526.877.701.35.176.701.263.964.263h.263c0-.35.175-.701.35-.964zm-.352 1.49h-.262c-.263 0-.614.088-.964.263-.352.176-.701.438-.877.789-.087.175-.176.438-.087.613.087.176.263.262.613.351.263 0 .701-.089 1.052-.263a1.83 1.83 0 00.877-.701c-.176-.352-.352-.613-.352-1.052zm.79 1.49a2.076 2.076 0 00-.702.788c-.176.438-.262.789-.262 1.14.087.263.175.526.35.614.176.087.35 0 .613-.088.264-.176.527-.527.79-.877.175-.35.262-.701.262-1.052l-.087-.088v-.086c-.352 0-.701-.176-.965-.352zm1.577.35v.176c0 .35.088.7.263 1.05.175.353.438.702.7.878.263.088.527.176.702.088.176-.088.262-.352.262-.615 0-.35-.086-.7-.262-1.139a2.069 2.069 0 00-.701-.788c-.263.176-.613.35-.964.35zm3.944-.175a.54.54 0 00-.088-.613c-.176-.352-.439-.613-.877-.79a2.699 2.699 0 00-1.138-.262c-.088.439-.176.701-.439 1.052.176.262.525.525.876.7.352.177.789.263 1.14.263.263-.088.438-.175.526-.35zm-2.103-2.191h.175c.262 0 .613-.087.963-.263a1.83 1.83 0 00.877-.7c.176-.264.176-.526.088-.702s-.263-.263-.527-.263c-.35-.087-.788 0-1.139.263-.35.176-.701.438-.876.701.263.263.35.613.439.964zm13.233 5.433a16.544 16.544 0 01.525-1.576 32.9 32.9 0 012.191 4.206c.613 1.314.876 2.366.876 3.33 0 1.139-.438 2.016-.964 2.453a2.961 2.961 0 01-1.051.526c-.35 0-.701 0-1.052-.175-.701-.263-1.227-.876-1.489-1.753-.702-2.015.175-4.732.964-7.01zm0-8.237l.525 1.577a50.904 50.904 0 002.191-4.206c.613-1.315.876-2.454.876-3.33 0-1.228-.438-2.017-.964-2.542-.35-.263-.7-.35-1.051-.438-.35-.087-.701 0-1.052.175-.701.263-1.227.79-1.489 1.665-.702 2.016.175 4.82.964 7.099zm3.856 5.433c-.352 0-.702-.088-.965-.35-.263-.263-.35-.613-.35-.964 0-.438.087-.701.35-.965.263-.262.614-.437.965-.437.437 0 .787.176.963.437.263.264.439.527.439.965 0 .35-.176.701-.439.964-.176.262-.526.35-.963.35zm0-4.557c-.877 0-1.665.35-2.28.876a3.386 3.386 0 00-.963 2.367c0 .876.35 1.665.964 2.278.613.614 1.402.965 2.279.965.963 0 1.752-.352 2.365-.965.527-.613.877-1.402.877-2.278 0-.877-.351-1.753-.877-2.367a3.561 3.561 0 00-2.365-.876z"
        fill="#ffe330" />
    <path
        d="M335.332 162.162h29.78v1.99h-29.78zm-1.245-9.101h31.745v1.913h-31.745zm5.713 22.264h20.458v1.748H339.8zm.822 9.232h18.675v1.794h-18.675zm25.915-6.251c.785 2.18.677 4.77-1.135 6.52l-.916-1.317 1.309-2.682-.68-2.238z" />
</svg>