<svg width="700" height="500" fill-rule="evenodd" version="1.1" xmlns="http://www.w3.org/2000/svg">
    <path d="M0 0h700v500H0z" fill="#fff" />
    <g transform="matrix(1.034 0 0 1.034 -11.885 -8.4892)">
        <g stroke="#000" stroke-width="1.9205">
            <path
                d="m344.31 397.46c-3.33-2.49-9.256-3.913-12.932-5.134-7.26-2.411-16.897-4.872-21.26-6.465-7.965-2.909-16.2-6.507-23.084-11.47-13.482-9.716-33.078-36.81-36.77-45.717-7.882-16.103-12.141-33.287-12.141-50.746v-179.76h223.75v179.76c-0.43 18.037-4.92 36.554-13.183 52.661-10.192 17.937-24.835 35.472-36.015 43.743-6.923 5.094-15.426 8.67-23.448 11.455-7.005 2.566-15.504 4.47-21.065 6.457-3.887 1.287-9.647 2.964-12.911 5.379l-5.253 3.986z"
                stroke-miterlimit="8" />
            <path
                d="m359.15 289.28v-27.46h94.33v16.103c0 3.73-0.254 7.543-0.762 11.357zm0 97.128v-62.633h83.482c-7.882 16.696-19.832 32.121-35.003 43.648-13.391 10.086-34.326 13.815-48.056 18.9-0.254 0.085-0.17 0-0.423 0.085zm-112.55-140.01h94.247v-58.903h-2.034a4.377 4.377 0 0 1-4.408-4.408 4.377 4.377 0 0 1 4.408-4.407h1.525c-1.017-4.492-3.136-8.39-5-12.628h-2.712c-2.458 0-4.408-2.034-4.408-4.492 0-2.373 1.95-4.407 4.408-4.407h2.034c-2.458-19.917-19.663-35.597-40.174-35.597-22.29 0-40.597 18.307-40.597 40.597v2.882h-7.288z"
                fill="#fe0000" />
            <path
                d="m340.85 289.28v-27.46h-94.247v16.103c0 3.73 0.255 7.543 0.679 11.357zm0 97.128v-62.633h-83.483c7.882 16.696 19.833 32.121 35.088 43.648 13.307 10.086 34.24 13.815 47.971 18.9 0.254 0.085 0.17 0 0.424 0.085zm112.64-140.01h-94.331v-58.903h2.118c1.272 0 2.374-0.509 3.221-1.441 1.865 0 3.73-0.678 5.17-1.865 1.44 1.271 3.305 1.865 5.17 1.865 1.95 0 3.814-0.594 5.255-1.865 1.44 1.271 3.305 1.865 5.254 1.865 1.95 0 3.814-0.594 5.255-1.865 1.441 1.271 3.306 1.865 5.255 1.865 1.865 0 3.73-0.594 5.17-1.865 1.526 1.271 3.39 1.865 5.255 1.865 1.949 0 3.814-0.594 5.254-1.865 1.441 1.271 3.306 1.865 5.255 1.865 1.865 0 3.814-0.594 5.255-1.865 1.44 1.271 3.305 1.865 5.255 1.865 1.864 0 3.729-0.594 5.17-1.865 1.525 1.271 3.39 1.865 5.254 1.865 1.95 0 3.814-0.594 5.255-1.865 1.44 1.271 3.305 1.865 5.255 1.865 1.864 0 3.814-0.594 5.255-1.865zm-93.824-67.718c1.017-4.492 3.22-8.39 5-12.628h2.797c2.374 0 4.408-2.034 4.408-4.492 0-2.373-2.034-4.407-4.408-4.407h-2.118c2.457-19.917 19.662-35.597 40.258-35.597 22.29 0 40.512 18.307 40.512 40.597v2.882h7.374v13.476l-0.509 0.762c-1.102 1.526-2.797 2.543-4.746 2.543a5.748 5.748 0 0 1-4.746-2.543l-0.509-0.762-0.508 0.762a5.748 5.748 0 0 1-4.747 2.543c-1.864 0-3.644-1.017-4.746-2.543l-0.508-0.762-0.424 0.762c-1.102 1.526-2.882 2.543-4.746 2.543a5.748 5.748 0 0 1-4.747-2.543l-0.508-0.762-0.509 0.762c-1.101 1.526-2.796 2.543-4.746 2.543a5.748 5.748 0 0 1-4.746-2.543l-0.509-0.762-0.508 0.762a5.748 5.748 0 0 1-4.746 2.543c-1.865 0-3.645-1.017-4.747-2.543l-0.508-0.762-0.424 0.762c-1.102 1.526-2.881 2.543-4.746 2.543a5.748 5.748 0 0 1-4.746-2.543l-0.509-0.762-0.508 0.762c-1.102 1.526-2.797 2.543-4.747 2.543-1.949 0-3.644-1.017-4.746-2.543l-0.508-0.762-0.509 0.762a5.748 5.748 0 0 1-4.746 2.543c-1.865 0-3.644-1.017-4.746-2.543l-0.424-0.762-0.508 0.762c-0.848 1.272-2.204 2.12-3.73 2.458-0.593-1.78-2.203-3.05-4.153-3.05z"
                fill="#0052b6" />
            <path d="m340.85 320.05v-26.952h-93.06c1.44 8.984 4.153 18.137 7.882 26.952z" fill="#357600" />
        </g>
        <path
            d="m305.93 161.14c3.22-1.356 5.424-0.678 7.967 1.187l-0.932 0.593c-8.476 5.594-8.052 15.934-12.205 24.155-1.95 3.644-4.83 6.356-7.797 9.153 2.627-0.424 5 0.678 7.034 3.22l1.441 1.78-2.203-0.677c-7.628-2.289-11.95 4.237-14.578 10.34 5-0.933 5.17 4.068 5.085 7.458-1.271-1.271-2.966-3.305-5-2.966-2.797 0.508-4.831 5.593-5.679 7.966-1.525 4.153-2.373 8.222-3.644 12.374l-4.407 4.069c1.525-6.696 3.22-13.307 4.661-20.002 0.678-3.22 1.271-6.526 1.356-9.747 0-3.475-0.678-6.95-1.271-10.255-1.356-6.865-0.424-16.019 5.085-20.341 0-2.119 0.34-4.407 1.102-6.696 1.95-5.932 4.661-8.39 5.17-15.17 0.763 1.186 1.44 1.949 1.78 3.39 1.271-5.425 3.983-10.68 7.627-15.002 5.34-6.441 11.527-10 19.748-11.272-2.203 5.085-0.847 7.797-1.102 12.967-0.254 4.153-1.525 5.594-4.407 8.39-1.61 1.611-3.39 3.222-4.83 5.086zm-0.932 56.192c-1.95 0.17-2.627-0.34-5.255-0.34-2.712 0.425-3.56 2.967-4.492 5.425-0.847 2.204-1.95 4.238-1.695 6.441 0.17 2.374 1.695 2.882 3.475 3.9-1.187 0.508-1.271 1.61-0.339 2.372 2.797 0 5.509-0.17 8.306-0.17 2.712 0 5.509 0.17 8.221 0.17 0.932-0.763 0.848-1.864-0.339-2.373 1.78-1.017 3.305-1.525 3.56-3.899 0.17-2.203-0.848-4.237-1.695-6.44-1.017-2.459-1.865-5.001-4.577-5.425-2.628 0-3.22 0.508-5.17 0.339zm132.98-7.119 0.254-0.085c3.051-1.526 4.746-3.56 7.373-5.51l0.34-0.253 0.423 0.339c0.424 0.423 0.763 0.847 1.102 1.356 2.204 3.22 0.085 5.763 0.34 9.068 0 0.255 0 0.594 0.084 0.848 0.424 2.966 3.305 5.34 2.458 7.458l-0.34 0.848-0.593-0.678c-0.678-0.763-1.356-1.272-2.288-1.61-0.678-0.255-1.44-0.424-2.204-0.679-1.017-0.254-1.949-0.678-2.881-1.186-1.102-0.593-2.034-1.526-2.797-2.458h-0.085c-4.916-0.34-8.051-1.695-12.459 0.678 0.509 0.424 1.356 0.678 1.95 1.017l0.339 0.254-0.085 0.424c-0.424 1.44 1.44 4.916-0.593 5-2.458 0.17-5.34-1.27-7.204-2.796l-0.17-0.17c-2.543 1.102-6.356 0.848-9.153 1.017-1.61 0.085-3.984 0.678-5.764 1.187 0.848 0.508 1.865 0.932 2.628 1.356 0.508 0.17 1.186 0.508 1.017 1.186-0.17 0.678-1.356 0.678-1.865 0.594-1.61-0.17-3.644-0.933-5.085-1.526a5.556 5.556 0 0 1-1.78-1.017l-0.593 0.085c-4.916 0.424-9.323 0.508-14.154-0.085-0.678-0.085-1.356-0.17-1.95-0.339 0.34 0.339 0.679 0.593 1.102 0.848 0.34 0.169 0.679 0.508 0.594 1.017-0.254 0.678-1.356 0.678-1.865 0.593-1.525-0.34-3.475-1.61-4.661-2.543-0.678-0.508-1.102-0.763-1.356-1.356-0.34 0.34-0.933 0.34-1.526 0.085-0.763-0.424-1.695-1.356-2.288-1.526l-0.255-0.084-0.339-0.085c-1.78-0.509-2.881-0.763-4.576-1.61-0.678-0.34-2.034-1.102-2.712-1.187-0.763-0.17-3.306-1.44-3.814-2.034l-0.424-0.509 0.508-0.339c0.424-0.339 0.763-0.678 1.272-1.017h0.085c-0.424-0.423-0.763-0.932-1.187-1.525l-0.424-0.678 0.763-0.17c1.61-0.424 3.305-0.932 4.916-1.44 1.102-0.424 3.475-1.102 4.407-1.696 2.119-1.356 4.916-1.78 7.289-1.864 5.678-0.255 11.187-1.441 16.866-1.102h0.424l0.339-0.34c1.61-1.525 3.983-4.406 6.356-4.406 1.271 0 6.696 2.797 7.797 3.729 0.509 0.508-0.254 1.356-0.762 1.95h0.084c2.882 0.169 5.848 0.423 8.645 0.847s5.51 1.525 8.306 1.864c0.085 0 0.17 0 0.254 0.085l0.594-0.424c1.186-0.762 2.373-1.864 3.729-2.288 0.678-0.254 1.44-0.254 1.95 0.339 0.253 0.424 0.423 1.017 0.169 1.44-0.255 0.425-0.424 0.933-0.594 1.357 1.356 0 2.797 0 3.9-0.17z" />
        <path
            d="m274.82 235.3-2.628 2.458c5.594-24.664 6.696-25.088 4.238-38.14-1.187-5.932 0.085-15.001 4.068-18.815 0.678 3.22 1.95 6.187 3.899 8.9-3.306-6.188-3.475-11.612-1.78-16.697 1.356-4.238 4.322-8.221 4.916-13.476 1.27 1.864 0.678 5.509 1.186 8.475 0-15.256 12.29-30.257 26.443-32.46-2.119 5.085 0.848 12.12-2.034 16.865-1.695 2.713-7.034 6.272-9.407 10.764 3.729-2.627 6.526-2.458 8.899-0.847-8.815 5.763-8.39 16.272-12.544 24.409-2.373 4.661-6.356 7.628-10.086 11.187 3.9-2.034 6.866-1.186 9.408 1.95-7.628-2.289-12.374 3.305-16.018 12.12 3.39-1.272 5.593-0.255 5.678 4.66-4.916-5-8.306 0.17-10.679 6.442 3.39-15.934 9.662-32.545 15.764-48.564 0.594-1.525 1.187-3.136 1.78-4.661 0.085-0.17 0-0.34-0.17-0.34-0.169-0.084-0.338 0-0.423 0.17-0.593 1.526-1.187 3.051-1.695 4.577-6.78 17.798-13.73 36.19-16.866 53.734-0.848 3.051-1.526 5.848-1.95 7.289zm33.393-93.23c0.084-0.169 0.254-0.254 0.423-0.084 0.17 0.085 0.17 0.254 0.085 0.339-6.356 10.764-12.12 21.951-17.12 33.562-4.831 11.103-8.9 22.545-12.035 34.156 0 0.17-0.17 0.254-0.34 0.254a0.466 0.466 0 0 1-0.254-0.423c3.136-11.612 7.205-23.053 12.035-34.241 5.001-11.611 10.764-22.884 17.206-33.562zm97.212 81.788c1.441-0.424 4.746-1.271 6.357-1.356 2.373-0.17 6.61 0.085 8.984-1.017 1.017-0.424 2.203-1.356 3.135-1.95 0.594-0.423 1.187-0.932 1.865-1.356 4.916-2.881 7.713-1.44 13.391-1.101 0.763-1.102 1.017-1.865 0.848-2.712-0.17-0.933-0.848-2.035-2.12-3.56-1.864 0.339-5.084 0.17-7.118 0.085-1.018-0.085-2.12-0.17-3.052-0.34-2.712-0.338-5.509-1.44-8.305-1.864-1.95-0.339-5.764-0.678-8.56-0.932l-14.324-0.848c-5.594-0.339-11.103 0.763-16.781 1.017-1.695 0.085-4.746 0.34-6.95 1.78-1.44 0.932-8.56 2.966-9.492 3.22 1.186 1.865 1.864 2.29 3.22 3.306 0.34 0.34 0.593 0.763 0.254 0.932-0.339 0.17-2.034-1.356-2.627-1.864-0.424 0.254-0.847 0.678-1.187 0.932 0.424 0.509 2.797 1.78 3.475 1.865 0.678 0.17 1.78 0.762 2.882 1.271 0.254 0.17 1.526 0.254 2.204-0.848 0.593-0.932 0.762-2.118 0.593-3.22-0.085-0.509-0.34-1.017-0.678-1.61-0.085-0.085 0-0.255 0.17-0.34 0.084-0.084 0.254 0 0.338 0.085 0.34 0.594 0.594 1.102 0.678 1.78 0.34 1.78-0.17 3.899-1.61 4.916 0.932 0.339 1.865 0.508 2.797 0.763 0.424-0.594 1.102-1.017 1.78-1.441 0.763-0.424 1.44-0.848 1.525-1.526 0.17-1.017-0.423-2.373-1.186-3.644-0.763-1.272-1.695-2.373-2.204-2.967-0.085-0.084-0.085-0.254 0.085-0.339a0.258 0.258 0 0 1 0.339 0c0.509 0.594 1.44 1.695 2.204 3.052 0.254 0.254 0.423 0.508 0.508 0.847a2.02 2.02 0 0 1 0.509-0.932c0.254-0.255 0.762-0.509 1.186-0.509 0.509 0 0.932 0.254 1.187 0.509 0.339 0.339 0.508 0.763 0.508 1.271 0 0.509-0.17 0.932-0.508 1.271-0.255 0.34-0.678 0.509-1.187 0.509-0.339 0-0.678-0.085-0.932-0.34 0.085 0.51 0.085 0.933 0.085 1.357-0.17 0.932-1.017 1.44-1.865 1.95-0.508 0.338-1.102 0.677-1.526 1.101 0.848 0.254 1.441 1.102 2.458 1.526 0.424 0.254 1.017 0.423 0.933-0.424-0.085-0.509 0-1.017 0.339-1.271 0.678-0.594 1.525 0 1.78 0.084 1.356 0.763 2.966 2.373 3.56 2.882 4.66 0.678 7.881 1.271 16.865 0.508 0-0.084-0.085-0.254-0.17-0.423-0.084-0.424 0-0.848 0.255-1.272 0.085-0.084 0.17-0.17 0.339-0.254 0.932-0.763 3.475 0.678 4.661 1.44zm30.85-12.205c0.51 0 0.933 0.255 1.187 0.509 0.34 0.339 0.509 0.763 0.509 1.271 0 0.509-0.17 0.933-0.509 1.272-0.254 0.339-0.678 0.508-1.186 0.508-0.509 0-0.933-0.17-1.187-0.508-0.339-0.34-0.509-0.763-0.509-1.272 0-0.508 0.17-0.932 0.509-1.271 0.254-0.254 0.678-0.509 1.187-0.509zm-9.238 0.17c0.509 0 0.933 0.17 1.187 0.508 0.339 0.34 0.508 0.763 0.508 1.272 0 0.424-0.17 0.932-0.508 1.186a1.483 1.483 0 0 1-2.373 0c-0.34-0.254-0.509-0.762-0.509-1.186 0-0.509 0.17-0.933 0.509-1.272 0.254-0.339 0.678-0.508 1.186-0.508zm-7.204 1.44c0.509 0 0.933 0.17 1.187 0.51 0.339 0.338 0.508 0.762 0.508 1.27 0 0.424-0.17 0.933-0.508 1.187-0.254 0.34-0.678 0.509-1.187 0.509-0.508 0-0.932-0.17-1.186-0.509-0.34-0.254-0.509-0.763-0.509-1.186 0-0.509 0.17-0.933 0.509-1.272 0.254-0.339 0.678-0.508 1.186-0.508zm-7.289 0c0.509 0 0.933 0.17 1.187 0.51 0.339 0.338 0.509 0.762 0.509 1.27 0 0.51-0.17 0.933-0.509 1.272-0.254 0.254-0.678 0.508-1.187 0.508-0.423 0-0.932-0.254-1.186-0.508-0.34-0.34-0.509-0.763-0.509-1.271 0-0.509 0.17-0.933 0.509-1.272 0.254-0.339 0.763-0.508 1.186-0.508zm-5.932 0.933c0.508 0 0.932 0.17 1.271 0.509 0.254 0.339 0.509 0.762 0.509 1.27 0 0.51-0.255 0.933-0.509 1.272-0.339 0.254-0.763 0.509-1.271 0.509-0.424 0-0.848-0.255-1.187-0.509-0.254-0.339-0.508-0.763-0.508-1.271 0-0.509 0.254-0.932 0.508-1.271a1.673 1.673 0 0 1 1.187-0.509zm-9.238-0.593c0.423 0 0.847 0.17 1.186 0.508 0.34 0.34 0.509 0.763 0.509 1.272 0 0.423-0.17 0.932-0.509 1.186-0.339 0.34-0.763 0.593-1.186 0.593-0.509 0-0.933-0.254-1.187-0.593h-0.085c-0.254-0.254-0.424-0.763-0.424-1.186 0-0.509 0.17-0.933 0.424-1.272h0.085c0.254-0.339 0.678-0.508 1.187-0.508zm-6.78 0c0.508 0 0.932 0.17 1.27 0.508 0.255 0.34 0.424 0.763 0.424 1.272 0 0.932-0.678 1.78-1.695 1.78-0.424 0-0.847-0.255-1.186-0.594-0.34-0.254-0.509-0.763-0.509-1.186 0-0.509 0.17-0.933 0.509-1.272a1.673 1.673 0 0 1 1.186-0.508zm-6.696 0c0.932 0 1.695 0.763 1.695 1.78 0 0.932-0.763 1.78-1.695 1.78-0.509 0-0.933-0.255-1.187-0.594-0.339-0.254-0.508-0.763-0.508-1.186 0-0.509 0.17-0.933 0.508-1.272 0.254-0.339 0.678-0.508 1.187-0.508zm-15.426-0.678c0.34 0 0.763 0.17 1.018 0.423 0.254 0.34 0.423 0.679 0.423 1.102 0 0.34-0.17 0.763-0.423 1.017a1.564 1.564 0 0 1-1.018 0.424c-0.423 0-0.762-0.17-1.101-0.424a1.564 1.564 0 0 1-0.424-1.017c0-0.423 0.17-0.763 0.424-1.102 0.339-0.254 0.678-0.423 1.101-0.423zm0.594 0.847a0.77 0.77 0 0 0-0.594-0.254c-0.254 0-0.508 0.085-0.678 0.254-0.17 0.17-0.254 0.424-0.254 0.678a0.77 0.77 0 0 0 0.254 0.594c0.17 0.17 0.424 0.254 0.678 0.254a0.77 0.77 0 0 0 0.594-0.254 0.77 0.77 0 0 0 0.254-0.594c0-0.254-0.085-0.508-0.254-0.678zm40.936-6.61c0.508-0.51 1.271-1.357 1.102-1.441-1.272-1.187-6.526-3.645-7.374-3.645-2.119 0-4.407 2.882-5.933 4.323l2.882 0.17 2.966-2.967c0.085-0.17 0.34-0.17 0.424 0a0.258 0.258 0 0 1 0 0.339l-2.627 2.712 1.186 0.085 2.543-2.543c0.085-0.17 0.254-0.17 0.424 0a0.258 0.258 0 0 1 0 0.34l-2.204 2.203 0.848 0.084 2.118-2.118c0.17-0.085 0.34-0.085 0.424 0 0.085 0.084 0.085 0.339 0 0.423l-1.78 1.695 1.017 0.085 1.61-1.61c0.086-0.085 0.255-0.085 0.425 0 0.084 0.085 0.084 0.254 0 0.424l-1.357 1.27h0.933l1.186-1.186c0.085-0.084 0.255-0.084 0.424 0 0.085 0.085 0.085 0.34 0 0.424l-0.847 0.848zm-30.257 16.78c1.271 0.933 3.05 2.204 4.407 2.459 0.508 0.084 1.865 0 0.847-0.594-1.27-0.762-3.983-3.305-5.509-4.237-0.678-0.424-1.186-0.255-1.186 0.508 0.17 1.102 0.593 1.271 1.44 1.865zm23.138 1.442c1.61 0.593 3.644 1.356 4.915 1.44 1.017 0.17 2.034-0.084 0.594-0.678-0.933-0.508-2.713-1.356-3.56-1.949-0.763-0.424-3.306-2.119-4.068-1.187-0.594 1.017 1.356 2.035 2.119 2.374zm18.56-3.56c1.526 1.186 4.323 2.797 6.866 2.712 1.186-0.085-0.509-2.882 0.084-4.661-0.932-0.594-1.61-0.679-2.203-1.272-0.254 0.17-0.424 0.34-0.678 0.424 0.254 0.254 0.593 0.424 0.847 0.678 0.424 0.254 0.848 0.593 1.272 0.848 0.17 0.084 0.17 0.254 0.084 0.423-0.084 0.085-0.254 0.17-0.423 0.085-0.424-0.339-0.848-0.593-1.272-0.932-0.339-0.254-0.678-0.509-0.932-0.763-0.254 0.17-0.593 0.339-0.848 0.593 0.34 0.255 0.679 0.509 1.102 0.763 0.594 0.424 1.187 0.932 1.695 1.187 0.085 0.084 0.17 0.254 0.085 0.423-0.085 0.085-0.254 0.17-0.424 0.085a68.389 68.389 0 0 1-1.695-1.186c-0.423-0.34-0.847-0.678-1.186-0.933-0.34 0.17-0.594 0.424-0.933 0.594a9.797 9.797 0 0 0 1.696 1.101c0.678 0.424 1.356 0.763 1.949 1.017 0.085 0 0.17 0.17 0.17 0.34-0.085 0.169-0.255 0.254-0.424 0.169a14.488 14.488 0 0 1-1.95-1.017c-0.763-0.424-1.525-0.932-1.95-1.271-0.253 0.17-0.592 0.339-0.931 0.593zm11.866-11.442c0.17-0.508 0.593-1.356 0.678-1.525 0.17-0.424-0.085-1.441-1.44-1.018-1.272 0.424-2.628 1.61-3.645 2.289 0.254 0 0.508 0.085 0.847 0.085 0.509-0.17 1.018-0.424 1.526-0.678 0.424-0.17 0.848-0.424 1.102-0.678 0.17-0.085 0.339-0.085 0.424 0 0.084 0.169 0.084 0.339 0 0.423a8.372 8.372 0 0 1-1.272 0.763l-0.508 0.254c0.763 0.085 1.525 0.085 2.288 0.085zm6.357 6.95c0.678 0.763 1.525 1.78 2.627 2.373 3.475 1.78 5.255 0.932 7.543 3.475 0.34-0.763 0.085-1.44-0.424-2.204a14.053 14.053 0 0 0-2.796-1.271c-1.187-0.339-2.458-0.593-3.814-0.848-0.17 0-0.255-0.169-0.255-0.339s0.17-0.254 0.34-0.254c1.44 0.254 2.711 0.509 3.898 0.932 0.763 0.255 1.44 0.509 2.119 0.848-0.254-0.424-0.509-0.848-0.763-1.356-0.593-0.254-1.186-0.509-1.865-0.678-1.186-0.34-2.542-0.509-4.068-0.678-0.17 0-0.254-0.085-0.254-0.254 0-0.17 0.17-0.255 0.34-0.255 1.44 0.085 2.88 0.34 4.152 0.678 0.509 0.17 0.932 0.255 1.356 0.424-0.17-0.339-0.254-0.847-0.339-1.271-1.356-0.424-2.882-0.509-4.492-0.424-0.085 0-0.254-0.085-0.254-0.254 0-0.17 0.085-0.254 0.254-0.34 1.526-0.084 3.051 0.086 4.323 0.425 0-0.34-0.085-0.594-0.085-0.848 0-0.593 0-1.186 0.085-1.78-0.34 0.085-0.594 0.254-0.933 0.34a18.317 18.317 0 0 1-3.475 1.101c-0.17 0-0.339-0.085-0.339-0.17-0.084-0.169 0-0.338 0.17-0.338 1.186-0.34 2.288-0.679 3.39-1.102l1.271-0.509c0.085-0.424 0.17-0.763 0.255-1.186-0.424 0.254-0.848 0.508-1.357 0.678-1.101 0.508-2.203 1.017-3.39 1.356-0.084 0-0.254-0.085-0.339-0.17 0-0.17 0.085-0.339 0.17-0.339 1.186-0.424 2.288-0.847 3.39-1.356 0.509-0.254 1.102-0.508 1.695-0.847 0-0.424 0.085-0.848 0.085-1.187-0.424 0.254-0.848 0.593-1.271 0.848-1.102 0.678-2.204 1.27-3.56 1.78-0.17 0-0.34 0-0.424-0.17 0-0.17 0.085-0.34 0.17-0.34a16.663 16.663 0 0 0 3.474-1.779 10.793 10.793 0 0 0 1.61-1.102c0-0.254 0-0.508-0.084-0.763a19.18 19.18 0 0 1-1.695 1.102c-1.102 0.678-2.204 1.187-3.39 1.695-0.085 0-0.254-0.084-0.34-0.17-0.084-0.169 0-0.338 0.17-0.423 1.187-0.424 2.204-0.932 3.221-1.525a35.546 35.546 0 0 0 1.865-1.272c-0.085-0.254-0.17-0.508-0.34-0.763-0.593 0.509-1.186 0.933-1.864 1.272-0.932 0.593-1.95 1.102-3.051 1.695-0.17 0.085-0.34 0-0.424-0.17 0-0.084 0-0.254 0.17-0.339 1.101-0.593 2.118-1.102 3.05-1.61 0.594-0.424 1.272-0.848 1.865-1.271-0.254-0.424-0.678-0.848-1.102-1.272-3.39 2.458-3.983 3.73-7.458 5.51 1.187 1.525 1.865 2.542 2.119 3.644 0.17 0.932-0.17 1.864-0.932 3.05zm-187.98 111.88c-8.052-16.019-12.629-33.732-12.629-51.276v-178.83h221.89v178.83c0 17.544-4.577 35.257-12.544 51.276m-106.54-38.903h-95.433l-0.085-0.848c-0.424-3.814-0.678-7.712-0.678-11.526v-17.036h96.196zm0 30.68h-86.788l-0.254-0.592c-3.73-8.645-6.442-17.799-7.967-27.122l-0.17-1.101h95.179zm-1.272 66.363c-0.169-0.085-0.339-0.085-0.423-0.17-4.238-1.525-8.476-2.796-12.798-4.068-4.746-1.44-9.493-2.797-14.239-4.407-7.373-2.627-15.001-5.848-21.273-10.51-15.086-11.441-27.206-26.866-35.342-43.987l-0.594-1.356h85.94v64.922zm17.63 0.424v-64.922h85.94l-0.678 1.356c-8.052 17.12-20.172 32.546-35.343 43.988-6.187 4.661-13.9 7.882-21.273 10.51-4.661 1.61-9.492 2.966-14.239 4.406-4.237 1.272-8.56 2.543-12.713 4.069-0.17 0.084-0.339 0.084-0.423 0.17zm0-66.786v-28.816h95.093l-0.17 1.101c-1.44 9.323-4.237 18.477-7.966 27.122l-0.255 0.593zm0-30.681v-29.41h96.195v17.036c0 3.814-0.254 7.712-0.763 11.526l-0.085 0.848zm6.186-133.15c2.458-20.426 20.087-36.53 41.19-36.53 22.715 0 41.53 18.731 41.445 41.53v1.95h7.374v83.228h-96.196v-59.836h-16.357v59.836h-96.196v-83.228h7.289v-1.95c-0.085-22.799 18.73-41.53 41.53-41.53 21.103 0 38.647 16.104 41.105 36.53zm-5.678 21.527c0.932-4.492 3.05-8.306 4.916-12.628h-27.291c1.864 4.322 3.983 8.136 4.916 12.628zm-8.73-72.973h104.42v27.8l-1.78-2.543c-7.543-11.442-19.154-19.833-32.376-23.392-10.594-1.78-20.34-1.695-29.325 0a56.126 56.126 0 0 0-18.307 8.73c-10.424 6.61-17.713 16.442-21.697 27.968l-0.932 2.543-0.847-2.543c-4.069-11.526-11.357-21.358-21.697-27.969h-0.085a56.126 56.126 0 0 0-18.307-8.73c-8.984-1.694-18.73-1.78-29.24 0-13.306 3.56-24.833 11.951-32.46 23.393l-1.696 2.542v-27.799zm98.4 223.5c-8.391 14.917-23.054 34.24-36.275 44.241-6.865 5.086-15.002 8.645-23.053 11.442-7.035 2.458-14.154 4.323-21.274 6.526-3.898 1.272-10 3.136-13.306 5.594l-4.492 3.39-4.492-3.39c-3.305-2.458-9.407-4.322-13.306-5.594-7.035-2.203-14.239-4.068-21.189-6.526-8.051-2.797-16.272-6.356-23.137-11.442-13.222-10-27.715-29.324-36.19-44.241"
            fill="#fff" />
        <path
            d="m321.69 308.18 0.424 0.085h0.17c0.339 0.085 0.678 0.254 1.017 0.424 1.356 0.847 1.949 2.457 2.034 3.983 0.085 1.865-0.424 3.73-1.272 5.34 0.509 0.593 0.763 1.356 0.255 2.118-0.509 0.594-1.272 0.678-2.034 0.424-1.187 1.356-2.712 2.458-4.323 3.305 0.254 0.848 0.254 1.78-0.593 2.204-0.932 0.593-2.034-0.17-2.543-1.017-1.61 0.509-3.305 0.763-5 0.848-0.085 0.847-0.509 1.61-1.441 1.61-0.932 0.085-1.526-0.763-1.78-1.526-1.102-0.084-2.288-0.17-3.39-0.339-0.254 0.594-0.678 1.017-1.356 1.017-1.017 0.085-1.61-0.847-1.78-1.78-3.56-1.101-7.12-3.135-10.34-4.915-3.644-2.12-9.577-5.679-13.73-6.187-2.204-0.255-4.407-0.424-6.695-0.424-1.441-0.085-3.052-0.085-4.492-0.254-4.662-0.509-6.696-1.78-10.51-4.407-1.44-1.018-1.017-3.136-0.254-4.492l0.085-0.17-0.085-0.085c-1.017-1.525 0.17-3.136 1.525-3.729-0.593-1.61 0.085-3.56 1.356-4.577 1.187-0.847 2.289-2.203 2.458-3.729v-0.508l0.085-0.17c1.44-8.56 15.001-6.356 20.934-5.424 4.577 0.763 14.832 3.22 17.205 7.458l0.085 0.085v0.085c0.085 0.424 0.085 0.847 0.085 1.186l0.339 0.424c7.373 8.476 8.984 10.594 20.765 12.713h0.339l0.254 0.085c0.678 0.085 1.356 0.254 2.034 0.339z" />
        <path
            d="m301.86 326.15c-0.763 0-1.271-0.848-1.271-1.695-7.882-2.458-17.883-10.425-24.494-11.273-5.51-0.593-8.73-0.339-11.188-0.593-4.407-0.508-6.187-1.61-10.255-4.407-1.102-0.763-0.763-2.543-0.085-3.644 7.035 4.492 11.442 5.085 15.765 5.678 2.118 0.34 4.237 0.593 6.526 1.356 2.796 0.932 5.678 2.034 8.56 3.22 13.137 5.34 27.29 11.188 36.613-5.932 2.882 0.424 3.814 5 1.356 9.323 0.509 0.424 0.848 1.102 0.509 1.61-0.424 0.424-1.102 0.424-1.78 0.085-1.186 1.44-2.797 2.712-5 3.73 0.508 0.677 0.678 1.61 0 1.949-0.763 0.423-1.695-0.34-2.034-1.187-1.61 0.509-3.56 0.848-5.764 1.017 0 0.763-0.254 1.526-0.932 1.61-0.763 0-1.187-0.847-1.271-1.61-1.187 0-2.543-0.17-3.899-0.339-0.17 0-0.339 0-0.424-0.085-0.084 0.594-0.423 1.102-0.932 1.187z"
            fill="#ffe330" />
        <path
            d="m313.39 321.41c0.254 0.17 0.423 0.593 0.254 0.932-0.254 0.763-1.187 1.102-1.95 0.847-0.847-0.254-1.017-1.101-0.084-1.695 0.508-0.339 1.186-0.508 1.78-0.084zm4.491-2.713c0.509-0.169 1.272 0.424 1.357 0.933 0.169 0.678-0.34 1.271-1.102 1.186-0.594-0.084-1.187-0.508-1.187-1.101-0.085-0.424 0.424-0.933 0.932-1.018zm-11.95 3.052c0.593 0 0.848 0.423 0.763 0.932 0 0.339-0.17 0.593-0.424 0.847-0.254 0.424-0.932 0.424-1.356 0.255-1.271-0.594 0.17-2.204 1.017-2.034z" />
        <path
            d="m297.11 293.52c-2.289-4.238-13.307-6.526-16.781-7.12-5.933-0.932-18.985-3.05-20.257 4.916 0.255 0.085 0.678-0.17 1.272-0.678l0.508-0.509-0.085 0.678c0 0.509 0 1.018 0.085 1.357s0.17 0.508 0.34 0.678c0.169 0.084 0.508 0.17 0.931 0.084 0.424 0 0.848-0.17 1.357-0.339l0.508-0.254-0.085 0.509c-0.084 0.423-0.17 0.847-0.084 1.186 0 0.34 0.17 0.593 0.423 0.763 0.17 0.085 0.34 0.17 0.594 0.17 0.254-0.085 0.508-0.17 0.762-0.34l0.509-0.254-0.085 0.509c0 0.593 0.085 1.017 0.254 1.44 0.17 0.255 0.34 0.424 0.594 0.509 0.254 0.17 0.508 0.17 0.847 0.085a2.473 2.473 0 0 0 1.187-0.678l0.424-0.424 0.084 0.508c0.085 0.509 0.509 2.035 1.102 2.204 0.424 0.085 1.017-0.339 1.78-1.102l0.339-0.424 0.085 0.594c0.17 0.339 0.254 0.678 0.339 0.932 0.17 0.17 0.339 0.424 0.508 0.678 0.085 0 0.085 0.085 0.17 0.085 0.424 0.17 1.017 0.085 1.78-0.509l0.339-0.254 0.084 0.509c0.085 0.423 0.17 0.847 0.34 1.101 0.084 0.255 0.338 0.424 0.593 0.509 0.254 0 0.508 0 0.762-0.17 0.34-0.254 0.594-0.593 0.933-1.017l0.339-0.508 0.17 0.593c0.169 0.424 0.254 0.763 0.508 1.017 0.085 0.17 0.339 0.254 0.508 0.254a0.77 0.77 0 0 0 0.594-0.254c0.254-0.17 0.423-0.508 0.678-0.932l0.254-0.509 0.254 0.509c0.17 0.424 0.424 0.763 0.678 1.017 0.254 0.17 0.424 0.254 0.593 0.254 0.255 0 0.509-0.17 0.763-0.424s0.424-0.593 0.593-1.017l0.17-0.678 0.339 0.594c0.085 0.17 0.17 0.254 0.17 0.423 0.254 0.424 0.508 1.017 1.186 0.933 0.17 0 0.34-0.085 0.509-0.34 0.17-0.254 0.254-0.762 0.254-1.27l0.085-0.594 0.423 0.424c0.255 0.254 0.594 0.593 0.848 0.763 0.254 0.084 0.508 0.17 0.847 0 0.34-0.085 0.424-0.424 0.509-1.102 0.085-0.17 0.085-0.34 0.17-0.593l0.084-0.594 0.424 0.509c0.509 0.593 0.932 1.017 1.356 1.102 0.34 0.084 0.763-0.17 1.102-0.594l0.17-0.17 0.254 0.17c4.492 4.916 8.475 8.221 12.035 10.425 3.39 2.034 6.441 3.051 9.238 3.305 0.763-0.678 1.44-1.44 2.119-2.288-10.34-1.271-14.578-5.424-20.934-11.696l-0.848-0.847 0.17-0.17c0-0.085 0.084-0.17 0.169-0.254 0.424-0.594 1.102-1.526 0.763-3.39zm-2.628 0.847c-0.339 1.187-2.203 1.95-4.492 2.373-3.39 0.678-7.882 0.763-9.492 0.509-2.543-0.34-5.17-1.187-7.713-2.289-2.457-1.017-4.915-2.373-7.204-3.56-1.017-0.593-1.61-1.101-1.864-1.61-0.254-0.423-0.254-0.847 0-1.186 0.17-0.34 0.593-0.593 1.017-0.848 1.186-0.593 3.136-0.847 4.916-0.932 0.932 0 2.203 0.085 3.983 0.254 1.44 0.085 3.305 0.34 5.509 0.678 3.22 0.424 6.696 1.102 9.408 1.95 1.78 0.508 3.39 1.101 4.407 1.864 1.102 0.763 1.78 1.61 1.61 2.543 0 0.085 0 0.17-0.085 0.254zm24.325 13.9c-12.629-2.204-14.324-5-21.104-12.883-0.17 0.848-0.593 1.441-0.932 1.865v0.085l0.424 0.423c6.44 6.272 10.594 10.425 20.934 11.527 0.254-0.254 0.423-0.593 0.678-1.017zm-6.95 13.73c-0.424 0.254-0.424 0.508 0 0.678h0.508c0.34 0 0.678-0.17 0.763-0.509 0-0.17 0-0.254-0.085-0.339-0.423-0.254-0.847-0.084-1.186 0.17zm-5.933 0.254c-0.339 0-1.356 0.763-0.847 1.017 0.254 0.085 0.678 0.085 0.762-0.085a0.77 0.77 0 0 0 0.255-0.593c0.084-0.17 0-0.254-0.17-0.339zm11.696-2.288c0.17 0.085 0.424 0.254 0.678 0.254 0.254 0.085 0.424-0.17 0.424-0.424a1.021 1.021 0 0 0-0.424-0.423c-0.508-0.424-1.017 0.254-0.678 0.593zm-61.785-19.24c-1.017 0.424-2.12 1.696-1.356 2.882 0.339 0.424 0.593 0.509 1.017 0.763 6.526 4.153 10.763 4.746 14.916 5.34 2.12 0.254 4.238 0.593 6.611 1.356 2.797 0.847 5.679 2.034 8.645 3.22 12.798 5.255 26.697 10.934 35.766-5.593-0.763-0.085-1.44-0.17-2.034-0.255-7.035 12.46-21.782 7.12-33.054 3.051-3.899-1.356-7.289-2.627-9.831-2.881l-0.34-0.085 0.085-0.254c0.34-1.695 0.255-3.306-0.254-4.916-0.339-1.271-1.017-2.543-1.865-3.814-0.254-0.17-0.423-0.424-0.508-0.763l-0.17-0.17c0-0.169-0.084-0.253-0.084-0.423-0.594 0.509-1.102 0.848-1.526 0.932a12.416 12.416 0 0 1 1.526 3.221c0.508 1.695 0.593 3.475 0.254 5.255v0.254h-0.254c-3.814-0.254-7.204-1.102-10.17-2.458-2.713-1.271-5.086-2.797-7.374-4.661z"
            fill="#fff" />
        <path
            d="m379.41 214.36c-0.255-0.255-0.509-0.34-0.848-0.34s-0.593 0.085-0.763 0.34c-0.254 0.254-0.339 0.508-0.339 0.847 0 0.34 0.085 0.678 0.34 0.848 0.169 0.254 0.423 0.339 0.762 0.339 0.34 0 0.593-0.085 0.848-0.34 0.17-0.169 0.339-0.508 0.339-0.847s-0.17-0.593-0.34-0.847zm28.053 0.762c-0.17-0.254-0.508-0.339-0.847-0.339-0.255 0-0.594 0.085-0.763 0.34-0.254 0.169-0.34 0.508-0.34 0.847s0.086 0.593 0.34 0.847c0.17 0.255 0.508 0.34 0.763 0.34 0.339 0 0.678-0.085 0.847-0.34 0.17-0.254 0.34-0.508 0.34-0.847 0-0.34-0.17-0.678-0.34-0.848zm29.58-2.542a1.074 1.074 0 0 0-0.763-0.34c-0.34 0-0.594 0.17-0.848 0.34-0.17 0.254-0.339 0.508-0.339 0.847 0 0.34 0.17 0.678 0.339 0.848 0.254 0.254 0.509 0.339 0.848 0.339s0.593-0.085 0.762-0.34c0.255-0.169 0.34-0.508 0.34-0.847s-0.085-0.593-0.34-0.847z"
            fill="#f70d0e" />
        <path
            d="m391.44 214.45c-0.254-0.17-0.509-0.339-0.848-0.339-0.254 0-0.593 0.17-0.763 0.34-0.254 0.254-0.339 0.593-0.339 0.932s0.085 0.593 0.34 0.847c0.169 0.17 0.508 0.34 0.762 0.34 0.34 0 0.594-0.17 0.848-0.34 0.17-0.254 0.339-0.508 0.339-0.847 0-0.34-0.17-0.678-0.34-0.933zm29.155-0.339a1.074 1.074 0 0 0-0.763-0.339c-0.339 0-0.593 0.17-0.847 0.34-0.17 0.254-0.34 0.593-0.34 0.932s0.17 0.593 0.34 0.847c0.254 0.17 0.508 0.34 0.847 0.34 0.34 0 0.594-0.17 0.763-0.34 0.254-0.254 0.34-0.508 0.34-0.847 0-0.34-0.086-0.678-0.34-0.933z"
            fill="#1268a5" />
        <path
            d="m398.14 214.45a1.074 1.074 0 0 0-0.763-0.339c-0.34 0-0.594 0.17-0.848 0.34-0.17 0.254-0.339 0.593-0.339 0.932s0.17 0.593 0.339 0.847c0.254 0.17 0.509 0.34 0.848 0.34s0.593-0.17 0.762-0.34c0.255-0.254 0.34-0.508 0.34-0.847 0-0.34-0.085-0.678-0.34-0.933zm29.748-1.695c-0.254-0.254-0.509-0.424-0.848-0.424s-0.593 0.17-0.762 0.424c-0.255 0.17-0.424 0.509-0.424 0.848s0.17 0.593 0.424 0.847c0.17 0.17 0.423 0.34 0.762 0.34 0.34 0 0.594-0.17 0.848-0.34 0.17-0.254 0.339-0.508 0.339-0.847 0-0.34-0.17-0.678-0.34-0.848z"
            fill="#3b3c45" />
        <g fill="#ffe330">
            <path
                d="m269.23 292.67c1.271 0.593 2.542 1.271 3.814 1.78 2.458 1.102 5 1.95 7.543 2.288 1.271 0.17 4.407 0.085 7.373-0.254-2.542-1.865-5.424-3.136-8.645-3.814a26.883 26.883 0 0 0-10.085 0z" />
            <path
                d="m289.91 296.15c2.119-0.424 3.814-1.017 4.068-1.95v-0.169c0.17-0.678-0.424-1.356-1.356-2.034-1.017-0.678-2.458-1.271-4.238-1.78-2.712-0.847-6.102-1.44-9.323-1.95-2.203-0.253-3.983-0.508-5.509-0.677-1.695-0.085-3.05-0.17-3.814-0.17-1.78 0-3.644 0.34-4.746 0.848-0.339 0.17-0.678 0.424-0.763 0.593-0.084 0.254-0.17 0.424 0 0.678 0.255 0.424 0.763 0.848 1.695 1.356 0.763 0.424 1.61 0.848 2.458 1.356 3.899-0.847 7.628-0.847 11.103-0.084a21.924 21.924 0 0 1 9.238 4.237c0.424-0.085 0.763-0.17 1.187-0.254zm-29.919-4.238v0.085c-0.169 1.61-1.27 2.966-2.712 4.153-1.27 1.017-1.78 2.966-0.932 4.238 2.204 1.78 4.492 3.305 7.035 4.492 2.966 1.27 6.102 2.118 9.746 2.373 0.255-1.61 0.17-3.22-0.339-4.831a10.426 10.426 0 0 0-1.78-3.475c-0.593-0.424-0.932-1.356-1.101-2.034-0.34 0.339-0.763 0.508-1.102 0.593-0.424 0.085-0.848 0.085-1.187-0.085s-0.593-0.508-0.847-0.847c-0.17-0.34-0.254-0.763-0.254-1.187-0.255 0.085-0.424 0.085-0.594 0.085-0.423 0.085-0.762-0.085-1.017-0.254-0.423-0.255-0.593-0.678-0.678-1.102v-0.848a2.61 2.61 0 0 1-1.102 0.255c-0.508 0.084-0.932 0-1.27-0.255-0.255-0.17-0.425-0.508-0.51-0.932-0.084-0.254-0.084-0.593-0.084-0.932-0.509 0.339-0.932 0.508-1.271 0.508zm15.087 8.052a12.416 12.416 0 0 1 1.525 3.22c0.424 1.61 0.594 3.221 0.255 4.916 2.542 0.34 5.932 1.526 9.746 2.882 9.238 3.39 20.934 7.543 28.478 1.695-2.713-0.34-5.679-1.356-8.984-3.39-3.56-2.119-7.459-5.424-11.95-10.17-0.424 0.423-0.848 0.508-1.357 0.423-0.423-0.085-0.847-0.339-1.356-0.847v0.084c-0.17 0.763-0.254 1.187-0.932 1.526-0.424 0.17-0.848 0.085-1.271-0.085v-0.085c-0.17-0.084-0.424-0.254-0.594-0.339-0.084 0.34-0.17 0.594-0.254 0.848-0.254 0.424-0.508 0.678-0.932 0.678-1.017 0.085-1.356-0.509-1.695-1.102-0.085 0.254-0.255 0.424-0.424 0.678-0.339 0.34-0.763 0.593-1.187 0.593-0.254 0-0.678-0.17-1.017-0.423-0.17-0.255-0.339-0.424-0.508-0.678-0.17 0.254-0.34 0.423-0.509 0.593a1.342 1.342 0 0 1-1.017 0.424c-0.423 0-0.762-0.17-1.017-0.509-0.085-0.17-0.254-0.424-0.339-0.678-0.254 0.34-0.508 0.509-0.763 0.678-0.423 0.254-0.847 0.34-1.186 0.254-0.509-0.084-0.763-0.339-1.017-0.762-0.17-0.255-0.254-0.509-0.34-0.848-0.508 0.254-0.931 0.424-1.355 0.424zm138.32-85.771c-0.254-0.254-0.509-0.339-0.848-0.339s-0.593 0.085-0.762 0.339c-0.255 0.17-0.34 0.509-0.34 0.848s0.085 0.593 0.34 0.847c0.17 0.254 0.423 0.34 0.762 0.34 0.34 0 0.594-0.086 0.848-0.34 0.17-0.254 0.339-0.508 0.339-0.847 0-0.34-0.17-0.678-0.339-0.848zm-28.647 0.254c-0.254-0.17-0.508-0.339-0.847-0.339-0.34 0-0.594 0.17-0.848 0.34-0.17 0.254-0.339 0.593-0.339 0.932s0.17 0.593 0.34 0.847c0.253 0.17 0.508 0.34 0.847 0.34s0.593-0.17 0.847-0.34c0.17-0.254 0.34-0.508 0.34-0.847 0-0.34-0.17-0.678-0.34-0.933z" />
            <path
                d="m453.48 106.64h-32.97c13.56 3.729 25.257 12.289 32.97 23.73zm-206.88 0h32.969c-13.646 3.729-25.342 12.289-32.97 23.73zm144.08 0a57.865 57.865 0 0 0-18.561 8.899c-10.594 6.695-18.053 16.78-22.12 28.392-4.069-11.611-11.443-21.697-22.037-28.392-5.594-3.984-11.865-7.035-18.646-8.9z"
                stroke="#000" stroke-width="1.9205" />
        </g>
        <path
            d="m317.54 287.93c0.763-0.424 1.78-2.034 3.221-2.034h0.678c0 1.44-0.17 1.356-0.678 2.627 3.73-1.695 4.746-1.356 5.17-1.102 0.593 0.509-0.847 1.78-1.017 2.628 0.593-0.255 3.983-1.865 5.679-0.255 1.186 1.187 0.254 2.035-0.085 3.221 0 0.17 5.848-0.678 3.983 2.797-0.17 0.254 4.323 0 3.645 0.508-0.509 0.509-2.543 2.204-2.543 2.882-0.17 0.593 2.034 0.593 2.119 2.458 0 1.356-2.119 0.932-3.645 2.627 0.763 1.017 2.035 1.526 2.289 2.712 0.17 0.848-0.34 2.204-2.712 2.628 1.356 0.508 2.288 1.186 2.203 2.627-1.356-1.102-5.509-1.017-4.746-0.254 1.187 1.356 0.763 3.814 0.678 3.814-2.543-1.526-5.594 0.254-7.458 1.102-0.678 0.254-2.289 0-2.882-0.17-1.95-0.339-3.73-1.525-5.763-2.119-1.356-0.339-3.73-1.864-4.831-2.712-1.61-1.271-2.797-4.068-2.966-6.102-0.085-1.271-0.679-1.95-1.187-3.136-2.797-5.594 0.17-3.56 0.254-7.797 0-3.475 5.34-6.018 7.967-7.374 1.356-0.678 1.78-1.017 2.627 0.424zm97.976-3.475c2.119-1.865 3.814-2.288 6.356-1.017 0.085-0.593 0.34-1.271 0.763-1.695 1.865-1.865 4.323-0.085 5.763 1.525 0.424-0.339 0.933-0.508 1.441-0.593 2.373-0.339 3.814 2.204 3.899 4.323 0.085 0.762 0.932 2.373 1.865 2.288 0.762 0 0.678-1.44 0.593-1.95-0.424-2.034 0.593-3.39 2.627-3.56 3.475-0.253 5.679 3.815 6.018 6.866 0.932 7.797-5 11.95-11.612 14.239-0.508 0.423-1.017 1.186-1.525 1.695-0.593 0.508-1.356 1.017-2.119 1.101-0.848 0.085-1.526-0.423-2.034-1.101-0.678 0.847-1.61 1.61-2.712 1.525-1.187-0.085-2.034-0.847-2.543-1.864-2.288 2.119-4.577 0.847-6.441-1.356-0.085 0.932-0.593 1.864-1.526 2.203-0.254 0.085-0.508 0.17-0.847 0.085 0.254 1.44 0.085 3.051-1.356 3.644-0.933 0.34-1.865-0.084-2.543-0.678-0.339 1.695-1.44 3.56-3.305 3.56s-2.882-1.865-3.306-3.56c-0.678 0.594-1.61 1.017-2.458 0.678-1.44-0.593-1.695-2.203-1.44-3.644-0.255 0.085-0.509 0-0.848-0.085-0.932-0.339-1.356-1.271-1.44-2.203-1.865 2.203-4.238 3.475-6.527 1.356-0.424 1.017-1.271 1.78-2.458 1.864-1.186 0.085-2.034-0.678-2.797-1.525-0.423 0.678-1.186 1.186-1.949 1.101-0.847-0.084-1.61-0.593-2.119-1.101-0.593-0.509-1.102-1.272-1.525-1.695-6.611-2.289-12.629-6.442-11.612-14.239 0.34-3.051 2.458-7.12 6.018-6.865 1.95 0.17 2.966 1.525 2.627 3.56-0.17 0.508-0.17 1.949 0.509 1.949 0.932 0.085 1.864-1.526 1.864-2.288 0.17-2.12 1.61-4.662 3.984-4.323 0.508 0.085 1.017 0.254 1.356 0.593 1.44-1.61 3.983-3.39 5.848-1.525 0.424 0.424 0.678 1.102 0.763 1.695 2.458-1.271 4.237-0.848 6.272 1.017 0.254-0.509 0.678-0.932 1.186-1.102 0.34-0.17 0.593-0.17 0.848-0.17-0.255-1.355 0-3.05 1.44-3.559 0.848-0.34 1.78 0 2.458 0.678 0.424-1.78 1.441-3.56 3.306-3.56 1.864 0 2.966 1.78 3.305 3.56 0.678-0.678 1.61-1.017 2.543-0.678 1.44 0.508 1.61 2.204 1.356 3.56 0.339 0 0.593 0 0.847 0.17 0.594 0.169 0.933 0.592 1.187 1.1z" />
        <path
            d="m321.1 316.07c0.085 0 0.17 0 0.254 0.085 0.255 0 0.509 0.085 0.509 0.085 0.932 0.17 3.051 0.508 1.102-0.509-1.017-0.424-1.78-2.797-0.763-4.322 2.034-2.797-1.526-4.238 0.085-5.17 1.101-0.678 0.762-1.017 1.017-2.034 0.084-0.424 0.762-1.017 0.932-1.526 0.254-1.78-2.288-2.119-2.119-3.305 0.085-0.594 0.763-0.509 0.932-1.61 0.17-0.848 0.255-2.29-0.847-2.459-2.119-0.254 0.424-2.118 0.085-3.22-0.34-1.187-2.12-0.678-2.289-2.034-0.339-2.034 0.763-2.204 0.763-3.56-1.186 0-2.882 2.458-3.475 2.119h-0.254c-0.085 0.254-0.34 0.678-0.34 0.763-0.169 0.339-0.253 0.678-0.338 1.017-0.17 0.847 0 1.695 1.78 2.034 0.339 0.085 0.763 0.424 1.102 0.932 0.084 0.17 0 0.254 0.084 0.424a0.54 0.54 0 0 1 0 0.508c0 0.17-0.084 0.255-0.254 0.34-0.593 0.423-0.424 1.101-0.339 1.78 0 0.592 0 1.016-0.593 1.61-0.848 0.847-0.848 1.61-0.509 1.949 0.254 0.254 0.678 0.424 1.102 0.508 0.932 0.34 2.119 0.678 2.119 2.034 0 0.763-0.763 1.102-1.356 1.78-0.509 0.509-1.017 1.356-1.102 1.78-0.17 0.593-0.085 1.102 0.17 1.526 0.169 0.508 0.593 0.847 1.101 1.102l0.085 0.084c0.34 0.17 0.509 0.509 0.593 0.933 0 0.339 0 0.762-0.17 1.101-0.084 0-0.084 0.085-0.169 0.17-0.423 0.593-0.508 1.44-0.339 2.373 0 0.17 0.085 0.254 0.085 0.339 0.254 0.848 0.678 1.44 1.356 2.373zm48.564-132.64c-1.187 1.102-2.882 1.865-4.661 2.034a4.556 4.556 0 0 0 0.678-2.373c0-0.254-0.085-0.593-0.085-0.847 1.695-0.34 3.136-1.271 4.068-2.628a6.202 6.202 0 0 0 5.17 2.797c2.204 0 4.153-1.101 5.255-2.797 1.186 1.696 3.05 2.797 5.254 2.797s4.069-1.101 5.255-2.797c1.102 1.696 3.051 2.797 5.255 2.797a6.202 6.202 0 0 0 5.17-2.797c1.187 1.696 3.136 2.797 5.255 2.797 2.203 0 4.153-1.101 5.254-2.797 1.187 1.696 3.052 2.797 5.255 2.797 2.204 0 4.068-1.101 5.255-2.797 1.102 1.696 3.051 2.797 5.255 2.797a6.202 6.202 0 0 0 5.17-2.797c1.186 1.696 3.136 2.797 5.254 2.797 2.204 0 4.153-1.101 5.255-2.797 1.187 1.696 3.051 2.797 5.255 2.797 2.203 0 4.068-1.101 5.255-2.797v3.814c-1.356 1.272-3.221 2.034-5.255 2.034-2.119 0-3.984-0.762-5.255-2.034-1.271 1.272-3.136 2.034-5.255 2.034-2.034 0-3.898-0.762-5.254-2.034-1.272 1.272-3.136 2.034-5.17 2.034-2.12 0-3.984-0.762-5.255-2.034-1.356 1.272-3.22 2.034-5.255 2.034-2.119 0-3.983-0.762-5.255-2.034-1.27 1.272-3.135 2.034-5.254 2.034-2.034 0-3.899-0.762-5.255-2.034-1.271 1.272-3.136 2.034-5.17 2.034-2.119 0-3.983-0.762-5.255-2.034-1.356 1.272-3.22 2.034-5.255 2.034-2.034 0-3.898-0.762-5.254-2.034-1.272 1.272-3.136 2.034-5.255 2.034-2.034 0-3.899-0.762-5.17-2.034zm-30.85-3.814h22.46c1.864 0 3.474 1.61 3.474 3.475 0 1.95-1.61 3.475-3.475 3.475h-22.46a3.437 3.437 0 0 1-3.474-3.475c0-1.864 1.525-3.475 3.475-3.475zm-6.187-21.527h34.833c1.865 0 3.475 1.61 3.475 3.475 0 1.95-1.61 3.475-3.475 3.475h-34.833a3.437 3.437 0 0 1-3.475-3.475c0-1.865 1.525-3.475 3.475-3.475zm64.497 127.13c-1.864-1.78-3.475-2.88-6.95-0.762 0.509-2.288-2.118-5.085-6.017-0.34-1.44-2.033-4.577-0.508-4.746 2.883-0.085 1.27-1.272 2.966-2.458 2.881-1.187-0.085-1.271-1.695-1.102-2.627 0.424-2.119-0.847-2.797-2.119-2.882-3.136-0.254-5.085 3.645-5.424 6.357-0.848 7.373 4.577 11.357 11.357 13.645 0.254 0.085 1.865 2.627 3.39 2.712 0.678 0.085 1.61-0.424 1.865-1.61 0.254 0.339 1.356 2.119 2.797 2.034 0.762-0.085 1.864-0.509 2.373-2.288 1.864 2.288 4.237 2.118 6.865-1.441 1.356-2.712 2.119-5.424 2.288-8.306 0.085-3.136-0.508-6.526-2.119-10.255zm32.291 8.052c0.255-0.423 0.255-0.762 0.085-1.186-0.17-0.34-0.508-0.509-1.017-0.594-0.254 0-0.678 0.085-1.017 0.255 0.085-0.424 0.17-0.848 0.17-1.102-0.085-0.509-0.255-0.848-0.594-1.017-0.339-0.17-0.762-0.085-1.186 0.085a3.06 3.06 0 0 0-0.932 1.101v0.085-0.085a3.06 3.06 0 0 0-0.933-1.101c-0.424-0.17-0.847-0.255-1.186-0.085-0.34 0.17-0.509 0.508-0.594 1.017 0 0.254 0.085 0.678 0.17 1.102a2.61 2.61 0 0 0-1.102-0.255c-0.424 0.085-0.763 0.255-0.932 0.594-0.17 0.424-0.17 0.763 0.085 1.186a3.06 3.06 0 0 0 1.101 0.933v0.084c-0.508 0.17-0.847 0.509-1.101 0.848-0.255 0.424-0.255 0.847-0.085 1.186 0.17 0.34 0.508 0.509 0.932 0.594 0.34 0 0.763-0.085 1.102-0.17-0.085 0.34-0.17 0.763-0.17 1.102 0.085 0.424 0.255 0.763 0.594 0.932 0.339 0.17 0.762 0.17 1.186-0.084a3.06 3.06 0 0 0 0.933-1.102c0.254 0.508 0.593 0.847 0.932 1.102 0.424 0.254 0.847 0.254 1.186 0.084 0.34-0.17 0.509-0.508 0.594-0.932 0-0.339-0.085-0.763-0.17-1.102 0.34 0.085 0.763 0.17 1.017 0.17 0.509-0.085 0.848-0.255 1.017-0.594 0.17-0.339 0.17-0.762-0.085-1.186-0.254-0.34-0.593-0.678-1.101-0.848l-0.085-0.084h0.085a3.06 3.06 0 0 0 1.101-0.933zm-1.949-7.882c-0.763 0-1.44 0.254-1.95 0.763a3.044 3.044 0 0 0-0.592 0.848 3.044 3.044 0 0 0-0.594-0.848c-0.508-0.509-1.186-0.763-1.95-0.763-0.762 0-1.44 0.254-1.948 0.763-0.509 0.509-0.848 1.187-0.848 1.95 0 0.338 0.085 0.677 0.17 0.932-0.255-0.085-0.594-0.085-0.933-0.085-0.763 0-1.44 0.254-1.95 0.763-0.508 0.508-0.762 1.186-0.762 1.949s0.254 1.526 0.763 1.95c0.254 0.254 0.508 0.423 0.847 0.593-0.339 0.17-0.593 0.339-0.847 0.593-0.509 0.508-0.763 1.186-0.763 1.95 0 0.762 0.254 1.44 0.763 1.949 0.508 0.508 1.186 0.847 1.95 0.847 0.338 0 0.677-0.085 0.932-0.17-0.085 0.255-0.17 0.594-0.17 0.933 0 0.763 0.34 1.44 0.848 1.95 0.508 0.508 1.186 0.847 1.949 0.847s1.44-0.34 1.95-0.848c0.254-0.254 0.423-0.508 0.593-0.847 0.169 0.339 0.339 0.593 0.593 0.847 0.508 0.509 1.186 0.848 1.95 0.848 0.762 0 1.44-0.34 1.948-0.848 0.509-0.508 0.763-1.186 0.763-1.95 0-0.338 0-0.677-0.084-0.931 0.254 0.084 0.593 0.17 0.932 0.17 0.763 0 1.44-0.34 1.95-0.848 0.508-0.509 0.762-1.187 0.762-1.95s-0.254-1.44-0.763-1.95a3.044 3.044 0 0 0-0.847-0.592c0.339-0.17 0.593-0.34 0.847-0.594 0.509-0.423 0.763-1.186 0.763-1.949s-0.254-1.44-0.763-1.95c-0.508-0.508-1.186-0.762-1.95-0.762-0.338 0-0.677 0-0.931 0.085 0.084-0.255 0.084-0.594 0.084-0.933 0-0.762-0.254-1.44-0.763-1.949-0.508-0.509-1.186-0.763-1.949-0.763zm5.763 11.357c0 0.594-0.254 1.187-0.678 1.61-0.339 0.424-0.932 0.679-1.525 0.679s-1.102-0.255-1.526-0.594l-0.085-0.084-0.423-0.509-0.424 0.424 0.424 0.424c0.084 0.084 0.17 0.084 0.17 0.17 0.338 0.338 0.508 0.847 0.508 1.44s-0.255 1.186-0.594 1.61c-0.423 0.34-1.017 0.593-1.61 0.593-0.678 0-1.186-0.254-1.61-0.593a2.316 2.316 0 0 1-0.678-1.61v-0.678h-0.509v0.678c0 0.593-0.254 1.186-0.678 1.61-0.424 0.34-1.017 0.593-1.61 0.593s-1.187-0.254-1.61-0.593a2.316 2.316 0 0 1-0.678-1.61c0-0.593 0.254-1.102 0.593-1.44 0-0.086 0.085-0.086 0.085-0.17l0.508-0.424-0.424-0.424-0.423 0.509c-0.085 0-0.085 0.084-0.17 0.084a2.045 2.045 0 0 1-1.44 0.594 2.316 2.316 0 0 1-1.611-0.678c-0.34-0.424-0.593-1.017-0.593-1.61 0-0.594 0.254-1.187 0.593-1.611a2.316 2.316 0 0 1 1.61-0.678h0.678v-0.509h-0.678a2.316 2.316 0 0 1-1.61-0.678c-0.34-0.423-0.593-0.932-0.593-1.61 0-0.593 0.254-1.187 0.593-1.61 0.424-0.34 1.017-0.594 1.61-0.594 0.594 0 1.102 0.17 1.441 0.509 0.085 0 0.085 0.085 0.17 0.17l0.423 0.423 0.424-0.424-0.508-0.423-0.085-0.085c-0.34-0.424-0.593-0.932-0.593-1.526 0-0.593 0.254-1.186 0.678-1.525a2.316 2.316 0 0 1 1.61-0.678c0.593 0 1.186 0.254 1.61 0.678 0.424 0.339 0.678 0.932 0.678 1.525v0.678h0.509v-0.678c0-0.593 0.254-1.186 0.678-1.525 0.424-0.424 0.932-0.678 1.61-0.678 0.593 0 1.187 0.254 1.61 0.678 0.34 0.339 0.594 0.932 0.594 1.525 0 0.594-0.17 1.102-0.509 1.526 0 0-0.085 0.085-0.17 0.085l-0.423 0.508c0.17 0.085 0.254 0.17 0.424 0.34l0.423-0.425c0-0.084 0.085-0.17 0.17-0.17 0.339-0.338 0.848-0.508 1.44-0.508 0.594 0 1.187 0.255 1.526 0.594 0.424 0.423 0.678 1.017 0.678 1.61 0 0.678-0.254 1.187-0.678 1.61-0.339 0.424-0.932 0.678-1.525 0.678h-0.678v0.509h0.678c0.593 0 1.186 0.254 1.525 0.678 0.424 0.424 0.678 1.017 0.678 1.61zm8.391-2.288c-1.102-0.17-1.95-0.509-2.712-0.848-0.678-0.423-1.187-0.932-1.78-1.61l-0.339-0.424-0.17 0.594c-0.338 2.203-1.016 3.898-1.864 5.339-0.932 1.78-2.204 3.39-3.051 4.577 2.119-0.678 3.899-1.356 5.678-2.628a18.546 18.546 0 0 0 4.408-4.492l0.254-0.423zm-1.44-7.628c-0.679 0-1.357 0.254-1.78 0.763-0.51 0.424-0.763 1.102-0.763 1.78 0 0.762 0.254 1.44 0.762 1.864 0.424 0.509 1.102 0.763 1.78 0.763 0.763 0 1.356-0.254 1.865-0.763 0.424-0.508 0.763-1.102 0.763-1.864 0-0.678-0.34-1.356-0.763-1.78-0.509-0.509-1.102-0.763-1.865-0.763zm-33.902 12.12a3.617 3.617 0 0 1-2.289-0.848c0.678 1.272 1.272 2.373 1.695 3.39 0.255 0.594 0.509 1.102 0.594 1.61 0.17-0.508 0.339-1.016 0.593-1.61 0.424-1.017 1.017-2.118 1.78-3.39-0.678 0.509-1.441 0.848-2.373 0.848zm-2.289-6.611a3.617 3.617 0 0 1 2.289-0.848c0.932 0 1.695 0.34 2.373 0.848a27.231 27.231 0 0 1-1.78-3.475c-0.254-0.508-0.424-1.102-0.593-1.525-0.085 0.423-0.34 1.017-0.594 1.525-0.423 1.017-1.017 2.204-1.695 3.475zm-20.764 0.932c-0.255-0.423-0.34-0.762-0.17-1.186 0.17-0.34 0.593-0.509 1.017-0.594 0.34 0 0.763 0.085 1.102 0.255-0.17-0.424-0.17-0.848-0.17-1.102 0.085-0.509 0.255-0.848 0.594-1.017 0.339-0.17 0.763-0.085 1.186 0.085 0.34 0.254 0.678 0.593 0.848 1.101l0.085 0.085v-0.085a3.06 3.06 0 0 1 0.932-1.101c0.339-0.17 0.763-0.255 1.102-0.085s0.593 0.508 0.593 1.017c0.085 0.254 0 0.678-0.17 1.102 0.424-0.17 0.763-0.255 1.102-0.255 0.509 0.085 0.848 0.255 1.017 0.594 0.17 0.424 0.085 0.763-0.17 1.186-0.169 0.34-0.592 0.678-1.016 0.933h-0.085l0.085 0.084c0.424 0.17 0.847 0.509 1.017 0.848 0.254 0.424 0.339 0.847 0.17 1.186-0.17 0.34-0.51 0.509-1.018 0.594-0.339 0-0.678-0.085-1.102-0.17 0.17 0.34 0.255 0.763 0.17 1.102 0 0.424-0.254 0.763-0.593 0.932-0.34 0.17-0.763 0.17-1.102-0.084a3.06 3.06 0 0 1-0.932-1.102h-0.085c-0.17 0.508-0.509 0.847-0.848 1.102-0.423 0.254-0.847 0.254-1.186 0.084-0.34-0.17-0.509-0.508-0.594-0.932 0-0.339 0-0.763 0.17-1.102-0.339 0.085-0.763 0.17-1.102 0.17-0.424-0.085-0.847-0.255-1.017-0.594s-0.085-0.762 0.17-1.186c0.254-0.34 0.593-0.678 1.017-0.848l0.084-0.084h-0.084a3.613 3.613 0 0 1-1.017-0.933zm1.949-7.882c0.763 0 1.44 0.254 1.95 0.763 0.254 0.254 0.423 0.509 0.593 0.848 0.084-0.34 0.339-0.594 0.508-0.848 0.509-0.509 1.187-0.763 2.034-0.763 0.763 0 1.441 0.254 1.95 0.763 0.508 0.509 0.762 1.187 0.762 1.95 0 0.338 0 0.677-0.17 0.932 0.34-0.085 0.594-0.085 0.933-0.085 0.763 0 1.526 0.254 1.95 0.763 0.508 0.508 0.847 1.186 0.847 1.949s-0.339 1.526-0.848 1.95c-0.169 0.254-0.508 0.423-0.762 0.593 0.254 0.17 0.593 0.339 0.762 0.593 0.509 0.508 0.848 1.186 0.848 1.95 0 0.762-0.339 1.44-0.848 1.949-0.423 0.508-1.186 0.847-1.949 0.847-0.339 0-0.593-0.085-0.932-0.17 0.17 0.255 0.17 0.594 0.17 0.933 0 0.763-0.255 1.44-0.763 1.95-0.509 0.508-1.187 0.847-1.95 0.847a2.807 2.807 0 0 1-2.034-0.848c-0.17-0.254-0.424-0.508-0.508-0.847-0.17 0.339-0.34 0.593-0.594 0.847-0.508 0.509-1.186 0.848-1.949 0.848s-1.44-0.34-1.95-0.848c-0.508-0.508-0.847-1.186-0.847-1.95 0-0.338 0.085-0.677 0.17-0.931-0.255 0.084-0.594 0.17-0.933 0.17-0.762 0-1.44-0.34-1.949-0.848-0.509-0.509-0.848-1.187-0.848-1.95s0.34-1.44 0.848-1.95c0.254-0.253 0.509-0.423 0.848-0.592a3.044 3.044 0 0 1-0.848-0.594c-0.509-0.423-0.848-1.186-0.848-1.949s0.34-1.44 0.848-1.95c0.509-0.508 1.187-0.762 1.95-0.762 0.338 0 0.677 0 0.932 0.085a3.047 3.047 0 0 1-0.17-0.933c0-0.762 0.34-1.44 0.848-1.949s1.186-0.763 1.949-0.763zm-5.848 11.357a2.316 2.316 0 0 0 2.288 2.289c0.594 0 1.102-0.255 1.441-0.594 0.085 0 0.085-0.084 0.17-0.084l0.423-0.509c0.085 0.17 0.255 0.254 0.34 0.424l-0.424 0.424c0 0.084-0.085 0.084-0.17 0.17-0.254 0.338-0.508 0.847-0.508 1.44s0.254 1.186 0.678 1.61c0.423 0.34 1.017 0.593 1.61 0.593s1.187-0.254 1.61-0.593c0.424-0.424 0.594-1.017 0.594-1.61v-0.678h0.593v0.678c0 0.593 0.254 1.186 0.678 1.61 0.339 0.34 0.932 0.593 1.61 0.593 0.593 0 1.187-0.254 1.526-0.593a2.316 2.316 0 0 0 0.678-1.61c0-0.593-0.17-1.102-0.509-1.44l-0.593-0.594c0.085-0.17 0.254-0.254 0.339-0.424l0.593 0.593c0.424 0.34 0.933 0.594 1.441 0.594 0.678 0 1.187-0.255 1.61-0.678a2.316 2.316 0 0 0 0.678-1.61c0-0.594-0.254-1.187-0.678-1.611-0.423-0.424-0.932-0.678-1.61-0.678h-0.593v-0.509h0.593c0.678 0 1.187-0.254 1.61-0.678 0.424-0.423 0.678-0.932 0.678-1.61 0-0.593-0.254-1.187-0.678-1.61-0.423-0.34-0.932-0.594-1.61-0.594-0.508 0-1.017 0.17-1.44 0.509 0 0-0.085 0.085-0.085 0.17l-0.509 0.423c-0.085-0.17-0.254-0.254-0.339-0.424l0.424-0.423c0.085 0 0.085-0.085 0.17-0.085 0.338-0.424 0.508-0.932 0.508-1.526 0-0.593-0.254-1.186-0.678-1.525-0.34-0.424-0.933-0.678-1.526-0.678-0.678 0-1.271 0.254-1.61 0.678-0.424 0.339-0.678 0.932-0.678 1.525v0.678h-0.593v-0.678c0-0.593-0.17-1.186-0.594-1.525a2.316 2.316 0 0 0-1.61-0.678c-0.593 0-1.187 0.254-1.61 0.678-0.424 0.339-0.678 0.932-0.678 1.525 0 0.594 0.254 1.102 0.508 1.526 0.085 0 0.17 0.085 0.17 0.085l0.423 0.508c-0.084 0.085-0.254 0.17-0.339 0.34l-0.423-0.425c-0.085-0.084-0.085-0.17-0.17-0.17a2.139 2.139 0 0 0-1.44-0.508c-0.594 0-1.187 0.255-1.611 0.594a2.316 2.316 0 0 0-0.678 1.61c0 0.678 0.254 1.187 0.678 1.61a2.316 2.316 0 0 0 1.61 0.678h0.594v0.509h-0.594a2.316 2.316 0 0 0-2.288 2.288zm-8.306-2.288a8.694 8.694 0 0 0 2.627-0.848 6.408 6.408 0 0 0 1.78-1.61l0.424-0.424 0.085 0.594c0.424 2.203 1.102 3.898 1.864 5.339 0.933 1.78 2.289 3.39 3.052 4.577-2.035-0.678-3.814-1.356-5.594-2.628-1.61-1.101-3.051-2.542-4.407-4.492l-0.255-0.423zm1.356-7.628c0.763 0 1.356 0.254 1.865 0.763 0.424 0.424 0.763 1.102 0.763 1.78 0 0.762-0.34 1.44-0.763 1.864-0.509 0.509-1.102 0.763-1.865 0.763-0.678 0-1.356-0.254-1.78-0.763-0.508-0.508-0.762-1.102-0.762-1.864 0-0.678 0.254-1.356 0.762-1.78 0.424-0.509 1.102-0.763 1.78-0.763zm43.14-1.61c1.864-1.78 3.475-2.882 6.95-0.763-0.594-2.288 2.119-5.085 5.932-0.34 1.526-2.033 4.577-0.508 4.831 2.883 0 1.27 1.272 2.966 2.458 2.881 1.187-0.085 1.272-1.695 1.102-2.627-0.424-2.119 0.848-2.797 2.034-2.882 3.22-0.254 5.085 3.645 5.424 6.357 0.933 7.373-4.576 11.357-11.272 13.645-0.254 0.085-1.95 2.627-3.39 2.712-0.678 0.085-1.61-0.424-1.865-1.61-0.254 0.339-1.44 2.119-2.796 2.034-0.763-0.085-1.865-0.509-2.374-2.288-1.949 2.288-4.237 2.118-6.865-1.441-1.356-2.712-2.118-5.424-2.288-8.306-0.17-3.136 0.509-6.526 2.119-10.255zm-18.222 19.07c0 1.016 0.339 1.949 1.186 2.288 0.424 0.17 1.017 0.084 1.526-0.255-0.085 0.085-0.085 0.17-0.17 0.34-0.593 1.525-0.254 3.22 0.848 3.56 0.932 0.338 2.034-0.34 2.712-1.526v0.084c0 2.373 1.356 4.323 2.882 4.323 1.61 0 2.881-1.95 2.881-4.323v-0.084c0.678 1.186 1.865 1.864 2.797 1.525 1.017-0.339 1.441-2.034 0.763-3.56 0-0.17-0.085-0.254-0.085-0.339 0.509 0.34 1.017 0.424 1.526 0.255 0.763-0.34 1.186-1.272 1.102-2.289-1.102-2.119-1.865-4.322-2.204-6.61h-2.966c0.17 0.423 0.339 0.847 0.508 1.356 0.763 2.288 1.695 5 0.932 7.119-0.339 1.102-1.017 1.695-1.695 2.034-0.508 0.17-0.932 0.254-1.44 0.17-0.424-0.085-0.848-0.255-1.187-0.594-0.424-0.339-0.678-0.763-0.932-1.271-0.17 0.508-0.509 0.932-0.848 1.271-0.339 0.34-0.763 0.509-1.271 0.594-0.424 0.084-0.932 0-1.356-0.17-0.763-0.339-1.441-0.932-1.78-2.034-0.678-2.119 0.254-4.831 1.017-7.12 0.17-0.508 0.339-0.932 0.424-1.355h-2.882a23.562 23.562 0 0 1-2.288 6.61zm12.628-7.205v-0.254l-0.085-0.424c0.085-0.339 0.17-0.763 0.17-1.186 0-0.424-0.085-0.848-0.17-1.272l0.085-0.423v-0.255h2.882v2.204c0.084 0.593 0.084 1.102 0.17 1.61zm-7.289 0 0.085-0.254 0.085-0.424c-0.17-0.339-0.254-0.763-0.254-1.186a3.4 3.4 0 0 1 0.254-1.272l-0.085-0.423-0.085-0.255h-2.881a9.573 9.573 0 0 1 0 2.204c0 0.593-0.085 1.102-0.085 1.61zm-0.17-4.322a8.33 8.33 0 0 0-0.423-1.356c-0.763-2.289-1.695-5.085-1.017-7.204 0.339-1.017 1.017-1.695 1.78-2.034 0.424-0.17 0.932-0.17 1.356-0.17 0.508 0.085 0.932 0.34 1.271 0.593 0.34 0.34 0.678 0.763 0.848 1.356 0.254-0.593 0.508-1.017 0.932-1.356 0.339-0.254 0.763-0.508 1.187-0.593 0.508 0 0.932 0 1.44 0.17 0.678 0.339 1.356 1.017 1.695 2.034 0.763 2.119-0.17 4.915-0.932 7.204-0.17 0.424-0.339 0.932-0.508 1.356h2.796c0.255-2.543 0.933-5.17 2.204-7.967a1.679 1.679 0 0 0-0.932-0.932c-0.509-0.17-1.017-0.085-1.526 0.17 0-0.086 0.085-0.17 0.085-0.255 0.678-1.61 0.254-3.22-0.763-3.645-0.932-0.339-2.119 0.34-2.797 1.61v-0.169c0-2.373-1.271-4.237-2.881-4.237-1.526 0-2.882 1.864-2.882 4.237v0.17c-0.678-1.272-1.78-1.95-2.712-1.61-1.102 0.423-1.44 2.034-0.848 3.644 0.085 0.085 0.085 0.17 0.17 0.254-0.509-0.254-1.102-0.339-1.526-0.17-0.423 0.17-0.762 0.51-0.932 0.933 1.271 2.797 1.95 5.424 2.204 7.967z"
            fill="#fff" />
        <path
            d="m317.12 288.44c-0.763-1.356-0.848-0.932-1.95-0.339-1.017 0.509-7.543 3.475-7.628 6.78-0.084 4.662-2.966 2.204-0.254 7.544 0.509 1.102 1.102 1.864 1.272 3.39 0 0.085 0.423 3.814 2.712 5.594 1.271 1.017 3.56 2.373 4.576 2.627 2.543 0.678 3.73 1.695 5.51 2.119-0.51-0.848-0.933-1.695-1.102-2.458-0.424-1.102-0.34-2.204 0.17-2.966 0.084 0 0.084-0.085 0.169-0.17 0.17-0.339 0.17-0.678 0.17-1.102-0.086-0.339-0.255-0.678-0.594-0.847 0-0.085-0.085-0.085-0.085-0.085-0.508-0.339-0.932-0.678-1.102-1.102-0.254-0.424-0.339-0.932-0.17-1.525 0.086-0.424 0.51-0.933 1.018-1.441 0.678-0.678 1.44-1.441 1.44-2.119 0-1.356-1.186-1.78-2.118-2.034-0.509-0.17-0.848-0.254-1.102-0.509-0.34-0.339-0.254-0.847 0.593-1.695 0.594-0.678 0.509-1.356 0.509-1.949-0.085-0.593-0.085-1.187 0.508-1.61 0.17-0.085 0.255-0.17 0.255-0.34v-0.508c-0.085-0.17-0.17-0.339-0.255-0.593-0.339-0.424-0.762-0.848-1.102-0.932-1.78-0.34-1.949-1.102-1.78-1.95 0-0.339 0.17-0.678 0.34-1.017 0.084-0.254 0.084-0.424 0.17-0.593a0.182 0.182 0 0 1-0.17-0.17z"
            fill="#fe0000" />
        <path
            d="m406.28 294.45c-0.17 0-0.34 0.085-0.509 0.17a0.77 0.77 0 0 0-0.254 0.593c0 0.17 0.085 0.423 0.254 0.508 0.17 0.17 0.34 0.254 0.509 0.254a0.77 0.77 0 0 0 0.593-0.254c0.085-0.085 0.17-0.339 0.17-0.508 0-0.255-0.085-0.424-0.17-0.594-0.17-0.084-0.339-0.17-0.593-0.17zm17.544-1.356c0.254-0.254 0.678-0.424 1.102-0.424 0.423 0 0.847 0.17 1.101 0.424 0.255 0.339 0.424 0.678 0.424 1.102 0 0.423-0.17 0.847-0.424 1.101-0.254 0.255-0.678 0.424-1.101 0.424-0.424 0-0.848-0.17-1.102-0.424-0.255-0.254-0.424-0.678-0.424-1.101 0-0.424 0.17-0.763 0.424-1.102zm-0.085-0.509c-0.339-0.17-0.509-0.508-0.763-0.847-0.17-0.424-0.254-0.763-0.17-1.102 0-0.254 0.085-0.509 0.255-0.593 0.17-0.085 0.424 0 0.593 0.17 0.34 0.169 0.593 0.423 0.763 0.847 0.17 0.339 0.254 0.763 0.254 1.017v0.085c-0.339 0.084-0.678 0.169-0.932 0.423zm1.44-0.423v-0.17c0-0.339 0.086-0.593 0.255-0.932a1.77 1.77 0 0 1 0.678-0.848c0.254-0.17 0.509-0.254 0.678-0.17 0.17 0.085 0.254 0.34 0.254 0.594 0.085 0.339 0 0.678-0.254 1.102-0.17 0.339-0.424 0.678-0.678 0.847-0.254-0.254-0.593-0.339-0.932-0.423zm1.357 0.847c0.17-0.254 0.508-0.508 0.847-0.678 0.424-0.254 0.763-0.339 1.102-0.254 0.254 0 0.509 0.085 0.593 0.254 0.085 0.17 0 0.424-0.169 0.678a1.77 1.77 0 0 1-0.848 0.678c-0.254 0.17-0.593 0.254-0.932 0.254h-0.17c-0.084-0.339-0.169-0.678-0.423-0.932zm0.424 1.44h0.17c0.338 0 0.677 0.086 0.931 0.255 0.424 0.17 0.678 0.424 0.848 0.763 0.17 0.17 0.254 0.424 0.17 0.593-0.085 0.17-0.34 0.254-0.594 0.34-0.339 0-0.678-0.086-1.102-0.255-0.339-0.17-0.678-0.424-0.847-0.678 0.254-0.34 0.339-0.593 0.424-1.017zm-0.848 1.442c0.254 0.17 0.509 0.423 0.678 0.762 0.254 0.424 0.34 0.763 0.254 1.102 0 0.255-0.084 0.509-0.254 0.594-0.17 0.084-0.424 0-0.678-0.085-0.254-0.17-0.508-0.509-0.678-0.848a2.257 2.257 0 0 1-0.254-1.017v-0.17c0.339 0 0.678-0.169 0.932-0.338zm-1.44 0.339v0.17c0 0.338-0.085 0.677-0.255 1.016-0.17 0.34-0.424 0.678-0.763 0.848-0.17 0.085-0.424 0.17-0.593 0.085-0.17-0.085-0.254-0.34-0.254-0.594-0.085-0.339 0-0.678 0.17-1.102 0.253-0.339 0.423-0.593 0.677-0.762 0.34 0.17 0.678 0.339 1.017 0.339zm-3.9-0.17c-0.084-0.17 0-0.424 0.17-0.593 0.17-0.34 0.424-0.593 0.763-0.763 0.424-0.17 0.847-0.254 1.102-0.254h0.084c0 0.424 0.17 0.678 0.34 1.017-0.17 0.254-0.424 0.508-0.763 0.678-0.424 0.17-0.763 0.254-1.102 0.254-0.254-0.085-0.509-0.17-0.593-0.339zm2.12-2.119h-0.17c-0.34 0-0.678-0.084-1.017-0.254a2.001 2.001 0 0 1-0.763-0.678c-0.17-0.254-0.254-0.508-0.17-0.678 0.085-0.17 0.34-0.254 0.594-0.254 0.339-0.085 0.678 0 1.102 0.254 0.339 0.17 0.593 0.424 0.762 0.678-0.17 0.254-0.339 0.593-0.339 0.932zm15.848-5.932a1.985 1.985 0 0 1 1.441-0.594c0.593 0 1.102 0.17 1.441 0.594 0.339 0.339 0.593 0.847 0.593 1.356 0 0.593-0.254 1.101-0.593 1.44-0.339 0.424-0.848 0.594-1.44 0.594-0.51 0-1.018-0.17-1.442-0.594a2.045 2.045 0 0 1-0.593-1.44c0-0.509 0.254-1.017 0.593-1.356zm-0.084 6.017c0.678 0.424 1.44 0.678 2.458 0.932-1.272 1.78-2.628 3.052-4.069 4.069-1.271 0.847-2.542 1.525-3.898 1.949 0.762-0.932 1.525-1.95 2.118-3.136 0.763-1.44 1.441-3.051 1.865-5 0.424 0.508 0.932 0.932 1.526 1.186zm-28.647 5.17a16 16 0 0 0-0.509-1.525c-0.847 1.525-1.61 2.881-2.119 4.068-0.508 1.271-0.847 2.288-0.762 3.22 0 1.102 0.423 1.95 0.932 2.373 0.254 0.255 0.593 0.424 0.932 0.509 0.424 0 0.763 0 1.102-0.17 0.593-0.254 1.187-0.847 1.44-1.695 0.679-1.949-0.253-4.576-1.016-6.78zm0-7.967-0.509 1.526c-0.847-1.61-1.61-2.967-2.119-4.068-0.508-1.272-0.847-2.373-0.762-3.221 0-1.187 0.423-1.95 0.932-2.458 0.254-0.254 0.593-0.339 0.932-0.424 0.424-0.084 0.763 0 1.102 0.17a2.51 2.51 0 0 1 1.44 1.61c0.679 1.95-0.253 4.662-1.016 6.865zm-36.19-3.22c-0.339-0.424-0.848-0.594-1.44-0.594-0.51 0-1.018 0.17-1.442 0.594-0.339 0.339-0.593 0.847-0.593 1.356 0 0.593 0.254 1.101 0.593 1.44 0.424 0.424 0.933 0.594 1.441 0.594 0.593 0 1.102-0.17 1.441-0.594 0.424-0.339 0.593-0.847 0.593-1.44 0-0.509-0.17-1.017-0.593-1.356zm0.085 6.017c-0.594 0.424-1.356 0.678-2.373 0.932 1.27 1.78 2.627 3.052 4.068 4.069 1.271 0.847 2.542 1.525 3.898 1.949-0.762-0.932-1.525-1.95-2.203-3.136-0.763-1.44-1.356-3.051-1.78-5-0.508 0.508-1.017 0.932-1.61 1.186zm14.916-0.932c-0.339-0.254-0.678-0.424-1.101-0.424-0.424 0-0.848 0.17-1.102 0.424-0.254 0.339-0.424 0.678-0.424 1.102 0 0.423 0.17 0.847 0.424 1.101 0.254 0.255 0.678 0.424 1.102 0.424 0.423 0 0.762-0.17 1.101-0.424 0.255-0.254 0.424-0.678 0.424-1.101 0-0.424-0.17-0.763-0.424-1.102zm0.085-0.509c0.254-0.17 0.509-0.508 0.678-0.847 0.17-0.424 0.254-0.763 0.254-1.102 0-0.254-0.084-0.509-0.254-0.593-0.17-0.085-0.424 0-0.678 0.17a1.77 1.77 0 0 0-0.678 0.847c-0.254 0.339-0.254 0.763-0.254 1.017v0.085c0.339 0.084 0.678 0.169 0.932 0.423zm-1.525-0.423v-0.085s0.084 0 0.084-0.085c0-0.339-0.084-0.593-0.254-0.932-0.254-0.424-0.508-0.678-0.763-0.848-0.254-0.17-0.423-0.254-0.593-0.17-0.17 0.085-0.254 0.34-0.339 0.594 0 0.339 0.085 0.678 0.254 1.102 0.17 0.339 0.424 0.678 0.678 0.847 0.255-0.254 0.594-0.339 0.933-0.423zm-1.356 0.847a1.77 1.77 0 0 0-0.848-0.678c-0.339-0.254-0.763-0.339-1.017-0.254-0.34 0-0.509 0.085-0.593 0.254-0.085 0.17 0 0.424 0.084 0.678 0.17 0.254 0.509 0.509 0.848 0.678 0.339 0.17 0.678 0.254 0.932 0.254h0.255c0-0.339 0.169-0.678 0.339-0.932zm-0.34 1.44h-0.254c-0.254 0-0.593 0.086-0.932 0.255-0.34 0.17-0.678 0.424-0.848 0.763-0.084 0.17-0.17 0.424-0.084 0.593 0.084 0.17 0.254 0.254 0.593 0.34 0.254 0 0.678-0.086 1.017-0.255a1.77 1.77 0 0 0 0.848-0.678c-0.17-0.34-0.34-0.593-0.34-1.017zm0.763 1.442c-0.254 0.17-0.508 0.423-0.678 0.762-0.17 0.424-0.254 0.763-0.254 1.102 0.085 0.255 0.17 0.509 0.339 0.594 0.17 0.084 0.339 0 0.593-0.085 0.255-0.17 0.509-0.509 0.763-0.848 0.17-0.339 0.254-0.678 0.254-1.017l-0.084-0.085v-0.084c-0.34 0-0.678-0.17-0.933-0.34zm1.526 0.339v0.17c0 0.338 0.085 0.677 0.254 1.016 0.17 0.34 0.424 0.678 0.678 0.848 0.254 0.085 0.509 0.17 0.678 0.085 0.17-0.085 0.254-0.34 0.254-0.594 0-0.339-0.084-0.678-0.254-1.102a2.001 2.001 0 0 0-0.678-0.762c-0.254 0.17-0.593 0.339-0.932 0.339zm3.814-0.17a0.522 0.522 0 0 0-0.085-0.593c-0.17-0.34-0.424-0.593-0.848-0.763a2.61 2.61 0 0 0-1.101-0.254c-0.085 0.424-0.17 0.678-0.424 1.017 0.17 0.254 0.508 0.508 0.847 0.678 0.34 0.17 0.763 0.254 1.102 0.254 0.255-0.085 0.424-0.17 0.509-0.339zm-2.034-2.119h0.17c0.253 0 0.592-0.084 0.931-0.254a1.77 1.77 0 0 0 0.848-0.678c0.17-0.254 0.17-0.508 0.085-0.678s-0.254-0.254-0.509-0.254c-0.339-0.085-0.763 0-1.102 0.254-0.339 0.17-0.678 0.424-0.847 0.678 0.254 0.254 0.339 0.593 0.424 0.932zm12.798 5.255a16 16 0 0 1 0.508-1.525 31.819 31.819 0 0 1 2.119 4.068c0.593 1.271 0.847 2.288 0.847 3.22 0 1.102-0.423 1.95-0.932 2.373a2.864 2.864 0 0 1-1.017 0.509c-0.339 0-0.678 0-1.017-0.17-0.678-0.254-1.187-0.847-1.44-1.695-0.679-1.949 0.169-4.576 0.932-6.78zm0-7.967 0.508 1.526a49.23 49.23 0 0 0 2.119-4.068c0.593-1.272 0.847-2.373 0.847-3.221 0-1.187-0.423-1.95-0.932-2.458-0.339-0.254-0.678-0.339-1.017-0.424-0.339-0.084-0.678 0-1.017 0.17-0.678 0.254-1.187 0.763-1.44 1.61-0.679 1.95 0.169 4.662 0.932 6.865zm3.729 5.255c-0.34 0-0.678-0.085-0.933-0.339-0.254-0.254-0.339-0.593-0.339-0.932 0-0.424 0.085-0.678 0.34-0.933 0.254-0.254 0.593-0.423 0.932-0.423 0.423 0 0.762 0.17 0.932 0.423 0.254 0.255 0.424 0.509 0.424 0.933 0 0.339-0.17 0.678-0.424 0.932-0.17 0.254-0.509 0.339-0.932 0.339zm0-4.407c-0.848 0-1.61 0.339-2.204 0.847a3.275 3.275 0 0 0-0.932 2.289c0 0.847 0.339 1.61 0.932 2.203 0.593 0.594 1.356 0.933 2.204 0.933 0.932 0 1.695-0.34 2.288-0.933 0.509-0.593 0.848-1.356 0.848-2.203 0-0.848-0.34-1.695-0.848-2.289a3.444 3.444 0 0 0-2.288-0.847z"
            fill="#ffe330" />
        <path
            d="m335.8 165.04h28.8v1.925h-28.8zm-1.204-8.802h30.701v1.85h-30.701zm5.525 21.532h19.785v1.691h-19.785zm0.795 8.928h18.061v1.735h-18.061zm25.063-6.045c0.759 2.108 0.654 4.614-1.098 6.306l-0.886-1.274 1.266-2.594-0.657-2.164z" />
    </g>
</svg>