<svg width="700" height="500" fill-rule="evenodd" xmlns="http://www.w3.org/2000/svg">
	<path fill="#fff" d="M0 0h700v500H0z" />
	<path
		d="M344.312 397.455c-3.33-2.49-9.256-3.913-12.932-5.134-7.26-2.411-16.897-4.872-21.26-6.465-7.965-2.909-16.2-6.507-23.084-11.47-13.482-9.716-33.078-36.81-36.77-45.717-7.882-16.103-12.141-33.287-12.141-50.746V98.16h223.75v179.763c-.43 18.037-4.92 36.554-13.183 52.661-10.192 17.937-24.835 35.472-36.015 43.743-6.923 5.094-15.426 8.67-23.448 11.455-7.005 2.566-15.504 4.47-21.065 6.457-3.887 1.287-9.647 2.964-12.911 5.379L350 401.604z"
		stroke="#000" stroke-width="1.9205197500000002" stroke-miterlimit="8" />
	<path
		d="M359.153 289.284v-27.46h94.33v16.103c0 3.73-.254 7.543-.762 11.357zm0 97.128v-62.633h83.482c-7.882 16.696-19.832 32.121-35.003 43.648-13.391 10.086-34.326 13.815-48.056 18.9-.254.085-.17 0-.423.085zM246.599 246.398h94.247v-58.903h-2.034a4.377 4.377 0 01-4.408-4.408 4.377 4.377 0 014.408-4.407h1.525c-1.017-4.492-3.136-8.39-5-12.628h-2.712c-2.458 0-4.408-2.034-4.408-4.492 0-2.373 1.95-4.407 4.408-4.407h2.034c-2.458-19.917-19.663-35.597-40.174-35.597-22.29 0-40.597 18.307-40.597 40.597v2.882H246.6z"
		fill="#fe0000" stroke="#000" stroke-width="1.9205197500000002" />
	<path
		d="M340.846 289.284v-27.46h-94.247v16.103c0 3.73.255 7.543.679 11.357zm0 97.128v-62.633h-83.483c7.882 16.696 19.833 32.121 35.088 43.648 13.307 10.086 34.24 13.815 47.971 18.9.254.085.17 0 .424.085zm112.638-140.014h-94.331v-58.903h2.118c1.272 0 2.374-.509 3.221-1.441 1.865 0 3.73-.678 5.17-1.865 1.44 1.271 3.305 1.865 5.17 1.865 1.95 0 3.814-.594 5.255-1.865 1.44 1.271 3.305 1.865 5.254 1.865 1.95 0 3.814-.594 5.255-1.865 1.441 1.271 3.306 1.865 5.255 1.865 1.865 0 3.73-.594 5.17-1.865 1.526 1.271 3.39 1.865 5.255 1.865 1.949 0 3.814-.594 5.254-1.865 1.441 1.271 3.306 1.865 5.255 1.865 1.865 0 3.814-.594 5.255-1.865 1.44 1.271 3.305 1.865 5.255 1.865 1.864 0 3.729-.594 5.17-1.865 1.525 1.271 3.39 1.865 5.254 1.865 1.95 0 3.814-.594 5.255-1.865 1.44 1.271 3.305 1.865 5.255 1.865 1.864 0 3.814-.594 5.255-1.865zM359.66 178.68c1.017-4.492 3.22-8.39 5-12.628h2.797c2.374 0 4.408-2.034 4.408-4.492 0-2.373-2.034-4.407-4.408-4.407h-2.118c2.457-19.917 19.662-35.597 40.258-35.597 22.29 0 40.512 18.307 40.512 40.597v2.882h7.374v13.476l-.509.762c-1.102 1.526-2.797 2.543-4.746 2.543a5.748 5.748 0 01-4.746-2.543l-.509-.762-.508.762a5.748 5.748 0 01-4.747 2.543c-1.864 0-3.644-1.017-4.746-2.543l-.508-.762-.424.762c-1.102 1.526-2.882 2.543-4.746 2.543a5.748 5.748 0 01-4.747-2.543l-.508-.762-.509.762c-1.101 1.526-2.796 2.543-4.746 2.543a5.748 5.748 0 01-4.746-2.543l-.509-.762-.508.762a5.748 5.748 0 01-4.746 2.543c-1.865 0-3.645-1.017-4.747-2.543l-.508-.762-.424.762c-1.102 1.526-2.881 2.543-4.746 2.543a5.748 5.748 0 01-4.746-2.543l-.509-.762-.508.762c-1.102 1.526-2.797 2.543-4.747 2.543-1.949 0-3.644-1.017-4.746-2.543l-.508-.762-.509.762a5.748 5.748 0 01-4.746 2.543c-1.865 0-3.644-1.017-4.746-2.543l-.424-.762-.508.762c-.848 1.272-2.204 2.12-3.73 2.458-.593-1.78-2.203-3.05-4.153-3.05z"
		fill="#0052b6" stroke="#000" stroke-width="1.9205197500000002" />
	<path d="M340.846 320.05v-26.952h-93.06c1.44 8.984 4.153 18.137 7.882 26.952z" fill="#357600" stroke="#000"
		stroke-width="1.9205197500000002" />
	<path
		d="M305.927 161.136c3.22-1.356 5.424-.678 7.967 1.187l-.932.593c-8.476 5.594-8.052 15.934-12.205 24.155-1.95 3.644-4.83 6.356-7.797 9.153 2.627-.424 5 .678 7.034 3.22l1.441 1.78-2.203-.677c-7.628-2.289-11.95 4.237-14.578 10.34 5-.933 5.17 4.068 5.085 7.458-1.271-1.271-2.966-3.305-5-2.966-2.797.508-4.831 5.593-5.679 7.966-1.525 4.153-2.373 8.222-3.644 12.374l-4.407 4.069c1.525-6.696 3.22-13.307 4.661-20.002.678-3.22 1.271-6.526 1.356-9.747 0-3.475-.678-6.95-1.271-10.255-1.356-6.865-.424-16.019 5.085-20.341 0-2.119.34-4.407 1.102-6.696 1.95-5.932 4.661-8.39 5.17-15.17.763 1.186 1.44 1.949 1.78 3.39 1.271-5.425 3.983-10.68 7.627-15.002 5.34-6.441 11.527-10 19.748-11.272-2.203 5.085-.847 7.797-1.102 12.967-.254 4.153-1.525 5.594-4.407 8.39-1.61 1.611-3.39 3.222-4.83 5.086zm-.932 56.192c-1.95.17-2.627-.34-5.255-.34-2.712.425-3.56 2.967-4.492 5.425-.847 2.204-1.95 4.238-1.695 6.441.17 2.374 1.695 2.882 3.475 3.9-1.187.508-1.271 1.61-.339 2.372 2.797 0 5.509-.17 8.306-.17 2.712 0 5.509.17 8.221.17.932-.763.848-1.864-.339-2.373 1.78-1.017 3.305-1.525 3.56-3.899.17-2.203-.848-4.237-1.695-6.44-1.017-2.459-1.865-5.001-4.577-5.425-2.628 0-3.22.508-5.17.339zM437.974 210.209l.254-.085c3.051-1.526 4.746-3.56 7.373-5.51l.34-.253.423.339c.424.423.763.847 1.102 1.356 2.204 3.22.085 5.763.34 9.068 0 .255 0 .594.084.848.424 2.966 3.305 5.34 2.458 7.458l-.34.848-.593-.678c-.678-.763-1.356-1.272-2.288-1.61-.678-.255-1.44-.424-2.204-.679-1.017-.254-1.949-.678-2.881-1.186-1.102-.593-2.034-1.526-2.797-2.458h-.085c-4.916-.34-8.051-1.695-12.459.678.509.424 1.356.678 1.95 1.017l.339.254-.085.424c-.424 1.44 1.44 4.916-.593 5-2.458.17-5.34-1.27-7.204-2.796l-.17-.17c-2.543 1.102-6.356.848-9.153 1.017-1.61.085-3.984.678-5.764 1.187.848.508 1.865.932 2.628 1.356.508.17 1.186.508 1.017 1.186-.17.678-1.356.678-1.865.594-1.61-.17-3.644-.933-5.085-1.526a5.556 5.556 0 01-1.78-1.017l-.593.085c-4.916.424-9.323.508-14.154-.085-.678-.085-1.356-.17-1.95-.339.34.339.679.593 1.102.848.34.169.679.508.594 1.017-.254.678-1.356.678-1.865.593-1.525-.34-3.475-1.61-4.661-2.543-.678-.508-1.102-.763-1.356-1.356-.34.34-.933.34-1.526.085-.763-.424-1.695-1.356-2.288-1.526l-.255-.084-.339-.085c-1.78-.509-2.881-.763-4.576-1.61-.678-.34-2.034-1.102-2.712-1.187-.763-.17-3.306-1.44-3.814-2.034l-.424-.509.508-.339c.424-.339.763-.678 1.272-1.017h.085c-.424-.423-.763-.932-1.187-1.525l-.424-.678.763-.17c1.61-.424 3.305-.932 4.916-1.44 1.102-.424 3.475-1.102 4.407-1.696 2.119-1.356 4.916-1.78 7.289-1.864 5.678-.255 11.187-1.441 16.866-1.102h.424l.339-.34c1.61-1.525 3.983-4.406 6.356-4.406 1.271 0 6.696 2.797 7.797 3.729.509.508-.254 1.356-.762 1.95h.084c2.882.169 5.848.423 8.645.847 2.797.424 5.51 1.525 8.306 1.864.085 0 .17 0 .254.085l.594-.424c1.186-.762 2.373-1.864 3.729-2.288.678-.254 1.44-.254 1.95.339.253.424.423 1.017.169 1.44-.255.425-.424.933-.594 1.357 1.356 0 2.797 0 3.9-.17z" />
	<path
		d="M274.823 235.296l-2.628 2.458c5.594-24.664 6.696-25.088 4.238-38.14-1.187-5.932.085-15.001 4.068-18.815.678 3.22 1.95 6.187 3.899 8.9-3.306-6.188-3.475-11.612-1.78-16.697 1.356-4.238 4.322-8.221 4.916-13.476 1.27 1.864.678 5.509 1.186 8.475 0-15.256 12.29-30.257 26.443-32.46-2.119 5.085.848 12.12-2.034 16.865-1.695 2.713-7.034 6.272-9.407 10.764 3.729-2.627 6.526-2.458 8.899-.847-8.815 5.763-8.39 16.272-12.544 24.409-2.373 4.661-6.356 7.628-10.086 11.187 3.9-2.034 6.866-1.186 9.408 1.95-7.628-2.289-12.374 3.305-16.018 12.12 3.39-1.272 5.593-.255 5.678 4.66-4.916-5-8.306.17-10.679 6.442 3.39-15.934 9.662-32.545 15.764-48.564.594-1.525 1.187-3.136 1.78-4.661.085-.17 0-.34-.17-.34-.169-.084-.338 0-.423.17-.593 1.526-1.187 3.051-1.695 4.577-6.78 17.798-13.73 36.19-16.866 53.734-.848 3.051-1.526 5.848-1.95 7.289zm33.393-93.23c.084-.169.254-.254.423-.084.17.085.17.254.085.339-6.356 10.764-12.12 21.951-17.12 33.562-4.831 11.103-8.9 22.545-12.035 34.156 0 .17-.17.254-.34.254a.466.466 0 01-.254-.423c3.136-11.612 7.205-23.053 12.035-34.241 5.001-11.611 10.764-22.884 17.206-33.562zm97.212 81.788c1.441-.424 4.746-1.271 6.357-1.356 2.373-.17 6.61.085 8.984-1.017 1.017-.424 2.203-1.356 3.135-1.95.594-.423 1.187-.932 1.865-1.356 4.916-2.881 7.713-1.44 13.391-1.101.763-1.102 1.017-1.865.848-2.712-.17-.933-.848-2.035-2.12-3.56-1.864.339-5.084.17-7.118.085-1.018-.085-2.12-.17-3.052-.34-2.712-.338-5.509-1.44-8.305-1.864-1.95-.339-5.764-.678-8.56-.932l-14.324-.848c-5.594-.339-11.103.763-16.781 1.017-1.695.085-4.746.34-6.95 1.78-1.44.932-8.56 2.966-9.492 3.22 1.186 1.865 1.864 2.29 3.22 3.306.34.34.593.763.254.932-.339.17-2.034-1.356-2.627-1.864-.424.254-.847.678-1.187.932.424.509 2.797 1.78 3.475 1.865.678.17 1.78.762 2.882 1.271.254.17 1.526.254 2.204-.848.593-.932.762-2.118.593-3.22-.085-.509-.34-1.017-.678-1.61-.085-.085 0-.255.17-.34.084-.084.254 0 .338.085.34.594.594 1.102.678 1.78.34 1.78-.17 3.899-1.61 4.916.932.339 1.865.508 2.797.763.424-.594 1.102-1.017 1.78-1.441.763-.424 1.44-.848 1.525-1.526.17-1.017-.423-2.373-1.186-3.644-.763-1.272-1.695-2.373-2.204-2.967-.085-.084-.085-.254.085-.339a.258.258 0 01.339 0c.509.594 1.44 1.695 2.204 3.052.254.254.423.508.508.847a2.02 2.02 0 01.509-.932c.254-.255.762-.509 1.186-.509.509 0 .932.254 1.187.509.339.339.508.763.508 1.271 0 .509-.17.932-.508 1.271-.255.34-.678.509-1.187.509-.339 0-.678-.085-.932-.34.085.51.085.933.085 1.357-.17.932-1.017 1.44-1.865 1.95-.508.338-1.102.677-1.526 1.101.848.254 1.441 1.102 2.458 1.526.424.254 1.017.423.933-.424-.085-.509 0-1.017.339-1.271.678-.594 1.525 0 1.78.084 1.356.763 2.966 2.373 3.56 2.882 4.66.678 7.881 1.271 16.865.508 0-.084-.085-.254-.17-.423-.084-.424 0-.848.255-1.272.085-.084.17-.17.339-.254.932-.763 3.475.678 4.661 1.44zm30.85-12.205c.51 0 .933.255 1.187.509.34.339.509.763.509 1.271 0 .509-.17.933-.509 1.272-.254.339-.678.508-1.186.508-.509 0-.933-.17-1.187-.508-.339-.34-.509-.763-.509-1.272 0-.508.17-.932.509-1.271.254-.254.678-.509 1.187-.509zm-9.238.17c.509 0 .933.17 1.187.508.339.34.508.763.508 1.272 0 .424-.17.932-.508 1.186a1.483 1.483 0 01-2.373 0c-.34-.254-.509-.762-.509-1.186 0-.509.17-.933.509-1.272.254-.339.678-.508 1.186-.508zm-7.204 1.44c.509 0 .933.17 1.187.51.339.338.508.762.508 1.27 0 .424-.17.933-.508 1.187-.254.34-.678.509-1.187.509-.508 0-.932-.17-1.186-.509-.34-.254-.509-.763-.509-1.186 0-.509.17-.933.509-1.272.254-.339.678-.508 1.186-.508zm-7.289 0c.509 0 .933.17 1.187.51.339.338.509.762.509 1.27 0 .51-.17.933-.509 1.272-.254.254-.678.508-1.187.508-.423 0-.932-.254-1.186-.508-.34-.34-.509-.763-.509-1.271 0-.509.17-.933.509-1.272.254-.339.763-.508 1.186-.508zm-5.932.933c.508 0 .932.17 1.271.509.254.339.509.762.509 1.27 0 .51-.255.933-.509 1.272-.339.254-.763.509-1.271.509-.424 0-.848-.255-1.187-.509-.254-.339-.508-.763-.508-1.271 0-.509.254-.932.508-1.271a1.673 1.673 0 011.187-.509zm-9.238-.593c.423 0 .847.17 1.186.508.34.34.509.763.509 1.272 0 .423-.17.932-.509 1.186-.339.34-.763.593-1.186.593-.509 0-.933-.254-1.187-.593h-.085c-.254-.254-.424-.763-.424-1.186 0-.509.17-.933.424-1.272h.085c.254-.339.678-.508 1.187-.508zm-6.78 0c.508 0 .932.17 1.27.508.255.34.424.763.424 1.272 0 .932-.678 1.78-1.695 1.78-.424 0-.847-.255-1.186-.594-.34-.254-.509-.763-.509-1.186 0-.509.17-.933.509-1.272a1.673 1.673 0 011.186-.508zm-6.696 0c.932 0 1.695.763 1.695 1.78 0 .932-.763 1.78-1.695 1.78-.509 0-.933-.255-1.187-.594-.339-.254-.508-.763-.508-1.186 0-.509.17-.933.508-1.272.254-.339.678-.508 1.187-.508zm-15.426-.678c.34 0 .763.17 1.018.423.254.34.423.679.423 1.102 0 .34-.17.763-.423 1.017a1.564 1.564 0 01-1.018.424c-.423 0-.762-.17-1.101-.424a1.564 1.564 0 01-.424-1.017c0-.423.17-.763.424-1.102.339-.254.678-.423 1.101-.423zm.594.847a.77.77 0 00-.594-.254c-.254 0-.508.085-.678.254-.17.17-.254.424-.254.678a.77.77 0 00.254.594c.17.17.424.254.678.254a.77.77 0 00.594-.254.77.77 0 00.254-.594c0-.254-.085-.508-.254-.678zm40.936-6.61c.508-.51 1.271-1.357 1.102-1.441-1.272-1.187-6.526-3.645-7.374-3.645-2.119 0-4.407 2.882-5.933 4.323l2.882.17 2.966-2.967c.085-.17.34-.17.424 0a.258.258 0 010 .339l-2.627 2.712 1.186.085 2.543-2.543c.085-.17.254-.17.424 0a.258.258 0 010 .34l-2.204 2.203.848.084 2.118-2.118c.17-.085.34-.085.424 0 .085.084.085.339 0 .423l-1.78 1.695 1.017.085 1.61-1.61c.086-.085.255-.085.425 0 .084.085.084.254 0 .424l-1.357 1.27h.933l1.186-1.186c.085-.084.255-.084.424 0 .085.085.085.34 0 .424l-.847.848zm-30.257 16.78c1.271.933 3.05 2.204 4.407 2.459.508.084 1.865 0 .847-.594-1.27-.762-3.983-3.305-5.509-4.237-.678-.424-1.186-.255-1.186.508.17 1.102.593 1.271 1.44 1.865zm23.138 1.442c1.61.593 3.644 1.356 4.915 1.44 1.017.17 2.034-.084.594-.678-.933-.508-2.713-1.356-3.56-1.949-.763-.424-3.306-2.119-4.068-1.187-.594 1.017 1.356 2.035 2.119 2.374zm18.56-3.56c1.526 1.186 4.323 2.797 6.866 2.712 1.186-.085-.509-2.882.084-4.661-.932-.594-1.61-.679-2.203-1.272-.254.17-.424.34-.678.424.254.254.593.424.847.678.424.254.848.593 1.272.848.17.084.17.254.084.423-.084.085-.254.17-.423.085-.424-.339-.848-.593-1.272-.932-.339-.254-.678-.509-.932-.763-.254.17-.593.339-.848.593.34.255.679.509 1.102.763.594.424 1.187.932 1.695 1.187.085.084.17.254.085.423-.085.085-.254.17-.424.085a68.389 68.389 0 01-1.695-1.186c-.423-.34-.847-.678-1.186-.933-.34.17-.594.424-.933.594a9.797 9.797 0 001.696 1.101c.678.424 1.356.763 1.949 1.017.085 0 .17.17.17.34-.085.169-.255.254-.424.169a14.488 14.488 0 01-1.95-1.017c-.763-.424-1.525-.932-1.95-1.271-.253.17-.592.339-.931.593zm11.866-11.442c.17-.508.593-1.356.678-1.525.17-.424-.085-1.441-1.44-1.018-1.272.424-2.628 1.61-3.645 2.289.254 0 .508.085.847.085.509-.17 1.018-.424 1.526-.678.424-.17.848-.424 1.102-.678.17-.085.339-.085.424 0 .084.169.084.339 0 .423a8.372 8.372 0 01-1.272.763l-.508.254c.763.085 1.525.085 2.288.085zm6.357 6.95c.678.763 1.525 1.78 2.627 2.373 3.475 1.78 5.255.932 7.543 3.475.34-.763.085-1.44-.424-2.204a14.053 14.053 0 00-2.796-1.271c-1.187-.339-2.458-.593-3.814-.848-.17 0-.255-.169-.255-.339s.17-.254.34-.254c1.44.254 2.711.509 3.898.932.763.255 1.44.509 2.119.848-.254-.424-.509-.848-.763-1.356-.593-.254-1.186-.509-1.865-.678-1.186-.34-2.542-.509-4.068-.678-.17 0-.254-.085-.254-.254 0-.17.17-.255.34-.255 1.44.085 2.88.34 4.152.678.509.17.932.255 1.356.424-.17-.339-.254-.847-.339-1.271-1.356-.424-2.882-.509-4.492-.424-.085 0-.254-.085-.254-.254 0-.17.085-.254.254-.34 1.526-.084 3.051.086 4.323.425 0-.34-.085-.594-.085-.848 0-.593 0-1.186.085-1.78-.34.085-.594.254-.933.34a18.317 18.317 0 01-3.475 1.101c-.17 0-.339-.085-.339-.17-.084-.169 0-.338.17-.338 1.186-.34 2.288-.679 3.39-1.102l1.271-.509c.085-.424.17-.763.255-1.186-.424.254-.848.508-1.357.678-1.101.508-2.203 1.017-3.39 1.356-.084 0-.254-.085-.339-.17 0-.17.085-.339.17-.339 1.186-.424 2.288-.847 3.39-1.356.509-.254 1.102-.508 1.695-.847 0-.424.085-.848.085-1.187-.424.254-.848.593-1.271.848-1.102.678-2.204 1.27-3.56 1.78-.17 0-.34 0-.424-.17 0-.17.085-.34.17-.34a16.663 16.663 0 003.474-1.779 10.793 10.793 0 001.61-1.102c0-.254 0-.508-.084-.763a19.18 19.18 0 01-1.695 1.102c-1.102.678-2.204 1.187-3.39 1.695-.085 0-.254-.084-.34-.17-.084-.169 0-.338.17-.423 1.187-.424 2.204-.932 3.221-1.525a35.546 35.546 0 001.865-1.272c-.085-.254-.17-.508-.34-.763-.593.509-1.186.933-1.864 1.272-.932.593-1.95 1.102-3.051 1.695-.17.085-.34 0-.424-.17 0-.084 0-.254.17-.339 1.101-.593 2.118-1.102 3.05-1.61.594-.424 1.272-.848 1.865-1.271-.254-.424-.678-.848-1.102-1.272-3.39 2.458-3.983 3.73-7.458 5.51 1.187 1.525 1.865 2.542 2.119 3.644.17.932-.17 1.864-.932 3.05zM251.685 329.203c-8.052-16.019-12.629-33.732-12.629-51.276V99.097h221.886v178.83c0 17.544-4.577 35.257-12.544 51.276M341.863 290.3H246.43l-.085-.848c-.424-3.814-.678-7.712-.678-11.526V260.89h96.196zm0 30.68h-86.788l-.254-.592c-3.73-8.645-6.442-17.799-7.967-27.122l-.17-1.101h95.179zm-1.272 66.363c-.169-.085-.339-.085-.423-.17-4.238-1.525-8.476-2.796-12.798-4.068-4.746-1.44-9.493-2.797-14.239-4.407-7.373-2.627-15.001-5.848-21.273-10.51-15.086-11.441-27.206-26.866-35.342-43.987l-.594-1.356h85.94v64.922zm17.63.424v-64.922h85.94l-.678 1.356c-8.052 17.12-20.172 32.546-35.343 43.988-6.187 4.661-13.9 7.882-21.273 10.51-4.661 1.61-9.492 2.966-14.239 4.406-4.237 1.272-8.56 2.543-12.713 4.069-.17.084-.339.084-.423.17zm0-66.786v-28.816h95.093l-.17 1.101c-1.44 9.323-4.237 18.477-7.966 27.122l-.255.593zm0-30.681v-29.41h96.195v17.036c0 3.814-.254 7.712-.763 11.526l-.085.848zm6.186-133.148c2.458-20.426 20.087-36.53 41.19-36.53 22.715 0 41.53 18.731 41.445 41.53v1.95h7.374v83.228H358.22v-59.836h-16.357v59.836h-96.196v-83.228h7.289v-1.95c-.085-22.799 18.73-41.53 41.53-41.53 21.103 0 38.647 16.104 41.105 36.53zm-5.678 21.527c.932-4.492 3.05-8.306 4.916-12.628h-27.291c1.864 4.322 3.983 8.136 4.916 12.628zm-8.73-72.973h104.417v27.8l-1.78-2.543c-7.543-11.442-19.154-19.833-32.376-23.392-10.594-1.78-20.34-1.695-29.325 0a56.126 56.126 0 00-18.307 8.73c-10.424 6.61-17.713 16.442-21.697 27.968l-.932 2.543-.847-2.543c-4.069-11.526-11.357-21.358-21.697-27.969h-.085a56.126 56.126 0 00-18.307-8.73c-8.984-1.694-18.73-1.78-29.24 0-13.306 3.56-24.833 11.951-32.46 23.393l-1.696 2.542v-27.799zm98.4 223.496c-8.391 14.917-23.054 34.24-36.275 44.241-6.865 5.086-15.002 8.645-23.053 11.442-7.035 2.458-14.154 4.323-21.274 6.526-3.898 1.272-10 3.136-13.306 5.594l-4.492 3.39-4.492-3.39c-3.305-2.458-9.407-4.322-13.306-5.594-7.035-2.203-14.239-4.068-21.189-6.526-8.051-2.797-16.272-6.356-23.137-11.442-13.222-10-27.715-29.324-36.19-44.241"
		fill="#fff" />
	<path
		d="M321.691 308.184l.424.085h.17c.339.085.678.254 1.017.424 1.356.847 1.949 2.457 2.034 3.983.085 1.865-.424 3.73-1.272 5.34.509.593.763 1.356.255 2.118-.509.594-1.272.678-2.034.424-1.187 1.356-2.712 2.458-4.323 3.305.254.848.254 1.78-.593 2.204-.932.593-2.034-.17-2.543-1.017-1.61.509-3.305.763-5 .848-.085.847-.509 1.61-1.441 1.61-.932.085-1.526-.763-1.78-1.526-1.102-.084-2.288-.17-3.39-.339-.254.594-.678 1.017-1.356 1.017-1.017.085-1.61-.847-1.78-1.78-3.56-1.101-7.12-3.135-10.34-4.915-3.644-2.12-9.577-5.679-13.73-6.187-2.204-.255-4.407-.424-6.695-.424-1.441-.085-3.052-.085-4.492-.254-4.662-.509-6.696-1.78-10.51-4.407-1.44-1.018-1.017-3.136-.254-4.492l.085-.17-.085-.085c-1.017-1.525.17-3.136 1.525-3.729-.593-1.61.085-3.56 1.356-4.577 1.187-.847 2.289-2.203 2.458-3.729v-.508l.085-.17c1.44-8.56 15.001-6.356 20.934-5.424 4.577.763 14.832 3.22 17.205 7.458l.085.085v.085c.085.424.085.847.085 1.186l.339.424c7.373 8.476 8.984 10.594 20.765 12.713h.339l.254.085c.678.085 1.356.254 2.034.339z" />
	<path
		d="M301.859 326.152c-.763 0-1.271-.848-1.271-1.695-7.882-2.458-17.883-10.425-24.494-11.273-5.51-.593-8.73-.339-11.188-.593-4.407-.508-6.187-1.61-10.255-4.407-1.102-.763-.763-2.543-.085-3.644 7.035 4.492 11.442 5.085 15.765 5.678 2.118.34 4.237.593 6.526 1.356 2.796.932 5.678 2.034 8.56 3.22 13.137 5.34 27.29 11.188 36.613-5.932 2.882.424 3.814 5 1.356 9.323.509.424.848 1.102.509 1.61-.424.424-1.102.424-1.78.085-1.186 1.44-2.797 2.712-5 3.73.508.677.678 1.61 0 1.949-.763.423-1.695-.34-2.034-1.187-1.61.509-3.56.848-5.764 1.017 0 .763-.254 1.526-.932 1.61-.763 0-1.187-.847-1.271-1.61-1.187 0-2.543-.17-3.899-.339-.17 0-.339 0-.424-.085-.084.594-.423 1.102-.932 1.187z"
		fill="#ffe330" />
	<path
		d="M313.386 321.406c.254.17.423.593.254.932-.254.763-1.187 1.102-1.95.847-.847-.254-1.017-1.101-.084-1.695.508-.339 1.186-.508 1.78-.084zM317.877 318.693c.509-.169 1.272.424 1.357.933.169.678-.34 1.271-1.102 1.186-.594-.084-1.187-.508-1.187-1.101-.085-.424.424-.933.932-1.018zM305.927 321.745c.593 0 .848.423.763.932 0 .339-.17.593-.424.847-.254.424-.932.424-1.356.255-1.271-.594.17-2.204 1.017-2.034z" />
	<path
		d="M297.113 293.522c-2.289-4.238-13.307-6.526-16.781-7.12-5.933-.932-18.985-3.05-20.257 4.916.255.085.678-.17 1.272-.678l.508-.509-.085.678c0 .509 0 1.018.085 1.357.085.339.17.508.34.678.169.084.508.17.931.084.424 0 .848-.17 1.357-.339l.508-.254-.085.509c-.084.423-.17.847-.084 1.186 0 .34.17.593.423.763.17.085.34.17.594.17.254-.085.508-.17.762-.34l.509-.254-.085.509c0 .593.085 1.017.254 1.44.17.255.34.424.594.509.254.17.508.17.847.085a2.473 2.473 0 001.187-.678l.424-.424.084.508c.085.509.509 2.035 1.102 2.204.424.085 1.017-.339 1.78-1.102l.339-.424.085.594c.17.339.254.678.339.932.17.17.339.424.508.678.085 0 .085.085.17.085.424.17 1.017.085 1.78-.509l.339-.254.084.509c.085.423.17.847.34 1.101.084.255.338.424.593.509.254 0 .508 0 .762-.17.34-.254.594-.593.933-1.017l.339-.508.17.593c.169.424.254.763.508 1.017.085.17.339.254.508.254a.77.77 0 00.594-.254c.254-.17.423-.508.678-.932l.254-.509.254.509c.17.424.424.763.678 1.017.254.17.424.254.593.254.255 0 .509-.17.763-.424s.424-.593.593-1.017l.17-.678.339.594c.085.17.17.254.17.423.254.424.508 1.017 1.186.933.17 0 .34-.085.509-.34.17-.254.254-.762.254-1.27l.085-.594.423.424c.255.254.594.593.848.763.254.084.508.17.847 0 .34-.085.424-.424.509-1.102.085-.17.085-.34.17-.593l.084-.594.424.509c.509.593.932 1.017 1.356 1.102.34.084.763-.17 1.102-.594l.17-.17.254.17c4.492 4.916 8.475 8.221 12.035 10.425 3.39 2.034 6.441 3.051 9.238 3.305.763-.678 1.44-1.44 2.119-2.288-10.34-1.271-14.578-5.424-20.934-11.696l-.848-.847.17-.17c0-.085.084-.17.169-.254.424-.594 1.102-1.526.763-3.39zm-2.628.847c-.339 1.187-2.203 1.95-4.492 2.373-3.39.678-7.882.763-9.492.509-2.543-.34-5.17-1.187-7.713-2.289-2.457-1.017-4.915-2.373-7.204-3.56-1.017-.593-1.61-1.101-1.864-1.61-.254-.423-.254-.847 0-1.186.17-.34.593-.593 1.017-.848 1.186-.593 3.136-.847 4.916-.932.932 0 2.203.085 3.983.254 1.44.085 3.305.34 5.509.678 3.22.424 6.696 1.102 9.408 1.95 1.78.508 3.39 1.101 4.407 1.864 1.102.763 1.78 1.61 1.61 2.543 0 .085 0 .17-.085.254zm24.325 13.9c-12.629-2.204-14.324-5-21.104-12.883-.17.848-.593 1.441-.932 1.865v.085l.424.423c6.44 6.272 10.594 10.425 20.934 11.527.254-.254.423-.593.678-1.017zm-6.95 13.73c-.424.254-.424.508 0 .678h.508c.34 0 .678-.17.763-.509 0-.17 0-.254-.085-.339-.423-.254-.847-.084-1.186.17zm-5.933.254c-.339 0-1.356.763-.847 1.017.254.085.678.085.762-.085a.77.77 0 00.255-.593c.084-.17 0-.254-.17-.339zm11.696-2.288c.17.085.424.254.678.254.254.085.424-.17.424-.424a1.021 1.021 0 00-.424-.423c-.508-.424-1.017.254-.678.593zm-61.785-19.24c-1.017.424-2.12 1.696-1.356 2.882.339.424.593.509 1.017.763 6.526 4.153 10.763 4.746 14.916 5.34 2.12.254 4.238.593 6.611 1.356 2.797.847 5.679 2.034 8.645 3.22 12.798 5.255 26.697 10.934 35.766-5.593-.763-.085-1.44-.17-2.034-.255-7.035 12.46-21.782 7.12-33.054 3.051-3.899-1.356-7.289-2.627-9.831-2.881l-.34-.085.085-.254c.34-1.695.255-3.306-.254-4.916-.339-1.271-1.017-2.543-1.865-3.814-.254-.17-.423-.424-.508-.763l-.17-.17c0-.169-.084-.253-.084-.423-.594.509-1.102.848-1.526.932a12.416 12.416 0 011.526 3.221c.508 1.695.593 3.475.254 5.255v.254h-.254c-3.814-.254-7.204-1.102-10.17-2.458-2.713-1.271-5.086-2.797-7.374-4.661z"
		fill="#fff" />
	<path
		d="M379.409 214.362c-.255-.255-.509-.34-.848-.34-.339 0-.593.085-.763.34-.254.254-.339.508-.339.847 0 .34.085.678.34.848.169.254.423.339.762.339.34 0 .593-.085.848-.34.17-.169.339-.508.339-.847 0-.339-.17-.593-.34-.847zm28.053.762c-.17-.254-.508-.339-.847-.339-.255 0-.594.085-.763.34-.254.169-.34.508-.34.847 0 .339.086.593.34.847.17.255.508.34.763.34.339 0 .678-.085.847-.34.17-.254.34-.508.34-.847 0-.34-.17-.678-.34-.848zm29.58-2.542a1.074 1.074 0 00-.763-.34c-.34 0-.594.17-.848.34-.17.254-.339.508-.339.847 0 .34.17.678.339.848.254.254.509.339.848.339.339 0 .593-.085.762-.34.255-.169.34-.508.34-.847 0-.339-.085-.593-.34-.847z"
		fill="#f70d0e" />
	<path
		d="M391.444 214.446c-.254-.17-.509-.339-.848-.339-.254 0-.593.17-.763.34-.254.254-.339.593-.339.932 0 .339.085.593.34.847.169.17.508.34.762.34.34 0 .594-.17.848-.34.17-.254.339-.508.339-.847 0-.34-.17-.678-.34-.933zm29.155-.339a1.074 1.074 0 00-.763-.339c-.339 0-.593.17-.847.34-.17.254-.34.593-.34.932 0 .339.17.593.34.847.254.17.508.34.847.34.34 0 .594-.17.763-.34.254-.254.34-.508.34-.847 0-.34-.086-.678-.34-.933z"
		fill="#1268a5" />
	<path
		d="M398.14 214.446a1.074 1.074 0 00-.763-.339c-.34 0-.594.17-.848.34-.17.254-.339.593-.339.932 0 .339.17.593.339.847.254.17.509.34.848.34.339 0 .593-.17.762-.34.255-.254.34-.508.34-.847 0-.34-.085-.678-.34-.933zm29.748-1.695c-.254-.254-.509-.424-.848-.424-.339 0-.593.17-.762.424-.255.17-.424.509-.424.848 0 .339.17.593.424.847.17.17.423.34.762.34.34 0 .594-.17.848-.34.17-.254.339-.508.339-.847 0-.34-.17-.678-.34-.848z"
		fill="#3b3c45" />
	<path
		d="M269.229 292.674c1.271.593 2.542 1.271 3.814 1.78 2.458 1.102 5 1.95 7.543 2.288 1.271.17 4.407.085 7.373-.254-2.542-1.865-5.424-3.136-8.645-3.814a26.883 26.883 0 00-10.085 0z"
		fill="#ffe330" />
	<path
		d="M289.909 296.149c2.119-.424 3.814-1.017 4.068-1.95v-.169c.17-.678-.424-1.356-1.356-2.034-1.017-.678-2.458-1.271-4.238-1.78-2.712-.847-6.102-1.44-9.323-1.95-2.203-.253-3.983-.508-5.509-.677-1.695-.085-3.05-.17-3.814-.17-1.78 0-3.644.34-4.746.848-.339.17-.678.424-.763.593-.084.254-.17.424 0 .678.255.424.763.848 1.695 1.356.763.424 1.61.848 2.458 1.356 3.899-.847 7.628-.847 11.103-.084a21.924 21.924 0 019.238 4.237c.424-.085.763-.17 1.187-.254zM259.99 291.911v.085c-.169 1.61-1.27 2.966-2.712 4.153-1.27 1.017-1.78 2.966-.932 4.238 2.204 1.78 4.492 3.305 7.035 4.492 2.966 1.27 6.102 2.118 9.746 2.373.255-1.61.17-3.22-.339-4.831a10.426 10.426 0 00-1.78-3.475c-.593-.424-.932-1.356-1.101-2.034-.34.339-.763.508-1.102.593-.424.085-.848.085-1.187-.085-.339-.17-.593-.508-.847-.847-.17-.34-.254-.763-.254-1.187-.255.085-.424.085-.594.085-.423.085-.762-.085-1.017-.254-.423-.255-.593-.678-.678-1.102v-.848a2.61 2.61 0 01-1.102.255c-.508.084-.932 0-1.27-.255-.255-.17-.425-.508-.51-.932-.084-.254-.084-.593-.084-.932-.509.339-.932.508-1.271.508zM275.077 299.963a12.416 12.416 0 011.525 3.22c.424 1.61.594 3.221.255 4.916 2.542.34 5.932 1.526 9.746 2.882 9.238 3.39 20.934 7.543 28.478 1.695-2.713-.34-5.679-1.356-8.984-3.39-3.56-2.119-7.459-5.424-11.95-10.17-.424.423-.848.508-1.357.423-.423-.085-.847-.339-1.356-.847v.084c-.17.763-.254 1.187-.932 1.526-.424.17-.848.085-1.271-.085v-.085c-.17-.084-.424-.254-.594-.339-.084.34-.17.594-.254.848-.254.424-.508.678-.932.678-1.017.085-1.356-.509-1.695-1.102-.085.254-.255.424-.424.678-.339.34-.763.593-1.187.593-.254 0-.678-.17-1.017-.423-.17-.255-.339-.424-.508-.678-.17.254-.34.423-.509.593a1.342 1.342 0 01-1.017.424c-.423 0-.762-.17-1.017-.509-.085-.17-.254-.424-.339-.678-.254.34-.508.509-.763.678-.423.254-.847.34-1.186.254-.509-.084-.763-.339-1.017-.762-.17-.255-.254-.509-.34-.848-.508.254-.931.424-1.355.424zM413.395 214.192c-.254-.254-.509-.339-.848-.339-.339 0-.593.085-.762.339-.255.17-.34.509-.34.848 0 .339.085.593.34.847.17.254.423.34.762.34.34 0 .594-.086.848-.34.17-.254.339-.508.339-.847 0-.34-.17-.678-.339-.848zM384.748 214.446c-.254-.17-.508-.339-.847-.339-.34 0-.594.17-.848.34-.17.254-.339.593-.339.932 0 .339.17.593.34.847.253.17.508.34.847.34.339 0 .593-.17.847-.34.17-.254.34-.508.34-.847 0-.34-.17-.678-.34-.933z"
		fill="#ffe330" />
	<path
		d="M453.484 106.64h-32.97c13.56 3.729 25.257 12.289 32.97 23.73zM246.6 106.64h32.969c-13.646 3.729-25.342 12.289-32.97 23.73zM390.681 106.64a57.865 57.865 0 00-18.561 8.899c-10.594 6.695-18.053 16.78-22.12 28.392-4.069-11.611-11.443-21.697-22.037-28.392-5.594-3.984-11.865-7.035-18.646-8.9z"
		fill="#ffe330" stroke="#000" stroke-width="1.9205197500000002" />
	<path
		d="M317.538 287.928c.763-.424 1.78-2.034 3.221-2.034h.678c0 1.44-.17 1.356-.678 2.627 3.73-1.695 4.746-1.356 5.17-1.102.593.509-.847 1.78-1.017 2.628.593-.255 3.983-1.865 5.679-.255 1.186 1.187.254 2.035-.085 3.221 0 .17 5.848-.678 3.983 2.797-.17.254 4.323 0 3.645.508-.509.509-2.543 2.204-2.543 2.882-.17.593 2.034.593 2.119 2.458 0 1.356-2.119.932-3.645 2.627.763 1.017 2.035 1.526 2.289 2.712.17.848-.34 2.204-2.712 2.628 1.356.508 2.288 1.186 2.203 2.627-1.356-1.102-5.509-1.017-4.746-.254 1.187 1.356.763 3.814.678 3.814-2.543-1.526-5.594.254-7.458 1.102-.678.254-2.289 0-2.882-.17-1.95-.339-3.73-1.525-5.763-2.119-1.356-.339-3.73-1.864-4.831-2.712-1.61-1.271-2.797-4.068-2.966-6.102-.085-1.271-.679-1.95-1.187-3.136-2.797-5.594.17-3.56.254-7.797 0-3.475 5.34-6.018 7.967-7.374 1.356-.678 1.78-1.017 2.627.424zm97.976-3.475c2.119-1.865 3.814-2.288 6.356-1.017.085-.593.34-1.271.763-1.695 1.865-1.865 4.323-.085 5.763 1.525.424-.339.933-.508 1.441-.593 2.373-.339 3.814 2.204 3.899 4.323.085.762.932 2.373 1.865 2.288.762 0 .678-1.44.593-1.95-.424-2.034.593-3.39 2.627-3.56 3.475-.253 5.679 3.815 6.018 6.866.932 7.797-5 11.95-11.612 14.239-.508.423-1.017 1.186-1.525 1.695-.593.508-1.356 1.017-2.119 1.101-.848.085-1.526-.423-2.034-1.101-.678.847-1.61 1.61-2.712 1.525-1.187-.085-2.034-.847-2.543-1.864-2.288 2.119-4.577.847-6.441-1.356-.085.932-.593 1.864-1.526 2.203-.254.085-.508.17-.847.085.254 1.44.085 3.051-1.356 3.644-.933.34-1.865-.084-2.543-.678-.339 1.695-1.44 3.56-3.305 3.56-1.865 0-2.882-1.865-3.306-3.56-.678.594-1.61 1.017-2.458.678-1.44-.593-1.695-2.203-1.44-3.644-.255.085-.509 0-.848-.085-.932-.339-1.356-1.271-1.44-2.203-1.865 2.203-4.238 3.475-6.527 1.356-.424 1.017-1.271 1.78-2.458 1.864-1.186.085-2.034-.678-2.797-1.525-.423.678-1.186 1.186-1.949 1.101-.847-.084-1.61-.593-2.119-1.101-.593-.509-1.102-1.272-1.525-1.695-6.611-2.289-12.629-6.442-11.612-14.239.34-3.051 2.458-7.12 6.018-6.865 1.95.17 2.966 1.525 2.627 3.56-.17.508-.17 1.949.509 1.949.932.085 1.864-1.526 1.864-2.288.17-2.12 1.61-4.662 3.984-4.323.508.085 1.017.254 1.356.593 1.44-1.61 3.983-3.39 5.848-1.525.424.424.678 1.102.763 1.695 2.458-1.271 4.237-.848 6.272 1.017.254-.509.678-.932 1.186-1.102.34-.17.593-.17.848-.17-.255-1.355 0-3.05 1.44-3.559.848-.34 1.78 0 2.458.678.424-1.78 1.441-3.56 3.306-3.56 1.864 0 2.966 1.78 3.305 3.56.678-.678 1.61-1.017 2.543-.678 1.44.508 1.61 2.204 1.356 3.56.339 0 .593 0 .847.17.594.169.933.592 1.187 1.1z" />
	<path
		d="M321.098 316.066c.085 0 .17 0 .254.085.255 0 .509.085.509.085.932.17 3.051.508 1.102-.509-1.017-.424-1.78-2.797-.763-4.322 2.034-2.797-1.526-4.238.085-5.17 1.101-.678.762-1.017 1.017-2.034.084-.424.762-1.017.932-1.526.254-1.78-2.288-2.119-2.119-3.305.085-.594.763-.509.932-1.61.17-.848.255-2.29-.847-2.459-2.119-.254.424-2.118.085-3.22-.34-1.187-2.12-.678-2.289-2.034-.339-2.034.763-2.204.763-3.56-1.186 0-2.882 2.458-3.475 2.119h-.254c-.085.254-.34.678-.34.763-.169.339-.253.678-.338 1.017-.17.847 0 1.695 1.78 2.034.339.085.763.424 1.102.932.084.17 0 .254.084.424a.54.54 0 010 .508c0 .17-.084.255-.254.34-.593.423-.424 1.101-.339 1.78 0 .592 0 1.016-.593 1.61-.848.847-.848 1.61-.509 1.949.254.254.678.424 1.102.508.932.34 2.119.678 2.119 2.034 0 .763-.763 1.102-1.356 1.78-.509.509-1.017 1.356-1.102 1.78-.17.593-.085 1.102.17 1.526.169.508.593.847 1.101 1.102l.085.084c.34.17.509.509.593.933 0 .339 0 .762-.17 1.101-.084 0-.084.085-.169.17-.423.593-.508 1.44-.339 2.373 0 .17.085.254.085.339.254.848.678 1.44 1.356 2.373zm48.564-132.64c-1.187 1.102-2.882 1.865-4.661 2.034a4.556 4.556 0 00.678-2.373c0-.254-.085-.593-.085-.847 1.695-.34 3.136-1.271 4.068-2.628a6.202 6.202 0 005.17 2.797c2.204 0 4.153-1.101 5.255-2.797 1.186 1.696 3.05 2.797 5.254 2.797 2.204 0 4.069-1.101 5.255-2.797 1.102 1.696 3.051 2.797 5.255 2.797a6.202 6.202 0 005.17-2.797c1.187 1.696 3.136 2.797 5.255 2.797 2.203 0 4.153-1.101 5.254-2.797 1.187 1.696 3.052 2.797 5.255 2.797 2.204 0 4.068-1.101 5.255-2.797 1.102 1.696 3.051 2.797 5.255 2.797a6.202 6.202 0 005.17-2.797c1.186 1.696 3.136 2.797 5.254 2.797 2.204 0 4.153-1.101 5.255-2.797 1.187 1.696 3.051 2.797 5.255 2.797 2.203 0 4.068-1.101 5.255-2.797v3.814c-1.356 1.272-3.221 2.034-5.255 2.034-2.119 0-3.984-.762-5.255-2.034-1.271 1.272-3.136 2.034-5.255 2.034-2.034 0-3.898-.762-5.254-2.034-1.272 1.272-3.136 2.034-5.17 2.034-2.12 0-3.984-.762-5.255-2.034-1.356 1.272-3.22 2.034-5.255 2.034-2.119 0-3.983-.762-5.255-2.034-1.27 1.272-3.135 2.034-5.254 2.034-2.034 0-3.899-.762-5.255-2.034-1.271 1.272-3.136 2.034-5.17 2.034-2.119 0-3.983-.762-5.255-2.034-1.356 1.272-3.22 2.034-5.255 2.034-2.034 0-3.898-.762-5.254-2.034-1.272 1.272-3.136 2.034-5.255 2.034-2.034 0-3.899-.762-5.17-2.034zm-30.85-3.814h22.46c1.864 0 3.474 1.61 3.474 3.475 0 1.95-1.61 3.475-3.475 3.475h-22.46a3.437 3.437 0 01-3.474-3.475c0-1.864 1.525-3.475 3.475-3.475zm-6.187-21.527h34.833c1.865 0 3.475 1.61 3.475 3.475 0 1.95-1.61 3.475-3.475 3.475h-34.833a3.437 3.437 0 01-3.475-3.475c0-1.865 1.525-3.475 3.475-3.475zm64.497 127.13c-1.864-1.78-3.475-2.88-6.95-.762.509-2.288-2.118-5.085-6.017-.34-1.44-2.033-4.577-.508-4.746 2.883-.085 1.27-1.272 2.966-2.458 2.881-1.187-.085-1.271-1.695-1.102-2.627.424-2.119-.847-2.797-2.119-2.882-3.136-.254-5.085 3.645-5.424 6.357-.848 7.373 4.577 11.357 11.357 13.645.254.085 1.865 2.627 3.39 2.712.678.085 1.61-.424 1.865-1.61.254.339 1.356 2.119 2.797 2.034.762-.085 1.864-.509 2.373-2.288 1.864 2.288 4.237 2.118 6.865-1.441 1.356-2.712 2.119-5.424 2.288-8.306.085-3.136-.508-6.526-2.119-10.255zm32.291 8.052c.255-.423.255-.762.085-1.186-.17-.34-.508-.509-1.017-.594-.254 0-.678.085-1.017.255.085-.424.17-.848.17-1.102-.085-.509-.255-.848-.594-1.017-.339-.17-.762-.085-1.186.085a3.06 3.06 0 00-.932 1.101v.085-.085a3.06 3.06 0 00-.933-1.101c-.424-.17-.847-.255-1.186-.085-.34.17-.509.508-.594 1.017 0 .254.085.678.17 1.102a2.61 2.61 0 00-1.102-.255c-.424.085-.763.255-.932.594-.17.424-.17.763.085 1.186a3.06 3.06 0 001.101.933v.084c-.508.17-.847.509-1.101.848-.255.424-.255.847-.085 1.186.17.34.508.509.932.594.34 0 .763-.085 1.102-.17-.085.34-.17.763-.17 1.102.085.424.255.763.594.932.339.17.762.17 1.186-.084a3.06 3.06 0 00.933-1.102c.254.508.593.847.932 1.102.424.254.847.254 1.186.084.34-.17.509-.508.594-.932 0-.339-.085-.763-.17-1.102.34.085.763.17 1.017.17.509-.085.848-.255 1.017-.594.17-.339.17-.762-.085-1.186-.254-.34-.593-.678-1.101-.848l-.085-.084h.085a3.06 3.06 0 001.101-.933zm-1.949-7.882c-.763 0-1.44.254-1.95.763a3.044 3.044 0 00-.592.848 3.044 3.044 0 00-.594-.848c-.508-.509-1.186-.763-1.95-.763-.762 0-1.44.254-1.948.763-.509.509-.848 1.187-.848 1.95 0 .338.085.677.17.932-.255-.085-.594-.085-.933-.085-.763 0-1.44.254-1.95.763-.508.508-.762 1.186-.762 1.949 0 .763.254 1.526.763 1.95.254.254.508.423.847.593-.339.17-.593.339-.847.593-.509.508-.763 1.186-.763 1.95 0 .762.254 1.44.763 1.949.508.508 1.186.847 1.95.847.338 0 .677-.085.932-.17-.085.255-.17.594-.17.933 0 .763.34 1.44.848 1.95.508.508 1.186.847 1.949.847.763 0 1.44-.34 1.95-.848.254-.254.423-.508.593-.847.169.339.339.593.593.847.508.509 1.186.848 1.95.848.762 0 1.44-.34 1.948-.848.509-.508.763-1.186.763-1.95 0-.338 0-.677-.084-.931.254.084.593.17.932.17.763 0 1.44-.34 1.95-.848.508-.509.762-1.187.762-1.95 0-.763-.254-1.44-.763-1.95a3.044 3.044 0 00-.847-.592c.339-.17.593-.34.847-.594.509-.423.763-1.186.763-1.949 0-.763-.254-1.44-.763-1.95-.508-.508-1.186-.762-1.95-.762-.338 0-.677 0-.931.085.084-.255.084-.594.084-.933 0-.762-.254-1.44-.763-1.949-.508-.509-1.186-.763-1.949-.763zm5.763 11.357c0 .594-.254 1.187-.678 1.61-.339.424-.932.679-1.525.679-.593 0-1.102-.255-1.526-.594l-.085-.084-.423-.509-.424.424.424.424c.084.084.17.084.17.17.338.338.508.847.508 1.44s-.255 1.186-.594 1.61c-.423.34-1.017.593-1.61.593-.678 0-1.186-.254-1.61-.593a2.316 2.316 0 01-.678-1.61v-.678h-.509v.678c0 .593-.254 1.186-.678 1.61-.424.34-1.017.593-1.61.593-.593 0-1.187-.254-1.61-.593a2.316 2.316 0 01-.678-1.61c0-.593.254-1.102.593-1.44 0-.086.085-.086.085-.17l.508-.424-.424-.424-.423.509c-.085 0-.085.084-.17.084a2.045 2.045 0 01-1.44.594 2.316 2.316 0 01-1.611-.678c-.34-.424-.593-1.017-.593-1.61 0-.594.254-1.187.593-1.611a2.316 2.316 0 011.61-.678h.678v-.509h-.678a2.316 2.316 0 01-1.61-.678c-.34-.423-.593-.932-.593-1.61 0-.593.254-1.187.593-1.61.424-.34 1.017-.594 1.61-.594.594 0 1.102.17 1.441.509.085 0 .085.085.17.17l.423.423.424-.424-.508-.423-.085-.085c-.34-.424-.593-.932-.593-1.526 0-.593.254-1.186.678-1.525a2.316 2.316 0 011.61-.678c.593 0 1.186.254 1.61.678.424.339.678.932.678 1.525v.678h.509v-.678c0-.593.254-1.186.678-1.525.424-.424.932-.678 1.61-.678.593 0 1.187.254 1.61.678.34.339.594.932.594 1.525 0 .594-.17 1.102-.509 1.526 0 0-.085.085-.17.085l-.423.508c.17.085.254.17.424.34l.423-.425c0-.084.085-.17.17-.17.339-.338.848-.508 1.44-.508.594 0 1.187.255 1.526.594.424.423.678 1.017.678 1.61 0 .678-.254 1.187-.678 1.61-.339.424-.932.678-1.525.678h-.678v.509h.678c.593 0 1.186.254 1.525.678.424.424.678 1.017.678 1.61zm8.391-2.288c-1.102-.17-1.95-.509-2.712-.848-.678-.423-1.187-.932-1.78-1.61l-.339-.424-.17.594c-.338 2.203-1.016 3.898-1.864 5.339-.932 1.78-2.204 3.39-3.051 4.577 2.119-.678 3.899-1.356 5.678-2.628a18.546 18.546 0 004.408-4.492l.254-.423zm-1.44-7.628c-.679 0-1.357.254-1.78.763-.51.424-.763 1.102-.763 1.78 0 .762.254 1.44.762 1.864.424.509 1.102.763 1.78.763.763 0 1.356-.254 1.865-.763.424-.508.763-1.102.763-1.864 0-.678-.34-1.356-.763-1.78-.509-.509-1.102-.763-1.865-.763zm-33.902 12.12a3.617 3.617 0 01-2.289-.848c.678 1.272 1.272 2.373 1.695 3.39.255.594.509 1.102.594 1.61.17-.508.339-1.016.593-1.61.424-1.017 1.017-2.118 1.78-3.39-.678.509-1.441.848-2.373.848zm-2.289-6.611a3.617 3.617 0 012.289-.848c.932 0 1.695.34 2.373.848a27.231 27.231 0 01-1.78-3.475c-.254-.508-.424-1.102-.593-1.525-.085.423-.34 1.017-.594 1.525-.423 1.017-1.017 2.204-1.695 3.475zm-20.764.932c-.255-.423-.34-.762-.17-1.186.17-.34.593-.509 1.017-.594.34 0 .763.085 1.102.255-.17-.424-.17-.848-.17-1.102.085-.509.255-.848.594-1.017.339-.17.763-.085 1.186.085.34.254.678.593.848 1.101l.085.085v-.085a3.06 3.06 0 01.932-1.101c.339-.17.763-.255 1.102-.085.339.17.593.508.593 1.017.085.254 0 .678-.17 1.102.424-.17.763-.255 1.102-.255.509.085.848.255 1.017.594.17.424.085.763-.17 1.186-.169.34-.592.678-1.016.933h-.085l.085.084c.424.17.847.509 1.017.848.254.424.339.847.17 1.186-.17.34-.51.509-1.018.594-.339 0-.678-.085-1.102-.17.17.34.255.763.17 1.102 0 .424-.254.763-.593.932-.34.17-.763.17-1.102-.084a3.06 3.06 0 01-.932-1.102h-.085c-.17.508-.509.847-.848 1.102-.423.254-.847.254-1.186.084-.34-.17-.509-.508-.594-.932 0-.339 0-.763.17-1.102-.339.085-.763.17-1.102.17-.424-.085-.847-.255-1.017-.594-.17-.339-.085-.762.17-1.186.254-.34.593-.678 1.017-.848l.084-.084h-.084a3.613 3.613 0 01-1.017-.933zm1.949-7.882c.763 0 1.44.254 1.95.763.254.254.423.509.593.848.084-.34.339-.594.508-.848.509-.509 1.187-.763 2.034-.763.763 0 1.441.254 1.95.763.508.509.762 1.187.762 1.95 0 .338 0 .677-.17.932.34-.085.594-.085.933-.085.763 0 1.526.254 1.95.763.508.508.847 1.186.847 1.949 0 .763-.339 1.526-.848 1.95-.169.254-.508.423-.762.593.254.17.593.339.762.593.509.508.848 1.186.848 1.95 0 .762-.339 1.44-.848 1.949-.423.508-1.186.847-1.949.847-.339 0-.593-.085-.932-.17.17.255.17.594.17.933 0 .763-.255 1.44-.763 1.95-.509.508-1.187.847-1.95.847a2.807 2.807 0 01-2.034-.848c-.17-.254-.424-.508-.508-.847-.17.339-.34.593-.594.847-.508.509-1.186.848-1.949.848-.763 0-1.44-.34-1.95-.848-.508-.508-.847-1.186-.847-1.95 0-.338.085-.677.17-.931-.255.084-.594.17-.933.17-.762 0-1.44-.34-1.949-.848-.509-.509-.848-1.187-.848-1.95 0-.763.34-1.44.848-1.95.254-.253.509-.423.848-.592a3.044 3.044 0 01-.848-.594c-.509-.423-.848-1.186-.848-1.949 0-.763.34-1.44.848-1.95.509-.508 1.187-.762 1.95-.762.338 0 .677 0 .932.085a3.047 3.047 0 01-.17-.933c0-.762.34-1.44.848-1.949.508-.509 1.186-.763 1.949-.763zm-5.848 11.357a2.316 2.316 0 002.288 2.289c.594 0 1.102-.255 1.441-.594.085 0 .085-.084.17-.084l.423-.509c.085.17.255.254.34.424l-.424.424c0 .084-.085.084-.17.17-.254.338-.508.847-.508 1.44s.254 1.186.678 1.61c.423.34 1.017.593 1.61.593.593 0 1.187-.254 1.61-.593.424-.424.594-1.017.594-1.61v-.678h.593v.678c0 .593.254 1.186.678 1.61.339.34.932.593 1.61.593.593 0 1.187-.254 1.526-.593a2.316 2.316 0 00.678-1.61c0-.593-.17-1.102-.509-1.44l-.593-.594c.085-.17.254-.254.339-.424l.593.593c.424.34.933.594 1.441.594.678 0 1.187-.255 1.61-.678a2.316 2.316 0 00.678-1.61c0-.594-.254-1.187-.678-1.611-.423-.424-.932-.678-1.61-.678h-.593v-.509h.593c.678 0 1.187-.254 1.61-.678.424-.423.678-.932.678-1.61 0-.593-.254-1.187-.678-1.61-.423-.34-.932-.594-1.61-.594-.508 0-1.017.17-1.44.509 0 0-.085.085-.085.17l-.509.423c-.085-.17-.254-.254-.339-.424l.424-.423c.085 0 .085-.085.17-.085.338-.424.508-.932.508-1.526 0-.593-.254-1.186-.678-1.525-.34-.424-.933-.678-1.526-.678-.678 0-1.271.254-1.61.678-.424.339-.678.932-.678 1.525v.678h-.593v-.678c0-.593-.17-1.186-.594-1.525a2.316 2.316 0 00-1.61-.678c-.593 0-1.187.254-1.61.678-.424.339-.678.932-.678 1.525 0 .594.254 1.102.508 1.526.085 0 .17.085.17.085l.423.508c-.084.085-.254.17-.339.34l-.423-.425c-.085-.084-.085-.17-.17-.17a2.139 2.139 0 00-1.44-.508c-.594 0-1.187.255-1.611.594a2.316 2.316 0 00-.678 1.61c0 .678.254 1.187.678 1.61a2.316 2.316 0 001.61.678h.594v.509h-.594a2.316 2.316 0 00-2.288 2.288zm-8.306-2.288a8.694 8.694 0 002.627-.848 6.408 6.408 0 001.78-1.61l.424-.424.085.594c.424 2.203 1.102 3.898 1.864 5.339.933 1.78 2.289 3.39 3.052 4.577-2.035-.678-3.814-1.356-5.594-2.628-1.61-1.101-3.051-2.542-4.407-4.492l-.255-.423zm1.356-7.628c.763 0 1.356.254 1.865.763.424.424.763 1.102.763 1.78 0 .762-.34 1.44-.763 1.864-.509.509-1.102.763-1.865.763-.678 0-1.356-.254-1.78-.763-.508-.508-.762-1.102-.762-1.864 0-.678.254-1.356.762-1.78.424-.509 1.102-.763 1.78-.763zm43.14-1.61c1.864-1.78 3.475-2.882 6.95-.763-.594-2.288 2.119-5.085 5.932-.34 1.526-2.033 4.577-.508 4.831 2.883 0 1.27 1.272 2.966 2.458 2.881 1.187-.085 1.272-1.695 1.102-2.627-.424-2.119.848-2.797 2.034-2.882 3.22-.254 5.085 3.645 5.424 6.357.933 7.373-4.576 11.357-11.272 13.645-.254.085-1.95 2.627-3.39 2.712-.678.085-1.61-.424-1.865-1.61-.254.339-1.44 2.119-2.796 2.034-.763-.085-1.865-.509-2.374-2.288-1.949 2.288-4.237 2.118-6.865-1.441-1.356-2.712-2.118-5.424-2.288-8.306-.17-3.136.509-6.526 2.119-10.255zm-18.222 19.07c0 1.016.339 1.949 1.186 2.288.424.17 1.017.084 1.526-.255-.085.085-.085.17-.17.34-.593 1.525-.254 3.22.848 3.56.932.338 2.034-.34 2.712-1.526v.084c0 2.373 1.356 4.323 2.882 4.323 1.61 0 2.881-1.95 2.881-4.323v-.084c.678 1.186 1.865 1.864 2.797 1.525 1.017-.339 1.441-2.034.763-3.56 0-.17-.085-.254-.085-.339.509.34 1.017.424 1.526.255.763-.34 1.186-1.272 1.102-2.289-1.102-2.119-1.865-4.322-2.204-6.61h-2.966c.17.423.339.847.508 1.356.763 2.288 1.695 5 .932 7.119-.339 1.102-1.017 1.695-1.695 2.034-.508.17-.932.254-1.44.17-.424-.085-.848-.255-1.187-.594-.424-.339-.678-.763-.932-1.271-.17.508-.509.932-.848 1.271-.339.34-.763.509-1.271.594-.424.084-.932 0-1.356-.17-.763-.339-1.441-.932-1.78-2.034-.678-2.119.254-4.831 1.017-7.12.17-.508.339-.932.424-1.355h-2.882a23.562 23.562 0 01-2.288 6.61zm12.628-7.205v-.254l-.085-.424c.085-.339.17-.763.17-1.186 0-.424-.085-.848-.17-1.272l.085-.423v-.255h2.882v2.204c.084.593.084 1.102.17 1.61zm-7.289 0l.085-.254.085-.424c-.17-.339-.254-.763-.254-1.186a3.4 3.4 0 01.254-1.272l-.085-.423-.085-.255h-2.881a9.573 9.573 0 010 2.204c0 .593-.085 1.102-.085 1.61zm-.17-4.322a8.33 8.33 0 00-.423-1.356c-.763-2.289-1.695-5.085-1.017-7.204.339-1.017 1.017-1.695 1.78-2.034.424-.17.932-.17 1.356-.17.508.085.932.34 1.271.593.34.34.678.763.848 1.356.254-.593.508-1.017.932-1.356.339-.254.763-.508 1.187-.593.508 0 .932 0 1.44.17.678.339 1.356 1.017 1.695 2.034.763 2.119-.17 4.915-.932 7.204-.17.424-.339.932-.508 1.356h2.796c.255-2.543.933-5.17 2.204-7.967a1.679 1.679 0 00-.932-.932c-.509-.17-1.017-.085-1.526.17 0-.086.085-.17.085-.255.678-1.61.254-3.22-.763-3.645-.932-.339-2.119.34-2.797 1.61v-.169c0-2.373-1.271-4.237-2.881-4.237-1.526 0-2.882 1.864-2.882 4.237v.17c-.678-1.272-1.78-1.95-2.712-1.61-1.102.423-1.44 2.034-.848 3.644.085.085.085.17.17.254-.509-.254-1.102-.339-1.526-.17-.423.17-.762.51-.932.933 1.271 2.797 1.95 5.424 2.204 7.967z"
		fill="#fff" />
	<path
		d="M317.115 288.436c-.763-1.356-.848-.932-1.95-.339-1.017.509-7.543 3.475-7.628 6.78-.084 4.662-2.966 2.204-.254 7.544.509 1.102 1.102 1.864 1.272 3.39 0 .085.423 3.814 2.712 5.594 1.271 1.017 3.56 2.373 4.576 2.627 2.543.678 3.73 1.695 5.51 2.119-.51-.848-.933-1.695-1.102-2.458-.424-1.102-.34-2.204.17-2.966.084 0 .084-.085.169-.17.17-.339.17-.678.17-1.102-.086-.339-.255-.678-.594-.847 0-.085-.085-.085-.085-.085-.508-.339-.932-.678-1.102-1.102-.254-.424-.339-.932-.17-1.525.086-.424.51-.933 1.018-1.441.678-.678 1.44-1.441 1.44-2.119 0-1.356-1.186-1.78-2.118-2.034-.509-.17-.848-.254-1.102-.509-.34-.339-.254-.847.593-1.695.594-.678.509-1.356.509-1.949-.085-.593-.085-1.187.508-1.61.17-.085.255-.17.255-.34v-.508c-.085-.17-.17-.339-.255-.593-.339-.424-.762-.848-1.102-.932-1.78-.34-1.949-1.102-1.78-1.95 0-.339.17-.678.34-1.017.084-.254.084-.424.17-.593a.182.182 0 01-.17-.17z"
		fill="#fe0000" />
	<path
		d="M406.276 294.454c-.17 0-.34.085-.509.17a.77.77 0 00-.254.593c0 .17.085.423.254.508.17.17.34.254.509.254a.77.77 0 00.593-.254c.085-.085.17-.339.17-.508 0-.255-.085-.424-.17-.594-.17-.084-.339-.17-.593-.17zm17.544-1.356c.254-.254.678-.424 1.102-.424.423 0 .847.17 1.101.424.255.339.424.678.424 1.102 0 .423-.17.847-.424 1.101-.254.255-.678.424-1.101.424-.424 0-.848-.17-1.102-.424-.255-.254-.424-.678-.424-1.101 0-.424.17-.763.424-1.102zm-.085-.509c-.339-.17-.509-.508-.763-.847-.17-.424-.254-.763-.17-1.102 0-.254.085-.509.255-.593.17-.085.424 0 .593.17.34.169.593.423.763.847.17.339.254.763.254 1.017v.085c-.339.084-.678.169-.932.423zm1.44-.423v-.17c0-.339.086-.593.255-.932a1.77 1.77 0 01.678-.848c.254-.17.509-.254.678-.17.17.085.254.34.254.594.085.339 0 .678-.254 1.102-.17.339-.424.678-.678.847-.254-.254-.593-.339-.932-.423zm1.357.847c.17-.254.508-.508.847-.678.424-.254.763-.339 1.102-.254.254 0 .509.085.593.254.085.17 0 .424-.169.678a1.77 1.77 0 01-.848.678c-.254.17-.593.254-.932.254h-.17c-.084-.339-.169-.678-.423-.932zm.424 1.44h.17c.338 0 .677.086.931.255.424.17.678.424.848.763.17.17.254.424.17.593-.085.17-.34.254-.594.34-.339 0-.678-.086-1.102-.255-.339-.17-.678-.424-.847-.678.254-.34.339-.593.424-1.017zm-.848 1.442c.254.17.509.423.678.762.254.424.34.763.254 1.102 0 .255-.084.509-.254.594-.17.084-.424 0-.678-.085-.254-.17-.508-.509-.678-.848a2.257 2.257 0 01-.254-1.017v-.17c.339 0 .678-.169.932-.338zm-1.44.339v.17c0 .338-.085.677-.255 1.016-.17.34-.424.678-.763.848-.17.085-.424.17-.593.085-.17-.085-.254-.34-.254-.594-.085-.339 0-.678.17-1.102.253-.339.423-.593.677-.762.34.17.678.339 1.017.339zm-3.9-.17c-.084-.17 0-.424.17-.593.17-.34.424-.593.763-.763.424-.17.847-.254 1.102-.254h.084c0 .424.17.678.34 1.017-.17.254-.424.508-.763.678-.424.17-.763.254-1.102.254-.254-.085-.509-.17-.593-.339zm2.12-2.119h-.17c-.34 0-.678-.084-1.017-.254a2.001 2.001 0 01-.763-.678c-.17-.254-.254-.508-.17-.678.085-.17.34-.254.594-.254.339-.085.678 0 1.102.254.339.17.593.424.762.678-.17.254-.339.593-.339.932zm15.848-5.932a1.985 1.985 0 011.441-.594c.593 0 1.102.17 1.441.594.339.339.593.847.593 1.356 0 .593-.254 1.101-.593 1.44-.339.424-.848.594-1.44.594-.51 0-1.018-.17-1.442-.594a2.045 2.045 0 01-.593-1.44c0-.509.254-1.017.593-1.356zm-.084 6.017c.678.424 1.44.678 2.458.932-1.272 1.78-2.628 3.052-4.069 4.069-1.271.847-2.542 1.525-3.898 1.949.762-.932 1.525-1.95 2.118-3.136.763-1.44 1.441-3.051 1.865-5 .424.508.932.932 1.526 1.186zm-28.647 5.17a16 16 0 00-.509-1.525c-.847 1.525-1.61 2.881-2.119 4.068-.508 1.271-.847 2.288-.762 3.22 0 1.102.423 1.95.932 2.373.254.255.593.424.932.509.424 0 .763 0 1.102-.17.593-.254 1.187-.847 1.44-1.695.679-1.949-.253-4.576-1.016-6.78zm0-7.967l-.509 1.526c-.847-1.61-1.61-2.967-2.119-4.068-.508-1.272-.847-2.373-.762-3.221 0-1.187.423-1.95.932-2.458.254-.254.593-.339.932-.424.424-.084.763 0 1.102.17a2.51 2.51 0 011.44 1.61c.679 1.95-.253 4.662-1.016 6.865zm-36.19-3.22c-.339-.424-.848-.594-1.44-.594-.51 0-1.018.17-1.442.594-.339.339-.593.847-.593 1.356 0 .593.254 1.101.593 1.44.424.424.933.594 1.441.594.593 0 1.102-.17 1.441-.594.424-.339.593-.847.593-1.44 0-.509-.17-1.017-.593-1.356zm.085 6.017c-.594.424-1.356.678-2.373.932 1.27 1.78 2.627 3.052 4.068 4.069 1.271.847 2.542 1.525 3.898 1.949-.762-.932-1.525-1.95-2.203-3.136-.763-1.44-1.356-3.051-1.78-5-.508.508-1.017.932-1.61 1.186zm14.916-.932c-.339-.254-.678-.424-1.101-.424-.424 0-.848.17-1.102.424-.254.339-.424.678-.424 1.102 0 .423.17.847.424 1.101.254.255.678.424 1.102.424.423 0 .762-.17 1.101-.424.255-.254.424-.678.424-1.101 0-.424-.17-.763-.424-1.102zm.085-.509c.254-.17.509-.508.678-.847.17-.424.254-.763.254-1.102 0-.254-.084-.509-.254-.593-.17-.085-.424 0-.678.17a1.77 1.77 0 00-.678.847c-.254.339-.254.763-.254 1.017v.085c.339.084.678.169.932.423zm-1.525-.423v-.085s.084 0 .084-.085c0-.339-.084-.593-.254-.932-.254-.424-.508-.678-.763-.848-.254-.17-.423-.254-.593-.17-.17.085-.254.34-.339.594 0 .339.085.678.254 1.102.17.339.424.678.678.847.255-.254.594-.339.933-.423zm-1.356.847a1.77 1.77 0 00-.848-.678c-.339-.254-.763-.339-1.017-.254-.34 0-.509.085-.593.254-.085.17 0 .424.084.678.17.254.509.509.848.678.339.17.678.254.932.254h.255c0-.339.169-.678.339-.932zm-.34 1.44h-.254c-.254 0-.593.086-.932.255-.34.17-.678.424-.848.763-.084.17-.17.424-.084.593.084.17.254.254.593.34.254 0 .678-.086 1.017-.255a1.77 1.77 0 00.848-.678c-.17-.34-.34-.593-.34-1.017zm.763 1.442c-.254.17-.508.423-.678.762-.17.424-.254.763-.254 1.102.085.255.17.509.339.594.17.084.339 0 .593-.085.255-.17.509-.509.763-.848.17-.339.254-.678.254-1.017l-.084-.085v-.084c-.34 0-.678-.17-.933-.34zm1.526.339v.17c0 .338.085.677.254 1.016.17.34.424.678.678.848.254.085.509.17.678.085.17-.085.254-.34.254-.594 0-.339-.084-.678-.254-1.102a2.001 2.001 0 00-.678-.762c-.254.17-.593.339-.932.339zm3.814-.17a.522.522 0 00-.085-.593c-.17-.34-.424-.593-.848-.763a2.61 2.61 0 00-1.101-.254c-.085.424-.17.678-.424 1.017.17.254.508.508.847.678.34.17.763.254 1.102.254.255-.085.424-.17.509-.339zm-2.034-2.119h.17c.253 0 .592-.084.931-.254a1.77 1.77 0 00.848-.678c.17-.254.17-.508.085-.678-.085-.17-.254-.254-.509-.254-.339-.085-.763 0-1.102.254-.339.17-.678.424-.847.678.254.254.339.593.424.932zm12.798 5.255a16 16 0 01.508-1.525 31.819 31.819 0 012.119 4.068c.593 1.271.847 2.288.847 3.22 0 1.102-.423 1.95-.932 2.373a2.864 2.864 0 01-1.017.509c-.339 0-.678 0-1.017-.17-.678-.254-1.187-.847-1.44-1.695-.679-1.949.169-4.576.932-6.78zm0-7.967l.508 1.526a49.23 49.23 0 002.119-4.068c.593-1.272.847-2.373.847-3.221 0-1.187-.423-1.95-.932-2.458-.339-.254-.678-.339-1.017-.424-.339-.084-.678 0-1.017.17-.678.254-1.187.763-1.44 1.61-.679 1.95.169 4.662.932 6.865zm3.729 5.255c-.34 0-.678-.085-.933-.339-.254-.254-.339-.593-.339-.932 0-.424.085-.678.34-.933.254-.254.593-.423.932-.423.423 0 .762.17.932.423.254.255.424.509.424.933 0 .339-.17.678-.424.932-.17.254-.509.339-.932.339zm0-4.407c-.848 0-1.61.339-2.204.847a3.275 3.275 0 00-.932 2.289c0 .847.339 1.61.932 2.203.593.594 1.356.933 2.204.933.932 0 1.695-.34 2.288-.933.509-.593.848-1.356.848-2.203 0-.848-.34-1.695-.848-2.289a3.444 3.444 0 00-2.288-.847z"
		fill="#ffe330" />
	<path
		d="M335.805 165.035h28.8v1.925h-28.8zM334.601 156.233h30.701v1.85h-30.701zM340.126 177.765h19.785v1.691h-19.785zM340.921 186.693h18.061v1.735h-18.061zM365.984 180.648c.759 2.108.654 4.614-1.098 6.306L364 185.68l1.266-2.594-.657-2.164z" />
</svg>