<svg width="700" height="500" fill-rule="evenodd" xmlns="http://www.w3.org/2000/svg"
   xmlns:xlink="http://www.w3.org/1999/xlink">
   <defs>
      <style>
         .prefix__fil0 {
            fill: #c3bab1
         }

         .prefix__fil6 {
            fill: #f0e100
         }
      </style>
   </defs>
   <path fill="#48a0d3" d="M0 0h700v500H0z" />
   <path id="prefix__path13"
      d="M663.07 42.617L27.58 53.898l-4.764 262.97a700 700 0 00327.19 83.133 700 700 0 00321.03-79.77z"
      display="none" />
   <g clip-rule="evenodd" image-rendering="optimizeQuality" shape-rendering="geometricPrecision"
      text-rendering="geometricPrecision">
      <path class="prefix__fil0"
         d="M276.754 148.826h146.528V115.43h-35.56v16.433H366.12V115.43h-32.204v16.433h-21.645V115.43h-35.517zm123.69-5.787h10.072v-12.987c0-2.739-2.253-5.036-5.036-5.036-2.739 0-5.036 2.297-5.036 5.036zm-110.968 0h10.072v-12.987c0-2.739-2.253-5.036-5.036-5.036s-5.036 2.297-5.036 5.036zm55.484 0h10.072v-12.987c0-2.739-2.253-5.036-5.036-5.036s-5.036 2.297-5.036 5.036z" />
      <path
         d="M423.283 118.522h-1.767v2.916h1.767v.574h-4.86v2.916h4.86v.53h-1.767v2.915h1.767v.575h-4.86v2.915h4.86v.53h-1.767v2.916h1.767v.574h-4.86v2.916h4.86v.574h-1.767v2.915h1.767v.53h-4.86v2.916h4.86v.574h-1.767v2.518h-.575v-2.518h-5.654v2.518h-.53v-2.518h-5.655v2.518h-.53v-2.518h-5.654v2.518h-.574v-2.518h-5.61v2.518h-.575v-2.518h-5.61v2.518h-.574v-2.518h-5.61v2.518h-.575v-2.518h-5.654v2.518h-.53v-2.518h-5.655v2.518h-.574v-2.518h-5.61v2.518h-.575v-2.518h-5.61v2.518h-.574v-2.518h-5.61v2.518h-.575v-2.518h-5.654v2.518h-.53v-2.518h-5.655v2.518h-.574v-2.518h-5.61v2.518h-.574v-2.518h-5.61v2.518h-.575v-2.518h-5.61v2.518h-.574v-2.518h-5.655v2.518h-.53v-2.518h-5.654v2.518h-.53v-2.518h-5.655v2.518h-.574v-2.518h-5.61v2.518h-.574v-2.518h-5.61v2.518h-.575v-2.518h-5.654v2.518h-.53v-2.518h-5.655v2.518h-.53v-2.518h-1.767v-.574h4.86v-2.916h-4.86v-.53h1.767v-2.915h-1.767v-.574h4.86v-2.916h-4.86v-.574h1.767v-2.916h-1.767v-.53h4.86v-2.915h-4.86v-.575h1.767v-2.915h-1.767v-.53h4.86v-2.916h-4.86v-.574h1.767v-2.916h-1.767v-.574h4.86v-2.518h.53v2.518h5.654v-2.518h.574v2.518h5.61v-2.518h.575v2.518h5.61v-2.518h.574v2.518h5.61v-2.518h.575v2.518h5.345v.574h-2.253v2.916h2.253v.574h-5.345v2.916h5.345v.53h-2.253v2.915h2.253v.575h-5.345v2.915h30.392v-2.915h-3.402v-.575h.31v-2.915h-.31v-.53h3.402v-2.916h-3.402v-.574h.31v-2.916h-.31v-.574h3.402v-2.518h.574v2.518h5.655v-2.518h.53v2.518h5.654v-2.518h.53v2.518h5.655v-2.518h.574v2.518h5.61v-2.518h.574v2.518h3.446v.574h-.353v2.916h.353v.574h-3.446v2.916h3.446v.53h-.353v2.915h.353v.575h-3.446v2.915h30.393v-2.915h-5.345v-.575h2.253v-2.915h-2.253v-.53h5.345v-2.916h-5.345v-.574h2.253v-2.916h-2.253v-.574h5.345v-2.518h.574v2.518h5.61v-2.518h.575v2.518h5.61v-2.518h.574v2.518h5.654v-2.518h.53v2.518h5.655v-2.518h.574v2.518h4.86zm-2.342 0h-5.654v2.916h5.654zm-6.184 0h-5.655v2.916h5.655zm-6.185 0h-5.654v2.916h5.654zm-6.228 0h-5.61v2.916h5.61zm-6.185 0h-5.61v2.916h5.61zm-30.967 0h-5.61v2.916h5.61zm-6.184 0h-5.61v2.916h5.61zm-6.185 0h-5.654v2.916h5.654zm-6.184 0h-5.655v2.916h5.655zm-6.229 0h-5.61v2.916h5.61zm-30.922 0h-5.655v2.916h5.655zm-6.229 0h-5.61v2.916h5.61zm-6.184 0h-5.61v2.916h5.61zm-6.185 0h-5.654v2.916h5.654zm-6.184 0h-5.655v2.916h5.655zm-2.563 24.297v2.915h5.655v-2.915zm0-6.936v2.916h5.655v-2.916zm0-6.935v2.915h5.655v-2.915zm0-6.936v2.916h5.655v-2.916zm135.706 23.722v-2.915h-5.654v2.915zm0-6.935v-2.916h-5.654v2.916zm0-6.936v-2.915h-5.654v2.915zm0-6.935v-2.916h-5.654v2.916zm-138.798 14.445v2.915h5.655v-2.915zm0-6.98v2.916h5.655v-2.916zm0-6.935v2.915h5.655v-2.915zm141.89 16.83v-2.915h-5.654v2.915zm0-6.98v-2.915h-5.654v2.916zm0-6.935v-2.915h-5.654v2.915zm-6.184 13.915v-2.915h-4.241v-.574h1.148v-2.916h-1.148v-.574h4.24v-2.916h-4.24v-.53h1.148v-2.915h-1.236c-.045-.177-.133-.398-.177-.575h4.506v-2.915h-5.655v1.104c-.176-.177-.353-.353-.53-.486v-.618h-1.016a5.287 5.287 0 00-2.076-.442c-.707 0-1.414.177-2.032.442h-.53v.265c-.177.132-.398.265-.574.397v-.662h-5.61v2.915h4.02c-.045.177-.133.398-.177.575h-.751v2.915h.618v.53h-3.71v2.916h3.71v.574h-.618v2.916h.618v.574h-3.71v2.915h3.71v.53h-.618v2.916h5.61v-2.695h.574v2.695h5.654v-2.915h-1.148v-.53zm-3.093-17.36v-2.916h-5.654v2.916zm-6.228 0v-2.916h-5.61v2.916zm-6.185 20.806v-2.915h-5.61v2.915zm0-6.935v-2.916h-5.61v2.916zm0-6.936v-2.915h-5.61v2.915zm0-6.935v-2.916h-5.61v2.916zm-3.092 17.36v-2.915h-5.61v2.915zm0-6.98v-2.915h-5.61v2.916zm0-6.935v-2.915h-5.61v2.915zm-3.092 17.361v-2.915h-5.61v2.915zm0-6.935v-2.916h-5.61v2.916zm-3.092 3.49v-2.916h-5.61v2.915zm0-6.98v-2.916h-5.61v2.916zm-3.093 10.425v-2.915h-5.654v2.915zm0-6.935v-2.916h-5.654v2.916zm-3.092 3.49v-2.916h-5.654v2.915zm0-6.98v-2.916h-5.654v2.916zm-3.092 10.425v-2.915h-5.655v2.915zm0-6.935v-2.916h-5.655v2.916zm-3.092 3.49v-2.916h-5.655v2.915zm0-6.98v-2.916h-5.655v2.916zm-3.093 10.425v-2.915h-5.654v2.915zm0-6.935v-2.916h-5.654v2.916zm-3.136 3.49v-2.916h-5.61v2.915zm0-6.98v-2.916h-5.61v2.916zm-3.092 10.425v-2.915h-5.61v2.915zm0-6.935v-2.916h-5.61v2.916zm-3.093 3.49v-2.916h-5.61v2.915zm0-6.98v-2.916h-5.61v2.916zm0-6.936v-2.915h-5.61v2.915zm-3.092 17.361v-2.915h-5.61v2.915zm0-6.935v-2.916h-5.61v2.916zm0-6.936v-2.915h-5.61v2.915zm0-6.935v-2.916h-5.61v2.916zm-3.092 17.36v-2.915h-3.976v-.574h.884v-2.916h-.884v-.574h3.976v-2.916h-3.976v-.53h.884v-2.915H354.9c-.045-.177-.089-.398-.133-.575h4.24v-2.915h-5.61v.883c-.176-.176-.397-.309-.574-.442v-.441h-.75a5.287 5.287 0 00-2.077-.442c-.707 0-1.413.177-2.032.442h-.795v.441c-.177.133-.353.266-.53.442v-.883h-5.655v2.915h4.285c-.088.177-.132.398-.176.575h-1.016v2.915h.883v.53h-3.976v2.916h3.976v.574h-.883v2.916h.883v.574h-3.976v2.915h3.976v.53h-.883v2.916h5.654v-2.695h.53v2.695h5.655v-2.915h-.884v-.53zm-3.092-17.36v-2.916h-5.655v2.916zm-6.185 0v-2.916h-5.654v2.916zm-6.184 20.806v-2.915h-5.655v2.915zm0-6.935v-2.916h-5.655v2.916zm0-6.936v-2.915h-5.655v2.915zm0-6.935v-2.916h-5.655v2.916zm-3.137 17.36v-2.915h-5.61v2.915zm0-6.98v-2.915h-5.61v2.916zm0-6.935v-2.915h-5.61v2.915zm-3.092 17.361v-2.915h-5.61v2.915zm0-6.935v-2.916h-5.61v2.916zm-3.092 3.49v-2.916h-5.61v2.915zm0-6.98v-2.916h-5.61v2.916zm-3.093 10.425v-2.915h-5.61v2.915zm0-6.935v-2.916h-5.61v2.916zm-3.092 3.49v-2.916h-5.61v2.915zm0-6.98v-2.916h-5.61v2.916zm-3.092 10.425v-2.915h-5.61v2.915zm0-6.935v-2.916h-5.61v2.916zm-3.092 3.49v-2.916h-5.655v2.915zm0-6.98v-2.916h-5.655v2.916zm-3.093 10.425v-2.915h-5.654v2.915zm0-6.935v-2.916h-5.654v2.916zm-3.092 3.49v-2.916h-5.654v2.915zm0-6.98v-2.916h-5.654v2.916zm-3.092 10.425v-2.915h-5.654v2.915zm0-6.935v-2.916h-5.654v2.916zm-3.092 3.49v-2.916h-5.655v2.915zm0-6.98v-2.916h-5.655v2.916zm0-6.936v-2.915h-5.655v2.915zm-3.137 17.361v-2.915h-5.61v2.915zm0-6.935v-2.916h-5.61v2.916zm0-6.936v-2.915h-5.61v2.915zm0-6.935v-2.916h-5.61v2.916zm-3.092 17.36v-2.915h-3.71v-.574h.618v-2.916h-.619v-.574h3.711v-2.916h-3.71v-.53h.618v-2.915h-.751c-.044-.177-.089-.398-.177-.575h4.02v-2.915h-5.61v.662c-.177-.132-.354-.265-.574-.397v-.265h-.486c-.663-.265-1.326-.442-2.077-.442s-1.413.177-2.076.442h-.972v.618c-.22.133-.397.31-.574.486v-1.104h-5.654v2.915h4.55c-.089.177-.133.398-.177.575h-1.237v2.915h1.104v.53h-4.24v2.916h4.24v.574h-1.104v2.916h1.104v.574h-4.24v2.915h4.24v.53h-1.104v2.916h5.61v-2.695h.575v2.695h5.61v-2.915h-.619v-.53zm-3.092-17.36v-2.916h-5.61v2.916zm-6.185 0v-2.916h-5.61v2.916z"
         fill="#8f8880" fill-rule="nonzero" />
      <path
         d="M344.43 143.614v-13.562c0-3.048 2.474-5.566 5.566-5.566s5.61 2.518 5.61 5.566v13.562zm.53-.575h10.072v-12.987c0-2.739-2.253-5.036-5.036-5.036s-5.036 2.297-5.036 5.036zm55.484 0h10.072v-12.987c0-2.739-2.253-5.036-5.036-5.036-2.739 0-5.036 2.297-5.036 5.036zm-110.968 0h10.072v-12.987c0-2.739-2.253-5.036-5.036-5.036s-5.036 2.297-5.036 5.036zm110.438.575v-13.562c0-3.048 2.518-5.566 5.566-5.566 3.092 0 5.61 2.518 5.61 5.566v13.562zm-111.012 0v-13.562c0-3.048 2.518-5.566 5.61-5.566s5.61 2.518 5.61 5.566v13.562z"
         fill="#8f8880" />
      <path
         d="M383.348 119.67v12.193h4.374V115.43zm-53.849 0v12.193h4.417V115.43zm-12.855 0v12.193h-4.373V115.43zm53.85 0v12.193h-4.374V115.43z"
         fill="#1f2124" />
      <path class="prefix__fil0"
         d="M316.423 300.302h-15.77c-6.273-3.622-14.976-9.365-21.602-16.212-9.586 10.558-19.04 21.204-33.97 28.095 4.329-4.859 8.614-9.85 11.794-16.521-5.433 3.667-11.883 6.008-19.48 6.98 5.83-3.932 11.22-8.305 16.344-13.032-6.891-.53-13.739-1.9-20.409-7.863 4.727 1.06 9.365 1.679 13.783 1.634-4.639-2.164-9.056-5.345-13.076-10.16 4.461 1.502 8.923 2.165 13.385 2.209-4.241-4.418-8.393-8.924-12.148-14.401 2.827.618 5.698 1.634 8.746 3.225-6.758-12.59-4.947-14.357-5.389-29.863 1.811.972 3.578 2.43 5.39 4.462-.752-4.86-1.768-9.63-2.916-14.313 1.811 1.988 3.578 4.506 5.212 7.863.486-4.638.53-9.541.177-14.71 1.546 1.546 2.783 3.578 3.843 5.831.663-4.992.663-10.072 0-15.329 1.856 1.105 3.49 2.784 5.08 4.639-1.325-9.498-5.61-16.3-6.935-24.561 2.032 1.06 3.932 2.827 5.831 4.815a189.195 189.195 0 00-9.232-19.747 27.892 27.892 0 016.184 4.86c-1.59-4.639-3.755-8.614-6.184-12.325 3.975 1.9 7.73 4.594 11.397 7.686-4.197-6.45-9.189-11.441-14.313-16.124 1.458-.22 2.871-.088 4.33.398-1.945-3.8-4.64-6.405-7.378-8.88 8.835 0 22.087 9.013 25.666 22.442 6.493 24.428 1.457 52.745 4.329 77.04 3.225 27.169 28.89 41.481 47.311 51.862zM383.57 300.302h15.77c6.317-3.622 15.02-9.365 21.645-16.212 9.586 10.558 19.04 21.204 33.927 28.095-4.33-4.859-8.57-9.85-11.795-16.521 5.434 3.667 11.927 6.008 19.481 6.98-5.83-3.932-11.22-8.305-16.3-13.032 6.847-.53 13.694-1.9 20.364-7.863-4.726 1.06-9.32 1.679-13.738 1.634 4.638-2.164 9.056-5.345 13.076-10.16-4.462 1.502-8.924 2.165-13.385 2.209 4.196-4.418 8.349-8.924 12.148-14.401-2.827.618-5.743 1.634-8.791 3.225 6.759-12.59 4.948-14.357 5.39-29.863-1.768.972-3.579 2.43-5.39 4.462.751-4.86 1.767-9.63 2.916-14.313-1.812 1.988-3.579 4.506-5.213 7.863a90.1 90.1 0 01-.177-14.71c-1.546 1.546-2.783 3.578-3.843 5.831-.663-4.992-.663-10.072 0-15.329-1.855 1.105-3.49 2.784-5.08 4.639 1.325-9.498 5.654-16.3 6.935-24.561-1.988 1.06-3.931 2.827-5.83 4.815 2.65-6.627 5.742-13.209 9.232-19.747a27.7 27.7 0 00-6.14 4.86c1.59-4.639 3.71-8.614 6.14-12.325-3.976 1.9-7.73 4.594-11.397 7.686 4.196-6.45 9.188-11.441 14.312-16.124-1.413-.22-2.871-.088-4.329.398 1.988-3.8 4.639-6.405 7.422-8.88-8.88 0-22.132 9.013-25.666 22.442-6.494 24.428-1.502 52.745-4.373 77.04-3.181 27.169-28.847 41.481-47.312 51.862z" />
      <path class="prefix__fil0"
         d="M262.927 324.554l76.953-1.987 10.116 6.493 10.16-6.493 76.91 1.987V298.58H378.4c-9.233-.045-22.22 6.626-28.405 12.103-6.184-5.477-19.172-12.148-28.404-12.103h-58.665z" />
      <path
         d="M262.927 303.395c10.293 0 20.1 0 29.907-.045 10.072 0 20.188-.044 30.834-.044 6.405 0 15.726 4.594 21.999 12.06-5.875-4.152-15.064-9.63-22-9.63 0-.044-28.227.044-30.833.044-9.807.044-19.614.044-29.907.044zm174.138 0c-10.293 0-20.1 0-29.862-.045-10.116 0-20.232-.044-30.879-.044-6.36 0-15.726 4.594-21.955 12.06 5.832-4.152 15.02-9.63 21.955-9.63 0-.044 28.228.044 30.879.044 9.762.044 19.57.044 29.862.044zm0 12.722c-10.293 0-20.1-.044-29.862-.044-10.116-.044-19.084-.044-29.774-.044-3.357 0-7.245 1.104-11.353 3.666 3.622-1.016 5.522-1.237 11.353-1.237 0-.044 27.123.044 29.774.044 9.762 0 19.57.045 29.862.045zm0-6.317c-10.293 0-20.1-.044-29.862-.044-10.116-.044-20.232-.044-30.879-.044-6.36 0-15.726 4.594-21.955 12.06 5.832-4.153 15.02-9.63 21.955-9.63 0-.045 28.228.043 30.879.043 9.762 0 19.57.045 29.862.045zm-174.138 6.317c10.293 0 20.1-.044 29.907-.044 10.072-.044 19.083-.044 29.73-.044 3.357 0 7.244 1.104 11.397 3.666-3.667-1.016-5.566-1.237-11.397-1.237 0-.044-27.124.044-29.73.044-9.807 0-19.614.045-29.907.045zm0-6.317c10.293 0 20.1-.044 29.907-.044 10.072-.044 20.188-.044 30.834-.044 6.405 0 15.726 4.594 21.999 12.06-5.875-4.153-15.064-9.63-22-9.63 0-.045-28.227.043-30.833.043-9.807 0-19.614.045-29.907.045z"
         fill="#0b0e13" fill-rule="nonzero" />
      <path fill="#0b0e13"
         d="M254.136 332.815v-9.32l86.937-2.916 8.923 5.963 8.924-5.963 86.936 2.915v9.321l-80.664-5.212-3.622 3.975h-23.104l-3.666-3.975z" />
      <path class="prefix__fil6"
         d="M349.996 310.286c23.987-13.606 43.954-36.577 59.946-63.347 18.023-30.039 25.621-59.901 24.34-98.245H265.754c-1.325 38.344 6.273 68.206 24.297 98.245 16.035 26.77 35.958 49.741 59.945 63.347z"
         fill="#f0e301" />
      <path
         d="M431.146 152.89h-162.3c-.618 35.385 6.804 63.259 23.723 91.443 15.417 25.754 34.5 47.974 57.427 61.359 22.927-13.385 42.055-35.605 57.428-61.36 16.919-28.183 24.34-56.057 23.722-91.442z"
         fill="#c31d11" />
      <path class="prefix__fil6"
         d="M349.996 161.195h-44.13v13.739h33.837v26.99h-1.987c-7.82 0-14.225-8.393-14.225-18.597v-2.871h-17.626v7.73c0 22.132 20.012 31.674 33.838 31.497v10.735c-6.228.441-10.337 2.87-14.4 7.553l-7.378-9.674-9.674 12.59 9.674 12.634 7.422-9.763c2.87 4.683 8.172 8.394 14.356 8.835v12.944c-3.048 2.076-6.67 5.345-8.393 9.1 1.9 4.506 7.2 8.481 11.265 7.863.707 4.506 3.843 8.57 7.421 10.425 3.578-1.855 6.759-5.92 7.422-10.425 4.064.618 9.365-3.357 11.264-7.863-1.723-3.755-5.345-7.024-8.393-9.1v-12.944c6.184-.441 11.485-4.152 14.357-8.835l7.465 9.763 9.63-12.634-9.63-12.59-7.421 9.674c-4.02-4.682-8.172-7.112-14.401-7.553v-10.735c13.827.177 33.838-9.365 33.838-31.497v-7.73h-17.626v2.871c0 10.204-6.361 18.598-14.18 18.598h-2.032v-26.991h33.838v-13.739z"
         fill="#f0e301" />
      <path
         d="M317.925 235.984l-3.799 4.903 3.8 4.948 3.754-4.948zm-5.036 4.373l4.594-6.052.442-.53.398.53 4.594 6.052.442.53-.442.574-4.594 6.052-.398.53-.442-.53-4.594-6.052-.442-.574zm16.124.663c1.193 1.678 2.739 3.048 4.418 4.064 2.076 1.237 4.373 1.943 6.493 2.076l3.358.265h.574v21.336l-.31.221-1.899 1.326c-.928.618-1.988 1.457-3.048 2.43a24.027 24.027 0 00-1.811 1.855c2.783 2.915 4.77 2.606 8.084 2.12l.486-.088.53-.089.132.707.177 1.193c.53 3.799.884 6.096 3.8 8.437 2.915-2.341 3.268-4.638 3.842-8.437l.177-1.193.088-.707.53.089.486.088c3.314.486 5.346.795 8.129-2.12-.575-.663-1.237-1.282-1.856-1.856-1.06-.972-2.12-1.811-3.048-2.43l-1.855-1.325-.353-.22v-21.337h.574l3.357-.265c2.165-.133 4.462-.84 6.538-2.076a14.708 14.708 0 004.373-4.064c-1.546-1.635-3.092-2.828-4.726-3.667-1.856-.884-3.844-1.325-6.185-1.502l-3.357-.22-.575-.045v-21.425h.619l3.578.088h.398c5.875 0 13.208-1.987 19.04-6.228 5.786-4.153 10.16-10.602 10.204-19.57v-2.562h-9.41c-.486 5.92-2.65 11.22-5.83 15.064-3.27 3.976-7.643 6.405-12.414 6.405h-6.184V169.5h33.838v-2.871h-79.957v2.871h33.838v37.858h-6.14c-4.816 0-9.189-2.43-12.458-6.405-3.18-3.843-5.3-9.144-5.787-15.064h-9.453v2.562c.088 8.968 4.417 15.417 10.204 19.57 5.876 4.24 13.164 6.228 19.04 6.228h.397l3.578-.088h.619v21.425l-.574.044-3.358.221c-2.341.177-4.329.619-6.14 1.502-1.679.84-3.225 2.032-4.77 3.667zm3.932 5.477c-2.032-1.237-3.888-2.915-5.257-5.08l-.354-.618.442-.486c1.811-1.988 3.622-3.446 5.566-4.374 1.988-.971 4.064-1.457 6.538-1.634l2.783-.177v-18.377l-3.004.045h-.397c-6.052 0-13.562-2.032-19.614-6.406-6.096-4.417-10.735-11.264-10.823-20.895v-4.152h11.706l.045.751c.353 5.787 2.385 11 5.477 14.71s7.157 6.008 11.663 6.008h4.947v-34.766h-33.838v-5.963h82.342v5.963H357.33v34.766h4.992c4.462 0 8.57-2.297 11.618-6.008 3.092-3.71 5.124-8.923 5.478-14.71l.044-.751h11.706v4.152c-.088 9.63-4.682 16.478-10.823 20.895-6.052 4.374-13.561 6.406-19.613 6.406h-.398l-3.004-.045v18.377l2.827.177c2.43.177 4.55.663 6.494 1.634 1.944.928 3.755 2.386 5.566 4.374l.442.486-.353.618c-1.37 2.165-3.225 3.843-5.213 5.08-2.209 1.325-4.683 2.076-6.936 2.209l-2.827.22v18.908l1.59 1.104a32.574 32.574 0 013.137 2.518 23.009 23.009 0 012.474 2.606l.486.575-.486.574c-3.446 3.932-5.699 3.622-9.498 3.048l-.044.486c-.663 4.33-1.016 6.935-4.683 9.674l-.309.221-.31-.22c-3.621-2.74-4.019-5.346-4.682-9.675l-.044-.486c-3.799.574-6.008.884-9.453-3.048l-.486-.574.442-.575a23.009 23.009 0 012.473-2.606 32.574 32.574 0 013.137-2.518l1.59-1.104v-18.907l-2.783-.221c-2.297-.133-4.727-.884-6.935-2.209zm45.367-5.61l3.8 4.948 3.754-4.948-3.755-4.903zm3.358 6.626l-4.595-6.052-.441-.574.441-.53 4.595-6.052.441-.53.398.53 4.638 6.052.398.53-.398.574-4.638 6.052-.398.53z"
         fill="#7d750c" fill-rule="nonzero" />
   </g><text fill="#c31d11" font-family="FreeSerif" font-size="53.333" style="line-height:0">
      <textPath style="line-height:0" xlink:href="#prefix__path13">
         <tspan letter-spacing="10"> </tspan>
         &nbsp;&nbsp;&nbsp;&nbsp;&nbsp;&nbsp;&nbsp;&nbsp;&nbsp;&nbsp;&nbsp;&nbsp;&nbsp;&nbsp;&nbsp;&nbsp;&nbsp;&nbsp;&nbsp;&nbsp;&nbsp;&nbsp;&nbsp;&nbsp;&nbsp;&nbsp;&nbsp;&nbsp;&nbsp;&nbsp;&nbsp;&nbsp;&nbsp;&nbsp;&nbsp;&nbsp;&nbsp;&nbsp;&nbsp;&nbsp;&nbsp;&nbsp;&nbsp;&nbsp;&nbsp;&nbsp;&nbsp;&nbsp;&nbsp;&nbsp;&nbsp;&nbsp;&nbsp;&nbsp;&nbsp;&nbsp;&nbsp;&nbsp;&nbsp;&nbsp;&nbsp;&nbsp;&nbsp;&nbsp;&nbsp;&nbsp;&nbsp;&nbsp;&nbsp;&nbsp;&nbsp;&nbsp;&nbsp;&nbsp;&nbsp;&nbsp;&nbsp;&nbsp;QARKUT
         LEZHE
      </textPath>
   </text>
</svg>