<svg width="700" height="500" version="1.1" xml:space="preserve" xmlns="http://www.w3.org/2000/svg">
    <rect width="700" height="500" fill="#5793ae" />
    <g transform="matrix(.77778 0 0 .77778 77.778 55.786)">
        <g transform="matrix(.084674 0 0 .084674 200 41.829)">
            <path
                d="m1772 6c-571 0-1120 90-1634 257l272 872c429-139 886-215 1362-215 475 0 932 76 1361 215l273-872c-515-167-1064-257-1634-257z"
                display="none" fill="#98989c" />
            <path
                d="m3095 508c-2 26-23 52-25 77-2 29 20 46 42 53 25 9 47 1 67 11-6 12-10 24-11 37-22-3-36-22-62-29-22-6-49-5-64 19-13 22-10 55-24 78 22 15 34 46 55 61 24 15 49 5 66-10 20-17 25-41 44-53 3 6 7 11 11 15 5 5 9 10 14 13-13 18-37 21-56 39-16 16-29 40-15 65 13 22 43 37 56 60l58-188c-9-3-19-9-26-17-23-25-21-63 4-86 16-16 39-20 59-14l58-187c-24 11-56 6-79 17-25 12-29 40-25 62 5 26 23 41 24 64-12 0-25 3-37 8-8-21 1-42-5-68-6-22-21-45-50-46-25 0-52 19-79 19zm-30-32c82-76 195-98 294-67l-7 22c-91-28-195-9-271 61-114 105-121 281-16 395 34 37 76 63 121 77l-6 22c-49-15-95-43-132-84-113-122-105-313 17-426zm-1293-476c571 0 1120 90 1636 257l-50 160-38-12 13-65c-25-8-51-15-77-23l-25 61-83-24 11-65c-26-7-52-14-78-21l-23 62-84-21 9-65c-26-6-53-12-79-18l-21 62-84-18 6-65c-26-6-53-11-79-15l-19 62-85-15 4-65c-26-4-53-8-80-13l-16 64-85-12 2-66c-27-3-54-6-81-9l-14 63-85-9-1-64c-27-3-54-6-81-8l-12 64-85-6-3-64c-27-2-54-3-81-5l-10 64-86-3-5-64c-27-1-54-1-81-1l-7 64h-86l-8-64c-27 0-54 0-81 1l-5 64-86 3-9-64c-27 2-54 3-81 5l-3 64-86 6-12-64c-27 2-54 5-81 8v64l-86 9-14-63c-27 3-54 6-80 9l1 66-85 12-16-64c-27 5-53 9-80 13l4 65-85 15-18-62c-27 4-53 9-80 15l6 65-84 18-21-62c-26 6-52 12-78 18l8 65-83 21-23-62c-27 7-53 14-79 21l11 65-82 24-26-61c-25 8-51 15-77 23l13 65-37 12-50-160c515-167 1065-257 1636-257zm0 761h43l9 79c17 0 34 0 52 1l11-79 86 3 7 79 51 3 15-78 86 6 3 79c18 2 35 3 52 5l17-78 86 9 1 80c17 2 34 3 51 6l20-77 85 12-2 79c17 3 35 5 52 8l22-76 85 15-5 79c17 3 34 7 51 10l25-75 84 18-7 79c17 3 34 7 51 11l27-74 84 21-10 78c16 5 33 9 50 14l30-73 83 24-13 77c17 5 33 10 50 15l33-71 43 14-50 162c-428-139-884-215-1358-215s-931 76-1358 215l-51-162 44-14 32 71c17-5 34-10 50-15l-12-77 82-24 30 73c17-5 34-9 51-14l-11-78 84-21 28 74c16-4 33-8 50-11l-7-79 84-18 25 75c17-3 34-7 51-10l-5-79 85-15 23 76c17-3 34-5 51-8l-2-79 85-12 20 77c17-3 34-4 52-6v-80l86-9 17 78c17-2 35-3 52-5l4-79 85-6 15 78c17-1 34-2 52-3l6-79 86-3 12 79c17-1 34-1 52-1l9-79zm0-37c-20-18-53-23-71-41-21-19-16-46-5-66 12-24 34-33 41-54-12-4-23-11-32-19-15 17-12 40-26 63-12 19-33 37-61 29-24-7-45-34-70-41 6-26-6-57 0-82 6-28 32-37 55-38 26-1 45 14 67 10-1-7-1-13-1-19 0-7 0-13 1-19-22-4-41 10-67 9-23-1-49-10-55-38-6-25 6-56 0-81 25-8 46-35 70-42 28-8 49 10 61 29 14 23 11 46 26 63 9-8 20-14 32-19-7-21-29-30-41-53-11-20-16-48 5-67 18-18 51-22 71-41 19 19 52 23 71 41 20 19 15 47 5 67-13 23-35 32-42 53 12 5 23 11 33 19 14-17 11-40 26-63 11-19 32-37 60-29 24 7 45 34 70 42-6 25 7 56 1 81-7 28-33 37-55 38-27 1-46-13-68-9 1 6 2 12 2 19 0 6-1 12-2 19 22 4 41-11 68-10 22 1 48 10 55 38 6 25-7 56-1 82-25 7-46 34-70 41-28 8-49-10-60-29-15-23-12-46-26-63-10 8-21 15-33 19 7 21 29 30 42 54 10 20 15 47-5 66-19 18-52 23-71 41zm0-320c-34 0-62 28-62 62 0 33 28 61 62 61 33 0 61-28 61-61 0-34-28-62-61-62zm0-240c-167 0-302 135-302 302 0 166 135 302 302 302 166 0 302-136 302-302 0-167-136-302-302-302zm0 581c-155 0-280-125-280-279 0-155 125-280 280-280 154 0 279 125 279 280 0 154-125 279-279 279zm-1324-237c2 26 23 52 25 77 2 29-20 46-41 53-25 9-48 1-68 11 6 12 10 24 12 37 22-3 36-22 61-29 22-6 50-5 64 19 13 22 11 55 24 78-22 15-34 46-55 61-23 15-49 5-66-10-20-17-24-41-43-53-4 6-7 11-12 15-4 5-9 10-14 13 13 18 37 21 56 39 16 16 29 40 15 65-12 22-42 37-55 60l-59-188c10-3 19-9 26-17 23-25 22-63-3-86-17-16-39-20-59-14l-59-187c24 11 57 6 79 17 26 12 29 40 25 62-5 26-23 41-24 64 13 0 25 3 37 8 9-21-1-42 6-68 6-22 20-45 49-46 25 0 53 19 79 19zm30-32c-82-76-195-98-294-67l7 22c92-28 196-9 272 61 113 105 120 281 16 395-35 37-77 63-122 77l7 22c49-15 94-43 131-84 113-122 106-313-17-426zm-478 652h3543v2018c0 974-797 1771-1771 1771-975 0-1772-797-1772-1771z" />

            <path d="m44 2243v903c0 950 777 1728 1728 1728 950 0 1728-778 1728-1728v-903z" fill="#e60004" />
            <polygon points="44 1172 44 2199 3500 2199 3500 1172" fill="#0a2f51" />
            <path
                d="m2243 3031c-66-203-257-339-471-339s-405 136-472 339c-5 20-19 36-39 42-22 6-47-2-63-17-19-18-25-44-17-69 86-252 324-421 591-421 266 0 505 169 590 421 9 25 2 51-17 69-16 15-40 23-62 17-21-6-34-22-40-42z" />

            <g fill="#f1a211">
                <path
                    d="m678 1341c-58 29-87 71-93 122 0 121 54 74 54 361h-52c11-92-14-183-68-223-77-56-157-5-180 66-17 57 18 135 77 157 23-70 64-74 93-59 32 18 32 78-5 96 18 26 42 27 81 27h52c0 101-88 81-88 128h83c0 32 4 72 46 83 42-11 47-51 47-83h82c0-47-87-27-87-128h52c39 0 63-1 81-27-37-18-37-78-5-96 28-15 70-11 93 59 59-22 94-100 76-157-22-71-102-122-179-66-55 40-79 131-69 223h-51c0-287 54-240 54-361-6-51-35-93-94-122z" />
                <path
                    d="m2865 1341c-59 29-87 71-93 122 0 121 54 74 54 361h-52c11-92-14-183-69-223-77-56-157-5-179 66-18 57 17 135 76 157 24-70 65-74 94-59 31 18 31 78-5 96 17 26 41 27 81 27h51c0 101-87 81-87 128h82c0 32 5 72 47 83 42-11 47-51 47-83h82c0-47-87-27-87-128h51c40 0 63-1 81-27-36-18-37-78-5-96 29-15 70-11 94 59 59-22 94-100 76-157-22-71-103-122-179-66-55 40-80 131-69 223h-52c0-287 54-240 54-361-6-51-35-93-93-122z" />
                <path
                    d="m1772 1341c-59 29-88 71-94 122 0 121 54 74 54 361h-51c10-92-14-183-69-223-77-56-157-5-179 66-18 57 17 135 76 157 23-70 65-74 93-59 32 18 32 78-5 96 18 26 42 27 81 27h52c0 101-87 81-87 128h82c0 32 5 72 47 83 42-11 46-51 46-83h83c0-47-88-27-88-128h52c39 0 63-1 81-27-37-18-37-78-5-96 29-15 70-11 93 59 59-22 94-100 77-157-23-71-103-122-180-66-54 40-79 131-68 223h-52c0-287 54-240 54-361-6-51-35-93-93-122z" />
            </g>

            <path
                d="m1202 2994c13-38 29-74 49-109 35-56 97-9 77 35-20 33-36 68-48 105-16 56-96 22-78-31zm1140 0c-13-38-30-74-50-109-35-56-97-9-76 35 19 33 36 68 48 105 15 56 96 22 78-31zm-118-204c-29-31-60-60-94-85-53-35-90 31-55 63 30 22 58 47 83 75 46 41 93-16 66-53zm-200-148c-30-13-61-25-93-34-54-3-63 67-19 82 16 4 75 27 75 27 63 28 91-47 37-75zm-191-52c-20-2-41-3-61-3-21 0-41 1-61 3-48 16-42 85 22 80-1 1-2 1-3 2 14-1 28-2 42-2s28 1 42 2c-1-1-3-1-4-2 64 5 71-64 23-80zm-513 200c28-31 60-60 94-85 53-35 90 31 55 63-31 22-59 47-84 75-45 41-93-16-65-53zm199-148c30-13 61-25 94-34 53-3 62 67 18 82-16 4-74 27-74 27-63 28-92-47-38-75z"
                fill="#cac4c4" />
            <rect x="1669" y="2502" width="205" height="205" />
            <rect x="1690" y="2522" width="164" height="164" fill="#cac4c4" />
            <path d="m1252 3979v-789c0-286 234-520 520-520s520 234 520 520v789z" />

            <path d="m1273 3958h997v-768c0-274-224-498-498-498-275 0-499 224-499 498z" fill="#fff" />

            <polygon points="983 4137 983 4008 2561 4008 2561 4137" />
            <rect x="1004" y="4029" width="1534.9" height="86.349" fill="#cac4c4" />
            <rect x="682" y="4115" width="2180" height="129" />
            <rect x="704" y="4137" width="2136.1" height="86.349" fill="#cac4c4" />
            <rect x="1252" y="3900" width="1040" height="129" />
            <rect x="1273" y="3921" width="997.46" height="86.349" fill="#cac4c4" />
            <path d="m681 3921v-1283h22c280 0 510 229 510 510v773z" />
            <path
                d="m703 3900h139v-1220c-44-14-91-21-139-21zm160 0h168v-1113c-48-44-105-78-168-100zm190 0h138v-752c0-132-53-252-138-340z"
                fill="#cac4c4" />
            <path d="m1119 3612v21h148v-21zm0-416v22h148v-22zm1743 725v-1283h-22c-280 0-510 229-510 510v773z" />
            <path
                d="m2840 3900h-138v-1220c44-14 90-21 138-21zm-160 0h-168v-1113c48-44 105-78 168-100zm-190 0h-138v-752c0-132 53-252 138-340z"
                fill="#cac4c4" />
            <path d="m2424 3612v21h-148v-21zm0-416v22h-148v-22z" />

        </g>
        <path class="prefix__fil0" transform="matrix(.086393 0 0 .086393 204.25 41.236)"
            d="m1687 0c561 0 1123 74 1666 228l21 5-348 904-16-5c-430-128-877-190-1323-190s-893 62-1324 190l-15 5-348-904 21-5c543-154 1105-228 1666-228z" />
        <path transform="matrix(.086393 0 0 .086393 204.25 41.236)"
            d="m85 402 27 70c6 0 17 1 36 0 60-2 63 35 43 85-9 23 19 27 16 2-6-53 6-88 64-69 60 21 32-3 65 55 32 56 4 77-46 83-23 3-12 31 6 16 40-32 74-39 87 25 14 66 19 29-11 89-29 57-60 41-90-2-14-20-32 4-10 14 46 21 68 49 24 93-13 13-19 20-24 26l27 69h2c38-12 77-23 116-34l13-3 16 61c5 16 20 25 35 21 14-5 23-22 19-37l-16-59 14-4c35-9 70-17 105-25l14-3 10 47c4 16 19 26 34 22 14-4 24-20 20-36l-10-45 14-3c36-8 71-15 107-22l14-2 8 50c3 16 17 27 32 24 15-2 25-18 23-34l-8-50 14-2c35-6 70-12 106-17l14-2 7 50c2 16 16 28 31 25 15-2 25-17 23-34l-7-48 15-2c35-5 71-9 107-13l13-1 6 45c1 16 15 28 30 26 16-2 26-17 25-33l-5-43 14-2c38-3 76-6 114-8l14-1 3 44c1 16 14 28 29 27 16-1 27-15 26-32l-3-42 14-1c29-1 57-3 85-3l15-1v55c0 16 12 29 28 29 15 0 27-13 27-29v-56h14c22-1 45-1 67-1s44 0 67 1h14v56c0 16 12 29 27 29s28-13 28-29v-55l14 1c29 0 57 2 85 3l15 1-3 42c-1 17 10 31 25 32s29-11 30-27l3-44 14 1c38 2 76 5 114 8l14 2-5 43c-2 16 9 31 24 33s29-10 31-26l5-45 14 1c36 4 71 8 107 13l14 2-6 48c-3 17 8 32 23 34 15 3 29-9 31-25l7-50 14 2c35 5 71 11 106 17l14 2-8 50c-3 16 8 32 22 34 15 3 30-8 33-24l8-50 14 2c35 7 71 14 107 22l14 3-10 45c-4 16 5 32 20 36s30-6 34-22l10-47 14 3c35 8 70 16 105 25l14 4-16 59c-4 15 5 32 19 37 15 4 30-5 34-21l17-61 13 3c39 11 77 22 116 34h2l10-25c-60-30-104-82-128-142-25-65-28-139-1-209 26-70 76-122 136-149 58-26 124-29 186-4l11-27c-42-12-84-23-127-34l-13-4 11-52c3-16-7-32-21-35-15-4-30 6-33 22l-11 52-14-3c-33-8-67-16-101-23l-13-3 9-53c3-16-7-32-22-35s-29 8-32 24l-9 52-14-2c-36-8-72-15-108-21l-13-3 7-53c2-16-8-31-23-33-15-3-30 8-32 25l-7 51-14-2c-34-6-69-11-104-17l-14-2 7-52c2-16-9-31-24-34-15-2-29 10-31 26l-7 52-13-2-117-15-14-1 5-54c2-16-9-31-24-32-16-2-29 10-31 26l-5 53-14-1c-36-4-72-7-108-10l-14-1 3-54c1-16-10-30-26-31-15-1-28 11-29 27l-3 53-14-1c-37-3-74-5-112-7l-13-1 1-53c1-17-11-30-26-31s-28 12-29 29l-2 53-14-1c-33-1-67-2-100-3l-14-1v-57c0-17-13-30-28-30s-27 13-27 30v56h-162v-56c0-17-12-30-27-30-16 0-28 13-28 30v57l-14 1c-33 1-67 2-101 3l-14 1-1-53c-1-17-14-30-29-29s-27 14-27 31l2 53-14 1c-37 2-74 4-111 7l-14 1-3-53c-1-16-15-28-30-27s-26 15-25 31l3 54-14 1c-36 3-72 6-108 10l-14 1-5-53c-2-16-16-28-31-26-15 1-26 16-24 32l5 54-14 1-117 15-14 2-6-52c-3-16-17-28-32-26-15 3-25 18-23 34l6 52-13 2c-35 6-70 11-104 17l-14 2-7-51c-3-17-17-28-32-25-15 2-25 17-23 33l7 53-13 3c-36 6-72 13-108 21l-14 2-9-52c-3-16-17-27-32-24s-25 19-22 35l9 53-14 3c-33 7-67 15-100 23l-14 3-11-52c-3-16-18-26-33-22-15 3-24 19-21 35l11 52-14 4c-42 11-84 22-126 34zm1602-205c70 0 133 30 179 80 46 49 74 117 74 193 0 75-28 143-74 193-46 49-109 80-179 80s-133-31-179-80c-46-50-75-118-75-193 0-76 29-144 75-193 46-50 109-80 179-80zm169 90c-43-46-103-75-169-75s-126 29-169 75c-44 47-71 111-71 183 0 71 27 135 71 182 43 47 103 76 169 76s126-29 169-76 70-111 70-182c0-72-27-136-70-183zm-117 68c-16 17 8 33 14 8 13-52 37-79 83-38 49 44 31 11 42 78 10 64-24 72-72 58-23-6-23 24 0 17 48-13 82-6 72 59-11 67 7 34-42 77-46 42-70 14-83-38-6-24-30-9-14 9 36 38 46 73-11 96-59 24-24 24-83 0-56-23-46-58-10-96 16-18-8-33-15-9-13 52-36 80-82 38-49-43-31-10-42-77-10-65 24-72 72-59 22 7 22-23 0-17-48 14-82 6-72-58 11-67-7-34 42-78 46-41 69-14 82 38 7 25 31 9 15-8-36-39-46-74 10-97 59-23 24-23 83 0 57 23 47 58 11 97zm-52 84c-16 0-29 14-29 31s13 31 29 31 28-14 28-31-12-31-28-31zm-1505 215 21 53c8-8 11-22 7-34-5-12-16-20-28-19zm107 279c60-30 104-82 128-142 25-65 27-139 1-209s-77-122-136-149c-58-26-124-29-187-4l6 14c59-24 121-21 175 4 57 26 104 74 129 140s23 137-1 198c-23 57-64 106-120 134zm2801-14 12-30c-5-6-12-13-24-26-45-44-22-72 24-93 21-10 4-34-10-14-31 43-62 59-90 2-30-60-25-23-11-89 13-64 46-57 86-25 19 15 29-13 7-16-50-6-79-27-47-83 34-58 6-34 66-55 58-19 69 16 63 69-3 25 25 21 16-2-19-50-16-87 44-85 19 1 30 0 36 0l-19 48 35-90-5 13c-59-24-121-21-175 4-57 26-104 74-129 140s-23 137 1 198c22 57 64 106 120 134zm81-212 21-53c-12-1-23 7-28 19s-1 26 7 34z"
            fill="#c3c3c2" />
        <g fill="#f8c400">
            <path class="prefix__fil9" transform="matrix(.086393 0 0 .086393 204.25 41.236)"
                d="m1687 771c-22 0-45 1-67 1v41c0 24-19 45-41 45-23 0-42-21-42-45v-39c-28 1-57 2-85 3l2 27c2 25-16 46-39 48-22 2-42-17-44-41l-2-29c-38 2-76 5-114 8l3 28c3 25-13 47-36 50s-43-14-46-39l-4-31c-35 4-71 8-107 13l5 33c3 25-12 47-35 51s-44-13-47-38l-5-35c-36 5-71 11-106 17l5 34c4 25-11 48-33 52-23 5-45-12-49-36l-5-36c-36 7-72 14-107 21l7 30c5 24-9 49-31 55-22 5-45-9-50-33l-8-34c-35 8-70 17-105 26l12 44c6 23-7 48-29 55s-45-7-51-31l-13-47c-38 11-77 22-116 33l54 141c413-123 861-191 1329-191s916 68 1328 191l54-141c-38-11-77-22-116-33l-12 47c-6 24-30 38-52 31s-35-32-28-55l11-44c-34-9-69-18-104-26l-8 34c-5 24-28 38-50 33-22-6-36-31-31-55l7-30c-36-7-71-14-107-21l-6 36c-4 24-25 41-48 36-23-4-38-27-34-52l6-34c-35-6-71-12-106-17l-5 35c-3 25-25 42-47 38-23-4-39-26-35-51l4-33c-35-5-71-9-106-13l-4 31c-3 25-24 42-46 39-23-3-39-25-37-50l3-28c-37-3-75-6-113-8l-2 29c-2 24-22 43-45 41s-40-23-38-48l2-27c-29-1-57-2-85-3v39c0 24-19 45-42 45s-41-21-41-45v-41c-23 0-45-1-67-1z" />
            <path class="prefix__fil9" transform="matrix(.086393 0 0 .086393 204.25 41.236)"
                d="m1687 20c-584 0-1143 80-1662 227l54 140c43-11 86-23 129-34l-8-38c-5-24 10-48 32-53 22-6 45 10 50 34l7 37c34-8 68-16 101-23l-6-38c-4-25 11-48 33-53 23-4 45 12 49 36l6 38c36-8 72-15 108-21l-5-38c-3-25 12-48 35-51 23-4 44 13 47 37l5 37c35-6 70-11 105-17l-5-37c-3-24 13-47 35-51 23-3 44 14 47 39l5 37 117-15-3-38c-3-25 14-47 37-49 23-3 43 15 46 40l3 38c36-4 73-7 109-10l-2-38c-2-25 15-47 38-48 23-2 43 17 45 41l2 38c37-3 74-5 112-7l-2-39c0-24 18-45 41-46 22-1 42 19 43 43l1 38c34-1 67-2 101-3v-43c0-25 19-45 42-45 22 0 41 20 41 45v41h134v-41c0-25 18-45 41-45s42 20 42 45v43c34 1 67 2 101 3l1-38c1-24 20-44 43-43s41 22 40 46l-1 39c37 2 74 4 112 7l2-38c2-24 22-43 44-41 23 1 41 23 39 48l-2 38c36 3 72 6 109 10l3-38c3-25 23-43 46-40 23 2 39 24 37 49l-4 38c40 5 79 10 118 15l4-37c4-25 25-42 47-39 23 4 39 27 36 51l-5 37c35 6 70 11 104 17l5-37c4-24 25-41 48-37 22 3 38 26 35 51l-5 38c36 6 72 13 108 21l6-38c4-24 26-40 49-36 22 5 37 28 33 53l-7 38c34 7 68 15 101 23l8-37c5-24 27-40 50-34 22 5 36 29 31 53l-7 38c43 11 85 23 128 34l54-140c-518-147-1078-227-1661-227z" />
            <path class="prefix__fil9" transform="matrix(.086393 0 0 .086393 204.25 41.236)"
                d="m1729 344c28-30 41-53-5-71-58-23-16-23-74 0-46 18-34 41-6 71 34 36-25 72-37 23-10-41-22-64-60-30-47 42-27 3-37 68-8 53 16 52 54 41 46-13 46 60 0 47-38-11-62-11-54 41 10 65-10 26 37 68 38 34 50 11 60-30 12-49 71-13 37 23-28 31-40 53 6 72 58 23 16 23 74 0 46-19 33-41 5-72-33-36 26-72 38-23 10 41 22 64 60 30 47-42 26-3 37-68 8-52-16-52-55-41-45 13-45-60 0-47 39 11 63 12 55-41-11-65 10-26-37-68-38-34-50-11-60 30-12 49-71 13-38-23zm-42 80c23 0 42 20 42 46 0 25-19 46-42 46-24 0-43-21-43-46 0-26 19-46 43-46z" />
            <path class="prefix__fil9" transform="matrix(.086393 0 0 .086393 204.25 41.236)"
                d="m3256 486c-5 1-15 2-30 1-50-2-46 25-31 64 19 47-48 57-43 6 5-42 2-68-45-52-58 20-25-8-58 48-26 45-3 55 36 60 47 7 21 74-16 44-32-26-54-37-65 15-13 65-19 20 10 79 24 47 43 30 67-4 28-40 70 17 26 37-36 17-56 32-19 68 10 10 15 17 19 22l59-152c-16-12-22-35-15-55 8-20 27-31 46-28z" />
            <path class="prefix__fil9" transform="matrix(.086393 0 0 .086393 204.25 41.236)"
                d="m118 486c5 1 14 2 30 1 50-2 46 25 30 64-18 47 49 57 43 6-5-42-2-68 46-52 58 20 25-8 57 48 27 45 4 55-36 60-46 7-21 74 17 44 31-26 54-37 65 15 13 65 18 20-10 79-24 47-43 30-67-4-28-40-70 17-26 37 36 17 56 32 19 68-10 10-16 17-20 22l-58-152c16-12 22-35 15-55-8-20-27-31-47-28z" />
        </g>
    </g>
</svg>