<svg xmlns="http://www.w3.org/2000/svg" width="1500" height="750" fill-rule="evenodd" clip-rule="evenodd" image-rendering="optimizeQuality" shape-rendering="geometricPrecision" text-rendering="geometricPrecision" version="1.1" viewBox="0 0 39688 19844"><path fill="#fff" d="M0 0h39688v19844H0z"/><path fill="none" stroke="#00246b" stroke-miterlimit="22.926" stroke-width="102.61" d="m22496 12433c0 309.79-281.01 438.95-495.55 438.95h-1712.2c-220.01 12.158-298.33 213.43-372.72 355.3-70.05-148.69-160.21-351.56-378.69-355.3h-1821.4c-322.37 0-525.65-249.57-525.65-535.54v-5782.2l5306.2-0.01z"/><path fill="#f3b44d" d="m22496 6552.8v5879.4c0 309.79-281.01 438.95-495.55 438.95h-1712.2c-163.88 3.743-282.53 153.54-372.72 355.3-88.636-170.01-119.04-355.3-378.69-355.3h-1821.4c-322.37 0-525.65-249.57-525.65-535.54v-5782.2zm0 0.572v-0.572z"/><path fill="#133a84" d="m21815 11620 344.33-4.925c63.506-13.622 73.647-79.154 55.536-125.96 172.3-72.202 57.252-205.89 133.82-218.04-2.347-23.676-25.025-48.982-51.367-57.514 22.561 0.04 55.846-21.786 58.822-42.747-137.96-51.764-99.805-263.27-96.072-464.24-265.49-162.15-260.21-325.6-377.05-586.66-41.332-92.33-110.21-219.13-212.11-315.16-79.552-74.966-214.21-317.99-12.71-319.36l347.86-2.366c229.16-1.56 317.4-109.91 317.11-281.35-0.193-127.96-67.625-258.25-287.32-257.75l-925.44 2.055c-2.841-51.299-131.19-116.17-214.5 1.62-282.31-27.827-317.94-267.31-52.763-352.98-38.462 1.406-242.05-13.981-272.77 55.642-22.988-26.052-124.28-94.065-183.13-28.543-40.857-23.609-166.1-43.901-178.21-1.6-40.721-38.947-242.75-33.285-307.51-34.807 204.18 127.54 123.56 476.14 513.83 476.72l498.64 0.737c27.292 70.738 147.23 77.806 191.87-9.056l929.84 3.54c109.72-1.93 157.87 75.595 156.09 142.31-2.511 93.94-84.972 151.67-207.76 151.76l-807.52 0.64c5.303-21.418 21.66-52.385 19.527-90.178-47.79 53.49-82.402 64.717-156.18 64.775-144.37 0.117-269.27 2.056-413.25 2.637 10.18-26.4 14.902-49.515-7.863-76.778-21.602 54.76-130.24 48.671-181.83 48.865l-747.8 2.812c2.85-22.358 2.181-37.502-5.614-53.79-66.724 83.778-152.79 61.158-174.46 14.242-16.396-35.466-3.52-94.24 78.378-78.262 96.887 18.916 120.73-22.96 125.97-62.953 16.23-123.84-124.59-77.816-169.4-77.545-204.22 1.232-160.84-188.67 35.641-120.92 162.41 56.001 291.55-111.4 121.3-236.4 5.653-39.014-5.312-69.08-15.958-99.796l-288.5-1.163c-89.625-136.13-240.62-63.922-271.53-38.801-197.21-148.8-319.32 43.038-485.4-145.34-56.496 136.86 9.269 266.48 7.165 266.86-132.55 24.016-182.46 140.42-182.11 232.13-20.962 37.638-43.63 60.344-82.674 63.37 12.022 26.585 29.552 43.784 69.226 32.402-50.863 63.903-114.48 191.75-133.34 301.97-33.489 47.828-77.031 98.497-115.06 117.68 40.401 10.297 73.298 14.63 128.59-17.374-69.11 76.614-71.93 135.94-55.303 229.1-25.664 72.319-74.694 142.48-111.85 164.18l134.78-0.892c-1.299 22.33-1.396 44.668 0.097 67.006l-432.92 1.561c-30.066-94.54-132.69-176.88-279.02-153.42 14.155-393.53-27.526-766.17 216.26-1208.1-61.15-4.819-115.45 5.255-165.36 21.573-16.996-73.89-87.55-198.44-115.82-219.84-5.293-4.014-103.91 120.97-129.11 223.15-48.042-20.884-98.148-24.132-165.1-28.32 65.211 167.64 224.39 413.74 229.37 1255.9-171.8 3.84-159.03 144.93-102.74 221.97-82.78 79.842-77.72 174.55-14.844 246.68-26.74 94.134 23.521 174.75 110.52 210.79l1.62 221.04c42.863-0.417 86.29-0.814 129.71-1.25l0.455-214.22c63.137-8.512 140.4-55.4 215.01-116.64 10.422 19.497 20.205 54.13 3.752 85.495 16.182-0.146 109.1-8.164 145.68-59.977l-2.182 49.195c41.458 2.026 145.93-23.453 153.51-103.28 61.518 59.297 162.78 107.34 307.35 105.06l0.03 62.265c56.146 6.117 84.922 13.447 127.66-27.38 78.379 91.535 91.322 230.65 40.925 246.24-0.689 10.452 42.292-2.24 67.626 30.434l-285.17 488.82c-58.454 66.725-111.39 102.21-200.3 161.02-182.28 2.783-316.6 43.562-302.63 277.79 36.038 2.647 117.69-13.467 157.91-41.031 3.568 10.52 11.625 36.135 15.765 46.635 31.54-1.29 111.51 0.087 154.57-36.659l5.187 33.081c60.063-2.462 102.84-4.74 177.52-36.959 171.27 44.367 333.86-0.349 283.67-190.94 62.44 12.526 130.72-2.133 166.06-64.727-24.18-11.102-41.836-39.985-38.074-61.547 73.502 8.949 121.39-22.736 141.4-68.538-26.712 0.611-62.188-22.678-55.536-103.32 244.49-106.28 345.37-239.88 456.54-319.44 72.445 76.245 175.95 29.164 203.62-3.51-2.346-25.557-1.134-51.28-18.964-71.786 55.167 22 101.18 26.838 173.89-4.624 0.32-22.659 2.899-21.156-5.779-54.189 19.915 7.05 52.191 11.907 102.3 2.56-0.243-43.397-8.581-84.011-18.51-98.584 346.64-19.827 513.27-117.91 695.31-177.5-4.77 386.54 312.95 545.45 287.26 729.75-10.985 78.737-143.01 188.74-227.59 245.8-238.2-2.937-290.22 110.98-283.97 265.1 56.254 4.46 121.58-11.17 166.36-36.397l10.559 40.042c109.7-11.217 244.89-15.764 345.35-81.694 80.648 80.89 256.36 73.347 208.7-105.86 51.173-6.515 108.49-73.094 46.635-121.76 34.478 6.273 78.166-10.103 96.5-57.349-30.056-31.772-58.29-64.679-47.945-106.96 19.217-78.544 123.21-50.165 154.42-150.42-153.6-100.14-87.51-380.74-10.267-569.41 73.153 156.32 171.35 237.05 429.27 366.39 178.57 7.378 517.22 329.72 92.496 546.98-126.28-4.615-317.2 49.835-185.8 264.61l88.53-22.435c-3.908 10.432 5.468 25.722 19.235 36.775l175.18-37.803z"/><g fill="#f3b44d"><path d="m22024 11393c2.24 0.058 10.016-6.419 10.481-8.959 4.004-22.368-22.183-23.657-131.76-22-50.824 0.777-79.173-3.257-114.52-15.192 29.368-61.004 162.03-63.69 183.47-217.68 16.53-118.76-72.232-206.55-170.24-299.89-97.275-92.63-220.92-130.57-315.7-167.4-231-89.79-285.6-421.68-510.9-489.42-70.01-21.048-127.82-24.16-159.47-19.652-48.904 6.951-101.67 23.676-155.83 50.106-256.69 125.24-632.81 299.36-990.01 312 166.23-124.32 193.05-228.21 198.59-373 75.218-0.698 320.53 5.43 322.58-205.08l281.8 0.33c323.89 0.379 390.49-67.519 398.75-214.77 132.45-30.58 172.76-110.88 177.55-222.64 73.59-8.968 112.41-69.643 124.24-131.96l842.35 3.267c278.61 1.086 259.76-355.12 30.027-355.42l-1013.7-1.299c-19.1-10.733-24.86-32.102-1.94-48.817 70.652-3.248 73.735 3.772 1009.1-2.715 175.34 8.31 254 120.94 253.11 238.49-0.844 110.69-94.328 219.54-276.6 231.81l-470.81 0.553c-74.704-0.66-124.64 33.187-127.26 106.26-6.806 188.7 337.51 352.82 405.33 539.33 22.242 61.14 51.784 155.34 101.2 245.28 45.666 83.1 87.473 180.68 127.17 257.3 36.766 70.952 78.602 100.83 40.935 163.06-10.481 17.316-20.875 21.068-49.98 22.745-115.72 6.652-341.36-138.83-490.94-413.76 75.712 220.09 233.01 363.37 384.72 460.79 60.732 38.996 116.41 55.556 156.41 73.793 110.91 50.59 136.78 170.9 134.08 214.31-10.22 164.26 47.507 229.36 9.462 261.46-6.99 5.885-30.958 16.22-46.655 20.292-33.982 8.794-38.394-8.813-34.04-69.225 2.394-33.489 11.508-112.15 14.601-214.95-68.8 121.43-95.675 236.65-62.439 345.68 13.283 2.065 32.606 15.367 36 33.43 9.569 51.037-102.43 84.864-154.31 89.256-61.382 5.188-129.82-25.12-138.33-74.034-8.319-47.848 27.603-105.32 173.49-101.67z"/><path d="m21780 11382c20.554-1.464 50.533 3.442 79.193 12.798-22.087-0.02-41.875 8.687-63.264 89.761-6.457 24.5-21.572 50.02-45.51 52.181-11.49 1.038-31.899 2.705-38.889-0.669-22.63-10.917-45.016-42.893-46.577-69.032-2.463-41.264 39.868-79.706 115.05-85.039z"/><path d="m21703 11387c-131.08 14.912-35.63 133.38-136.1 129.75-39.917-1.435-45.57-20.002-43.213-45.308 5.73-61.73 112.98-100.48 179.32-84.438zm-1035.5-22.299c-48.06-12.614-67.607-14.136-112.17-11.674 173.71-118.44 233.49-211.14 234.44-290.76 1.493-126.63-508.65-614.98-84.128-779.47 90.032 91.264 232.44 182.17 370.97 44.144l2.879 644.5c-141.72-2.095-191.86-125.28-231.49-285.27-1.706 224.03 32.945 284.16 129.24 356.05 26.48 19.769 28.448 42.36 27.497 66.705-1.095 28.107-9.637 58.55-46.548 89.635-29.63 24.946-79.134 223.59-55.642 290.45 6.7 19.09 5.41 46.044-2.366 53.364-22.969 23.22-54.227 25.111-75.508 6.961-37.57-32.014-16.938-172.96 77.37-316.74-99.97 80.366-144.08 200.72-159.26 269.65-12.982 11.49-110.17 37.405-170.59 43.843-87.424 9.317-126.27-34.952-124.38-76.701 4.645-102.02 137.93-89.45 204.39-72.668 25.945 6.554 40.052 7.766 44.503-7.213 4.256-14.32-16.696-21.515-29.203-24.801zm-325.77 196.82c-84.341-62.177-2.463-156.25 76.701-159.28-5.517 12.051-7.204 28.272-6.409 45.278 2.182 46.431 0.912 98.535-70.292 114zm-1768.5-36.843c18.993-424.17 288.07-644.04 611.38-872.47-83.546 2.201-145.04-15.735-193.63-77.108-17.49 113.99-52.743 176.97-155.55 235.49 0.67-89.635-28.059-165.35-59.433-240.24-57.66 67.267-337.9 538.9-375.41 621.31 63.816-24.791 98.312-60.228 216.64-55.458 19.052 0.766 8.542 13.826-3.461 16.288-90.527 18.635-261.09 53.859-395.03 209.84 27.7 29.494 64.436 43.698 148.43 52.617-102.21 13.05-118.1 55.245-118.06 88.53 0.039 47.867 64.872 76.459 139.63 61.217 26.508 7.05 143.48 18.373 184.51-40.023z"/><path d="m18254 11423c-80.191-7.33-57.387 122.96-130.87 125.25-9.899 0.3-16.957 0.02-27.002-0.562-112.5-75.683 34.516-186.48 157.87-124.68z"/><path d="m18100 11410c-133.43-24.084-198.56 44.638-192.24 87.715 2.637 17.898 12.895 31.927 35.088 33.304 6.467 0.398 13.341 0.437 20.283 0.407 40.382-0.862 32.19-39.722 38.375-59.132 13.457-42.215 30.327-61.431 98.496-62.294zm2835.9-95.985c21.34-2.58 62.73 14.892 59.143 80.55-45.172 0.911-66.841-25.005-59.143-80.55zm-2228-44.6c28.185 25.19 15.998 51.939 67.772 89.567-186.12-22.804-141.41-155.34-67.772-89.567zm3539.8-40.721c33.1-8.94 52.627 3.752 59.434 34.303-19.828 10.006-46.403 2.453-59.434-34.303zm-1254.6-36.842c27.04-2.357 62.429 36.774 56.873 80.472-55.933 8.959-63.127-53.655-56.873-80.473zm-2124.3 43.629c-52.656 19.178-110.66-9.027-98.011-48.759 28.165-88.374 80.25 30.396 98.012 48.759zm3375-103.74c28.563-14.776 47.353 1.454 63.37 30.677-23.599 21.65-54.091 4.818-63.37-30.677zm-3437.1-93.077c156.13-158.86 274.09-261.36 465.98-383.96 54.49-3.995 95.83-7.263 162.65-23.687-54.857 71.33-581.2 401.19-628.64 407.65zm574.94-330.62c41.244-14.117 101.69 14.718 101.14 65.154-48.05 10.771-78.611-3.025-101.14-65.154zm-597.24-231.72c25.072 1.658 43.833 17.947 69.284 35.748 1.173 27.244 2.336 54.517 3.51 81.771l11.13-0.252c-2.2-23.337 3.083-35.708 9.87-55.904 19.052 4.586 19.052 4.586 30.347 12.13 3.975 27.748-2.075 155.96-52.172 157.09-0.63-28.088-65.328-156.88-71.97-230.58zm726.19 119.26c62.1-4.014 97.924 0.359 104.4 38.675 2.59 15.261 0.437 24.365 0.67 40.557-62.013 4.42-74.374-11.664-105.07-79.232zm120.22-34.904c34.031 0.369 92.301-0.523 110.18 73.25-73.008 3.17-89.315-25.044-110.18-73.25zm-2160.2-175.49 55.264-38.782v284.08h-54.295zm1179.9 200.7c-63.98-93.115-110.87-169.65-35.709-222.63-6.263 124.44 65.852 136.52 38.24 97.75-16.56-23.25-33.101-71.203 19.4-131.4 13.467 25.83 21.892 56.263 21.369 92.311-1.028 71.388-6.186 110.57-43.3 163.97zm342.25-231.72c-9.599-131.42 107.81-260.87 178.3-354.51-21.902 107.56-64.63 265.83-35.32 367.31 16.57 57.358 75.072 132.51 160.47 157.06-41.012 15.048-82.015 17.801-119.26 15.048-94.783-6.99-177.55-93.882-184.2-184.91z"/><path d="m19156 9995.1c-94.027 111.51-334.45 254.86-142.01 505.85-315.06-101.76-284.26-424.27 142.01-505.85zm24.239 4.847c39.102 179.39 118.78 469.76 392.46 379.04-40.178 63.467-134.9 131.72-209.29 119.65-86.445-14.048-144.11-78.911-167.23-146.47-38.956-113.82-21.184-258.13-15.949-352.22z"/><path d="m19199 9994.1c274.97 209.91 369.66 272 512.67 166.74-11.267 107.18-94.29 204.36-211.81 205.58-133.04 1.396-287.68-277.24-300.86-372.33zm1552.2 269.54c92.175-24.152 72.871-23.793 131.58-73.046 49.233 3.965 130.56 13.845 146.14 71-61.596 62.12-186.18 91.7-277.72 2.046zm-2102-133.8c45.656-212.43 293.38-155.88 505.17-156.54-89.034 21.883-245.91 42.99-323.77 122.98-67.268 69.09-101.76 159.11-62.682 259.81-69.12-19.09-135.7-147.24-118.72-226.24zm-810.54 159.98c32.276-21.214 62.555-26.78 95.21-18.761-3.908 38.384-52.918 66.172-88.704 74.248 3.703-10.927 13.089-29.009-6.506-55.487zm138.65-8.726c23.094-11.13 68.973-26.915 92.417-8.426-1.076 19.527-53.849 62.41-88.239 65.406 13.07-25.77 6.584-44.289-4.178-56.98zm513.86 39.751c-14.475-19.546-127-221.84-2.744-279.34-39.393 132.17 61.673 167.98 40.712 137.48-42.738-62.186-25.975-108.98 21.369-148.03 31.51 72.483 23.87 246.69-59.337 289.88z"/><path d="m17570 10324c38.82-30.667 58.696-87.192 54.692-140.81 175.83 93.164 263.51-109.1 471.38-171.38 73.056-21.883 38.598-81.714-29.648-29.417-114.76 87.939-177.09 99.07-191.17 82.49-34.739-40.935 132.78-163.64 209.82-165.96l217.57-2.23c9.443 98.875 48.613 86.358-1.697 229.74-7.94 22.63-2.783 27.245 4.16 30.376 26.468 11.955 37.21-57.794 98.467-64.135l-0.204 186.1c-242.2-79.726-402.51-90.265-441.93-87.9-153.78 9.211-219.5 163.52-391.45 133.11zm-169.67-45.569c-48.894-43.94 86.213-173.02 134.87-127.65 50.63 47.226-80.288 176.7-134.87 127.65zm1801.4-305.41 560.33 1.57c-32.46 167.15-117.6 207.74-210.2 194.23-151.1-22.066-349.84-193.78-350.13-195.8z"/><path d="m17747 9915.6c-230.71 109.17-256.38-114.65-162.49-145.58 210.38-69.333 350.29 261.43 164.48 354.65-59.724 29.96-147.83 10.006-155.78-34.71-23.754-133.64 130.47-91.583 153.78-174.36zm-211.36 144.46c-151.89 185.22-298.93 18.102-98.051-78.93 52.065-7.815 91.787 32.198 98.05 78.93zm2313.3-12.604c24.074-23.366 25.664-60.219 14.252-111.01l282.39 1.183c-6.331 51.54-94.512 110.13-168.15 110.02zm-1466.9-24.239c-43.445-78.824-73.714-234.9 37.755-266.79-41.904 118.63-1.251 165.59 12.972 156.68 0.96-5.517 0.369-11.712-1.056-18.48-7.534-35.893-23.095-95.345 59.617-157.12 36.727 120.52-42.185 244.52-109.29 285.71zm-902.65-216.21c34.74 41.128 29 92.175-30.376 136-111.72-20.303-146.92-184.38 30.376-136zm1087.8 85.32c8.833-296 293.78-549.64 579.45-550.14 317.6-0.543 605.76 285.93 616.68 547.8zm1725.8-35.873c33.44-12.313 69.827-28.796 68.925-97.382l455.89-2.957c-54.673 93.63-145.57 99.738-240.46 99.883zm-160.95-19.391-293.62 0.087c-7.563-55.361-15.61-77.535-43.233-102.08l497.56 3.006c-16.201 62.274-78.582 98.642-160.71 98.99z"/></g><path fill="#133a84" d="m19729 9857.4-1108.2 2.91 310.26-264.69 131.86 138.65 263.72-246.27z"/><g fill="#f3b44d"><path d="m19583 9757.5-496.41 0.97 235.6-230.75zm-538.1 0h-258.87l138.64-120.22zm-1558.1 12.604c-10.849-698.79-60.975-972.75-234.44-1258.5 97.866 23.88 257.12 173.84 276.52 453.64l0.232-329.54c72.61-90.178 114.97-97.237 227.04-115.42-143.14 136.66-221.91 264.67-222.21 456.18l-1.232 793.73zm2921.3-103.74c41.371-17.714 78.379-41.012 76.925-105.77l513.46-1.677c-40.536 80.996-136.25 105.04-217.17 106.71zm-183.24-35.873-476.18-1.125c-14.466-54.324-41.478-83.352-83.702-108.29l761.18 3.103c-13.38 76.827-134.33 106.47-201.3 106.31zm-1793.7 15.513c34.05-48.536 90.944-260.1 216.5-258.07 20.177 0.32-141.29 105.73-63.893 151.48 22.445 13.263 43.252-90.197 101.63-155 84.177 184.53-131.22 257.04-254.24 261.58zm-129.92-0.97c-8.987-149.95 13.235-235.65 121.97-252.79-66.182 111.16-38.045 148.65-23.056 149.94 5.09 0.436 8.406-8.464 6.05-25.17-7.301-51.783 22.144-106.13 84.777-125.38-4.072 59.58-27.68 136.32-49.088 150.51-13.496 8.94-62.216 107.64-140.65 102.89zm2227.1-186.15c37.94-24.132 75.674-47.527 79.184-95.607l534.1-0.756c-22.678 90.236-159.96 94.017-272.6 94.599zm-283.11-20.36-591.91 0.97c41.012-33.353 50.872-72.329 48.952-106.06l842.53 0.727c-71.32 103.11-184.63 103.83-299.57 104.36zm-900.71-142.52c10.132-8.842 22.106-10.84 34.05-7.223 31.463 9.53 57.815 57.106 103.16 53.878-74.335-45.307-74.955-150.42 6.235-139.49-32.8 83.605 30.793 125.88 73.986 127.51 25.771 0.98 57.495-6.796 99.903-26.536-75.344 152.43-392.54 57.523-317.33-8.135zm-847.39-26.178c30.59-96.043 90.518-230.5 213.68-186.83-5.954 2.56-50.99 32.848-77.041 64.66-27.244 33.274-39.393 69.264-27.487 80.695 23.715 22.745 49.71-156.88 206.53-138.74-36.358 54.596-127.39 143.55-149.45 158.98-47.275 33.062-105.73 44.667-166.24 21.243zm206.52 36.843c-1.697-22.552 123.67-278.94 217.52-264.93-44.347 76.643-110.69 167.98-75.605 171.76 15.677 1.697 55.894-26.876 96.053-200.3 6.447 0.389 80.9 310.92-237.97 293.47z"/><path d="m18366 9272.8c21.282-183.17 66.191-212.72 159.47-239.75-123.57 113.78-49.864 168.24-50.717 141.9-1.28-39.839 16.976-88.249 105.66-114.53-52.104 149.91-118.92 197.13-214.42 212.38zm725.22-130.89c-43.01-152.15 121.12-180.98 129.11-195.86-275.52-92.108-53.102-311.93 143.35-250.52 131.74 41.186 17.927 190.75-81.325 241.94 165.88 90.41 45.404 150.57 240.5 157.27 58.61-50.018 145.85-39.78 133.64 8.358-9.25 36.504-76.963 54.198-109.46 38.317-9.036-4.411-32.829-2.375-43.048 5.032-15.726 11.402-38.637 36.62-68.586 48.468-168.45 66.647-313.91 54.072-344.18-53.005zm1810.1-124.1c1.969-86.367 95.055-162.84 169.26-76.352-38.084-5.691-95.22 10.365-71.572 66.628 9.656 22.978-81.094 20.893-97.683 9.724zm-664.14-387.34c125.17 3.355 185.32 54.44 243.94 178.73 41.022 86.997 49.777 130.2 178.6 209.34-180.96 1.512-276.15-83.963-301.03-176.98-22.018-82.314-25.702-147.63-121.51-211.09zm161.91-4.073c84.216-24.723 150.85 46.675 170.28 136.21-3.084-105.62 57.31-141.27 121.7-139.45-196.04 179.75-19.536 363.72 199.28 356.02-3.113 13.584-6.157 26.905-6.37 40.246-103.35 5.818-201.93-16.647-277.83-92.378-104.11-103.88-102.7-240.42-207.06-300.65zm-365.52-11.343c140.65-6.195 218.04 68.77 252.74 221.36 16.822 74.006 78.33 138.73 146.9 178.21-107.66-0.281-181.63-13.874-228.02-73.443-88.21-113.26-68.343-249.93-171.62-326.13zm-1382.6 332.94c12.924-3.548 105.05-206.05 282.49-144.25-91.06 15.62-124.31 81.133-126.17 118.72 37.803 18.073 143.46-134.46 215.23-113.34-42.795 200.6-263.69 225.41-371.55 138.87z"/><path d="m19691 8738.5c-137.23-91.254-229.67 8.794-266.4 116.26 43.474 17.268 94.87 25.684 146.43 33.673 103.83 16.094 174.33-42.175 119.97-149.93zm-1208.1 183.24c7.359-106.55 123.82-260.42 219.41-206.91-46.073 28.36-90.721 71.436-112.8 108.83-8.163 13.826-0.387 30.337 3.85 35.544 85.213-89.548 118.08-128.8 201.31-81.976-110.53 12.944-154.72 209.55-311.77 144.51zm393.64-169.67c69.924-63.06 145.68-175.5 23.366-173.44-55.836 0.94-124.1-17.239-187.61-79.407 51.706 24.685 95.258 37.958 145.34 29.863 52.85-8.542 91.215-20.245 125.32-13.613 174.96 34.002 100.3 231.88-106.42 236.6zm252.08-50.416c9.395-146.21 80.56-190.38 228.22-118.22-124.89 68.964-132.79-12.973-228.22 118.22z"/><path d="m18660 8464.9c40.808 119.12 165.93 81.763 120.92 217.09-73.676 47.44-154.62-100.02-120.92-217.09zm744.61 157.84 214.07-0.126c18.412-0.019 21.883 11.596 21.417 23.929-0.446 11.615-2.82 23.987-21.417 24.025l-213.62 0.466c-12.983 0-19.237-10.627-19.721-21.902-0.543-12.78 6.33-26.41 19.274-26.392zm-1884.8-2.23 1.726-291.67c-23.968 19.644-99.176 170.79-108.04 207.76 38.084 15.668 77.748 41.904 106.31 83.914z"/></g><path fill="#133a84" d="m18690 8366.8c-2.017-156.42-8.474-306.67-21.592-458.02-15.174-87.812-62.759-339.87-97.944-411.18 281.2-7.717 353.8 152.98 352.6 396.45l79.3 0.261 0.145 194.92 344.85 0.621 0.475-195.38 77.496-0.01c-2.133-226.64 99.776-434.32 366.16-378.35-116.11 263.25-122.74 566.26-136.76 850.85z"/><path fill="#f3b44d" d="m18715 8337.4c-4.334-285.59-28.757-533.36-103.81-803.35 236.44 35.554 196.33 347.6 200.61 517.93 32.839-8.31 31.249-58.493 66.55-58.309l-0.359 252.78c49.496-27.894 230.79-120.22 293.84-78.446l-1.057 168.43zm460.54-181.02 0.01-37.628 192.7 0.106 1.115-200.03 82.402-0.106c14.737-240.94 71.795-395.37 306.44-382.71-170.8 57.27-196.63 212.54-196.54 370.93l0.116 174.61c-16.793-71.475-50.446-83.12-63.166-81.365l-0.446 292.2c-63.651-134.82-205.76-138.34-322.63-136.01z"/><path fill="#133a84" d="m19055 7049.2c31.258-95.598 71.495-195.8 137.95-272.29 48.118 70.002 90.226 159.51 116.82 270.63 59.473 280.66 55.372 491.85-30.453 773.6-39.984 114.84-87.686 209.51-106.25 217.91-13.38 6.05-56.874-96.635-105.51-222-83.304-214.74-83.255-551.55-12.556-767.85z"/><path fill="#f3b44d" d="m19191 6812.5-17.714 1194.5c-68.78-143.67-133.13-358.2-137.17-517.98-5.944-234.72 50.91-493.04 154.88-676.5z"/><path fill="#133a84" d="m17276 12491c-0.524-252.77-1.105-505.55-1.658-758.32h5138.3c-1.144 258.72-1.716 517.45-2.269 776.17-34.826 210.76-145.24 268.74-341.01 268.97-436.89 0.524-873.6 1.086-1309.9 2.094-24.006-142.88-250.87-165.34-311.02-166.05l-2.395-774.3-248.88-1.077 0.33 623.37c-56.195-1.484-226.02 26.07-227.4-122.06l-2.181-345.96-229.74-0.746c1.503 79.406-1.444 223.06 0.504 302.76 4.751 195.18 326.4 216.16 459.54 210.62l-0.698 113.6 227.11-0.135c55.71 7.543 132.32 88.006 59.86 155.8l-2753.8 1.87c-167.93-0.096-454.31-79.745-454.74-286.61z"/><g fill="#f3b44d"><path d="m22348 12242-231.02-0.95-3.548 236.36c-2.269 150.99-236.89 119.26-236.46 2.337 1.144-316.87 0.689-304.54 4.751-388.37-557.29 3.975-170.57-246.87-167.91-251.39-73.802 0.164-147.48 0.862-221.2 1.59-265.7 58.425-202.88 257.13 145.53 246.72l3.587 406.78c0.582 65.561 181.09 138.34 366.11 135.08 222.68-3.936 333.5-109.7 334.23-140.47z"/><path d="m21352 12629 0.95-233.88c0.058-13.748-23.628-62.254-78.388-75.75l-0.485 127.14c-0.32 83.78-131.09 178.56-365.46 181.32-154.21 1.813-352.96-92.844-354.11-176.36l-3.286-612.55 235.68 1.028 0.136 604.42c0.048 186.08 244.68 198.49 244.5 3.17l-0.61-608.5 243.93-0.252-0.32 449.1c115.1 2.192 330.21 102.82 331.89 173.7l3.994 167.21zm-3999.4-171.61-4.11-620.47 245.24 1.057 0.776 120.82c140.39 2.647 496.78-9.967 487.02 207.58l-235.3 1.319c-11.48-165.33-116.37-178.28-251.42-178.33 0.814 171.1 1.532 324.99 2.86 496.64 0.485 62.11 60.248 102.32 125.78 101.76 73.918-0.62 122.32-29.775 122.81-104.26l1.629-239.64 233.4 0.193-1.106 217.51c-35.67 95.578-138 167.17-355.34 165.49-242.89-1.871-371.38-118.83-372.23-169.67zm813.45 164.82 239.99-3.21 7.252-621.44c0.475-40.78 37.531-125.81 109.04-125.71 87.027 0.117 108.7 93.95 108.58 130.87l-0.727 219.42 246.89 1.348-1.066-242.97c-0.32-72.551-169.02-155.22-345.07-152.44-175.31 2.763-350.66 52.2-356.49 145.92zm795.03-160.94-4.111-620.46 245.23 1.057 0.786 120.81c140.39 2.647 496.78-9.967 487.02 207.58l-235.31 1.329c-11.48-165.34-116.36-178.28-251.42-178.34 0.805 171.11 1.532 325 2.86 496.65 0.485 62.1 60.239 102.31 125.77 101.76 73.938-0.611 122.32-29.785 122.83-104.26l1.619-239.65 233.41 0.194 0.542 218.28c-35.67 95.578-139.64 166.39-356.99 164.72-242.91-1.871-371.39-118.83-372.24-169.67z"/></g><path fill="#db2c23" d="m18176 4599.6 3980-1071.3-562.34 792.7zm-2444.2 1426.6 2857.3-2718.9-133.8 964.8zm-1282.7 2501 1040.3-3815.9 327.71 958.21zm22.299 2775.6-1086.9-3716.8 834.78 577.37zm1525.1 2461.7-2815.6-2796.2 881.32 167.73zm2649.8 1401-3060.9-1469.8-913.32 440.18zm2826.2-297.65-3552.4 708.74-231.72 959.86zm-47.508 1279.8 2522.8-2531.5-2705 1783zm3001.7-1274 944.34-3801.6-1475.7 2813.6zm1991.5-2874.7-1147-3792.3 344.19 3381.2zm88.229-3407.6-2517.9-2520.3 1672.5 2440.6zm-1408.8-3083.6-3942.2-1074.8 3112.3 1451.9z"/></svg>