<svg width="120" height="60" xmlns="http://www.w3.org/2000/svg">
    <rect width="60" height="30" fill="#032763"/>
    <line x1="0" y1="0" x2="60" y2="30" stroke="#FFF" stroke-width="6"/>
    <line x1="0" y1="30" x2="60" y2="0" stroke="#FFF" stroke-width="6"/>
    <polygon points="28.585786,16.414214 -1.4142136,1.4142136 0,0 30,15 " fill="#D0122A"/>
    <polygon points="28.585786,13.585786 58.585786,-1.4142136 60,0 30,15 " fill="#D0122A"/>
    <polygon points="31.414214,16.414214 1.4142136,31.414214 0,30 30,15 " fill="#D0122A"/>
    <polygon points="31.414214,13.585786 61.414214,28.585786 60,30 30,15 " fill="#D0122A"/>
    <rect width="60" height="10" fill="#FFF" y="10"/>
    <rect width="10" height="30" fill="#FFF" x="25"/>
    <rect width="60" height="6" fill="#D0122A" y="12"/>
    <rect width="6" height="30" fill="#D0122A" x="27"/>
    <circle r="5" cx="30" cy="15" fill="#032763"/>
    <polygon
            points="30,10 32.93892626146236,19.045084971874736 25.244717418524232,13.454915028125264 34.75528258147577,13.454915028125264 27.061073738537637,19.045084971874736"
            fill="#FED217"/>
    <polygon
            points="12.5,12 14.26335575687742,17.427050983124843 9.646830451114539,14.072949016875159 15.353169548885461,14.072949016875157 10.73664424312258,17.427050983124843"
            fill="#FED217"/>
    <polygon
            points="47.5,12 49.26335575687742,17.427050983124843 44.64683045111454,14.072949016875159 50.35316954888546,14.072949016875157 45.73664424312258,17.427050983124843"
            fill="#FED217"/>
    <polygon
            points="30,2 31.76335575687742,7.4270509831248415 27.14683045111454,4.0729490168751585 32.85316954888546,4.072949016875158 28.23664424312258,7.427050983124842"
            fill="#FED217"/>
    <polygon
            points="30,22 31.76335575687742,27.427050983124843 27.14683045111454,24.072949016875157 32.85316954888546,24.072949016875157 28.23664424312258,27.427050983124843"
            fill="#FED217"/>
    <polygon points="60,0 120,0 120,60 0,60 0,30 60,30 " fill="#FED217"/>
</svg> 