<svg width="200" height="133.333" viewBox="0 0 52.917 35.278" xmlns="http://www.w3.org/2000/svg">
	<path fill-rule="evenodd" d="M0 0h52.917v35.278H0z" />
	<path
		d="M26.59 3.811l1.424 4.524 2.332-3.208-.582 3.786 4.146-2.202-2.276 4.172 3.753-.988-2.803 2.688 3.474 1.093-4.425.96 3.72 2.58-4.455-.806 2.45 3.808-3.808-2.45.806 4.456-2.58-3.72-.96 4.424-.96-4.425-2.581 3.72.806-4.455-3.808 2.45 2.45-3.808-4.456.806 3.72-2.58-4.424-.96 3.416-1.027-2.786-2.233 3.777.327-1.97-3.478 3.544 1.574-.815-4.266 2.804 3.3z"
		fill="#f7f407" fill-rule="evenodd" stroke="#ff0" stroke-width=".329" stroke-miterlimit="0" />
	<path fill="#0000fe" fill-rule="evenodd" d="M0 13.67h52.917v21.608H0z" />
	<path fill="#fff" fill-rule="evenodd" d="M0 21.299h52.917v13.96H0z" />
	<path d="M0 0v35.277h26.458L0 0zm52.917 0L26.458 35.277h26.459V0z" fill="#fe0000" fill-rule="evenodd" />
</svg>