<svg width="690" height="460" viewBox="0 0 138 92" xmlns="http://www.w3.org/2000/svg">
	<path d="M0 0h138v92H0z" />
	<path
		d="M69 4.267l3.433 9.138 6.67-7.129-.325 9.757L87.668 12l-4.034 8.89 9.756-.325-7.128 6.67 9.138 3.433-9.138 3.433 7.128 6.67-9.756-.325 4.034 8.89-8.89-4.034.325 9.756-6.67-7.128L69 57.067l-3.434-9.138-6.669 7.128.325-9.756-8.89 4.033 4.034-8.89-9.757.326 7.13-6.67-9.14-3.433 9.14-3.434-7.13-6.67 9.757.326-4.034-8.89 8.89 4.034-.325-9.757 6.67 7.129z"
		fill="#fc0" fill-rule="evenodd" />
	<path d="M0 46h138v46H0z" fill="#fff" />
	<path d="M0 30.667h138v26.667H0z" fill="#91cdfa" />
	<path d="M0 0v92h138V0L69 92z" fill="red" />
</svg>