<svg width="1000" height="700" version="1.1" id="prefix__svg286" xmlns="http://www.w3.org/2000/svg"
   xmlns:xlink="http://www.w3.org/1999/xlink">
   <style type="text/css" id="style2">
      .prefix__B {
         stroke-linecap: round
      }

      .prefix__C {
         fill: none
      }

      .prefix__D {
         stroke-width: .987
      }

      .prefix__E {
         stroke-width: .513
      }

      .prefix__F {
         fill: #fede00
      }

      .prefix__G {
         fill: #da281b
      }

      .prefix__H {
         stroke: #704029
      }

      .prefix__I {
         fill: #fede00
      }

      .prefix__J {
         fill: #c6aa76
      }

      .prefix__K {
         stroke-width: 1.041
      }

      .prefix__L {
         stroke-width: 1.037
      }

      .prefix__M {
         stroke-width: 1.356
      }
   </style>
   <path d="M0 0h1000v700H0V0z" fill="#d60132" id="prefix__path4" />
   <path class="prefix__F" d="M0 0h680v700H0V0z" id="prefix__path6" />
   <path d="M0 0h320v700H0V0z" fill="#1007a0" id="prefix__path8" />
   <g transform="matrix(1.0008 0 0 .9985 -.512 .516)" id="prefix__g276">
      <path class="prefix__J"
         d="M469.82 188.48c12.02 0 16.936 10.338 28.955 10.338 7.421 0 11.747-2.43 18.214-6.087 4.512-2.562 7.391-3.927 12.573-3.927 5.305 0 8.558 1.608 11.272 6.167 1.533 2.58 2.807 7.628 2.133 10.525a62.61 62.61 0 01-4.252 12.953c-1.04 2.438-2.022 3.898-2.022 6.566 0 6.396 8.681 8.594 14.585 8.685 1.286.02 12.108.198 18.767-6.56-3.613-.16-7.656-2.965-7.656-6.588 0-4.099 2.873-6.873 6.768-8.057.74-.212 2 .443 2.67.09.952-.495.507-1.568 1.353-2.24 1.939-1.555 3.198-2.525 5.684-2.525a5.707 5.707 0 013.875 1.165c.688.495.94 1.107 1.785 1.107 1.782 0 2.664-1.13 4.443-1.13a6.845 6.845 0 013.595.848c1.057.548 1.034 2.35 2.232 2.35.6 0 3.77-1.297 5.426-1.297 3.437 0 5.272 1.248 7.493 3.863.598.707.982 2.137 1.592 2.137a9.695 9.72 0 015.817 2.56 9.867 9.867 0 011.676 2.037c.405.654 1.027 2.25 1.743 2.526.925.193 1.818.52 2.648.97a9.319 9.319 0 014.366 7.612 15.839 15.879 0 01-.748 3.31c-2.934 10.283-9.914 13.547-16.966 22.38-2.996 3.763-5.361 6.767-5.361 11.59 0 1.167 1.432 3.303 2.068 4.275-.388-2.267.645-5.05 3.035-5.18a6.074 6.09 0 016.243 5.568 7.041 7.041 0 01-.518 2.85 14.849 14.849 0 016.201-2.202c.986-.12 1.979-.163 2.972-.13 5.231.13 11.006 3.08 14.51 6.064 10.722 9.13 12.018 22.491 11.433 26.202-1.302 8.246-.483 23.167-21.505 29.116 3.887 1.641 6.533 4.573 6.533 8.178a7.092 7.11 0 01-6.91 7.28 6.799 6.799 0 01-5.358-2.12c-4.37 4.38-5.216 8.851-5.216 15.053a19.322 19.322 0 002.255 9.257c1.64 3.552 2.82 5.637 5.78 8.2 1.57-2.369 3.227-4.1 6.063-4.1 2.75 0 5.077.883 6.205 3.392.335.76.034 1.38.422 2.12.494.955 1.323 1.167 1.834 2.12.793 1.468.018 2.722.705 4.24.44.99 1.41 1.133 1.832 2.122a9.188 9.188 0 01.847 4.24c0 4.7-4.266 8.057-8.954 8.057-1.41 0-2.184-.565-3.595-.424 2.68 2.686 4.723 3.852 6.768 7.068 2.96 4.647 3.7 7.95 4.37 13.43.11.89.157 1.787.142 2.685 0 7.032-1.093 11.238-4.23 17.527-2.996 6.025-5.552 9.365-10.998 13.287-8.495 6.13-14.682 7.899-24.956 9.895a115.597 115.597 0 01-17.06 2.262l-21.997 1.13c-11.209.76-18.98 2.35-26.93 10.32 3.755 2.755 6.345 5.46 6.345 10.107 0 4.77-2.943 8.18-7.473 9.682-1.057.353-1.833.035-2.82.565-1.18.618-1.128 1.98-2.256 2.686a9.656 9.656 0 01-5.922 1.555c-4.194 0-7.05-.99-10.01-3.959-3.437 2.863-4.6 5.443-8.46 7.634-1.27.707-1.922 1.696-3.384 1.696-2.31 0-3.367-1.466-5.217-2.827a35.788 35.879 0 01-6.91-6.36c-3.506 2.102-5.657 3.816-9.728 3.816a10.128 10.128 0 01-6.204-1.697c-1.11-.689-1.287-1.714-2.397-2.403-1.163-.724-2.133-.459-3.383-.99-4.706-2.03-7.756-5.53-7.756-10.67 0-4.507 2.838-7.37 6.91-9.26-7.808-7.827-15.492-9.187-26.508-9.894l-21.855-1.131a153.85 154.23 0 01-17.202-2.262c-5.06-.83-8.055-1.095-12.69-3.251-15.95-7.457-26.12-17.686-28.2-35.197a28.58 28.58 0 01-.14-3.887c0-9.118 3.577-14.682 10.01-21.132-1.657-.39-2.768.16-4.372-.424-4.018-1.467-6.908-4.259-6.908-8.553a7.188 7.188 0 01.846-4.028c.546-.971 1.586-1.167 1.832-2.261.317-1.45-.106-2.474.565-3.817.44-.9 1.268-1.078 1.691-1.98 1.393-2.896 3.138-5.229 6.345-5.229 2.75 0 4.513 1.449 5.922 3.817 2.68-1.237 3.42-3.252 4.935-5.796 2.52-4.223 3.666-7.174 3.666-12.086a23.809 23.869 0 00-1.41-8.693c-.775-2.333-1.093-3.923-2.82-5.653a6.799 6.799 0 01-5.358 2.12c-4.476-.12-8.01-3.852-7.895-8.34a7.517 7.517 0 014.653-7.21c-2.415-2.084-4.513-2.26-7.192-3.957-4.07-2.58-5.498-5.3-8.177-9.33-1.745-2.633-2.204-4.47-3.102-7.491a29.285 29.359 0 01-1.693-9.612 17.475 17.519 0 01.141-2.545c1.006-7.668 2.38-12.475 7.192-18.517 2.854-3.587 4.793-5.795 9.024-7.633 3.594-1.555 5.745-2.686 9.658-2.686a21.615 21.669 0 013.032.142c1.579.086 3.119.52 4.511 1.272.599.336 1.692 1.343 1.692.636 0-.813-.423-1.237-.423-2.05 0-3.25 2.326-6.22 5.57-6.22 2.344 0 3.295 2.069 4.441 4.1a6.102 6.102 0 001.128-3.533c0-5.372-2.873-8.11-6.205-12.298-7.26-9.1-16.355-13.358-16.355-25.02 0-3.48 1.674-5.848 4.654-7.632.862-.513 2.024 0 2.87-.543.722-.46.64-1.395 1.097-2.137a10.405 10.405 0 012.367-2.525c1.657-1.449 3.112-1.015 4.945-2.287.916-.636 1.133-1.463 1.838-2.31 2.045-2.474 3.88-3.669 7.105-3.669a9.21 9.21 0 014.03.607c.51.195 1.466.967 1.59.818a7.331 7.35 0 012.237-1.812 6.354 6.37 0 013.423-.907c1.727 0 2.858.97 4.586.97.634 0 .781-.634 1.292-.97 1.533-1.042 2.415-1.632 4.284-1.632a7.128 7.128 0 014.307 1.567c1.426.902 1.632 2.108 3.095 2.957.81.477 1.498.265 2.398.565 4.017 1.343 7.05 4.028 7.05 8.27a6.494 6.494 0 01-2.257 5.441c-1.357 1.201-2.643.99-4.37 1.555 5.604 4.488 10.48 5.6 17.637 5.6 6.556 0 14.575-2.686 14.575-9.259 0-3.057-1.686-4.7-2.885-7.509-2.15-5-3.317-7.941-3.317-13.384 0-4.31.47-6.926 2.972-10.426 2.573-3.603 5.716-4.444 10.14-4.444z"
         stroke-width=".999" id="prefix__path10" />
      <g class="prefix__C prefix__H" transform="translate(.012 .006) scale(.99997)" id="prefix__g24">
         <path class="prefix__K"
            d="M425.59 223.46a5.564 5.564 0 003.82 3.807 5.894 5.894 0 005.986-2.177 6.92 6.92 0 00.833-6.297 7.32 7.32 0 00-2.698-3.468l-7.938 8.057-.002.079z"
            stroke-linejoin="round" id="prefix__path12" />
         <path class="prefix__B prefix__L"
            d="M626.61 343.94c-1.866-4.51-6.686-2.488-6.983 0-.683 5.732 4.34 7.464 7.916 6.53a6.22 6.22 0 003.896-3.03 7.55 7.55 0 00.61-5.824 8.38 8.38 0 00-3.325-4.471c-1.375-.878-2.874-.965-5.224-.965-8.708 0-16.327 10.289-18.886 20.977a46.074 46.074 0 00-.396 18.815 35.044 35.044 0 009.16 17.585 39.21 39.21 0 008.99 6.435 38.76 38.76 0 006.496 2.683 12.41 12.41 0 006.159.142c5.16-1.12 7.559-5.92 4.96-10.83-2.129-4.02-8.397-6.219-11.352-1.088a5.1 5.1 0 00-.628 2.411 4.65 4.65 0 001.561 3.64c2.246 1.428 5.838 1.024 5.672-2.941"
            id="prefix__path14" />
         <path
            d="M599.69 403.07a17.66 17.66 0 0110.343-5.703c4.654-.572 8.699.783 12.828 3.004 8.06 4.335 12.554 8.995 15.549 17.641a26.91 26.91 0 011.304 9.022c-.14 5.604-1.563 11.73-3.092 14.692-1.334 2.583-4.82 13.994-23.946 21.868-11.161 4.594-28.3 5.653-40.118 6.12-16.256.642-31.254 1.244-39.962 11.973"
            stroke-width="1.276" id="prefix__path16" />
         <g stroke-width="1.121" id="prefix__g22">
            <path
               d="M603.75 421.45c-.466-1.71-.035-3.35 1.322-5.209 1.814-2.486 5.675-3.343 9.174-1.4a11.61 11.61 0 013.965 3.266l1.788 2.488a19.33 19.33 0 011.703 3.887c3.846 10.928-2.265 22.771-10.255 27.522-6.206 3.69-13.608 5.336-22.469 6.375-3.982.468-6.256.437-10.263.623-3.223.149-6.008.096-8.63.064l-6.297-.064a110.46 110.46 0 00-11.274.155c-4.55.331-7.972.448-11.818 1.089-2.511.418-5.455.822-8.542 1.515-.926.207-1.865.377-2.809.661l-1.881.575a62.311 62.311 0 00-15.257 6.521 27.29 27.29 0 00-3.877 2.708c-.665.627-1.472 1.256-2.124 1.898-2.99 2.941-6.047 6.126-6.762 10.438a15.452 15.452 0 00-.132 2.507c0 2.798 2.278 6.608 8.42 7.852m8.638-265.81c1.285 2.324 1.992 3.738 1.244 6.142-.847 2.723-2.778 4.354-5.52 4.354-6.22 0-9.878-7.364-7.075-12.051 4.976-8.319 14.539-3.647 23.402.474-.428-2.134-1.174-2.828-1.096-5.471.193-6.565 5.061-9.542 7.005-15.605 1.157-3.613 1.618-6.75-1.025-9.316-2.308-2.24-4.982-2.205-7.994-1.025-6.018 2.359-13.246 9.138-25.97 9.326-12.724-.188-20.012-6.967-26.03-9.326-3.012-1.18-5.686-1.214-7.994 1.025-2.643 2.566-2.183 5.703-1.025 9.316 1.944 6.064 6.812 9.04 7.005 15.605.077 2.643-.669 3.337-1.096 5.47 8.863-4.12 18.798-9.211 23.402-.473 2.565 4.869-.855 12.05-7.075 12.05-2.742 0-4.667-1.747-5.52-4.353a6.71 6.71 0 011.244-6.142"
               id="prefix__path18" />
            <path class="prefix__B"
               d="M491.5 224.79c2.403 1.838 4.1 4.1 3.817 7.775-.307 3.986-1.273 4.947-4.382 7.068m3.745-5.933a5.124 5.124 0 01-3.534 4.947"
               id="prefix__path20" />
         </g>
      </g>
      <path class="prefix__J"
         d="M432.4 214.49l1.088.777 1.166 1.245.778 1.555.389 1.321.078 1.71-.078 1.167-.389 1.322-.778.932-.933 1.01-1.321.7-1.71.39-1.478.233-1.555-.7-1.399-1.01-.855-1.245-.622-1.555v-.621l7.62-7.23z"
         stroke-width="1" id="prefix__path26" />
      <g class="prefix__C prefix__H" transform="translate(.012 .006) scale(.99997)" id="prefix__g180">
         <path class="prefix__B prefix__K"
            d="M430.01 220.57c-.478-2.581-3.496-3.11-4.665-1.586-1.8 2.348-.485 6.257 3.176 7.401a5.89 5.89 0 005.987-2.177 6.78 6.78 0 00-1.587-9.451l-.279-.189c-4.252-3.233-11.118-2.488-13.373 2.954-2.909 7.02 3.42 12.284 9.252 16.25 7.34 4.991 15.705 5.899 22.003 5.83 14.306-.155 25.19-6.997 32.265-10.884 1.648-.905 3.345-.72 4.198.311a3.115 3.115 0 01-.389 4.276"
            id="prefix__path28" />
         <path
            d="M387.6 414.35l-3.188 1.166-3.265 2.488-1.4 1.944-1.788 3.11-.777 2.332-.622 2.877-.311 2.177m29.701-15.784l-.233 2.8-.467 1.943-1.4 3.343-2.176 2.877-2.333 1.865-1.71.856-2.41.544"
            stroke-width="1.057" id="prefix__path30" />
         <path d="M499.6 489.23c-.58 2.588-3.004 5.548-8.279 6.617l-1.025.212" stroke-width="1.197"
            id="prefix__path32" />
         <path class="prefix__M"
            d="M631.59 406.57a28.457 28.457 0 017.488 12.109 26.88 26.88 0 011.303 9.021c-.14 5.604-1.562 11.73-3.091 14.692-1.334 2.584-4.82 13.994-23.946 21.868-11.161 4.595-28.3 5.654-40.118 6.12-16.022.633-30.822 1.227-39.582 11.517"
            id="prefix__path34" />
         <path d="M605.45 416.95c1.188-1.621 5.517-3.673 9.016-1.73a9.68 9.68 0 013.714 3.243" stroke-width=".929"
            id="prefix__path36" />
         <path class="prefix__M"
            d="M627.51 402.79l2.244.767c1.997.635 4.134.685 6.158.142 4.423-1.327 7.261-5.459 4.96-10.83a8.856 8.856 0 00-2.717-3.333"
            id="prefix__path38" />
         <path class="prefix__B prefix__K"
            d="M375.44 287.13c-2.969 1.838-5.182 2.273-7.492 4.947a43.944 43.944 0 00-4.1 10.65m72.032-80.767c0 2.686-1.98 4.382-4.665 4.947"
            id="prefix__path40" />
         <path d="M620.49 275.03c7.39-.15 28.859 5.64 29.012 30.876.15 24.925-15.383 28.997-21.607 30.656"
            stroke-width=".997" id="prefix__path42" />
         <path class="prefix__L"
            d="M622.43 275.03c12.743-.554 25.892 8.826 26.472 32.236.452 18.289-12.517 26.584-18.742 28.243"
            id="prefix__path44" />
         <path
            d="M615.33 363.16l.196-2.502.834-3.974 1.178-3.091 1.324-2.551 1.717-2.06m12.161-5.312l-.195 2.449-.7 1.672-1.088 1.594-1.244.933-1.904.7-1.672.116-1.244-.195M602.33 268.42l.544-2.643 1.166-2.45 1.517-2.449 2.604-3.343 2.06-2.293 3.343-3.382 2.877-2.916 1.827-2.099 2.41-2.915 2.138-3.227 1.283-2.643.7-3.421.212-4.242-.388-1.23m-19.183 200.27l2.527-.505 1.905-1.011 1.05-1.05.738-1.205.505-1.943.04-1.361m-247.26-18.985l1.866.155 2.41-.194 2.41-.855m7.814-57.106l-.31 2.177-.506.972-.739.933-1.01.777-1.128.505-1.477.234-1.011.078m15.471-24.406l-.544 3.382-.661 1.477-1.36 1.866-1.828 1.4-1.866.932-3.615.894m23.904-62.121l-.7 2.021-.855 1.478-1.166 1.632-1.633 1.477-1.943.934-1.633.388-1.01-.078m.59-9.682l.04 1.555"
            stroke-width=".881" id="prefix__path46" />
         <g class="prefix__D" id="prefix__g178">
            <path class="prefix__B"
               d="M397.32 325.09a10.71 10.71 0 01-3.265 2.029m235.18 70.041c.134.145.581.217.739.31 2.215 1.323 6.577-.325 5.294-3.746"
               id="prefix__path48" />
            <path
               d="M621.54 349.38c1.573 2.055 4.538 2.588 6.883 1.976a6.22 6.22 0 003.895-3.03 7.54 7.54 0 00.61-5.825 7.65 7.65 0 00-1.325-2.58 10.59 10.59 0 00-2.132-2.23c-.17-.111-.339-.262-.518-.383m10.037 53.152a6.23 6.23 0 00-1.906-5.711 7.44 7.44 0 00-1.36-1.233m.746.734c-.073-2.912-2.456-4.995-5.41-5.513m-6.52 4.433a20.74 20.74 0 01-2.042-1.69 24.55 24.55 0 01-6.742-16.677c-.037-6.473 2.566-13.062 5.598-15.627m-88.284 132.26l2.799-2.566 1.944-1.477 3.654-2.255 3.42-1.632 2.41-.622 4.821-1.089 5.598-.855m-46.106 30.256c-2.022 3.11-6.842 7.775-11.896 9.64-5.054-1.865-9.874-6.53-11.895-9.64"
               id="prefix__path50" />
            <path class="prefix__B" d="M491.28 494.73a15.468 15.468 0 01-3.468 6.451" id="prefix__path52" />
            <path
               d="M491.78 491.47l-.7 3.42m-3.65 6.53l-1.477 1.477-2.644 1.477-3.032.934m-8.817-277.86a9.8 9.8 0 00.71-4.014c-.193-6.565-5.06-9.542-7.005-15.606-1.157-3.612-1.618-6.75 1.026-9.316 2.307-2.24 4.981-2.205 7.993-1.025 6.018 2.36 13.308 9.138 26.032 9.326-12.724-.188-20.015-6.967-26.032-9.326-3.012-1.18-5.935-1.525-8.242.714-2.644 2.566-1.934 6.015-.777 9.627 1.944 6.064 6.563 9.041 6.756 15.606a9.61 9.61 0 01-.834 4.014m29.093-21.08c12.517-.661 23.245-9.071 26.706-9.757 3.086-.612 4.809-.336 7.072 1.721-2.264-2.057-4.842-1.993-7.77-.845-6.018 2.359-13.246 9.138-25.97 9.326m124.37 176.38a24.286 24.286 0 01-9.718-19.274c-.036-6.474 2.565-13.061 5.597-15.627m-109.3 152.46c-2.021 3.11-6.842 7.775-11.895 9.64-5.054-1.865-9.874-6.53-11.895-9.64"
               id="prefix__path54" />
            <path class="prefix__B"
               d="M479.17 230.74l3.624-2.018c1.649-.906 3.63-.716 4.483.316a3.27 3.27 0 01-.226 4.416"
               id="prefix__path56" />
            <path
               d="M460.48 239.49c8.588-1.792 15.585-5.638 20.875-8.597m50.425 256.54a4.15 4.15 0 011.166 1.493 6.91 6.91 0 01.521 1.326 3.353 3.353 0 01-2.533 4.008 3.35 3.35 0 01-.55.077 5.26 5.26 0 01-5.482-3.17m-64.862-252.11c8.588-1.792 15.585-5.638 20.875-8.597m152.46 167.04c-1.633.63-2.526.544-4.557-.358-.834-.37-1.788-.943-2.907-1.578-3.98-2.261-8.708-5.824-13.139-14.143a29.387 29.387 0 01-2.672-6.992 25.88 25.88 0 01-.78-5.212 40.11 40.11 0 01.964-9.72 31.62 31.62 0 016.376-14.15c1.795-2.463 3.343-3.966 6.686-4.043m-224.52-61.414a11.11 11.11 0 014.12 8.94c0 4.842-4.05 12.75-14.001 15.55a12.945 12.945 0 01-9.87-1.18m21.381-6.91a5.39 5.39 0 012.488 5.07c0 1.664-1.076 3.822-2.907 5.866a19.31 19.31 0 01-13.716 6.26 15.986 15.986 0 01-9.422-2.735 14.16 14.16 0 01-5.987-8.397"
               id="prefix__path58" />
            <path
               d="M400.3 306.71c2.026 1.862 2.648 4.193 2.648 7.129 0 4.29-1.742 7.6-5.75 11.107a19.69 19.69 0 01-3.032 2.178m202.23-34.494v5.519m-.44-6.879v7.774m.44-24.604v10.185m-.44-12.435v13.918m-2.97 128.06a29.244 29.244 0 01-6.53 8.863 30.66 30.66 0 01-9.097 6.375 38.43 38.43 0 01-10.263 3.421 52.465 52.465 0 01-10.73 1.322 73.824 73.824 0 01-9.909-.255c-4.127-.285-6.417-.86-10.538-1.222a83.08 83.08 0 00-8.743-.566 44.835 44.835 0 00-8.983.643 34.411 34.411 0 00-8.086 2.255c-4.198 1.7-8.941 4.665-9.952 5.987-1.01-1.322-5.754-4.286-9.952-5.987a34.42 34.42 0 00-8.085-2.255 44.79 44.79 0 00-8.984-.643 82.8 82.8 0 00-8.743.566c-4.121.362-6.41.937-10.538 1.222a74.2 74.2 0 01-9.91.255 52.169 52.169 0 01-10.728-1.322 38.667 38.667 0 01-10.263-3.42 30.57 30.57 0 01-9.097-6.376l-.948-.953m65.889 83.39l2.799-.35m47.301-3.68l2.825-.269 2.69-1.076 1.884-1.144 2.556-3.027.538-1.144.404-2.623.134-1.21m73.299-213.59c1.213-4.128-.268-8.483-4.266-8.366m-206.17 72.756a12.78 12.78 0 01-5.62 7.293m5.69-72.993a10.186 10.186 0 01-5.724 6.26c-2.886 1.304-6.227.086-8.014-1.292"
               id="prefix__path60" />
            <path class="prefix__B" d="M380.95 291.2c2.392 1.253 4.82-.584 4.322-3.696a4.45 4.45 0 00-3.933-3.433"
               id="prefix__path62" />
            <path
               d="M390.87 422.86c.516.485.626 1.115 1.322 1.244 1.05.194 1.866.583 2.915-.816 1.294-1.725.599-4.409-.747-6.098a7.72 7.72 0 00-9.112-1.461 11.606 11.606 0 00-3.965 3.265l-1.788 2.488a19.351 19.351 0 00-1.704 3.887c-3.2 9.098.6 18.664 6.489 24.493"
               id="prefix__path64" />
            <path class="prefix__B"
               d="M531.59 487.23a9.19 9.19 0 011.01 1.244 6.18 6.18 0 01.428 1.327 3.353 3.353 0 01-3.083 4.084 4.97 4.97 0 01-5.267-3.156"
               id="prefix__path66" />
            <path
               d="M608.5 216.81a11.565 11.565 0 019.784 10.992c0 6.92-2.331 9.496-5.974 14.446-3.899 5.297-16.638 15.005-16.638 26.045 0 6.686 1.866 10.962 6.686 13.139 3.108 1.404 6.742-.116 8.397-1.61 4.042-3.655 2.426-10.063-1.788-10.829-5.132-.933-6.096 7.145-1.089 6.609m27.852 107.91a5.72 5.72 0 00-11.377.99 5.924 5.924 0 001.615 4.085m-26.178-108.7a11.11 11.11 0 00-4.12 8.94c0 4.842 4.05 12.75 14.001 15.55 3.814 1.072 7.458.971 9.74-.417m-243.8-16.153a14.64 14.64 0 00-7.55 5.395c-1.856 2.63-2.938 6.286-3.608 9.485a31.01 31.01 0 00.252 10.41 24.6 24.6 0 003.602 8.806 12.38 12.38 0 001.62 1.932 17.35 17.35 0 001.774 1.373m100.02 143.82c7.576 3.359 13.13 5.875 17.839 13.31a15.464 15.464 0 011.866 7.62 15.864 15.864 0 01-5.21 11.894 12.946 12.946 0 01-10.417 3.188c-3.007-.295-5.831-2.488-6.298-4.043m-72.62-175.79c4.276 3.343 6.064 6.586 6.064 11.74a13.056 13.056 0 01-6.22 11.662"
               id="prefix__path68" />
            <path class="prefix__B"
               d="M392.99 344.41c6.375 7.93 9.758 12.637 9.952 22.08.181 8.863-2.644 14.927-7.93 21.303"
               id="prefix__path70" />
            <path
               d="M515.23 239.57a6.42 6.42 0 002.497-3.485c.753-2.325.77-4.308-.474-6.096 1.534 2.009 1.675 3.705 1.243 6.142-.274 1.552-1.264 2.369-2.497 3.485m80.401 134.62v25.241h.067a38.529 38.529 0 01-.212 3.887l-.429 2.703"
               id="prefix__path72" />
            <path
               d="M595.96 371.81v27.223h.067a38 38 0 01-.212 3.887l-.729 4.125m.874-67.105v22.702m.44-20.912v18.463m0-41.943v13.841m-.44-15.471v17.064m.44-29.584v5.37m-.44-6.46v7.776m-2.88 101.86l-.53 1.084a29.244 29.244 0 01-6.53 8.863 30.67 30.67 0 01-9.097 6.376 38.43 38.43 0 01-10.263 3.42 52.32 52.32 0 01-10.73 1.322c-3.305.135-6.615.05-9.908-.255-4.128-.285-6.417-.86-10.538-1.222a83.226 83.226 0 00-8.743-.566 44.767 44.767 0 00-8.984.644 34.39 34.39 0 00-8.086 2.254c-4.197 1.7-8.94 4.665-9.951 5.987-1.011-1.322-5.754-4.286-9.952-5.987a34.36 34.36 0 00-8.086-2.254 44.7 44.7 0 00-8.983-.644 82.69 82.69 0 00-8.743.566c-4.122.362-6.41.937-10.538 1.222a74.2 74.2 0 01-9.91.255 52.24 52.24 0 01-10.729-1.321 38.705 38.705 0 01-10.263-3.421 30.566 30.566 0 01-9.096-6.376 34.17 34.17 0 01-3.858-4.355m-3.142-4.982a15.78 15.78 0 01-3.523 12.034c-1.321 1.4-4.2 4.074-7.775 4.12-5.908.078-7.672-3.986-8.03-4.975m12.308-13.739a16.05 16.05 0 012.893 3.965c1.477 2.799 1.022 7.48-.148 9.64a6.86 6.86 0 01-.475.749m-31.63 28.146c3.514 3.687 8.828 7.692 16.99 11.052 11.161 4.595 28.3 5.654 40.118 6.12 15.715.62 30.193 1.266 39.01 10.998m27.132-6.36c2.598 2.556 5.247 5.295 6.366 8.798m-11.476 17.892a13.7 13.7 0 01-11.501 4.217 9.657 9.657 0 01-6.685-4.025m-8.364-4.542a9.78 9.78 0 00.457.577 11.88 11.88 0 007.978 3.833m41.985-.12c-2.022 3.11-6.842 7.774-11.895 9.64-5.054-1.866-9.874-6.53-11.896-9.64l-.472-.727m24.343.707a12.76 12.76 0 001.156 1.109 12.95 12.95 0 0010.418 3.187 8.544 8.544 0 006.36-4.043c.303-.329.539-.715.692-1.136"
               id="prefix__path74" />
            <path d="M529.75 500.99l-1.16 1.867-1.766 1.463-2.674 1.11-2.421.1" id="prefix__path76" />
            <path
               d="M536.03 483.22a12.03 12.03 0 013.599 4.534 10.78 10.78 0 01.787 3.698 9.15 9.15 0 01-2.222 6.474 11.745 11.745 0 01-8.43 3.866h-.734m.29-.442a10.67 10.67 0 01-8.092-3.375m99.492-106.04a37.11 37.11 0 01-7.507-10.077 29.38 29.38 0 01-2.672-6.992 25.85 25.85 0 01-.78-5.211 40.13 40.13 0 01.964-9.722 32.63 32.63 0 016.376-14.15 17.19 17.19 0 013.25-3.488m-2.151-118.46c3.965.31 7.639 4.58 7.59 8.764-.07 6.078-2.108 8.59-6.89 14.545-4.12 5.131-16.482 14.15-16.171 22.78a8.51 8.51 0 001.802 4.39m-4.941 5.411a10.847 10.847 0 003.207 2.156 7.846 7.846 0 006.654-.443m-33.081-67.533a9.443 9.443 0 013.415 4.061c2.908 7.02-3.42 12.284-9.252 16.25a33.35 33.35 0 01-12.968 5.128m12.125-11.909a6.53 6.53 0 01-4.92-2.34 5.225 5.225 0 01-1.106-1.552m-23.214 7.662a7.23 7.23 0 01-2.063-1.504 6.393 6.393 0 01-1.242-6.853c.987-2.963 5.746-11.274 5.98-17.027.356-8.79-3.025-13.977-8.313-16"
               id="prefix__path78" />
            <path class="prefix__B"
               d="M542.68 203.85l-.206 3.305-.895 3.374-1.722 4.613-1.308 2.96-1.377 2.961-.688 2.066-.276 1.515.207 1.446M595.81 423.4a4.77 4.77 0 00.933 1.306c1.01 1.687 4.94 4.655 8.514 4.701 5.91.078 7.312-4.057 7.464-4.975.746-4.509-.796-5.743-3.11-7.013a5.263 5.263 0 00-2.994-.433"
               id="prefix__path80" />
            <path
               d="M370.23 403.67c-1.88.535-3.871.546-5.757.033-4.423-1.326-8.007-5.564-6.18-10.829m20.917-49.724a2.8 2.8 0 01.653 1.67c.683 5.732-4.34 7.402-7.916 6.469a8.8 8.8 0 01-4.71-3.56 7.354 7.354 0 01-.963-3.6m34.466-36.979a7.546 7.546 0 011.931 2.757M400.9 296.6a5.98 5.98 0 011.825 2.042"
               id="prefix__path82" />
            <path class="prefix__B"
               d="M402.91 303.94a13.23 13.23 0 01-2.43 3.718 19.312 19.312 0 01-13.716 6.26 15.99 15.99 0 01-9.422-2.736 14.897 14.897 0 01-6.377-8.715"
               id="prefix__path84" />
            <path d="M399.11 280.13a12.11 12.11 0 013.698 5.295" id="prefix__path86" />
            <path class="prefix__B" d="M402.86 292.56a18.42 18.42 0 01-13.473 12.248c-3.804.964-8.702-.241-10.374-1.664"
               id="prefix__path88" />
            <path d="M375.06 291.49c.417 4.12 3.174 7.209 8.401 7.308 7.35.138 11.818-10.574 5.287-18.094"
               id="prefix__path90" />
            <path class="prefix__B"
               d="M358.52 327.39a25.41 25.41 0 003.63 3.636 26.228 26.228 0 009.272 5.153m8.248.771c6.569-.789 10.272-5.684 9.538-11.41-.56-4.363-4.563-7.718-7.285-7.912"
               id="prefix__path92" />
            <path d="M390.39 268.92a4.464 4.464 0 014.449 4.478l-.005.187" id="prefix__path94" />
            <path class="prefix__B"
               d="M389.72 229.81a17.95 17.95 0 007.86 9.099m225.28 48.381c2.686 3.679.927 10.932-6.379 11.07a8.102 8.102 0 01-6.939-3.924"
               id="prefix__path96" />
            <path d="M596.4 239.25v24.686" id="prefix__path98" />
            <path class="prefix__B"
               d="M380.87 291.14c2.255 1.632 5.15-1.124 4.03-4.05-.757-1.975-3.563-4.106-7.45-1.463-4.294 2.92-3.11 12.13 5.13 12.284 7.35.139 11.819-10.574 5.287-18.093-6.282-7.234-17.727-5.542-25.19.396a33.43 33.43 0 00-11.04 18.164 34.314 34.314 0 00-.912 7.93 35.44 35.44 0 005.562 18.276 18.21 18.21 0 002.037 2.56 39.13 39.13 0 002.954 3.032c4.223 3.515 9.665 6.27 16.327 5.987 7.308-.311 11.507-5.442 10.729-11.507-.754-5.88-6.69-8.805-10.574-6.064-2.644 1.866-3.584 7.644 1.088 9.018 2.644.778 4.976-2.565 3.11-4.509m202.44-112.42c4.218-2.29 7.47-1.867 9.874 1.47a15.457 15.457 0 012.41 11.28c-.855 4.199-2.068 5.942-5.407 8.988m3.303-19.868c4.82-3.187 10.041-1.834 12.906 2.41 2.1 3.11 2.636 5.712 2.488 9.563a17.555 17.555 0 01-8.941 14.383"
               id="prefix__path100" />
            <path
               d="M617.28 223.67a8.052 8.052 0 017.153 8.086c0 5.986-1.671 8.583-6.454 14.539-4.12 5.131-16.482 14.15-16.17 22.78.117 3.263 2.868 6.338 5.241 6.51"
               id="prefix__path102" />
            <path class="prefix__B"
               d="M617.75 291.14c-2.255 1.632-5.131-1.004-3.887-3.803.859-1.932 3.42-4.353 7.308-1.71 4.293 2.92 3.11 12.13-5.131 12.284-7.35.139-12.317-10.297-5.287-18.093 6.416-7.116 18.315-5.723 25.778.214 3.176 2.527 9.566 9.466 10.936 18.573 1.658 11.02 1.445 24.575-9.937 32.922a26.91 26.91 0 01-16.516 4.637c-7.308-.32-11.506-5.443-10.729-11.507.754-5.88 6.416-8.368 10.574-6.065 4.32 2.393 3.565 8.466-1.088 9.019-2.736.325-4.976-2.566-3.11-4.51"
               id="prefix__path104" />
            <path
               d="M613.86 287.34c1.212-5.454 5.885-5.962 9.658-5.907 10.296.151 17.416 12.364 17.535 24.178.15 14.923-6.334 23.711-17.241 24.178-2.823.121-7.684-1.221-7.768-4.665"
               id="prefix__path106" />
            <path d="M620.2 284.9c10.858 2.413 14.67 12.196 14.67 21.532 0 7.616-.754 18.022-15.575 21.682"
               stroke-linecap="square" id="prefix__path108" />
            <path d="M638.11 389.58a6.104 6.104 0 10-9.789 3.66" id="prefix__path110" />
            <g class="prefix__B" id="prefix__g116">
               <path
                  d="M616.33 380.33a25.82 25.82 0 009.74 9.238m-1.96 16.482c-5.12-3.359-14.838-7.761-23.624-3.428-3.259 1.608-5.442 3.597-6.675 6.84a15.52 15.52 0 002.788 14.949c1.321 1.4 4.2 4.074 7.774 4.12 5.91.079 7.314-4.056 7.464-4.975.7-4.276-1.788-5.987-3.11-6.453-1.014-.358-4.312-.266-5.012 2.065a4.174 4.174 0 00.348 3.144"
                  id="prefix__path112" />
               <path
                  d="M531.99 488.16c1.633 3.343-.224 5.024-2.488 5.287-3.343.388-5.131-2.255-5.364-4.665a6.87 6.87 0 016.327-7.366l.515-.02a8.674 8.674 0 017.764 5.477 10.79 10.79 0 01.788 3.697 9.147 9.147 0 01-2.223 6.474 11.745 11.745 0 01-8.429 3.866c-6.6.265-11.74-5.908-11.74-12.206 0-12.05 17.872-18.623 24.957-20.314 8.708-2.077 14.006-2.855 27.99-3.632 5.597-.311 9.697-.153 15.86-.792a94.33 94.33 0 0014.072-2.162 42.58 42.58 0 0019.592-9.952c4.55-4.131 7.153-7.075 9.26-12.75 1.817-4.898 2.653-14.596-1.951-21.77a22.4 22.4 0 00-16.171-10.565c-5.83-.843-10.942 1.672-13.995 7.456-1.477 2.8-1.022 7.48.148 9.64a9.37 9.37 0 007.471 4.666c5.909.078 7.313-4.057 7.464-4.976.7-4.276-1.788-5.987-3.11-6.453-1.014-.358-4.312-.266-5.012 2.065a4.18 4.18 0 00.347 3.144M526.9 469.02c-7.576 3.359-13.13 5.875-17.839 13.31a15.464 15.464 0 00-1.866 7.62 15.864 15.864 0 005.21 11.894 12.947 12.947 0 0010.417 3.188c3.007-.295 5.832-2.488 6.298-4.043"
                  id="prefix__path114" />
            </g>
            <path d="M601.73 325.2c-3.545 1.183-6.064 6.586-6.064 11.74a13.056 13.056 0 006.22 11.662"
               id="prefix__path118" />
            <path class="prefix__B"
               d="M605.62 344.41c-6.375 7.93-9.758 12.637-9.952 22.08-.182 8.863 2.644 14.927 7.93 21.303"
               id="prefix__path120" />
            <path
               d="M571.64 212.58l.547-.81c2.644-3.887 7.312-4.911 10.73-2.332 4.12 3.11 5.16 8.402 4.042 13.994a13.57 13.57 0 01-6.325 8.521"
               id="prefix__path122" />
            <path class="prefix__B"
               d="M414.22 210.68c-4.043-1.866-7.371-1.507-9.874 1.47-2.877 3.421-2.986 8.453-2.41 11.28.855 4.199 2.068 5.942 5.407 8.988"
               id="prefix__path124" />
            <path
               d="M404.03 212.55c-4.82-3.187-10.041-1.834-12.906 2.41-2.1 3.11-2.636 5.712-2.488 9.563a17.555 17.555 0 008.941 14.383"
               id="prefix__path126" />
            <path
               d="M390.12 216.81a10.65 10.65 0 00-9.4 10.433c0 6.92 1.703 9.718 5.59 15.005 3.897 5.299 16.638 15.005 16.638 26.045 0 6.686-1.866 10.962-6.686 13.139-3.108 1.404-6.742-.116-8.397-1.61-4.043-3.655-2.426-10.063 1.788-10.829 5.131-.933 6.096 7.145 1.089 6.609m-9.412-51.932c-3.965.31-7.867 3.723-7.867 7.908 0 5.986 2.385 8.761 7.167 14.716 4.121 5.131 15.762 13.972 15.451 22.602-.117 3.263-2.31 7.253-4.488 6.786"
               id="prefix__path128" />
            <path class="prefix__B"
               d="M372 343.94c1.866-4.51 6.686-2.488 6.983 0 .683 5.732-4.34 7.464-7.916 6.53a6.218 6.218 0 01-3.896-3.03 7.55 7.55 0 01-.61-5.824 7.66 7.66 0 011.326-2.581 7.748 7.748 0 011.999-1.89c1.375-.878 2.874-.965 5.224-.965 8.708 0 16.327 10.289 18.886 20.977a46.039 46.039 0 01.396 18.815 35.051 35.051 0 01-9.16 17.585 39.21 39.21 0 01-8.99 6.435 38.76 38.76 0 01-6.496 2.683 10.954 10.954 0 01-6.158.142c-4.423-1.327-7.262-5.46-4.96-10.83 1.792-4.18 8.397-6.219 11.351-1.088a5.1 5.1 0 01.628 2.411 4.648 4.648 0 01-1.561 3.64c-2.246 1.428-5.838 1.024-5.671-2.941"
               id="prefix__path130" />
            <path
               d="M365.24 397.49c1.633.63 2.526.544 4.557-.358.834-.37 1.789-.943 2.907-1.578 3.98-2.261 8.708-5.824 13.139-14.143a29.38 29.38 0 002.672-6.992 25.87 25.87 0 00.78-5.212 40.06 40.06 0 00-.964-9.72 31.607 31.607 0 00-6.376-14.15c-1.795-2.463-3.343-3.966-6.686-4.043M360.51 389.58a6.104 6.104 0 119.789 3.66m-7.419-9.73a5.72 5.72 0 0111.377.99 5.926 5.926 0 01-1.615 4.085"
               id="prefix__path132" />
            <path d="M374.02 383.2a24.286 24.286 0 009.718-19.274c.036-6.474-2.565-13.061-5.597-15.627"
               id="prefix__path134" />
            <path class="prefix__B" d="M382.29 380.33a25.82 25.82 0 01-9.74 9.238" id="prefix__path136" />
            <path
               d="M397.81 402.63c-1.449-3.409-4.329-4.985-9.019-5.486-4.662-.497-8.698.784-12.828 3.005-8.06 4.335-12.554 8.995-15.55 17.641a26.88 26.88 0 00-1.303 9.021c.14 5.604 1.563 11.73 3.091 14.692 1.334 2.584 4.82 13.994 23.946 21.868 11.161 4.595 28.3 5.654 40.118 6.12 16.256.642 31.255 1.245 39.962 11.973"
               id="prefix__path138" />
            <path class="prefix__B"
               d="M374.5 406.05c5.12-3.359 14.838-7.761 23.624-3.428 3.259 1.608 5.442 3.597 6.675 6.84a15.52 15.52 0 01-2.788 14.949c-1.321 1.4-4.2 4.074-7.775 4.12-5.908.079-7.313-4.056-7.463-4.975-.7-4.276 1.788-5.987 3.11-6.453 1.014-.358 4.312-.266 5.011 2.065a4.174 4.174 0 01-.347 3.144"
               id="prefix__path140" />
            <path
               d="M394.86 421.45a5.27 5.27 0 00-1.321-5.209 8.013 8.013 0 00-9.175-1.4 11.61 11.61 0 00-3.965 3.266l-1.788 2.488a19.351 19.351 0 00-1.704 3.887c-3.845 10.928 2.413 22.532 10.256 27.522 6.842 4.354 13.84 5.598 22.47 6.375 3.993.36 6.256.437 10.263.623 3.223.149 6.008.096 8.63.064l6.296-.064a110.46 110.46 0 0111.274.155c4.55.331 7.973.448 11.818 1.089 2.512.418 5.456.822 8.543 1.515.926.207 1.865.377 2.808.661l1.882.575a62.33 62.33 0 0115.257 6.521 23.63 23.63 0 013.877 2.708c.796.795 1.472 1.256 2.123 1.898 2.99 2.941 6.048 6.126 6.763 10.438.112.831.156 1.669.132 2.507 0 2.798-2.278 6.608-8.42 7.852"
               id="prefix__path142" />
            <path
               d="M466.62 488.16c-1.633 3.343.224 5.024 2.488 5.287 3.343.388 5.131-2.255 5.364-4.665a6.87 6.87 0 00-6.327-7.366l-.515-.02a8.674 8.674 0 00-7.764 5.477 10.79 10.79 0 00-.788 3.697 9.147 9.147 0 002.223 6.474 11.74 11.74 0 008.429 3.866c6.6.265 11.74-5.908 11.74-12.206 0-12.05-17.873-18.623-24.957-20.314-8.708-2.077-14.006-2.855-27.99-3.632-5.597-.311-9.697-.153-15.86-.792a94.337 94.337 0 01-14.073-2.162 42.58 42.58 0 01-19.592-9.952c-4.55-4.131-7.153-7.075-9.26-12.75-1.817-4.898-2.652-14.596 1.951-21.77a22.4 22.4 0 0116.172-10.565c5.83-.843 10.942 1.672 13.995 7.456 1.478 2.8 1.022 7.48-.148 9.64a9.37 9.37 0 01-7.471 4.666c-5.909.078-7.313-4.057-7.464-4.976-.7-4.276 1.788-5.987 3.11-6.453 1.014-.358 4.312-.266 5.012 2.065a4.18 4.18 0 01-.347 3.144"
               id="prefix__path144" />
            <path class="prefix__B"
               d="M426.97 212.58l-.547-.81c-2.644-3.887-7.312-4.911-10.73-2.332-4.12 3.11-5.16 8.402-4.042 13.994a13.572 13.572 0 006.324 8.521"
               id="prefix__path146" />
            <path
               d="M573.04 224.37c-6.298 6.842-12.595 9.026-22.003 9.33-2.938.095-8.552-.933-11.818-3.258-2.098-1.494-4.432-4.05-2.954-8.482.987-2.962 5.746-11.273 5.98-17.027.355-8.79-3.026-13.606-8.313-15.472-9.774-3.45-20.267 6.211-26.589 8.319a21.34 21.34 0 01-8.008 1.243 21.63 21.63 0 01-8.068-1.243c-6.323-2.108-16.816-11.77-26.59-8.32-5.287 1.867-8.668 6.683-8.312 15.473.234 5.753 4.992 14.064 5.98 17.027 1.477 4.431-.857 6.988-2.955 8.481-3.265 2.326-8.88 3.353-11.818 3.259-9.407-.304-15.705-2.488-22.003-9.33"
               id="prefix__path148" />
            <path class="prefix__B"
               d="M464.58 466.27c1.246.487.303-.295 8.195 3.203 7.576 3.359 12.954 6.3 17.663 13.736a15.464 15.464 0 011.866 7.62 16.65 16.65 0 01-.459 3.841"
               id="prefix__path150" />
            <path
               d="M465.09 500.06a12.52 12.52 0 005.081 1.29c6.6.264 11.74-5.91 11.74-12.207 0-4.366-2.377-8.044-5.706-11"
               id="prefix__path152" />
            <path class="prefix__B"
               d="M466.52 488.15c-1.594 3.553.677 5.475 2.94 5.738a4.91 4.91 0 005.432-4.328l.026-.337a6.98 6.98 0 00-3.278-6.485"
               id="prefix__path154" />
            <path
               d="M609.53 216.87c5.018 0 9.394 5.585 9.394 11.317 0 6.605-3.513 10.648-6.087 13.705-2.072 2.46-4.316 4.663-6.982 7.348"
               id="prefix__path156" />
            <path class="prefix__B"
               d="M603.58 211.58a10.822 10.822 0 014.346 3.819c2.099 3.11 2.633 5.712 2.487 9.563-.249 6.6-4.998 11.17-9.246 13.959m-7.457-27.341a8.66 8.66 0 011 1.014c2.877 3.421 3.1 8.478 2.41 11.281-1.035 4.213-2.427 6.029-5.846 8.549m-7.914-22.574c4.12 3.11 5.346 8.489 3.98 14.026-.975 3.957-3.463 6.328-6.565 8.217m17.385 64.187c.493 1.447 1.306 1.949 2.332 3.022a21.14 21.14 0 009.623 5.504c3.334.979 6.928.482 9.87-1.367m-254.7 84.431c1.937-.035 3.869 1.273 5.133 3.468a5.09 5.09 0 01.628 2.41 4.276 4.276 0 01-1.593 3.453c-2.245 1.43-6.232.815-6.065-3.15"
               id="prefix__path158" />
            <path
               d="M377.33 336.4c7.703 1.438 15.119 10.729 17.546 20.865a46.03 46.03 0 01.396 18.815 35.05 35.05 0 01-9.16 17.585 25.826 25.826 0 01-3.323 2.855l-1.643 1.113M368.76 378.67c3.164 0 5.934 3.032 5.934 6.273a5.926 5.926 0 01-1.615 4.085m-6.459-6.678a6.84 6.84 0 016.433 6.546 6.09 6.09 0 01-2.316 4.786"
               id="prefix__path160" />
            <path class="prefix__B"
               d="M396.84 349.2c3.027 4.063 5.025 7.561 5.954 12.07m-.104 13.26a26.98 26.98 0 01-2.264 6.322 27.859 27.859 0 01-5.552 7.253"
               id="prefix__path162" />
            <path d="M397.32 325.52a14.58 14.58 0 015.501 7.469" id="prefix__path164" />
            <path class="prefix__B"
               d="M402.9 317.92c-.767 2.66-2.506 4.674-5.266 7.193M383.33 298.27l3.369-.886 1.994-1.508 1.285-1.817 1.108-2.837.444-2.305"
               id="prefix__path166" />
            <path
               d="M376.51 286.41a20.24 20.24 0 00-3.824 1.333 13.97 13.97 0 00-5.506 4.576c-1.856 2.63-2.938 6.286-3.608 9.484a30.98 30.98 0 00.252 10.41 24.628 24.628 0 003.601 8.807 14.292 14.292 0 001.621 2.087c2.022 2.021 3.888 3.265 6.997 2.643"
               id="prefix__path168" />
            <path class="prefix__B" d="M395.38 271.58c-.546 2.007-1.625 4.493-4.774 4.221" id="prefix__path170" />
            <path
               d="M383.87 285.2c-3.024-2.956-9.43-3.726-15.798.302a24.12 24.12 0 00-2.448 1.859 13.847 13.847 0 00-2.25 2.482 28.057 28.057 0 00-2.182 3.8 19.629 19.629 0 00-1.474 4.142 31.717 31.717 0 00-1.02 9.776c.176 1.513.32 2.903.567 4.182a29.13 29.13 0 003.475 9.656c1.407 2.333 4.906 7.69 12.058 8.397 2.811.278 7.612-1.01 7.768-4.665"
               id="prefix__path172" />
            <path class="prefix__B"
               d="M568.38 220.42c.478-2.581 3.59-3.08 4.758-1.555 1.8 2.348.61 6.382-3.051 7.526a5.89 5.89 0 01-5.987-2.177 6.78 6.78 0 011.585-9.45l.281-.19c4.251-3.234 11.118-2.488 13.372 2.954 2.909 7.02-3.42 12.284-9.252 16.249-7.34 4.992-15.705 5.9-22.003 5.831-14.306-.156-25.19-6.997-32.265-10.884-1.648-.906-3.345-.72-4.198.31a3.117 3.117 0 00.389 4.277M571.26 218a2.625 2.625 0 012.387 1.267c1.8 2.348.485 6.383-3.176 7.526m27.869 80.537c-5.45 5.933-.437 16.116 3.636 18.418 1.41 1.097 2.013.515 3.14 1.175"
               id="prefix__path174" />
            <path
               d="M598.63 295.99c-1.788 1.244-2.418 2.642-2.488 5.07a8.196 8.196 0 002.203 6.272c2.972 3.092 8.786 5.784 14.42 5.855 3.35.097 6.645-.86 9.422-2.736a14.156 14.156 0 005.987-8.397M595.58 398.6a38 38 0 01-.212 3.887 32.805 32.805 0 01-9.795 19.671 30.679 30.679 0 01-9.097 6.375 38.43 38.43 0 01-10.263 3.42 52.317 52.317 0 01-10.73 1.322 74.53 74.53 0 01-9.909-.254c-4.127-.286-6.417-.86-10.538-1.223a83.34 83.34 0 00-8.743-.566 44.763 44.763 0 00-8.983.644 34.33 34.33 0 00-8.086 2.255c-4.198 1.7-8.941 4.664-9.952 5.986-1.01-1.322-5.754-4.286-9.952-5.986a34.403 34.403 0 00-8.085-2.255 44.767 44.767 0 00-8.984-.644 82.69 82.69 0 00-8.743.566c-4.121.362-6.41.937-10.538 1.223-3.294.306-6.605.39-9.91.254a52.444 52.444 0 01-10.728-1.321 38.43 38.43 0 01-10.263-3.421 30.66 30.66 0 01-9.097-6.375 32.812 32.812 0 01-9.796-19.671 37.952 37.952 0 01-.212-3.887V239.58h192.55V398.6z"
               id="prefix__path176" />
         </g>
      </g>
      <g class="prefix__J" transform="translate(.012 .006) scale(.99997)" id="prefix__g186">
         <path class="prefix__E"
            d="M387.41 421.32a3.91 3.91 0 013.903-3.911 3.91 3.91 0 013.911 3.903v.009a3.91 3.91 0 01-3.911 3.903 3.91 3.91 0 01-3.903-3.903zm-23.99-27.61c0-1.932 1.236-3.499 2.76-3.499 1.524 0 2.76 1.567 2.76 3.499 0 1.932-1.236 3.499-2.76 3.499-1.524 0-2.76-1.567-2.76-3.499z"
            stroke="#c6aa76" id="prefix__path182" />
         <path
            d="M377.05 324.36a2.674 2.674 0 015.33.4 2.673 2.673 0 01-2.665 2.472 2.775 2.775 0 01-2.665-2.873zm47.86-102.55a2.49 2.49 0 012.636-2.329 2.49 2.49 0 012.329 2.636 2.488 2.488 0 01-2.221 2.32 2.7 2.7 0 01-2.744-2.627z"
            id="prefix__path184" />
      </g>
      <g class="prefix__C prefix__D" transform="translate(.012 .006) scale(.99997)" stroke="#c6aa76" id="prefix__g194">
         <path class="prefix__B"
            d="M373.92 340.54a3.884 3.884 0 00-2.138 2.208 6.36 6.36 0 00-.381 1.858m7.369 41.794l1.391-1.687a16.95 16.95 0 001.073-1.47c.344-.539.498-.867.801-1.43l1.05-2.06m-1.975 21.777l-2.371 1.088-1.71 1.003-1.945 1.307-1.904 1.523m23.38-59.201l-1.283-1.321-1.4-1.322c-.556-.469-.91-.683-1.492-1.12"
            id="prefix__path188" />
         <path d="M397.17 326.47c-.618.319-1.254.602-1.905.848-.751.278-1.54.44-2.34.482" id="prefix__path190" />
         <path class="prefix__B"
            d="M371 300.68c.173.787.391 1.563.653 2.325a12.18 12.18 0 001.446 2.666 13.05 13.05 0 001.99 2.457c.655.658 1.383 1.24 2.17 1.734.753.455 1.529.87 2.325 1.244m-1.544-9.156a19.32 19.32 0 001.944 1.042c.614.261 1.251.461 1.904.598a11.49 11.49 0 002.683.32 12.09 12.09 0 002.916-.234m11.203-63.526l-3.196-1.866a19.074 19.074 0 01-2.923-2.371 14.607 14.607 0 01-1.811-2.022c-.563-.76-.778-1.257-1.275-2.06m11.715-7.111c.278.914.613 1.81 1.003 2.682a12.19 12.19 0 002.224 3.188c1.414 1.552 2.613 1.992 4.283 3.265m2.27-9.245c.28.824.612 1.629.995 2.41.364.68.799 1.318 1.299 1.905a11.468 11.468 0 002.099 2.06 22.796 22.796 0 002.939 1.75"
            id="prefix__path192" />
      </g>
      <g transform="translate(.012 .006) scale(.99997)" fill="#704029" id="prefix__g204">
         <path class="prefix__H"
            d="M520.78 211.91c-.08-2.649-2.69-2.924-3.69-2.924-2.885 0-3.666 1.8-7.265 3.732-4.512 2.424-6.455 2.962-10.466 2.998-4.01-.036-6.005-.575-10.517-2.998-3.6-1.932-4.205-3.674-7.091-3.674a3.64 3.64 0 00-3.516 3.757l.003.075a6.48 6.48 0 00.093 1.347c.047.204.296.14.374.32a3.64 3.64 0 01.8-2.633 3.415 3.415 0 012.54-1.313c2.885 0 3.953 1.851 7.553 3.784 4.512 2.423 6.453 2.962 10.464 2.998 4.01-.036 6.007-.575 10.519-2.998 3.6-1.933 4.634-3.938 7.52-3.938a2.12 2.12 0 012.032 1.667 4.96 4.96 0 01.14 1.293c.026.121.174.109.207.24a4.08 4.08 0 00.3-1.733z"
            stroke-width=".277" id="prefix__path196" />
         <path
            d="M413.12 434.42c.81-.872 1.423-.544 1.573-.946.11-.297-.13-.327-.46-.45-.44-.165-.906-.26-1.346-.424-.457-.17-.87-.405-1.327-.576-.189-.07-.625-.293-.75.04-.228.61 1.602.558.988 2.2a5.79 5.79 0 01-1.274 1.875l-4.141 4.507c-.093.104-.248.326-.342.29-.094-.036-.082-.309-.083-.45l.06-6.39a8.468 8.468 0 01.303-2.636c.275-.734 1.12-.119 1.297-.59.111-.298.026-.31-.477-.498-.252-.094-.734-.195-1.74-.571l-1.563-.664c-.236-.088-.672-.41-.828.01-.046.123.119.304.16.339.524.294.816.876.74 1.472l.114 11.635c.009.84.1 1.073.258 1.132.173.065.29-.011.633-.4l8.205-8.904z"
            id="prefix__path198" />
         <path
            d="M417.95 436.22c.533-1.69 1.532-.671 1.723-1.276.067-.214-.001-.275-.482-.426l-2.088-.58-1.788-.642c-.144-.046-.527-.225-.623.077-.196.623 1.77.695 1.26 2.314l-2.693 8.542c-.533 1.69-1.54.864-1.736 1.486-.028.09-.036.224.109.27l1.816.494 2.412.839c.368.116.534.09.596-.106.18-.57-1.872-.316-1.182-2.505zm5.78 1.71c.318-1.073.817-.926 1.413-.75 1.626.483 2.135 2.073 1.616 3.827-.313 1.055-.706 2.028-3.153 1.303-.483-.143-1.079-.32-.946-.766zm-4.434 7.696c-.667 2.254-1.797 1.278-1.966 1.85-.106.358.248.404.425.457l2.5.663c.677.2 1.09.4 1.364.481.37.11.53.04.579-.12.19-.644-1.621-.383-1.054-2.297l.917-3.095c.185-.626.126-.78.979-.527.805.238 1.047.485 1.184 1.382l.515 3.227c.192 1.186.374 2.465 1.645 2.842.644.19 1.824.112 1.988-.443a.248.248 0 00-.149-.316c-.179-.054-.372.005-.533-.042a.617.617 0 01-.495-.458l-1.06-5.704c.053-.179.568-.201 1.156-.475a2.963 2.963 0 001.596-1.959c.244-.823.67-3.44-2.856-4.485l-3.274-.892-1.862-.63c-.193-.056-.381-.015-.434.164-.19.644 1.76.502 1.167 2.505zm13.164 3.854c-.518 2.159-2.154.845-2.324 1.552-.096.4.186.448.48.519l2.303.476 2.269.622c.473.113.787.246.891-.19.122-.507-2.094-.483-1.558-2.715l1.968-8.2c.21-.87.395-.922 1.064-.761l1.388.333c1.895.378.889 2.267 1.542 2.423.425.102.415-.648.435-.874l.22-1.712c.028-.185.089-.44-.156-.498l-5.014-1.127-4.978-1.272c-.245-.06-.306.195-.366.372l-.836 2.332c-.09.228-.283.604.06.686.734.176.815-2.318 2.66-1.875l1.372.33c.669.16.81.29.601 1.161l-2.02 8.418zm19.84-5.06c.646-1 1.306-.782 1.385-1.204.057-.312-.184-.3-.53-.364-.463-.086-.939-.098-1.401-.184-.479-.089-.928-.248-1.406-.337-.198-.037-.667-.18-.732.168-.119.643 1.675.273 1.355 1.997a5.75 5.75 0 01-.93 2.067l-3.295 5.158c-.073.119-.187.364-.286.345-.099-.019-.134-.29-.16-.428l-1.052-6.305a8.5 8.5 0 01-.158-2.648c.143-.77 1.083-.311 1.175-.807.057-.312-.029-.309-.557-.407-.264-.049-.756-.064-1.813-.26l-1.654-.382c-.248-.046-.732-.288-.814.152-.024.129.17.279.217.306.566.199.955.722.984 1.321l2.132 11.44c.155.825.286 1.039.451 1.07.182.034.285-.061.555-.505zm.93 10.51c.009.456-.032.6.363.78.848.496 1.756.884 2.702 1.152 2.169.362 3.967-1.02 4.37-3.43.391-2.338-.57-3.312-2.197-4.473-2.037-1.457-2.908-1.85-2.702-3.082a1.774 1.774 0 012.162-1.624c2.849.476 2.524 3.94 2.905 4.004.364.061.45-.151.486-.562l.23-2.496c.038-.429.134-.697-.115-.738-.215-.036-.679.19-.894.153-.496-.083-1.072-.917-2.43-1.144-1.938-.325-3.521 1-3.875 3.116-.324 1.932.533 2.813 1.84 3.75 2.448 1.753 3.452 2.167 3.19 3.731a2.235 2.235 0 01-2.68 1.973c-1.838-.308-2.585-2.154-2.82-4.01-.025-.25-.03-.42-.296-.465-.414-.069-.337.492-.33.758zm24.72-6.97c.538-1.062 1.217-.915 1.251-1.343.025-.316-.214-.279-.566-.306-.468-.037-.943 0-1.412-.036-.485-.038-.948-.15-1.433-.188-.201-.016-.682-.11-.71.243-.051.651 1.694.096 1.556 1.845a5.77 5.77 0 01-.708 2.152l-2.739 5.474c-.06.126-.148.381-.248.374-.1-.007-.164-.275-.204-.41l-1.704-6.16a8.466 8.466 0 01-.435-2.617c.062-.78 1.044-.423 1.084-.925.024-.316-.06-.304-.596-.346-.268-.02-.76.016-1.83-.07l-1.685-.207c-.251-.02-.759-.21-.794.237-.011.13.199.26.247.282a1.476 1.476 0 011.118 1.21l3.316 11.154c.24.805.393 1.004.56 1.017.184.014.277-.091.499-.56z"
            id="prefix__path200" />
         <path
            d="M480.6 457c-.016 1.903-1.626 1.553-1.632 2.3-.002.317.334.226.519.228l1.444-.062 1.98.092c.22 0 .639.024.64-.237.008-.877-2.152.373-2.12-3.21l.055-6.342c0-.168.036-.299.137-.298.084 0 .183.095.3.245l7.992 9.772a.493.493 0 00.434.265c.202 0 .203-.147.206-.558l.092-10.466c.015-1.958 1.44-1.498 1.445-2.058 0-.056.002-.243-.317-.245-.15 0-.74.068-1.797.059l-1.914-.091c-.218 0-.27.184-.271.314-.005.616 2.046.298 2.03 1.996l-.053 6.213c-.005.466-.04.69-.14.689-.1-.001-.3-.227-.517-.49l-6.678-8.286c-.3-.358-.097-.486-.634-.491-.89-.01-1.327.063-1.764.059-.319 0-.62-.08-.94-.083a.282.282 0 00-.29.274c0 .014 0 .027.002.041-.009.895 1.884-.301 1.852 3.281l-.061 7.09zm16.26-8.4c.016-1.772 1.27-1.09 1.274-1.724.002-.224-.08-.262-.585-.267-.957-.01-1.562.061-2.166.056-.588 0-1.242-.086-1.897-.09-.151-.002-.57-.062-.573.256-.005.653 1.802.147 1.788 1.845l.015 8.955c-.015 1.772-1.22 1.277-1.225 1.93-.001.093.031.224.182.225.437.01 1.16-.064 1.882-.058l2.55.097c.387 0 .539-.07.54-.275.006-.597-1.882.245-1.862-2.05zm7.04 8.67c.02 2.22-1.886 1.341-1.88 2.069.006.41.29.39.592.386l2.35-.095 2.351.054c.487 0 .824.05.82-.399-.005-.522-2.15.037-2.17-2.257l-.073-8.433c-.007-.895.16-.99.848-.996l1.427-.011c1.93-.091 1.411 1.984 2.083 1.978.436 0 .245-.73.21-.953l-.2-1.715c-.018-.187-.02-.448-.273-.446l-5.137.12c-2.452.02-3.577-.044-5.139-.03-.252 0-.25.263-.265.45l-.247 2.465c-.031.243-.128.654.224.651.756-.01.231-2.446 2.128-2.462l1.41-.014c.69-.01.858.086.866.98zm9.78-3.53c-.301.024-.534.061-.549-.125a1.91 1.91 0 01.13-.703l1.03-3.393c.067-.212.133-.236.166-.238.084-.01.034 0 .146.138l1.638 3.259a1.92 1.92 0 01.238.673c.013.186-.221.186-.523.21zm2.874.784c.436-.034.534.146 1.2 1.553a3.5 3.5 0 01.4 1.222c.09 1.135-1.115 1.024-1.073 1.563.02.26.236.206.537.183l1.835-.22 2.166-.096c.452-.035.605-.01.58-.326-.048-.614-.895.183-1.535-1.096l-5.415-11.028c-.262-.54-.298-.575-.449-.563-.217.018-.273.377-.367.684l-3.651 11.61c-.336 1.074-1.199 1.03-1.165 1.458.02.242.284.183.518.165.485-.038.965-.151 1.467-.19l1.58-.05c.351-.028.88.062.85-.329-.04-.502-1.824-.062-1.93-1.401.013-.507.093-1.01.236-1.497.288-1.258.634-1.36.919-1.382l3.298-.26zm12.976-7.734c-.168-1.276-.104-1.304 1.91-1.569 3.213-.423 2.2 1.912 2.982 1.81.383-.05.22-.65.171-.889l-.307-1.822a.343.343 0 00-.373-.309l-3.793.575-4.438.509a.332.332 0 00-.326.337l.001.026c.098.74 1.901-.1 2.12 1.564l1.14 8.658c.297 2.256-1.1 1.424-.988 2.275.016.111.127.19.343.162l2.122-.355 1.99-.186c.417-.055.776-.027.727-.397-.065-.5-1.885.21-2.156-1.843l-.36-2.738c-.142-1.073-.237-1.286.528-1.387l1.232-.162c1.732-.228 1.524 1.795 2.056 1.724.4-.053.212-.705.164-.943l-.55-3.277c-.082-.498-.26-.437-.377-.421-.333.044-.159 1.752-1.59 1.94l-1.05.139c-.715.094-.732-.035-.837-.831l-.34-2.59zm6.14 4.24c.69 3.724 3.378 5.787 6.697 5.172 5.267-.976 5.44-5.657 4.965-8.225-.721-3.89-3.62-5.8-6.833-5.166-3.939.767-5.574 4.201-4.829 8.219zm1.837-1.422c-.493-2.66-.137-5.345 2.643-5.917 2.123-.431 4.532 1.323 5.283 5.378.565 3.045.096 5.675-2.734 6.256-2.945.603-4.696-3.039-5.192-5.717zm13.023-6.498c-.261-1.089.245-1.21.849-1.355 1.65-.396 2.886.727 3.313 2.505.257 1.07.403 2.11-2.08 2.705-.49.118-1.093.263-1.202-.19zm.009 8.882c.549 2.286-.917 2.004-.778 2.585.087.363.417.226.596.183l2.498-.676c.685-.165 1.143-.198 1.421-.265.376-.09.48-.23.44-.393-.156-.654-1.594.478-2.06-1.463l-.753-3.138c-.153-.635-.281-.739.584-.947a1.356 1.356 0 011.717.605l2.06 2.537c.758.931 1.555 1.949 2.845 1.64.653-.158 1.635-.816 1.5-1.378a.246.246 0 00-.286-.199l-.02.004c-.163.039-.3.187-.464.226a.62.62 0 01-.657-.149l-3.77-4.41c-.044-.181.39-.458.764-.99a2.96 2.96 0 00.403-2.494c-.2-.835-1.141-3.314-4.717-2.456l-3.281.864-1.928.386c-.196.047-.337.177-.294.359.157.653 1.776-.446 2.264 1.586zm13.471-3.012c.556 2.15-1.505 1.758-1.323 2.462.102.398.374.308.667.232l2.257-.66 2.295-.517c.471-.122.81-.152.698-.585-.13-.506-2.076.556-2.65-1.666l-2.112-8.164c-.224-.867-.085-1 .581-1.172l1.382-.358c1.851-.555 1.85 1.584 2.5 1.416.422-.11.061-.767-.027-.976l-.609-1.615c-.063-.177-.128-.43-.372-.367l-4.956 1.36-4.993 1.214c-.244.063-.179.316-.148.5l.356 2.452c.029.243.034.666.375.577.732-.189-.368-2.429 1.469-2.904l1.365-.353c.667-.172.853-.124 1.077.743zm8.59-11.46c-.474-1.708.92-1.397.75-2.009-.06-.215-.15-.229-.636-.095l-2.068.651-1.848.435c-.146.04-.565.098-.48.405.174.629 1.863-.382 2.316 1.254l2.394 8.63c.474 1.708-.821 1.564-.647 2.193.025.09.093.207.238.167l1.793-.575 2.48-.61c.371-.103.497-.215.442-.413-.16-.576-1.742.754-2.356-1.458zm3.58 4.17c1.202 3.592 4.15 5.261 7.352 4.19 5.08-1.7 4.6-6.36 3.771-8.836-1.255-3.751-4.391-5.24-7.485-4.166-3.793 1.31-4.934 4.937-3.638 8.812zm1.621-1.664c-.858-2.565-.879-5.273 1.794-6.227 2.043-.723 4.672.68 5.98 4.59.983 2.937.885 5.606-1.836 6.576-2.833 1.006-5.074-2.356-5.938-4.939zm11.919-8.466c-.41-1.041.074-1.232.652-1.46 1.578-.622 2.96.318 3.63 2.02.403 1.024.692 2.033-1.683 2.968-.469.185-1.047.412-1.218-.023l-1.381-3.506zm1.245 8.794c.861 2.187-.63 2.113-.411 2.669.136.347.444.166.616.098l2.378-1.017c.657-.259 1.106-.355 1.371-.46.36-.142.444-.295.382-.452-.246-.625-1.512.697-2.244-1.16l-1.183-3.004c-.24-.608-.38-.692.447-1.018a1.354 1.354 0 011.784.36l2.393 2.225c.881.816 1.812 1.713 3.046 1.227.625-.246 1.506-1.034 1.294-1.572a.246.246 0 00-.31-.158l-.02.007c-.157.062-.272.227-.428.289a.62.62 0 01-.672-.056l-4.347-3.843c-.068-.173.323-.508.62-1.085.392-.793.41-1.719.05-2.527-.314-.8-1.59-3.123-5.012-1.776l-3.129 1.313-1.855.65c-.188.075-.31.222-.241.396.246.625 1.696-.688 2.462 1.256z"
            id="prefix__path202" />
      </g>
      <g stroke-width="1" id="prefix__g220">
         <path class="prefix__G" d="M412.66 249.25h82.176v82.02H412.66z" id="prefix__path206" />
         <path
            d="M451.2 313.83a20.149 20.149 0 01-.855 5.287c-.933 2.72-.94 2.72-1.796 4.043a13.132 13.132 0 01-3.81 3.887 9.42 9.42 0 01-5.948 1.71c-5.49-.486-8.037-6.44-9.282-11.273-1.321-5.13-5.073-7.923-7.463-6.064-1.4 1.089-1.48 2.914-.311 4.664a9.01 9.01 0 004.099 2.8l-2.933 3.731a9.18 9.18 0 01-7.535-7.393c-.466-2.487.742-7.133 4.891-8.521 5.297-1.774 8.686 2.004 10.318 5.19 2.246 4.384 3.21 12.435 9.43 11.19 3.384-.676 4.976-5.597 4.976-7.851l2.466-2.644 3.654 1.167.1.078zm5.12 0a20.149 20.149 0 00.855 5.287c.933 2.72.94 2.72 1.796 4.043a13.132 13.132 0 003.81 3.887 9.42 9.42 0 005.947 1.71c5.49-.486 8.038-6.44 9.283-11.273 1.321-5.13 5.073-7.923 7.463-6.064 1.4 1.089 1.479 2.914.31 4.664a9.01 9.01 0 01-4.098 2.8l2.933 3.731a9.18 9.18 0 007.535-7.393c.466-2.487-.742-7.133-4.891-8.521-5.297-1.774-8.686 2.004-10.318 5.19-2.246 4.384-3.21 12.435-9.43 11.19-3.384-.676-4.976-5.597-4.976-7.851l-2.467-2.644-3.654 1.167-.099.078z"
            fill="#fff" id="prefix__path208" />
         <path class="prefix__F"
            d="M461.12 278.95l10.76-11.643a4.69 4.69 0 001.61-3.4l-2.219.344-.497-1.142-.11-1.147 2.98-.63c.049-.484.008-.85.093-1.384.08-.494.19-.76.31-1.244l-3.264.218c.166-.57.128-.875.31-1.406a4.04 4.04 0 01.504-1.103l1.907-.304c.728-.073 1.143-.04 1.873-.085 1.78-3.32 9.19-6.373 14.454-.904 3.81 3.958 2.988 11.22-1.95 13.14a6.32 6.32 0 01-6.862-1.11l1.97-3.867c2.722 1.625 4.976-.396 4.82-2.495a4.58 4.58 0 00-4.353-4.51c-2.254-.196-3.872 1.094-4.898 3.11-.626 1.231-.336 2.134-.544 3.5a23.919 23.919 0 01-.537 3.81 8.76 8.76 0 01-2.37 3.591l-11.03 11.935-42.94 46.443-3.227-2.983 43.21-46.735z"
            id="prefix__path210" />
         <path
            d="M429.51 283.04s2.7 13.372 11.874 33.43c4.665-1.71 7.42-2.8 12.362-2.8s7.697.934 12.362 2.8c9.174-20.058 11.874-33.43 11.874-33.43l-24.235-31.176z"
            fill="#fff" id="prefix__path212" />
         <path class="prefix__F"
            d="M456.12 262.41l16.819 21.636s-2.243 10.52-9.078 26.353a47.328 47.328 0 00-7.732-1.32l-.01-46.668zm-4.74 0l-16.819 21.636s2.243 10.52 9.078 26.353a47.328 47.328 0 017.733-1.32l.009-46.668zm52.218-13.16h82.176v82.02h-82.176z"
            id="prefix__path214" />
         <path class="prefix__G"
            d="M515.1 249.25h12.253v82.02H515.1zm23.479 0h12.253v82.02h-12.253zm23.479 0h12.253v82.02h-12.253z"
            id="prefix__path216" />
         <path class="prefix__F"
            d="M412.97 402.4a20.759 20.759 0 002.163 6.609c1.477 2.332.932 2.269 4.276 6a23.916 23.916 0 006.227 4.494 26.952 26.952 0 006.841 2.496 50.939 50.939 0 0016.573 1.598 98.457 98.457 0 0010.25-1.062 108.8 108.8 0 0111.117-1.01c2.133-.09 4.15-.11 6.142 0 2.457.162 4.899.5 7.308 1.01a79.667 79.667 0 0110.962 3.188l.014-85.652-82.19-.023v58.542s.168 2.86.318 3.81z"
            id="prefix__path218" />
      </g>
      <path class="prefix__E prefix__G"
         d="M422.51 417.42l3.852 2.24 5.278 1.9-.005-81.524h-9.126zm45.658 3.71l.011-81.096h-9.143v82.393l9.131-.988zm18.239-81.087h-9.113v81.378a60.428 60.428 0 019.13 1.683zm-36.489 0v83.328a80.658 80.658 0 01-9.173-.003l.002-83.311z"
         stroke="#da281b" id="prefix__path222" />
      <path class="prefix__F"
         d="M585.47 402.38a20.73 20.73 0 01-2.163 6.608c-1.477 2.333-.932 2.27-4.275 6a23.961 23.961 0 01-6.228 4.495 26.909 26.909 0 01-6.84 2.495 50.948 50.948 0 01-16.573 1.6 98.69 98.69 0 01-10.25-1.063 108.64 108.64 0 00-11.117-1.01c-2.133-.09-4.15-.11-6.142 0a51.468 51.468 0 00-7.309 1.01 82.417 82.417 0 00-11.033 3.188l.057-85.652 82.19-.023v58.541s-.168 2.86-.318 3.81z"
         stroke-width="1" id="prefix__path224" />
      <use class="prefix__G" transform="translate(.012 .006) scale(.99997)" xlink:href="#prefix__B"
         id="prefix__use226" />
      <g transform="translate(.012 .006) scale(.99997)" stroke="#fede00" id="prefix__g246">
         <use class="prefix__B prefix__C prefix__D" xlink:href="#prefix__C" id="prefix__use228" />
         <use class="prefix__E prefix__I" xlink:href="#prefix__D" id="prefix__use230" />
         <g class="prefix__C prefix__D" id="prefix__g242">
            <use class="prefix__B" xlink:href="#prefix__E" id="prefix__use232" />
            <path d="M560.12 369.78l.384-.249a8.149 8.149 0 002.686-1.79" id="prefix__path234" />
            <g class="prefix__B" id="prefix__g240">
               <path d="M552.38 368.02h.007c3.533-.883 5.885-2.648 7.579-2.869" id="prefix__path236" />
               <use xlink:href="#prefix__F" id="prefix__use238" />
            </g>
         </g>
         <use class="prefix__E prefix__I" xlink:href="#prefix__G" id="prefix__use244" />
      </g>
      <path
         d="M525.12 364.16a15.467 15.467 0 01-1.966-.826c.323-.25.587-.265.863-.555.39-.408.373-.788.593-1.319.215-.52.184-.954.671-1.343.329-.22.74-.28 1.118-.165.389.106.703.39.848.766.137.561-.16.886-.246 1.454-.155.47-.221.965-.195 1.46a6.07 6.07 0 00.354.907 15.299 15.299 0 01-2.04-.38zm-.99.95a.625.625 0 111.252-.014.626.626 0 01-1.252.018zm-1.76-16.509l-.144-.104c-.383-.31-.42-.653-.6-1.11a4.093 4.093 0 01-.316-1.154 7.331 7.331 0 010-1.048c.02-.314.02-.63 0-.944a2.172 2.172 0 00-.21-.944c-.097-.18-.394-.337-.314-.42.094-.096.257-.02.42 0a1.64 1.64 0 01.943.42c.338.262.576.632.672 1.049l.407 1.468c.058.257.154.505.284.734a4.27 4.27 0 00.524.629l-.01.023a9.01 9.01 0 01-.778.834c-.26.22-.544.412-.846.573l-.033-.01zm3.6 10.64l2.23 1.031a9.23 9.23 0 003.497-3.919 13.84 13.84 0 001.364-4.313l-1.79-.58-.356.072a15.656 15.656 0 01-1.618 4.192 11.631 11.631 0 01-2.649 3.034l-.678.483zm4.94 18.119c.282-.439.59-.861.922-1.264a12.73 12.73 0 011.312-1.15c.163-.011.327.014.48.071a8.678 8.678 0 01-.526 2.751 3.48 3.48 0 01-.39.979 4.15 4.15 0 01-.476.518c-.51-.742-1.33-1.297-1.322-1.906zm33.009 1.85a7.51 7.51 0 012.936 1.482c.055.155.076.319.063.483a9.05 9.05 0 01-1.53.25 8.39 8.39 0 01-1.26 0 3.46 3.46 0 01-1.047-.104 4.3 4.3 0 01-.63-.314c.573-.696.88-1.637 1.468-1.797zm-9.76-2.04a7.53 7.53 0 012.936 1.482 1.16 1.16 0 01.063.482 8.95 8.95 0 01-1.53.252 8.4 8.4 0 01-1.259 0 3.46 3.46 0 01-1.048-.105 4.3 4.3 0 01-.63-.314c.573-.696.88-1.637 1.468-1.797zm-17.339 2.13a13.02 13.02 0 011.47.538 13.16 13.16 0 011.467.944 1.2 1.2 0 01.063.483 9.08 9.08 0 01-1.53.25 8.38 8.38 0 01-1.259 0 3.433 3.433 0 01-1.049-.104 4.252 4.252 0 01-.63-.314c.573-.696.88-1.637 1.468-1.797zm-8.98-29.8c-.613-.277-1.05-1.044-.66-1.593.155-.22.412-.174.565-.395.144-.254.192-.552.136-.839a5.22 5.22 0 00-.21-.944 5.006 5.006 0 01-.135-1.048 2.25 2.25 0 01.345-1.573c.211-.279.497-.49.825-.612.147.136-.057.502-.033.822a3.83 3.83 0 00.288 1.153c.202.563.48.809.703 1.363a3.58 3.58 0 01.42 1.363 2.29 2.29 0 01-.21 1.154 2.007 2.007 0 01-.61.839 1.85 1.85 0 01-.796.419 1.15 1.15 0 01-.628-.108z"
         fill="#005eb7" stroke-width="1" id="prefix__path248" />
      <use class="prefix__G" transform="translate(.012 .006) scale(.99997)" y="36.591" xlink:href="#prefix__B"
         id="prefix__use250" />
      <g transform="translate(.012 .006) scale(.99997)" stroke="#fede00" id="prefix__g270">
         <use class="prefix__B prefix__C prefix__D" y="36.591" xlink:href="#prefix__C" id="prefix__use252" />
         <use class="prefix__E prefix__I" y="36.591" xlink:href="#prefix__D" id="prefix__use254" />
         <g class="prefix__C prefix__D" id="prefix__g266">
            <use class="prefix__B" y="36.591" xlink:href="#prefix__E" id="prefix__use256" />
            <path d="M560.12 406.37l.384-.249a8.149 8.149 0 002.686-1.79" id="prefix__path258" />
            <g class="prefix__B" id="prefix__g264">
               <path d="M552.38 404.61h.007c3.533-.883 5.885-2.648 7.579-2.869" id="prefix__path260" />
               <use y="36.591" xlink:href="#prefix__F" id="prefix__use262" />
            </g>
         </g>
         <use class="prefix__E prefix__I" y="36.591" xlink:href="#prefix__G" id="prefix__use268" />
      </g>
      <path
         d="M525.12 400.75a15.467 15.467 0 01-1.966-.826c.323-.25.587-.265.863-.555.39-.408.373-.788.593-1.319.215-.52.184-.954.671-1.343.329-.22.74-.28 1.118-.165.389.106.703.39.848.766.137.561-.16.886-.246 1.454-.155.47-.221.965-.195 1.46a6.07 6.07 0 00.354.907 15.299 15.299 0 01-2.04-.38zm-.99.95a.625.625 0 111.252-.014.626.626 0 01-1.252.018zm-1.76-16.509l-.144-.104c-.383-.31-.42-.653-.6-1.11a4.093 4.093 0 01-.316-1.154 7.331 7.331 0 010-1.048c.02-.314.02-.63 0-.944a2.172 2.172 0 00-.21-.944c-.097-.18-.394-.337-.314-.42.094-.096.257-.02.42 0a1.64 1.64 0 01.943.42c.338.262.576.632.672 1.049l.407 1.468c.058.257.154.505.284.734a4.27 4.27 0 00.524.629l-.01.023a9.01 9.01 0 01-.778.834c-.26.22-.544.412-.846.573l-.033-.01zm3.6 10.64l2.23 1.031a9.23 9.23 0 003.497-3.919 13.84 13.84 0 001.364-4.313l-1.79-.58-.356.072a15.654 15.654 0 01-1.618 4.192 11.631 11.631 0 01-2.649 3.034zm4.94 18.119c.282-.439.59-.861.922-1.264a12.73 12.73 0 011.312-1.15c.163-.011.327.014.48.071a8.678 8.678 0 01-.526 2.751 3.48 3.48 0 01-.39.979 4.15 4.15 0 01-.476.518c-.51-.742-1.33-1.297-1.322-1.906zm33.009 1.85a7.51 7.51 0 012.936 1.482c.055.155.076.319.063.483a9.05 9.05 0 01-1.53.25 8.39 8.39 0 01-1.26 0 3.46 3.46 0 01-1.047-.104 4.3 4.3 0 01-.63-.314c.573-.696.88-1.637 1.468-1.797zm-9.76-2.04a7.53 7.53 0 012.936 1.482 1.16 1.16 0 01.063.482 8.95 8.95 0 01-1.53.252 8.4 8.4 0 01-1.259 0 3.46 3.46 0 01-1.048-.105 4.3 4.3 0 01-.63-.314c.573-.696.88-1.637 1.468-1.797zm-17.339 2.13a13.02 13.02 0 011.47.538 13.16 13.16 0 011.467.944 1.2 1.2 0 01.063.483 9.08 9.08 0 01-1.53.25 8.38 8.38 0 01-1.259 0 3.433 3.433 0 01-1.049-.104 4.253 4.253 0 01-.63-.314c.573-.696.88-1.637 1.468-1.797zm-8.98-29.8c-.613-.277-1.05-1.044-.66-1.593.155-.22.412-.174.565-.395.144-.254.192-.552.136-.839a5.22 5.22 0 00-.21-.944 5.006 5.006 0 01-.135-1.048 2.25 2.25 0 01.345-1.573c.211-.279.497-.49.825-.612.147.136-.057.502-.033.822a3.83 3.83 0 00.288 1.153c.202.563.48.809.703 1.363a3.58 3.58 0 01.42 1.363 2.29 2.29 0 01-.21 1.154 2.007 2.007 0 01-.61.839 1.85 1.85 0 01-.796.419 1.15 1.15 0 01-.628-.108z"
         fill="#005eb7" stroke-width="1" id="prefix__path272" />
      <path class="prefix__C prefix__H"
         d="M412.66 249.25h82.176v82.02H412.66zm90.937 0h82.176v82.02h-82.176zM412.97 402.4a20.759 20.759 0 002.163 6.609c1.477 2.332.932 2.269 4.276 6a23.916 23.916 0 006.227 4.494 26.952 26.952 0 006.841 2.496 50.939 50.939 0 0016.573 1.598 98.457 98.457 0 0010.25-1.062 108.8 108.8 0 0111.117-1.01c2.133-.09 4.15-.11 6.142 0 2.457.162 4.899.5 7.308 1.01a79.667 79.667 0 0110.962 3.188l.014-85.652-82.19-.023v58.542s.168 2.86.318 3.81zm172.5-.02a20.73 20.73 0 01-2.163 6.608c-1.477 2.333-.932 2.27-4.275 6a23.961 23.961 0 01-6.228 4.495 26.909 26.909 0 01-6.84 2.495 50.948 50.948 0 01-16.573 1.6 98.69 98.69 0 01-10.25-1.063 108.64 108.64 0 00-11.117-1.01c-2.133-.09-4.15-.11-6.142 0a51.468 51.468 0 00-7.309 1.01 82.417 82.417 0 00-11.033 3.188l.057-85.652 82.19-.023v58.541s-.168 2.86-.318 3.81z"
         stroke-width=".797" id="prefix__path274" />
   </g>
   <defs id="prefix__defs284">
      <path id="prefix__B"
         d="M524.62 346.91l-.594.281a8.45 8.45 0 01-.781.813 12.25 12.25 0 01-1.25.843c-.22.113-.421.261-.594.438-.252.32-.079.63-.25 1a3.68 3.68 0 01-.656.938c-.332.356-.687.69-1.063 1a4.973 4.973 0 01-1.093 1 1.77 1.77 0 01-.344.187c-.216.067-.35-.011-.563.062-.388.134-.51.563-.78.719.111.218.106.372.218.594.158.323.705 1.215.812 1.437.21.305.27.7.532.781a3.1 3.1 0 001.312.125 10.76 10.76 0 012.031.469c.613.254.863.575 1.47.844.406.201.836.348 1.28.437.326.087.664.119 1 .094.25-.024.377-.12.625-.156a.52.52 0 01.125 0l-.03.375c-.006 0 .004.028 0 .031v.062h.062l2.062.906c-.24.358-.33.796-.25 1.219.63 1.888 1.16 3.069 1.469 3.188.615.236.806.865 1.156 1.5-.123.132-.227.2-.344.312a8.998 8.998 0 00-1.656 1.813c-.745 1.188-1.248 1.203-.312 2.78.549.926.814 1.1 1.53 2.407a8.16 8.16 0 01.782 1.969 7.64 7.64 0 01.313 1.969l.968.375.657-.657.625-1.187.03-.906a.775.775 0 01-.25-.782c.07-.368.515-.29.72-.625.283-.461-.332-.734-.657-1.093-.605-.67-1.43-.833-1.625-1.844-.052-.273.078-.427.375-.719l1.97-1.812a1.46 1.46 0 00.968.125c.28-.053.53.125 1.406.375a2.21 2.21 0 001.219.03l.375-.093a3.5 3.5 0 01.125.687c.053 1.06-.155 2.995.156 3.5a3.29 3.29 0 01.281.563 1.69 1.69 0 01.22.656v1.875a15.2 15.2 0 01-.22 1.75 2.02 2.02 0 01-.437 1.062c-.283.364-.595.418-.969.688l-.093 1 1.125.469 1.28.312.688-.281a1.18 1.18 0 01.156-.625c.128-.247.232-.439.47-.531.362-.143.759.129.905-.094.16-.242.06-.338.032-.75-.046-.662-.184-.99-.282-1.657a11.8 11.8 0 01-.156-2.75 9.4 9.4 0 01.156-1.562c.172-.883.486-1.311.688-2.188a21.53 21.53 0 00.375-2.468c3.11.48 6.283.353 9.344-.375.169-.037.75-.25.75-.25a8.64 8.64 0 002.718 1.625c-.006.101-.015.845 0 .968.037.288-.04.482.125.72a.583.583 0 00.375.28.66.66 0 00.657-.156c.226-.201.184-.454.25-.75a3.94 3.94 0 000-.687c.289.049.582.069.875.062.292.012.585.002.875-.031l.03.468c.028.245-.075.435.032.657.082.215.273.37.5.406a.66.66 0 00.531-.094c.296-.185.264-.498.313-.844.015-.11.011-.692 0-.781l1.031-.375a5.12 5.12 0 01-.094.812 5.01 5.01 0 01-.25.938 7.2 7.2 0 01-.75 1.375c-.301.547-.646 1.07-1.03 1.562l-.563.657c-.256.337-.342.566-.594.906a4.67 4.67 0 01-.938 1.062c-.693.55-1.15.11-2.093.844l-.22 1.031 1.438.532 1.282.25.437-.25a1.01 1.01 0 01.219-.75c.191-.24.475-.388.781-.407.361-.059.747.034 1.031-.218.35-.311.349-.914.625-1.47a12.671 12.671 0 013-3.905c.613-.597 1.138-.758 1.657-1.438.246-.322.52-.469.53-.875.009-.283-.143-.415-.218-.687a9.62 9.62 0 01-.187-1c1.521.744.97.646 1.25 1.406.225.615-.033 1.04.062 1.687.111.756.466 1.114.531 1.875a7.42 7.42 0 01-.312 2.313 7.14 7.14 0 01-.469 2 3.84 3.84 0 01-1.156 1.562c-.211.175-.369.25-.594.407l-.125 1.03 1.125.376 1.625.437.375-.343c.164-.655-.055-1.617.406-1.688.406-.062.693 0 .782-.312a5.01 5.01 0 00.093-.625l.625-4.5.407-1.907c.06-.578.197-1.145.406-1.687.734-2.097-.208-2.375-1.063-3.656a2.992 2.992 0 01-.687-1.5c-.097-.817.164-1.495.125-2.75v-2.875c.115-.053.222-.121.344-.188a4.08 4.08 0 002.375-2.469 3.43 3.43 0 00.312-1.468c-.005-.332-.065-.652-.094-1.032a2.76 2.76 0 00-.312-.937 3.192 3.192 0 00-.563-.844 5.443 5.443 0 00-2.718-1.469 13.91 13.91 0 00-4.125-.562 26.85 26.85 0 00-4.282-.062c-2.006.114-3.128.519-5.125.75a43.35 43.35 0 01-4.906.406c-2.26.042-4.42-.46-5.781-.344-2.451.21-2.493.762-6.188 1.063l-3.843.187-2.157-.687a2.425 2.425 0 001.47-1.031c.271-.366.232-.679.562-1.063.266-.312.443-.622.78-.969a2.2 2.2 0 00-.937-.437 2.502 2.502 0 00-.937 0c-.425.031-.84.148-1.219.344a2.77 2.77 0 00-.844.593 19.624 19.624 0 00-2.187-1.218 9.178 9.178 0 00-3-.907v.002zm1.969 11.906h.062c-.012.01-.019.022-.03.031l-.032-.031z" />
      <path id="prefix__C"
         d="M568.77 359.52l-.763.244a6.792 6.792 0 01-2.6.496c-2.644.202-4.272-1.057-6.998-.847-1.404.108-2.025 1.19-3.46 1.548a9.237 9.237 0 01-1.701.282l.512-1.034c-.697.143-1.404.231-2.115.264a7.55 7.55 0 01-1.523-.13l1.018-.95a7.219 7.219 0 01-1.294-.336 3.923 3.923 0 01-1.06-.63l1.69-.353c1.556-.385 2.04-1.147 3.89-1.325 1.15-.111 3.032-.046 7.643.717 3.036.502 4.382.267 5.536-.258a2 2 0 001.103-1.788 2.14 2.14 0 00-.874-1.81 1.74 1.74 0 00-1.113-.363" />
      <path id="prefix__D"
         d="M524.8 350.61a1.84 1.84 0 00-1.34.291c-.48.296-.541.697-.888 1.142.445.1.699.361 1.142.254.306-.074.575-.253.761-.507a1.55 1.55 0 00.428-1.156l-.103-.024z" />
      <path id="prefix__E"
         d="M536.04 363.79l.407.8c.224.47.4.961.524 1.467.117.695.197 1.395.24 2.098l.077.376-.05 1.129m6.802-6.95l-.354 1.333-.944 3.46-.103.644m-10.859-3.977c.79.176.544 3.36 1.789 4.09" />
      <path id="prefix__F"
         d="M555.97 363.61a8.14 8.14 0 00.83-.068c1.467-.21 1.703.687 2.725 1.258 1.857 1.039 2.098 2.307 4.3 3.356l.32.155.848.429" />
      <path id="prefix__G"
         d="M517.7 354.53c.23.064.47.083.707.054.332-.031.484-.238.817-.249a.965.965 0 01.684.125.83.83 0 01.28.342c.101.133.145.3.124.466a.576.576 0 01-.614.42.55.55 0 01-.544-.272.47.47 0 01-.039-.389 1.167 1.167 0 01-1.415-.497z" />
   </defs>
</svg>