<?xml version="1.0" encoding="UTF-8"?>
<!DOCTYPE svg PUBLIC "-//W3C//DTD SVG 20010904//EN" "https://www.w3.org/Graphics/SVG/1.1/DTD/svg11-flat-20110816.dtd">
<svg width="1e3" height="700" version="1.1"
	xmlns="http://www.w3.org/2000/svg"
	xmlns:xlink="http://www.w3.org/1999/xlink">
	<style type="text/css"><![CDATA[.B{stroke-linecap:round}.C{fill:none}.D{stroke-width:.987}.E{stroke-width:.513}.F{fill:#fede00}.G{fill:#da281b}.H{stroke:#704029}.I{fill:#fede00}.J{fill:#c6aa76}.K{stroke-width:1.041}.L{stroke-width:1.037}.M{stroke-width:1.356}]]></style>
	<path d="M0,0h1000v700H0V0z" fill="#d60132"/>
	<path class="F" d="M0,0h680v700H0V0z"/>
	<path d="M0,0h320v700H0V0z" fill="#1007a0"/>
	<g transform="matrix(1.0008 0 0 .99848 -.51191 .51858)">
		<path class="J" d="m469.82 188.48c12.02 0 16.936 10.338 28.955 10.338 7.421 0 11.747-2.4299 18.214-6.0868 4.5124-2.5619 7.3911-3.9269 12.573-3.9269 5.3054 0 8.5581 1.608 11.272 6.1668 1.5331 2.5799 2.8068 7.6277 2.1325 10.525-0.94159 4.4598-2.3669 8.8037-4.2511 12.953-1.0403 2.4379-2.0228 3.8979-2.0228 6.5658 0 6.3958 8.6818 8.5937 14.585 8.6847 1.2867 0.02 12.108 0.19799 18.767-6.5598-3.6127-0.15999-7.6554-2.9649-7.6554-6.5878 0-4.0989 2.8726-6.8728 6.7676-8.0567 0.74011-0.21199 2.0009 0.44299 2.6702 0.09 0.95156-0.49498 0.50671-1.568 1.3525-2.2399 1.939-1.5549 3.1988-2.5249 5.6844-2.5249 1.3904-0.098 2.7679 0.31599 3.8751 1.165 0.68824 0.49498 0.94059 1.107 1.7854 1.107 1.7814 0 2.6632-1.13 4.4426-1.13 1.2528-0.052 2.4966 0.24099 3.5948 0.84797 1.0573 0.54798 1.0344 2.3489 2.2323 2.3489 0.59947 0 3.7693-1.296 5.4261-1.296 3.4372 0 5.2715 1.248 7.4928 3.8629 0.59846 0.70697 0.98248 2.1369 1.5919 2.1369a9.6952 9.7197 0 0 1 5.8171 2.5589c0.64735 0.60097 1.2109 1.287 1.6757 2.0379 0.40496 0.65397 1.0274 2.2499 1.7435 2.5259 0.92463 0.19299 1.8173 0.51998 2.6482 0.97097 2.6313 1.6469 4.2691 4.5018 4.3658 7.6107a15.839 15.879 0 0 1-0.74808 3.3099c-2.9345 10.284-9.9146 13.548-16.966 22.381-2.9963 3.7629-5.3613 6.7668-5.3613 11.59 0 1.167 1.4323 3.3029 2.0677 4.2749-0.388-2.2669 0.64535-5.0508 3.0352-5.1798a6.0744 6.0898 0 0 1 6.243 5.5678c0.0269 0.97597-0.14962 1.9459-0.51768 2.8499 1.8772-1.189 3.9958-1.9409 6.2011-2.2019 0.98548-0.11999 1.9789-0.16299 2.9714-0.12999 5.2316 0.12999 11.006 3.0799 14.51 6.0638 10.722 9.1297 12.018 22.491 11.433 26.202-1.3016 8.2457-0.48275 23.167-21.505 29.116 3.887 1.6409 6.5332 4.5728 6.5332 8.1777a7.0918 7.1098 0 0 1-6.9093 7.2798c-2.0108 0.123-3.9728-0.65297-5.3583-2.1199-4.3708 4.3808-5.2166 8.8517-5.2166 15.053-0.0329 3.2269 0.7431 6.4098 2.2552 9.2577 1.6398 3.5519 2.8198 5.6368 5.7812 8.1997 1.569-2.3689 3.2257-4.0999 6.0625-4.0999 2.75 0 5.077 0.88297 6.2041 3.3919 0.33514 0.75997 0.0349 1.379 0.42291 2.1199 0.49374 0.95496 1.3226 1.167 1.8333 2.1209 0.79296 1.467 0.018 2.7209 0.7052 4.2399 0.43986 0.98997 1.4094 1.132 1.8323 2.1209 0.61543 1.325 0.90568 2.7789 0.84683 4.2398 0 4.7008-4.2661 8.0577-8.954 8.0577-1.4094 0-2.1844-0.56498-3.5948-0.42399 2.6791 2.6859 4.7229 3.8519 6.7677 7.0678 2.9604 4.6468 3.7005 7.9507 4.3708 13.429 0.10972 0.89097 0.1566 1.7879 0.14164 2.6859 0 7.0318-1.0932 11.238-4.2302 17.527-2.9963 6.0248-5.5518 9.3647-10.998 13.287-8.4952 6.1308-14.682 7.8987-24.956 9.8947-5.6236 1.177-11.326 1.9329-17.061 2.2619l-21.996 1.13c-11.209 0.75997-18.981 2.3499-26.931 10.32 3.7554 2.7559 6.3457 5.4598 6.3457 10.107 0 4.7698-2.9434 8.1797-7.4728 9.6827-1.0573 0.35299-1.8333 0.035-2.8198 0.56498-1.181 0.61798-1.1281 1.9789-2.2562 2.6859-1.7535 1.147-3.8322 1.6929-5.9218 1.5549-4.1942 0-7.0499-0.98996-10.011-3.9589-3.4362 2.8629-4.6002 5.4428-8.4593 7.6337-1.2698 0.70697-1.9221 1.6959-3.3843 1.6959-2.3091 0-3.3664-1.466-5.2166-2.8269a35.788 35.879 0 0 1-6.9093-6.3598c-3.507 2.1019-5.6575 3.8159-9.7291 3.8159-2.1964 0.124-4.3738-0.47198-6.2041-1.6969-1.1102-0.68898-1.2867-1.7139-2.3968-2.4029-1.163-0.72397-2.1325-0.45898-3.3833-0.98996-4.7059-2.0309-7.7551-5.5298-7.7551-10.671 0-4.5058 2.8377-7.3688 6.9093-9.2597-7.808-7.8267-15.492-9.1867-26.508-9.8937l-21.855-1.131a153.85 154.23 0 0 1-17.202-2.2619c-5.059-0.82997-8.0544-1.095-12.689-3.2509-15.95-7.4567-26.12-17.686-28.2-35.197-0.13565-1.291-0.18253-2.5899-0.14164-3.8869 0-9.1177 3.5778-14.682 10.01-21.132-1.6558-0.38999-2.7669 0.15899-4.3708-0.42399-4.0187-1.467-6.9083-4.2588-6.9083-8.5527-0.11669-1.397 0.17755-2.7969 0.84583-4.0279 0.54661-0.97197 1.5859-1.167 1.8323-2.2619 0.31719-1.449-0.10572-2.4739 0.56455-3.8169 0.44088-0.89997 1.2688-1.078 1.6917-1.9789 1.3924-2.8969 3.138-5.2298 6.3448-5.2298 2.75 0 4.5124 1.449 5.9218 3.8169 2.6791-1.237 3.4192-3.2519 4.9354-5.7958 2.5205-4.2228 3.6656-7.1738 3.6656-12.086a23.809 23.869 0 0 0-1.4094-8.6927c-0.77601-2.3329-1.0932-3.9229-2.8198-5.6538-1.3855 1.467-3.3474 2.2429-5.3583 2.1199-4.4765-0.11999-8.0105-3.8519-7.8958-8.3397-0.10574-3.1429 1.7505-6.0188 4.6531-7.2098-2.4148-2.0839-4.5124-2.2609-7.1916-3.9569-4.0706-2.5799-5.4979-5.3008-8.177-9.3297-1.7455-2.6329-2.2044-4.4698-3.102-7.4918a29.285 29.359 0 0 1-1.6927-9.6117 17.475 17.519 0 0 1 0.14064-2.5449c1.0054-7.6677 2.3799-12.475 7.1916-18.517 2.8547-3.5869 4.7937-5.7948 9.0239-7.6327 3.5948-1.555 5.7453-2.6859 9.6582-2.6859a21.615 21.669 0 0 1 3.0322 0.142c1.5789 0.086 3.119 0.51998 4.5114 1.272 0.59847 0.33599 1.6917 1.343 1.6917 0.63598 0-0.81297-0.42291-1.237-0.42291-2.0499 0-3.2499 2.326-6.2198 5.5697-6.2198 2.344 0 3.2955 2.0679 4.4416 4.0999 0.73311-1.032 1.1271-2.2669 1.1271-3.5339 0-5.3718-2.8726-8.1097-6.2041-12.298-7.2614-9.0997-16.355-13.358-16.355-25.019 0-3.4799 1.6737-5.8488 4.6531-7.6327 0.86279-0.51298 2.0248 0 2.8696-0.54298 0.72315-0.45999 0.64036-1.395 1.0982-2.1369 0.64236-0.96796 1.4433-1.8219 2.3669-2.5249 1.6568-1.449 3.112-1.015 4.9443-2.2869 0.91666-0.63598 1.1331-1.463 1.8383-2.3099 2.0448-2.4739 3.8801-3.6689 7.1048-3.6689 1.3715-0.101 2.748 0.106 4.0297 0.60698 0.51069 0.19499 1.4662 0.96697 1.5899 0.81797a7.3312 7.3497 0 0 1 2.2373-1.8129 6.3537 6.3698 0 0 1 3.4232-0.90697c1.7276 0 2.8587 0.97097 4.5862 0.97097 0.63438 0 0.781-0.63498 1.2917-0.97097 1.5331-1.042 2.4158-1.6319 4.284-1.6319 1.568 0.034 3.0821 0.58398 4.307 1.567 1.4263 0.90197 1.6328 2.1079 3.0951 2.9569 0.81092 0.47698 1.4982 0.26499 2.3979 0.56498 4.0177 1.343 7.0499 4.0289 7.0499 8.2697 0.16059 2.0719-0.67826 4.0949-2.2562 5.4418-1.3575 1.201-2.6432 0.98996-4.3708 1.555 5.6046 4.4878 10.481 5.6008 17.637 5.6008 6.5562 0 14.575-2.6869 14.575-9.2597 0-3.0569-1.6857-4.6998-2.8846-7.5087-2.1505-4.9998-3.3165-7.9417-3.3165-13.384 0-4.3108 0.4688-6.9268 2.9714-10.426 2.5734-3.6039 5.7164-4.4448 10.141-4.4448z" stroke-width=".9987"/>
		<g class="C H" transform="matrix(.99997 0 0 .99997 .011949 .0064262)">
			<path class="K" d="m425.59 223.46c0.532 1.843 1.976 3.281 3.82 3.807 2.249 0.508 4.589-0.343 5.986-2.177a6.92 6.92 0 0 0 0.833-6.297 7.32 7.32 0 0 0-2.698-3.468l-7.938 8.057-2e-3 0.079z" stroke-linejoin="round"/>
			<path class="B L" d="m626.61 343.94c-1.866-4.51-6.686-2.488-6.983 0-0.683 5.732 4.34 7.464 7.916 6.53a6.22 6.22 0 0 0 3.896-3.03 7.55 7.55 0 0 0 0.61-5.824 8.38 8.38 0 0 0-3.325-4.471c-1.375-0.878-2.874-0.965-5.224-0.965-8.708 0-16.327 10.289-18.886 20.977-1.425 6.178-1.56 12.583-0.396 18.815 1.297 6.621 4.477 12.727 9.16 17.585a39.21 39.21 0 0 0 8.99 6.435 38.76 38.76 0 0 0 6.496 2.683 12.41 12.41 0 0 0 6.159 0.142c5.16-1.12 7.559-5.92 4.96-10.83-2.129-4.02-8.397-6.219-11.352-1.088a5.1 5.1 0 0 0-0.628 2.411 4.65 4.65 0 0 0 1.561 3.64c2.246 1.428 5.838 1.024 5.672-2.941"/>
			<path d="m599.69 403.07a17.66 17.66 0 0 1 10.343-5.703c4.654-0.572 8.699 0.783 12.828 3.004 8.06 4.335 12.554 8.995 15.549 17.641a26.91 26.91 0 0 1 1.304 9.022c-0.14 5.604-1.563 11.73-3.092 14.692-1.334 2.583-4.82 13.994-23.946 21.868-11.161 4.594-28.3 5.653-40.118 6.12-16.256 0.642-31.254 1.244-39.962 11.973" stroke-width="1.276"/>
			<g stroke-width="1.121">
				<path d="m603.75 421.45c-0.466-1.71-0.035-3.35 1.322-5.209 1.814-2.486 5.675-3.343 9.174-1.4a11.61 11.61 0 0 1 3.965 3.266l1.788 2.488a19.33 19.33 0 0 1 1.703 3.887c3.846 10.928-2.265 22.771-10.255 27.522-6.206 3.69-13.608 5.336-22.469 6.375-3.982 0.468-6.256 0.437-10.263 0.623-3.223 0.149-6.008 0.096-8.63 0.064l-6.297-0.064a110.46 110.46 0 0 0-11.274 0.155c-4.55 0.331-7.972 0.448-11.818 1.089-2.511 0.418-5.455 0.822-8.542 1.515-0.926 0.207-1.865 0.377-2.809 0.661l-1.881 0.575c-5.354 1.484-10.485 3.677-15.257 6.521a27.29 27.29 0 0 0-3.877 2.708c-0.665 0.627-1.472 1.256-2.124 1.898-2.99 2.941-6.047 6.126-6.762 10.438-0.112 0.831-0.156 1.669-0.132 2.507 0 2.798 2.278 6.608 8.42 7.852m8.638-265.81c1.285 2.324 1.992 3.738 1.244 6.142-0.847 2.723-2.778 4.354-5.52 4.354-6.22 0-9.878-7.364-7.075-12.051 4.976-8.319 14.539-3.647 23.402 0.474-0.428-2.134-1.174-2.828-1.096-5.471 0.193-6.565 5.061-9.542 7.005-15.605 1.157-3.613 1.618-6.75-1.025-9.316-2.308-2.24-4.982-2.205-7.994-1.025-6.018 2.359-13.246 9.138-25.97 9.326-12.724-0.188-20.012-6.967-26.03-9.326-3.012-1.18-5.686-1.214-7.994 1.025-2.643 2.566-2.183 5.703-1.025 9.316 1.944 6.064 6.812 9.04 7.005 15.605 0.077 2.643-0.669 3.337-1.096 5.47 8.863-4.12 18.798-9.211 23.402-0.473 2.565 4.869-0.855 12.05-7.075 12.05-2.742 0-4.667-1.747-5.52-4.353a6.71 6.71 0 0 1 1.244-6.142"/>
				<path class="B" d="m491.5 224.79c2.403 1.838 4.1 4.1 3.817 7.775-0.307 3.986-1.273 4.947-4.382 7.068m3.745-5.933c0.033 2.245-1.399 4.251-3.534 4.947"/>
			</g>
		</g>
		<path class="J" d="m432.4 214.49 1.088 0.77698 1.166 1.245 0.77797 1.555 0.38899 1.321 0.078 1.7099-0.078 1.167-0.38899 1.322-0.77797 0.93197-0.93297 1.011-1.321 0.69997-1.71 0.38899-1.4779 0.23299-1.555-0.69997-1.399-1.01-0.85497-1.245-0.62198-1.5549v-0.62098l7.6197-7.2308z" stroke-width=".99997"/>
		<g class="C H" transform="matrix(.99997 0 0 .99997 .011949 .0064262)">
			<path class="B K" d="m430.01 220.57c-0.478-2.581-3.496-3.11-4.665-1.586-1.8 2.348-0.485 6.257 3.176 7.401a5.89 5.89 0 0 0 5.987-2.177 6.78 6.78 0 0 0-1.587-9.451l-0.279-0.189c-4.252-3.233-11.118-2.488-13.373 2.954-2.909 7.02 3.42 12.284 9.252 16.25 7.34 4.991 15.705 5.899 22.003 5.83 14.306-0.155 25.19-6.997 32.265-10.884 1.648-0.905 3.345-0.72 4.198 0.311 1.03 1.301 0.859 3.182-0.389 4.276"/>
			<path d="m387.6 414.35-3.188 1.166-3.265 2.488-1.4 1.944-1.788 3.11-0.777 2.332-0.622 2.877-0.311 2.177m29.701-15.784-0.233 2.8-0.467 1.943-1.4 3.343-2.176 2.877-2.333 1.865-1.71 0.856-2.41 0.544" stroke-width="1.057"/>
			<path d="m499.6 489.23c-0.58 2.588-3.004 5.548-8.279 6.617l-1.025 0.212" stroke-width="1.197"/>
			<path class="M" d="m631.59 406.57c3.482 3.337 6.058 7.503 7.488 12.109a26.88 26.88 0 0 1 1.303 9.021c-0.14 5.604-1.562 11.73-3.091 14.692-1.334 2.584-4.82 13.994-23.946 21.868-11.161 4.595-28.3 5.654-40.118 6.12-16.022 0.633-30.822 1.227-39.582 11.517"/>
			<path d="m605.45 416.95c1.188-1.621 5.517-3.673 9.016-1.73a9.68 9.68 0 0 1 3.714 3.243" stroke-width=".929"/>
			<path class="M" d="m627.51 402.79 2.244 0.767c1.997 0.635 4.134 0.685 6.158 0.142 4.423-1.327 7.261-5.459 4.96-10.83-0.618-1.317-1.551-2.462-2.717-3.333"/>
			<path class="B K" d="m375.44 287.13c-2.969 1.838-5.182 2.273-7.492 4.947-1.824 3.357-3.202 6.937-4.1 10.65m72.032-80.767c0 2.686-1.98 4.382-4.665 4.947"/>
			<path d="m620.49 275.03c7.39-0.15 28.859 5.64 29.012 30.876 0.15 24.925-15.383 28.997-21.607 30.656" stroke-width=".997"/>
			<path class="L" d="m622.43 275.03c12.743-0.554 25.892 8.826 26.472 32.236 0.452 18.289-12.517 26.584-18.742 28.243"/>
			<path d="m615.33 363.16 0.196-2.502 0.834-3.974 1.178-3.091 1.324-2.551 1.717-2.06m12.161-5.312-0.195 2.449-0.7 1.672-1.088 1.594-1.244 0.933-1.904 0.7-1.672 0.116-1.244-0.195m-22.363-82.519 0.544-2.643 1.166-2.45 1.517-2.449 2.604-3.343 2.06-2.293 3.343-3.382 2.877-2.916 1.827-2.099 2.41-2.915 2.138-3.227 1.283-2.643 0.7-3.421 0.212-4.242-0.388-1.23m-19.183 200.27 2.527-0.505 1.905-1.011 1.05-1.05 0.738-1.205 0.505-1.943 0.04-1.361m-247.26-18.985 1.866 0.155 2.41-0.194 2.41-0.855m7.814-57.106-0.31 2.177-0.506 0.972-0.739 0.933-1.01 0.777-1.128 0.505-1.477 0.234-1.011 0.078m15.471-24.406-0.544 3.382-0.661 1.477-1.36 1.866-1.828 1.4-1.866 0.932-3.615 0.894m23.904-62.121-0.7 2.021-0.855 1.478-1.166 1.632-1.633 1.477-1.943 0.934-1.633 0.388-1.01-0.078m0.59-9.682 0.04 1.555" stroke-width=".881"/>
			<g class="D">
				<path class="B" d="m397.32 325.09a10.71 10.71 0 0 1-3.265 2.029m235.18 70.041c0.134 0.145 0.581 0.217 0.739 0.31 2.215 1.323 6.577-0.325 5.294-3.746"/>
				<path d="m621.54 349.38c1.573 2.055 4.538 2.588 6.883 1.976a6.22 6.22 0 0 0 3.895-3.03 7.54 7.54 0 0 0 0.61-5.825c-0.273-0.937-0.723-1.812-1.325-2.58a10.59 10.59 0 0 0-2.132-2.23c-0.17-0.111-0.339-0.262-0.518-0.383m10.037 53.152a6.23 6.23 0 0 0-1.906-5.711c-0.401-0.466-0.858-0.88-1.36-1.233m0.746 0.734c-0.073-2.912-2.456-4.995-5.41-5.513m-6.52 4.433a20.74 20.74 0 0 1-2.042-1.69 24.55 24.55 0 0 1-6.742-16.677c-0.037-6.473 2.566-13.062 5.598-15.627m-88.284 132.26 2.799-2.566 1.944-1.477 3.654-2.255 3.42-1.632 2.41-0.622 4.821-1.089 5.598-0.855m-46.106 30.256c-2.022 3.11-6.842 7.775-11.896 9.64-5.054-1.865-9.874-6.53-11.895-9.64"/>
				<path class="B" d="m491.28 494.73c-0.623 2.397-1.812 4.609-3.468 6.451"/>
				<path d="m491.78 491.47-0.7 3.42m-3.65 6.53-1.477 1.477-2.644 1.477-3.032 0.934m-8.817-277.86a9.8 9.8 0 0 0 0.71-4.014c-0.193-6.565-5.06-9.542-7.005-15.606-1.157-3.612-1.618-6.75 1.026-9.316 2.307-2.24 4.981-2.205 7.993-1.025 6.018 2.36 13.308 9.138 26.032 9.326-12.724-0.188-20.015-6.967-26.032-9.326-3.012-1.18-5.935-1.525-8.242 0.714-2.644 2.566-1.934 6.015-0.777 9.627 1.944 6.064 6.563 9.041 6.756 15.606a9.61 9.61 0 0 1-0.834 4.014m29.093-21.08c12.517-0.661 23.245-9.071 26.706-9.757 3.086-0.612 4.809-0.336 7.072 1.721-2.264-2.057-4.842-1.993-7.77-0.845-6.018 2.359-13.246 9.138-25.97 9.326m124.37 176.38c-6.073-4.553-9.669-11.684-9.718-19.274-0.036-6.474 2.565-13.061 5.597-15.627m-109.3 152.46c-2.021 3.11-6.842 7.775-11.895 9.64-5.054-1.865-9.874-6.53-11.895-9.64"/>
				<path class="B" d="m479.17 230.74 3.624-2.018c1.649-0.906 3.63-0.716 4.483 0.316a3.27 3.27 0 0 1-0.226 4.416"/>
				<path d="m460.48 239.49c8.588-1.792 15.585-5.638 20.875-8.597m50.425 256.54a4.15 4.15 0 0 1 1.166 1.493 6.91 6.91 0 0 1 0.521 1.326c0.407 1.806-0.727 3.601-2.533 4.008a3.35 3.35 0 0 1-0.55 0.077 5.26 5.26 0 0 1-5.482-3.17m-64.862-252.11c8.588-1.792 15.585-5.638 20.875-8.597m152.46 167.04c-1.633 0.63-2.526 0.544-4.557-0.358-0.834-0.37-1.788-0.943-2.907-1.578-3.98-2.261-8.708-5.824-13.139-14.143-1.185-2.207-2.083-4.557-2.672-6.992a25.88 25.88 0 0 1-0.78-5.212 40.11 40.11 0 0 1 0.964-9.72 31.62 31.62 0 0 1 6.376-14.15c1.795-2.463 3.343-3.966 6.686-4.043m-224.52-61.414a11.11 11.11 0 0 1 4.12 8.94c0 4.842-4.05 12.75-14.001 15.55-3.316 0.936-6.868 0.511-9.87-1.18m21.381-6.91a5.39 5.39 0 0 1 2.488 5.07c0 1.664-1.076 3.822-2.907 5.866a19.31 19.31 0 0 1-13.716 6.26c-3.35 0.098-6.646-0.858-9.422-2.735a14.16 14.16 0 0 1-5.987-8.397"/>
				<path d="m400.3 306.71c2.026 1.862 2.648 4.193 2.648 7.129 0 4.29-1.742 7.6-5.75 11.107a19.69 19.69 0 0 1-3.032 2.178m202.23-34.494v5.519m-0.44-6.879v7.774m0.44-24.604v10.185m-0.44-12.435v13.918m-2.97 128.06c-1.596 3.341-3.812 6.349-6.53 8.863a30.66 30.66 0 0 1-9.097 6.375 38.43 38.43 0 0 1-10.263 3.421c-3.522 0.809-7.117 1.252-10.73 1.322-3.305 0.137-6.615 0.052-9.909-0.255-4.127-0.285-6.417-0.86-10.538-1.222a83.08 83.08 0 0 0-8.743-0.566c-3.008-0.088-6.018 0.128-8.983 0.643-2.777 0.419-5.493 1.176-8.086 2.255-4.198 1.7-8.941 4.665-9.952 5.987-1.01-1.322-5.754-4.286-9.952-5.987a34.42 34.42 0 0 0-8.085-2.255 44.79 44.79 0 0 0-8.984-0.643 82.8 82.8 0 0 0-8.743 0.566c-4.121 0.362-6.41 0.937-10.538 1.222a74.2 74.2 0 0 1-9.91 0.255c-3.612-0.068-7.207-0.511-10.728-1.322-3.564-0.653-7.019-1.805-10.263-3.42a30.57 30.57 0 0 1-9.097-6.376l-0.948-0.953m65.889 83.39 2.799-0.35m47.301-3.68 2.825-0.269 2.69-1.076 1.884-1.144 2.556-3.027 0.538-1.144 0.404-2.623 0.134-1.21m73.299-213.59c1.213-4.128-0.268-8.483-4.266-8.366m-206.17 72.756c-0.902 3.045-2.906 5.645-5.62 7.293m5.69-72.993c-0.907 2.82-2.997 5.105-5.724 6.26-2.886 1.304-6.227 0.086-8.014-1.292"/>
				<path class="B" d="m380.95 291.2c2.392 1.253 4.82-0.584 4.322-3.696a4.45 4.45 0 0 0-3.933-3.433"/>
				<path d="m390.87 422.86c0.516 0.485 0.626 1.115 1.322 1.244 1.05 0.194 1.866 0.583 2.915-0.816 1.294-1.725 0.599-4.409-0.747-6.098a7.72 7.72 0 0 0-9.112-1.461c-1.549 0.779-2.904 1.894-3.965 3.265l-1.788 2.488c-0.709 1.229-1.28 2.533-1.704 3.887-3.2 9.098 0.6 18.664 6.489 24.493"/>
				<path class="B" d="m531.59 487.23a9.19 9.19 0 0 1 1.01 1.244 6.18 6.18 0 0 1 0.428 1.327c0.407 1.806-0.728 3.6-2.534 4.007-0.181 0.041-0.364 0.066-0.549 0.077a4.97 4.97 0 0 1-5.267-3.156"/>
				<path d="m608.5 216.81c5.473 0.849 9.575 5.458 9.784 10.992 0 6.92-2.331 9.496-5.974 14.446-3.899 5.297-16.638 15.005-16.638 26.045 0 6.686 1.866 10.962 6.686 13.139 3.108 1.404 6.742-0.116 8.397-1.61 4.042-3.655 2.426-10.063-1.788-10.829-5.132-0.933-6.096 7.145-1.089 6.609m27.852 107.91a5.72 5.72 0 0 0-11.377 0.99c-5e-3 1.518 0.573 2.981 1.615 4.085m-26.178-108.7a11.11 11.11 0 0 0-4.12 8.94c0 4.842 4.05 12.75 14.001 15.55 3.814 1.072 7.458 0.971 9.74-0.417m-243.8-16.153a14.64 14.64 0 0 0-7.55 5.395c-1.856 2.63-2.938 6.286-3.608 9.485a31.01 31.01 0 0 0 0.252 10.41 24.6 24.6 0 0 0 3.602 8.806 12.38 12.38 0 0 0 1.62 1.932 17.35 17.35 0 0 0 1.774 1.373m100.02 143.82c7.576 3.359 13.13 5.875 17.839 13.31 1.267 2.337 1.909 4.962 1.866 7.62 0.04 4.526-1.856 8.854-5.21 11.894-2.834 2.543-6.645 3.709-10.417 3.188-3.007-0.295-5.831-2.488-6.298-4.043m-72.62-175.79c4.276 3.343 6.064 6.586 6.064 11.74 0.193 4.727-2.187 9.189-6.22 11.662"/>
				<path class="B" d="m392.99 344.41c6.375 7.93 9.758 12.637 9.952 22.08 0.181 8.863-2.644 14.927-7.93 21.303"/>
				<path d="m515.23 239.57a6.42 6.42 0 0 0 2.497-3.485c0.753-2.325 0.77-4.308-0.474-6.096 1.534 2.009 1.675 3.705 1.243 6.142-0.274 1.552-1.264 2.369-2.497 3.485m80.401 134.62v25.241h0.067c-5e-3 1.298-0.076 2.596-0.212 3.887l-0.429 2.703"/>
				<path d="m595.96 371.81v27.223h0.067a38 38 0 0 1-0.212 3.887l-0.729 4.125m0.874-67.105v22.702m0.44-20.912v18.463m0-41.943v13.841m-0.44-15.471v17.064m0.44-29.584v5.37m-0.44-6.46v7.776m-2.88 101.86-0.53 1.084c-1.596 3.341-3.812 6.349-6.53 8.863a30.67 30.67 0 0 1-9.097 6.376 38.43 38.43 0 0 1-10.263 3.42 52.32 52.32 0 0 1-10.73 1.322c-3.305 0.135-6.615 0.05-9.908-0.255-4.128-0.285-6.417-0.86-10.538-1.222-2.902-0.342-5.821-0.531-8.743-0.566-3.009-0.088-6.019 0.128-8.984 0.644a34.39 34.39 0 0 0-8.086 2.254c-4.197 1.7-8.94 4.665-9.951 5.987-1.011-1.322-5.754-4.286-9.952-5.987a34.36 34.36 0 0 0-8.086-2.254 44.7 44.7 0 0 0-8.983-0.644 82.69 82.69 0 0 0-8.743 0.566c-4.122 0.362-6.41 0.937-10.538 1.222a74.2 74.2 0 0 1-9.91 0.255 52.24 52.24 0 0 1-10.729-1.321c-3.564-0.654-7.019-1.806-10.263-3.421-3.396-1.552-6.479-3.713-9.096-6.376a34.17 34.17 0 0 1-3.858-4.355m-3.142-4.982a15.78 15.78 0 0 1-3.523 12.034c-1.321 1.4-4.2 4.074-7.775 4.12-5.908 0.078-7.672-3.986-8.03-4.975m12.308-13.739a16.05 16.05 0 0 1 2.893 3.965c1.477 2.799 1.022 7.48-0.148 9.64a6.86 6.86 0 0 1-0.475 0.749m-31.63 28.146c3.514 3.687 8.828 7.692 16.99 11.052 11.161 4.595 28.3 5.654 40.118 6.12 15.715 0.62 30.193 1.266 39.01 10.998m27.132-6.36c2.598 2.556 5.247 5.295 6.366 8.798m-11.476 17.892a13.7 13.7 0 0 1-11.501 4.217c-2.695-0.341-5.122-1.803-6.685-4.025m-8.364-4.542a9.78 9.78 0 0 0 0.457 0.577 11.88 11.88 0 0 0 7.978 3.833m41.985-0.12c-2.022 3.11-6.842 7.774-11.895 9.64-5.054-1.866-9.874-6.53-11.896-9.64l-0.472-0.727m24.343 0.707a12.76 12.76 0 0 0 1.156 1.109 12.95 12.95 0 0 0 10.418 3.187c2.632-0.289 4.981-1.783 6.36-4.043 0.303-0.329 0.539-0.715 0.692-1.136"/>
				<path d="m529.75 500.99-1.16 1.867-1.766 1.463-2.674 1.11-2.421 0.1"/>
				<path d="m536.03 483.22a12.03 12.03 0 0 1 3.599 4.534 10.78 10.78 0 0 1 0.787 3.698 9.15 9.15 0 0 1-2.222 6.474c-2.161 2.391-5.209 3.788-8.43 3.866h-0.734m0.29-0.442a10.67 10.67 0 0 1-8.092-3.375m99.492-106.04a37.11 37.11 0 0 1-7.507-10.077 29.38 29.38 0 0 1-2.672-6.992 25.85 25.85 0 0 1-0.78-5.211 40.13 40.13 0 0 1 0.964-9.722 32.63 32.63 0 0 1 6.376-14.15 17.19 17.19 0 0 1 3.25-3.488m-2.151-118.46c3.965 0.31 7.639 4.58 7.59 8.764-0.07 6.078-2.108 8.59-6.89 14.545-4.12 5.131-16.482 14.15-16.171 22.78a8.51 8.51 0 0 0 1.802 4.39m-4.941 5.411c0.931 0.905 2.018 1.635 3.207 2.156 2.174 0.849 4.612 0.687 6.654-0.443m-33.081-67.533c1.503 0.999 2.688 2.409 3.415 4.061 2.908 7.02-3.42 12.284-9.252 16.25a33.35 33.35 0 0 1-12.968 5.128m12.125-11.909a6.53 6.53 0 0 1-4.92-2.34c-0.461-0.445-0.835-0.971-1.106-1.552m-23.214 7.662a7.23 7.23 0 0 1-2.063-1.504c-1.731-1.839-2.218-4.524-1.242-6.853 0.987-2.963 5.746-11.274 5.98-17.027 0.356-8.79-3.025-13.977-8.313-16"/>
				<path class="B" d="m542.68 203.85-0.206 3.305-0.895 3.374-1.722 4.613-1.308 2.96-1.377 2.961-0.688 2.066-0.276 1.515 0.207 1.446m59.395 197.31a4.77 4.77 0 0 0 0.933 1.306c1.01 1.687 4.94 4.655 8.514 4.701 5.91 0.078 7.312-4.057 7.464-4.975 0.746-4.509-0.796-5.743-3.11-7.013-0.934-0.434-1.975-0.585-2.994-0.433"/>
				<path d="m370.23 403.67c-1.88 0.535-3.871 0.546-5.757 0.033-4.423-1.326-8.007-5.564-6.18-10.829m20.917-49.724a2.8 2.8 0 0 1 0.653 1.67c0.683 5.732-4.34 7.402-7.916 6.469a8.8 8.8 0 0 1-4.71-3.56c-0.625-1.097-0.956-2.337-0.963-3.6m34.466-36.979c0.843 0.762 1.503 1.704 1.931 2.757m-1.771-13.307a5.98 5.98 0 0 1 1.825 2.042"/>
				<path class="B" d="m402.91 303.94a13.23 13.23 0 0 1-2.43 3.718c-3.535 3.859-8.485 6.118-13.716 6.26a15.99 15.99 0 0 1-9.422-2.736c-3.141-2.005-5.416-5.115-6.377-8.715"/>
				<path d="m399.11 280.13a12.11 12.11 0 0 1 3.698 5.295"/>
				<path class="B" d="m402.86 292.56a18.42 18.42 0 0 1-13.473 12.248c-3.804 0.964-8.702-0.241-10.374-1.664"/>
				<path d="m375.06 291.49c0.417 4.12 3.174 7.209 8.401 7.308 7.35 0.138 11.818-10.574 5.287-18.094"/>
				<path class="B" d="m358.52 327.39a25.41 25.41 0 0 0 3.63 3.636c2.707 2.331 5.863 4.085 9.272 5.153m8.248 0.771c6.569-0.789 10.272-5.684 9.538-11.41-0.56-4.363-4.563-7.718-7.285-7.912"/>
				<path d="m390.39 268.92c2.465 8e-3 4.457 2.013 4.449 4.478l-5e-3 0.187"/>
				<path class="B" d="m389.72 229.81a17.95 17.95 0 0 0 7.86 9.099m225.28 48.381c2.686 3.679 0.927 10.932-6.379 11.07-2.841-1e-3 -5.474-1.49-6.939-3.924"/>
				<path d="m596.4 239.25v24.686"/>
				<path class="B" d="m380.87 291.14c2.255 1.632 5.15-1.124 4.03-4.05-0.757-1.975-3.563-4.106-7.45-1.463-4.294 2.92-3.11 12.13 5.13 12.284 7.35 0.139 11.819-10.574 5.287-18.093-6.282-7.234-17.727-5.542-25.19 0.396a33.43 33.43 0 0 0-11.04 18.164c-0.611 2.599-0.918 5.26-0.912 7.93a35.44 35.44 0 0 0 5.562 18.276 18.21 18.21 0 0 0 2.037 2.56 39.13 39.13 0 0 0 2.954 3.032c4.223 3.515 9.665 6.27 16.327 5.987 7.308-0.311 11.507-5.442 10.729-11.507-0.754-5.88-6.69-8.805-10.574-6.064-2.644 1.866-3.584 7.644 1.088 9.018 2.644 0.778 4.976-2.565 3.11-4.509m202.44-112.42c4.218-2.29 7.47-1.867 9.874 1.47 2.229 3.308 3.092 7.35 2.41 11.28-0.855 4.199-2.068 5.942-5.407 8.988m3.303-19.868c4.82-3.187 10.041-1.834 12.906 2.41 2.1 3.11 2.636 5.712 2.488 9.563-0.318 6.01-3.692 11.438-8.941 14.383"/>
				<path d="m617.28 223.67c4.106 0.461 7.196 3.955 7.153 8.086 0 5.986-1.671 8.583-6.454 14.539-4.12 5.131-16.482 14.15-16.17 22.78 0.117 3.263 2.868 6.338 5.241 6.51"/>
				<path class="B" d="m617.75 291.14c-2.255 1.632-5.131-1.004-3.887-3.803 0.859-1.932 3.42-4.353 7.308-1.71 4.293 2.92 3.11 12.13-5.131 12.284-7.35 0.139-12.317-10.297-5.287-18.093 6.416-7.116 18.315-5.723 25.778 0.214 3.176 2.527 9.566 9.466 10.936 18.573 1.658 11.02 1.445 24.575-9.937 32.922a26.91 26.91 0 0 1-16.516 4.637c-7.308-0.32-11.506-5.443-10.729-11.507 0.754-5.88 6.416-8.368 10.574-6.065 4.32 2.393 3.565 8.466-1.088 9.019-2.736 0.325-4.976-2.566-3.11-4.51"/>
				<path d="m613.86 287.34c1.212-5.454 5.885-5.962 9.658-5.907 10.296 0.151 17.416 12.364 17.535 24.178 0.15 14.923-6.334 23.711-17.241 24.178-2.823 0.121-7.684-1.221-7.768-4.665"/>
				<path d="m620.2 284.9c10.858 2.413 14.67 12.196 14.67 21.532 0 7.616-0.754 18.022-15.575 21.682" stroke-linecap="square"/>
				<path d="m638.11 389.58c0.621-3.313-1.562-6.502-4.875-7.123s-6.502 1.562-7.123 4.875c-0.417 2.227 0.433 4.501 2.209 5.908"/>
				<g class="B">
					<path d="m616.33 380.33a25.82 25.82 0 0 0 9.74 9.238m-1.96 16.482c-5.12-3.359-14.838-7.761-23.624-3.428-3.259 1.608-5.442 3.597-6.675 6.84a15.52 15.52 0 0 0 2.788 14.949c1.321 1.4 4.2 4.074 7.774 4.12 5.91 0.079 7.314-4.056 7.464-4.975 0.7-4.276-1.788-5.987-3.11-6.453-1.014-0.358-4.312-0.266-5.012 2.065-0.301 1.053-0.176 2.182 0.348 3.144"/>
					<path d="m531.99 488.16c1.633 3.343-0.224 5.024-2.488 5.287-3.343 0.388-5.131-2.255-5.364-4.665a6.87 6.87 0 0 1 6.327-7.366l0.515-0.02c3.447 0.12 6.495 2.27 7.764 5.477a10.79 10.79 0 0 1 0.788 3.697c0.125 2.364-0.672 4.685-2.223 6.474-2.16 2.39-5.208 3.788-8.429 3.866-6.6 0.265-11.74-5.908-11.74-12.206 0-12.05 17.872-18.623 24.957-20.314 8.708-2.077 14.006-2.855 27.99-3.632 5.597-0.311 9.697-0.153 15.86-0.792a94.33 94.33 0 0 0 14.072-2.162 42.58 42.58 0 0 0 19.592-9.952c4.55-4.131 7.153-7.075 9.26-12.75 1.817-4.898 2.653-14.596-1.951-21.77a22.4 22.4 0 0 0-16.171-10.565c-5.83-0.843-10.942 1.672-13.995 7.456-1.477 2.8-1.022 7.48 0.148 9.64a9.37 9.37 0 0 0 7.471 4.666c5.909 0.078 7.313-4.057 7.464-4.976 0.7-4.276-1.788-5.987-3.11-6.453-1.014-0.358-4.312-0.266-5.012 2.065a4.18 4.18 0 0 0 0.347 3.144m-77.162 46.711c-7.576 3.359-13.13 5.875-17.839 13.31-1.267 2.337-1.909 4.962-1.866 7.62-0.04 4.526 1.856 8.854 5.21 11.894 2.835 2.543 6.645 3.709 10.417 3.188 3.007-0.295 5.832-2.488 6.298-4.043"/>
				</g>
				<path d="m601.73 325.2c-3.545 1.183-6.064 6.586-6.064 11.74-0.193 4.727 2.187 9.189 6.22 11.662"/>
				<path class="B" d="m605.62 344.41c-6.375 7.93-9.758 12.637-9.952 22.08-0.182 8.863 2.644 14.927 7.93 21.303"/>
				<path d="m571.64 212.58 0.547-0.81c2.644-3.887 7.312-4.911 10.73-2.332 4.12 3.11 5.16 8.402 4.042 13.994a13.57 13.57 0 0 1-6.325 8.521"/>
				<path class="B" d="m414.22 210.68c-4.043-1.866-7.371-1.507-9.874 1.47-2.877 3.421-2.986 8.453-2.41 11.28 0.855 4.199 2.068 5.942 5.407 8.988"/>
				<path d="m404.03 212.55c-4.82-3.187-10.041-1.834-12.906 2.41-2.1 3.11-2.636 5.712-2.488 9.563 0.318 6.01 3.692 11.438 8.941 14.383"/>
				<path d="m390.12 216.81a10.65 10.65 0 0 0-9.4 10.433c0 6.92 1.703 9.718 5.59 15.005 3.897 5.299 16.638 15.005 16.638 26.045 0 6.686-1.866 10.962-6.686 13.139-3.108 1.404-6.742-0.116-8.397-1.61-4.043-3.655-2.426-10.063 1.788-10.829 5.131-0.933 6.096 7.145 1.089 6.609m-9.412-51.932c-3.965 0.31-7.867 3.723-7.867 7.908 0 5.986 2.385 8.761 7.167 14.716 4.121 5.131 15.762 13.972 15.451 22.602-0.117 3.263-2.31 7.253-4.488 6.786"/>
				<path class="B" d="m372 343.94c1.866-4.51 6.686-2.488 6.983 0 0.683 5.732-4.34 7.464-7.916 6.53-1.661-0.429-3.071-1.526-3.896-3.03a7.55 7.55 0 0 1-0.61-5.824 7.66 7.66 0 0 1 1.326-2.581c0.548-0.744 1.225-1.384 1.999-1.89 1.375-0.878 2.874-0.965 5.224-0.965 8.708 0 16.327 10.289 18.886 20.977 1.426 6.178 1.561 12.583 0.396 18.815-1.297 6.621-4.478 12.727-9.16 17.585a39.21 39.21 0 0 1-8.99 6.435 38.76 38.76 0 0 1-6.496 2.683c-1.997 0.635-4.134 0.685-6.158 0.142-4.423-1.327-7.262-5.46-4.96-10.83 1.792-4.18 8.397-6.219 11.351-1.088a5.1 5.1 0 0 1 0.628 2.411c0.049 1.385-0.524 2.72-1.561 3.64-2.246 1.428-5.838 1.024-5.671-2.941"/>
				<path d="m365.24 397.49c1.633 0.63 2.526 0.544 4.557-0.358 0.834-0.37 1.789-0.943 2.907-1.578 3.98-2.261 8.708-5.824 13.139-14.143a29.38 29.38 0 0 0 2.672-6.992 25.87 25.87 0 0 0 0.78-5.212 40.06 40.06 0 0 0-0.964-9.72c-0.916-5.173-3.108-10.037-6.376-14.15-1.795-2.463-3.343-3.966-6.686-4.043m-14.759 48.286c-0.621-3.313 1.562-6.502 4.875-7.123s6.502 1.562 7.123 4.875c0.417 2.227-0.433 4.501-2.209 5.908m-7.419-9.73a5.72 5.72 0 0 1 11.377 0.99c5e-3 1.518-0.573 2.98-1.615 4.085"/>
				<path d="m374.02 383.2c6.073-4.553 9.669-11.684 9.718-19.274 0.036-6.474-2.565-13.061-5.597-15.627"/>
				<path class="B" d="m382.29 380.33a25.82 25.82 0 0 1-9.74 9.238"/>
				<path d="m397.81 402.63c-1.449-3.409-4.329-4.985-9.019-5.486-4.662-0.497-8.698 0.784-12.828 3.005-8.06 4.335-12.554 8.995-15.55 17.641a26.88 26.88 0 0 0-1.303 9.021c0.14 5.604 1.563 11.73 3.091 14.692 1.334 2.584 4.82 13.994 23.946 21.868 11.161 4.595 28.3 5.654 40.118 6.12 16.256 0.642 31.255 1.245 39.962 11.973"/>
				<path class="B" d="m374.5 406.05c5.12-3.359 14.838-7.761 23.624-3.428 3.259 1.608 5.442 3.597 6.675 6.84a15.52 15.52 0 0 1-2.788 14.949c-1.321 1.4-4.2 4.074-7.775 4.12-5.908 0.079-7.313-4.056-7.463-4.975-0.7-4.276 1.788-5.987 3.11-6.453 1.014-0.358 4.312-0.266 5.011 2.065 0.301 1.053 0.177 2.182-0.347 3.144"/>
				<path d="m394.86 421.45a5.27 5.27 0 0 0-1.321-5.209c-2.449-2.371-6.13-2.932-9.175-1.4a11.61 11.61 0 0 0-3.965 3.266l-1.788 2.488c-0.709 1.229-1.28 2.533-1.704 3.887-3.845 10.928 2.413 22.532 10.256 27.522 6.842 4.354 13.84 5.598 22.47 6.375 3.993 0.36 6.256 0.437 10.263 0.623 3.223 0.149 6.008 0.096 8.63 0.064l6.296-0.064a110.46 110.46 0 0 1 11.274 0.155c4.55 0.331 7.973 0.448 11.818 1.089 2.512 0.418 5.456 0.822 8.543 1.515 0.926 0.207 1.865 0.377 2.808 0.661l1.882 0.575a62.33 62.33 0 0 1 15.257 6.521 23.63 23.63 0 0 1 3.877 2.708c0.796 0.795 1.472 1.256 2.123 1.898 2.99 2.941 6.048 6.126 6.763 10.438 0.112 0.831 0.156 1.669 0.132 2.507 0 2.798-2.278 6.608-8.42 7.852"/>
				<path d="m466.62 488.16c-1.633 3.343 0.224 5.024 2.488 5.287 3.343 0.388 5.131-2.255 5.364-4.665a6.87 6.87 0 0 0-6.327-7.366l-0.515-0.02c-3.447 0.12-6.495 2.27-7.764 5.477-0.478 1.176-0.745 2.428-0.788 3.697-0.125 2.364 0.672 4.685 2.223 6.474a11.74 11.74 0 0 0 8.429 3.866c6.6 0.265 11.74-5.908 11.74-12.206 0-12.05-17.873-18.623-24.957-20.314-8.708-2.077-14.006-2.855-27.99-3.632-5.597-0.311-9.697-0.153-15.86-0.792-4.739-0.365-9.443-1.088-14.073-2.162a42.58 42.58 0 0 1-19.592-9.952c-4.55-4.131-7.153-7.075-9.26-12.75-1.817-4.898-2.652-14.596 1.951-21.77a22.4 22.4 0 0 1 16.172-10.565c5.83-0.843 10.942 1.672 13.995 7.456 1.478 2.8 1.022 7.48-0.148 9.64-1.559 2.702-4.359 4.451-7.471 4.666-5.909 0.078-7.313-4.057-7.464-4.976-0.7-4.276 1.788-5.987 3.11-6.453 1.014-0.358 4.312-0.266 5.012 2.065a4.18 4.18 0 0 1-0.347 3.144"/>
				<path class="B" d="m426.97 212.58-0.547-0.81c-2.644-3.887-7.312-4.911-10.73-2.332-4.12 3.11-5.16 8.402-4.042 13.994 0.864 3.581 3.147 6.656 6.324 8.521"/>
				<path d="m573.04 224.37c-6.298 6.842-12.595 9.026-22.003 9.33-2.938 0.095-8.552-0.933-11.818-3.258-2.098-1.494-4.432-4.05-2.954-8.482 0.987-2.962 5.746-11.273 5.98-17.027 0.355-8.79-3.026-13.606-8.313-15.472-9.774-3.45-20.267 6.211-26.589 8.319-2.565 0.922-5.284 1.344-8.008 1.243a21.63 21.63 0 0 1-8.068-1.243c-6.323-2.108-16.816-11.77-26.59-8.32-5.287 1.867-8.668 6.683-8.312 15.473 0.234 5.753 4.992 14.064 5.98 17.027 1.477 4.431-0.857 6.988-2.955 8.481-3.265 2.326-8.88 3.353-11.818 3.259-9.407-0.304-15.705-2.488-22.003-9.33"/>
				<path class="B" d="m464.58 466.27c1.246 0.487 0.303-0.295 8.195 3.203 7.576 3.359 12.954 6.3 17.663 13.736 1.267 2.337 1.909 4.962 1.866 7.62a16.65 16.65 0 0 1-0.459 3.841"/>
				<path d="m465.09 500.06a12.52 12.52 0 0 0 5.081 1.29c6.6 0.264 11.74-5.91 11.74-12.207 0-4.366-2.377-8.044-5.706-11"/>
				<path class="B" d="m466.52 488.15c-1.594 3.553 0.677 5.475 2.94 5.738a4.91 4.91 0 0 0 5.432-4.328l0.026-0.337a6.98 6.98 0 0 0-3.278-6.485"/>
				<path d="m609.53 216.87c5.018 0 9.394 5.585 9.394 11.317 0 6.605-3.513 10.648-6.087 13.705-2.072 2.46-4.316 4.663-6.982 7.348"/>
				<path class="B" d="m603.58 211.58c1.768 0.855 3.271 2.175 4.346 3.819 2.099 3.11 2.633 5.712 2.487 9.563-0.249 6.6-4.998 11.17-9.246 13.959m-7.457-27.341a8.66 8.66 0 0 1 1 1.014c2.877 3.421 3.1 8.478 2.41 11.281-1.035 4.213-2.427 6.029-5.846 8.549m-7.914-22.574c4.12 3.11 5.346 8.489 3.98 14.026-0.975 3.957-3.463 6.328-6.565 8.217m17.385 64.187c0.493 1.447 1.306 1.949 2.332 3.022a21.14 21.14 0 0 0 9.623 5.504c3.334 0.979 6.928 0.482 9.87-1.367m-254.7 84.431c1.937-0.035 3.869 1.273 5.133 3.468a5.09 5.09 0 0 1 0.628 2.41c0.038 1.337-0.551 2.614-1.593 3.453-2.245 1.43-6.232 0.815-6.065-3.15"/>
				<path d="m377.33 336.4c7.703 1.438 15.119 10.729 17.546 20.865a46.03 46.03 0 0 1 0.396 18.815 35.05 35.05 0 0 1-9.16 17.585c-1.025 1.044-2.136 1.999-3.323 2.855l-1.643 1.113m-12.386-18.963c3.164 0 5.934 3.032 5.934 6.273 5e-3 1.518-0.573 2.98-1.615 4.085m-6.459-6.678a6.84 6.84 0 0 1 6.433 6.546 6.09 6.09 0 0 1-2.316 4.786"/>
				<path class="B" d="m396.84 349.2c3.027 4.063 5.025 7.561 5.954 12.07m-0.104 13.26a26.98 26.98 0 0 1-2.264 6.322c-1.439 2.707-3.315 5.157-5.552 7.253"/>
				<path d="m397.32 325.52a14.58 14.58 0 0 1 5.501 7.469"/>
				<path class="B" d="m402.9 317.92c-0.767 2.66-2.506 4.674-5.266 7.193m-14.304-26.843 3.369-0.886 1.994-1.508 1.285-1.817 1.108-2.837 0.444-2.305"/>
				<path d="m376.51 286.41a20.24 20.24 0 0 0-3.824 1.333 13.97 13.97 0 0 0-5.506 4.576c-1.856 2.63-2.938 6.286-3.608 9.484a30.98 30.98 0 0 0 0.252 10.41c0.616 3.142 1.84 6.133 3.601 8.807 0.475 0.744 1.017 1.443 1.621 2.087 2.022 2.021 3.888 3.265 6.997 2.643"/>
				<path class="B" d="m395.38 271.58c-0.546 2.007-1.625 4.493-4.774 4.221"/>
				<path d="m383.87 285.2c-3.024-2.956-9.43-3.726-15.798 0.302a24.12 24.12 0 0 0-2.448 1.859c-0.848 0.733-1.603 1.567-2.25 2.482-0.825 1.208-1.555 2.478-2.182 3.8-0.645 1.321-1.139 2.71-1.474 4.142-0.846 3.186-1.19 6.484-1.02 9.776 0.176 1.513 0.32 2.903 0.567 4.182a29.13 29.13 0 0 0 3.475 9.656c1.407 2.333 4.906 7.69 12.058 8.397 2.811 0.278 7.612-1.01 7.768-4.665"/>
				<path class="B" d="m568.38 220.42c0.478-2.581 3.59-3.08 4.758-1.555 1.8 2.348 0.61 6.382-3.051 7.526a5.89 5.89 0 0 1-5.987-2.177 6.78 6.78 0 0 1 1.585-9.45l0.281-0.19c4.251-3.234 11.118-2.488 13.372 2.954 2.909 7.02-3.42 12.284-9.252 16.249-7.34 4.992-15.705 5.9-22.003 5.831-14.306-0.156-25.19-6.997-32.265-10.884-1.648-0.906-3.345-0.72-4.198 0.31-1.03 1.302-0.859 3.183 0.389 4.277m59.251-15.311c0.969-0.051 1.886 0.436 2.387 1.267 1.8 2.348 0.485 6.383-3.176 7.526m27.869 80.537c-5.45 5.933-0.437 16.116 3.636 18.418 1.41 1.097 2.013 0.515 3.14 1.175"/>
				<path d="m598.63 295.99c-1.788 1.244-2.418 2.642-2.488 5.07-0.185 2.308 0.616 4.586 2.203 6.272 2.972 3.092 8.786 5.784 14.42 5.855 3.35 0.097 6.645-0.86 9.422-2.736 2.981-1.947 5.118-4.945 5.987-8.397m-32.594 96.546a38 38 0 0 1-0.212 3.887c-0.906 7.488-4.366 14.435-9.795 19.671-2.619 2.661-5.702 4.821-9.097 6.375a38.43 38.43 0 0 1-10.263 3.42c-3.521 0.81-7.117 1.253-10.73 1.322a74.53 74.53 0 0 1-9.909-0.254c-4.127-0.286-6.417-0.86-10.538-1.223a83.34 83.34 0 0 0-8.743-0.566c-3.008-0.088-6.018 0.128-8.983 0.644a34.33 34.33 0 0 0-8.086 2.255c-4.198 1.7-8.941 4.664-9.952 5.986-1.01-1.322-5.754-4.286-9.952-5.986-2.593-1.079-5.308-1.836-8.085-2.255-2.965-0.516-5.975-0.732-8.984-0.644-2.922 0.034-5.841 0.223-8.743 0.566-4.121 0.362-6.41 0.937-10.538 1.223-3.294 0.306-6.605 0.39-9.91 0.254-3.612-0.07-7.207-0.512-10.728-1.321a38.43 38.43 0 0 1-10.263-3.421c-3.395-1.553-6.478-3.714-9.097-6.375-5.429-5.236-8.889-12.183-9.796-19.671-0.137-1.291-0.208-2.589-0.212-3.887v-159.02h192.55v159.02z"/>
			</g>
		</g>
		<g class="J" transform="matrix(.99997 0 0 .99997 .011949 .0064262)">
			<path class="E" d="m387.41 421.32a3.91 3.91 0 0 1 3.903-3.911 3.91 3.91 0 0 1 3.911 3.903v9e-3a3.91 3.91 0 0 1-3.911 3.903 3.91 3.91 0 0 1-3.903-3.903zm-23.99-27.61c0-1.932 1.236-3.499 2.76-3.499s2.76 1.567 2.76 3.499-1.236 3.499-2.76 3.499-2.76-1.567-2.76-3.499z" stroke="#c6aa76"/>
			<path d="m377.05 324.36c0.111-1.472 1.394-2.575 2.865-2.465s2.575 1.394 2.465 2.865c-0.105 1.394-1.267 2.472-2.665 2.472-1.528-0.059-2.72-1.344-2.665-2.873zm47.86-102.55a2.49 2.49 0 0 1 2.636-2.329 2.49 2.49 0 0 1 2.329 2.636c-0.075 1.212-1.014 2.192-2.221 2.32a2.7 2.7 0 0 1-2.744-2.627z"/>
		</g>
		<g class="C D" transform="matrix(.99997 0 0 .99997 .011949 .0064262)" stroke="#c6aa76">
			<path class="B" d="m373.92 340.54c-0.986 0.411-1.759 1.209-2.138 2.208a6.36 6.36 0 0 0-0.381 1.858m7.369 41.794 1.391-1.687a16.95 16.95 0 0 0 1.073-1.47c0.344-0.539 0.498-0.867 0.801-1.43l1.05-2.06m-1.975 21.777-2.371 1.088-1.71 1.003-1.945 1.307-1.904 1.523m23.38-59.201-1.283-1.321-1.4-1.322c-0.556-0.469-0.91-0.683-1.492-1.12"/>
			<path d="m397.17 326.47c-0.618 0.319-1.254 0.602-1.905 0.848-0.751 0.278-1.54 0.44-2.34 0.482"/>
			<path class="B" d="m371 300.68c0.173 0.787 0.391 1.563 0.653 2.325a12.18 12.18 0 0 0 1.446 2.666 13.05 13.05 0 0 0 1.99 2.457c0.655 0.658 1.383 1.24 2.17 1.734 0.753 0.455 1.529 0.87 2.325 1.244m-1.544-9.156a19.32 19.32 0 0 0 1.944 1.042c0.614 0.261 1.251 0.461 1.904 0.598a11.49 11.49 0 0 0 2.683 0.32 12.09 12.09 0 0 0 2.916-0.234m11.203-63.526-3.196-1.866c-1.05-0.692-2.029-1.486-2.923-2.371-0.665-0.616-1.271-1.293-1.811-2.022-0.563-0.76-0.778-1.257-1.275-2.06m11.715-7.111c0.278 0.914 0.613 1.81 1.003 2.682 0.566 1.175 1.317 2.251 2.224 3.188 1.414 1.552 2.613 1.992 4.283 3.265m2.27-9.245c0.28 0.824 0.612 1.629 0.995 2.41 0.364 0.68 0.799 1.318 1.299 1.905 0.608 0.774 1.314 1.466 2.099 2.06 0.934 0.656 1.917 1.241 2.939 1.75"/>
		</g>
		<g transform="matrix(.99997 0 0 .99997 .011949 .0064262)" fill="#704029">
			<path class="H" d="m520.78 211.91c-0.08-2.649-2.69-2.924-3.69-2.924-2.885 0-3.666 1.8-7.265 3.732-4.512 2.424-6.455 2.962-10.466 2.998-4.01-0.036-6.005-0.575-10.517-2.998-3.6-1.932-4.205-3.674-7.091-3.674a3.64 3.64 0 0 0-3.516 3.757l3e-3 0.075a6.48 6.48 0 0 0 0.093 1.347c0.047 0.204 0.296 0.14 0.374 0.32-0.088-0.949 0.199-1.894 0.8-2.633 0.614-0.788 1.542-1.268 2.54-1.313 2.885 0 3.953 1.851 7.553 3.784 4.512 2.423 6.453 2.962 10.464 2.998 4.01-0.036 6.007-0.575 10.519-2.998 3.6-1.933 4.634-3.938 7.52-3.938a2.12 2.12 0 0 1 2.032 1.667 4.96 4.96 0 0 1 0.14 1.293c0.026 0.121 0.174 0.109 0.207 0.24a4.08 4.08 0 0 0 0.3-1.733z" stroke-width=".277"/>
			<path d="m413.12 434.42c0.81-0.872 1.423-0.544 1.573-0.946 0.11-0.297-0.13-0.327-0.46-0.45-0.44-0.165-0.906-0.26-1.346-0.424-0.457-0.17-0.87-0.405-1.327-0.576-0.189-0.07-0.625-0.293-0.75 0.04-0.228 0.61 1.602 0.558 0.988 2.2-0.297 0.703-0.73 1.34-1.274 1.875l-4.141 4.507c-0.093 0.104-0.248 0.326-0.342 0.29s-0.082-0.309-0.083-0.45l0.06-6.39c-0.038-0.889 0.064-1.779 0.303-2.636 0.275-0.734 1.12-0.119 1.297-0.59 0.111-0.298 0.026-0.31-0.477-0.498-0.252-0.094-0.734-0.195-1.74-0.571l-1.563-0.664c-0.236-0.088-0.672-0.41-0.828 0.01-0.046 0.123 0.119 0.304 0.16 0.339 0.524 0.294 0.816 0.876 0.74 1.472l0.114 11.635c9e-3 0.84 0.1 1.073 0.258 1.132 0.173 0.065 0.29-0.011 0.633-0.4l8.205-8.904z"/>
			<path d="m417.95 436.22c0.533-1.69 1.532-0.671 1.723-1.276 0.067-0.214-1e-3 -0.275-0.482-0.426l-2.088-0.58-1.788-0.642c-0.144-0.046-0.527-0.225-0.623 0.077-0.196 0.623 1.77 0.695 1.26 2.314l-2.693 8.542c-0.533 1.69-1.54 0.864-1.736 1.486-0.028 0.09-0.036 0.224 0.109 0.27l1.816 0.494 2.412 0.839c0.368 0.116 0.534 0.09 0.596-0.106 0.18-0.57-1.872-0.316-1.182-2.505zm5.78 1.71c0.318-1.073 0.817-0.926 1.413-0.75 1.626 0.483 2.135 2.073 1.616 3.827-0.313 1.055-0.706 2.028-3.153 1.303-0.483-0.143-1.079-0.32-0.946-0.766zm-4.434 7.696c-0.667 2.254-1.797 1.278-1.966 1.85-0.106 0.358 0.248 0.404 0.425 0.457l2.5 0.663c0.677 0.2 1.09 0.4 1.364 0.481 0.37 0.11 0.53 0.04 0.579-0.12 0.19-0.644-1.621-0.383-1.054-2.297l0.917-3.095c0.185-0.626 0.126-0.78 0.979-0.527 0.805 0.238 1.047 0.485 1.184 1.382l0.515 3.227c0.192 1.186 0.374 2.465 1.645 2.842 0.644 0.19 1.824 0.112 1.988-0.443 0.046-0.128-0.021-0.27-0.149-0.316-0.179-0.054-0.372 5e-3 -0.533-0.042-0.241-0.041-0.436-0.221-0.495-0.458l-1.06-5.704c0.053-0.179 0.568-0.201 1.156-0.475 0.798-0.382 1.383-1.101 1.596-1.959 0.244-0.823 0.67-3.44-2.856-4.485l-3.274-0.892-1.862-0.63c-0.193-0.056-0.381-0.015-0.434 0.164-0.19 0.644 1.76 0.502 1.167 2.505zm13.164 3.854c-0.518 2.159-2.154 0.845-2.324 1.552-0.096 0.4 0.186 0.448 0.48 0.519l2.303 0.476 2.269 0.622c0.473 0.113 0.787 0.246 0.891-0.19 0.122-0.507-2.094-0.483-1.558-2.715l1.968-8.2c0.21-0.87 0.395-0.922 1.064-0.761l1.388 0.333c1.895 0.378 0.889 2.267 1.542 2.423 0.425 0.102 0.415-0.648 0.435-0.874l0.22-1.712c0.028-0.185 0.089-0.44-0.156-0.498l-5.014-1.127-4.978-1.272c-0.245-0.06-0.306 0.195-0.366 0.372l-0.836 2.332c-0.09 0.228-0.283 0.604 0.06 0.686 0.734 0.176 0.815-2.318 2.66-1.875l1.372 0.33c0.669 0.16 0.81 0.29 0.601 1.161l-2.02 8.418zm19.84-5.06c0.646-1 1.306-0.782 1.385-1.204 0.057-0.312-0.184-0.3-0.53-0.364-0.463-0.086-0.939-0.098-1.401-0.184-0.479-0.089-0.928-0.248-1.406-0.337-0.198-0.037-0.667-0.18-0.732 0.168-0.119 0.643 1.675 0.273 1.355 1.997a5.75 5.75 0 0 1-0.93 2.067l-3.295 5.158c-0.073 0.119-0.187 0.364-0.286 0.345s-0.134-0.29-0.16-0.428l-1.052-6.305a8.5 8.5 0 0 1-0.158-2.648c0.143-0.77 1.083-0.311 1.175-0.807 0.057-0.312-0.029-0.309-0.557-0.407-0.264-0.049-0.756-0.064-1.813-0.26l-1.654-0.382c-0.248-0.046-0.732-0.288-0.814 0.152-0.024 0.129 0.17 0.279 0.217 0.306 0.566 0.199 0.955 0.722 0.984 1.321l2.132 11.44c0.155 0.825 0.286 1.039 0.451 1.07 0.182 0.034 0.285-0.061 0.555-0.505zm0.93 10.51c9e-3 0.456-0.032 0.6 0.363 0.78 0.848 0.496 1.756 0.884 2.702 1.152 2.169 0.362 3.967-1.02 4.37-3.43 0.391-2.338-0.57-3.312-2.197-4.473-2.037-1.457-2.908-1.85-2.702-3.082 0.059-0.978 0.9-1.723 1.878-1.664 0.095 6e-3 0.19 0.019 0.284 0.04 2.849 0.476 2.524 3.94 2.905 4.004 0.364 0.061 0.45-0.151 0.486-0.562l0.23-2.496c0.038-0.429 0.134-0.697-0.115-0.738-0.215-0.036-0.679 0.19-0.894 0.153-0.496-0.083-1.072-0.917-2.43-1.144-1.938-0.325-3.521 1-3.875 3.116-0.324 1.932 0.533 2.813 1.84 3.75 2.448 1.753 3.452 2.167 3.19 3.731-0.118 1.228-1.21 2.128-2.438 2.01-0.081-8e-3 -0.162-0.02-0.242-0.037-1.838-0.308-2.585-2.154-2.82-4.01-0.025-0.25-0.03-0.42-0.296-0.465-0.414-0.069-0.337 0.492-0.33 0.758zm24.72-6.97c0.538-1.062 1.217-0.915 1.251-1.343 0.025-0.316-0.214-0.279-0.566-0.306-0.468-0.037-0.943 0-1.412-0.036-0.485-0.038-0.948-0.15-1.433-0.188-0.201-0.016-0.682-0.11-0.71 0.243-0.051 0.651 1.694 0.096 1.556 1.845a5.77 5.77 0 0 1-0.708 2.152l-2.739 5.474c-0.06 0.126-0.148 0.381-0.248 0.374s-0.164-0.275-0.204-0.41l-1.704-6.16c-0.282-0.844-0.428-1.727-0.435-2.617 0.062-0.78 1.044-0.423 1.084-0.925 0.024-0.316-0.06-0.304-0.596-0.346-0.268-0.02-0.76 0.016-1.83-0.07l-1.685-0.207c-0.251-0.02-0.759-0.21-0.794 0.237-0.011 0.13 0.199 0.26 0.247 0.282 0.584 0.138 1.026 0.617 1.118 1.21l3.316 11.154c0.24 0.805 0.393 1.004 0.56 1.017 0.184 0.014 0.277-0.091 0.499-0.56z"/>
			<path d="m480.6 457c-0.016 1.903-1.626 1.553-1.632 2.3-2e-3 0.317 0.334 0.226 0.519 0.228l1.444-0.062 1.98 0.092c0.22 0 0.639 0.024 0.64-0.237 8e-3 -0.877-2.152 0.373-2.12-3.21l0.055-6.342c0-0.168 0.036-0.299 0.137-0.298 0.084 0 0.183 0.095 0.3 0.245l7.992 9.772c0.085 0.162 0.251 0.264 0.434 0.265 0.202 0 0.203-0.147 0.206-0.558l0.092-10.466c0.015-1.958 1.44-1.498 1.445-2.058 0-0.056 2e-3 -0.243-0.317-0.245-0.15 0-0.74 0.068-1.797 0.059l-1.914-0.091c-0.218 0-0.27 0.184-0.271 0.314-5e-3 0.616 2.046 0.298 2.03 1.996l-0.053 6.213c-5e-3 0.466-0.04 0.69-0.14 0.689s-0.3-0.227-0.517-0.49l-6.678-8.286c-0.3-0.358-0.097-0.486-0.634-0.491-0.89-0.01-1.327 0.063-1.764 0.059-0.319 0-0.62-0.08-0.94-0.083-0.156-4e-3 -0.286 0.118-0.29 0.274 0 0.014 0 0.027 2e-3 0.041-9e-3 0.895 1.884-0.301 1.852 3.281l-0.061 7.09zm16.26-8.4c0.016-1.772 1.27-1.09 1.274-1.724 2e-3 -0.224-0.08-0.262-0.585-0.267-0.957-0.01-1.562 0.061-2.166 0.056-0.588 0-1.242-0.086-1.897-0.09-0.151-2e-3 -0.57-0.062-0.573 0.256-5e-3 0.653 1.802 0.147 1.788 1.845l0.015 8.955c-0.015 1.772-1.22 1.277-1.225 1.93-1e-3 0.093 0.031 0.224 0.182 0.225 0.437 0.01 1.16-0.064 1.882-0.058l2.55 0.097c0.387 0 0.539-0.07 0.54-0.275 6e-3 -0.597-1.882 0.245-1.862-2.05zm7.04 8.67c0.02 2.22-1.886 1.341-1.88 2.069 6e-3 0.41 0.29 0.39 0.592 0.386l2.35-0.095 2.351 0.054c0.487 0 0.824 0.05 0.82-0.399-5e-3 -0.522-2.15 0.037-2.17-2.257l-0.073-8.433c-7e-3 -0.895 0.16-0.99 0.848-0.996l1.427-0.011c1.93-0.091 1.411 1.984 2.083 1.978 0.436 0 0.245-0.73 0.21-0.953l-0.2-1.715c-0.018-0.187-0.02-0.448-0.273-0.446l-5.137 0.12c-2.452 0.02-3.577-0.044-5.139-0.03-0.252 0-0.25 0.263-0.265 0.45l-0.247 2.465c-0.031 0.243-0.128 0.654 0.224 0.651 0.756-0.01 0.231-2.446 2.128-2.462l1.41-0.014c0.69-0.01 0.858 0.086 0.866 0.98zm9.78-3.53c-0.301 0.024-0.534 0.061-0.549-0.125a1.91 1.91 0 0 1 0.13-0.703l1.03-3.393c0.067-0.212 0.133-0.236 0.166-0.238 0.084-0.01 0.034 0 0.146 0.138l1.638 3.259a1.92 1.92 0 0 1 0.238 0.673c0.013 0.186-0.221 0.186-0.523 0.21zm2.874 0.784c0.436-0.034 0.534 0.146 1.2 1.553a3.5 3.5 0 0 1 0.4 1.222c0.09 1.135-1.115 1.024-1.073 1.563 0.02 0.26 0.236 0.206 0.537 0.183l1.835-0.22 2.166-0.096c0.452-0.035 0.605-0.01 0.58-0.326-0.048-0.614-0.895 0.183-1.535-1.096l-5.415-11.028c-0.262-0.54-0.298-0.575-0.449-0.563-0.217 0.018-0.273 0.377-0.367 0.684l-3.651 11.61c-0.336 1.074-1.199 1.03-1.165 1.458 0.02 0.242 0.284 0.183 0.518 0.165 0.485-0.038 0.965-0.151 1.467-0.19l1.58-0.05c0.351-0.028 0.88 0.062 0.85-0.329-0.04-0.502-1.824-0.062-1.93-1.401 0.013-0.507 0.093-1.01 0.236-1.497 0.288-1.258 0.634-1.36 0.919-1.382l3.298-0.26zm12.976-7.734c-0.168-1.276-0.104-1.304 1.91-1.569 3.213-0.423 2.2 1.912 2.982 1.81 0.383-0.05 0.22-0.65 0.171-0.889l-0.307-1.822c-0.018-0.188-0.185-0.327-0.373-0.309l-3.793 0.575-4.438 0.509c-0.183 3e-3 -0.329 0.154-0.326 0.337l1e-3 0.026c0.098 0.74 1.901-0.1 2.12 1.564l1.14 8.658c0.297 2.256-1.1 1.424-0.988 2.275 0.016 0.111 0.127 0.19 0.343 0.162l2.122-0.355 1.99-0.186c0.417-0.055 0.776-0.027 0.727-0.397-0.065-0.5-1.885 0.21-2.156-1.843l-0.36-2.738c-0.142-1.073-0.237-1.286 0.528-1.387l1.232-0.162c1.732-0.228 1.524 1.795 2.056 1.724 0.4-0.053 0.212-0.705 0.164-0.943l-0.55-3.277c-0.082-0.498-0.26-0.437-0.377-0.421-0.333 0.044-0.159 1.752-1.59 1.94l-1.05 0.139c-0.715 0.094-0.732-0.035-0.837-0.831l-0.34-2.59zm6.14 4.24c0.69 3.724 3.378 5.787 6.697 5.172 5.267-0.976 5.44-5.657 4.965-8.225-0.721-3.89-3.62-5.8-6.833-5.166-3.939 0.767-5.574 4.201-4.829 8.219zm1.837-1.422c-0.493-2.66-0.137-5.345 2.643-5.917 2.123-0.431 4.532 1.323 5.283 5.378 0.565 3.045 0.096 5.675-2.734 6.256-2.945 0.603-4.696-3.039-5.192-5.717zm13.023-6.498c-0.261-1.089 0.245-1.21 0.849-1.355 1.65-0.396 2.886 0.727 3.313 2.505 0.257 1.07 0.403 2.11-2.08 2.705-0.49 0.118-1.093 0.263-1.202-0.19zm9e-3 8.882c0.549 2.286-0.917 2.004-0.778 2.585 0.087 0.363 0.417 0.226 0.596 0.183l2.498-0.676c0.685-0.165 1.143-0.198 1.421-0.265 0.376-0.09 0.48-0.23 0.44-0.393-0.156-0.654-1.594 0.478-2.06-1.463l-0.753-3.138c-0.153-0.635-0.281-0.739 0.584-0.947 0.643-0.27 1.385-8e-3 1.717 0.605l2.06 2.537c0.758 0.931 1.555 1.949 2.845 1.64 0.653-0.158 1.635-0.816 1.5-1.378-0.024-0.134-0.152-0.223-0.286-0.199l-0.02 4e-3c-0.163 0.039-0.3 0.187-0.464 0.226a0.62 0.62 0 0 1-0.657-0.149l-3.77-4.41c-0.044-0.181 0.39-0.458 0.764-0.99a2.96 2.96 0 0 0 0.403-2.494c-0.2-0.835-1.141-3.314-4.717-2.456l-3.281 0.864-1.928 0.386c-0.196 0.047-0.337 0.177-0.294 0.359 0.157 0.653 1.776-0.446 2.264 1.586zm13.471-3.012c0.556 2.15-1.505 1.758-1.323 2.462 0.102 0.398 0.374 0.308 0.667 0.232l2.257-0.66 2.295-0.517c0.471-0.122 0.81-0.152 0.698-0.585-0.13-0.506-2.076 0.556-2.65-1.666l-2.112-8.164c-0.224-0.867-0.085-1 0.581-1.172l1.382-0.358c1.851-0.555 1.85 1.584 2.5 1.416 0.422-0.11 0.061-0.767-0.027-0.976l-0.609-1.615c-0.063-0.177-0.128-0.43-0.372-0.367l-4.956 1.36-4.993 1.214c-0.244 0.063-0.179 0.316-0.148 0.5l0.356 2.452c0.029 0.243 0.034 0.666 0.375 0.577 0.732-0.189-0.368-2.429 1.469-2.904l1.365-0.353c0.667-0.172 0.853-0.124 1.077 0.743zm8.59-11.46c-0.474-1.708 0.92-1.397 0.75-2.009-0.06-0.215-0.15-0.229-0.636-0.095l-2.068 0.651-1.848 0.435c-0.146 0.04-0.565 0.098-0.48 0.405 0.174 0.629 1.863-0.382 2.316 1.254l2.394 8.63c0.474 1.708-0.821 1.564-0.647 2.193 0.025 0.09 0.093 0.207 0.238 0.167l1.793-0.575 2.48-0.61c0.371-0.103 0.497-0.215 0.442-0.413-0.16-0.576-1.742 0.754-2.356-1.458zm3.58 4.17c1.202 3.592 4.15 5.261 7.352 4.19 5.08-1.7 4.6-6.36 3.771-8.836-1.255-3.751-4.391-5.24-7.485-4.166-3.793 1.31-4.934 4.937-3.638 8.812zm1.621-1.664c-0.858-2.565-0.879-5.273 1.794-6.227 2.043-0.723 4.672 0.68 5.98 4.59 0.983 2.937 0.885 5.606-1.836 6.576-2.833 1.006-5.074-2.356-5.938-4.939zm11.919-8.466c-0.41-1.041 0.074-1.232 0.652-1.46 1.578-0.622 2.96 0.318 3.63 2.02 0.403 1.024 0.692 2.033-1.683 2.968-0.469 0.185-1.047 0.412-1.218-0.023l-1.381-3.506zm1.245 8.794c0.861 2.187-0.63 2.113-0.411 2.669 0.136 0.347 0.444 0.166 0.616 0.098l2.378-1.017c0.657-0.259 1.106-0.355 1.371-0.46 0.36-0.142 0.444-0.295 0.382-0.452-0.246-0.625-1.512 0.697-2.244-1.16l-1.183-3.004c-0.24-0.608-0.38-0.692 0.447-1.018 0.599-0.357 1.371-0.201 1.784 0.36l2.393 2.225c0.881 0.816 1.812 1.713 3.046 1.227 0.625-0.246 1.506-1.034 1.294-1.572-0.042-0.129-0.181-0.2-0.31-0.158l-0.02 7e-3c-0.157 0.062-0.272 0.227-0.428 0.289a0.62 0.62 0 0 1-0.672-0.056l-4.347-3.843c-0.068-0.173 0.323-0.508 0.62-1.085 0.392-0.793 0.41-1.719 0.05-2.527-0.314-0.8-1.59-3.123-5.012-1.776l-3.129 1.313-1.855 0.65c-0.188 0.075-0.31 0.222-0.241 0.396 0.246 0.625 1.696-0.688 2.462 1.256z"/>
		</g>
		<g stroke-width=".99997">
			<path class="G" d="m412.66 249.25h82.176v82.02h-82.176z"/>
			<path d="m451.2 313.83a20.149 20.149 0 0 1-0.85497 5.2868c-0.93296 2.7209-0.93996 2.7209-1.7959 4.0429-0.98497 1.548-2.2829 2.8719-3.8099 3.8869a9.4197 9.4197 0 0 1-5.9478 1.7099c-5.4898-0.48598-8.0377-6.4398-9.2827-11.273-1.321-5.1298-5.0728-7.9227-7.4628-6.0638-1.4 1.089-1.479 2.9139-0.31099 4.6648a9.0097 9.0097 0 0 0 4.0989 2.7999l-2.9329 3.7309a9.1797 9.1797 0 0 1-7.5347-7.3928c-0.46599-2.4879 0.74197-7.1338 4.8908-8.5217 5.2968-1.7739 8.6857 2.0039 10.318 5.1908 2.2459 4.3838 3.2099 12.434 9.4297 11.19 3.3839-0.67698 4.9758-5.5978 4.9758-7.8517l2.4669-2.6439 3.6539 1.167 0.099 0.078zm5.1198 0a20.149 20.149 0 0 0 0.85497 5.2868c0.93297 2.7209 0.93997 2.7209 1.7959 4.0429 0.98497 1.548 2.2829 2.8719 3.8099 3.8869a9.4197 9.4197 0 0 0 5.9478 1.7099c5.4898-0.48598 8.0377-6.4398 9.2827-11.273 1.321-5.1298 5.0728-7.9227 7.4627-6.0638 1.4 1.089 1.479 2.9139 0.31099 4.6648a9.0097 9.0097 0 0 1-4.0989 2.7999l2.9329 3.7309a9.1797 9.1797 0 0 0 7.5348-7.3928c0.46598-2.4879-0.74198-7.1338-4.8908-8.5217-5.2968-1.7739-8.6857 2.0039-10.318 5.1908-2.2459 4.3838-3.2099 12.434-9.4297 11.19-3.3839-0.67698-4.9758-5.5978-4.9758-7.8517l-2.4669-2.6439-3.6539 1.167-0.099 0.078z" fill="#fff"/>
			<path class="F" d="m461.12 278.95 10.76-11.643a4.6898 4.6898 0 0 0 1.6099-3.4009l-2.2189 0.34498-0.49698-1.142-0.11-1.147 2.9809-0.62998c0.048-0.48398 7e-3 -0.84997 0.092-1.384 0.08-0.49398 0.18999-0.75997 0.31098-1.244l-3.2649 0.218c0.16599-0.57098 0.12799-0.87497 0.30999-1.406a4.0399 4.0399 0 0 1 0.50398-1.103l1.9069-0.30399c0.72798-0.073 1.143-0.04 1.8729-0.085 1.7809-3.3209 9.1897-6.3728 14.454-0.90397 3.8099 3.9579 2.9879 11.219-1.9499 13.139a6.3198 6.3198 0 0 1-6.8618-1.11l1.9699-3.8659c2.7219 1.6249 4.9758-0.39599 4.8208-2.4949a4.5798 4.5798 0 0 0-4.3538-4.5098c-2.2539-0.197-3.8719 1.093-4.8978 3.1099-0.62598 1.231-0.33599 2.1339-0.54398 3.4999a23.919 23.919 0 0 1-0.53698 3.8089 8.7597 8.7597 0 0 1-2.3699 3.5919l-11.03 11.935-42.94 46.443-3.2269-2.9829 43.21-46.735z"/>
			<path d="m429.51 283.04s2.6999 13.372 11.874 33.43c4.6648-1.7099 7.4198-2.7999 12.362-2.7999s7.6967 0.93397 12.362 2.7999c9.1737-20.058 11.874-33.43 11.874-33.43l-24.235-31.176z" fill="#fff"/>
			<path class="F" d="m456.12 262.41 16.819 21.636s-2.2429 10.52-9.0777 26.353a47.328 47.328 0 0 0-7.7327-1.32l-9e-3 -46.668zm-4.7398 0-16.819 21.636s2.2429 10.52 9.0777 26.353a47.328 47.328 0 0 1 7.7327-1.32l9e-3 -46.668zm52.218-13.16h82.176v82.02h-82.176z"/>
			<path class="G" d="m515.1 249.25h12.253v82.02h-12.253zm23.479 0h12.253v82.02h-12.253zm23.479 0h12.253v82.02h-12.253z"/>
			<path class="F" d="m412.97 402.4a20.759 20.759 0 0 0 2.1629 6.6088c1.477 2.3319 0.93196 2.2689 4.2758 5.9998 1.8199 1.8239 3.9229 3.3419 6.2268 4.4948 2.1569 1.138 4.4588 1.9769 6.8418 2.4959 5.3998 1.438 10.999 1.9779 16.573 1.5979a98.457 98.457 0 0 0 10.249-1.062 108.8 108.8 0 0 1 11.118-1.01c2.1329-0.09 4.1489-0.10999 6.1418 0 2.4569 0.162 4.8988 0.49899 7.3078 1.01a79.667 79.667 0 0 1 10.962 3.1879l0.014-85.652-82.19-0.023v58.542s0.16799 2.8599 0.31799 3.8099z"/>
		</g>
		<path class="E G" d="m422.51 417.42 3.8519 2.2409 5.2778 1.8999-5e-3 -81.525h-9.1257zm45.658 3.7099 0.011-81.096h-9.1427v82.393l9.1307-0.98796zm18.239-81.087h-9.1127v81.378a60.428 60.428 0 0 1 9.1297 1.6829zm-36.489 0v83.328c-3.0549 0.173-6.1178 0.172-9.1727-3e-3l2e-3 -83.311z" stroke="#da281b"/>
		<path class="F" d="m585.47 402.38c-0.34399 2.3089-1.075 4.5428-2.1629 6.6078-1.477 2.3329-0.93196 2.2699-4.2748 6.0008-1.8209 1.8239-3.9239 3.3409-6.2278 4.4948a26.909 26.909 0 0 1-6.8408 2.4949 50.948 50.948 0 0 1-16.573 1.5989c-3.4329-0.17499-6.8538-0.52998-10.25-1.062-3.6859-0.52698-7.3958-0.86397-11.117-1.01-2.1329-0.09-4.1499-0.11-6.1418 0a51.468 51.468 0 0 0-7.3088 1.01 82.417 82.417 0 0 0-11.033 3.1879l0.057-85.652 82.19-0.023v58.541s-0.16799 2.8599-0.31799 3.8099z" stroke-width=".99997"/>
		<use class="G" transform="matrix(.99997 0 0 .99997 .011949 .0064262)" xlink:href="#B"/>
		<g transform="matrix(.99997 0 0 .99997 .011949 .0064262)" stroke="#fede00">
			<use class="B C D" xlink:href="#C"/>
			<use class="E I" xlink:href="#D"/>
			<g class="C D">
				<use class="B" xlink:href="#E"/>
				<path d="m560.12 369.78 0.384-0.249c1.006-0.412 1.919-1.02 2.686-1.79"/>
				<g class="B">
					<path d="m552.38 368.02h7e-3c3.533-0.883 5.885-2.648 7.579-2.869"/>
					<use xlink:href="#F"/>
				</g>
			</g>
			<use class="E I" xlink:href="#G"/>
		</g>
		<path d="m525.12 364.16c-0.67398-0.22999-1.331-0.50598-1.9659-0.82597 0.32299-0.24999 0.58698-0.26499 0.86297-0.55498 0.38998-0.40799 0.37299-0.78797 0.59298-1.319 0.21499-0.51999 0.18399-0.95397 0.67098-1.343 0.32898-0.21999 0.73997-0.28099 1.118-0.16499 0.38898 0.10599 0.70297 0.38998 0.84797 0.76597 0.13699 0.56098-0.16 0.88597-0.24599 1.454-0.155 0.46999-0.221 0.96497-0.195 1.46a6.0698 6.0698 0 0 0 0.35399 0.90697 15.299 15.299 0 0 1-2.0399-0.37999zm-0.98997 0.94997c-4e-3 -0.34599 0.273-0.62998 0.61898-0.63298 0.34599-3e-3 0.62998 0.27299 0.63298 0.61898s-0.27299 0.62998-0.61898 0.63298-0.62698-0.27099-0.63298-0.61498zm-1.7599-16.509-0.14399-0.10399c-0.38299-0.30999-0.41999-0.65298-0.60098-1.11-0.16099-0.36699-0.26699-0.75598-0.31499-1.154-0.025-0.34899-0.025-0.69898 0-1.048 0.02-0.31399 0.02-0.62998 0-0.94397 2e-3 -0.32599-0.07-0.64897-0.20999-0.94396-0.097-0.18-0.39399-0.33699-0.31399-0.41999 0.094-0.096 0.25699-0.02 0.41998 0a1.6399 1.6399 0 0 1 0.94297 0.41999c0.33799 0.26199 0.57598 0.63197 0.67198 1.049l0.40699 1.468c0.058 0.25699 0.15399 0.50498 0.28399 0.73397a4.2699 4.2699 0 0 0 0.52398 0.62898l-0.011 0.023c-0.24099 0.29399-0.50098 0.57298-0.77698 0.83397-0.26099 0.22-0.54398 0.41199-0.84597 0.57298l-0.033-0.01zm3.5999 10.64 2.2299 1.031a9.2297 9.2297 0 0 0 3.4969-3.9189c0.68797-1.353 1.149-2.8099 1.364-4.3128l-1.7889-0.58098-0.35699 0.073c-0.33499 1.468-0.87997 2.8799-1.6179 4.1919-0.69998 1.158-1.596 2.1839-2.6489 3.0339l-0.67798 0.48298zm4.9398 18.119c0.28199-0.43898 0.58998-0.86097 0.92197-1.264a12.73 12.73 0 0 1 1.312-1.15c0.16299-0.011 0.32699 0.014 0.47998 0.071-0.014 0.51798-0.074 1.034-0.17999 1.541-0.085 0.41099-0.201 0.81597-0.34599 1.21a3.4799 3.4799 0 0 1-0.38999 0.97897 4.1499 4.1499 0 0 1-0.47598 0.51798c-0.50998-0.74198-1.33-1.297-1.322-1.9059zm33.009 1.8499a7.5097 7.5097 0 0 1 2.9359 1.482c0.055 0.15499 0.076 0.31899 0.063 0.48298a9.0497 9.0497 0 0 1-1.5299 0.25099 8.3897 8.3897 0 0 1-1.259 0 3.4599 3.4599 0 0 1-1.048-0.10499 4.2999 4.2999 0 0 1-0.62997-0.31399c0.57298-0.69598 0.87997-1.637 1.468-1.7969zm-9.7597-2.0399a7.5297 7.5297 0 0 1 2.9359 1.482 1.16 1.16 0 0 1 0.063 0.48198 8.9497 8.9497 0 0 1-1.53 0.25199 8.3997 8.3997 0 0 1-1.259 0 3.4599 3.4599 0 0 1-1.048-0.10499 4.2999 4.2999 0 0 1-0.62998-0.31399c0.57298-0.69598 0.87997-1.637 1.468-1.7969zm-17.339 2.1299a13.02 13.02 0 0 1 1.469 0.53798 13.16 13.16 0 0 1 1.468 0.94397c0.054 0.15499 0.075 0.31898 0.063 0.48298a9.0797 9.0797 0 0 1-1.531 0.25099 8.3797 8.3797 0 0 1-1.258 0c-0.35298 0.019-0.70697-0.016-1.049-0.105-0.21799-0.087-0.42899-0.19199-0.62998-0.31399 0.57298-0.69597 0.87997-1.6369 1.468-1.7969zm-8.9797-29.799c-0.61298-0.27799-1.05-1.045-0.65998-1.5939 0.155-0.21999 0.41199-0.174 0.56498-0.39499 0.144-0.25399 0.19199-0.55198 0.136-0.83897a5.2198 5.2198 0 0 0-0.21-0.94397c-0.082-0.34399-0.12699-0.69497-0.13499-1.048a2.2499 2.2499 0 0 1 0.34499-1.573c0.21099-0.27899 0.49698-0.49098 0.82497-0.61198 0.14699 0.136-0.057 0.50199-0.033 0.82197a3.8299 3.8299 0 0 0 0.28799 1.153c0.20199 0.56298 0.47898 0.80897 0.70298 1.363a3.5799 3.5799 0 0 1 0.41998 1.363 2.2899 2.2899 0 0 1-0.20999 1.154c-0.126 0.32799-0.33699 0.61798-0.60998 0.83897-0.22699 0.203-0.49998 0.34699-0.79597 0.41899a1.15 1.15 0 0 1-0.62798-0.108z" fill="#005eb7" stroke-width=".99997"/>
		<use class="G" transform="matrix(.99997 0 0 .99997 .011949 .0064262)" y="36.591" xlink:href="#B"/>
		<g transform="matrix(.99997 0 0 .99997 .011949 .0064262)" stroke="#fede00">
			<use class="B C D" y="36.591" xlink:href="#C"/>
			<use class="E I" y="36.591" xlink:href="#D"/>
			<g class="C D">
				<use class="B" y="36.591" xlink:href="#E"/>
				<path d="m560.12 406.37 0.384-0.249c1.006-0.412 1.919-1.02 2.686-1.79"/>
				<g class="B">
					<path d="m552.38 404.61h7e-3c3.533-0.883 5.885-2.648 7.579-2.869"/>
					<use y="36.591" xlink:href="#F"/>
				</g>
			</g>
			<use class="E I" y="36.591" xlink:href="#G"/>
		</g>
		<path d="m525.12 400.75c-0.67398-0.22999-1.331-0.50598-1.9659-0.82597 0.32299-0.24999 0.58698-0.26499 0.86297-0.55498 0.38998-0.40798 0.37299-0.78797 0.59298-1.319 0.21499-0.51999 0.18399-0.95397 0.67098-1.343 0.32898-0.21999 0.73997-0.28099 1.118-0.16499 0.38898 0.10599 0.70297 0.38998 0.84797 0.76597 0.13699 0.56098-0.16 0.88597-0.24599 1.454-0.155 0.46999-0.221 0.96497-0.195 1.46a6.0698 6.0698 0 0 0 0.35399 0.90697 15.299 15.299 0 0 1-2.0399-0.37999zm-0.98997 0.94997c-4e-3 -0.34599 0.273-0.62998 0.61898-0.63298 0.34599-3e-3 0.62998 0.27299 0.63298 0.61898s-0.27299 0.62998-0.61898 0.63298-0.62698-0.27099-0.63298-0.61498zm-1.7599-16.509-0.14399-0.104c-0.38299-0.30999-0.41999-0.65298-0.60098-1.11-0.16099-0.36699-0.26699-0.75598-0.31499-1.154-0.025-0.34899-0.025-0.69898 0-1.048 0.02-0.31399 0.02-0.62998 0-0.94397 2e-3 -0.32598-0.07-0.64897-0.20999-0.94396-0.097-0.18-0.39399-0.33699-0.31399-0.41999 0.094-0.096 0.25699-0.02 0.41998 0a1.6399 1.6399 0 0 1 0.94297 0.41999c0.33799 0.26199 0.57598 0.63197 0.67198 1.049l0.40699 1.468c0.058 0.25699 0.15399 0.50498 0.28399 0.73398a4.2699 4.2699 0 0 0 0.52398 0.62897l-0.011 0.023c-0.24099 0.29399-0.50098 0.57298-0.77698 0.83397-0.26099 0.22-0.54398 0.41199-0.84597 0.57299l-0.033-0.01zm3.5999 10.64 2.2299 1.031a9.2297 9.2297 0 0 0 3.4969-3.9189c0.68797-1.353 1.149-2.8099 1.364-4.3128l-1.7889-0.58098-0.35699 0.073c-0.33499 1.468-0.87997 2.8799-1.6179 4.1918-0.69998 1.158-1.596 2.1839-2.6489 3.0339zm4.9398 18.119c0.28199-0.43898 0.58998-0.86097 0.92197-1.264a12.73 12.73 0 0 1 1.312-1.15c0.16299-0.011 0.32699 0.014 0.47998 0.071-0.014 0.51799-0.074 1.034-0.17999 1.541-0.085 0.41099-0.201 0.81597-0.34599 1.21a3.4799 3.4799 0 0 1-0.38999 0.97897 4.1499 4.1499 0 0 1-0.47598 0.51798c-0.50998-0.74198-1.33-1.297-1.322-1.9059zm33.009 1.8499a7.5097 7.5097 0 0 1 2.9359 1.482c0.055 0.15499 0.076 0.31899 0.063 0.48298a9.0497 9.0497 0 0 1-1.5299 0.25099 8.3897 8.3897 0 0 1-1.259 0 3.4599 3.4599 0 0 1-1.048-0.10499 4.2999 4.2999 0 0 1-0.62997-0.31399c0.57298-0.69598 0.87997-1.637 1.468-1.7969zm-9.7597-2.0399a7.5297 7.5297 0 0 1 2.9359 1.482 1.16 1.16 0 0 1 0.063 0.48198 8.9497 8.9497 0 0 1-1.53 0.25199 8.3997 8.3997 0 0 1-1.259 0 3.4599 3.4599 0 0 1-1.048-0.10499 4.2999 4.2999 0 0 1-0.62998-0.31399c0.57298-0.69598 0.87997-1.637 1.468-1.7969zm-17.339 2.1299a13.02 13.02 0 0 1 1.469 0.53798 13.16 13.16 0 0 1 1.468 0.94397c0.054 0.15499 0.075 0.31899 0.063 0.48298a9.0797 9.0797 0 0 1-1.531 0.25099 8.3797 8.3797 0 0 1-1.258 0c-0.35298 0.019-0.70697-0.016-1.049-0.10499-0.21799-0.087-0.42899-0.192-0.62998-0.31399 0.57298-0.69598 0.87997-1.637 1.468-1.7969zm-8.9797-29.799c-0.61298-0.27799-1.05-1.045-0.65998-1.5939 0.155-0.21999 0.41199-0.174 0.56498-0.39499 0.144-0.25399 0.19199-0.55198 0.136-0.83897a5.2198 5.2198 0 0 0-0.21-0.94397c-0.082-0.34398-0.12699-0.69497-0.13499-1.048a2.2499 2.2499 0 0 1 0.34499-1.573c0.21099-0.27899 0.49698-0.49098 0.82497-0.61198 0.14699 0.136-0.057 0.50199-0.033 0.82198a3.8299 3.8299 0 0 0 0.28799 1.153c0.20199 0.56298 0.47898 0.80897 0.70298 1.363a3.5799 3.5799 0 0 1 0.41998 1.363 2.2899 2.2899 0 0 1-0.20999 1.154c-0.126 0.32799-0.33699 0.61798-0.60998 0.83898-0.22699 0.20299-0.49998 0.34698-0.79597 0.41898a1.15 1.15 0 0 1-0.62798-0.108z" fill="#005eb7" stroke-width=".99997"/>
		<path class="C H" d="m412.66 249.25h82.176v82.02h-82.176zm90.937 0h82.176v82.02h-82.176zm-90.627 153.15a20.759 20.759 0 0 0 2.1629 6.6088c1.477 2.3319 0.93196 2.2689 4.2758 5.9998 1.8199 1.8239 3.9229 3.3419 6.2268 4.4948 2.1569 1.138 4.4588 1.9769 6.8418 2.4959 5.3998 1.438 10.999 1.9779 16.573 1.5979a98.457 98.457 0 0 0 10.249-1.062 108.8 108.8 0 0 1 11.118-1.01c2.1329-0.09 4.1489-0.10999 6.1418 0 2.4569 0.162 4.8988 0.49899 7.3078 1.01a79.667 79.667 0 0 1 10.962 3.1879l0.014-85.652-82.19-0.023v58.542s0.16799 2.8599 0.31799 3.8099zm172.5-0.02c-0.34399 2.3089-1.075 4.5428-2.1629 6.6078-1.477 2.3329-0.93196 2.2699-4.2748 6.0008-1.8209 1.8239-3.9239 3.3409-6.2278 4.4948a26.909 26.909 0 0 1-6.8408 2.4949 50.948 50.948 0 0 1-16.573 1.5989c-3.4329-0.17499-6.8538-0.52998-10.25-1.062-3.6859-0.52698-7.3958-0.86397-11.117-1.01-2.1329-0.09-4.1499-0.11-6.1418 0a51.468 51.468 0 0 0-7.3088 1.01 82.417 82.417 0 0 0-11.033 3.1879l0.057-85.652 82.19-0.023v58.541s-0.16799 2.8599-0.31799 3.8099z" stroke-width=".79697"/>
	</g>
	<defs>
		<path id="B" d="M524.62 346.91l-.594.281a8.45 8.45 0 0 1-.781.813 12.25 12.25 0 0 1-1.25.843c-.22.113-.421.261-.594.438-.252.32-.079.63-.25 1a3.68 3.68 0 0 1-.656.938c-.332.356-.687.69-1.063 1-.312.386-.681.723-1.093 1a1.77 1.77 0 0 1-.344.187c-.216.067-.35-.011-.563.062-.388.134-.51.563-.78.719.111.218.106.372.218.594.158.323.705 1.215.812 1.437.21.305.27.7.532.781a3.1 3.1 0 0 0 1.312.125 10.76 10.76 0 0 1 2.031.469c.613.254.863.575 1.47.844.406.201.836.348 1.28.437.326.087.664.119 1 .094.25-.024.377-.12.625-.156a.52.52 0 0 1 .125 0l-.03.375c-.006 0 .004.028 0 .031v.062h.062l2.062.906c-.24.358-.33.796-.25 1.219.63 1.888 1.16 3.069 1.469 3.188.615.236.806.865 1.156 1.5-.123.132-.227.2-.344.312-.632.526-1.19 1.136-1.656 1.813-.745 1.188-1.248 1.203-.312 2.78.549.926.814 1.1 1.53 2.407a8.16 8.16 0 0 1 .782 1.969 7.64 7.64 0 0 1 .313 1.969l.968.375.657-.657.625-1.187.03-.906c-.226-.192-.323-.495-.25-.782.07-.368.515-.29.72-.625.283-.461-.332-.734-.657-1.093-.605-.67-1.43-.833-1.625-1.844-.052-.273.078-.427.375-.719l1.97-1.812a1.46 1.46 0 0 0 .968.125c.28-.053.53.125 1.406.375a2.21 2.21 0 0 0 1.219.03l.375-.093a3.5 3.5 0 0 1 .125.687c.053 1.06-.155 2.995.156 3.5a3.29 3.29 0 0 1 .281.563 1.69 1.69 0 0 1 .22.656v1.875a15.2 15.2 0 0 1-.22 1.75 2.02 2.02 0 0 1-.437 1.062c-.283.364-.595.418-.969.688l-.093 1 1.125.469 1.28.312.688-.281a1.18 1.18 0 0 1 .156-.625c.128-.247.232-.439.47-.531.362-.143.759.129.905-.094.16-.242.06-.338.032-.75-.046-.662-.184-.99-.282-1.657a11.8 11.8 0 0 1-.156-2.75 9.4 9.4 0 0 1 .156-1.562c.172-.883.486-1.311.688-2.188a21.53 21.53 0 0 0 .375-2.468c3.11.48 6.283.353 9.344-.375.169-.037.75-.25.75-.25.798.705 1.72 1.255 2.718 1.625-.006.101-.015.845 0 .968.037.288-.04.482.125.72.081.142.216.243.375.28a.66.66 0 0 0 .657-.156c.226-.201.184-.454.25-.75.02-.229.02-.458 0-.687.289.049.582.069.875.062.292.012.585.002.875-.031l.03.468c.028.245-.075.435.032.657.082.215.273.37.5.406a.66.66 0 0 0 .531-.094c.296-.185.264-.498.313-.844.015-.11.011-.692 0-.781l1.031-.375a5.12 5.12 0 0 1-.094.812 5.01 5.01 0 0 1-.25.938 7.2 7.2 0 0 1-.75 1.375c-.301.547-.646 1.07-1.03 1.562l-.563.657c-.256.337-.342.566-.594.906a4.67 4.67 0 0 1-.938 1.062c-.693.55-1.15.11-2.093.844l-.22 1.031 1.438.532 1.282.25.437-.25a1.01 1.01 0 0 1 .219-.75c.191-.24.475-.388.781-.407.361-.059.747.034 1.031-.218.35-.311.349-.914.625-1.47.735-1.485 1.754-2.812 3-3.905.613-.597 1.138-.758 1.657-1.438.246-.322.52-.469.53-.875.009-.283-.143-.415-.218-.687a9.62 9.62 0 0 1-.187-1c1.521.744.97.646 1.25 1.406.225.615-.033 1.04.062 1.687.111.756.466 1.114.531 1.875.019.783-.087 1.563-.312 2.313a7.14 7.14 0 0 1-.469 2c-.245.611-.643 1.149-1.156 1.562-.211.175-.369.25-.594.407l-.125 1.03 1.125.376 1.625.437.375-.343c.164-.655-.055-1.617.406-1.688.406-.062.693 0 .782-.312a5.01 5.01 0 0 0 .093-.625l.625-4.5.407-1.907c.06-.578.197-1.145.406-1.687.734-2.097-.208-2.375-1.063-3.656-.365-.426-.603-.945-.687-1.5-.097-.817.164-1.495.125-2.75v-2.875c.115-.053.222-.121.344-.188a4.08 4.08 0 0 0 2.375-2.469 3.43 3.43 0 0 0 .312-1.468c-.005-.332-.065-.652-.094-1.032a2.76 2.76 0 0 0-.312-.937c-.141-.31-.332-.594-.563-.844-.745-.742-1.689-1.252-2.718-1.469a13.91 13.91 0 0 0-4.125-.562c-1.423-.135-2.855-.155-4.282-.062-2.006.114-3.128.519-5.125.75a43.35 43.35 0 0 1-4.906.406c-2.26.042-4.42-.46-5.781-.344-2.451.21-2.493.762-6.188 1.063l-3.843.187-2.157-.687c.604-.143 1.13-.512 1.47-1.031.271-.366.232-.679.562-1.063.266-.312.443-.622.78-.969a2.2 2.2 0 0 0-.937-.437c-.31-.059-.627-.059-.937 0-.425.031-.84.148-1.219.344a2.77 2.77 0 0 0-.844.593c-.702-.452-1.433-.859-2.187-1.218-.941-.472-1.955-.779-3-.907v.002zm1.969 11.906h.062c-.012.01-.019.022-.03.031l-.032-.031z"/>
		<path id="C" d="M568.77 359.52l-.763.244c-.826.334-1.709.503-2.6.496-2.644.202-4.272-1.057-6.998-.847-1.404.108-2.025 1.19-3.46 1.548-.557.147-1.126.241-1.701.282l.512-1.034c-.697.143-1.404.231-2.115.264a7.55 7.55 0 0 1-1.523-.13l1.018-.95c-.441-.072-.874-.184-1.294-.336-.384-.153-.742-.365-1.06-.63l1.69-.353c1.556-.385 2.04-1.147 3.89-1.325 1.15-.111 3.032-.046 7.643.717 3.036.502 4.382.267 5.536-.258a2 2 0 0 0 1.103-1.788 2.14 2.14 0 0 0-.874-1.81c-.318-.246-.711-.374-1.113-.363"/>
		<path id="D" d="M524.8 350.61a1.84 1.84 0 0 0-1.34.291c-.48.296-.541.697-.888 1.142.445.1.699.361 1.142.254.306-.074.575-.253.761-.507a1.55 1.55 0 0 0 .428-1.156l-.103-.024h0z"/>
		<path id="E" d="M536.04 363.79l.407.8c.224.47.4.961.524 1.467.117.695.197 1.395.24 2.098l.077.376-.05 1.129m6.802-6.95l-.354 1.333-.944 3.46-.103.644m-10.859-3.977c.79.176.544 3.36 1.789 4.09"/>
		<path id="F" d="M555.97 363.61a8.14 8.14 0 0 0 .83-.068c1.467-.21 1.703.687 2.725 1.258 1.857 1.039 2.098 2.307 4.3 3.356l.32.155.848.429"/>
		<path id="G" d="M517.7 354.53c.23.064.47.083.707.054.332-.031.484-.238.817-.249.236-.045.479 0 .684.125a.83.83 0 0 1 .28.342c.101.133.145.3.124.466-.075.271-.334.449-.614.42a.55.55 0 0 1-.544-.272c-.069-.118-.083-.26-.039-.389-.53.199-1.126-.01-1.415-.497h0z"/>
	</defs>
</svg>
