<svg width="1e3" height="700" version="1.1" xmlns="http://www.w3.org/2000/svg">
    <g stroke-width="2.15477">
        <rect width="1e3" height="700" fill="#D60132"/>
        <rect width="680" height="700" fill="#FEDE00"/>
        <rect width="320" height="700" fill="#1007A0"/>
    </g>
    <path d="m469.68483 188.13886c12.08191 0 17.11348 10.32856 29.19559 10.32856 7.4597 0 11.64144-2.42262 18.14691-6.08476 4.5318-2.56942 7.47387-4.2438 12.68058-4.2438 5.33376 0 9.39119 1.7986 12.1215 6.36429 1.54166 2.58639 1.64903 4.49509 1.98213 7.505 0.12495 1.20567 0.14189 1.89743 0.14189 3.1172 0 5.54265-1.91162 8.51301-4.10827 13.58694-1.04485 2.44801-2.40567 3.77791-2.40567 6.44617 0 6.40381 7.96518 8.00195 14.38593 8.00195 1.2903 0 2.04991 0.0169 3.32897-0.13828 3.7921-0.48283 6.07347-0.84991 9.49836-2.55533 1.83814-0.91483 3.57462-1.06164 4.3878-2.97038-3.62819-0.16094-6.23144-3.30919-6.23144-6.94028 0-4.10546 2.88553-6.88383 6.80195-8.06688 0.74245-0.21177 1.31294 0.0706 1.98763-0.2852 0.95444-0.49129 0.98831-1.45129 1.83813-2.12613 1.94825-1.55294 3.38827-2.54967 5.88436-2.54967 1.63208 0 2.72755 0.20055 4.03479 1.13788 0.69184 0.49415 0.85553 1.41179 1.70556 1.41179 1.79282 0 2.67376-1.12941 4.46679-1.12941 1.45124 0 2.33218 0.19207 3.61125 0.84988 1.0618 0.54494 1.0618 2.12613 2.26738 2.12613 0.60418 0 0.72849-0.64095 1.27908-0.85553 1.53594-0.57883 2.51303-0.84989 4.17603-0.84989 3.45603 0 5.4947 1.77037 7.72799 4.39062 0.60439 0.71154 0.58744 1.57837 1.42032 1.98214 2.25044 1.11813 4.03478 1.0673 5.80515 2.83202 0.76532 0.76519 1.40062 1.05882 1.98785 1.98213 0.4066 0.66071 0.19695 1.43437 0.84707 1.84378 1.11813 0.69178 2.12889 0.31624 3.26396 0.98825 3.15404 1.87483 4.39352 4.67015 4.39352 8.35207 0 0.99388-0.0233 1.58117-0.14612 2.54967-1.48534 11.24056-10.0604 14.65987-17.14758 23.50607-3.01259 3.76661-5.38734 6.353-5.38734 11.18409 0 1.17176 0.35874 2.18824 0.99679 3.15955 0-2.43108 1.88895-4.4358 4.17879-4.4358 3.29508 0 5.5794 2.69367 6.01988 5.9464 0.0911 0.7652 0.0911 1.20848 0.14612 1.98496 1.77609-1.16894 3.11444-1.45413 5.24058-1.69696 1.15201-0.1243 1.81272-0.14675 2.97892-0.14675 6.23716 0 9.98118 2.25037 14.73894 6.23158 7.8523 6.58171 10.49219 13.31022 11.76278 23.50042 0.14612 1.15201 0.14612 1.80425 0.14612 2.97886 0 4.84803-0.92627 7.6264-2.54967 12.1695-2.25044 6.26547-4.67876 9.98408-10.20714 13.73659-2.67122 1.80424-4.56865 2.17977-7.51072 3.54073 3.11995 1.8607 4.67305 4.3878 4.67305 8.00193 0 3.93039-3.01005 7.28476-6.94043 7.28476-2.25023 0-3.81455-0.54493-5.38735-2.12047-4.39626 4.3878-5.24333 8.86596-5.24333 15.07495 0 3.71862 0.70879 5.91815 2.26739 9.27818 1.64606 3.5605 2.8292 5.64712 5.81087 8.21089 1.57553-2.36613 3.23854-4.10261 6.09315-4.10261 2.76143 0 5.1023 0.88094 6.23737 3.39391 0.33311 0.7567 0.036 1.38635 0.42353 2.12614 0.49681 0.95719 1.32989 1.16894 1.84089 2.12329 0.80196 1.46827 0.0212 2.72192 0.70878 4.24664 0.44322 0.9967 1.42011 1.13506 1.84364 2.1233 0.67765 1.52471 0.85003 2.56945 0.85003 4.24945 0 4.70687-4.28911 8.06972-8.99583 8.06972-1.41758 0-2.19962-0.5619-3.61698-0.42637 2.69071 2.69085 4.74357 3.8598 6.80469 7.08147 2.97892 4.65605 3.71862 7.96242 4.39056 13.45141 0.12705 1.02495 0.144 1.64614 0.144 2.69085 0 7.04193-1.09822 11.25468-4.25503 17.55402-3.00983 6.03675-5.57645 9.37985-11.05696 13.31305-8.53567 6.13557-14.75589 7.90594-25.08458 9.9022-6.62405 1.28189-10.42166 1.84661-17.15011 2.27013-8.60915 0.54495-13.51917 0.56189-22.11139 1.13508-11.26872 0.7567-19.07866 2.35202-27.06925 10.33985 3.76944 2.75012 6.37544 5.45792 6.37544 10.1196 0 4.77745-2.95901 8.19396-7.50775 9.69608-1.06731 0.35012-1.84385 0.0339-2.83768 0.57036-1.18864 0.61272-1.13781 1.97932-2.26738 2.68519-2.00183 1.27344-3.56043 1.55579-5.95762 1.55579-4.21564 0-7.08719-0.98542-10.06039-3.96427-3.45603 2.86873-4.62498 5.45792-8.50454 7.64618-1.27336 0.71436-1.93406 1.69696-3.39949 1.69696-2.3182 0-3.39102-1.46261-5.24609-2.82355-2.95626-2.16849-4.5318-3.59722-6.94593-6.3784-3.52952 2.11201-5.68678 3.82308-9.78087 3.82308-2.51577 0-4.10826-0.35012-6.23715-1.69414-1.11537-0.68612-1.28754-1.71672-2.40291-2.40848-1.17467-0.72566-2.14584-0.46306-3.40796-0.99106-4.72388-2.0358-7.79597-5.53981-7.79597-10.68997 0-4.50923 2.85461-7.3836 6.9489-9.27537-7.84954-7.84383-15.57479-9.20197-26.64868-9.90785-8.55261-0.54779-13.42896-0.57319-21.96442-1.13508-6.79072-0.46588-10.56588-1.14919-17.30004-2.27013-5.07944-0.83012-8.09499-1.08424-12.75385-3.25273-16.03496-7.46546-26.25629-17.71214-28.34854-35.24922-0.17788-1.50496-0.13553-2.37179-0.13553-3.89934 0-9.12854 3.59432-14.70506 10.06039-21.16534-1.66597-0.38683-2.78135 0.15247-4.40199-0.42637-4.02928-1.46542-6.93472-4.26356-6.93472-8.56383 0-1.59249 0.0678-2.65131 0.85004-4.03203 0.54487-0.97694 1.59248-1.17459 1.84088-2.26448 0.31342-1.45414-0.11223-2.48191 0.56478-3.82875 0.44048-0.89788 1.21131-1.10965 1.7026-1.97932 1.6827-2.99295 3.15384-5.20661 6.37841-5.20661 2.76143 0 4.34248 1.44001 5.94915 3.79202 2.69367-1.23672 3.78638-3.45603 5.31111-6.00286 2.53547-4.22685 3.53502-7.11253 3.53502-12.03399 0-3.43062-0.53641-5.32523-1.61218-8.58078-0.78206-2.33789-1.10119-3.93038-2.84339-5.66686-1.57555 1.57554-3.13118 2.12047-5.38163 2.12047-4.50066 0-7.94271-3.85696-7.94271-8.35487 0-3.33463 1.65473-5.81654 4.68152-7.21701-2.42537-2.0866-4.53456-2.26167-7.22548-3.96427-4.09704-2.58073-5.52859-5.30262-8.21929-9.34314-1.75914-2.63437-2.21655-4.47813-3.12292-7.50215-1.07577-3.64522-1.69985-5.825-1.69985-9.63115 0-0.98824 0.0233-1.5699 0.144-2.54966 1.01098-7.68007 2.38874-12.49141 7.22272-18.53945 2.87156-3.59721 4.82552-5.80806 9.07483-7.65182 3.61147-1.5586 5.77995-2.69085 9.71309-2.69085 1.18017 0 1.87477 0 3.04668 0.14675 1.80129 0.22871 2.95901 0.38965 4.53456 1.27344 0.60142 0.33317 1.69688 1.344 1.69688 0.63245 0-0.81599-0.42628-1.23671-0.42628-2.05271 0-3.25839 2.34637-6.22593 5.60186-6.22593 2.3578 0 3.31202 2.06966 4.467 4.10545 0.74245-1.24237 1.1321-2.08943 1.1321-3.54073 0-5.37605-2.88278-8.12337-6.23715-12.31918-7.29599-9.11158-16.44156-13.3808-16.44156-25.05901 0-3.48426 1.68567-5.85889 4.67857-7.64336 0.87247-0.51389 1.70259-0.16094 2.54966-0.70872 0.72573-0.46023 0.67214-1.23953 1.13507-1.98495 0.72848-1.14919 1.39765-1.66308 2.41138-2.5525 1.66597-1.44564 3.39398-0.98542 5.24609-2.26167 0.92055-0.63811 0.84432-1.55295 1.55585-2.40282 2.05562-2.48191 4.12521-3.82875 7.37222-3.82875 1.62933 0 2.6005 0.25413 4.10828 0.84989 0.5112 0.19483 0.70878 0.71153 1.27356 0.71153 1.1717 0 1.22824-1.48517 2.27289-1.98213 1.36102-0.6579 2.2983-0.84988 3.82302-0.84988 1.73648 0 2.59201 1.12941 4.32003 1.12941 0.63826 0 0.69459-0.79624 1.20855-1.12941 1.54738-1.04473 2.73031-1.42026 4.60528-1.42026 1.81273 0 2.94484 0.30495 4.4668 1.27907 1.43725 0.90071 1.50206 2.40286 2.97891 3.25274 0.81319 0.48564 1.49931 0.26541 2.40567 0.57034 4.04325 1.34402 7.08422 4.03769 7.08422 8.28149 0 2.29836-0.54487 3.95014-2.26166 5.45229-1.36653 1.20564-2.66254 0.99106-4.39352 1.55295 5.63024 4.4951 10.52056 5.24334 17.71786 5.24334 6.58742 0 14.3097-2.40849 14.3097-8.99019 0-3.05791-1.34388-4.62498-2.54671-7.43723-2.16298-5.00335-3.82873-7.99631-3.82873-13.45141 0-4.31722 0.60416-7.10688 3.11423-10.61374 2.59202-3.61415 6.04806-4.52898 10.49239-4.52898"
          fill="#C9B280" stroke-width="2.11766"/>
    <g transform="matrix(2.1176643,0,0,2.1176643,9.0405947,28.047724)" fill="#753C2A" stroke="#753C2A"
       stroke-miterlimit="3.864" stroke-width=".0946667">
        <path d="m171.34757 149.30504c0.3747-2.176 2.384-1.46133 2.384-1.46133 2.4053 0.74933 1.2547 3.548 1.2547 3.548-1.0854 2.82-5.94 1.86-6.5067-1.31467-0.5227-3.46667 1.6973-4.92933 4.688-4.744 2.6973 0.12667 4.4587 1.60667 6.676 4.57467 2.36 3.68 3.3693 6.36933 3.3013 11.52666-0.4773 8.44534-5.732 12.104-6.7146 12.79467-3.38 1.34267-6.6267 3.66-6.6267 3.66s-2.4747 0.22667-3.916-1.236c-2.404-2.00667-1.052-4.932-1.052-4.932 1.5733-2.63333 5.5053-2.464 6.028 0.12933 0.568 1.43734-0.2693 2.49467-1.0853 2.852-3.0134 0.64-2.6574-1.944-2.6574-1.944 0.2934 2.808 3.5574 1.72267 3.312-0.14 0.1187-1.23066-1.5106-3.53066-4.316-1.75333-1.2653 0.876-2.2373 4.05333 0.292 5.57867 2.832 1.40933 5.796 0 9.356-2.42534 1.98-1.33466 5.7294-5.26533 6.3347-12.20133 0.212-4.20133-0.4427-7.85333-2.512-11.27867 0 0-2.8453-5.03866-7.0053-4.852-3.328 0.064-4.1427 2.46934-3.5987 4.684 1.4427 2.58934 4.9173 2.464 5.528-0.116 0.2747-1.724-1.7027-2.80933-2.644-1.66133-0.2507 0.27067-0.4173 0.836-0.52 0.712"/>
        <path d="m173.73157 147.84398c2.236 0.16533 4.7467 5.84 4.7467 5.84 2.2586 7.192 0.7946 9.99333 0.376 11.51867-2.4467 6.62133-7.936 9.15333-8.7507 9.36133 0.5827-0.356 0.7093-0.772 0.7093-0.772 2.552-1.25333 5.4494-3.44933 7.6934-8.58933 0.8733-2.15334 1.6253-6.308-0.6254-11.96934 0 0-1.2226-2.8-2.7466-4.16133-0.2734-0.91733-1.4027-1.228-1.4027-1.228"/>
        <path d="m165.65747 170.92878c-0.168-2.924 2.0333-3.87333 3.5787-3.71333 3.8893 1.124 2.9053 4.84133 1.7666 5.59066 0.02-0.54133-0.095-0.85066-0.095-0.85066 1.1626-1.98134 0.272-3.30534-0.788-3.964-3.2307-1.47734-4.296 1.89333-4.0027 2.56z"/>
        <path d="m166.87617 167.88051c0.9573-2.25867 2.42-2.67867 3.884-2.29467 3.1613 1.41867 2.1747 4.21334 1.192 4.852 0.1227-0.52933-0.096-0.75866-0.096-0.75866 0.8253-1.10667 0.3907-2.408-0.4653-3.288-2.0947-1.564-3.6867 0.44266-3.992 1.11066z"/>
        <path d="m174.63787 151.93118 0.2387-0.43467c5.104 8.07734 0.3813 14.39867-2.1654 16.19334l-0.148-0.47467c2.9254-1.76 6.6894-8.616 2.0747-15.284"/>
        <path d="m172.14187 170.15264c1.896-1.08133 3.4293-2.984 3.8733-3.80933l0.1574-0.11334c-1.1547 2.428-2.6627 3.544-4.2214 4.49334z"/>
        <path d="m181.19907 149.53424c3.4573 2.96933 4.6947 7.06933 4.6947 7.06933v7.77067c-1.5787 4.208-3.8147 5.832-3.8147 5.832 0.1027-0.744 3.424-4.19867 3.4853-9.64267 0.1854-6.51466-2.9426-8.704-4.3653-11.02933"/>
        <path d="m183.33457 140.30371c1.5027 0.832 2.6573 3.60133 2.6573 3.60133v4.51867c-0.7586 1.82-1.8826 2.98267-2.6573 3.536l-0.308-0.55067c1.1627-0.86 2.5027-2.04266 2.5867-5.252-0.2107-4.272-3.244-5.572-2.2787-5.85333"/>
        <path d="m184.98037 131.94171 0.252-0.26c0.296 0.18133 0.752 1.16667 0.752 1.16667v4.644c-1.932 3.58-4.3267 3.66266-4.3267 3.66266 0.4827-0.28266 4.092-1.96933 3.956-6.03333-0.136-1.95067-0.6333-3.18-0.6333-3.18"/>
        <path d="m174.34627 142.19958c-3.02 0.61067-5.2573-1.052-6.6053-2.82267-0.9854-1.79466-3.4174-5.20266-2.1894-11.62533 0.712-2.74933 2.5587-6.38533 6.948-7.23467 2.6294-0.36666 4.916 0.84934 4.9654 2.34934 0.048 0.612-0.5854 1.94266-2.0614 1.45333 1.7027 0.88 2.4254-0.12267 2.5267-1.42667 0.012-2.31866-3.268-2.77466-3.268-2.77466-5.8667-0.46267-8.5933 4.152-9.4507 7.53733-1.3546 6.64267 1.3947 10.744 2.2614 11.916 2.92 3.808 6.4053 3.02 6.4053 3.02 3.3653-0.75867 2.8507-3.08933 2.2133-3.50667 0.8307 1.76534-0.94 2.89467-1.7453 3.11467"/>
        <path d="m177.16917 121.92211c-2.056-1.51333-3.9413 0.13733-4.1293 1.20133-0.836 3.972 4.0586 5.6 6.256 2.52934 2.068-3.196-0.043-5.912-0.043-5.912-3.1387-5.05734-10.5627-2.696-13.0947 0.29066-4.044 3.94934-6.0853 10.99067-3.5746 17.07067 2.736 6.70667 8.1146 8.14933 10.436 8.21333 4.956 0.29067 6.6946-3.26133 5.648-6.228-1.3187-2.75733-4.1427-2.75733-5.168-0.96266-1.316 2.65333 2.1146 4.304 2.7213 2.17866 0.063-0.396-0.208 1.22267-1.044 1.51867-0.964 0.16667-2.9587-0.628-2.3733-3.28133 0.6906-2.172 3.5493-2.964 5.7893-0.48 2.1307 2.55066 1.224 6.95866-2.8547 7.88l-5.3053-0.236c-4.092-1.72934-6.6573-4.48667-8.236-8.64534-1.8547-4.66-1.728-10.50933 2.456-15.92 2.2573-3.53066 9.2867-6.412 13.028-3.54933 2.5533 1.84133 4.2693 4.804 2.6467 8.10267-1.436 2.46-5.4467 3.40666-7.6174 0.39733-1.1253-1.89333-0.484-5.43067 2.82-5.26533 0.7747 0.16933 1.6387 1.09733 1.6387 1.09733"/>
        <path d="m173.34627 121.76971c-5.78 1.924-6.2907 8.56667-6.1387 10.86 0.8027 7.296 4.8 8.69867 6.0227 8.16667l-0.168-0.32267c-3.1227 0.34-5.1773-4.79733-5.1893-8.2-0.063-7.44933 4.1866-9.27067 5.028-9.5 0.1133-0.61067 0.4453-1.004 0.4453-1.004"/>
        <path d="m170.67057 129.55891c1.4053 5.12533 6.2307 5.964 8.872 5.524 4.32-0.708 6.1973-3.99067 6.1973-3.99067v-3.10933l-0.4226-1.20933-0.3694 0.45466s0.6227 1.328 0.6174 2.336c-0.2054 0.956-0.6307 3.39867-6.0227 4.92134-4.3107 0.692-7.9173-1.88534-8.7853-5.03334z"/>
        <path d="m174.43867 129.87918c5.0653 3.16933 10.52-1.74267 11.3627-4.07333v-5.11734l-0.9827-1.44-0.38 0.34267s1.0587 1.92667 1.08 3.80267c0.085 2.78266-4.3413 9.21733-10.912 6.48533z"/>
        <path d="m180.15477 117.14731c2.9453-0.91733 1.2733-3.21467-0.116-3.284-2.5 0.65467-2.1253 3.328-1.492 4.31467 4.176 4.23733 7.348-0.69334 7.0667-3.364 0.2386-7.73467-8.7054-12.95734-9.6774-16.73067-1.3013-3.59067-0.2853-6.03467-0.2853-6.03467 1.184-2.64666 3.8867-2.91466 3.8867-2.91466l-0.188 0.568s-2.4854 0.16533-3.4427 2.87866c0 0-0.8013 2.75067 0.712 5.99867 1.0493 2.21333 8.4213 8.724 9.0827 12.256v7.2s-2.0147 3.76533-5.6267 2.01467l-2.336-2.39467s-0.8693-3.84933 2.336-4.136c2.6067-7e-3 3.2227 4.04667 0.08 3.628"/>
        <path d="m181.72387 116.89998c3.3427-2.03867 1.4053-5.90667-0.3827-7.96133-2.508-3.07067-7.316-6.832-8.464-10.62534-1.4533-5.04533 2.5654-5.77466 2.5654-5.77466l0.1586-0.46667c-4.9226 1.34133-3.22 6.16133-3.22 6.16133 0.6507 3.90134 7.4574 9.13867 8.5827 11.04 0 0 3.2253 3.61334 1.2827 6.03867z"/>
        <path d="m183.59497 99.55771c-4.6267-2.256-5.1627-6.9-4.168-10.14533 2.8373-5.56667 7.04-2.65067 7.04-2.65067l-0.2693 0.356s-4.092-2.71333-6.428 2.636c-1.7574 6.724 3.7546 9.66267 3.7546 9.66267z"/>
        <path d="m188.26297 96.51718c-3.4053-2.17733-3.444-5.84933-2.5867-8.56133 2.024-4.11067 5.7107-1.99867 5.7107-1.99867l-0.372 0.32133s-3.0573-1.91066-4.9747 1.96534c-1.6773 5.33066 2.1454 8.09066 2.1454 8.09066z"/>
        <path d="m193.26947 96.32718c-5.2733-2.78933-3.5907-8.59733-2.2533-10.048 3.4213-3.436 6.3253-0.28267 6.644 0.676l-0.7174-0.0667s-2.1786-3.89733-5.6586-0.304c-2.5214 4.12667-0.2507 8.57467 1.9173 9.56z"/>
        <path d="m181.62617 186.64091c1.4733-2.048-0.5627-3.18933-1.8013-2.652-3.1147 1.672-0.388 5.41733 1.8533 4.948 4.9867-0.2 5.052-6.38267 1.672-8.724-4.2133-3.27467-10.3053 0.90267-11.9467 3.744-3.1773 4.88-0.9706 10.89733 0.672 13.172 4.5174 5.68267 9.068 7.55467 17.0334 8.42533 5.5906 0.66667 16.2293 0.432 22.1546 2.204 6.66 1.70667 10.808 4.68134 12.0454 8.39067 0.9053 3.07867-0.5694 7.46267-5.2854 7.828-4.1853 0.23467-6.2253-3.44933-5.656-5.988 1.236-5.58267 6.2907-4.38 7.328-2.44133 2.6774 5.78533-5.556 6.59733-3.9373 1.916l0.3253-0.26c-0.8813 1.20666 0.736 4.16 3.0147 1.94 1.736-2.15734-0.9747-6.80667-4.924-3.76134-1.672 1.50534-2.7133 6.572 2.7093 7.74267 4.9854 0.56667 6.2254-4.03467 6.06-5.872-0.2693-3.644-4.72-7.188-11.6466-9.05733-8.7667-2.04-15.9974-1.472-21.552-2.172-6.292-0.73867-11.8134-1.37067-17.7027-8.192-2.2773-3.108-4.1187-8.18934-1.24-13.74134 1.5733-2.54133 5.6893-6.61733 11.0453-5.18 7.028 3.24267 4.4507 10.128 1.4027 10.732-4.2067 0.844-5.4893-2.48133-5.32-3.85333 0.568-2.74133 2.9787-2.26533 2.9787-2.26533 2.8626 0.56666 1.104 2.948 0.7173 3.11733"/>
        <path d="m172.23697 178.86998c5.5627-4.67733 10.812-2.46267 10.812-2.46267 2.2253 0.45334 3.1333 2.084 3.1333 2.084l1.688 4.59734c-0.4586 4.21866-3.432 6.01733-3.432 6.01733l1.8854-3.552c1.212-1.67067 0.752-3.38533 0.236-4.97733-2.8-6.79734-11.4147-4.056-14.132-1.79867z"/>
        <path d="m182.38537 184.45998c-1.124-3.712-5.9773-2.12533-7.8733 0.76-3.4867 5.948-0.3067 14.02667 6.832 16.71333 6.652 2.96667 20.4973 1.336 27.108 2.13067 15.184 1.256 20.54 6.56267 22.6306 10.74 1.2974 4.804-2.4226 5.06267-2.76 5.14667l-0.3066 0.99333c3.8053-0.75067 3.6946-2.50533 3.6946-2.50533v-3.928c0-1.22267-3.9053-9.46934-23.844-10.90534-3.5146-0.836-16.8986 1.17334-26.3506-2.08533-7.9267-3.38533-9.1014-11.45067-6.3387-15.79733 0 0 2.5413-4.01067 6.1227-2.01867z"/>
        <path d="m183.00257 176.44424c-0.9893-2.8-10.2467-3.27467-15.6987 4.928-4.3093 7.892-0.296 17.88933 7.5134 22.44133 14.3493 8.19334 32.4973 0.67467 41.1973 10.16134l-0.712 0.14933c-6.9453-8.63867-26.428-1.11867-40.184-9.47733-6.4907-3.172-13.5613-14.07734-8.316-23.14534 2.7733-5.88 14.3867-10.61466 17.2907-4.71333z"/>
        <path d="m218.43477 223.69171c3.904 3.188 8.424 0.472 9.052-3.83067 1.2933-6.27066-4.4893-9.69333-12.5613-13.036l0.472 0.0947c9.916 3.3 14.148 7.688 12.9506 13.02533-0.3506 1.624-1.1106 3.29067-1.988 4.276-3.0173 2.54934-6.6 2.60934-8.9693-0.30533z"/>
        <path d="m289.79227 147.98078c-2.408 0.752-1.348 3.40933-1.348 3.40933 2.484 2.988 6.476 1.56934 6.7347-1.39066 0.2733-3.23734-1.8334-4.76667-4.8254-4.57867-2.9426-0.0747-5.2893 2.27333-6.6546 4.40667-1.6414 2.88666-3.2254 6.544-2.94 11.57466 0.3706 7.84934 5.3493 12.05467 6.3333 12.74534 1.6867 1.05466 6.1987 3.54133 6.1987 3.54133s2.7546 0.88533 4.7333-0.90133c2.2907-2.22267 0.5693-5.148 0.5693-5.148-2.6586-3.09734-5.6453-1.67067-5.9786 0.128-0.5667 1.44266 0.097 2.83333 1.1266 3.028 3.0694 0.46266 2.4814-2.176 2.4814-2.176-0.208 2.97333-3.732 1.988-3.4147-0.20134 0.3667-1.58666 1.928-3.148 4.5507-1.50533 0.8333 0.996 2.0413 3.584-0.2814 5.4-3.1973 1.89067-6.112-0.29333-9.4866-2.17867-1.984-1.33866-5.9387-5.33333-6.5454-12.27066-0.2106-4.19734 0.7387-8.276 2.6534-11.40667 0 0 2.456-4.72667 7.24-4.85067 3.5773 0.34267 3.6973 3.07867 3.2906 4.74134-0.8306 2.43066-5.016 2.04266-5.3133-0.37867-0.1893-0.81067 0.2827-1.91333 1.6147-1.79733 0.049-0.25334-0.7387-0.19067-0.7387-0.19067"/>
        <path d="m289.79227 147.98078c-2.7507 0.324-5.0467 5.62533-5.0467 5.62533-2.344 6.968-0.8 9.98934-0.3826 11.516 2.7773 6.26 5.7826 8.00534 9.0053 9.48534-0.5867-0.356-0.7307-0.66267-0.7307-0.66267-3.0386-1.52667-5.7146-3.71067-7.8-8.82267-0.8706-2.152-1.4133-7.22266 0.8014-11.97066 0 0 1.284-2.61867 2.7466-3.93867 0.272-0.92133 1.4067-1.232 1.4067-1.232"/>
        <path d="m297.92897 170.91304c0.4667-1.96267-1.5533-4.06133-3.6467-3.69733-3.9733 0.836-2.7706 4.76266-1.8533 5.30533-0.023-0.54267 0.095-0.56667 0.095-0.56667-1.244-2.12666-0.408-3.364 0.8773-4.07333 3.2333-1.284 3.932 1.98267 3.676 2.46133z"/>
        <path d="m296.69717 167.88838c-0.456-2.74-2.616-3.02-3.9387-2.56933-3.1533 1.05466-1.8386 4.65066-1.256 5.34-0.1226-0.52934 0.072-0.98 0.072-0.98-0.796-1.18667-0.5186-2.91734 0.5694-3.59867 2.48-1.29733 3.7653 0.40533 3.6986 1.31467z"/>
        <path d="m289.29867 152.05504-0.8547-0.756c-5.2906 7.12267-0.5106 14.68267 2.2747 16.58133l0.096-0.75866c-2.044-1.388-6.7347-9.00267-1.516-15.06667"/>
        <path d="m291.29227 170.34544c-2.732-1.47333-3.568-3.148-3.9867-3.82l-0.2746-0.32933c0.6773 1.62533 2.224 3.48533 4.496 4.57333z"/>
        <path d="m281.96277 149.40798c-4.0707 3.81733-4.5747 7.648-4.5747 7.648v6.60133c0.6387 2.42267 1.9867 4.41067 2.8974 5.45067 0.4466 0.516 0.9 0.8 0.9 0.8-2.2414-3.00267-3.1134-4.216-3.1774-9.664-0.184-6.51467 2.6027-8.58 3.9547-10.836"/>
        <path d="m280.00187 140.30371c-2.0147 0.79333-2.56 3.46133-2.56 3.46133v4.54267c0.7 1.35333 1.4133 2.564 2.6547 3.17867l0.2213-0.24134c-0.9587-0.62266-2.2573-1.54533-2.3093-5.17066-0.029-4.856 2.088-5.104 1.9933-5.77067"/>
        <path d="m278.76747 132.34278-0.456-0.40133c-0.4187 0.628-0.9227 1.54533-0.9227 1.54533v3.636c1.088 2.132 2.0507 3.25867 3.0867 3.84533 0.8467 0.66934 1.2133 0.48934 1.2133 0.48934-0.9093-0.78267-3.7546-2.328-3.68-6.41734-0.077-2.012 0.7587-2.69733 0.7587-2.69733"/>
        <path d="m289.17237 142.29331c2.5573 0.38 4.9093-1.09333 6.48-2.99733 0.9907-1.79334 3.128-5.19334 2.0427-11.628-0.7134-2.74667-2.2507-5.952-6.6774-6.97867-2.6266-0.368-4.844 0.72133-4.9466 2.09467 0.012 0.75866 0.2306 1.97066 1.7093 1.42933-1.3533 1.168-2.3027-0.0707-2.232-1.40133 0.4173-2.78 3.308-2.73734 3.308-2.73734 5.4413-0.36933 8.2627 4.11467 9.12 7.49734 1.3547 6.64533-1.0627 10.74533-1.928 11.91866-2.9213 3.808-6.4467 3.22934-6.4467 3.22934-3.76-0.45734-3.228-3.15867-2.1733-3.71734-1.4893 1.98134 0.9133 2.90534 1.744 3.29067"/>
        <path d="m286.37947 121.88838c1.9253-1.85467 3.436 0.21067 3.8653 1.15467 0.72 4.02133-3.8146 5.76533-6.0186 2.52933-2.0707-3.19867-0.24-5.91467-0.24-5.91467 3.372-4.872 10.112-2.58133 12.9013 0.464 4.2627 4.46534 6.1507 10.92667 3.7947 16.89867-2.208 6.11867-6.724 7.68-10.1787 8.30533-5.4387 0.46-6.9133-3.524-5.9013-6.32 1.316-2.75733 4.2333-2.49866 5.168-0.98 1.1946 2.628-1.484 4.15467-2.468 2.95734 0 0-0.332 0.32 0.504 0.612 0.7146 0.47466 3.7053-0.17734 2.7373-3.132-0.7707-2.06534-3.6213-3.048-5.7053-0.48-1.96 2.61466-0.5947 6.65466 3.036 7.53333l4.9333 0.28533c4.8307-1.436 7.7293-4.88933 8.9187-8.824 1.6-4.36666 1.32-10.608-2.94-15.92-3.4907-3.936-8.428-5.99866-12.7147-3.87333-2.5507 1.836-4.4507 4.96667-2.5627 8.42667 1.1734 1.94266 4.6694 3.47066 6.8787 0.38 0.9413-1.71334 0.784-4.99734-2.396-5.244-0.7733 0.164-1.612 1.14133-1.612 1.14133"/>
        <path d="m290.34037 121.97038c5.7347 1.392 6.0693 7.56933 5.788 10.47067-0.6093 6.63066-3.9587 8.24933-5.8387 8.27066l0.2414-0.408c3.72-0.38 4.932-4.852 5.2173-8.112 0.1613-6.768-2.88-9.10933-5.1227-9.51333-0.1133-0.612-0.2853-0.708-0.2853-0.708"/>
        <path d="m292.52397 129.64224c-1.424 4.76533-5.3707 5.75333-8.5427 5.16533-5.0413-1.01466-6.5906-4.168-6.5906-4.168v-3.16933l0.9987-0.812 0.2853 0.47333s-1.0013 1.35734-0.664 2.35067c0.108 1.79067 0.888 3.57467 5.9707 4.92267 3.912 0.588 7.5933-1.33734 8.4973-5.092z"/>
        <path d="m289.10597 129.97558c-4.7773 2.892-11.1453-1.992-11.4773-5.116v-4.17067s0.72-1.792 1.1386-2.08266l0.476 0.47066s-1.796 2.16667-1.2346 4.23734c-0.3374 2.61066 3.7893 8.73866 10.7213 6.75466z"/>
        <path d="m282.95497 117.06544c-2.26 0-1.6027-3.45467 0.528-3.10267 2.3853 0.764 1.772 3.35334 1.3093 4.07334-3.5986 4.316-8.016-0.58-6.784-6.06534 0.664-5.43333 8.2934-9.948 9.5774-13.96933 1.4333-3.66667 0.2133-5.92933 0.2133-5.92933-0.5787-2.292-4.1-3.03467-4.1-3.03467l0.2867 0.568s2.9973 1.04933 3.224 3.03733c0 0 1.0106 2.37467-0.568 5.87334-2.0174 3.936-8.448 8.96266-9.108 12.24266v5.93334s2.0333 4.71866 5.9106 3.23866l2.6267-2.652c-0.011-0.9 0.188-3.388-2.6267-3.74266-2.5826-0.108-3.1666 4.072-0.4893 3.52933"/>
        <path d="m281.32737 116.42464c-3.1-3.092 0.8547-7.496 0.8547-7.496 2.4453-3.732 7.2013-5.40133 8.444-10.69867 0.9986-5.232-2.6574-5.49466-2.6574-5.49466l-0.095-0.52134c4.7413 0.704 3.6053 5.94134 3.6053 5.94134-0.6067 5.12-6.476 8.38133-8.396 11.03866 0 0-3.644 3.73467-1.84 6.472z"/>
        <path d="m279.90677 99.65251c4.5867-2.63733 5.168-6.73467 3.9813-10.32533-2.9853-5.524-7.0186-2.46934-7.0186-2.46934l0.1413 0.28534s3.8187-2.712 6.2147 2.532c1.7666 6.61066-3.4627 9.97733-3.4627 9.97733z"/>
        <path d="m275.25837 96.43011c3.52-2.36933 3.1973-6.27467 2.0853-8.556-1.5426-4.11333-5.2626-1.81867-5.2626-1.81867l0.2346 0.236s2.7187-1.94533 4.3627 1.87334c1.9733 5.38933-1.6133 8.36-1.6133 8.36z"/>
        <path d="m270.23747 96.43011c5.1053-2.97867 3.4707-8.864 1.9387-10.23333-2.732-3.35334-6.3307 0.032-6.3574 0.75866l0.3294 0.0467s2.1853-3.81067 5.5066-0.496c2.812 4.09467 0.6734 8.78667-1.52 9.87733z"/>
        <path d="m281.12677 186.43264c-0.7827-2.34267 1.24-2.98 2.4787-2.444 2.5293 1.77333 0.728 5.03333-1.764 4.92667-4.988-0.2-5.0547-6.66267-1.6747-9.00134 4.6707-2.54933 9.6053 0.74934 11.692 3.98 3.056 5.772 0.728 11.41867-0.5693 13.152-4.52 5.68267-9.796 7.88-16.8747 8.54667-6.6907 0.92933-15.04 0.228-22.156 2.22933-7.036 1.62934-11.4347 5.00134-12.196 8.248-0.9907 3.56667 0.9547 7.356 5.4347 7.90667 3.5066 0.76667 6.7226-2.96267 5.6626-6.16-1.6333-4.95333-6.38-4.5-7.588-2.36933-2.8813 5.02533 4.8147 6.86533 4.0827 2.536 0 0-0.072-0.45867-0.6653-1.01867 1.228 1.44533-0.4907 3.94533-2.568 2.36933-2.3827-2.05066 0.2-6.69466 4.3693-3.88666 1.9373 1.46 2.9973 6.35333-2.1813 7.77333-5.34 0.36533-6.5027-4.156-6.356-6.052 0.556-4.08933 5.044-7.144 11.972-9.01467 7.6573-2.07866 14.8613-1.37866 21.5506-2.13733 4.9787-0.51467 11.9267-1.55467 17.4187-8.288 2.156-2.624 4.016-8.172 1.1387-13.72133-1.5734-2.54267-5.2814-6.392-10.6574-5.13734-6.6853 1.54534-4.676 10.012-1.4093 10.616 4.612 1 5.5333-2.17866 5.14-3.804-0.5693-2.74266-2.7947-2.24266-2.7947-2.24266-3.2226 0.22133-2.22 2.89333-1.4853 2.99333"/>
        <path d="m290.48227 178.50411c-5.004-3.828-10.064-2.096-10.064-2.096-1.424 0.37467-3.1693 2.08267-3.1693 2.08267l-1.5974 4.51333c-0.1 3.972 3.4014 5.912 3.4014 5.912l-1.804-2.93867c-0.7787-1.052-1.1974-2.88933-0.4747-5.02133 2.832-6.476 10.6547-4.47067 13.9613-2.13333z"/>
        <path d="m280.66337 184.17878c1.9987-3.80533 6.6707-2.10133 8.396 0.94533 3.628 6.60267-0.3627 14.26534-6.8827 16.728-7.6973 2.948-20.4973 1.33734-27.108 2.132-15.1853 1.25334-20.5413 6.55867-22.6306 10.73734-1.008 4.74933 2.5493 5.288 2.8813 5.372l0.2853 0.77333c-3.3493-0.78133-3.7946-2.508-3.7946-2.508l-0.095-3.95067c1.2787-1.67733 4.2907-9.48133 23.9387-10.884 3.512-0.83866 16.9013 1.212 26.3546-2.048 7.9-3.104 9.2387-11.52133 6.6267-15.78133-0.664-1.384-4.26-4.612-6.7373-2.08667z"/>
        <path d="m280.38077 176.40798c1.3533-2.50533 10.1173-2.95867 15.604 4.88533 4.6333 8.29067-0.2787 18.95067-7.2853 22.59334-14.728 8.33066-33.5934 0.47066-41.3694 10.14133l1.0334 0.36933c6.8053-8.576 26.116-1.73466 40.176-9.37333 8.2533-3.628 13.0173-15.05867 8.2533-23.60267-3.116-5.52-13.992-9.976-17.1227-4.72933z"/>
        <path d="m245.37557 223.78664c-3.5933 3.684-8.996-0.2-9.5813-4.008-1.0734-6.636 4.732-9.70533 12.8093-13.048l-0.3827 0.0933c-10.1 3.40934-14.088 7.46267-12.9013 13.04267 0.532 2.124 1.268 3.21067 2.2787 4.276 2.6866 2.816 7.88 2.5 8.724-0.26133z"/>
        <path d="m226.35987 224.22171s3.628 4.19333 5.756 4.34533c1.9173-0.20666 5.624-4.408 5.624-4.408l-0.7587-0.84533s-1.7466 2.75733-5.3 4.28267c-3.1146-1.30667-4.9706-3.82-4.9706-3.82z"/>
        <path d="m185.70427 175.83744c0.7867 12.03333 11.6293 17.076 22.2973 16.49067 4.4734 0 16.8294-3.95867 23.9947 3.26933 9.024-7.77067 18.672-2.864 25.616-3.364 19.8293 0 20.2013-15.45067 20.1587-16.53467l-0.8067 0.0373c0 2.172-0.5773 4.176-0.9027 4.92666-1.8026 3.47067-4.9453 10.98934-19.672 10.812-3.096 0.50134-16.8986-3.99866-24.628 3.07867-7.7066-6.74267-20.8586-2.94267-24.3293-2.984-1.7387-0.12267-12.3667 0.33733-18.3107-7.20267 0 0-1.9213-1.32-3.0373-8.55333z"/>
    </g>
    <g transform="matrix(2.1176643,0,0,2.1176643,9.0405947,28.047724)" fill="none" stroke="#753C2A"
       stroke-miterlimit="3.864">
        <path d="m277.38857 175.90131v-75.98266" stroke-width=".853333"/>
        <path d="m185.89437 175.90131v-75.98266" stroke-width=".474667"/>
        <path d="m277.81827 100.09798h-92.1133" stroke-width=".378667"/>
    </g>
    <g transform="matrix(2.1176643,0,0,2.1176643,9.0405947,28.047724)" fill="#753C2A">
        <path d="m190.81757 191.98078c0.3827-0.41467 0.672-0.25867 0.744-0.44933 0.053-0.13867-0.061-0.152-0.216-0.21334-0.212-0.0773-0.4307-0.124-0.6413-0.19866-0.2134-0.0813-0.4094-0.19067-0.6254-0.27334-0.092-0.0347-0.2946-0.13866-0.3546 0.0187-0.108 0.288 0.756 0.264 0.4653 1.04133-0.047 0.132-0.172 0.41734-0.604 0.88534l-1.9587 2.132c-0.045 0.0493-0.1173 0.15466-0.164 0.14-0.041-0.02-0.036-0.148-0.039-0.21467l0.029-3.02133c0-0.576 0.053-1 0.1413-1.25067 0.1334-0.34533 0.532-0.0547 0.6174-0.276 0.053-0.14 0.011-0.148-0.2267-0.23467-0.1213-0.0453-0.348-0.096-0.8253-0.272-0.2534-0.0947-0.492-0.22266-0.7387-0.31333-0.1133-0.0413-0.3187-0.19333-0.392 5e-3 -0.021 0.0573 0.055 0.14134 0.076 0.16134 0.2747 0.19466 0.3467 0.32266 0.3507 0.69466l0.053 5.50267c0 0.396 0.048 0.50667 0.12 0.53333 0.085 0.032 0.1387-3e-3 0.3013-0.18933z"/>
        <path d="m193.10147 192.83491c0.252-0.80267 0.724-0.32 0.816-0.60667 0.033-0.1 0-0.13066-0.2293-0.2-0.432-0.13866-0.7147-0.188-0.988-0.27466-0.2667-0.0853-0.5507-0.21067-0.8467-0.30667-0.068-0.0213-0.2507-0.104-0.292 0.0373-0.096 0.296 0.8387 0.332 0.5933 1.09734l-1.2733 4.04c-0.2533 0.79733-0.7307 0.408-0.8227 0.70266-0.016 0.0413-0.016 0.10534 0.049 0.128 0.1973 0.0627 0.5346 0.128 0.8613 0.23467 0.592 0.184 0.8613 0.30667 1.14 0.396 0.1773 0.0547 0.2533 0.0413 0.2853-0.052 0.084-0.26933-0.8866-0.14933-0.5586-1.18267z"/>
        <path d="m193.74217 197.28011c-0.3133 1.06533-0.8493 0.60133-0.928 0.87467-0.051 0.16933 0.116 0.19066 0.1973 0.216 0.3814 0.11066 0.7747 0.19066 1.1867 0.312 0.3187 0.0947 0.5147 0.18933 0.6427 0.22666 0.1773 0.056 0.2533 0.0213 0.2746-0.0547 0.091-0.304-0.7653-0.18-0.4986-1.088l0.4346-1.46267c0.091-0.29467 0.061-0.36933 0.4614-0.25067 0.3826 0.11334 0.4986 0.232 0.5626 0.65334l0.2454 1.528c0.092 0.56133 0.176 1.16533 0.7786 1.34533 0.304 0.088 0.864 0.052 0.94-0.20933 0.019-0.068-0.01-0.132-0.079-0.15334-0.077-0.0227-0.1694 5e-3 -0.2467-0.016-0.056-0.0173-0.2027-0.0613-0.2307-0.21866-0.232-1.22934-0.5173-2.64667-0.5013-2.69734 0.024-0.084 0.2693-0.0907 0.5467-0.224 0.2813-0.13733 0.5946-0.38533 0.756-0.92666 0.116-0.388 0.3173-1.628-1.352-2.12134-0.512-0.152-1.04-0.27066-1.552-0.42266-0.4787-0.14134-0.532-0.19334-0.88-0.29734-0.092-0.0293-0.1814-8e-3 -0.208 0.076-0.087 0.30667 0.836 0.23867 0.5533 1.18667zm2.1013-3.64133c0.148-0.50934 0.3867-0.43867 0.6694-0.356 0.7693 0.22933 1.0106 0.98266 0.7613 1.81333-0.1467 0.496-0.3347 0.95733-1.492 0.61467-0.2267-0.0667-0.5093-0.14934-0.4453-0.36z"/>
        <path d="m199.97777 199.10451c-0.2467 1.02133-1.024 0.396-1.1027 0.73333-0.044 0.18667 0.089 0.21067 0.2267 0.244 0.308 0.072 0.5747 0.10134 1.092 0.224 0.5173 0.128 0.764 0.22134 1.0733 0.296 0.224 0.0533 0.3747 0.116 0.4214-0.0893 0.059-0.24-0.9907-0.22667-0.736-1.28667l0.932-3.87466c0.097-0.41467 0.1866-0.44 0.504-0.36l0.656 0.156c0.8986 0.176 0.4213 1.07066 0.7306 1.14666 0.2 0.048 0.1974-0.308 0.2054-0.41733l0.1053-0.80533c0.013-0.0907 0.041-0.212-0.075-0.23867-0.72-0.17067-1.244-0.26267-2.372-0.532-1.132-0.272-1.64-0.42933-2.36-0.60133-0.116-0.028-0.1426 0.0893-0.1706 0.17466l-0.396 1.104c-0.043 0.108-0.1374 0.28667 0.028 0.324 0.3453 0.0853 0.3853-1.09733 1.2586-0.88666l0.648 0.15466c0.316 0.0787 0.3854 0.14 0.288 0.55067z"/>
        <path d="m209.36457 196.70731c0.308-0.472 0.62-0.37067 0.656-0.56933 0.027-0.14667-0.087-0.14134-0.2493-0.172-0.2187-0.0387-0.4427-0.0467-0.6654-0.0867-0.2266-0.0413-0.4373-0.11733-0.664-0.15733-0.096-0.0187-0.3173-0.088-0.348 0.0787-0.056 0.30267 0.7934 0.12934 0.6427 0.944-0.025 0.14-0.097 0.44-0.44 0.97867l-1.5613 2.436c-0.033 0.0587-0.089 0.17467-0.1334 0.16267-0.048-5e-3 -0.064-0.13334-0.077-0.19867l-0.4987-2.98133c-0.095-0.56934-0.1213-0.996-0.073-1.25467 0.065-0.364 0.5107-0.148 0.556-0.38133 0.027-0.148-0.012-0.14534-0.264-0.19334-0.1267-0.0213-0.3573-0.0307-0.8587-0.12133-0.2666-0.0493-0.5253-0.13467-0.7826-0.17867-0.116-0.0267-0.3494-0.14-0.3854 0.068-0.011 0.0613 0.079 0.132 0.1027 0.14534 0.3053 0.14533 0.396 0.264 0.4653 0.624l1.008 5.412c0.075 0.38933 0.1374 0.492 0.216 0.50533 0.085 0.016 0.1347-0.0267 0.2614-0.23733z"/>
        <path d="m209.80717 201.68118c0 0.216-0.016 0.284 0.172 0.368 0.4347 0.19067 0.7987 0.46533 1.2787 0.54667 1.028 0.17066 1.8773-0.48267 2.0693-1.624 0.1867-1.10534-0.2707-1.56667-1.0413-2.11467-0.9654-0.68933-1.3774-0.876-1.28-1.45867 0.099-0.58133 0.5066-0.85466 1.024-0.76666 1.3506 0.224 1.196 1.86 1.376 1.89333 0.172 0.0307 0.2133-0.072 0.2293-0.264l0.1107-1.18133c0.017-0.204 0.064-0.32934-0.055-0.352-0.1027-0.016-0.3213 0.092-0.424 0.072-0.2347-0.036-0.5067-0.432-1.1507-0.54-0.9173-0.152-1.6693 0.47333-1.8346 1.47333-0.1534 0.916 0.2533 1.332 0.8733 1.77467 1.1573 0.83066 1.6333 1.02533 1.508 1.764-0.116 0.696-0.6573 1.04-1.2693 0.93333-0.8694-0.14533-1.2227-1.01733-1.3347-1.896-0.012-0.11733-0.015-0.19867-0.1387-0.21867-0.1973-0.0347-0.16 0.23067-0.1573 0.35867z"/>
        <path d="m221.51357 198.38171c0.256-0.5 0.5787-0.432 0.5933-0.636 0.013-0.14933-0.1026-0.13067-0.2693-0.144-0.2213-0.0173-0.4453 0-0.6667-0.0173-0.2306-0.02-0.4493-0.0693-0.68-0.088-0.095-8e-3 -0.3213-0.052-0.3346 0.116-0.024 0.30533 0.8013 0.0453 0.736 0.86933-0.011 0.14267-0.049 0.44933-0.332 1.01867l-1.3 2.58933c-0.027 0.06-0.069 0.17867-0.116 0.17867-0.048-5e-3 -0.079-0.132-0.097-0.19467l-0.808-2.91333c-0.1546-0.552-0.2253-0.97334-0.2053-1.23734 0.029-0.372 0.496-0.2 0.5147-0.43733 0.011-0.15333-0.029-0.14533-0.2827-0.16667-0.1267-8e-3 -0.3613 8e-3 -0.8667-0.028-0.2693-0.0213-0.536-0.08-0.8-0.10133-0.116-9e-3 -0.3586-0.1-0.3733 0.11067-0.01 0.0627 0.095 0.124 0.116 0.132 0.3187 0.116 0.4213 0.22266 0.5293 0.57466l1.5694 5.27334c0.116 0.38266 0.1866 0.47733 0.2653 0.48533 0.087 7e-3 0.1307-0.0467 0.236-0.26533z"/>
        <path d="m222.76617 202.65904c-0.01 0.90267-0.7693 0.736-0.772 1.08533 0 0.15334 0.1573 0.10934 0.244 0.11067 0.2173 0 0.4307-0.0307 0.6853-0.0307 0.2774 5e-3 0.5467 0.0413 0.936 0.0413 0.1054 5e-3 0.304 0.0133 0.3067-0.108 0-0.41334-1.02 0.17733-1.0067-1.51734l0.025-3.00133c0-0.0787 0.019-0.14267 0.067-0.14 0.04 0 0.087 0.0427 0.14 0.116l3.7867 4.62267c0.052 0.0707 0.095 0.124 0.2053 0.124 0.095 0 0.095-0.0693 0.097-0.26534l0.041-4.95066c0.01-0.92534 0.684-0.70667 0.6867-0.97067 0-0.0293 0-0.11467-0.1507-0.11733-0.072 0-0.348 0.0333-0.852 0.0293-0.548-5e-3 -0.7773-0.044-0.9053-0.0467-0.1014 0-0.128 0.088-0.128 0.15067 0 0.29067 0.9666 0.14 0.9613 0.94533l-0.025 2.93734c0 0.22133-0.019 0.32533-0.068 0.32533-0.048 0-0.14-0.10667-0.244-0.232l-3.1614-3.91733c-0.1413-0.168-0.044-0.232-0.3-0.232-0.4226-5e-3 -0.628 0.0253-0.836 0.0253-0.1506 0-0.2946-0.036-0.4426-0.036-0.097 0-0.1374 0.0693-0.1374 0.14667-0.01 0.42266 0.8907-0.14134 0.8747 1.55066z"/>
        <path d="m230.46797 198.68784c0.01-0.83867 0.5987-0.51733 0.6013-0.816 0-0.10667-0.037-0.12533-0.2773-0.12533-0.4507-5e-3 -0.7387 0.028-1.0253 0.024-0.2787 0-0.588-0.0373-0.896-0.0427-0.075 0-0.272-0.028-0.2747 0.12133 0 0.30934 0.8533 0.0693 0.848 0.876l0.01 4.23467c-0.01 0.83867-0.5787 0.604-0.5813 0.912 0 0.0413 0.015 0.10533 0.087 0.10533 0.208 0 0.548-0.0293 0.8907-0.0267 0.62 5e-3 0.916 0.0427 1.208 0.048 0.1813 0 0.2533-0.0347 0.256-0.132 0-0.28134-0.8907 0.11733-0.88-0.97067z"/>
        <path d="m233.79867 202.78811c0.01 1.04933-0.8947 0.636-0.8893 0.97733 0 0.196 0.1373 0.18534 0.28 0.18267 0.316-3e-3 0.58-0.04 1.112-0.0453 0.532-3e-3 0.7973 0.032 1.1133 0.0267 0.232-3e-3 0.3907 0.0213 0.388-0.18933 0-0.24933-1.0187 0.0187-1.0267-1.06533l-0.037-3.992c0-0.42267 0.077-0.46534 0.4013-0.47067l0.6787-5e-3c0.9133-0.0413 0.6667 0.94133 0.9853 0.936 0.208 0 0.116-0.344 0.1-0.44934l-0.095-0.812c-0.01-0.0907-0.01-0.21066-0.1294-0.21066-0.7413 8e-3 -1.2706 0.0467-2.4333 0.0573-1.16 8e-3 -1.6933-0.0213-2.4307-0.016-0.1213 0-0.1186 0.12667-0.1266 0.21467l-0.1174 1.16533c-0.016 0.112-0.06 0.308 0.1067 0.308 0.356-5e-3 0.1067-1.15733 1.0067-1.16533l0.6666-5e-3c0.3267-3e-3 0.4067 0.0387 0.412 0.464z"/>
        <path d="m239.79097 201.48851c0.2053-0.016 0.2533 0.068 0.568 0.732 0.1053 0.23333 0.1773 0.38533 0.1893 0.58 0.043 0.53867-0.5266 0.48667-0.508 0.73867 0.01 0.12133 0.112 0.1 0.2547 0.088 0.2293-0.0187 0.52-0.0773 0.8667-0.104 0.5226-0.0427 0.7413-0.0227 1.0266-0.0453 0.2134-0.0173 0.288-8e-3 0.2747-0.15466-0.024-0.29067-0.424 0.084-0.7253-0.52l-2.5654-5.21467c-0.1253-0.256-0.14-0.272-0.2133-0.26667-0.1 0.0107-0.128 0.18-0.172 0.32134l-1.7307 5.496c-0.1573 0.50533-0.5666 0.48533-0.5506 0.69066 0.01 0.11067 0.1333 0.0827 0.2466 0.076 0.2294-0.0187 0.4547-0.0707 0.6947-0.0893 0.2547-0.0213 0.4933-5e-3 0.7467-0.0227 0.1666-0.0133 0.416 0.028 0.4026-0.16-0.017-0.23333-0.864-0.0253-0.9146-0.66133-0.016-0.21067 0.072-0.52667 0.1146-0.70933 0.1334-0.592 0.2974-0.64 0.432-0.65334zm-1.36-0.372c-0.1453 0.012-0.2533 0.028-0.2613-0.0573-0.011-0.12534 0.029-0.224 0.061-0.336l0.4867-1.60267c0.033-0.10133 0.064-0.11067 0.08-0.11067 0.039-5e-3 0.016-3e-3 0.069 0.0627l0.7747 1.544c0.051 0.10133 0.1053 0.19067 0.1133 0.31733 0.01 0.0893-0.1053 0.0893-0.248 0.0987z"/>
        <path d="m245.93547 197.83104c-0.08-0.604-0.048-0.61733 0.9067-0.74133 1.5186-0.2 1.0386 0.904 1.4106 0.85466 0.1814-0.0213 0.1027-0.30666 0.081-0.41866l-0.148-0.86267c-0.01-0.08-0.076-0.15867-0.1787-0.14533-0.6933 0.0933-1.2333 0.19733-1.7933 0.272-1.204 0.15733-1.7774 0.19733-2.1014 0.24-0.1106 0.016-0.16 0.092-0.152 0.17066 0.044 0.35067 0.8974-0.048 1.004 0.744l0.5387 4.092c0.1413 1.068-0.52 0.67467-0.4707 1.076 0.011 0.0533 0.064 0.0893 0.1667 0.0773 0.432-0.056 0.76-0.136 1.0013-0.16667 0.3494-0.048 0.6467-0.0507 0.944-0.0893 0.1987-0.0267 0.368-0.012 0.3454-0.18667-0.031-0.23733-0.8934 0.0987-1.0227-0.87333l-0.1693-1.292c-0.067-0.512-0.112-0.612 0.248-0.66l0.5853-0.076c0.8187-0.108 0.7227 0.848 0.9733 0.81466 0.1907-0.024 0.1-0.33333 0.08-0.44533l-0.2613-1.55067c-0.04-0.236-0.1253-0.20533-0.18-0.19733-0.1587 0.02-0.073 0.828-0.7533 0.91733l-0.496 0.0653c-0.34 0.0453-0.348-0.016-0.3987-0.39334z"/>
        <path d="m249.71017 199.16304c-0.232-1.25733-0.065-2.52667 1.252-2.79867 1.0053-0.20266 2.1453 0.62534 2.5027 2.54534 0.2653 1.44 0.043 2.68266-1.296 2.95733-1.3947 0.28533-2.2227-1.43867-2.4587-2.704m-0.8693 0.672c0.3266 1.76133 1.6 2.74 3.172 2.44667 2.492-0.46134 2.576-2.676 2.3493-3.88934-0.344-1.84-1.7147-2.74533-3.2333-2.444-1.8667 0.36267-2.6414 1.988-2.288 3.88667"/>
        <path d="m255.88077 200.29064c0.2587 1.08133-0.4347 0.94667-0.368 1.224 0.041 0.172 0.196 0.10533 0.2813 0.084 0.388-0.0893 0.764-0.22267 1.1827-0.32133 0.324-0.076 0.5427-0.0893 0.6733-0.12267 0.1774-0.044 0.2267-0.10933 0.208-0.18533-0.073-0.30934-0.7533 0.224-0.9746-0.692l-0.3574-1.484c-0.071-0.30134-0.1333-0.35067 0.2774-0.448 0.384-0.092 0.544-0.0493 0.8133 0.284l0.9747 1.20266c0.3586 0.43734 0.736 0.91734 1.348 0.772 0.3066-0.0733 0.772-0.38133 0.708-0.65066-0.016-0.0693-0.072-0.108-0.144-0.0893-0.077 0.0147-0.1427 0.0867-0.2187 0.10534-0.064 0.016-0.2107 0.0507-0.312-0.072-0.8173-0.94534-1.7747-2.03067-1.7853-2.084-0.02-0.0853 0.1853-0.21734 0.3613-0.468 0.1747-0.26 0.3213-0.63334 0.1933-1.18134-0.096-0.392-0.544-1.56666-2.2333-1.16-0.52 0.12534-1.0373 0.28267-1.556 0.40934-0.488 0.116-0.556 0.0973-0.912 0.18266-0.092 0.02-0.1587 0.0827-0.14 0.168 0.076 0.308 0.8413-0.21066 1.072 0.75067zm-0.01-4.20267c-0.124-0.51333 0.116-0.56933 0.4013-0.64133 0.7827-0.18667 1.368 0.34667 1.572 1.18533 0.12 0.50534 0.1893 0.99867-0.988 1.28134-0.2307 0.0547-0.516 0.124-0.5653-0.0907z"/>
        <path d="m262.25957 198.86758c0.26 1.01733-0.7147 0.83067-0.628 1.16533 0.049 0.18534 0.176 0.14134 0.3173 0.108 0.308-0.0787 0.5507-0.18 1.0667-0.31066 0.5173-0.136 0.78-0.16667 1.0867-0.24534 0.224-0.0587 0.3853-0.072 0.332-0.27733-0.063-0.24-0.9827 0.26133-1.256-0.788l-0.9987-3.86c-0.108-0.412-0.04-0.476 0.2747-0.55333l0.6546-0.172c0.8774-0.26134 0.8747 0.748 1.1827 0.66933 0.2013-0.0493 0.029-0.36133-0.012-0.46133l-0.288-0.76134c-0.029-0.0853-0.061-0.204-0.1773-0.17466-0.716 0.18266-1.2227 0.35066-2.3467 0.64-1.124 0.29333-1.648 0.39066-2.364 0.57466-0.1147 0.032-0.085 0.148-0.069 0.23867l0.1693 1.16c0.013 0.11333 0.016 0.31333 0.176 0.27067 0.3467-0.0853-0.1733-1.14534 0.696-1.372l0.6467-0.16667c0.316-0.0827 0.4026-0.0573 0.5106 0.34933z"/>
        <path d="m266.32997 193.44678c-0.224-0.80933 0.4347-0.66267 0.3547-0.95333-0.031-0.10134-0.072-0.10667-0.3014-0.044-0.436 0.12133-0.7013 0.232-0.9786 0.30533-0.2694 0.0773-0.5774 0.12667-0.876 0.20667-0.068 0.02-0.2694 0.0467-0.228 0.19333 0.084 0.29733 0.8826-0.18 1.0986 0.592l1.1307 4.084c0.224 0.80933-0.388 0.73867-0.3053 1.036 0.013 0.0427 0.045 0.0987 0.1133 0.08 0.2-0.0587 0.52-0.18 0.8493-0.272 0.596-0.16533 0.892-0.21067 1.172-0.288 0.1774-0.0493 0.236-0.10533 0.212-0.19733-0.076-0.27067-0.824 0.356-1.1146-0.688z"/>
        <path d="m268.79347 194.63171c-0.4093-1.212-0.4173-2.49333 0.8493-2.944 0.9667-0.34 2.2107 0.32133 2.8307 2.17333 0.464 1.388 0.4187 2.648-0.8707 3.108-1.3413 0.47734-2.4013-1.11333-2.8093-2.33733m-0.768 0.78933c0.5707 1.7 1.964 2.48934 3.4773 1.98 2.408-0.80133 2.1814-3.00666 1.788-4.18-0.596-1.77466-2.08-2.47466-3.5426-1.96933-1.7987 0.61733-2.3374 2.33733-1.7227 4.16933"/>
        <path d="m275.02137 194.78811c0.408 1.03333-0.2987 1-0.1947 1.26 0.064 0.16667 0.2107 0.0827 0.292 0.0467 0.3694-0.144 0.7267-0.32267 1.1254-0.48134 0.3106-0.12133 0.5253-0.16666 0.648-0.216 0.172-0.0693 0.212-0.14 0.1826-0.21333-0.116-0.29867-0.7173 0.32933-1.0626-0.552l-0.5614-1.41867c-0.1106-0.28666-0.1786-0.32666 0.2107-0.48266 0.372-0.144 0.5333-0.12267 0.8467 0.172l1.1333 1.052c0.416 0.388 0.8573 0.80933 1.4427 0.58133 0.296-0.11467 0.712-0.48933 0.612-0.74533-0.027-0.0653-0.091-0.096-0.156-0.0707-0.073 0.0293-0.1294 0.10533-0.2027 0.13733-0.059 0.024-0.2 0.0787-0.3173-0.0267-0.94-0.828-2.04-1.76934-2.0587-1.81867-0.031-0.08 0.152-0.24 0.2933-0.512 0.136-0.28267 0.232-0.67067 0.023-1.196-0.1467-0.37733-0.7507-1.47733-2.3733-0.83867-0.4947 0.19467-0.9854 0.42667-1.4814 0.62267-0.464 0.18-0.5386 0.17067-0.8773 0.304-0.091 0.0373-0.148 0.10667-0.1133 0.188 0.116 0.29467 0.8013-0.324 1.1653 0.59333zm-0.588-4.16133c-0.196-0.492 0.033-0.58267 0.308-0.69067 0.7467-0.29067 1.4 0.152 1.7187 0.95733 0.1906 0.48267 0.3266 0.96-0.7987 1.40267-0.2213 0.088-0.4933 0.19467-0.5747-0.0107z"/>
        <g stroke="#753C2A" stroke-miterlimit="3.864" stroke-width=".0946667">
            <path d="m198.89057 91.11224c0.04-1.66667-3.4507-1.75867-2.2773 0.92267 2.4573 3.88266 5.78 0.196 4.5586-2.17334-2.0906-4.17733-6.776-2.63066-7.4426 0.044-1.0627 4.81867 6.1333 8.664 11.5426 9.55734 8.7827 1.18 16.7774-4.02667 16.7774-4.02667 4.556-3.31733 5.144 1.07067 3.8466 1.656 1.128-2.592-1.632-3.008-2.468-1.79867-0.168 0.796-5.188 3.59334-10.5826 4.80667h-6.776c-3.308 0-6.2067-1.28933-9.644-3.67067-3.9814-2.96533-4.9174-8.532 0.5173-9.54133 1.9267-0.0773 6.0707 1.428 5.0333 5.39733-0.3853 1.84134-2.9906 2.096-2.9906 2.096s-1.5334-0.50666-2.2454-1.26c-2.0506-2.632 0.2494-3.63333 0.2494-3.63333 1.592-0.37733 1.9013 1.16667 1.9013 1.16667 0.128 0.37466 0 0.45733 0 0.45733"/>
            <path d="m264.29997 90.94824c-0.036-1.668 3.256-1.71333 2.42 1.168-1.8613 3.10667-5.2813 0.60133-4.648-2.172 1.4867-3.856 6.868-3.00933 7.4933 0.0413 1.4214 4.096-5.9386 8.90134-11.28 9.524-9.0466 1.3-16.7746-3.836-16.7746-3.836-4.7254-3.68133-5.324 0.62534-3.848 1.5-1.7254-2.13066 1.132-3.56533 2.4693-1.79866 2.2307 1.91066 5.856 3.91866 10.5547 4.65733h7.2106c2.112 0.15067 5.1027-0.46133 9.2974-3.60267 3.7266-3.09733 4.8973-8.11333-0.58-9.45866-2.22-0.60534-6.2907 1.45733-4.78 5.39466 0.7746 1.96934 2.7026 1.98 2.7026 1.98 0.828-0.072 1.5267-0.468 2.04-1.144 1.8467-1.93466-0.011-3.5-0.011-3.5-1.976-0.79866-2.5627 0.95334-2.396 1.04z"/>
            <path d="m197.13017 93.49904c5.2427 5.57067 13.9427 3.95467 16.4693 1.62933 2.608-2.356-1.4106-7.92666-1.9706-10.74-0.836-5.76666 2.5533-8.94133 6.9066-8.332 5.4787 0.97467 6.9854 4.97067 12.8 4.928 4.8534 0.332 8.8254-4.03466 12.4654-4.69066 6.8173-1.308 8.204 3.54133 7.9773 7.09333-0.952 6.47467-4.4253 8.06267-2.624 11.02933 3.712 5.18934 14.484 2.26267 16.4373-0.5l-1.1493 0.268c-0.9387 1.94534-11.116 4.344-14.2307 0.73067-1.3533-1.79867-0.6373-2.54533 1.092-6.42933 1.74-2.63334 3.3854-12.59334-4.828-12.91334-5.352-0.46-8.6613 4.84134-14.4786 4.84534-6.1054 0.45333-9.6974-5.712-15.344-4.836 0 0-5.5214-0.0267-5.5694 6.75866-0.3453 3.63467 3.112 7.94134 2.8934 11.15334-1.0627 3.45866-10.1067 4.79866-14.8454 0.71066z"/>
            <path d="m222.58907 96.09011c-0.332 3.38267 1.8227 3.94267 1.8227 3.94267h3.116c3.64-1.43467 2.508-5.94934 0.9626-7.08134-2.6373-3.25466-9.7706 0.82667-9.7706 0.82667 1.3613-3.33067-2.068-6.424-2.572-7.88267-2.6747-4.936 0.8386-7.04 3.1413-5.952 0.8773-0.12666 6.816 4.58134 12.7947 4.49867 5.8986-0.0827 10.3333-3.604 11.76-4.16667 3.8053-1.73733 5.3533 0.64267 4 4.40267-1.8694 3.764-4.4214 5.97733-2.752 9.28933-7.652-4.10533-9.744-1.32533-9.744-1.32533-3.7614 3.40667-0.6267 7.37333 1.1106 7.39067h2.8454c1.6106-0.47467 1.9426-2.86934 1.472-4.07734l-1.2427-1.07866c1.2427 1.07866 1.2547 4.42933-1.7987 4.776-1.34 0.156-5.1053-2.01734-3.032-5.73734 2.8454-3.92933 8.888 0.084 11.0534 0.83867-2.4574-5.80933 2.5213-6.772 3.1053-12.33067 0 0 0.1253-5.012-5.4387-3.008-2.3413 1.00267-5.564 4.052-11.588 4.34534-6.8173-0.58534-10.1226-3.468-11.5013-4.052-2.3867-1.75467-7.156-0.836-5.648 4.34533 1.3813 5.01467 4.6427 4.09733 2.848 10.71867 0 0 7.7747-4.11734 9.8653-2.02934 2.136 1.21334 2.6787 6.10134-1.5026 6.89867-2.972-0.084-3.4334-2.88533-2.2174-4.63733z"/>
            <path d="m221.89637 88.04598-0.2-0.21333c-0.4893-2.48134 2.18-2.86534 2.6907-2.192 1.132 0.296 2.8453 2.928 7.2613 2.92533 3.576 0.168 6.46-2.59067 7.3813-2.968 2.3014-0.95867 3.4614 1.024 2.692 2.02133l-0.236-0.24s0.053-2.48933-2.788-0.568c-3.684 2.75867-6.068 2.46667-6.7146 2.51334-3.1614 0.164-4.9534-1.41867-7.2894-2.89067-2.6893-1.12533-2.7973 1.612-2.7973 1.612"/>
        </g>
    </g>
    <path d="m412.66459 249.12622h82.40256v82.15973h-82.40256z" fill="#DC291E" stroke-width="2.11766"/>
    <path d="m412.66544 249.12476h82.40256v82.15972h-82.40256z" fill="none" stroke="#753C2A" stroke-miterlimit="3.864"
          stroke-width=".279109"/>
    <g transform="matrix(2.1176643,0,0,2.1176643,9.0405947,28.047724)">
        <g stroke-miterlimit="3.864" stroke-width=".0946667">
            <path d="m194.62497 138.97691c-6.8093-4.13733 1.008-11.78133 4.4587-4.94933 1.7026 3.93066 1.7026 5.00133 3.8893 5.328 2.4973 0.14133 2.94-3.88267 2.94-3.88267s1.7-0.524 2.94-0.61733c0 0-0.1667 7.11333-5.88 7.14666-4.06-0.16666-3.992-6.45066-5.8013-7.85333-2.1294-1.65867-4.2814 0.96667-0.9334 3.21733z"
                  fill="#FFF" stroke="#FFF"/>
            <path d="m224.74147 139.16571c6.4987-2.412 3.2213-9.49733-1.3987-7.39067-3.2786 1.304-2.8093 7.72134-6.1893 7.58134-2.484 0.124-3.0827-3.93467-3.0827-3.93467-0.936-0.38667-2.844-0.61467-2.844-0.61467 0.2707 2.01467 0.672 6.74267 5.5 7.15467 4.404 0.37733 4.34-6.67867 6.2614-7.91067 2.008-1.80533 4.5053 1.5 0.38 3.22134z"
                  fill="#FFF" stroke="#FFF"/>
            <path d="m219.47387 110.11491-1.4147 0.296c-0.2053 0.47067 0.376 1.08267 0.376 1.08267l0.964-0.164-0.1466 0.83066-26.1707 28.39067 1.528 1.41067 26.056-28.09734c1.4067-1.77866 0.068-4.51866 2.18-5.824 3.0427-1.972 4.9827 4.31334 1.052 2.99467l-0.9333 1.832s2.52 1.89067 4.6613-0.584c2.2787-4.544-2.7427-8.55733-6.6253-5.548 0 0-0.456 0.40133-0.7627 0.86667 0 0-0.844-0.26267-1.7347 0.18533-0.4466 0.42133-0.3853 1.184-0.3853 1.184l1.456-0.104z"
                  fill="#FFD200" stroke="#FFD200"/>
        </g>
        <path d="m198.57797 120.37931s1.2787 6.32533 5.6213 15.80933c2.2094-0.80533 3.5147-1.32 5.852-1.32 2.3427 0 3.6454 0.44 5.8547 1.32 4.3427-9.484 5.62-15.80933 5.62-15.80933l-11.4747-14.74533z"
              fill="#FFF"/>
        <path d="m211.19657 110.63184 7.94 10.22533s-1.064 4.96934-4.2987 12.46134c-1.2333-0.28267-2.2986-0.53067-3.6626-0.62z"
              fill="#FFD200"/>
        <path d="m208.93477 110.62411-7.9667 10.23333s1.0627 4.97467 4.3014 12.46267c1.252-0.28133 2.3253-0.532 3.66-0.62133z"
              fill="#FFD200"/>
    </g>
    <path d="m412.06678 248.50924h82.81761v82.56631h-82.81761z" fill="none" stroke="#753C2A" stroke-miterlimit="3.864"
          stroke-width=".279109"/>
    <path d="m503.85016 249.12392 82.41378-6e-3v82.15363l-82.41378 0.0106z" fill="#FFD200" stroke="#753C2A"
          stroke-miterlimit="3.864" stroke-width=".279109"/>
    <path d="m515.78913 330.68452h11.34793v-80.96819h-11.34793z" fill="#DC291E" stroke-width="2.11766"/>
    <path d="m515.78998 330.68309h11.34793v-80.9682h-11.34793z" fill="none" stroke="#DC291E" stroke-miterlimit="3.864"
          stroke-width=".279109"/>
    <path d="m539.31214 330.68452h11.34793v-80.96819h-11.34793z" fill="#DC291E" stroke-width="2.11766"/>
    <path d="m539.313 330.68309h11.34792v-80.9682h-11.34792z" fill="none" stroke="#DC291E" stroke-miterlimit="3.864"
          stroke-width=".279109"/>
    <path d="m562.91436 330.68452h11.35343v-80.96819h-11.35343z" fill="#DC291E" stroke-width="2.11766"/>
    <g stroke-miterlimit="3.864">
        <g transform="matrix(2.1176643,0,0,2.1176643,9.0405947,28.047724)" stroke-width=".284">
            <path d="m261.54977 142.90998h5.3613v-38.23467h-5.3613z" fill="none" stroke="#DC291E"/>
            <path d="m233.37677 104.10571h39.104v38.98667l-39.104 3e-3z" fill="none" stroke="#753C2A"/>
            <path d="m190.75387 176.84011c0.272 3.44 3.752 8.12133 9.24 9.328 3.8253 0.84133 7.964 1.132 12.6973 0.19333 4.7734-0.664 11.2694-0.8 16.828 1.50667v-40.50933h-38.9173v27.67733z"
                  fill="#FFD200" stroke="#753C2A"/>
        </g>
        <g transform="matrix(2.1176643,0,0,2.1176643,9.0405947,28.047724)" fill="#DC291E" stroke="#DC291E"
           stroke-width=".268">
            <path d="m199.25777 185.69424v-38.064h-4.324v35.79867c0.8747 0.72266 2.4254 1.812 4.3267 2.26533"/>
            <path d="m207.90357 147.63051v39.01067c-0.6747 0.092-3.2053 0.0387-4.324-0.16v-38.85067z"/>
            <path d="m216.55197 185.72304 0.01-38.092h-4.3293v38.52667c1.2733-0.24934 2.9627-0.348 4.324-0.43467"/>
            <path d="m225.18937 147.63051h-4.3187v38.092c0.9747 0.0827 2.688 0.18533 4.3294 0.55733z"/>
        </g>
        <path d="m412.39205 402.2158c0.57876 7.32711 7.98212 17.28296 19.66612 19.8524 8.1403 1.79294 16.95253 2.4113 27.01843 0.41222 10.15632-1.41175 23.98615-1.7026 35.8169 3.21039v-86.21717h-82.82608v58.90776z"
              fill="none" stroke="#753C2A" stroke-width=".279109"/>
        <path d="m585.94798 402.53571c-0.57029 7.28477-7.94547 17.19262-19.56721 19.74792-8.0952 1.78731-16.86508 2.40285-26.88312 0.41507-10.10549-1.41177-23.8703-1.69414-35.64728 3.19061v-85.78516l82.4195 6e-3v58.60567z"
              fill="#FFD200" stroke="#753C2A" stroke-width=".279109"/>
        <g transform="matrix(2.1176643,0,0,2.1176643,9.0405947,28.047724)" fill="#DC291E" stroke="#DC291E"
           stroke-width=".0946667">
            <path d="m252.43157 160.64998c0.2387-1.29733 0.5293-2.05067 0.6653-2.51333 0.052-0.392-0.3933-0.53867-0.5373-0.22667-0.2067 0.628-0.656 2.216-0.7427 2.88533-0.08 1.02134-0.3213 1.4-0.4666 2.028-0.3547 1.64934 0.312 2.968 0.083 3.18 0 0-0.2266-0.08-0.3826 0.0173-0.2627 0.164-0.324 0.55066-0.324 0.55066-0.464-0.45466-1.2894-0.63466-1.2894-0.63466 0.78-0.152 0.764-1.76267 0.748-2.74-0.468-0.54134-0.2546-2.00267-0.2546-2.00267s-0.012-0.41333-0.077-0.796c0.032-0.73067-0.3693-1.70667-0.6146-2.048-0.2107-0.168-0.5454-0.0413-0.5134 0.164 0.2827 0.716 0.5094 0.97467 0.58 2.316-0.4213-0.088-0.756-0.27867-1.1546-0.24-0.6707-0.50667-0.5427-1.92667-0.8387-1.94933-0.2267-0.332-0.46-0.268-0.628 0.048-0.015 0.11866 0.1093 0.35066 0.212 0.37733 0 0 0.2493 1.43733 0.6533 1.764 0 0-0.9053 0.77067-0.8746 0.89867 0.2 0.82 1.1266 0.904 1.1493 1.364-0.089 0.168-0.36 0.28666-0.36 0.28666-0.067 0.19467 0.019 0.40667 0.132 0.50134-0.4587 0.34-0.968 1.06266-0.968 1.06266-0.047-1.44133-1.136-2.68133-1.4707-3.412-0.1653-0.52666 0.9947-1.52133 1.3294-1.852-0.248-0.65066-0.5587-0.784-0.5587-0.784-0.2467-0.0853-1-1.56666-0.552-2.06533l-1.0147-0.43733 0.076-0.28267c-1.392 0.27733-1.4746-0.288-2.5413-0.644-0.492-0.16267-1.0653-0.11067-1.3187-0.19067 0 0-0.532-0.83066-0.664-1.232l0.264-0.30133s0.3187-0.0187 0.5694-0.14133c0.544-0.57867 0.8986-0.78667 1.3386-1.45067l0.039-0.41867c0.3573-0.24 0.964-0.50666 1.4413-1.11866 0.9254 0.0507 2.5227 1.03333 2.5227 1.03333 0.2547-0.324 1.1813-0.704 1.7573-0.28267-0.3426 0.28-0.5333 0.844-0.5333 0.844l-0.332 0.35734-0.4413 0.18666 1.0213 0.412c2.284 8e-3 3.5387-0.28666 4.44-0.53733 0.648-0.228 2.112 0.25067 3.4307 0.13067 1.7773-0.048 3.0533-0.46534 4.6-0.56267 1.1506-0.0707 3.1693 0.0747 3.872 0.324 1.9853 0.484 2.2146 2.70667 0.416 3.78133-1.2974 0.836-3.3267-0.18933-4.5614-0.084-0.8973-0.0573-1.5053 0.86134-2.0773 0.804l0.264-0.504s-0.9667 0.18534-1.604 0.20134l0.4667-0.39867s-0.856-0.0973-1.1854-0.25467c0.708-0.0533 1.376-0.7 2.38-0.72 1.068-0.0853 4.9027 1.168 6.1574 0.32934 1.2893-1.08134 0.2133-2.40534-0.6627-2.40534-0.3507 0.0893-0.1907 0.396-0.1907 0.396 0.5307 0.15334 1.388 0.78134 0.52 1.56667-0.888 0.55067-4.0266-0.36667-5.9266-0.31467-0.7334 0.0493-1.1587 0.24-1.9947 0.636-0.6027 0.0813-1.6107 0.36934-1.6107 0.36934s0.8867 0.59066 1.328 0.73733l-0.4466 0.504s0.6733 0.18667 1.88-0.10267l-0.4094 0.66134c2.1307-0.22667 2.424-1.02 2.912-1.052 0.7254-0.0947 2.7734 0.97066 4.564 0.312 0 0-0.1586 1.15866-0.048 2.34133 0.6934 1.44533 1.3107 0.804 0.628 2.768-0.1946 0.836-0.3826 1.90133-0.5626 3.59867 0 0-0.276-0.0387-0.3974 0.0667-0.1666 0.14667-0.208 0.80134-0.208 0.80134-0.5293-0.39334-1.2906-0.63334-1.2906-0.63334 0.5893-0.22133 1.0933-1.20133 1.2426-2.784 0.04-0.79866-0.192-0.67466-0.2373-1.12666-0.039-0.424 0.2133-1.30134-0.712-1.49734-0.7067-0.244-1.744-1.36266-1.744-1.36266-0.3653-0.216-0.5947-0.46934-1.224-0.88267-0.3933-0.19333-0.9787-0.13067-1.3107-8e-3 -0.3386 0.35867 0.1427 0.35867 0.1427 0.35867 0.732 0 0.8907-0.0213 1.3387 0.464-1.7174 0.76933-3.9347 1.92-7.3067 1.56533"/>
            <path d="m261.86387 160.82971s0.8227 0.28 0.78 0.46667c0.1267 0.31466-0.9627 1.00266-1.4413 1.52666-0.604 0.65334-1.0467 1.41867-1.1987 2.02534-0.1 0.208-0.368 0.14-0.5373 0.17866-0.272 0.0627-0.5267 0.292-0.5907 0.55867-0.5533-0.42933-1.2627-0.624-1.2627-0.624 0.097-0.13733 0.5054-0.18133 0.8814-0.288 0.292-0.14267 0.5866-0.484 0.9493-1.12 0.5653-0.712 0.9613-1.23467 1.168-1.94533 0.3827-0.12267 0.988-0.49867 1.252-0.77867"/>
            <path d="m261.33907 160.47691s-0.728 0.56133-1.316 0.66667c0.01 0.0427 0.092 0.52933 0.01 0.676-0.089 0.15466-0.3053 0.224-0.4413 0.02-0.061-0.0973-0.031-0.58267-0.033-0.62134-0.164 0.02-0.5733 0.0573-0.9973 0 0 0 0.015 0.532-0.047 0.664-0.083 0.18667-0.412 0.13467-0.472-0.0627-0.076-0.23867 0.01-0.70934 0.01-0.70934s-0.3987-0.072-0.7787-0.39866c0.9413-0.16534 2.5053-1.148 3.048-1.18934z"/>
        </g>
        <path d="m525.30803 350.50697c-0.69184-0.26825-2.01601 0.48564-2.01601 0.48564l-0.65225 1.13791 1.12088 0.40375 0.88392-0.3473c0.95146-0.79624 0.66346-1.68 0.66346-1.68"
              fill="#FFD200" stroke="#FFD200" stroke-width=".0930365"/>
        <path d="m517.97879 354.75047 0.1673-0.33036s0.54763 0.20902 1.0673-0.20054c0.44599-0.12706 0.70858 0.17789 1.07006 0.12134 0.39241 0.27388 0.57601 0.82165 0.48007 1.03624-0.40108 0.87813-1.45991 0.528-1.50227-0.0932-0.84707 0.13553-1.28182-0.53365-1.28182-0.53365"
              fill="#FFD200" stroke="#FFD200" stroke-width=".0930365"/>
    </g>
    <g transform="matrix(2.1176643,0,0,2.1176643,9.0405947,28.047724)" fill="#0063BE">
        <g stroke="#0063BE" stroke-miterlimit="3.864" stroke-width=".0946667">
            <path d="m243.40157 150.78664s-0.4627 0.512-0.7947 0.648c0 0-0.4293-0.65333-0.484-1.08667-0.061-0.46133 0.1894-1.29466-0.2306-1.624 0 0 0.328-0.0547 0.628 0.28 0.3 0.33467 0.2973 1.616 0.8813 1.78267"/>
            <path d="m244.71147 158.84931c-0.5773-0.0827-1.1213-0.25067-1.632-0.496 0 0 0.176-3e-3 0.384-0.31467 0.2413-0.36266 0.212-0.784 0.4413-1.06533 0.272-0.336 0.9227-0.16933 0.9014 0.27067-0.025 0.47866-0.224 0.63333-0.2187 1.00266 0.01 0.352 0.124 0.60267 0.124 0.60267"/>
            <path d="m243.66987 158.94958c0.132 0 0.2347 0.10533 0.2347 0.23467 0 0.132-0.1027 0.23733-0.2347 0.23733-0.1293 0-0.2347-0.10533-0.2347-0.23733 0-0.12934 0.1054-0.23467 0.2347-0.23467"/>
            <path d="m245.42377 151.81664c-0.5587-0.0267-0.6427-0.572-0.6427-0.572 0.047-0.17867 0.7267-0.16533 0.3107-1.4-0.1853-0.95867 0.216-1.14667 0.4453-1.27333 0 0-0.2106 0.564 0.4094 1.49333 0.592 0.95333-0.132 1.608-0.5227 1.752"/>
            <path d="m245.29997 156.81144-0.968-0.42667 0.664 8e-3 -0.3133-0.19866c0.6826-0.60934 1.6906-1.688 1.9266-3.35467l0.1694-0.028 0.7653 0.23733c0 1.03867-1.1107 3.172-2.244 3.76267"/>
        </g>
        <path d="m249.39777 165.91304c0.2707 0.1 0.4293 0.13067 0.6853 0.256 0.292 0.14267 0.4267 0.272 0.696 0.44533 0.013 0.0747 0.049 0.15334 0.032 0.22934-0.2533 0.0587-0.4413 0.0973-0.728 0.11866-0.2293 0.016-0.3613 0.0107-0.5946 0-0.1934-0.0107-0.3107 0.0107-0.4947-0.0493-0.124-0.0387-0.184-0.0893-0.3-0.15067 0.2707-0.32666 0.4267-0.77466 0.704-0.84933"/>
        <path d="m246.58137 164.98078c0.168-0.23333 0.252-0.372 0.448-0.584 0.2187-0.23333 0.3773-0.332 0.62-0.54533 0.073 0.0107 0.1573-3e-3 0.2267 0.0373-0.011 0.25867-0.027 0.44933-0.085 0.728-0.047 0.22533-0.085 0.35333-0.1626 0.572-0.064 0.18133-0.076 0.30267-0.1854 0.46133-0.073 0.108-0.136 0.14934-0.2253 0.248-0.2427-0.35333-0.6413-0.63066-0.636-0.91733"/>
        <path d="m257.61257 164.96118c0.388 0.0947 0.928 0.388 1.2627 0.62533 0 0 0.1826 0.0973 0.039 0.20267-0.4733 0.0827-1.52 0.24933-1.9066-0.072 0.24-0.288 0.3573-0.68933 0.6053-0.756"
              stroke="#0063BE" stroke-miterlimit="3.864" stroke-width=".0946667"/>
        <path d="m262.25707 165.92078c0.3453 0.12 0.9293 0.39333 1.2533 0.636 0 0 0.128 0.12933 0.041 0.20533-0.2294 0.0533-1.5987 0.216-1.9254-0.0707 0.2454-0.29867 0.3694-0.65067 0.6307-0.77067"
              stroke="#0063BE" stroke-miterlimit="3.864" stroke-width=".0946667"/>
    </g>
    <g stroke-miterlimit="3.864">
        <g transform="matrix(2.1176643,0,0,2.1176643,9.0405947,28.047724)" fill="#DC291E" stroke="#DC291E"
           stroke-width=".0946667">
            <path d="m252.43157 177.88691c0.2387-1.29467 0.5293-2.04933 0.6653-2.51333 0.052-0.39334-0.3933-0.54-0.5373-0.22667-0.2067 0.628-0.656 2.21733-0.7427 2.884-0.08 1.02133-0.3213 1.4-0.4666 2.03067-0.3547 1.648 0.312 2.968 0.083 3.17733 0 0-0.2266-0.076-0.3826 0.0187-0.2627 0.16533-0.324 0.55066-0.324 0.55066-0.4614-0.452-1.2894-0.63466-1.2894-0.63466 0.78-0.15067 0.764-1.76134 0.748-2.73734-0.4653-0.54266-0.2546-2.004-0.2546-2.004s-0.012-0.41333-0.077-0.796c0.032-0.73333-0.3693-1.70666-0.6146-2.04933-0.2107-0.16667-0.5454-0.0413-0.5134 0.16667 0.2827 0.712 0.5094 0.97066 0.58 2.31333-0.4213-0.088-0.756-0.27733-1.1546-0.23867-0.6707-0.50666-0.5427-1.92666-0.8387-1.948-0.2267-0.33466-0.46-0.26933-0.628 0.044-0.015 0.11867 0.1093 0.35067 0.212 0.37867 0 0 0.2493 1.436 0.6533 1.764 0 0-0.9053 0.772-0.8746 0.90133 0.2 0.82 1.1266 0.90267 1.1493 1.36267-0.089 0.16533-0.36 0.28533-0.36 0.28533-0.067 0.19467 0.019 0.40667 0.132 0.50267-0.4587 0.34133-0.968 1.06-0.968 1.06-0.047-1.43867-1.136-2.67867-1.4707-3.412-0.1653-0.524 0.9947-1.52 1.3294-1.84933-0.248-0.65334-0.5587-0.784-0.5587-0.784-0.2467-0.0853-1-1.56934-0.552-2.06667l-1.0147-0.43467 0.076-0.28533c-1.392 0.27733-1.4746-0.288-2.5413-0.64133-0.492-0.16667-1.0653-0.11334-1.3187-0.192 0 0-0.532-0.83067-0.664-1.232l0.264-0.304s0.3187-0.0173 0.5694-0.14134c0.544-0.57466 0.8986-0.78533 1.3386-1.45066l0.039-0.416c0.3573-0.24267 0.964-0.50667 1.4413-1.11867 0.9254 0.048 2.5227 1.03333 2.5227 1.03333 0.2547-0.32533 1.1813-0.70266 1.7573-0.284-0.3426 0.28134-0.5333 0.84667-0.5333 0.84667l-0.332 0.35333-0.4413 0.18934 1.0213 0.412c2.284 5e-3 3.5413-0.288 4.44-0.53867 0.648-0.23067 2.112 0.25067 3.4333 0.12933 1.7747-0.0453 3.0507-0.46266 4.5974-0.55866 1.1506-0.072 3.1693 0.0707 3.872 0.32133 1.9853 0.48667 2.2146 2.708 0.416 3.78-1.2947 0.836-3.3267-0.188-4.5614-0.0827-0.8973-0.0587-1.5053 0.86134-2.0773 0.804l0.264-0.50266s-0.9667 0.18266-1.6013 0.19866l0.464-0.39733s-0.856-0.0973-1.1854-0.256c0.708-0.0507 1.3787-0.69867 2.38-0.71867 1.068-0.0827 4.9027 1.16667 6.1574 0.33067 1.2893-1.08667 0.216-2.40667-0.6627-2.40667-0.3507 0.088-0.1907 0.39867-0.1907 0.39867 0.5334 0.152 1.388 0.78 0.5227 1.56267-0.8907 0.55466-4.0293-0.36667-5.9293-0.31067-0.7334 0.0493-1.1587 0.23733-1.9947 0.63333-0.6027 0.0827-1.6107 0.37067-1.6107 0.37067s0.8867 0.58933 1.328 0.73867l-0.4466 0.50133s0.6733 0.18533 1.88-0.10533l-0.4094 0.664c2.1307-0.22667 2.424-1.02134 2.912-1.04934 0.7254-0.096 2.7734 0.96934 4.564 0.31067 0 0-0.1586 1.16-0.048 2.34133 0.6934 1.44534 1.3107 0.804 0.628 2.76667-0.192 0.836-0.3826 1.904-0.5626 3.59867 0 0-0.276-0.0373-0.3974 0.068-0.1666 0.14533-0.208 0.80266-0.208 0.80266-0.5266-0.396-1.2906-0.63866-1.2906-0.63866 0.5893-0.21867 1.0933-1.19734 1.2426-2.77867 0.04-0.79867-0.1906-0.676-0.2373-1.12933-0.039-0.42134 0.2133-1.30267-0.712-1.49867-0.7067-0.24133-1.744-1.36133-1.744-1.36133-0.3653-0.216-0.5947-0.468-1.224-0.88134-0.3933-0.192-0.9787-0.12933-1.3107-0.0107-0.3386 0.36133 0.1427 0.36133 0.1427 0.36133 0.732 0 0.8907-0.0213 1.3387 0.464-1.7174 0.76933-3.9347 1.92-7.3067 1.564"/>
            <path d="m261.86387 178.06664s0.8227 0.27867 0.78 0.46667c0.1267 0.31333-0.9627 1.00533-1.4413 1.52266-0.604 0.65867-1.0467 1.42534-1.1987 2.02934-0.1 0.208-0.368 0.13866-0.5373 0.17866-0.272 0.0627-0.5267 0.29467-0.5907 0.55734-0.5533-0.42934-1.2627-0.62267-1.2627-0.62267 0.097-0.13733 0.5054-0.18 0.8814-0.28533 0.292-0.144 0.5866-0.48534 0.9493-1.12267 0.5653-0.71333 0.964-1.232 1.168-1.94667 0.3827-0.12133 0.988-0.49866 1.252-0.77733"/>
            <path d="m261.33907 177.71504s-0.728 0.56267-1.316 0.664c0.01 0.0427 0.092 0.53067 0.01 0.67867-0.089 0.15466-0.3053 0.224-0.4413 0.02-0.061-0.0973-0.031-0.584-0.033-0.624-0.164 0.0213-0.5733 0.0587-0.9946 0 0 0 0.012 0.53466-0.047 0.66533-0.085 0.18933-0.4147 0.13333-0.4747-0.0613-0.076-0.23734 0.01-0.712 0.01-0.712s-0.3987-0.0707-0.776-0.39867c0.9413-0.16533 2.5026-1.14667 3.0453-1.18933z"/>
        </g>
        <path d="m525.30803 387.01154c-0.69184-0.26824-2.01601 0.48001-2.01601 0.48001l-0.65225 1.14636 1.12088 0.40377 0.88392-0.35295c0.95146-0.79343 0.66346-1.67719 0.66346-1.67719"
              fill="#FFD200" stroke="#FFD200" stroke-width=".0930365"/>
        <path d="m517.97879 391.25788 0.1673-0.33036s0.54763 0.20605 1.0673-0.20604c0.44599-0.12982 0.70858 0.17788 1.07006 0.1243 0.39241 0.27671 0.57601 0.81883 0.48007 1.0306-0.40108 0.88661-1.45991 0.528-1.50227-0.0875-0.84707 0.1243-1.28182-0.53084-1.28182-0.53084"
              fill="#FFD200" stroke="#FFD200" stroke-width=".0930365"/>
    </g>
    <g transform="matrix(2.1176643,0,0,2.1176643,9.0405947,28.047724)" fill="#0063BE">
        <g stroke="#0063BE" stroke-miterlimit="3.864" stroke-width=".0946667">
            <path d="m243.40157 168.02504s-0.4627 0.50933-0.7947 0.64533c0 0-0.4293-0.65333-0.484-1.08533-0.061-0.45867 0.1894-1.292-0.2306-1.624 0 0 0.328-0.056 0.628 0.28 0.3 0.33067 0.2973 1.616 0.8813 1.784"/>
            <path d="m244.71147 176.08624c-0.5773-0.08-1.1213-0.24933-1.632-0.49333 0 0 0.176-5e-3 0.384-0.31867 0.2413-0.36133 0.212-0.78 0.4413-1.06533 0.272-0.33467 0.9227-0.168 0.9014 0.272-0.025 0.48133-0.224 0.63466-0.2187 1.004 0.01 0.352 0.124 0.60133 0.124 0.60133"/>
            <path d="m243.66987 176.18651c0.132 0 0.2347 0.10533 0.2347 0.23733 0 0.128-0.1027 0.236-0.2347 0.236-0.1293 0-0.2347-0.108-0.2347-0.236 0-0.132 0.1054-0.23733 0.2347-0.23733"/>
            <path d="m245.42377 169.05638c-0.5587-0.028-0.6427-0.57333-0.6427-0.57333 0.047-0.18 0.7267-0.16534 0.3107-1.39867-0.1853-0.96 0.216-1.15067 0.4453-1.27467 0 0-0.2106 0.564 0.4094 1.49467 0.592 0.94933-0.132 1.604-0.5227 1.752"/>
            <path d="m245.29997 174.04838-0.968-0.424 0.664 7e-3 -0.3133-0.19734c0.6826-0.612 1.6906-1.69066 1.9266-3.35466l0.1694-0.028 0.7653 0.23466c0 1.03867-1.1107 3.17467-2.244 3.76267"/>
        </g>
        <path d="m249.40027 183.14998c0.268 0.1 0.4267 0.12933 0.6853 0.25467 0.2894 0.144 0.424 0.27466 0.6934 0.448 0.013 0.072 0.049 0.152 0.032 0.22666-0.2534 0.0587-0.44 0.0987-0.7254 0.12-0.232 0.0187-0.364 0.0133-0.5973 0-0.1933-0.0107-0.3107 0.0133-0.4947-0.0507-0.1226-0.0387-0.184-0.0893-0.3-0.14667 0.2707-0.32933 0.4267-0.776 0.7067-0.852"/>
        <path d="m246.58137 182.21638c0.168-0.232 0.252-0.37067 0.448-0.58267 0.2187-0.23466 0.3773-0.33333 0.62-0.544 0.073 8e-3 0.1573-5e-3 0.2267 0.0347-0.011 0.256-0.027 0.44933-0.085 0.73067-0.047 0.22666-0.085 0.35066-0.1626 0.572-0.064 0.18133-0.076 0.30133-0.1854 0.46133-0.073 0.108-0.136 0.15067-0.2226 0.24533-0.2454-0.35066-0.644-0.62933-0.6387-0.91733"/>
        <path d="m257.61257 182.19811c0.388 0.0947 0.928 0.384 1.2627 0.624 0 0 0.1826 0.0987 0.039 0.20267-0.4733 0.0867-1.52 0.252-1.9066-0.068 0.24-0.292 0.3573-0.68934 0.6053-0.75867"
              stroke="#0063BE" stroke-miterlimit="3.864" stroke-width=".0946667"/>
        <path d="m262.25707 183.15798c0.3453 0.11867 0.9293 0.39333 1.2533 0.63867 0 0 0.128 0.128 0.041 0.20266-0.2294 0.052-1.5987 0.21867-1.9227-0.072 0.2427-0.29733 0.3667-0.65066 0.628-0.76933"
              stroke="#0063BE" stroke-miterlimit="3.864" stroke-width=".0946667"/>
    </g>
    <path d="m585.75231 402.2158c-0.576 7.32711-7.98508 17.28296-19.66039 19.8524-8.14031 1.79294-16.95254 2.4113-27.01864 0.41222-10.1648-1.41741-23.97472-1.7026-35.80822 3.21039l-0.0211-86.21717 82.82311 6e-3v58.90211z"
          fill="none" stroke="#753C2A" stroke-miterlimit="3.864" stroke-width=".279109"/>
</svg>
