<svg xmlns:xlink="http://www.w3.org/1999/xlink" width="120" height="60" xmlns="http://www.w3.org/2000/svg">
    <rect width="60" height="30" fill="RGB(0 23 156)"/>
    <line x1="0" y1="0" x2="60" y2="30" stroke="RGB(255 255 255)" stroke-width="6"/>
    <line x1="0" y1="30" x2="60" y2="0" stroke="RGB(255 255 255)" stroke-width="6"/>
    <polygon
            points="0,0 30,15 28.5857864376269049511983112757903019214303281246230519268233202620,16.4142135623730950488016887242096980785696718753769480731766797379 -1.4142135623730950488016887242096980785696718753769480731766797379,1.4142135623730950488016887242096980785696718753769480731766797379"
            fill="RGB(242 0 48)"/>
    <polygon
            points="60,0 30,15 28.5857864376269049511983112757903019214303281246230519268233202620,13.5857864376269049511983112757903019214303281246230519268233202620 58.5857864376269049511983112757903019214303281246230519268233202620,-1.4142135623730950488016887242096980785696718753769480731766797379"
            fill="RGB(242 0 48)"/>
    <polygon
            points="0,30 30,15 31.4142135623730950488016887242096980785696718753769480731766797379,16.4142135623730950488016887242096980785696718753769480731766797379 1.4142135623730950488016887242096980785696718753769480731766797379,31.4142135623730950488016887242096980785696718753769480731766797379"
            fill="RGB(242 0 48)"/>
    <polygon
            points="60,30 30,15 31.4142135623730950488016887242096980785696718753769480731766797379,13.5857864376269049511983112757903019214303281246230519268233202620 61.4142135623730950488016887242096980785696718753769480731766797379,28.5857864376269049511983112757903019214303281246230519268233202620"
            fill="RGB(242 0 48)"/>
    <rect width="60" height="10" fill="RGB(255 255 255)" y="10"/>
    <rect width="10" height="30" fill="RGB(255 255 255)" x="25"/>
    <rect width="60" height="6" fill="RGB(242 0 48)" y="12"/>
    <rect width="6" height="30" fill="RGB(242 0 48)" x="27"/>
    <polygon points="60,0 120,0 120,60 0,60 0,30 60,30" fill="RGB(0 23 156)"/>
    <polygon id="s"
             points="90,8.845613327285198 91.85410196624969,14.551952425056118 87,11.025240911301282 93,11.025240911301282 88.14589803375031,14.55195242505612"
             fill="RGB(242 0 48)" stroke="RGB(255 255 255)" paint-order="stroke"/>
    <use xlink:href="#s" x="-13.86375" y="13.94842"/>
    <polygon
            points="101.88322,19.701264439404333 103.42830497187474,24.4565470208801 99.38322,21.517620759417735 104.38322,21.517620759417735 100.33813502812525,24.4565470208801"
            fill="RGB(242 0 48)" stroke="RGB(255 255 255)" paint-order="stroke"/>
    <polygon
            points="90,44.31988221516607 92.16311896062463,50.977277829232136 86.5,46.862781063184826 93.5,46.862781063184826 87.83688103937537,50.977277829232136"
            fill="RGB(242 0 48)" stroke="RGB(255 255 255)" paint-order="stroke"/>
    <!-- CMYK to RBG because svg doesn't support CMYK-->
</svg>