<svg width="600" height="408" xmlns="http://www.w3.org/2000/svg" >
    <rect width="600" height="408" fill="#273D7F" />
    <rect width="600" height="102" y="204" fill="#FFF" />
    <rect width="600" height="34" y="238" fill="#CE1E25" />
    <polygon
        points="121.2075805664,271.9803771973 125.4389805794,284.9803571701 139.1406407356,284.9803571701 128.0584111214,293.0188274384 132.2921810150,306.0211772919 121.2075805664,297.9850873947 110.1206102371,306.0211772919 114.3567500114,293.0188274384 103.2721495628,284.9803571701 116.9714398384,284.9803571701"
        fill="#F4D208" />
    <polygon
        points="120.0720977783,203.9390563965 124.3058676720,216.9366664886 138.0075278282,216.9366664886 126.9229273796,224.9703960419 131.1566972733,237.9703760147 120.0720968246,229.9366559982 108.9874963760,237.9703760147 113.2212662697,224.9703960419 102.1390366554,216.9366664886 115.8383269310,216.9366664886"
        fill="#F4D208" />
    <polygon
        points="313.7965087891,203.9817352295 318.0302786827,216.9532756805 331.7319388390,216.9532756805 320.6473383904,224.9727754593 324.8811082840,237.9443159103 313.7965078354,229.9271860123 302.7119073868,237.9443159103 306.9456772804,224.9727754593 295.8610768318,216.9532756805 309.5603671074,216.9532756805"
        fill="#F4D208" />
    <polygon
        points="312.5306396484,272.0159301758 316.7644095421,284.9898405075 330.4684395790,284.9898405075 319.3838391304,293.0093402863 323.6176090240,305.9832506180 312.5306386948,297.9661207199 301.4484090805,305.9832506180 305.6798090935,293.0093402863 294.5975794792,284.9898405075 308.2968697548,284.9898405075"
        fill="#F4D208" />
    <polygon
        points="216.9129638672,133.9728851318 221.1467337608,147.0036849976 234.8507637978,147.0036849976 223.7637934685,155.0563745499 227.9999332428,168.0871744156 216.9129629135,160.0344848633 205.8283624649,168.0871744156 210.0621323586,155.0563745499 198.9799027443,147.0036849976 212.6768231392,147.0036849976"
        fill="#F4D208" />
    <polygon
        points="216.9627532959,338.1371154785 221.1941533089,351.1679153442 234.8958134651,351.1679153442 223.8135838509,359.2206048965 228.0473537445,372.2514047623 216.9627532959,364.1987152100 205.8757829666,372.2514047623 210.1119227409,359.2206048965 199.0273222923,351.1679153442 212.7266125679,351.1679153442"
        fill="#F4D208" />
    <polygon
        points="157.0262756348,153.4041137695 161.2600455284,166.4349136353 174.9640755653,166.4349136353 163.8771052361,174.4876031876 168.1132450104,187.5184030533 157.0262746811,179.4657135010 145.9416742325,187.5184030533 150.1754441261,174.4876031876 139.0932145119,166.4349136353 152.7901349068,166.4349136353"
        fill="#F4D208" />
    <polygon
        points="276.7285461426,318.7509155273 280.9599461555,331.7817153931 294.6639761925,331.7817153931 283.5793757439,339.8344049454 287.8155155182,352.8675746918 276.7285451889,344.8148851395 265.6439447403,352.8675746918 269.8777146339,339.8344049454 258.7931141853,331.7817153931 272.4924044609,331.7817153931"
        fill="#F4D208" />
    <polygon
        points="159.1194610596,320.2941589355 163.3532309532,333.3249588013 177.0548911095,333.3249588013 165.9702906609,341.3776483536 170.2040605545,354.4108181000 159.1194601059,346.3557577133 148.0348596573,354.4108181000 152.2686295509,341.3776483536 141.1840291023,333.3249588013 154.8856892586,333.3249588013"
        fill="#F4D208" />
    <polygon
        points="274.9933166504,151.9106750488 279.2270865440,164.9414749146 292.9287467003,164.9414749146 281.8465170860,172.9941644669 286.0802869797,186.0249643326 274.9933166504,177.9722747803 263.9087162018,186.0249643326 268.1424860954,172.9941644669 257.0602564812,164.9414749146 270.7595467567,164.9414749146"
        fill="#F4D208" />
</svg>