<svg width="100" height="60" xmlns="http://www.w3.org/2000/svg">
    <g id="a">
        <path fill="#F37A20"
              d="m 1.7109375,0.05078125 c -0.01,0.06 -0.1308594,0.05859375 -0.1308594,0.05859375 a 1.44,1.44 0 0 0 0.089844,1.0507812 6.39,6.39 0 0 0 1,1.6503907 34.86,34.86 0 0 0 3.7792969,4 33.43,33.43 0 0 1 3.820312,4.0000001 6.18,6.18 0 0 1 0.560547,0.740234 2.15,2.15 0 0 1 0.390625,0.878907 c -0.02,0.27 -0.420625,0.540468 -0.640625,0.730468 a 4.7,4.7 0 0 0 -1.1796872,1.539063 6.91,6.91 0 0 0 -0.4707031,0.861328 c -0.5,1.48 -0.42,4.039609 0.5,4.849609 0.29,0.25 2.2203123,3.680313 2.5703123,3.820313 a 37.59,37.59 0 0 1 1.609375,-4.361328 c 0.09,-0.21 1.160156,-2.67 1.160156,-3 a 16.26,16.26 0 0 1 2.400391,2.640625 13.47,13.47 0 0 1 2.419922,5.859375 17.66,17.66 0 0 1 0.179687,2.480468 15.08,15.08 0 0 1 -0.208984,2.210938 21.77,21.77 0 0 1 -3.621094,9 c -1,1.55 -1.548828,2.338828 -3.548828,2.548828 a 8.21,8.21 0 0 1 -2.5312498,0.121094 c -2.56,-0.17 -7.5585938,0.269219 -9.55859375,0.199219 C 0.125,41.894531 0.02929418,41.888149 0.00390625,41.90625 0.00310962,41.907052 5.7941616e-4,41.911231 0,41.912109 c -3.6387444e-4,9.56e-4 -0.00180312,0.0048 -0.00195313,0.0059 0.01405528,0.25008 5.42554683,2.419609 6.58203123,3.152343 1.27,0 2.7601563,1.028907 3.6601559,1.128907 -0.6999996,0.32 -1.4603903,7.510312 -1.9003902,8.320312 a 5.27,5.27 0 0 1 -0.4003907,0.640625 6.88,6.88 0 0 1 -0.6992187,0.820313 c -0.05,0.05 -0.140625,0.118984 -0.140625,0.208984 2.9399996,-2.22 4.9999996,-7.108594 7.9999996,-9.308594 0.84,-0.85 0.650391,-1.841562 1.650391,-2.101562 a 23.09,23.09 0 0 0 2.839844,-0.910156 c 0.59,-0.25 1.160468,-0.579141 1.730468,-0.869141 a 29.83,29.83 0 0 0 3.199219,-1.970703 17.33,17.33 0 0 0 1.410157,-1.119141 23.56,23.56 0 0 0 2.550781,-2.449218 18.77,18.77 0 0 0 2.189453,-2.720704 A 25.42,25.42 0 0 0 33.369141,28 43.7,43.7 0 0 0 34.5,20.130859 a 32,32 0 0 1 5.339844,1.689453 1,1 0 0 1 0.06055,-0.359374 V 21.310547 A 5,5 0 0 0 39.06055,19.419922 10.09,10.09 0 0 0 38.2793,18.470703 9.15,9.15 0 0 0 37.439456,17.560547 c -0.3,-0.27 -0.578672,-0.559844 -0.888672,-0.839844 a 21.85,21.85 0 0 0 -4,-2.830078 35.94,35.94 0 0 0 -4.919922,-5 A 29.83,29.83 0 0 0 23.429688,5.8105469 30.39,30.39 0 0 0 15.060547,2.3398438 21,21 0 0 0 8.7890625,1.7207031 l -1.1699219,0.058594 a 5,5 0 0 1 -1.3300781,0.089844 9.51,9.51 0 0 1 -2,-0.99999998 17.42,17.42 0 0 0 -2.1191406,-0.81835937 z"/>
        <ellipse fill="#FFF" cx="11.317" cy="4.654" ry="1.096" rx="1.168"/>
    </g>
  <rect width="51" height="31" fill="#263171"/>
  <line x1="0" y1="0" x2="50" y2="30" stroke="#FFF" stroke-width="6"/>
  <line x1="0" y1="30" x2="50" y2="0" stroke="#FFF" stroke-width="6"/>
  <polygon
          points="0,0 25,15 23.5857864376269049511983112757903019214303281246230519268233202620,16.4142135623730950488016887242096980785696718753769480731766797379 -1.4142135623730950488016887242096980785696718753769480731766797379,1.4142135623730950488016887242096980785696718753769480731766797379"
          fill="#F0163A"/>
  <polygon
          points="50,0 25,15 23.5857864376269049511983112757903019214303281246230519268233202620,13.5857864376269049511983112757903019214303281246230519268233202620 48.5857864376269049511983112757903019214303281246230519268233202620,-1.4142135623730950488016887242096980785696718753769480731766797379"
          fill="#F0163A"/>
  <polygon
          points="0,30 25,15 26.4142135623730950488016887242096980785696718753769480731766797379,16.4142135623730950488016887242096980785696718753769480731766797379 1.4142135623730950488016887242096980785696718753769480731766797379,31.4142135623730950488016887242096980785696718753769480731766797379"
          fill="#F0163A"/>
  <polygon
          points="50,30 25,15 26.4142135623730950488016887242096980785696718753769480731766797379,13.5857864376269049511983112757903019214303281246230519268233202620 51.4142135623730950488016887242096980785696718753769480731766797379,28.5857864376269049511983112757903019214303281246230519268233202620"
          fill="#F0163A"/>
  <rect width="50" height="10" fill="#FFF" y="10"/>
  <rect width="10" height="30" fill="#FFF" x="20"/>
  <rect width="50" height="6" fill="#F0163A" y="12"/>
  <rect width="6" height="30" fill="#F0163A" x="22"/>
  <polygon points="50,0 100,0 100,60, 0,60 0,30 50,30" fill="#263171"/>
    <path d="m 64.88851,17.167832 0.137588,11.015424 c 0,0 0.873259,10.209555 10.077582,15.04758 0,0 8.126087,-3.860873 10.007385,-15.04758 V 17.302612 c 0,0 -6.045426,2.294061 -9.942803,-0.73848 0,0 -5.402415,3.526733 -10.279752,0.6037 z"
          fill="#FFF"/>
    <path d="m 67.603758,35.882541 c 1.493807,2.642241 3.897376,5.615816 7.556081,7.553273 0,0 4.063043,-2.176129 7.115239,-7.345488"
          fill="#09B0C2"/>
    <use width="39.95" height="56.18" transform="matrix(0.21620893,0,0,0.21620893,75.223998,23.538724)" href="#a"/>
    <use width="39.95" height="56.18"
         transform="matrix(-0.10810447,0.18724243,-0.18724243,-0.10810447,77.868597,28.994502)" href="#a"/>
    <use width="39.95" height="56.18"
         transform="matrix(-0.10810447,-0.18724243,0.18724243,-0.10810447,71.800068,28.835183)" href="#a"/>
</svg>
