<?xml version="1.0" encoding="UTF-8"?>
<!DOCTYPE xml>
<svg height="750" width="1500" version="1.1" id="svg42" xml:space="preserve"
	xmlns:xlink="http://www.w3.org/1999/xlink"
	xmlns="http://www.w3.org/2000/svg">
	<defs id="defs42" />
	<path d="M 0,0 H 1500 V 750 H 0 Z" fill="#00247d" id="path1" style="display:inline;fill:#002377;fill-opacity:1" />
	<g id="g1908" transform="scale(0.5)" style="display:inline">
		<g id="a" style="display:inline">
			<path id="b" d="M 0,0 H 167.7051 L 625,228.64745 V 0 h 50 L 750,325 0,300 V 250 H 332.2949 L 0,83.852549 Z" fill="#ffffff" style="display:inline" />
			<use height="750" transform="matrix(-1,0,0,1,1500,0)" width="1500" xlink:href="#b" id="use1" style="display:inline" />
			<path d="M 0,0 500,250 H 388.1966 L 0,55.901699 Z M 1500,0 1000,250 H 888.1966 l 500,-250 z" fill="#cf142b" id="path2" style="display:inline;fill:#c10f1e;fill-opacity:1" />
		</g>
		<use height="750" transform="rotate(180,750,375)" width="1500" xlink:href="#a" id="use2" style="display:inline" />
		<path d="m 675,0 h 150 v 300 h 675 V 450 H 825 V 750 H 675 V 450 H 0 V 300 h 675 z" fill="#cf142b" id="path3" style="display:inline;fill:#c10f1e;fill-opacity:1" />
	</g>
	<g id="g42" transform="matrix(1.495657,0,0,1.495657,-530.47793,586.07777)" style="display:inline;opacity:1">
		<path id="path6" style="display:inline;fill:#ffffff" d="m 747.50977,253.93164 c -39.28825,22.58797 -81.64359,21.85417 -108.16211,3.67969 v 140.46875 c 0,48.62559 29.58867,103.13909 108.16211,131.62695 78.5714,-28.48786 108.16211,-83.00136 108.16211,-131.62695 V 257.61133 c -26.51849,18.17448 -68.87082,18.90828 -108.16211,-3.67969 z" transform="matrix(0.98357576,0,0,0.98357576,371.62446,-526.51125)" />
		<path id="path3088" fill="#0073bd" d="m 1009.74,-89.013 c 13.86,33.12 44.19,64.318 97.118,83.509 52.933,-19.19 83.258,-50.389 97.121,-83.509 z" style="display:inline;opacity:1;fill:#00a6bc;fill-opacity:1" />
	</g>
	<g id="g74358" transform="translate(0.04217123,16.810767)" style="display:inline;opacity:1">
		<g id="g6012" style="display:inline;opacity:1" transform="matrix(1.5042326,0,0,1.5102838,-540.08222,589.11757)">
			<path id="path3090" fill="#e77329" d="m 1176.776,-226.106 c -12.438,-11.473 -27.048,-6.279 -38.644,-16.303 -9.984,-8.638 -24.631,-12.079 -35.744,-11.113 0.728,-1.448 1.692,-3.138 2.417,-4.586 -52.65,12.559 -58.443,82.121 -10.385,90.093 0.603,-7.368 -5.314,-11.837 -5.557,-19.083 2.295,0.481 4.952,1.451 6.764,2.66 -0.724,-8.215 -7.966,-9.896 -7.729,-20.05 0.482,-20.531 10.906,-33.256 29.706,-34.782 8.938,-0.724 21.095,2.828 24.878,10.388 1.447,2.9 4.344,6.883 6.517,9.055 2.056,2.056 2.114,1.331 2.419,-1.569 0.637,-6.124 11.557,-8.859 24.392,-2.896 3.379,1.567 3.487,0.513 0.966,-1.814 z" style="display:inline;fill:#ff5a00;fill-opacity:1" />
			<circle id="circle3096" fill="#ffffff" cx="1076.4893" cy="-188.06282" r="2.3401086" style="display:inline;stroke-width:0.94818" />
		</g>
		<g id="g6016" style="display:inline;opacity:1" transform="matrix(1.5061629,0,0,1.5060766,-541.85606,587.97602)">
			<path id="path3090_1_" fill="#e77329" d="m 1049.0988,-228.43803 c -5.9735,9.78019 -10.3299,29.32899 -13.2129,44.38299 -3.4083,14.88723 5.1866,38.18594 17.2627,42.89745 1.0414,1.09864 -0.9695,3.48528 -2.3491,4.88141 31.1213,7.98465 83.0718,-1.32104 79.539,-51.06381 -4.6136,5.23038 -10.067,11.10396 -16.7529,12.10032 0,0 0.1518,-7.9278 -0.5146,-9.53559 -2.1704,6.19479 -7.7522,17.67302 -17.2552,23.66786 -17.2782,10.14477 -36.5163,9.5469 -48.0487,-2.71455 -7.6322,-10.2918 -8.5443,-24.10239 -2.4003,-31.21157 2.2194,-2.33068 5.6635,-4.32285 7.6733,-5.24669 0.9342,-0.47512 3.6095,-1.80641 3.1997,-2.51411 -0.2867,-0.4951 -1.4101,0.3299 -3.9846,-1.2449 -6.5612,-3.57552 -3.9793,-17.61245 -2.3668,-21.50231 2.3006,-4.92284 0.9683,-6.03456 -0.7896,-2.8965 z" style="display:inline;fill:#ff5a00;fill-opacity:1" />
			<path id="path3098" fill="#ffffff" d="m 1122.6121,-172.48859 c -1.2879,0 -2.3377,1.04731 -2.3377,2.33726 0,1.29375 1.0488,2.34296 2.3377,2.34296 1.2947,0 2.3425,-1.04826 2.3425,-2.34296 0,-1.28995 -1.0478,-2.33726 -2.3425,-2.33726 z" style="display:inline;stroke-width:0.948469" />
		</g>
		<g id="g6008" style="display:inline;opacity:1" transform="matrix(1.5081481,0,0,1.5051268,-544.68749,587.6503)">
			<path id="path3090_2_" fill="#e77329" d="m 1100.7339,-113.27 c 16.4893,0.0631 25.2301,-6.82937 39.7091,-11.85937 26.3465,-9.17437 30.2142,-30.75343 30.6719,-39.10535 1.5586,0.6854 4.5464,4.87266 5.4374,6.22466 7.1395,-43.71156 -32.6794,-63.89425 -57.5357,-60.64245 3.0702,4.03885 8.6456,8.16917 11.5324,14.75803 -2.0654,0.15907 -4.903,0.97217 -6.856,1.93717 5.7209,2.64425 10.5472,4.98575 14.8763,8.93054 22.1356,21.46422 19.4199,41.28371 10.0037,54.73397 -6.0985,7.85228 -13.9163,10.92116 -22.3543,10.41716 -3.235,-0.197 -14.819,-6.78291 -17.786,-5.98791 -2.809,0.753 -2.5443,0.99785 -0.1853,2.71185 4.985,3.614 2.2283,13.1008 -8.6851,16.1367 -3.5475,0.97395 -1.6866,1.59495 1.1716,1.745 z" style="display:inline;fill:#ff5a00;fill-opacity:1" />
			<path id="path3100" fill="#ffffff" d="m 1142.2143,-212.76703 c -1.2924,0 -2.343,1.04437 -2.343,2.33916 0,1.29384 1.0496,2.34106 2.343,2.34106 1.2904,0 2.3372,-1.04722 2.3372,-2.34106 0,-1.29479 -1.0468,-2.33916 -2.3372,-2.33916 z" style="display:inline;stroke-width:0.948372" />
		</g>
	</g>
</svg>
