<svg height="750" width="1500" xmlns:xlink="http://www.w3.org/1999/xlink" xmlns="http://www.w3.org/2000/svg">
	<path d="M0 0h1500v750H0z" fill="#002377" />
	<g transform="scale(.5)">
		<g id="prefix__b" display="inline">
			<path id="prefix__a" d="M0 0h167.705L625 228.647V0h50l75 325L0 300v-50h332.295L0 83.853z" fill="#fff"
				display="inline" />
			<use height="750" transform="matrix(-1 0 0 1 1500 0)" width="1500" xlink:href="#prefix__a" />
			<path d="M0 0l500 250H388.197L0 55.902zm1500 0l-500 250H888.197l500-250z" fill="#c10f1e" />
		</g>
		<use height="750" transform="rotate(180 750 375)" width="1500" xlink:href="#prefix__b" />
		<path d="M675 0h150v300h675v150H825v300H675V450H0V300h675z" fill="#c10f1e" />
	</g>
	<path
		d="M1125 172.154c-57.796 33.23-120.105 32.15-159.116 5.413V384.21c0 71.533 43.528 151.727 159.116 193.635 115.586-41.908 159.117-122.102 159.117-193.635V177.567c-39.011 26.737-101.315 27.816-159.117-5.413z"
		fill="#fff" />
	<path fill="#00a6bc"
		d="M979.747 452.945c20.73 49.536 66.093 96.198 145.255 124.9 79.17-28.701 124.525-75.364 145.26-124.9z" />
	<g>
		<g transform="matrix(1.50423 0 0 1.51028 -540.04 605.928)">
			<path fill="#ff5a00"
				d="M1176.776-226.106c-12.438-11.473-27.048-6.279-38.644-16.303-9.984-8.638-24.631-12.079-35.744-11.113.728-1.448 1.692-3.138 2.417-4.586-52.65 12.559-58.443 82.121-10.385 90.093.603-7.368-5.314-11.837-5.557-19.083 2.295.481 4.952 1.451 6.764 2.66-.724-8.215-7.966-9.896-7.729-20.05.482-20.531 10.906-33.256 29.706-34.782 8.938-.724 21.095 2.828 24.878 10.388 1.447 2.9 4.344 6.883 6.517 9.055 2.056 2.056 2.114 1.331 2.419-1.569.637-6.124 11.557-8.859 24.392-2.896 3.379 1.567 3.487.513.966-1.814z" />
			<circle fill="#fff" cx="1076.489" cy="-188.063" r="2.34" />
		</g>
		<path fill="#ff5a00"
			d="M1038.3 260.742c-8.997 14.73-15.559 44.171-19.901 66.844-5.133 22.421 7.812 57.51 26 64.607 1.569 1.654-1.46 5.249-3.538 7.351 46.874 12.026 125.12-1.99 119.799-76.906-6.949 7.878-15.163 16.724-25.233 18.224 0 0 .23-11.94-.775-14.36-3.269 9.329-11.676 26.616-25.989 35.645-26.024 15.279-55 14.378-72.369-4.089-11.495-15.5-12.87-36.3-3.615-47.007 3.343-3.51 8.53-6.51 11.557-7.902 1.407-.715 5.437-2.72 4.82-3.786-.433-.746-2.125.497-6.002-1.875-9.882-5.385-5.994-26.526-3.565-32.384 3.465-7.414 1.458-9.089-1.19-4.362z" />
		<path fill="#fff" d="M1149.023 345.006a3.524 3.524 0 10.007 7.049 3.524 3.524 0 00-.007-7.05z" />
		<g>
			<path fill="#ff5a00"
				d="M1115.424 433.975c24.869.095 38.051-10.279 59.888-17.85 39.734-13.808 45.567-46.287 46.257-58.858 2.351 1.032 6.857 7.334 8.2 9.369 10.768-65.792-49.285-96.17-86.772-91.275 4.63 6.08 13.04 12.296 17.393 22.213-3.115.24-7.394 1.463-10.34 2.916 8.628 3.98 15.907 7.504 22.436 13.441 33.384 32.307 29.288 62.138 15.087 82.382-9.198 11.819-20.988 16.438-33.714 15.679-4.879-.296-22.349-10.21-26.824-9.013-4.236 1.134-3.837 1.502-.28 4.082 7.519 5.44 3.361 19.718-13.098 24.288-5.35 1.466-2.543 2.4 1.767 2.626z" />
			<path fill="#fff"
				d="M1177.983 284.22a3.526 3.526 0 00-3.534 3.52 3.528 3.528 0 003.534 3.524 3.524 3.524 0 003.525-3.524 3.52 3.52 0 00-3.525-3.52z" />
		</g>
	</g>
</svg>