<svg height="750" width="1500" xmlns:xlink="http://www.w3.org/1999/xlink" xmlns="http://www.w3.org/2000/svg">
	<path d="M0 0h1500v750H0z" fill="#002377" />
	<g transform="scale(.5)">
		<g id="prefix__b" display="inline">
			<path id="prefix__a" d="M0 0h167.705L625 228.647V0h50l75 325L0 300v-50h332.295L0 83.853z" fill="#fff"
				display="inline" />
			<use height="750" transform="matrix(-1 0 0 1 1500 0)" width="1500" xlink:href="#prefix__a" />
			<path d="M0 0l500 250H388.197L0 55.902zm1500 0l-500 250H888.197l500-250z" fill="#c10f1e" />
		</g>
		<use height="750" transform="rotate(180 750 375)" width="1500" xlink:href="#prefix__b" />
		<path d="M675 0h150v300h675v150H825v300H675V450H0V300h675z" fill="#c10f1e" />
	</g>
	<path
		d="M1125 172.154c-57.796 33.23-120.105 32.15-159.116 5.413V384.21c0 71.533 43.528 151.727 159.116 193.635 115.586-41.908 159.117-122.102 159.117-193.635V177.567c-39.011 26.737-101.315 27.816-159.117-5.413z"
		fill="#fff" />
	<path fill="#00a6bc"
		d="M979.747 452.945c20.73 49.536 66.093 96.198 145.255 124.9 79.17-28.701 124.525-75.364 145.26-124.9z" />
	<g stroke="#000" stroke-width=".669">
		<g transform="translate(-530.436 602.889) scale(1.49566)">
			<path fill="#ff5a00"
				d="M1176.776-226.106c-12.438-11.473-27.048-6.279-38.644-16.303-9.984-8.638-24.631-12.079-35.744-11.113.728-1.448 1.692-3.138 2.417-4.586-52.65 12.559-58.443 82.121-10.385 90.093.603-7.368-5.314-11.837-5.557-19.083 2.295.481 4.952 1.451 6.764 2.66-.724-8.215-7.966-9.896-7.729-20.05.482-20.531 10.906-33.256 29.706-34.782 8.938-.724 21.095 2.828 24.878 10.388 1.447 2.9 4.344 6.883 6.517 9.055 2.056 2.056 2.114 1.331 2.419-1.569.637-6.124 11.557-8.859 24.392-2.896 3.379 1.567 3.487.513.966-1.814z" />
			<circle fill="#fff" cx="1076.489" cy="-188.063" r="2.34" />
		</g>
		<path fill="#ff5a00"
			d="M1038.656 261.224c-8.934 14.627-15.45 43.866-19.762 66.381-5.097 22.267 7.758 57.113 25.82 64.16 1.557 1.643-1.45 5.213-3.514 7.301 46.547 11.942 124.247-1.976 118.963-76.374-6.9 7.823-15.057 16.608-25.057 18.098 0 0 .227-11.857-.77-14.262-3.246 9.265-11.594 26.433-25.807 35.4-25.842 15.172-54.616 14.278-71.865-4.06-11.415-15.394-12.779-36.05-3.59-46.683 3.32-3.486 8.471-6.465 11.477-7.847 1.397-.71 5.399-2.702 4.786-3.76-.43-.74-2.11.493-5.96-1.862-9.813-5.348-5.952-26.342-3.54-32.16 3.441-7.363 1.448-9.026-1.18-4.332z"
			stroke-width="1.001" />
		<path fill="#fff" d="M1148.607 344.905a3.5 3.5 0 10.007 7 3.5 3.5 0 00-.007-7z" stroke-width="1.001" />
		<g stroke-width="1.001">
			<path fill="#ff5a00"
				d="M1115.885 433.475c24.662.095 37.735-10.214 59.39-17.737 39.406-13.722 45.19-45.997 45.875-58.488 2.332 1.025 6.8 7.288 8.133 9.31 10.678-65.378-48.877-95.564-86.054-90.7 4.592 6.04 12.931 12.218 17.249 22.072-3.09.238-7.333 1.454-10.254 2.898 8.556 3.955 15.775 7.457 22.25 13.357 33.107 32.103 29.045 61.746 14.961 81.863-9.12 11.744-20.814 16.334-33.434 15.58-4.838-.294-22.164-10.144-26.602-8.955-4.2 1.126-3.805 1.492-.277 4.056 7.456 5.405 3.333 19.594-12.99 24.135-5.306 1.456-2.522 2.385 1.753 2.61z" />
			<path fill="#fff" d="M1177.925 284.662a3.5 3.5 0 10-.008 7 3.5 3.5 0 00.008-7z" />
		</g>
	</g>
</svg>