<svg width="1000" height="700" xmlns="http://www.w3.org/2000/svg">
    <path d="M0 0h1000v700H0V0z" fill="#d60132" />
    <path d="M0 0h680v700H0V0z" fill="#fede00" />
    <path d="M0 0h320v700H0V0z" fill="#1007a0" />
    <path
        d="M469.684 188.713c12.03 0 16.95 10.323 28.978 10.323 7.427 0 11.756-2.427 18.229-6.078 4.515-2.558 7.397-3.921 12.583-3.921 5.309 0 8.564 1.605 11.28 6.158 1.535 2.576 2.81 7.616 2.135 10.509a62.66 62.516 0 01-4.255 12.933c-1.04 2.435-2.024 3.892-2.024 6.556 0 6.387 8.688 8.582 14.597 8.672 1.287.02 12.118.198 18.782-6.55-3.616-.16-7.662-2.96-7.662-6.578 0-4.093 2.875-6.863 6.773-8.045.74-.211 2.002.443 2.672.09.953-.494.508-1.566 1.355-2.237 1.94-1.552 3.2-2.52 5.688-2.52a5.712 5.698 0 013.878 1.163c.689.494.94 1.105 1.787 1.105 1.783 0 2.666-1.128 4.446-1.128a6.85 6.835 0 013.598.846c1.058.547 1.035 2.347 2.234 2.347.6 0 3.773-1.295 5.43-1.295 3.44 0 5.276 1.246 7.5 3.857.598.706.982 2.134 1.592 2.134a9.703 9.705 0 015.822 2.556 9.875 9.852 0 011.677 2.034c.406.653 1.028 2.246 1.745 2.522.926.193 1.82.52 2.65.969a9.326 9.305 0 014.37 7.6 15.852 15.855 0 01-.75 3.305c-2.936 10.268-9.921 13.527-16.979 22.347-2.998 3.757-5.365 6.756-5.365 11.572 0 1.165 1.433 3.298 2.07 4.269-.389-2.264.645-5.043 3.037-5.172a6.079 6.08 0 016.248 5.56 7.047 7.03 0 01-.518 2.845 14.86 14.827 0 016.206-2.199c.986-.12 1.98-.162 2.974-.13 5.235.13 11.015 3.076 14.522 6.055 10.73 9.117 12.027 22.458 11.442 26.163-1.303 8.234-.484 23.132-21.522 29.072 3.89 1.639 6.538 4.567 6.538 8.166a7.098 7.1 0 01-6.916 7.27 6.804 6.789 0 01-5.362-2.118c-4.374 4.374-5.22 8.838-5.22 15.03a19.337 19.293 0 002.257 9.244c1.64 3.547 2.822 5.628 5.784 8.188 1.571-2.366 3.23-4.094 6.068-4.094 2.752 0 5.081.881 6.21 3.387.335.759.034 1.378.422 2.116.495.954 1.324 1.166 1.836 2.117.793 1.466.018 2.718.705 4.234.44.988 1.412 1.131 1.834 2.119a9.195 9.174 0 01.848 4.233c0 4.693-4.27 8.045-8.962 8.045-1.41 0-2.185-.564-3.598-.423 2.683 2.682 4.727 3.846 6.774 7.057 2.962 4.64 3.703 7.938 4.373 13.41.11.889.158 1.785.143 2.681 0 7.022-1.094 11.221-4.234 17.5-2.998 6.017-5.556 9.352-11.007 13.268-8.501 6.12-14.693 7.887-24.976 9.88a115.69 115.424 0 01-17.073 2.259l-22.015 1.128c-11.218.759-18.995 2.347-26.951 10.305 3.758 2.75 6.35 5.451 6.35 10.091 0 4.763-2.946 8.168-7.48 9.668-1.057.352-1.834.035-2.822.564-1.18.617-1.128 1.977-2.257 2.682a9.664 9.642 0 01-5.927 1.553c-4.197 0-7.056-.989-10.018-3.953-3.44 2.858-4.604 5.434-8.467 7.622-1.27.706-1.923 1.694-3.387 1.694-2.311 0-3.37-1.464-5.22-2.823a35.817 35.825 0 01-6.916-6.35c-3.51 2.098-5.662 3.81-9.736 3.81a10.136 10.113 0 01-6.21-1.695c-1.11-.688-1.287-1.711-2.398-2.4-1.164-.722-2.135-.457-3.386-.988-4.71-2.027-7.762-5.521-7.762-10.654 0-4.5 2.84-7.359 6.916-9.246-7.815-7.815-15.505-9.173-26.53-9.879l-21.872-1.13a153.973 153.999 0 01-17.216-2.258c-5.064-.829-8.061-1.093-12.7-3.246-15.963-7.446-26.14-17.66-28.223-35.144a28.603 28.537 0 01-.14-3.881c0-9.105 3.58-14.66 10.018-21.1-1.658-.39-2.77.16-4.375-.424-4.021-1.465-6.914-4.253-6.914-8.54a7.194 7.177 0 01.847-4.022c.546-.97 1.587-1.165 1.833-2.258.318-1.448-.106-2.47.566-3.811.44-.899 1.269-1.076 1.692-1.977 1.394-2.892 3.14-5.221 6.35-5.221 2.753 0 4.517 1.447 5.927 3.811 2.682-1.235 3.423-3.247 4.94-5.787 2.521-4.217 3.668-7.164 3.668-12.068a23.828 23.833 0 00-1.411-8.68c-.776-2.33-1.094-3.917-2.822-5.645a6.804 6.789 0 01-5.363 2.117 8.122 8.122 0 01-7.901-8.327 7.523 7.506 0 014.657-7.2c-2.417-2.08-4.517-2.256-7.198-3.95-4.073-2.577-5.502-5.293-8.184-9.317-1.746-2.629-2.205-4.463-3.104-7.48a29.308 29.315 0 01-1.694-9.597 17.489 17.493 0 01.14-2.541c1.008-7.657 2.383-12.456 7.198-18.49 2.857-3.58 4.797-5.786 9.032-7.62 3.597-1.554 5.75-2.683 9.665-2.683a21.632 21.636 0 013.035.142c1.58.086 3.121.52 4.514 1.27.6.336 1.694 1.341 1.694.635 0-.812-.424-1.235-.424-2.047 0-3.245 2.328-6.21 5.575-6.21 2.346 0 3.298 2.065 4.444 4.093a6.107 6.093 0 001.13-3.527c0-5.364-2.876-8.098-6.21-12.28-7.266-9.086-16.369-13.338-16.369-24.982 0-3.475 1.676-5.84 4.658-7.62.863-.513 2.026 0 2.872-.543.723-.46.64-1.393 1.098-2.134a10.413 10.39 0 012.37-2.521c1.657-1.447 3.114-1.014 4.948-2.284.917-.635 1.134-1.46 1.84-2.306 2.046-2.47 3.883-3.664 7.11-3.664a9.217 9.196 0 014.033.606c.51.195 1.468.966 1.592.817a7.337 7.339 0 012.239-1.81 6.36 6.36 0 013.425-.905c1.729 0 2.86.969 4.59.969.634 0 .782-.633 1.293-.969 1.534-1.04 2.417-1.63 4.287-1.63a7.134 7.117 0 014.31 1.565c1.428.901 1.634 2.105 3.098 2.953.81.476 1.5.264 2.4.564 4.02 1.341 7.056 4.022 7.056 8.258a6.5 6.484 0 01-2.259 5.432c-1.358 1.2-2.645.989-4.373 1.553 5.608 4.481 10.488 5.592 17.65 5.592 6.562 0 14.587-2.682 14.587-9.245 0-3.053-1.687-4.693-2.887-7.498-2.152-4.993-3.32-7.93-3.32-13.364 0-4.304.47-6.916 2.975-10.41 2.575-3.598 5.72-4.438 10.148-4.438z"
        fill="#c6aa76" />
    <g fill="none" stroke="#704029">
        <path
            d="M425.59 223.46a5.564 5.564 0 003.82 3.807 5.894 5.894 0 005.986-2.177 6.92 6.92 0 00.833-6.297 7.32 7.32 0 00-2.698-3.468l-7.938 8.057-.002.079z"
            stroke-linejoin="round" stroke-width="1.041" transform="matrix(1.0008 0 0 .9985 -.5 .522)" />
        <path
            d="M626.61 343.94c-1.866-4.51-6.686-2.488-6.983 0-.683 5.732 4.34 7.464 7.916 6.53a6.22 6.22 0 003.896-3.03 7.55 7.55 0 00.61-5.824 8.38 8.38 0 00-3.325-4.471c-1.375-.878-2.874-.965-5.224-.965-8.708 0-16.327 10.289-18.886 20.977a46.074 46.074 0 00-.396 18.815 35.044 35.044 0 009.16 17.585 39.21 39.21 0 008.99 6.435 38.76 38.76 0 006.496 2.683 12.41 12.41 0 006.159.142c5.16-1.12 7.559-5.92 4.96-10.83-2.129-4.02-8.397-6.219-11.352-1.088a5.1 5.1 0 00-.628 2.411 4.65 4.65 0 001.561 3.64c2.246 1.428 5.838 1.024 5.672-2.941"
            stroke-linecap="round" stroke-width="1.037" transform="matrix(1.0008 0 0 .9985 -.5 .522)" />
        <path
            d="M599.69 403.07a17.66 17.66 0 0110.343-5.703c4.654-.572 8.699.783 12.828 3.004 8.06 4.335 12.554 8.995 15.549 17.641a26.91 26.91 0 011.304 9.022c-.14 5.604-1.563 11.73-3.092 14.692-1.334 2.583-4.82 13.994-23.946 21.868-11.161 4.594-28.3 5.653-40.118 6.12-16.256.642-31.254 1.244-39.962 11.973"
            stroke-width="1.276" transform="matrix(1.0008 0 0 .9985 -.5 .522)" />
        <g stroke-width="1.121">
            <path
                d="M603.75 421.45c-.466-1.71-.035-3.35 1.322-5.209 1.814-2.486 5.675-3.343 9.174-1.4a11.61 11.61 0 013.965 3.266l1.788 2.488a19.33 19.33 0 011.703 3.887c3.846 10.928-2.265 22.771-10.255 27.522-6.206 3.69-13.608 5.336-22.469 6.375-3.982.468-6.256.437-10.263.623-3.223.149-6.008.096-8.63.064l-6.297-.064a110.46 110.46 0 00-11.274.155c-4.55.331-7.972.448-11.818 1.089-2.511.418-5.455.822-8.542 1.515-.926.207-1.865.377-2.809.661l-1.881.575a62.311 62.311 0 00-15.257 6.521 27.29 27.29 0 00-3.877 2.708c-.665.627-1.472 1.256-2.124 1.898-2.99 2.941-6.047 6.126-6.762 10.438a15.452 15.452 0 00-.132 2.507c0 2.798 2.278 6.608 8.42 7.852m8.638-265.81c1.285 2.324 1.992 3.738 1.244 6.142-.847 2.723-2.778 4.354-5.52 4.354-6.22 0-9.878-7.364-7.075-12.051 4.976-8.319 14.539-3.647 23.402.474-.428-2.134-1.174-2.828-1.096-5.471.193-6.565 5.061-9.542 7.005-15.605 1.157-3.613 1.618-6.75-1.025-9.316-2.308-2.24-4.982-2.205-7.994-1.025-6.018 2.359-13.246 9.138-25.97 9.326-12.724-.188-20.012-6.967-26.03-9.326-3.012-1.18-5.686-1.214-7.994 1.025-2.643 2.566-2.183 5.703-1.025 9.316 1.944 6.064 6.812 9.04 7.005 15.605.077 2.643-.669 3.337-1.096 5.47 8.863-4.12 18.798-9.211 23.402-.473 2.565 4.869-.855 12.05-7.075 12.05-2.742 0-4.667-1.747-5.52-4.353a6.71 6.71 0 011.244-6.142"
                transform="matrix(1.0008 0 0 .9985 -.5 .522)" />
            <path
                d="M491.5 224.79c2.403 1.838 4.1 4.1 3.817 7.775-.307 3.986-1.273 4.947-4.382 7.068m3.745-5.933a5.124 5.124 0 01-3.534 4.947"
                stroke-linecap="round" transform="matrix(1.0008 0 0 .9985 -.5 .522)" />
        </g>
    </g>
    <path
        d="M432.234 214.684l1.089.776 1.167 1.243.778 1.553.39 1.319.078 1.707-.078 1.166-.39 1.32-.778.93-.934 1.009-1.322.699-1.711.39-1.48.232-1.556-.7-1.4-1.008-.856-1.243-.622-1.553v-.62l7.626-7.219z"
        fill="#c6aa76" />
    <g fill="none" stroke="#704029">
        <path
            d="M430.01 220.57c-.478-2.581-3.496-3.11-4.665-1.586-1.8 2.348-.485 6.257 3.176 7.401a5.89 5.89 0 005.987-2.177 6.78 6.78 0 00-1.587-9.451l-.279-.189c-4.252-3.233-11.118-2.488-13.373 2.954-2.909 7.02 3.42 12.284 9.252 16.25 7.34 4.991 15.705 5.899 22.003 5.83 14.306-.155 25.19-6.997 32.265-10.884 1.648-.905 3.345-.72 4.198.311a3.115 3.115 0 01-.389 4.276"
            stroke-linecap="round" stroke-width="1.041" transform="matrix(1.0008 0 0 .9985 -.5 .522)" />
        <path
            d="M387.6 414.35l-3.188 1.166-3.265 2.488-1.4 1.944-1.788 3.11-.777 2.332-.622 2.877-.311 2.177m29.701-15.784l-.233 2.8-.467 1.943-1.4 3.343-2.176 2.877-2.333 1.865-1.71.856-2.41.544"
            stroke-width="1.057" transform="matrix(1.0008 0 0 .9985 -.5 .522)" />
        <path d="M499.6 489.23c-.58 2.588-3.004 5.548-8.279 6.617l-1.025.212" stroke-width="1.197"
            transform="matrix(1.0008 0 0 .9985 -.5 .522)" />
        <path
            d="M631.59 406.57a28.457 28.457 0 017.488 12.109 26.88 26.88 0 011.303 9.021c-.14 5.604-1.562 11.73-3.091 14.692-1.334 2.584-4.82 13.994-23.946 21.868-11.161 4.595-28.3 5.654-40.118 6.12-16.022.633-30.822 1.227-39.582 11.517"
            stroke-width="1.356" transform="matrix(1.0008 0 0 .9985 -.5 .522)" />
        <path d="M605.45 416.95c1.188-1.621 5.517-3.673 9.016-1.73a9.68 9.68 0 013.714 3.243" stroke-width=".929"
            transform="matrix(1.0008 0 0 .9985 -.5 .522)" />
        <path
            d="M627.51 402.79l2.244.767c1.997.635 4.134.685 6.158.142 4.423-1.327 7.261-5.459 4.96-10.83a8.856 8.856 0 00-2.717-3.333"
            stroke-width="1.356" transform="matrix(1.0008 0 0 .9985 -.5 .522)" />
        <path
            d="M375.44 287.13c-2.969 1.838-5.182 2.273-7.492 4.947a43.944 43.944 0 00-4.1 10.65m72.032-80.767c0 2.686-1.98 4.382-4.665 4.947"
            stroke-linecap="round" stroke-width="1.041" transform="matrix(1.0008 0 0 .9985 -.5 .522)" />
        <path d="M620.49 275.03c7.39-.15 28.859 5.64 29.012 30.876.15 24.925-15.383 28.997-21.607 30.656"
            stroke-width=".997" transform="matrix(1.0008 0 0 .9985 -.5 .522)" />
        <path d="M622.43 275.03c12.743-.554 25.892 8.826 26.472 32.236.452 18.289-12.517 26.584-18.742 28.243"
            stroke-width="1.037" transform="matrix(1.0008 0 0 .9985 -.5 .522)" />
        <path
            d="M615.33 363.16l.196-2.502.834-3.974 1.178-3.091 1.324-2.551 1.717-2.06m12.161-5.312l-.195 2.449-.7 1.672-1.088 1.594-1.244.933-1.904.7-1.672.116-1.244-.195M602.33 268.42l.544-2.643 1.166-2.45 1.517-2.449 2.604-3.343 2.06-2.293 3.343-3.382 2.877-2.916 1.827-2.099 2.41-2.915 2.138-3.227 1.283-2.643.7-3.421.212-4.242-.388-1.23m-19.183 200.27l2.527-.505 1.905-1.011 1.05-1.05.738-1.205.505-1.943.04-1.361m-247.26-18.985l1.866.155 2.41-.194 2.41-.855m7.814-57.106l-.31 2.177-.506.972-.739.933-1.01.777-1.128.505-1.477.234-1.011.078m15.471-24.406l-.544 3.382-.661 1.477-1.36 1.866-1.828 1.4-1.866.932-3.615.894m23.904-62.121l-.7 2.021-.855 1.478-1.166 1.632-1.633 1.477-1.943.934-1.633.388-1.01-.078m.59-9.682l.04 1.555"
            stroke-width=".881" transform="matrix(1.0008 0 0 .9985 -.5 .522)" />
        <g stroke-width=".987">
            <path
                d="M397.32 325.09a10.71 10.71 0 01-3.265 2.029m235.18 70.041c.134.145.581.217.739.31 2.215 1.323 6.577-.325 5.294-3.746"
                stroke-linecap="round" transform="matrix(1.0008 0 0 .9985 -.5 .522)" />
            <path
                d="M621.54 349.38c1.573 2.055 4.538 2.588 6.883 1.976a6.22 6.22 0 003.895-3.03 7.54 7.54 0 00.61-5.825 7.65 7.65 0 00-1.325-2.58 10.59 10.59 0 00-2.132-2.23c-.17-.111-.339-.262-.518-.383m10.037 53.152a6.23 6.23 0 00-1.906-5.711 7.44 7.44 0 00-1.36-1.233m.746.734c-.073-2.912-2.456-4.995-5.41-5.513m-6.52 4.433a20.74 20.74 0 01-2.042-1.69 24.55 24.55 0 01-6.742-16.677c-.037-6.473 2.566-13.062 5.598-15.627m-88.284 132.26l2.799-2.566 1.944-1.477 3.654-2.255 3.42-1.632 2.41-.622 4.821-1.089 5.598-.855m-46.106 30.256c-2.022 3.11-6.842 7.775-11.896 9.64-5.054-1.865-9.874-6.53-11.895-9.64"
                transform="matrix(1.0008 0 0 .9985 -.5 .522)" />
            <path d="M491.28 494.73a15.468 15.468 0 01-3.468 6.451" stroke-linecap="round"
                transform="matrix(1.0008 0 0 .9985 -.5 .522)" />
            <path
                d="M491.78 491.47l-.7 3.42m-3.65 6.53l-1.477 1.477-2.644 1.477-3.032.934m-8.817-277.86a9.8 9.8 0 00.71-4.014c-.193-6.565-5.06-9.542-7.005-15.606-1.157-3.612-1.618-6.75 1.026-9.316 2.307-2.24 4.981-2.205 7.993-1.025 6.018 2.36 13.308 9.138 26.032 9.326-12.724-.188-20.015-6.967-26.032-9.326-3.012-1.18-5.935-1.525-8.242.714-2.644 2.566-1.934 6.015-.777 9.627 1.944 6.064 6.563 9.041 6.756 15.606a9.61 9.61 0 01-.834 4.014m29.093-21.08c12.517-.661 23.245-9.071 26.706-9.757 3.086-.612 4.809-.336 7.072 1.721-2.264-2.057-4.842-1.993-7.77-.845-6.018 2.359-13.246 9.138-25.97 9.326m124.37 176.38a24.286 24.286 0 01-9.718-19.274c-.036-6.474 2.565-13.061 5.597-15.627m-109.3 152.46c-2.021 3.11-6.842 7.775-11.895 9.64-5.054-1.865-9.874-6.53-11.895-9.64"
                transform="matrix(1.0008 0 0 .9985 -.5 .522)" />
            <path d="M479.17 230.74l3.624-2.018c1.649-.906 3.63-.716 4.483.316a3.27 3.27 0 01-.226 4.416"
                stroke-linecap="round" transform="matrix(1.0008 0 0 .9985 -.5 .522)" />
            <path
                d="M460.48 239.49c8.588-1.792 15.585-5.638 20.875-8.597m50.425 256.54a4.15 4.15 0 011.166 1.493 6.91 6.91 0 01.521 1.326 3.353 3.353 0 01-2.533 4.008 3.35 3.35 0 01-.55.077 5.26 5.26 0 01-5.482-3.17m-64.862-252.11c8.588-1.792 15.585-5.638 20.875-8.597m152.46 167.04c-1.633.63-2.526.544-4.557-.358-.834-.37-1.788-.943-2.907-1.578-3.98-2.261-8.708-5.824-13.139-14.143a29.387 29.387 0 01-2.672-6.992 25.88 25.88 0 01-.78-5.212 40.11 40.11 0 01.964-9.72 31.62 31.62 0 016.376-14.15c1.795-2.463 3.343-3.966 6.686-4.043m-224.52-61.414a11.11 11.11 0 014.12 8.94c0 4.842-4.05 12.75-14.001 15.55a12.945 12.945 0 01-9.87-1.18m21.381-6.91a5.39 5.39 0 012.488 5.07c0 1.664-1.076 3.822-2.907 5.866a19.31 19.31 0 01-13.716 6.26 15.986 15.986 0 01-9.422-2.735 14.16 14.16 0 01-5.987-8.397"
                transform="matrix(1.0008 0 0 .9985 -.5 .522)" />
            <path
                d="M400.3 306.71c2.026 1.862 2.648 4.193 2.648 7.129 0 4.29-1.742 7.6-5.75 11.107a19.69 19.69 0 01-3.032 2.178m202.23-34.494v5.519m-.44-6.879v7.774m.44-24.604v10.185m-.44-12.435v13.918m-2.97 128.06a29.244 29.244 0 01-6.53 8.863 30.66 30.66 0 01-9.097 6.375 38.43 38.43 0 01-10.263 3.421 52.465 52.465 0 01-10.73 1.322 73.824 73.824 0 01-9.909-.255c-4.127-.285-6.417-.86-10.538-1.222a83.08 83.08 0 00-8.743-.566 44.835 44.835 0 00-8.983.643 34.411 34.411 0 00-8.086 2.255c-4.198 1.7-8.941 4.665-9.952 5.987-1.01-1.322-5.754-4.286-9.952-5.987a34.42 34.42 0 00-8.085-2.255 44.79 44.79 0 00-8.984-.643 82.8 82.8 0 00-8.743.566c-4.121.362-6.41.937-10.538 1.222a74.2 74.2 0 01-9.91.255 52.169 52.169 0 01-10.728-1.322 38.667 38.667 0 01-10.263-3.42 30.57 30.57 0 01-9.097-6.376l-.948-.953m65.889 83.39l2.799-.35m47.301-3.68l2.825-.269 2.69-1.076 1.884-1.144 2.556-3.027.538-1.144.404-2.623.134-1.21m73.299-213.59c1.213-4.128-.268-8.483-4.266-8.366m-206.17 72.756a12.78 12.78 0 01-5.62 7.293m5.69-72.993a10.186 10.186 0 01-5.724 6.26c-2.886 1.304-6.227.086-8.014-1.292"
                transform="matrix(1.0008 0 0 .9985 -.5 .522)" />
            <path d="M380.95 291.2c2.392 1.253 4.82-.584 4.322-3.696a4.45 4.45 0 00-3.933-3.433" stroke-linecap="round"
                transform="matrix(1.0008 0 0 .9985 -.5 .522)" />
            <path
                d="M390.87 422.86c.516.485.626 1.115 1.322 1.244 1.05.194 1.866.583 2.915-.816 1.294-1.725.599-4.409-.747-6.098a7.72 7.72 0 00-9.112-1.461 11.606 11.606 0 00-3.965 3.265l-1.788 2.488a19.351 19.351 0 00-1.704 3.887c-3.2 9.098.6 18.664 6.489 24.493"
                transform="matrix(1.0008 0 0 .9985 -.5 .522)" />
            <path
                d="M531.59 487.23a9.19 9.19 0 011.01 1.244 6.18 6.18 0 01.428 1.327 3.353 3.353 0 01-3.083 4.084 4.97 4.97 0 01-5.267-3.156"
                stroke-linecap="round" transform="matrix(1.0008 0 0 .9985 -.5 .522)" />
            <path
                d="M608.5 216.81a11.565 11.565 0 019.784 10.992c0 6.92-2.331 9.496-5.974 14.446-3.899 5.297-16.638 15.005-16.638 26.045 0 6.686 1.866 10.962 6.686 13.139 3.108 1.404 6.742-.116 8.397-1.61 4.042-3.655 2.426-10.063-1.788-10.829-5.132-.933-6.096 7.145-1.089 6.609m27.852 107.91a5.72 5.72 0 00-11.377.99 5.924 5.924 0 001.615 4.085m-26.178-108.7a11.11 11.11 0 00-4.12 8.94c0 4.842 4.05 12.75 14.001 15.55 3.814 1.072 7.458.971 9.74-.417m-243.8-16.153a14.64 14.64 0 00-7.55 5.395c-1.856 2.63-2.938 6.286-3.608 9.485a31.01 31.01 0 00.252 10.41 24.6 24.6 0 003.602 8.806 12.38 12.38 0 001.62 1.932 17.35 17.35 0 001.774 1.373m100.02 143.82c7.576 3.359 13.13 5.875 17.839 13.31a15.464 15.464 0 011.866 7.62 15.864 15.864 0 01-5.21 11.894 12.946 12.946 0 01-10.417 3.188c-3.007-.295-5.831-2.488-6.298-4.043m-72.62-175.79c4.276 3.343 6.064 6.586 6.064 11.74a13.056 13.056 0 01-6.22 11.662"
                transform="matrix(1.0008 0 0 .9985 -.5 .522)" />
            <path d="M392.99 344.41c6.375 7.93 9.758 12.637 9.952 22.08.181 8.863-2.644 14.927-7.93 21.303"
                stroke-linecap="round" transform="matrix(1.0008 0 0 .9985 -.5 .522)" />
            <path
                d="M515.23 239.57a6.42 6.42 0 002.497-3.485c.753-2.325.77-4.308-.474-6.096 1.534 2.009 1.675 3.705 1.243 6.142-.274 1.552-1.264 2.369-2.497 3.485m80.401 134.62v25.241h.067a38.529 38.529 0 01-.212 3.887l-.429 2.703"
                transform="matrix(1.0008 0 0 .9985 -.5 .522)" />
            <path
                d="M595.96 371.81v27.223h.067a38 38 0 01-.212 3.887l-.729 4.125m.874-67.105v22.702m.44-20.912v18.463m0-41.943v13.841m-.44-15.471v17.064m.44-29.584v5.37m-.44-6.46v7.776m-2.88 101.86l-.53 1.084a29.244 29.244 0 01-6.53 8.863 30.67 30.67 0 01-9.097 6.376 38.43 38.43 0 01-10.263 3.42 52.32 52.32 0 01-10.73 1.322c-3.305.135-6.615.05-9.908-.255-4.128-.285-6.417-.86-10.538-1.222a83.226 83.226 0 00-8.743-.566 44.767 44.767 0 00-8.984.644 34.39 34.39 0 00-8.086 2.254c-4.197 1.7-8.94 4.665-9.951 5.987-1.011-1.322-5.754-4.286-9.952-5.987a34.36 34.36 0 00-8.086-2.254 44.7 44.7 0 00-8.983-.644 82.69 82.69 0 00-8.743.566c-4.122.362-6.41.937-10.538 1.222a74.2 74.2 0 01-9.91.255 52.24 52.24 0 01-10.729-1.321 38.705 38.705 0 01-10.263-3.421 30.566 30.566 0 01-9.096-6.376 34.17 34.17 0 01-3.858-4.355m-3.142-4.982a15.78 15.78 0 01-3.523 12.034c-1.321 1.4-4.2 4.074-7.775 4.12-5.908.078-7.672-3.986-8.03-4.975m12.308-13.739a16.05 16.05 0 012.893 3.965c1.477 2.799 1.022 7.48-.148 9.64a6.86 6.86 0 01-.475.749m-31.63 28.146c3.514 3.687 8.828 7.692 16.99 11.052 11.161 4.595 28.3 5.654 40.118 6.12 15.715.62 30.193 1.266 39.01 10.998m27.132-6.36c2.598 2.556 5.247 5.295 6.366 8.798m-11.476 17.892a13.7 13.7 0 01-11.501 4.217 9.657 9.657 0 01-6.685-4.025m-8.364-4.542a9.78 9.78 0 00.457.577 11.88 11.88 0 007.978 3.833m41.985-.12c-2.022 3.11-6.842 7.774-11.895 9.64-5.054-1.866-9.874-6.53-11.896-9.64l-.472-.727m24.343.707a12.76 12.76 0 001.156 1.109 12.95 12.95 0 0010.418 3.187 8.544 8.544 0 006.36-4.043c.303-.329.539-.715.692-1.136"
                transform="matrix(1.0008 0 0 .9985 -.5 .522)" />
            <path d="M529.75 500.99l-1.16 1.867-1.766 1.463-2.674 1.11-2.421.1"
                transform="matrix(1.0008 0 0 .9985 -.5 .522)" />
            <path
                d="M536.03 483.22a12.03 12.03 0 013.599 4.534 10.78 10.78 0 01.787 3.698 9.15 9.15 0 01-2.222 6.474 11.745 11.745 0 01-8.43 3.866h-.734m.29-.442a10.67 10.67 0 01-8.092-3.375m99.492-106.04a37.11 37.11 0 01-7.507-10.077 29.38 29.38 0 01-2.672-6.992 25.85 25.85 0 01-.78-5.211 40.13 40.13 0 01.964-9.722 32.63 32.63 0 016.376-14.15 17.19 17.19 0 013.25-3.488m-2.151-118.46c3.965.31 7.639 4.58 7.59 8.764-.07 6.078-2.108 8.59-6.89 14.545-4.12 5.131-16.482 14.15-16.171 22.78a8.51 8.51 0 001.802 4.39m-4.941 5.411a10.847 10.847 0 003.207 2.156 7.846 7.846 0 006.654-.443m-33.081-67.533a9.443 9.443 0 013.415 4.061c2.908 7.02-3.42 12.284-9.252 16.25a33.35 33.35 0 01-12.968 5.128m12.125-11.909a6.53 6.53 0 01-4.92-2.34 5.225 5.225 0 01-1.106-1.552m-23.214 7.662a7.23 7.23 0 01-2.063-1.504 6.393 6.393 0 01-1.242-6.853c.987-2.963 5.746-11.274 5.98-17.027.356-8.79-3.025-13.977-8.313-16"
                transform="matrix(1.0008 0 0 .9985 -.5 .522)" />
            <path
                d="M542.68 203.85l-.206 3.305-.895 3.374-1.722 4.613-1.308 2.96-1.377 2.961-.688 2.066-.276 1.515.207 1.446M595.81 423.4a4.77 4.77 0 00.933 1.306c1.01 1.687 4.94 4.655 8.514 4.701 5.91.078 7.312-4.057 7.464-4.975.746-4.509-.796-5.743-3.11-7.013a5.263 5.263 0 00-2.994-.433"
                stroke-linecap="round" transform="matrix(1.0008 0 0 .9985 -.5 .522)" />
            <path
                d="M370.23 403.67c-1.88.535-3.871.546-5.757.033-4.423-1.326-8.007-5.564-6.18-10.829m20.917-49.724a2.8 2.8 0 01.653 1.67c.683 5.732-4.34 7.402-7.916 6.469a8.8 8.8 0 01-4.71-3.56 7.354 7.354 0 01-.963-3.6m34.466-36.979a7.546 7.546 0 011.931 2.757M400.9 296.6a5.98 5.98 0 011.825 2.042"
                transform="matrix(1.0008 0 0 .9985 -.5 .522)" />
            <path
                d="M402.91 303.94a13.23 13.23 0 01-2.43 3.718 19.312 19.312 0 01-13.716 6.26 15.99 15.99 0 01-9.422-2.736 14.897 14.897 0 01-6.377-8.715"
                stroke-linecap="round" transform="matrix(1.0008 0 0 .9985 -.5 .522)" />
            <path d="M399.11 280.13a12.11 12.11 0 013.698 5.295" transform="matrix(1.0008 0 0 .9985 -.5 .522)" />
            <path d="M402.86 292.56a18.42 18.42 0 01-13.473 12.248c-3.804.964-8.702-.241-10.374-1.664"
                stroke-linecap="round" transform="matrix(1.0008 0 0 .9985 -.5 .522)" />
            <path d="M375.06 291.49c.417 4.12 3.174 7.209 8.401 7.308 7.35.138 11.818-10.574 5.287-18.094"
                transform="matrix(1.0008 0 0 .9985 -.5 .522)" />
            <path
                d="M358.52 327.39a25.41 25.41 0 003.63 3.636 26.228 26.228 0 009.272 5.153m8.248.771c6.569-.789 10.272-5.684 9.538-11.41-.56-4.363-4.563-7.718-7.285-7.912"
                stroke-linecap="round" transform="matrix(1.0008 0 0 .9985 -.5 .522)" />
            <path d="M390.39 268.92a4.464 4.464 0 014.449 4.478l-.005.187"
                transform="matrix(1.0008 0 0 .9985 -.5 .522)" />
            <path
                d="M389.72 229.81a17.95 17.95 0 007.86 9.099m225.28 48.381c2.686 3.679.927 10.932-6.379 11.07a8.102 8.102 0 01-6.939-3.924"
                stroke-linecap="round" transform="matrix(1.0008 0 0 .9985 -.5 .522)" />
            <path d="M596.4 239.25v24.686" transform="matrix(1.0008 0 0 .9985 -.5 .522)" />
            <path
                d="M380.87 291.14c2.255 1.632 5.15-1.124 4.03-4.05-.757-1.975-3.563-4.106-7.45-1.463-4.294 2.92-3.11 12.13 5.13 12.284 7.35.139 11.819-10.574 5.287-18.093-6.282-7.234-17.727-5.542-25.19.396a33.43 33.43 0 00-11.04 18.164 34.314 34.314 0 00-.912 7.93 35.44 35.44 0 005.562 18.276 18.21 18.21 0 002.037 2.56 39.13 39.13 0 002.954 3.032c4.223 3.515 9.665 6.27 16.327 5.987 7.308-.311 11.507-5.442 10.729-11.507-.754-5.88-6.69-8.805-10.574-6.064-2.644 1.866-3.584 7.644 1.088 9.018 2.644.778 4.976-2.565 3.11-4.509m202.44-112.42c4.218-2.29 7.47-1.867 9.874 1.47a15.457 15.457 0 012.41 11.28c-.855 4.199-2.068 5.942-5.407 8.988m3.303-19.868c4.82-3.187 10.041-1.834 12.906 2.41 2.1 3.11 2.636 5.712 2.488 9.563a17.555 17.555 0 01-8.941 14.383"
                stroke-linecap="round" transform="matrix(1.0008 0 0 .9985 -.5 .522)" />
            <path
                d="M617.28 223.67a8.052 8.052 0 017.153 8.086c0 5.986-1.671 8.583-6.454 14.539-4.12 5.131-16.482 14.15-16.17 22.78.117 3.263 2.868 6.338 5.241 6.51"
                transform="matrix(1.0008 0 0 .9985 -.5 .522)" />
            <path
                d="M617.75 291.14c-2.255 1.632-5.131-1.004-3.887-3.803.859-1.932 3.42-4.353 7.308-1.71 4.293 2.92 3.11 12.13-5.131 12.284-7.35.139-12.317-10.297-5.287-18.093 6.416-7.116 18.315-5.723 25.778.214 3.176 2.527 9.566 9.466 10.936 18.573 1.658 11.02 1.445 24.575-9.937 32.922a26.91 26.91 0 01-16.516 4.637c-7.308-.32-11.506-5.443-10.729-11.507.754-5.88 6.416-8.368 10.574-6.065 4.32 2.393 3.565 8.466-1.088 9.019-2.736.325-4.976-2.566-3.11-4.51"
                stroke-linecap="round" transform="matrix(1.0008 0 0 .9985 -.5 .522)" />
            <path
                d="M613.86 287.34c1.212-5.454 5.885-5.962 9.658-5.907 10.296.151 17.416 12.364 17.535 24.178.15 14.923-6.334 23.711-17.241 24.178-2.823.121-7.684-1.221-7.768-4.665"
                transform="matrix(1.0008 0 0 .9985 -.5 .522)" />
            <path d="M620.2 284.9c10.858 2.413 14.67 12.196 14.67 21.532 0 7.616-.754 18.022-15.575 21.682"
                stroke-linecap="square" transform="matrix(1.0008 0 0 .9985 -.5 .522)" />
            <path d="M638.11 389.58a6.104 6.104 0 10-9.789 3.66" transform="matrix(1.0008 0 0 .9985 -.5 .522)" />
            <g stroke-linecap="round">
                <path
                    d="M616.33 380.33a25.82 25.82 0 009.74 9.238m-1.96 16.482c-5.12-3.359-14.838-7.761-23.624-3.428-3.259 1.608-5.442 3.597-6.675 6.84a15.52 15.52 0 002.788 14.949c1.321 1.4 4.2 4.074 7.774 4.12 5.91.079 7.314-4.056 7.464-4.975.7-4.276-1.788-5.987-3.11-6.453-1.014-.358-4.312-.266-5.012 2.065a4.174 4.174 0 00.348 3.144"
                    transform="matrix(1.0008 0 0 .9985 -.5 .522)" />
                <path
                    d="M531.99 488.16c1.633 3.343-.224 5.024-2.488 5.287-3.343.388-5.131-2.255-5.364-4.665a6.87 6.87 0 016.327-7.366l.515-.02a8.674 8.674 0 017.764 5.477 10.79 10.79 0 01.788 3.697 9.147 9.147 0 01-2.223 6.474 11.745 11.745 0 01-8.429 3.866c-6.6.265-11.74-5.908-11.74-12.206 0-12.05 17.872-18.623 24.957-20.314 8.708-2.077 14.006-2.855 27.99-3.632 5.597-.311 9.697-.153 15.86-.792a94.33 94.33 0 0014.072-2.162 42.58 42.58 0 0019.592-9.952c4.55-4.131 7.153-7.075 9.26-12.75 1.817-4.898 2.653-14.596-1.951-21.77a22.4 22.4 0 00-16.171-10.565c-5.83-.843-10.942 1.672-13.995 7.456-1.477 2.8-1.022 7.48.148 9.64a9.37 9.37 0 007.471 4.666c5.909.078 7.313-4.057 7.464-4.976.7-4.276-1.788-5.987-3.11-6.453-1.014-.358-4.312-.266-5.012 2.065a4.18 4.18 0 00.347 3.144M526.9 469.02c-7.576 3.359-13.13 5.875-17.839 13.31a15.464 15.464 0 00-1.866 7.62 15.864 15.864 0 005.21 11.894 12.947 12.947 0 0010.417 3.188c3.007-.295 5.832-2.488 6.298-4.043"
                    transform="matrix(1.0008 0 0 .9985 -.5 .522)" />
            </g>
            <path d="M601.73 325.2c-3.545 1.183-6.064 6.586-6.064 11.74a13.056 13.056 0 006.22 11.662"
                transform="matrix(1.0008 0 0 .9985 -.5 .522)" />
            <path d="M605.62 344.41c-6.375 7.93-9.758 12.637-9.952 22.08-.182 8.863 2.644 14.927 7.93 21.303"
                stroke-linecap="round" transform="matrix(1.0008 0 0 .9985 -.5 .522)" />
            <path
                d="M571.64 212.58l.547-.81c2.644-3.887 7.312-4.911 10.73-2.332 4.12 3.11 5.16 8.402 4.042 13.994a13.57 13.57 0 01-6.325 8.521"
                transform="matrix(1.0008 0 0 .9985 -.5 .522)" />
            <path
                d="M414.22 210.68c-4.043-1.866-7.371-1.507-9.874 1.47-2.877 3.421-2.986 8.453-2.41 11.28.855 4.199 2.068 5.942 5.407 8.988"
                stroke-linecap="round" transform="matrix(1.0008 0 0 .9985 -.5 .522)" />
            <path
                d="M404.03 212.55c-4.82-3.187-10.041-1.834-12.906 2.41-2.1 3.11-2.636 5.712-2.488 9.563a17.555 17.555 0 008.941 14.383"
                transform="matrix(1.0008 0 0 .9985 -.5 .522)" />
            <path
                d="M390.12 216.81a10.65 10.65 0 00-9.4 10.433c0 6.92 1.703 9.718 5.59 15.005 3.897 5.299 16.638 15.005 16.638 26.045 0 6.686-1.866 10.962-6.686 13.139-3.108 1.404-6.742-.116-8.397-1.61-4.043-3.655-2.426-10.063 1.788-10.829 5.131-.933 6.096 7.145 1.089 6.609m-9.412-51.932c-3.965.31-7.867 3.723-7.867 7.908 0 5.986 2.385 8.761 7.167 14.716 4.121 5.131 15.762 13.972 15.451 22.602-.117 3.263-2.31 7.253-4.488 6.786"
                transform="matrix(1.0008 0 0 .9985 -.5 .522)" />
            <path
                d="M372 343.94c1.866-4.51 6.686-2.488 6.983 0 .683 5.732-4.34 7.464-7.916 6.53a6.218 6.218 0 01-3.896-3.03 7.55 7.55 0 01-.61-5.824 7.66 7.66 0 011.326-2.581 7.748 7.748 0 011.999-1.89c1.375-.878 2.874-.965 5.224-.965 8.708 0 16.327 10.289 18.886 20.977a46.039 46.039 0 01.396 18.815 35.051 35.051 0 01-9.16 17.585 39.21 39.21 0 01-8.99 6.435 38.76 38.76 0 01-6.496 2.683 10.954 10.954 0 01-6.158.142c-4.423-1.327-7.262-5.46-4.96-10.83 1.792-4.18 8.397-6.219 11.351-1.088a5.1 5.1 0 01.628 2.411 4.648 4.648 0 01-1.561 3.64c-2.246 1.428-5.838 1.024-5.671-2.941"
                stroke-linecap="round" transform="matrix(1.0008 0 0 .9985 -.5 .522)" />
            <path
                d="M365.24 397.49c1.633.63 2.526.544 4.557-.358.834-.37 1.789-.943 2.907-1.578 3.98-2.261 8.708-5.824 13.139-14.143a29.38 29.38 0 002.672-6.992 25.87 25.87 0 00.78-5.212 40.06 40.06 0 00-.964-9.72 31.607 31.607 0 00-6.376-14.15c-1.795-2.463-3.343-3.966-6.686-4.043M360.51 389.58a6.104 6.104 0 119.789 3.66m-7.419-9.73a5.72 5.72 0 0111.377.99 5.926 5.926 0 01-1.615 4.085"
                transform="matrix(1.0008 0 0 .9985 -.5 .522)" />
            <path d="M374.02 383.2a24.286 24.286 0 009.718-19.274c.036-6.474-2.565-13.061-5.597-15.627"
                transform="matrix(1.0008 0 0 .9985 -.5 .522)" />
            <path d="M382.29 380.33a25.82 25.82 0 01-9.74 9.238" stroke-linecap="round"
                transform="matrix(1.0008 0 0 .9985 -.5 .522)" />
            <path
                d="M397.81 402.63c-1.449-3.409-4.329-4.985-9.019-5.486-4.662-.497-8.698.784-12.828 3.005-8.06 4.335-12.554 8.995-15.55 17.641a26.88 26.88 0 00-1.303 9.021c.14 5.604 1.563 11.73 3.091 14.692 1.334 2.584 4.82 13.994 23.946 21.868 11.161 4.595 28.3 5.654 40.118 6.12 16.256.642 31.255 1.245 39.962 11.973"
                transform="matrix(1.0008 0 0 .9985 -.5 .522)" />
            <path
                d="M374.5 406.05c5.12-3.359 14.838-7.761 23.624-3.428 3.259 1.608 5.442 3.597 6.675 6.84a15.52 15.52 0 01-2.788 14.949c-1.321 1.4-4.2 4.074-7.775 4.12-5.908.079-7.313-4.056-7.463-4.975-.7-4.276 1.788-5.987 3.11-6.453 1.014-.358 4.312-.266 5.011 2.065a4.174 4.174 0 01-.347 3.144"
                stroke-linecap="round" transform="matrix(1.0008 0 0 .9985 -.5 .522)" />
            <path
                d="M394.86 421.45a5.27 5.27 0 00-1.321-5.209 8.013 8.013 0 00-9.175-1.4 11.61 11.61 0 00-3.965 3.266l-1.788 2.488a19.351 19.351 0 00-1.704 3.887c-3.845 10.928 2.413 22.532 10.256 27.522 6.842 4.354 13.84 5.598 22.47 6.375 3.993.36 6.256.437 10.263.623 3.223.149 6.008.096 8.63.064l6.296-.064a110.46 110.46 0 0111.274.155c4.55.331 7.973.448 11.818 1.089 2.512.418 5.456.822 8.543 1.515.926.207 1.865.377 2.808.661l1.882.575a62.33 62.33 0 0115.257 6.521 23.63 23.63 0 013.877 2.708c.796.795 1.472 1.256 2.123 1.898 2.99 2.941 6.048 6.126 6.763 10.438.112.831.156 1.669.132 2.507 0 2.798-2.278 6.608-8.42 7.852"
                transform="matrix(1.0008 0 0 .9985 -.5 .522)" />
            <path
                d="M466.62 488.16c-1.633 3.343.224 5.024 2.488 5.287 3.343.388 5.131-2.255 5.364-4.665a6.87 6.87 0 00-6.327-7.366l-.515-.02a8.674 8.674 0 00-7.764 5.477 10.79 10.79 0 00-.788 3.697 9.147 9.147 0 002.223 6.474 11.74 11.74 0 008.429 3.866c6.6.265 11.74-5.908 11.74-12.206 0-12.05-17.873-18.623-24.957-20.314-8.708-2.077-14.006-2.855-27.99-3.632-5.597-.311-9.697-.153-15.86-.792a94.337 94.337 0 01-14.073-2.162 42.58 42.58 0 01-19.592-9.952c-4.55-4.131-7.153-7.075-9.26-12.75-1.817-4.898-2.652-14.596 1.951-21.77a22.4 22.4 0 0116.172-10.565c5.83-.843 10.942 1.672 13.995 7.456 1.478 2.8 1.022 7.48-.148 9.64a9.37 9.37 0 01-7.471 4.666c-5.909.078-7.313-4.057-7.464-4.976-.7-4.276 1.788-5.987 3.11-6.453 1.014-.358 4.312-.266 5.012 2.065a4.18 4.18 0 01-.347 3.144"
                transform="matrix(1.0008 0 0 .9985 -.5 .522)" />
            <path
                d="M426.97 212.58l-.547-.81c-2.644-3.887-7.312-4.911-10.73-2.332-4.12 3.11-5.16 8.402-4.042 13.994a13.572 13.572 0 006.324 8.521"
                stroke-linecap="round" transform="matrix(1.0008 0 0 .9985 -.5 .522)" />
            <path
                d="M573.04 224.37c-6.298 6.842-12.595 9.026-22.003 9.33-2.938.095-8.552-.933-11.818-3.258-2.098-1.494-4.432-4.05-2.954-8.482.987-2.962 5.746-11.273 5.98-17.027.355-8.79-3.026-13.606-8.313-15.472-9.774-3.45-20.267 6.211-26.589 8.319a21.34 21.34 0 01-8.008 1.243 21.63 21.63 0 01-8.068-1.243c-6.323-2.108-16.816-11.77-26.59-8.32-5.287 1.867-8.668 6.683-8.312 15.473.234 5.753 4.992 14.064 5.98 17.027 1.477 4.431-.857 6.988-2.955 8.481-3.265 2.326-8.88 3.353-11.818 3.259-9.407-.304-15.705-2.488-22.003-9.33"
                transform="matrix(1.0008 0 0 .9985 -.5 .522)" />
            <path
                d="M464.58 466.27c1.246.487.303-.295 8.195 3.203 7.576 3.359 12.954 6.3 17.663 13.736a15.464 15.464 0 011.866 7.62 16.65 16.65 0 01-.459 3.841"
                stroke-linecap="round" transform="matrix(1.0008 0 0 .9985 -.5 .522)" />
            <path
                d="M465.09 500.06a12.52 12.52 0 005.081 1.29c6.6.264 11.74-5.91 11.74-12.207 0-4.366-2.377-8.044-5.706-11"
                transform="matrix(1.0008 0 0 .9985 -.5 .522)" />
            <path
                d="M466.52 488.15c-1.594 3.553.677 5.475 2.94 5.738a4.91 4.91 0 005.432-4.328l.026-.337a6.98 6.98 0 00-3.278-6.485"
                stroke-linecap="round" transform="matrix(1.0008 0 0 .9985 -.5 .522)" />
            <path
                d="M609.53 216.87c5.018 0 9.394 5.585 9.394 11.317 0 6.605-3.513 10.648-6.087 13.705-2.072 2.46-4.316 4.663-6.982 7.348"
                transform="matrix(1.0008 0 0 .9985 -.5 .522)" />
            <path
                d="M603.58 211.58a10.822 10.822 0 014.346 3.819c2.099 3.11 2.633 5.712 2.487 9.563-.249 6.6-4.998 11.17-9.246 13.959m-7.457-27.341a8.66 8.66 0 011 1.014c2.877 3.421 3.1 8.478 2.41 11.281-1.035 4.213-2.427 6.029-5.846 8.549m-7.914-22.574c4.12 3.11 5.346 8.489 3.98 14.026-.975 3.957-3.463 6.328-6.565 8.217m17.385 64.187c.493 1.447 1.306 1.949 2.332 3.022a21.14 21.14 0 009.623 5.504c3.334.979 6.928.482 9.87-1.367m-254.7 84.431c1.937-.035 3.869 1.273 5.133 3.468a5.09 5.09 0 01.628 2.41 4.276 4.276 0 01-1.593 3.453c-2.245 1.43-6.232.815-6.065-3.15"
                stroke-linecap="round" transform="matrix(1.0008 0 0 .9985 -.5 .522)" />
            <path
                d="M377.33 336.4c7.703 1.438 15.119 10.729 17.546 20.865a46.03 46.03 0 01.396 18.815 35.05 35.05 0 01-9.16 17.585 25.826 25.826 0 01-3.323 2.855l-1.643 1.113M368.76 378.67c3.164 0 5.934 3.032 5.934 6.273a5.926 5.926 0 01-1.615 4.085m-6.459-6.678a6.84 6.84 0 016.433 6.546 6.09 6.09 0 01-2.316 4.786"
                transform="matrix(1.0008 0 0 .9985 -.5 .522)" />
            <path
                d="M396.84 349.2c3.027 4.063 5.025 7.561 5.954 12.07m-.104 13.26a26.98 26.98 0 01-2.264 6.322 27.859 27.859 0 01-5.552 7.253"
                stroke-linecap="round" transform="matrix(1.0008 0 0 .9985 -.5 .522)" />
            <path d="M397.32 325.52a14.58 14.58 0 015.501 7.469" transform="matrix(1.0008 0 0 .9985 -.5 .522)" />
            <path
                d="M402.9 317.92c-.767 2.66-2.506 4.674-5.266 7.193M383.33 298.27l3.369-.886 1.994-1.508 1.285-1.817 1.108-2.837.444-2.305"
                stroke-linecap="round" transform="matrix(1.0008 0 0 .9985 -.5 .522)" />
            <path
                d="M376.51 286.41a20.24 20.24 0 00-3.824 1.333 13.97 13.97 0 00-5.506 4.576c-1.856 2.63-2.938 6.286-3.608 9.484a30.98 30.98 0 00.252 10.41 24.628 24.628 0 003.601 8.807 14.292 14.292 0 001.621 2.087c2.022 2.021 3.888 3.265 6.997 2.643"
                transform="matrix(1.0008 0 0 .9985 -.5 .522)" />
            <path d="M395.38 271.58c-.546 2.007-1.625 4.493-4.774 4.221" stroke-linecap="round"
                transform="matrix(1.0008 0 0 .9985 -.5 .522)" />
            <path
                d="M383.87 285.2c-3.024-2.956-9.43-3.726-15.798.302a24.12 24.12 0 00-2.448 1.859 13.847 13.847 0 00-2.25 2.482 28.057 28.057 0 00-2.182 3.8 19.629 19.629 0 00-1.474 4.142 31.717 31.717 0 00-1.02 9.776c.176 1.513.32 2.903.567 4.182a29.13 29.13 0 003.475 9.656c1.407 2.333 4.906 7.69 12.058 8.397 2.811.278 7.612-1.01 7.768-4.665"
                transform="matrix(1.0008 0 0 .9985 -.5 .522)" />
            <path
                d="M568.38 220.42c.478-2.581 3.59-3.08 4.758-1.555 1.8 2.348.61 6.382-3.051 7.526a5.89 5.89 0 01-5.987-2.177 6.78 6.78 0 011.585-9.45l.281-.19c4.251-3.234 11.118-2.488 13.372 2.954 2.909 7.02-3.42 12.284-9.252 16.249-7.34 4.992-15.705 5.9-22.003 5.831-14.306-.156-25.19-6.997-32.265-10.884-1.648-.906-3.345-.72-4.198.31a3.117 3.117 0 00.389 4.277M571.26 218a2.625 2.625 0 012.387 1.267c1.8 2.348.485 6.383-3.176 7.526m27.869 80.537c-5.45 5.933-.437 16.116 3.636 18.418 1.41 1.097 2.013.515 3.14 1.175"
                stroke-linecap="round" transform="matrix(1.0008 0 0 .9985 -.5 .522)" />
            <path
                d="M598.63 295.99c-1.788 1.244-2.418 2.642-2.488 5.07a8.196 8.196 0 002.203 6.272c2.972 3.092 8.786 5.784 14.42 5.855 3.35.097 6.645-.86 9.422-2.736a14.156 14.156 0 005.987-8.397M595.58 398.6a38 38 0 01-.212 3.887 32.805 32.805 0 01-9.795 19.671 30.679 30.679 0 01-9.097 6.375 38.43 38.43 0 01-10.263 3.42 52.317 52.317 0 01-10.73 1.322 74.53 74.53 0 01-9.909-.254c-4.127-.286-6.417-.86-10.538-1.223a83.34 83.34 0 00-8.743-.566 44.763 44.763 0 00-8.983.644 34.33 34.33 0 00-8.086 2.255c-4.198 1.7-8.941 4.664-9.952 5.986-1.01-1.322-5.754-4.286-9.952-5.986a34.403 34.403 0 00-8.085-2.255 44.767 44.767 0 00-8.984-.644 82.69 82.69 0 00-8.743.566c-4.121.362-6.41.937-10.538 1.223-3.294.306-6.605.39-9.91.254a52.444 52.444 0 01-10.728-1.321 38.43 38.43 0 01-10.263-3.421 30.66 30.66 0 01-9.097-6.375 32.812 32.812 0 01-9.796-19.671 37.952 37.952 0 01-.212-3.887V239.58h192.55V398.6z"
                transform="matrix(1.0008 0 0 .9985 -.5 .522)" />
        </g>
    </g>
    <g fill="#c6aa76">
        <path
            d="M387.41 421.32a3.91 3.91 0 013.903-3.911 3.91 3.91 0 013.911 3.903v.009a3.91 3.91 0 01-3.911 3.903 3.91 3.91 0 01-3.903-3.903zm-23.99-27.61c0-1.932 1.236-3.499 2.76-3.499s2.76 1.567 2.76 3.499-1.236 3.499-2.76 3.499-2.76-1.567-2.76-3.499z"
            stroke="#c6aa76" stroke-width=".513" transform="matrix(1.0008 0 0 .9985 -.5 .522)" />
        <path
            d="M376.84 324.386a2.676 2.67 0 015.334.4 2.675 2.669 0 01-2.667 2.467 2.777 2.77 0 01-2.667-2.868zm47.897-102.393a2.492 2.486 0 012.638-2.326 2.492 2.486 0 012.331 2.632 2.49 2.484 0 01-2.223 2.317 2.702 2.696 0 01-2.746-2.623z" />
    </g>
    <g fill="none" stroke="#c6aa76" stroke-width=".987">
        <path
            d="M373.92 340.54a3.884 3.884 0 00-2.138 2.208 6.36 6.36 0 00-.381 1.858m7.369 41.794l1.391-1.687a16.95 16.95 0 001.073-1.47c.344-.539.498-.867.801-1.43l1.05-2.06m-1.975 21.777l-2.371 1.088-1.71 1.003-1.945 1.307-1.904 1.523m23.38-59.201l-1.283-1.321-1.4-1.322c-.556-.469-.91-.683-1.492-1.12"
            stroke-linecap="round" transform="matrix(1.0008 0 0 .9985 -.5 .522)" />
        <path d="M397.17 326.47c-.618.319-1.254.602-1.905.848-.751.278-1.54.44-2.34.482"
            transform="matrix(1.0008 0 0 .9985 -.5 .522)" />
        <path
            d="M371 300.68c.173.787.391 1.563.653 2.325a12.18 12.18 0 001.446 2.666 13.05 13.05 0 001.99 2.457c.655.658 1.383 1.24 2.17 1.734.753.455 1.529.87 2.325 1.244m-1.544-9.156a19.32 19.32 0 001.944 1.042c.614.261 1.251.461 1.904.598a11.49 11.49 0 002.683.32 12.09 12.09 0 002.916-.234m11.203-63.526l-3.196-1.866a19.074 19.074 0 01-2.923-2.371 14.607 14.607 0 01-1.811-2.022c-.563-.76-.778-1.257-1.275-2.06m11.715-7.111c.278.914.613 1.81 1.003 2.682a12.19 12.19 0 002.224 3.188c1.414 1.552 2.613 1.992 4.283 3.265m2.27-9.245c.28.824.612 1.629.995 2.41.364.68.799 1.318 1.299 1.905a11.468 11.468 0 002.099 2.06 22.796 22.796 0 002.939 1.75"
            stroke-linecap="round" transform="matrix(1.0008 0 0 .9985 -.5 .522)" />
    </g>
    <g fill="#704029">
        <path
            d="M520.681 212.108c-.08-2.645-2.692-2.92-3.693-2.92-2.887 0-3.669 1.797-7.27 3.727-4.516 2.42-6.46 2.957-10.474 2.993-4.014-.036-6.01-.574-10.526-2.993-3.602-1.93-4.208-3.669-7.096-3.669a3.643 3.634 0 00-3.519 3.751l.003.075a6.485 6.47 0 00.093 1.345c.047.204.297.14.375.32a3.643 3.634 0 01.8-2.63 3.418 3.41 0 012.542-1.31c2.887 0 3.956 1.848 7.559 3.778 4.515 2.42 6.458 2.957 10.472 2.993 4.013-.036 6.012-.574 10.527-2.993 3.603-1.93 4.638-3.932 7.526-3.932a2.122 2.117 0 012.033 1.664 4.964 4.952 0 01.14 1.291c.027.121.175.11.208.24a4.083 4.074 0 00.3-1.73zM412.938 434.277c.81-.87 1.424-.543 1.574-.944.11-.297-.13-.327-.46-.45-.44-.164-.907-.26-1.347-.423-.457-.17-.87-.404-1.328-.575-.19-.07-.626-.293-.75.04-.229.609 1.603.557.988 2.197a5.794 5.781 0 01-1.275 1.872l-4.144 4.5c-.093.104-.248.325-.342.29-.094-.037-.082-.31-.083-.45l.06-6.38a8.475 8.455 0 01.303-2.632c.275-.733 1.12-.119 1.298-.59.111-.297.026-.309-.478-.496-.252-.094-.734-.195-1.74-.57l-1.565-.664c-.236-.087-.673-.409-.829.01-.046.123.12.304.16.339.525.293.817.875.741 1.47l.114 11.617c.01.839.1 1.071.258 1.13.173.065.29-.01.634-.4l8.211-8.89z" />
        <path
            d="M417.772 436.075c.533-1.688 1.533-.67 1.724-1.274.067-.214 0-.275-.482-.426l-2.09-.579-1.79-.64c-.143-.047-.527-.226-.623.076-.196.622 1.772.694 1.261 2.31l-2.695 8.53c-.533 1.687-1.541.862-1.737 1.483-.028.09-.036.224.109.27l1.817.493 2.414.838c.368.115.535.09.597-.106.18-.57-1.874-.316-1.183-2.501zm5.784 1.707c.319-1.071.818-.925 1.414-.749 1.628.482 2.137 2.07 1.618 3.821-.314 1.054-.707 2.025-3.156 1.301-.483-.143-1.08-.32-.947-.765zm-4.437 7.684c-.668 2.25-1.799 1.276-1.968 1.847-.106.358.249.404.426.457l2.502.662c.677.2 1.09.399 1.365.48.37.11.53.04.58-.12.19-.643-1.623-.382-1.056-2.293l.918-3.09c.185-.626.126-.78.98-.527.805.238 1.048.484 1.185 1.38l.515 3.222c.192 1.184.374 2.461 1.646 2.838.645.19 1.826.112 1.99-.443a.248.248 0 00-.15-.315c-.178-.054-.372.005-.533-.042a.617.616 0 01-.495-.457l-1.06-5.696c.052-.178.568-.2 1.156-.474a2.965 2.958 0 001.597-1.956c.244-.822.67-3.435-2.858-4.478l-3.276-.89-1.864-.63c-.193-.056-.381-.015-.434.164-.19.643 1.761.501 1.168 2.501zm13.174 3.848c-.518 2.156-2.156.844-2.326 1.55-.096.4.186.447.48.518l2.305.475 2.271.621c.473.113.788.246.892-.19.122-.505-2.096-.482-1.56-2.71l1.97-8.188c.21-.868.395-.92 1.065-.76l1.389.333c1.896.378.89 2.264 1.543 2.42.425.101.415-.648.436-.873l.22-1.71c.028-.184.089-.439-.156-.497l-5.018-1.125-4.982-1.27c-.245-.06-.306.194-.366.371l-.837 2.329c-.09.227-.283.603.06.685.735.175.816-2.315 2.662-1.873l1.373.33c.67.16.81.29.602 1.16l-2.022 8.404zm19.855-5.052c.647-.998 1.307-.78 1.386-1.202.057-.312-.184-.3-.53-.364-.463-.085-.94-.097-1.402-.183-.48-.09-.929-.248-1.407-.337-.198-.037-.668-.18-.733.168-.119.642 1.676.273 1.356 1.994a5.754 5.741 0 01-.93 2.064l-3.298 5.15c-.073.119-.187.363-.286.344-.1-.019-.134-.29-.16-.427l-1.053-6.295a8.507 8.487 0 01-.158-2.644c.143-.77 1.084-.31 1.176-.806.057-.312-.03-.309-.558-.406-.264-.05-.756-.064-1.814-.26l-1.655-.381c-.249-.046-.733-.288-.815.151-.024.13.17.279.217.306.567.199.956.72.985 1.319l2.133 11.422c.156.824.287 1.038.452 1.069.182.034.285-.061.555-.505zm.931 10.494c.009.455-.032.6.363.779.849.495 1.758.882 2.704 1.15 2.171.361 3.97-1.018 4.374-3.425.391-2.334-.57-3.307-2.199-4.466-2.039-1.455-2.91-1.847-2.704-3.077a1.775 1.771 0 012.164-1.622c2.85.476 2.526 3.934 2.907 3.998.364.061.45-.15.486-.561l.23-2.492c.038-.428.134-.696-.115-.737-.215-.036-.68.19-.894.153-.497-.083-1.073-.916-2.432-1.142-1.94-.325-3.524.998-3.878 3.11-.324 1.93.533 2.81 1.841 3.745 2.45 1.75 3.455 2.164 3.193 3.725a2.237 2.232 0 01-2.682 1.97c-1.84-.307-2.587-2.15-2.823-4.004-.025-.25-.03-.419-.296-.464-.414-.069-.337.491-.33.757zm24.739-6.96c.538-1.06 1.218-.913 1.252-1.34.025-.316-.214-.279-.566-.306-.469-.037-.944 0-1.414-.036-.485-.038-.948-.15-1.434-.188-.2-.015-.682-.11-.71.243-.051.65 1.695.096 1.557 1.842a5.774 5.761 0 01-.709 2.149l-2.74 5.466c-.06.125-.149.38-.249.373-.1-.007-.164-.275-.204-.41l-1.705-6.15a8.473 8.453 0 01-.436-2.613c.062-.779 1.045-.422 1.085-.923.024-.316-.06-.304-.596-.346-.268-.02-.76.016-1.832-.07l-1.686-.207c-.251-.02-.76-.21-.795.237-.01.13.2.26.248.282a1.477 1.474 0 011.118 1.208l3.319 11.137c.24.804.393 1.002.56 1.015.185.014.278-.09.5-.559z" />
        <path
            d="M480.47 456.823c-.016 1.9-1.627 1.55-1.633 2.296-.002.317.334.226.52.228l1.444-.062 1.982.092c.22 0 .64.024.64-.237.008-.875-2.153.373-2.121-3.205l.055-6.332c0-.168.036-.299.137-.298.084 0 .183.095.3.245l7.998 9.757a.493.492 0 00.435.265c.202 0 .203-.147.206-.558l.092-10.45c.015-1.955 1.44-1.495 1.446-2.054 0-.056.002-.243-.317-.245-.15 0-.74.068-1.799.059l-1.915-.091c-.218 0-.27.184-.271.314-.005.615 2.047.297 2.031 1.992l-.053 6.204c-.005.465-.04.689-.14.688-.1-.001-.3-.227-.517-.49l-6.684-8.273c-.3-.357-.097-.485-.634-.49-.89-.01-1.328.063-1.765.059-.32 0-.62-.08-.941-.083a.282.282 0 00-.29.274c0 .014 0 .027.002.04-.01.894 1.885-.3 1.853 3.277l-.06 7.079zm16.273-8.387c.016-1.77 1.27-1.089 1.275-1.722.002-.223-.08-.261-.586-.266-.958-.01-1.563.06-2.168.056-.588 0-1.243-.086-1.898-.09-.151-.002-.57-.062-.573.255-.005.652 1.803.147 1.789 1.843l.015 8.94c-.015 1.77-1.221 1.276-1.226 1.928-.001.093.031.224.182.225.437.01 1.161-.064 1.884-.058l2.552.096c.387 0 .539-.07.54-.274.006-.596-1.883.245-1.863-2.047zm7.045 8.656c.02 2.217-1.887 1.34-1.881 2.066.006.41.29.39.592.386l2.352-.095 2.353.054c.487 0 .824.05.82-.399-.005-.52-2.151.037-2.171-2.253l-.073-8.42c-.007-.894.16-.989.848-.995l1.428-.01c1.932-.092 1.412 1.98 2.085 1.974.436 0 .245-.729.21-.951l-.2-1.713c-.018-.186-.02-.447-.273-.445l-5.141.12c-2.454.02-3.58-.044-5.143-.03-.252 0-.25.262-.265.45l-.248 2.46c-.03.243-.128.653.225.65.756-.01.23-2.442 2.13-2.458l1.41-.014c.69-.01.859.086.867.979zm9.788-3.524c-.302.024-.535.06-.55-.125a1.911 1.907 0 01.13-.702l1.031-3.388c.067-.211.133-.235.166-.237.084-.01.034 0 .146.137l1.64 3.254a1.921 1.917 0 01.238.672c.013.186-.221.186-.524.21zm2.876.783c.436-.034.534.145 1.2 1.55a3.503 3.495 0 01.401 1.22c.09 1.134-1.116 1.023-1.074 1.561.02.26.236.206.538.183l1.836-.22 2.168-.096c.452-.035.605-.01.58-.325-.048-.613-.896.182-1.536-1.095l-5.42-11.01c-.261-.54-.297-.575-.449-.563-.217.018-.273.376-.367.683l-3.654 11.592c-.336 1.073-1.2 1.029-1.166 1.456.02.242.285.183.519.165.485-.038.966-.151 1.468-.19l1.581-.05c.351-.028.88.062.85-.328-.04-.502-1.825-.062-1.93-1.4a5.824 5.824 0 01.235-1.494c.289-1.256.635-1.358.92-1.38l3.3-.26zm12.986-7.723c-.168-1.274-.104-1.302 1.911-1.566 3.216-.423 2.202 1.909 2.985 1.807.383-.05.22-.649.17-.888l-.307-1.819a.343.342 0 00-.373-.308l-3.796.574-4.441.508a.332.331 0 00-.326.337v.025c.099.74 1.903-.1 2.122 1.562l1.141 8.645c.297 2.252-1.1 1.422-.989 2.271.016.111.127.19.344.162l2.123-.354 1.992-.186c.417-.055.776-.027.727-.396-.065-.5-1.886.21-2.157-1.84l-.36-2.734c-.143-1.072-.238-1.284.528-1.385l1.233-.162c1.733-.228 1.525 1.792 2.057 1.721.4-.053.212-.704.164-.941l-.55-3.272c-.082-.498-.26-.437-.377-.42-.334.043-.16 1.749-1.592 1.936l-1.05.14c-.716.093-.733-.036-.838-.83l-.34-2.587zm6.144 4.234c.691 3.718 3.381 5.778 6.703 5.164 5.27-.974 5.444-5.648 4.968-8.212-.721-3.884-3.622-5.792-6.838-5.158-3.942.765-5.578 4.194-4.833 8.206zm1.839-1.42c-.494-2.656-.137-5.337 2.645-5.908 2.125-.43 4.535 1.321 5.287 5.37.565 3.04.096 5.666-2.736 6.246-2.947.602-4.7-3.034-5.196-5.708zm13.033-6.488c-.261-1.087.245-1.208.85-1.353 1.65-.395 2.888.726 3.315 2.501.257 1.069.403 2.107-2.081 2.701-.49.118-1.094.263-1.203-.19zm.009 8.868c.55 2.283-.918 2.001-.779 2.582.087.362.418.225.597.182l2.5-.675c.685-.164 1.144-.197 1.422-.264.376-.09.48-.23.44-.393-.156-.653-1.595.478-2.061-1.46l-.754-3.134c-.153-.634-.281-.738.584-.945a1.357 1.354 0 011.719.604l2.061 2.533c.759.93 1.557 1.946 2.848 1.637.653-.157 1.636-.814 1.5-1.375a.246.246 0 00-.286-.2l-.02.005c-.163.039-.3.187-.464.226a.62.62 0 01-.657-.15l-3.773-4.403c-.044-.18.39-.457.764-.988a2.962 2.955 0 00.404-2.49c-.2-.834-1.142-3.31-4.721-2.452l-3.284.862-1.93.386c-.195.047-.336.176-.293.358.157.652 1.777-.445 2.265 1.584zm13.481-3.007c.557 2.147-1.506 1.755-1.324 2.458.102.398.375.308.668.232l2.259-.659 2.296-.516c.472-.122.81-.152.699-.584-.13-.506-2.078.555-2.652-1.664l-2.114-8.151c-.224-.866-.085-.999.582-1.17l1.383-.358c1.852-.554 1.851 1.582 2.502 1.414.422-.11.06-.766-.027-.975l-.61-1.612c-.063-.177-.128-.43-.372-.367l-4.96 1.358-4.997 1.212c-.244.063-.179.316-.148.5l.356 2.448c.03.243.034.665.376.576.732-.189-.369-2.425 1.47-2.9l1.366-.352c.667-.172.853-.124 1.078.742zm8.597-11.442c-.474-1.706.92-1.395.75-2.006-.06-.215-.15-.229-.636-.095l-2.07.65-1.849.434c-.146.04-.565.098-.48.405.174.628 1.864-.382 2.317 1.252l2.396 8.616c.475 1.706-.821 1.562-.647 2.19.025.09.093.207.238.167l1.794-.574 2.482-.61c.371-.102.498-.214.443-.412-.16-.575-1.744.753-2.358-1.456zm3.583 4.163c1.203 3.587 4.153 5.253 7.357 4.184 5.084-1.698 4.604-6.35 3.774-8.823-1.256-3.745-4.394-5.232-7.49-4.16-3.796 1.309-4.938 4.93-3.641 8.8zm1.622-1.661c-.859-2.561-.88-5.265 1.795-6.218 2.045-.722 4.676.68 5.985 4.583.984 2.933.886 5.598-1.838 6.566-2.835 1.005-5.077-2.352-5.942-4.931zm11.928-8.453c-.41-1.04.074-1.23.653-1.458 1.579-.621 2.962.317 3.632 2.017.404 1.022.693 2.03-1.684 2.963-.47.185-1.048.412-1.219-.023l-1.382-3.5zm1.246 8.78c.862 2.184-.63 2.11-.411 2.665.136.347.444.166.616.098l2.38-1.015c.658-.259 1.107-.355 1.372-.46.36-.141.444-.294.382-.451-.246-.624-1.513.696-2.245-1.158l-1.184-3c-.24-.607-.38-.69.447-1.016a1.355 1.352 0 011.785.36l2.395 2.221c.882.815 1.814 1.71 3.049 1.225.625-.246 1.507-1.032 1.295-1.57a.246.246 0 00-.31-.157l-.02.007c-.158.062-.273.226-.429.288a.62.62 0 01-.672-.056l-4.35-3.837c-.069-.172.322-.507.62-1.083.392-.792.41-1.716.05-2.523-.315-.799-1.592-3.118-5.016-1.774l-3.132 1.311-1.856.65c-.188.074-.31.221-.241.395.246.624 1.697-.687 2.464 1.254z" />
    </g>
    <path d="M412.478 249.392h82.242v81.897h-82.242z" fill="#da281b" />
    <path
        d="M451.049 313.875a20.165 20.119 0 01-.856 5.28c-.933 2.715-.94 2.715-1.797 4.036a13.143 13.112 0 01-3.813 3.881 9.428 9.406 0 01-5.953 1.708c-5.494-.485-8.043-6.43-9.29-11.256-1.321-5.123-5.076-7.911-7.468-6.055-1.401 1.087-1.482 2.91-.312 4.657a9.017 8.996 0 004.103 2.796l-2.936 3.725a9.187 9.166 0 01-7.54-7.382c-.467-2.483.742-7.122 4.894-8.508 5.301-1.771 8.693 2 10.326 5.182 2.248 4.378 3.213 12.417 9.438 11.173 3.387-.675 4.98-5.588 4.98-7.839l2.468-2.64 3.657 1.165.1.078zm5.124 0a20.165 20.119 0 00.856 5.28c.933 2.715.94 2.715 1.797 4.036a13.143 13.112 0 003.813 3.881 9.428 9.406 0 005.952 1.708c5.494-.485 8.044-6.43 9.29-11.256 1.322-5.123 5.077-7.911 7.47-6.055 1.4 1.087 1.48 2.91.31 4.657a9.017 8.996 0 01-4.102 2.796l2.936 3.725a9.187 9.166 0 007.54-7.382c.467-2.483-.742-7.122-4.894-8.508-5.301-1.771-8.693 2-10.326 5.182-2.248 4.378-3.213 12.417-9.438 11.173-3.387-.675-4.98-5.588-4.98-7.839l-2.469-2.64-3.657 1.165-.099.078z"
        fill="#fff" />
    <path
        d="M460.977 279.048l10.769-11.626a4.694 4.683 0 001.61-3.395l-2.22.344-.497-1.14-.11-1.146 2.982-.629c.049-.483.008-.849.093-1.382.08-.493.19-.759.31-1.242l-3.266.218c.166-.57.128-.874.31-1.404a4.043 4.034 0 01.504-1.102l1.909-.303c.728-.073 1.144-.04 1.874-.085 1.782-3.315 9.198-6.363 14.466-.903 3.813 3.952 2.99 11.203-1.952 13.12a6.325 6.31 0 01-6.867-1.108l1.971-3.86c2.725 1.622 4.98-.396 4.824-2.492a4.584 4.573 0 00-4.356-4.503c-2.256-.196-3.875 1.092-4.902 3.105-.627 1.23-.336 2.13-.545 3.495a23.938 23.883 0 01-.537 3.804 8.767 8.747 0 01-2.372 3.586l-11.039 11.917-42.974 46.373-3.23-2.979 43.245-46.664z"
        fill="#fede00" />
    <path
        d="M429.342 283.131s2.702 13.352 11.883 33.38c4.669-1.707 7.426-2.796 12.372-2.796s7.703.933 12.372 2.796c9.181-20.028 11.883-33.38 11.883-33.38l-24.254-31.129z"
        fill="#fff" />
    <path
        d="M455.973 262.532l16.832 21.604s-2.244 10.504-9.085 26.313a47.366 47.257 0 00-7.738-1.318l-.01-46.598zm-4.744 0l-16.832 21.604s2.244 10.504 9.085 26.313a47.366 47.257 0 017.74-1.318l.008-46.598zm52.26-13.14h82.242v81.897h-82.242z"
        fill="#fede00" />
    <path d="M515 249.392h12.263v81.897H515zm23.498 0h12.263v81.897h-12.263zm23.498 0h12.262v81.897h-12.262z"
        fill="#da281b" />
    <path
        d="M412.788 402.312a20.776 20.728 0 002.165 6.6c1.478 2.328.933 2.265 4.28 5.99a23.935 23.88 0 006.232 4.488 26.974 26.912 0 006.846 2.492 50.98 50.863 0 0016.586 1.596 98.536 98.31 0 0010.258-1.06 108.887 108.637 0 0111.126-1.01c2.135-.09 4.154-.11 6.147 0 2.46.162 4.903.5 7.314 1.01a79.73 79.547 0 0110.97 3.182l.015-85.523-82.256-.023v58.454s.168 2.856.318 3.804z"
        fill="#fede00" />
    <path
        d="M422.51 417.42l3.852 2.24 5.278 1.9-.005-81.524h-9.126zm45.658 3.71l.011-81.096h-9.143v82.393l9.131-.988zm18.239-81.087h-9.113v81.378a60.428 60.428 0 019.13 1.683zm-36.489 0v83.328a80.658 80.658 0 01-9.173-.003l.002-83.311z"
        fill="#da281b" stroke="#da281b" stroke-width=".513" transform="matrix(1.0008 0 0 .9985 -.512 .516)" />
    <path
        d="M585.426 402.292a20.747 20.699 0 01-2.164 6.599c-1.479 2.329-.933 2.266-4.279 5.99a23.98 23.925 0 01-6.233 4.489 26.93 26.869 0 01-6.845 2.491 50.989 50.872 0 01-16.586 1.598 98.769 98.542 0 01-10.259-1.062 108.727 108.477 0 00-11.126-1.008c-2.134-.09-4.153-.11-6.146 0a51.51 51.39 0 00-7.315 1.008 82.483 82.293 0 00-11.042 3.183l.057-85.523 82.256-.023v58.453s-.169 2.856-.319 3.804z"
        fill="#fede00" />
    <path
        d="M524.528 346.906l-.595.28a8.456 8.437 0 01-.781.812 12.26 12.232 0 01-1.251.842c-.22.113-.422.26-.595.437-.252.32-.079.629-.25.998a3.683 3.674 0 01-.657.937 11.16 11.16 0 01-1.063.999 4.977 4.965 0 01-1.094.998 1.771 1.767 0 01-.345.187c-.216.067-.35-.011-.563.062-.388.133-.51.562-.78.717.11.218.106.372.218.594.158.322.705 1.213.812 1.434.21.305.27.7.533.78a3.102 3.095 0 001.313.125 10.769 10.744 0 012.032.468c.614.254.864.574 1.471.843.407.2.837.348 1.281.436a3.02 3.02 0 001.001.094c.25-.024.377-.12.626-.156a.52.52 0 01.125 0l-.03.375c-.006 0 .004.028 0 .03v.063h.062l2.063.904c-.24.358-.33.795-.25 1.218.63 1.885 1.161 3.064 1.47 3.183.616.235.807.863 1.157 1.497-.123.132-.227.2-.344.312a9.005 8.984 0 00-1.657 1.81c-.746 1.186-1.25 1.201-.313 2.776.55.924.815 1.098 1.532 2.403a8.166 8.148 0 01.782 1.966 7.646 7.628 0 01.313 1.966l.97.374.657-.656.625-1.185.03-.904a.776.774 0 01-.25-.781c.07-.368.515-.29.72-.624.284-.46-.332-.733-.657-1.092-.605-.669-1.431-.831-1.626-1.84-.052-.273.078-.427.375-.719l1.972-1.809a1.461 1.458 0 00.968.125c.28-.053.53.125 1.407.374a2.212 2.207 0 001.22.03l.376-.093a3.503 3.495 0 01.125.686c.053 1.059-.155 2.99.156 3.495a3.293 3.285 0 01.281.562 1.691 1.687 0 01.22.655v1.872a15.212 15.177 0 01-.22 1.748 2.022 2.017 0 01-.437 1.06c-.283.363-.596.417-.97.687l-.093.998 1.126.469 1.28.311.69-.28a1.18 1.178 0 01.156-.624c.128-.247.232-.439.47-.53.362-.143.76.128.906-.094.16-.242.06-.338.032-.75-.046-.66-.184-.988-.283-1.654a11.81 11.782 0 01-.156-2.746 9.407 9.386 0 01.156-1.56c.173-.88.487-1.308.689-2.184a21.546 21.497 0 00.375-2.464c3.113.48 6.288.352 9.351-.374.17-.037.751-.25.751-.25a8.647 8.627 0 002.72 1.622c-.006.101-.015.844 0 .967.037.288-.04.481.125.719a.583.582 0 00.375.28.66.659 0 00.658-.156c.226-.201.184-.454.25-.75a3.943 3.934 0 000-.685c.29.049.583.069.876.062.292.012.585.002.876-.031l.03.467c.028.245-.076.435.032.656.082.215.273.37.5.406a.66.659 0 00.531-.094c.297-.185.265-.498.314-.843.015-.11.01-.691 0-.78l1.031-.374a5.124 5.112 0 01-.094.81 5.014 5.002 0 01-.25.937 7.206 7.189 0 01-.75 1.373 11.717 11.717 0 01-1.031 1.56l-.564.656c-.256.336-.342.565-.594.904a4.674 4.663 0 01-.939 1.06c-.693.55-1.15.11-2.094.843l-.22 1.03 1.439.531 1.283.25.437-.25a1.01 1.008 0 01.22-.749c.19-.24.474-.387.78-.406.362-.06.748.034 1.032-.218.35-.31.35-.912.626-1.468a12.681 12.652 0 013.002-3.899c.614-.596 1.14-.757 1.659-1.436.246-.321.52-.468.53-.873.009-.283-.143-.415-.218-.686a9.627 9.605 0 01-.187-.999c1.522.743.97.645 1.25 1.404.226.614-.032 1.039.063 1.685.11.755.466 1.112.531 1.872a7.426 7.409 0 01-.312 2.31 7.146 7.13 0 01-.47 1.996 3.843 3.834 0 01-1.156 1.56c-.212.175-.37.25-.595.406l-.125 1.029 1.126.375 1.626.436.376-.342c.164-.654-.055-1.615.406-1.686.406-.061.693 0 .782-.311a5.014 5.002 0 00.094-.624l.625-4.493.407-1.904c.06-.577.198-1.144.407-1.685.734-2.094-.208-2.371-1.064-3.65a2.994 2.987 0 01-.688-1.498c-.097-.816.164-1.493.125-2.746v-2.87c.115-.053.223-.121.345-.188a4.083 4.074 0 002.376-2.465 3.433 3.425 0 00.313-1.466c-.005-.331-.065-.651-.094-1.03a2.762 2.756 0 00-.313-.936 3.194 3.187 0 00-.563-.843 5.447 5.435 0 00-2.72-1.467 13.921 13.89 0 00-4.128-.56 26.87 26.809 0 00-4.286-.063c-2.007.114-3.13.519-5.129.75a43.384 43.284 0 01-4.91.405c-2.261.042-4.423-.46-5.785-.344-2.453.21-2.495.761-6.193 1.062l-3.846.186-2.158-.686a2.427 2.421 0 001.471-1.03c.271-.365.232-.677.562-1.06.267-.312.444-.622.781-.968a2.202 2.197 0 00-.938-.436 2.504 2.498 0 00-.937 0c-.426.03-.841.147-1.22.343a2.772 2.766 0 00-.845.592 19.639 19.594 0 00-2.189-1.216 9.185 9.164 0 00-3.002-.906zm1.97 11.888h.062c-.012.01-.019.022-.03.03z"
        fill="#da281b" />
    <g stroke="#fede00">
        <path
            d="M568.77 359.52l-.763.244a6.792 6.792 0 01-2.6.496c-2.644.202-4.272-1.057-6.998-.847-1.404.108-2.025 1.19-3.46 1.548a9.237 9.237 0 01-1.701.282l.512-1.034c-.697.143-1.404.231-2.115.264a7.55 7.55 0 01-1.523-.13l1.018-.95a7.219 7.219 0 01-1.294-.336 3.923 3.923 0 01-1.06-.63l1.69-.353c1.556-.385 2.04-1.147 3.89-1.325 1.15-.111 3.032-.046 7.643.717 3.036.502 4.382.267 5.536-.258a2 2 0 001.103-1.788 2.14 2.14 0 00-.874-1.81 1.74 1.74 0 00-1.113-.363"
            fill="none" stroke-linecap="round" stroke-width=".987" transform="matrix(1.0008 0 0 .9985 -.5 .522)" />
        <path
            d="M524.8 350.61a1.84 1.84 0 00-1.34.291c-.48.296-.541.697-.888 1.142.445.1.699.361 1.142.254.306-.074.575-.253.761-.507a1.55 1.55 0 00.428-1.156z"
            fill="#fede00" stroke-width=".513" transform="matrix(1.0008 0 0 .9985 -.5 .522)" />
        <g fill="none" stroke-width=".987">
            <path
                d="M536.04 363.79l.407.8c.224.47.4.961.524 1.467.117.695.197 1.395.24 2.098l.077.376-.05 1.129m6.802-6.95l-.354 1.333-.944 3.46-.103.644m-10.859-3.977c.79.176.544 3.36 1.789 4.09"
                stroke-linecap="round" transform="matrix(1.0008 0 0 .9985 -.5 .522)" />
            <path d="M560.12 369.78l.384-.249a8.149 8.149 0 002.686-1.79"
                transform="matrix(1.0008 0 0 .9985 -.5 .522)" />
            <g stroke-linecap="round">
                <path d="M552.38 368.02h.007c3.533-.883 5.885-2.648 7.579-2.869"
                    transform="matrix(1.0008 0 0 .9985 -.5 .522)" />
                <path
                    d="M555.97 363.61a8.14 8.14 0 00.83-.068c1.467-.21 1.703.687 2.725 1.258 1.857 1.039 2.098 2.307 4.3 3.356l.32.155.848.429"
                    transform="matrix(1.0008 0 0 .9985 -.5 .522)" />
            </g>
        </g>
        <path
            d="M517.7 354.53c.23.064.47.083.707.054.332-.031.484-.238.817-.249a.965.965 0 01.684.125.83.83 0 01.28.342c.101.133.145.3.124.466a.576.576 0 01-.614.42.55.55 0 01-.544-.272.47.47 0 01-.039-.389 1.167 1.167 0 01-1.415-.497z"
            fill="#fede00" stroke-width=".513" transform="matrix(1.0008 0 0 .9985 -.5 .522)" />
    </g>
    <path
        d="M525.028 364.13a15.48 15.444 0 01-1.967-.825c.323-.25.587-.265.863-.554.39-.408.374-.787.594-1.317.215-.52.184-.953.671-1.341.33-.22.74-.28 1.12-.165.388.106.703.39.848.765.137.56-.16.885-.246 1.452-.156.469-.222.963-.196 1.458a6.075 6.06 0 00.355.905 15.311 15.276 0 01-2.042-.38zm-.99.948a.627.625 0 111.252-.014.627.625 0 01-1.253.018zm-1.762-16.484l-.144-.104c-.384-.31-.42-.652-.6-1.108a4.096 4.087 0 01-.317-1.152 7.337 7.32 0 010-1.047c.02-.313.02-.629 0-.942a2.174 2.169 0 00-.21-.943c-.097-.18-.394-.336-.314-.42.094-.095.257-.02.42 0a1.641 1.638 0 01.944.42c.338.262.576.631.672 1.047l.408 1.466c.058.257.154.505.284.733a4.273 4.264 0 00.524.628l-.01.023a9.017 8.996 0 01-.778.833 4.824 4.813 0 01-.847.572l-.033-.01zm3.603 10.624l2.232 1.03a9.237 9.216 0 003.5-3.914 13.851 13.82 0 001.364-4.306l-1.791-.58-.356.073a15.669 15.633 0 01-1.62 4.185 11.64 11.614 0 01-2.65 3.03l-.68.482zm4.944 18.092c.282-.438.59-.86.922-1.262a12.74 12.71 0 011.314-1.148c.163-.011.327.014.48.07a8.685 8.665 0 01-.527 2.747 3.483 3.475 0 01-.39.978 4.153 4.144 0 01-.476.517c-.51-.74-1.331-1.295-1.323-1.903zm33.035 1.847a7.516 7.499 0 012.938 1.48c.056.155.077.318.064.482a9.057 9.036 0 01-1.532.25 8.397 8.377 0 01-1.26 0 3.463 3.455 0 01-1.049-.104 4.303 4.294 0 01-.63-.314c.573-.694.88-1.634 1.47-1.794zm-9.768-2.037a7.536 7.519 0 012.939 1.48 1.16 1.158 0 01.063.481 8.957 8.937 0 01-1.531.252 8.407 8.387 0 01-1.26 0 3.463 3.455 0 01-1.05-.105 4.303 4.294 0 01-.63-.313c.574-.695.88-1.635 1.47-1.795zm-17.353 2.127a13.03 13 0 011.472.537 13.17 13.14 0 011.468.943 1.201 1.198 0 01.063.482 9.087 9.066 0 01-1.531.25 8.387 8.367 0 01-1.26 0 3.436 3.428 0 01-1.05-.104 4.255 4.246 0 01-.63-.314c.573-.695.88-1.634 1.468-1.794zm-8.987-29.755c-.613-.277-1.05-1.043-.66-1.59.155-.22.412-.175.565-.395.144-.254.192-.551.136-.838a5.224 5.212 0 00-.21-.943 5.01 4.998 0 01-.135-1.046 2.252 2.247 0 01.345-1.57c.211-.28.498-.49.826-.612.147.136-.057.502-.033.821a3.833 3.824 0 00.288 1.151c.202.562.48.808.704 1.361a3.583 3.575 0 01.42 1.361 2.292 2.287 0 01-.21 1.152 2.009 2.004 0 01-.61.838 1.851 1.847 0 01-.797.419 1.15 1.148 0 01-.629-.108z"
        fill="#005eb7" />
    <path
        d="M524.528 383.44l-.595.281a8.456 8.437 0 01-.781.812 12.26 12.232 0 01-1.251.842c-.22.113-.422.26-.595.437-.252.32-.079.63-.25.999a3.683 3.674 0 01-.657.936c-.332.356-.687.69-1.063.999a4.977 4.965 0 01-1.094.998 1.771 1.767 0 01-.345.187c-.216.067-.35-.011-.563.062-.388.134-.51.562-.78.718.11.217.106.371.218.593.158.322.705 1.213.812 1.435.21.304.27.698.533.78a3.102 3.095 0 001.313.124 10.769 10.744 0 012.032.468c.614.254.864.575 1.471.843.407.2.837.348 1.281.436a3.02 3.02 0 001.001.094c.25-.024.377-.12.626-.155a.52.52 0 01.125 0l-.03.374c-.006 0 .004.028 0 .031v.062h.062l2.063.905c-.24.357-.33.794-.25 1.217.63 1.885 1.161 3.064 1.47 3.183.616.235.807.863 1.157 1.498-.123.131-.227.2-.344.311a9.005 8.984 0 00-1.657 1.81c-.746 1.187-1.25 1.202-.313 2.776.55.925.815 1.098 1.532 2.403a8.166 8.148 0 01.782 1.966 7.646 7.628 0 01.313 1.966l.97.375.657-.656.625-1.186.03-.904a.776.774 0 01-.25-.78c.07-.368.515-.29.72-.625.284-.46-.332-.733-.657-1.091-.605-.67-1.431-.832-1.626-1.842-.052-.272.078-.426.375-.717l1.972-1.81a1.461 1.458 0 00.968.125c.28-.053.53.125 1.407.375a2.212 2.207 0 001.22.03l.376-.093a3.503 3.495 0 01.125.686c.053 1.058-.155 2.99.156 3.494a3.293 3.285 0 01.281.562 1.691 1.687 0 01.22.655v1.873a15.212 15.177 0 01-.22 1.747 2.022 2.017 0 01-.437 1.06c-.283.364-.596.418-.97.687l-.093.999 1.126.468 1.28.311.69-.28a1.18 1.178 0 01.156-.624c.128-.247.232-.438.47-.53.362-.143.76.128.906-.094.16-.242.06-.338.032-.749-.046-.661-.184-.989-.283-1.655a11.81 11.782 0 01-.156-2.745 9.407 9.386 0 01.156-1.56c.173-.882.487-1.309.689-2.185a21.546 21.497 0 00.375-2.464c3.113.48 6.288.353 9.351-.374.17-.037.751-.25.751-.25a8.647 8.627 0 002.72 1.623c-.006.1-.015.843 0 .966.037.288-.04.481.125.72a.583.582 0 00.375.279.66.659 0 00.658-.156c.226-.2.184-.453.25-.749a3.943 3.934 0 000-.686c.29.05.583.069.876.062.292.012.585.002.876-.03l.03.466c.028.245-.076.435.032.656.082.215.273.37.5.406a.66.659 0 00.531-.094c.297-.185.265-.497.314-.843.015-.11.01-.69 0-.78l1.031-.374a5.124 5.112 0 01-.094.81 5.014 5.002 0 01-.25.937 7.206 7.189 0 01-.75 1.373 11.717 11.717 0 01-1.031 1.56l-.564.656c-.256.336-.342.565-.594.904a4.674 4.663 0 01-.939 1.06c-.693.55-1.15.11-2.094.844l-.22 1.029 1.439.531 1.283.25.437-.25a1.01 1.008 0 01.22-.749c.19-.24.474-.387.78-.406.362-.059.748.034 1.032-.218.35-.31.35-.912.626-1.467a12.681 12.652 0 013.002-3.9c.614-.596 1.14-.756 1.659-1.435.246-.322.52-.469.53-.874.009-.283-.143-.414-.218-.686a9.627 9.605 0 01-.187-.998c1.522.742.97.645 1.25 1.403.226.615-.032 1.039.063 1.685.11.755.466 1.112.531 1.872a7.426 7.409 0 01-.312 2.31 7.146 7.13 0 01-.47 1.996 3.843 3.834 0 01-1.156 1.56c-.212.175-.37.25-.595.406l-.125 1.029 1.126.375 1.626.437.376-.343c.164-.654-.055-1.614.406-1.685.406-.062.693 0 .782-.312a5.014 5.002 0 00.094-.624l.625-4.493.407-1.904c.06-.577.198-1.143.407-1.685.734-2.093-.208-2.37-1.064-3.65a2.994 2.987 0 01-.688-1.498c-.097-.815.164-1.492.125-2.746v-2.87c.115-.053.223-.12.345-.188a4.083 4.074 0 002.376-2.465 3.433 3.425 0 00.313-1.466c-.005-.331-.065-.65-.094-1.03a2.762 2.756 0 00-.313-.936 3.194 3.187 0 00-.563-.843 5.447 5.435 0 00-2.72-1.466 13.921 13.89 0 00-4.128-.561 26.87 26.809 0 00-4.286-.062c-2.007.113-3.13.518-5.129.748a43.384 43.284 0 01-4.91.406c-2.261.042-4.423-.46-5.785-.344-2.453.21-2.495.761-6.193 1.062l-3.846.186-2.158-.685a2.427 2.421 0 001.471-1.03c.271-.365.232-.678.562-1.061.267-.312.444-.621.781-.968a2.202 2.197 0 00-.938-.436 2.504 2.498 0 00-.937 0c-.426.03-.841.148-1.22.343a2.772 2.766 0 00-.845.592 19.639 19.594 0 00-2.189-1.216 9.185 9.164 0 00-3.002-.905zm1.97 11.889h.062c-.012.01-.019.022-.03.03z"
        fill="#da281b" />
    <g stroke="#fede00">
        <path
            d="M568.77 396.11l-.763.244a6.792 6.792 0 01-2.6.496c-2.644.202-4.272-1.057-6.998-.847-1.404.108-2.025 1.19-3.46 1.548a9.237 9.237 0 01-1.701.282l.512-1.034c-.697.143-1.404.231-2.115.264a7.55 7.55 0 01-1.523-.13l1.018-.95a7.219 7.219 0 01-1.294-.336 3.923 3.923 0 01-1.06-.63l1.69-.353c1.556-.385 2.04-1.147 3.89-1.325 1.15-.111 3.032-.046 7.643.717 3.036.502 4.382.267 5.536-.258a2 2 0 001.103-1.788 2.14 2.14 0 00-.874-1.81 1.74 1.74 0 00-1.113-.363"
            fill="none" stroke-linecap="round" stroke-width=".987" transform="matrix(1.0008 0 0 .9985 -.5 .522)" />
        <path
            d="M524.8 387.2a1.84 1.84 0 00-1.34.291c-.48.296-.541.697-.888 1.142.445.1.699.361 1.142.254.306-.074.575-.253.761-.507a1.55 1.55 0 00.428-1.156z"
            fill="#fede00" stroke-width=".513" transform="matrix(1.0008 0 0 .9985 -.5 .522)" />
        <g fill="none" stroke-width=".987">
            <path
                d="M536.04 400.38l.407.8c.224.47.4.961.524 1.467.117.695.197 1.395.24 2.098l.077.376-.05 1.129m6.802-6.95l-.354 1.333-.944 3.46-.103.644m-10.859-3.977c.79.176.544 3.36 1.789 4.09"
                stroke-linecap="round" transform="matrix(1.0008 0 0 .9985 -.5 .522)" />
            <path d="M560.12 406.37l.384-.249a8.149 8.149 0 002.686-1.79"
                transform="matrix(1.0008 0 0 .9985 -.5 .522)" />
            <g stroke-linecap="round">
                <path d="M552.38 404.61h.007c3.533-.883 5.885-2.648 7.579-2.869"
                    transform="matrix(1.0008 0 0 .9985 -.5 .522)" />
                <path
                    d="M555.97 400.2a8.14 8.14 0 00.83-.068c1.467-.21 1.703.687 2.725 1.258 1.857 1.039 2.098 2.307 4.3 3.356l.32.155.848.429"
                    transform="matrix(1.0008 0 0 .9985 -.5 .522)" />
            </g>
        </g>
        <path
            d="M517.7 391.12c.23.064.47.083.707.054.332-.031.484-.238.817-.249a.965.965 0 01.684.125.83.83 0 01.28.342c.101.133.145.3.124.466a.576.576 0 01-.614.42.55.55 0 01-.544-.272.47.47 0 01-.039-.389 1.167 1.167 0 01-1.415-.497z"
            fill="#fede00" stroke-width=".513" transform="matrix(1.0008 0 0 .9985 -.5 .522)" />
    </g>
    <path
        d="M525.028 400.665a15.48 15.444 0 01-1.967-.825c.323-.25.587-.264.863-.554.39-.407.374-.787.594-1.317.215-.52.184-.953.671-1.341.33-.22.74-.28 1.12-.165.388.106.703.39.848.765.137.56-.16.885-.246 1.452-.156.47-.222.963-.196 1.458a6.075 6.06 0 00.355.905 15.311 15.276 0 01-2.042-.38zm-.99.948a.627.625 0 111.252-.014.627.625 0 01-1.253.018zm-1.762-16.484l-.144-.104c-.384-.31-.42-.652-.6-1.108a4.096 4.087 0 01-.317-1.152 7.337 7.32 0 010-1.047c.02-.313.02-.629 0-.942a2.174 2.169 0 00-.21-.943c-.097-.18-.394-.336-.314-.42.094-.095.257-.02.42 0a1.641 1.638 0 01.944.42c.338.262.576.631.672 1.048l.408 1.465c.058.257.154.505.284.733a4.273 4.264 0 00.524.628l-.01.023a9.017 8.996 0 01-.778.833 4.824 4.813 0 01-.847.572l-.033-.01zm3.603 10.624l2.232 1.03a9.237 9.216 0 003.5-3.913 13.851 13.82 0 001.364-4.307l-1.791-.58-.356.073a15.667 15.63 0 01-1.62 4.186 11.64 11.614 0 01-2.65 3.029zm4.944 18.092c.282-.438.59-.86.922-1.262a12.74 12.71 0 011.314-1.148c.163-.011.327.014.48.07a8.685 8.665 0 01-.527 2.747 3.483 3.475 0 01-.39.978 4.153 4.144 0 01-.476.517c-.51-.74-1.331-1.295-1.323-1.903zm33.035 1.847a7.516 7.499 0 012.938 1.48c.056.155.077.319.064.482a9.057 9.036 0 01-1.532.25 8.397 8.377 0 01-1.26 0 3.463 3.455 0 01-1.049-.104 4.303 4.294 0 01-.63-.313c.573-.695.88-1.635 1.47-1.795zm-9.768-2.037a7.536 7.519 0 012.939 1.48 1.16 1.158 0 01.063.481 8.957 8.937 0 01-1.531.252 8.407 8.387 0 01-1.26 0 3.463 3.455 0 01-1.05-.105 4.303 4.294 0 01-.63-.313c.574-.695.88-1.635 1.47-1.795zm-17.353 2.127a13.03 13 0 011.472.537 13.17 13.14 0 011.468.943 1.201 1.198 0 01.063.482 9.087 9.066 0 01-1.531.25 8.387 8.367 0 01-1.26 0 3.436 3.428 0 01-1.05-.104 4.256 4.247 0 01-.63-.314c.573-.694.88-1.634 1.468-1.794zm-8.987-29.755c-.613-.277-1.05-1.043-.66-1.59.155-.22.412-.174.565-.395.144-.254.192-.551.136-.838a5.224 5.212 0 00-.21-.942 5.01 4.998 0 01-.135-1.047 2.252 2.247 0 01.345-1.57c.211-.28.498-.49.826-.612.147.136-.057.502-.033.821a3.833 3.824 0 00.288 1.151c.202.563.48.808.704 1.361a3.583 3.575 0 01.42 1.361 2.292 2.287 0 01-.21 1.153 2.009 2.004 0 01-.61.837 1.851 1.847 0 01-.797.419 1.15 1.148 0 01-.629-.108z"
        fill="#005eb7" />
    <path
        d="M412.66 249.25h82.176v82.02H412.66zm90.937 0h82.176v82.02h-82.176zM412.97 402.4a20.759 20.759 0 002.163 6.609c1.477 2.332.932 2.269 4.276 6a23.916 23.916 0 006.227 4.494 26.952 26.952 0 006.841 2.496 50.939 50.939 0 0016.573 1.598 98.457 98.457 0 0010.25-1.062 108.8 108.8 0 0111.117-1.01c2.133-.09 4.15-.11 6.142 0 2.457.162 4.899.5 7.308 1.01a79.667 79.667 0 0110.962 3.188l.014-85.652-82.19-.023v58.542s.168 2.86.318 3.81zm172.5-.02a20.73 20.73 0 01-2.163 6.608c-1.477 2.333-.932 2.27-4.275 6a23.961 23.961 0 01-6.228 4.495 26.909 26.909 0 01-6.84 2.495 50.948 50.948 0 01-16.573 1.6 98.69 98.69 0 01-10.25-1.063 108.64 108.64 0 00-11.117-1.01c-2.133-.09-4.15-.11-6.142 0a51.468 51.468 0 00-7.309 1.01 82.417 82.417 0 00-11.033 3.188l.057-85.652 82.19-.023v58.541s-.168 2.86-.318 3.81z"
        fill="none" stroke="#704029" stroke-width=".797" transform="matrix(1.0008 0 0 .9985 -.512 .516)" />
</svg>