<svg width="30" height="20" xmlns="http://www.w3.org/2000/svg">
    <rect width="15" height="20" fill="#356600"/>
    <rect width="15" height="20" x="15" fill="#FFF"/>
    <path
            d="m 15,5 a 5,5 0 0 0 -5,5 5,5 0 0 0 5,5 5,5 0 0 0 4.337891,-2.515625 A 4,4 0 0 1 16.207031,14 a 4,4 0 0 1 -4,-4 4,4 0 0 1 4,-4 4,4 0 0 1 3.13086,1.515625 A 5,5 0 0 0 15,5"
            fill="#B60000"/>
    <polygon
            points="19.522542485937368,10 15,11.469463130731183 17.795084971874736,7.622358709262116 17.795084971874736,12.377641290737884 15,8.530536869268818"
            fill="#B60000"/>
</svg>