<svg xmlns="http://www.w3.org/2000/svg" width="30" height="20"><rect width="15" height="20" fill="#356600"/><rect width="15" height="20" x="15" fill="#FFF"/><path fill="#B60000" d="m 15,5 a 5,5 0 0 0 -5,5 5,5 0 0 0 5,5 5,5 0 0 0 4.337891,-2.515625 A 4,4 0 0 1 16.207031,14 a 4,4 0 0 1 -4,-4 4,4 0 0 1 4,-4 4,4 0 0 1 3.13086,1.515625 A 5,5 0 0 0 15,5"/><path fill="#B60000" d="M 17.794922,7.6210937 16.728516,9.0917969 15,8.5292969 16.068359,10 15,11.46875 l 1.728516,-0.560547 1.066406,1.46875 V 10.560547 L 19.523437,10 17.794922,9.4394531"/></svg>