<svg xmlns="http://www.w3.org/2000/svg" width="30" height="20"><rect width="15" height="20" fill="#356600"/><rect width="15" height="20" x="15" fill="#fff"/><path fill="#b60000" d="m 15,5 a 5,5 0 0 0 -5,5 5,5 0 0 0 5,5 5,5 0 0 0 4.337891,-2.515625 A 4,4 0 0 1 16.207031,14 a 4,4 0 0 1 -4,-4 4,4 0 0 1 4,-4 4,4 0 0 1 3.13086,1.515625 A 5,5 0 0 0 15,5 Z"/><path fill="#b60000" d="m 18.57536,8.9588099 -1.830056,0.5946977 -7.3e-5,1.9242584 -1.131109,-1.556715 -1.830101,0.594559 1.130992,-1.5568001 -1.130992,-1.5568004 1.830101,0.5945592 1.131109,-1.5567148 7.3e-5,1.9242582 z" transform="matrix(0.94399501 0 0 0.94399501 1.9879528 1.54281)"/></svg>