<svg xmlns="http://www.w3.org/2000/svg" width="2880" height="1920">
    <rect width="2880" height="1920" fill="LAB(36.93035997111253 -32.06438144487345 7.905305311141353)"/>
    <polygon id="a"
             points="0,-527.5 42.908323417350545,-395.44175941062883 -69.42712568954622,-477.05824058937117 69.4271256895462,-477.05824058937117 -42.90832341735053,-395.44175941062883"
             fill="LAB(70.34357387681659 -4.889584235663325 72.86869321261419)"/>
    <g transform="translate(1440 960)">
        <path d="M 0,-345.675090312388 A 324.5,324.5 0 0 0 -57.4114104338348,80.8804630911029 324.5,324.5 0 0 1 -94.4010932516277,-256.6219624689741 130,130 0 0 1 -124.5160083891597,-308.6400795660547 324.5,324.5 0 0 0 -103.6202342972918,42.9768293472682 381.5,381.5 0 0 0 -396.370624772815,-74.1043313779077 130,130 0 0 1 -369.4153846560706,-38.4995520638257 381.5,381.5 0 0 1 -94.2792261605064,79.3329658957138 381.5,381.5 0 0 0 -485.2010833475831,19.6259186205758 324.5,324.5 0 0 0 -145.8895879217339,226.48455488525 324.5,324.5 0 0 1 -438.460059404905,142.3838289452307 130,130 0 0 1 -477.2579207451291,150.7692575643835 324.5,324.5 0 0 0 0,160.8204839421889 324.5,324.5 0 0 0 477.2579207451291,150.7692575643835 130,130 0 0 1 438.460059404905,142.3838289452307 324.5,324.5 0 0 1 145.8895879217339,226.48455488525 324.5,324.5 0 0 0 485.2010833475831,19.6259186205758 381.5,381.5 0 0 0 94.2792261605064,79.3329658957138 324.5,324.5 0 0 1 369.4153846560706,-38.4995520638257 130,130 0 0 1 396.370624772815,-74.1043313779077 324.5,324.5 0 0 0 103.6202342972918,42.9768293472682 324.5,324.5 0 0 0 124.5160083891597,-308.6400795660547 130,130 0 0 1 94.4010932516277,-256.6219624689741 324.5,324.5 0 0 1 57.4114104338348,80.8804630911029 324.5,324.5 0 0 0 0,-345.675090312388"
              fill="LAB(90.778373985 0 0)"/>
        <polygon
                points="0,-598 62.01134411685593,-407.148707093443 -100.33646246913871,-525.101292906557 100.3364624691387,-525.101292906557 -62.0113441168559,-407.148707093443"
                fill="LAB(70.34357387681659 -4.889584235663325 72.86869321261419)"/>
        <g transform="translate(0 -38)">
            <g id="b">
                <use href="#a" transform="rotate(-40)"/>
                <use href="#a" transform="rotate(-70)"/>
            </g>
            <use href="#b" transform="rotate(110)"/>
        </g>
        <path d="M 0,195.7855404406328 A 324.5,324.5 0 0 1 -224,285.5 L -476.5750203273353,285.5 A 576,576 0 0 0 -453.206078953052,317.5 L -209,317.4 A 324.5,324.5 0 0 0 0,241.2322501207287 324.5,324.5 0 0 0 209,317.4 L 453.206078953052,317.5 A 576,576 0 0 0 476.5750203273353,285.5 L 224,285.5 A 324.5,324.5 0 0 1 0,195.7855404406328"
              fill="LAB(90.778373985 0 0)"/>
        <path d="M -425.2572750700451,350.5 425.2572750700451,350.5 A 576,576 0 0 1 410.0679821688106,366.5 L -410.0679821688106,366.5 A 576,576 0 0 1 -425.2572750700451,350.5"
              fill="LAB(90.778373985 0 0)"/>
        <path d="M -374.6595120906448,399.5 374.6595120906448,399.5 A 576,576 0 0 1 343.3216421957695,424.5 L -343.3216421957695,424.5 A 576,576 0 0 1 -374.6595120906448,399.5"
              fill="LAB(90.778373985 0 0)"/>
        <path d="M -306.7894228945972,449.5 306.7894228945972,449.5 A 576,576 0 0 1 248.7885648497535,481.5 L -248.7885648497535,481.5 A 576,576 0 0 1 -306.7894228945972,449.5"
              fill="LAB(90.778373985 0 0)"/>
        <path d="M -212.1691542142731,497.5 212.1691542142731,497.5 A 576,576 0 0 1 -212.1691542142731,497.5"
              fill="LAB(90.778373985 0 0)"/>
    </g>
    <!-- xyY to LAB because svg doesn't support xyY-->
</svg>