<svg width="334.02" height="222.68" xmlns="http://www.w3.org/2000/svg">
    <rect width="334.02" height="222.68" fill="LAB(37.00111115380553 57.33695372477302 40.15103424624308)"/>
    <rect width="334.02" height="111.34" y="55.67" fill="LAB(80.13412592269347 9.145931235431892 82.18392256890864)"/>
    <!-- LCH to LAB because svg doesn't support LCH-->
    <g xmlns:xlink="http://www.w3.org/1999/xlink" xmlns="http://www.w3.org/2000/svg"
       transform="translate(68.488 66.7815)">
        <style type="text/css">
            .st1{fill-rule:evenodd;clip-rule:evenodd;fill:none;}
            .st3{fill-rule:evenodd;clip-rule:evenodd;fill:#B60027;stroke:#211915;stroke-width:0.116;stroke-miterlimit:3.8637;}
            .st4{fill-rule:evenodd;clip-rule:evenodd;fill:#A07E00;stroke:#211915;stroke-width:0.116;stroke-miterlimit:3.8637;}
            .st5{fill-rule:evenodd;clip-rule:evenodd;fill:#A07E00;}
            .st6{fill-rule:evenodd;clip-rule:evenodd;fill:#A07E00;stroke:#211915;stroke-width:0.1328;stroke-miterlimit:3.8637;}
            .st8{fill-rule:evenodd;clip-rule:evenodd;fill:none;stroke:#211915;stroke-width:0.116;stroke-miterlimit:3.8637;}
            .st9{fill-rule:evenodd;clip-rule:evenodd;fill:#FFFFFF;stroke:#211915;stroke-width:0.116;stroke-miterlimit:3.8637;}
            .st10{fill-rule:evenodd;clip-rule:evenodd;fill:#006F46;stroke:#211915;stroke-width:0.116;stroke-miterlimit:3.8637;}
            .st12{fill-rule:evenodd;clip-rule:evenodd;fill:none;stroke:#211915;stroke-width:0.145;stroke-miterlimit:3.8637;}
            .st13{fill-rule:evenodd;clip-rule:evenodd;fill:none;stroke:#211915;stroke-width:0.174;stroke-miterlimit:3.8637;}
            .st14{fill-rule:evenodd;clip-rule:evenodd;fill:none;stroke:#211915;stroke-width:0.203;stroke-miterlimit:3.8637;}
            .st15{fill-rule:evenodd;clip-rule:evenodd;fill:none;stroke:#211915;stroke-width:0.2273;stroke-miterlimit:3.8637;}
            .st16{fill-rule:evenodd;clip-rule:evenodd;fill:none;stroke:#211915;stroke-width:0.2558;stroke-miterlimit:3.8637;}
            .st17{fill-rule:evenodd;clip-rule:evenodd;fill:none;stroke:#211915;stroke-width:0.2842;stroke-miterlimit:3.8637;}
            .st18{fill:#A07E00;stroke:#211915;stroke-width:0.116;stroke-miterlimit:3.8637;}
            .st19{fill-rule:evenodd;clip-rule:evenodd;fill:#A07E00;stroke:#211915;stroke-width:0.174;stroke-miterlimit:3.8637;}
            .st20{fill-rule:evenodd;clip-rule:evenodd;fill:#0044AE;stroke:#211915;stroke-width:0.174;stroke-miterlimit:3.8637;}
            .st21{fill-rule:evenodd;clip-rule:evenodd;fill:#BCBAB9;stroke:#211915;stroke-width:0.174;stroke-miterlimit:3.8637;}
            .st22{fill-rule:evenodd;clip-rule:evenodd;fill:#B60027;stroke:#211915;stroke-width:0.174;stroke-miterlimit:3.8637;}
            .st24{fill-rule:evenodd;clip-rule:evenodd;fill:#B60027;stroke:#211915;stroke-width:0.1206;stroke-miterlimit:3.8637;}
            .st25{fill-rule:evenodd;clip-rule:evenodd;fill:#FFFFFF;stroke:#211915;stroke-width:0.1026;stroke-miterlimit:3.8637;}
            .st26{fill-rule:evenodd;clip-rule:evenodd;fill:none;stroke:#211915;stroke-width:0.1026;stroke-miterlimit:3.8637;}
            .st27{fill-rule:evenodd;clip-rule:evenodd;fill:none;stroke:#211915;stroke-width:0.116;stroke-linecap:round;stroke-miterlimit:3.8637;}
            .st31{fill-rule:evenodd;clip-rule:evenodd;fill:none;stroke:#211915;stroke-width:2.186600e-02;stroke-miterlimit:3.8637;}
            .st33{fill-rule:evenodd;clip-rule:evenodd;fill:none;stroke:#211915;stroke-width:4.649400e-02;stroke-miterlimit:3.8637;}
            .st34{fill-rule:evenodd;clip-rule:evenodd;fill:none;stroke:#211915;stroke-width:9.619100e-02;stroke-miterlimit:3.8637;}
            .st35{fill-rule:evenodd;clip-rule:evenodd;fill:none;stroke:#211915;stroke-width:0.232;stroke-miterlimit:3.8637;}
            .st36{fill-rule:evenodd;clip-rule:evenodd;fill:none;stroke:#211915;stroke-width:0.261;stroke-miterlimit:3.8637;}
            .st37{fill-rule:evenodd;clip-rule:evenodd;fill:none;stroke:#211915;stroke-width:0.29;stroke-miterlimit:3.8637;}
            .st38{fill-rule:evenodd;clip-rule:evenodd;fill:none;stroke:#211915;stroke-width:0.319;stroke-miterlimit:3.8637;}
            .st39{fill-rule:evenodd;clip-rule:evenodd;fill:none;stroke:#211915;stroke-width:0.348;stroke-miterlimit:3.8637;}
            .st40{fill-rule:evenodd;clip-rule:evenodd;fill:none;stroke:#211915;stroke-width:0.3771;stroke-miterlimit:3.8637;}
            .st41{fill-rule:evenodd;clip-rule:evenodd;fill:none;stroke:#211915;stroke-width:0.4061;stroke-miterlimit:3.8637;}
            .st42{fill-rule:evenodd;clip-rule:evenodd;fill:none;stroke:#211915;stroke-width:0.4351;stroke-miterlimit:3.8637;}
            .st43{fill-rule:evenodd;clip-rule:evenodd;fill:none;stroke:#211915;stroke-width:0.4641;stroke-miterlimit:3.8637;}
            .st44{fill-rule:evenodd;clip-rule:evenodd;fill:none;stroke:#211915;stroke-width:0.4931;stroke-miterlimit:3.8637;}
            .st45{fill-rule:evenodd;clip-rule:evenodd;fill:none;stroke:#211915;stroke-width:0.5801;stroke-miterlimit:3.8637;}
            .st47{fill-rule:evenodd;clip-rule:evenodd;fill:#FFFFFF;stroke:#211915;stroke-width:0.174;stroke-miterlimit:3.8637;}
            .st48{fill-rule:evenodd;clip-rule:evenodd;fill:#006F46;stroke:#211915;stroke-width:0.174;stroke-miterlimit:3.8637;}
            .st49{fill:#A07E00;stroke:#211915;stroke-width:0.174;stroke-miterlimit:3.8637;}
            .st52{fill-rule:evenodd;clip-rule:evenodd;fill:#BCBAB9;stroke:#211915;stroke-width:0.232;stroke-miterlimit:3.8637;}
            .st53{fill-rule:evenodd;clip-rule:evenodd;fill:#B60027;stroke:#211915;stroke-width:0.232;stroke-miterlimit:3.8637;}
            .st55{fill-rule:evenodd;clip-rule:evenodd;fill:none;stroke:#B60027;stroke-width:0.116;stroke-miterlimit:3.8637;}
            .st56{fill-rule:evenodd;clip-rule:evenodd;fill:#A07E00;stroke:#A07E00;stroke-width:0.116;stroke-miterlimit:3.8637;}
            .st57{fill-rule:evenodd;clip-rule:evenodd;fill:#006F46;}
            .st58{fill-rule:evenodd;clip-rule:evenodd;fill:#D95AAF;stroke:#211915;stroke-width:0.174;stroke-miterlimit:3.8637;}
            .st59{fill-rule:evenodd;clip-rule:evenodd;fill:#211915;stroke:#211915;stroke-width:0.116;stroke-miterlimit:3.8637;}
            .st60{fill-rule:evenodd;clip-rule:evenodd;fill:#211915;stroke:#211915;stroke-width:2.186600e-02;stroke-miterlimit:3.8637;}
            .st61{fill-rule:evenodd;clip-rule:evenodd;fill:#F7CC7E;stroke:#211915;stroke-width:0.232;stroke-miterlimit:3.8637;}
            .st62{fill-rule:evenodd;clip-rule:evenodd;fill:#006F46;stroke:#211915;stroke-width:0.232;stroke-miterlimit:3.8637;}
            .st63{fill-rule:evenodd;clip-rule:evenodd;fill:#A07E00;stroke:#211915;stroke-width:0.232;stroke-miterlimit:3.8637;}
            .st64{fill-rule:evenodd;clip-rule:evenodd;fill:#0044AE;stroke:#211915;stroke-width:0.232;stroke-miterlimit:3.8637;}
            .st65{fill-rule:evenodd;clip-rule:evenodd;fill:#B60027;stroke:#211915;stroke-width:0.27;stroke-miterlimit:3.8637;}
            .st66{fill-rule:evenodd;clip-rule:evenodd;fill:#0044AE;stroke:#211915;stroke-width:0.27;stroke-miterlimit:3.8637;}
            .st67{fill-rule:evenodd;clip-rule:evenodd;fill:#A07E00;stroke:#211915;stroke-width:0.1508;stroke-miterlimit:3.8637;}
        </style>
        <path class="st3" d="M5.6,31.5c0,0-0.2,0-0.4-0.1C5.1,31.3,4.7,31,4.7,31l-0.3-0.2l-0.3-0.4c0,0-0.3-0.6-0.2-1
					c0.2-0.4,0.4-0.6,0.6-0.7c0.2-0.1,0.7-0.3,0.7-0.3s0.4-0.2,0.5-0.2c0.1,0,0.6-0.2,0.6-0.2s0.1-0.1,0.3-0.1
					c0.1-0.1,0.3-0.1,0.4-0.1c0.1,0,0.4-0.1,0.5-0.1c0.2,0,0.6,0,0.7,0c0.1,0,0.6,0,0.7,0c0.2,0,0.8-0.1,1-0.1c0.2,0,0.3,0,0.5,0
					c0.2,0,0.6,0.2,0.7,0.2c0.1,0,0.7,0.3,0.9,0.4c0.2,0.1,0.8,0.2,1,0.3c0.3,0.1,0.4,0.3,0.5,0.5c0.1,0.2,0.2,0.4,0.2,0.5
					c0.1,0.1,0.1,0.4,0,0.5c-0.1,0.1-0.2,0.4-0.2,0.4L13.4,31l-0.4,0.3c0,0-0.3,0.3-0.5,0.2c-0.2,0-2.3-0.4-3.6-0.4
					C7.7,31.1,5.6,31.5,5.6,31.5z"/>
        <path class="st4"
              d="M8.4,28.4c0-0.6,0.3-1.2,0.6-1.2c0.3,0,0.6,0.5,0.6,1.2c0,0.6-0.3,1.2-0.6,1.2C8.7,29.6,8.4,29,8.4,28.4z"
        />
        <path class="st4"
              d="M8.8,28.4c0-0.6,0.1-1.1,0.3-1.1c0.2,0,0.3,0.5,0.3,1.1c0,0.6-0.1,1.1-0.3,1.1C8.9,29.5,8.8,29,8.8,28.4z"
        />
        <path class="st5"
              d="M8.6,27.1c0-0.2,0.2-0.4,0.4-0.4c0.2,0,0.4,0.2,0.4,0.4c0,0.2-0.2,0.4-0.4,0.4C8.8,27.6,8.6,27.4,8.6,27.1z"/>
        <polygon class="st6" points="9.3,27 9.3,27.3 8.7,27.3 8.7,27 8.9,27 8.9,26.4 8.6,26.4 8.6,26.1 8.9,26.1 8.9,25.8 9.2,25.8
						9.2,26.1 9.5,26.1 9.5,26.4 9.2,26.4 9.2,27"/>
        <defs>
            <path id="SVGID_1_" d="M8.6,27.1c0-0.2,0.2-0.4,0.4-0.4c0.2,0,0.4,0.2,0.4,0.4c0,0.2-0.2,0.4-0.4,0.4
								C8.8,27.6,8.6,27.4,8.6,27.1z"/>
        </defs>
        <clipPath id="SVGID_00000014596455709294823290000004473797545369379729_">
            <use xlink:href="#SVGID_1_" style="overflow:visible;"/>
        </clipPath>
        <polygon
                style="clip-path:url(#SVGID_00000014596455709294823290000004473797545369379729_);fill-rule:evenodd;clip-rule:evenodd;fill:#A07E00;stroke:#211915;stroke-width:0.1328;stroke-miterlimit:3.8637;"
                points="
							9.6,27 9.6,27.3 8.5,27.3 8.5,27 8.9,27 8.9,26.4 8.6,26.4 8.6,26.1 8.9,26.1 8.9,25.8 9.2,25.8 9.2,26.1 9.5,26.1 9.5,26.4
							9.2,26.4 9.2,27"/>
        <path class="st1"
              d="M8.6,27.1c0-0.2,0.2-0.4,0.4-0.4c0.2,0,0.4,0.2,0.4,0.4c0,0.2-0.2,0.4-0.4,0.4C8.8,27.6,8.6,27.4,8.6,27.1z"/>
        <path class="st1"
              d="M8.6,27.1c0-0.2,0.2-0.4,0.4-0.4c0.2,0,0.4,0.2,0.4,0.4c0,0.2-0.2,0.4-0.4,0.4C8.8,27.6,8.6,27.4,8.6,27.1z"/>
        <path class="st8"
              d="M9.2,26.8c0.2,0.1,0.3,0.2,0.3,0.4c0,0.2-0.2,0.4-0.4,0.4c-0.2,0-0.4-0.2-0.4-0.4c0-0.2,0.1-0.4,0.3-0.4"
        />
        <path class="st4" d="M9,31.4H6.9l-0.1-0.6l-0.1-0.6l-0.1-0.7c-0.6-0.8-1.2-1.4-1.3-1.3c0-0.2,0.1-0.3,0.2-0.3
					c0.5-0.3,1.6,0.5,2.5,1.8C8,29.8,8.1,30,8.2,30.1H9H10c0.1-0.1,0.1-0.2,0.2-0.4c0.8-1.3,1.9-2.1,2.5-1.8
					c0.1,0.1,0.2,0.2,0.2,0.3c-0.2-0.1-0.7,0.4-1.3,1.3l-0.1,0.7l-0.1,0.6l-0.1,0.6H9z"/>
        <path class="st8" d="M5.4,28.3C5.8,28,6.7,28.8,7.5,30"/>
        <path class="st8" d="M12.7,28.3c-0.4-0.3-1.4,0.5-2.1,1.8"/>
        <path class="st4" d="M5.8,32.4c-0.1-0.3-0.3-0.5-0.3-0.5c0.9-0.3,2.1-0.4,3.5-0.4c1.4,0,2.6,0.2,3.5,0.4c0,0-0.1,0.2-0.2,0.4
					c-0.1,0.1-0.2,0.4-0.2,0.4c-0.8-0.3-1.8-0.4-3.1-0.4c-1.3,0-2.5,0.2-3.1,0.4C5.9,32.7,5.9,32.6,5.8,32.4L5.8,32.4z"/>
        <path class="st4" d="M9,33.6c1.1,0,2.3-0.2,2.8-0.3c0.3-0.1,0.5-0.2,0.4-0.4c0-0.1-0.1-0.1-0.2-0.2c-0.7-0.2-1.8-0.4-3-0.4
					c-1.2,0-2.4,0.2-3,0.4c-0.1,0-0.2,0.1-0.2,0.2c0,0.2,0.1,0.3,0.4,0.4C6.7,33.4,7.9,33.6,9,33.6z"/>
        <path class="st4" d="M12.6,31.4l-0.3-0.3c0,0-0.3,0.2-0.6,0.1c-0.3-0.1-0.4-0.5-0.4-0.5s-0.4,0.3-0.7,0.3
					c-0.3,0-0.5-0.3-0.5-0.3S9.9,31.1,9.6,31C9.3,31,9,30.6,9,30.6S8.7,31,8.5,31c-0.3,0-0.5-0.3-0.5-0.3s-0.1,0.3-0.5,0.3
					c-0.4,0.1-0.7-0.3-0.7-0.3s-0.2,0.3-0.4,0.4c-0.2,0.1-0.6-0.1-0.6-0.1s-0.1,0.1-0.1,0.2c0,0.1-0.1,0.1-0.1,0.1l0.1,0.2
					c0.9-0.3,2.1-0.4,3.4-0.4c1.3,0,2.6,0.2,3.4,0.4L12.6,31.4z"/>
        <path class="st4" d="M9,30.2l0.1,0c0,0.1,0,0.1,0,0.2c0,0.3,0.2,0.5,0.5,0.5c0.2,0,0.4-0.1,0.5-0.3c0,0,0-0.2,0.1-0.2
					c0,0,0,0.2,0,0.2c0,0.2,0.3,0.4,0.5,0.4c0.3,0,0.5-0.2,0.5-0.5c0,0,0,0,0-0.1l0.2-0.2l0.1,0.2c0,0.1,0,0.1,0,0.2
					c0,0.3,0.2,0.5,0.5,0.5c0.2,0,0.3-0.1,0.4-0.2l0.1-0.1l0,0.2c0,0.2,0.1,0.3,0.2,0.3c0,0,0.2,0,0.4-0.2c0.2-0.2,0.4-0.4,0.4-0.4
					l0,0.2c0,0-0.2,0.4-0.4,0.5c-0.1,0.1-0.3,0.1-0.4,0.1c-0.1,0-0.3-0.1-0.3-0.3c-0.1,0.1-0.2,0.1-0.4,0.1c-0.3,0-0.5-0.2-0.6-0.4
					c-0.1,0.1-0.3,0.2-0.5,0.2c-0.2,0-0.4-0.1-0.6-0.3c-0.1,0.1-0.3,0.2-0.5,0.2c-0.3,0-0.5-0.1-0.6-0.3c-0.1,0.2-0.4,0.3-0.6,0.3
					c-0.2,0-0.4-0.1-0.5-0.2c-0.1,0.2-0.3,0.3-0.6,0.3c-0.2,0-0.4-0.1-0.5-0.2c-0.1,0.2-0.4,0.4-0.6,0.4c-0.1,0-0.3,0-0.4-0.1
					c-0.1,0.1-0.2,0.3-0.3,0.3c-0.1,0-0.3,0-0.4-0.1C4.9,31.4,4.7,31,4.7,31l0-0.2c0,0,0.1,0.2,0.4,0.4c0.2,0.2,0.4,0.2,0.4,0.2
					c0.2,0,0.2-0.2,0.2-0.3v-0.2l0.1,0.1c0.1,0.1,0.2,0.2,0.4,0.2c0.3,0,0.5-0.2,0.5-0.5c0-0.1,0-0.2,0-0.2l0.1-0.2l0.2,0.2
					c0,0,0,0,0,0.1c0,0.3,0.2,0.5,0.5,0.5c0.2,0,0.5-0.2,0.5-0.4c0,0,0-0.2,0-0.2c0,0,0.1,0.2,0.1,0.2c0.1,0.2,0.3,0.3,0.5,0.3
					c0.3,0,0.5-0.2,0.5-0.5c0-0.1,0-0.1,0-0.2L9,30.2z"/>
        <path class="st4" d="M9,31.5c-1.4,0-2.6,0.2-3.5,0.4c-0.1,0-0.1,0-0.1-0.1c0-0.1,0-0.1,0.1-0.1c0.9-0.3,2.1-0.5,3.5-0.5
					c1.4,0,2.7,0.2,3.5,0.5c0.1,0,0.1,0.1,0.1,0.1c0,0.1-0.1,0.1-0.2,0.1C11.6,31.6,10.4,31.5,9,31.5z"/>
        <path class="st9"
              d="M7.7,32c0-0.1,0.1-0.2,0.2-0.2c0.1,0,0.2,0.1,0.2,0.2c0,0.1-0.1,0.2-0.2,0.2C7.8,32.2,7.7,32.1,7.7,32z"/>
        <path class="st3" d="M9.1,32.1H8.6c-0.1,0-0.1-0.1-0.1-0.1c0-0.1,0.1-0.1,0.1-0.1h0.4h0.4c0.1,0,0.1,0.1,0.1,0.1
					c0,0.1-0.1,0.1-0.1,0.1H9.1z"/>
        <path class="st10" d="M6.9,32.2l-0.3,0c-0.1,0-0.2,0-0.2-0.1c0-0.1,0-0.2,0.1-0.2l0.3,0l0.3-0.1c0.1,0,0.2,0,0.2,0.1
					c0,0.1,0,0.2-0.1,0.2L6.9,32.2z"/>
        <polygon class="st3" points="5.6,32.5 5.7,32.2 6,32.3 5.9,32.5"/>
        <path class="st9" d="M10,32c0-0.1,0.1-0.2,0.2-0.2s0.2,0.1,0.2,0.2c0,0.1-0.1,0.2-0.2,0.2S10,32.1,10,32z"/>
        <path class="st10" d="M11.2,32.2l0.3,0c0.1,0,0.2,0,0.2-0.1c0-0.1,0-0.2-0.1-0.2l-0.3,0L11,31.9c-0.1,0-0.2,0-0.2,0.1
					c0,0.1,0,0.2,0.1,0.2L11.2,32.2z"/>
        <polygon class="st3" points="12.5,32.5 12.4,32.2 12.1,32.2 12.2,32.5"/>
        <defs>
            <path id="SVGID_00000041987417510198964740000000070794984450455169_" d="M9,33.3c-1.1,0-2.1-0.1-2.9-0.3
							c0.8-0.2,1.8-0.3,2.9-0.3c1.1,0,2.1,0.1,2.9,0.3C11.1,33.2,10.1,33.3,9,33.3z"/>
        </defs>
        <use xlink:href="#SVGID_00000041987417510198964740000000070794984450455169_"
             style="overflow:visible;fill-rule:evenodd;clip-rule:evenodd;fill:#B60027;"/>
        <clipPath id="SVGID_00000091695787506614031640000014739426805089091742_">
            <use xlink:href="#SVGID_00000041987417510198964740000000070794984450455169_" style="overflow:visible;"/>
        </clipPath>
        <g style="clip-path:url(#SVGID_00000091695787506614031640000014739426805089091742_);">
            <line class="st8" x1="9.9" y1="32.1" x2="9.9" y2="33.9"/>
            <line class="st12" x1="9.5" y1="32.1" x2="9.5" y2="33.9"/>
            <line class="st13" x1="9.1" y1="32.1" x2="9.1" y2="33.9"/>
            <line class="st13" x1="8.7" y1="32.1" x2="8.7" y2="33.9"/>
            <line class="st13" x1="8.4" y1="32.1" x2="8.4" y2="33.9"/>
            <line class="st13" x1="8.1" y1="32.1" x2="8.1" y2="33.9"/>
            <line class="st14" x1="7.8" y1="32.1" x2="7.8" y2="33.9"/>
            <line class="st15" x1="7.5" y1="32.1" x2="7.5" y2="33.9"/>
            <line class="st15" x1="7.2" y1="32.1" x2="7.2" y2="33.9"/>
            <line class="st16" x1="6.9" y1="32.1" x2="6.9" y2="33.9"/>
            <line class="st17" x1="6.6" y1="32.1" x2="6.6" y2="33.9"/>
        </g>
        <use xlink:href="#SVGID_00000041987417510198964740000000070794984450455169_"
             style="overflow:visible;fill-rule:evenodd;clip-rule:evenodd;fill:none;stroke:#211915;stroke-width:0.116;stroke-miterlimit:3.8637;"/>
        <path class="st4"
              d="M12.5,30.8c0-0.1,0-0.2-0.1-0.2c-0.1,0-0.1,0-0.2,0.1c0,0.1,0,0.2,0.1,0.2C12.4,31,12.5,30.9,12.5,30.8z"/>
        <path class="st4"
              d="M10.3,30.4c0-0.1,0-0.2-0.1-0.2c-0.1,0-0.1,0.1-0.1,0.2c0,0.1,0,0.2,0.1,0.2C10.2,30.6,10.3,30.5,10.3,30.4z"/>
        <path class="st4"
              d="M7.8,30.4c0-0.1,0-0.2,0.1-0.2c0.1,0,0.1,0.1,0.1,0.2c0,0.1,0,0.2-0.1,0.2C7.8,30.6,7.8,30.5,7.8,30.4z"/>
        <path class="st4"
              d="M5.6,30.8c0-0.1,0-0.2,0.1-0.2c0.1,0,0.1,0,0.2,0.1c0,0.1,0,0.2-0.1,0.2C5.7,31,5.6,30.9,5.6,30.8z"/>
        <polygon class="st4" points="9,29.1 8.7,29.3 8.9,30 9,30 9.1,30 9.4,29.3"/>
        <polygon class="st4" points="8.2,30.1 8.4,30.3 9,30.1 9,30.1 9,30 8.4,29.8"/>
        <polygon class="st4" points="9.9,30.1 9.7,30.3 9.1,30.1 9,30.1 9.1,30 9.7,29.8"/>
        <polygon class="st4" points="6.5,29.4 6.2,29.7 6.6,30.2 6.7,30.3 6.8,30.2 6.9,29.5"/>
        <polygon class="st4" points="5.9,30.4 6.1,30.7 6.7,30.4 6.7,30.3 6.6,30.2 6,30.1"/>
        <polygon class="st4" points="7.5,30.1 7.4,30.4 6.8,30.3 6.7,30.3 6.8,30.2 7.3,29.8"/>
        <polygon class="st4" points="5.3,30.5 5.2,30.8 4.6,30.9 4.5,30.9 4.5,30.7 5,30.3"/>
        <path class="st4"
              d="M6.5,30.3c0-0.1,0.1-0.2,0.2-0.2c0.1,0,0.2,0.1,0.2,0.2c0,0.1-0.1,0.2-0.2,0.2C6.6,30.5,6.5,30.4,6.5,30.3z"/>
        <polygon class="st4" points="11.6,29.4 11.9,29.7 11.5,30.2 11.4,30.3 11.3,30.2 11.2,29.5"/>
        <polygon class="st4" points="12.2,30.4 12,30.7 11.4,30.4 11.4,30.3 11.5,30.2 12.1,30.1"/>
        <polygon class="st4" points="10.5,30.1 10.7,30.4 11.3,30.3 11.4,30.3 11.3,30.2 10.8,29.8"/>
        <polygon class="st4" points="12.7,30.5 12.8,30.8 13.4,30.9 13.5,30.9 13.5,30.7 13,30.3"/>
        <path class="st4"
              d="M8.8,30.1c0-0.1,0.1-0.2,0.2-0.2c0.1,0,0.2,0.1,0.2,0.2c0,0.1-0.1,0.2-0.2,0.2C8.9,30.3,8.8,30.2,8.8,30.1z"/>
        <path class="st4" d="M11.2,30.3c0-0.1,0.1-0.2,0.2-0.2c0.1,0,0.2,0.1,0.2,0.2c0,0.1-0.1,0.2-0.2,0.2
					C11.3,30.5,11.2,30.4,11.2,30.3z"/>
        <path class="st18" d="M4.4,30.9c0,0-0.2-0.2-0.3-0.3c-0.1-0.1-0.3-0.2-0.3-0.2c0,0,0.1-0.1,0.3-0.1c0.1,0,0.2,0,0.2,0.1l0-0.1
					c0,0,0.1,0,0.2,0.2c0.1,0.1,0,0.3,0,0.3S4.4,30.8,4.4,30.9z"/>
        <path class="st4"
              d="M4.4,30.8c0.1-0.1,0.2,0,0.2,0C4.7,30.9,4.8,31,4.7,31c-0.1,0.1-0.2,0-0.2,0C4.4,30.9,4.4,30.8,4.4,30.8z"
        />
        <path class="st18" d="M13.6,30.9c0,0,0.2-0.2,0.3-0.3c0.1-0.1,0.3-0.2,0.3-0.2c0,0-0.1-0.1-0.3-0.1c-0.1,0-0.2,0-0.2,0.1l0-0.1
					c0,0-0.1,0-0.2,0.2c-0.1,0.1,0,0.3,0,0.3S13.6,30.8,13.6,30.9z"/>
        <path class="st4" d="M13.6,30.8c-0.1-0.1-0.2,0-0.2,0c-0.1,0.1-0.1,0.2-0.1,0.2c0.1,0.1,0.2,0,0.2,0
					C13.6,30.9,13.7,30.8,13.6,30.8z"/>
        <rect x="4" y="33.5" class="st19" width="10.1" height="2.8"/>
        <path class="st19" d="M5.1,38.1c0.1,0,0.1,0,0.2,0h7.6c0.1,0,0.1,0,0.2,0c-0.3-0.1-0.4-0.3-0.4-0.6c0-0.3,0.2-0.5,0.5-0.6
					c-0.1,0-0.1,0-0.2,0H5.3c-0.1,0-0.1,0-0.2,0l0,0c0.3,0.1,0.4,0.3,0.4,0.6C5.5,37.7,5.3,38,5.1,38.1z"/>
        <path class="st19" d="M5.3,38.1h7.6c0.3,0,0.5,0.2,0.5,0.4l0,0c0,0.2-0.2,0.4-0.5,0.4H5.3c-0.3,0-0.5-0.2-0.5-0.4l0,0
					C4.8,38.2,5,38.1,5.3,38.1z"/>
        <path class="st19" d="M5.3,36.3h7.6c0.3,0,0.5,0.1,0.5,0.3l0,0c0,0.2-0.2,0.3-0.5,0.3H5.3c-0.3,0-0.5-0.1-0.5-0.3l0,0
					C4.8,36.4,5,36.3,5.3,36.3z"/>
        <path class="st20" d="M16.1,82.6c-0.7,0-1.3-0.2-1.8-0.4c-0.5-0.2-1.1-0.4-1.8-0.4c-0.7,0-1.3,0.1-1.8,0.4
					c-0.5,0.2-1.1,0.4-1.8,0.4c-0.7,0-1.3-0.2-1.8-0.4c-0.5-0.2-1.1-0.4-1.7-0.4c-0.7,0-1.3,0.1-1.7,0.4c-0.5,0.3-1.1,0.4-1.8,0.4
					v1.1c0.7,0,1.3-0.2,1.8-0.4c0.5-0.2,1.1-0.4,1.7-0.4c0.7,0,1.3,0.1,1.7,0.4c0.5,0.3,1.1,0.4,1.8,0.4c0.7,0,1.3-0.2,1.8-0.4
					c0.5-0.2,1.1-0.4,1.8-0.4c0.7,0,1.3,0.1,1.8,0.4c0.5,0.3,1.1,0.4,1.8,0.4L16.1,82.6z"/>
        <path class="st21" d="M16.1,83.7c-0.7,0-1.3-0.2-1.8-0.4c-0.5-0.2-1.1-0.4-1.8-0.4c-0.7,0-1.3,0.1-1.8,0.4
					c-0.5,0.2-1.1,0.4-1.8,0.4c-0.7,0-1.3-0.2-1.8-0.4c-0.5-0.2-1.1-0.4-1.7-0.4c-0.7,0-1.3,0.1-1.7,0.4c-0.5,0.3-1.1,0.4-1.8,0.4
					v1.1c0.7,0,1.3-0.2,1.8-0.4C4.2,84.2,4.9,84,5.5,84c0.7,0,1.3,0.1,1.7,0.4c0.5,0.3,1.1,0.4,1.8,0.4c0.7,0,1.3-0.2,1.8-0.4
					c0.5-0.2,1.1-0.4,1.8-0.4c0.7,0,1.3,0.1,1.8,0.4c0.5,0.3,1.1,0.4,1.8,0.4L16.1,83.7z"/>
        <path class="st20" d="M16.1,84.8c-0.7,0-1.3-0.2-1.8-0.4c-0.5-0.2-1.1-0.4-1.8-0.4c-0.7,0-1.3,0.1-1.8,0.4
					c-0.5,0.2-1.1,0.4-1.8,0.4c-0.7,0-1.3-0.2-1.8-0.4C6.8,84.2,6.2,84,5.5,84c-0.7,0-1.3,0.1-1.7,0.4c-0.5,0.3-1.1,0.4-1.8,0.4V86
					c0.7,0,1.3-0.2,1.8-0.4c0.5-0.2,1.1-0.4,1.7-0.4c0.7,0,1.3,0.1,1.7,0.4C7.7,85.8,8.3,86,9,86c0.7,0,1.3-0.2,1.8-0.4
					c0.5-0.2,1.1-0.4,1.8-0.4c0.7,0,1.3,0.1,1.8,0.4c0.5,0.3,1.1,0.4,1.8,0.4L16.1,84.8z"/>
        <path class="st21" d="M16.1,87.1c-0.7,0-1.3-0.2-1.8-0.4c-0.5-0.2-1.1-0.4-1.8-0.4c-0.7,0-1.3,0.1-1.8,0.4
					c-0.5,0.2-1.1,0.4-1.8,0.4c-0.7,0-1.3-0.2-1.8-0.4c-0.5-0.2-1.1-0.4-1.7-0.4c-0.7,0-1.3,0.1-1.7,0.4c-0.5,0.3-1.1,0.4-1.8,0.4
					V86c0.7,0,1.3-0.2,1.8-0.4c0.5-0.2,1.1-0.4,1.7-0.4c0.7,0,1.3,0.1,1.7,0.4C7.7,85.8,8.3,86,9,86c0.7,0,1.3-0.2,1.8-0.4
					c0.5-0.2,1.1-0.4,1.8-0.4c0.7,0,1.3,0.1,1.8,0.4c0.5,0.3,1.1,0.4,1.8,0.4L16.1,87.1z"/>
        <path class="st20" d="M16.1,88.2c-0.7,0-1.3-0.2-1.8-0.4c-0.5-0.2-1.1-0.4-1.8-0.4c-0.7,0-1.3,0.1-1.8,0.4
					c-0.5,0.2-1.1,0.4-1.8,0.4c-0.7,0-1.3-0.2-1.8-0.4c-0.5-0.2-1.1-0.4-1.7-0.4c-0.7,0-1.3,0.1-1.7,0.4c-0.5,0.3-1.1,0.4-1.8,0.4
					v-1.1c0.7,0,1.3-0.2,1.8-0.4c0.5-0.2,1.1-0.4,1.7-0.4c0.7,0,1.3,0.1,1.7,0.4c0.5,0.3,1.1,0.4,1.8,0.4c0.7,0,1.3-0.2,1.8-0.4
					c0.5-0.2,1.1-0.4,1.8-0.4c0.7,0,1.3,0.1,1.8,0.4c0.5,0.3,1.1,0.4,1.8,0.4L16.1,88.2z"/>
        <path class="st19" d="M5.1,77.9c0,0.1,0.1,0.2,0.1,0.3c0,0.7-0.6,1.2-1.3,1.2h10.4c-0.7,0-1.3-0.6-1.3-1.2c0-0.1,0-0.2,0-0.3
					c-0.1,0-0.1,0-0.2,0H5.3C5.2,77.9,5.1,77.9,5.1,77.9z"/>
        <path class="st19" d="M5.3,77.2h7.6c0.3,0,0.5,0.2,0.5,0.4l0,0c0,0.2-0.2,0.4-0.5,0.4H5.3c-0.3,0-0.5-0.2-0.5-0.4l0,0
					C4.8,77.4,5,77.2,5.3,77.2z"/>
        <rect x="3.9" y="79.4" class="st19" width="10.4" height="2.7"/>
        <path class="st22" d="M3.1,67.5c-1,0.6-1.7,1.2-1.6,1.6c0.1,0.3,0.4,0.5,0.8,0.8c0.7,0.5,1.2,1.5,0.8,1.9c0.6-0.5,1-1.3,1-2.1
				C4.1,68.8,3.7,68,3.1,67.5z"/>
        <defs>
            <rect id="SVGID_00000114754443612067143900000000212115898389499574_" x="5.4" y="39.2" width="7.4"
                  height="37.5"/>
        </defs>
        <use xlink:href="#SVGID_00000114754443612067143900000000212115898389499574_"
             style="overflow:visible;fill-rule:evenodd;clip-rule:evenodd;fill:#BCBAB9;"/>
        <clipPath id="SVGID_00000074443704451472926130000011633472442457770909_">
            <use xlink:href="#SVGID_00000114754443612067143900000000212115898389499574_" style="overflow:visible;"/>
        </clipPath>
        <line style="clip-path:url(#SVGID_00000074443704451472926130000011633472442457770909_);fill-rule:evenodd;clip-rule:evenodd;fill:none;stroke:#211915;stroke-width:0.174;stroke-miterlimit:3.8637;"
              x1="10.7" y1="38.3" x2="10.7" y2="77.8"/>
        <line style="clip-path:url(#SVGID_00000074443704451472926130000011633472442457770909_);fill-rule:evenodd;clip-rule:evenodd;fill:none;stroke:#211915;stroke-width:0.174;stroke-miterlimit:3.8637;"
              x1="11.5" y1="38.3" x2="11.5" y2="77.8"/>
        <use xlink:href="#SVGID_00000114754443612067143900000000212115898389499574_"
             style="overflow:visible;fill-rule:evenodd;clip-rule:evenodd;fill:none;stroke:#211915;stroke-width:0.174;stroke-miterlimit:3.8637;"/>
        <path class="st22" d="M20.2,53.3c-1.6-0.7-4.3-1.2-7.5-1.3c-1.1,0-2.3,0.1-3.5,0.3c-4.4,0.8-7.8,2.6-7.5,4.1c0,0,0,0.1,0,0.1
				c0,0-1.7-3.9-1.7-4c-0.3-1.7,3.4-3.7,8.3-4.5c1.5-0.3,3-0.4,4.3-0.4c3.1,0,5.8,0.4,7.5,1L20.2,53.3z"/>
        <path class="st22" d="M5.4,58c-2-0.2-3.4-0.7-3.6-1.6c-0.1-0.7,0.6-1.5,1.8-2.2c0.6,0.1,1.2,0.1,1.8,0.1L5.4,58z"/>
        <path class="st22" d="M12.7,55.1c1.3,0.2,2.2,0.5,2.7,0.9l0,0.1c0.2,0.5-0.9,1.5-2.8,2.7L12.7,55.1z"/>
        <path class="st22" d="M0.8,65.2c-0.2-0.6,1.8-1.8,4.6-2.9c1.3-0.5,2.3-1,3.7-1.6c3.9-1.8,6.8-3.9,6.4-4.6l0-0.1
				c0.2,0.2,0.5,3.9,0.5,3.9c0.4,0.7-2.3,2.7-5.9,4.5c-1.2,0.6-3.6,1.5-4.7,1.9c-2.1,0.7-4.1,2.1-3.9,2.7L0.8,65.2z"/>
        <path class="st5" d="M4.8,51.5C5.7,51.1,6.3,50.7,6,50c-0.2-0.5-0.6-0.6-1.3-0.3l-1.2,0.5L4.5,53c0.1-0.1,0.2-0.1,0.4-0.2
					c0.1,0,0.3-0.1,0.4-0.1L4.8,51.5z M4.3,50.1L4.6,50c0.3-0.1,0.6,0,0.7,0.4c0.1,0.3,0.1,0.5-0.2,0.7c-0.1,0.1-0.2,0.1-0.3,0.2
					L4.3,50.1z"/>
        <path class="st5" d="M7.7,48.9c-0.1,0-0.3,0.1-0.4,0.1c-0.1,0-0.3,0-0.4,0.1l0.6,3l2-0.4c0-0.1-0.1-0.1-0.1-0.2
					c0-0.1,0-0.1,0-0.2c-0.3,0.1-0.7,0.2-1.2,0.3L7.7,48.9z"/>
        <path class="st5" d="M11.6,51.5c0.4-1.1,0.8-2.1,1.3-3.1c-0.1,0-0.2,0-0.2,0c-0.1,0-0.2,0-0.2,0c-0.2,0.8-0.5,1.5-0.8,2.3
					c-0.4-0.7-0.8-1.4-1.1-2.1c-0.2,0-0.3,0-0.5,0.1c-0.2,0-0.3,0-0.5,0c0.6,1,1.1,1.9,1.6,2.9c0.1,0,0.1,0,0.2,0
					C11.5,51.4,11.6,51.5,11.6,51.5z"/>
        <path class="st5" d="M15.8,49.2c0.1-0.1,0.1-0.3,0.2-0.4c-0.1-0.1-0.4-0.3-0.8-0.3c-0.8-0.1-1.3,0.3-1.3,0.8
					c-0.1,1.1,1.5,1,1.4,1.7c0,0.3-0.3,0.4-0.7,0.4c-0.4,0-0.6-0.2-0.7-0.6l-0.1,0c-0.1,0.2-0.1,0.4-0.2,0.5
					c0.2,0.2,0.5,0.2,0.8,0.3c0.8,0.1,1.5-0.3,1.5-0.8c0.1-1-1.5-1.1-1.5-1.7c0-0.3,0.2-0.4,0.6-0.4C15.4,48.8,15.6,48.9,15.8,49.2
					L15.8,49.2z"/>
        <path class="st24" d="M76.6,30.6c0,0-0.3,0.4-0.6,0.4c-0.2,0.1-0.5-0.2-0.5-0.2s-0.2,0.2-0.5,0.3c-0.3,0.1-0.6-0.3-0.6-0.3
					s-0.3,0.4-0.5,0.5c-0.2,0.1-0.5-0.1-0.5-0.1s-0.1,0.2-0.3,0.3c-0.1,0-0.2,0-0.2,0l-0.3-0.2l-0.3-0.3L72,30.8
					c0,0-0.1-0.4-0.1-0.5c0-0.1,0-0.3,0-0.3c-0.1-0.3,0.4-0.7,1-0.8c0.4-0.1,0.7-0.1,0.9,0c0.3-0.2,0.8-0.4,1.4-0.4
					c0.6,0,1.1,0.1,1.4,0.3c0.3-0.2,0.8-0.3,1.4-0.3c0.6,0,1.2,0.2,1.4,0.4c0.2-0.1,0.6-0.1,0.9,0c0.6,0.2,1.1,0.5,1,0.8
					c0,0,0,0.2,0,0.3c0,0.1-0.1,0.5-0.1,0.5l-0.3,0.1l-0.3,0.3l-0.3,0.2c0,0-0.1,0.1-0.2,0c-0.2-0.1-0.3-0.3-0.3-0.3
					s-0.3,0.2-0.5,0.1c-0.2-0.1-0.5-0.5-0.5-0.5s-0.4,0.4-0.6,0.3c-0.3-0.1-0.5-0.3-0.5-0.3s-0.3,0.3-0.5,0.2
					C76.9,31,76.6,30.6,76.6,30.6z"/>
        <path class="st4" d="M75.9,28.6c0-0.5,0.3-0.9,0.6-0.9c0.3,0,0.6,0.4,0.6,0.9c0,0.5-0.3,0.9-0.6,0.9
					C76.2,29.6,75.9,29.1,75.9,28.6z"/>
        <path class="st4" d="M76.3,28.6c0-0.5,0.1-0.9,0.3-0.9c0.2,0,0.3,0.4,0.3,0.9c0,0.5-0.1,0.9-0.3,0.9
					C76.4,29.5,76.3,29.1,76.3,28.6z"/>
        <path class="st4" d="M73.4,32.4c-0.1-0.3-0.3-0.5-0.3-0.5c0.9-0.3,2.1-0.4,3.5-0.4c1.4,0,2.6,0.2,3.5,0.4c0,0-0.1,0.2-0.2,0.4
					c-0.1,0.1-0.2,0.4-0.2,0.4c-0.8-0.3-1.8-0.4-3.1-0.4c-1.3,0-2.5,0.2-3.1,0.4C73.5,32.7,73.4,32.6,73.4,32.4L73.4,32.4z"/>
        <path class="st4" d="M76.6,33.6c1.1,0,2.3-0.2,2.8-0.3c0.3-0.1,0.5-0.2,0.4-0.4c0-0.1-0.1-0.1-0.2-0.2c-0.7-0.2-1.8-0.4-3-0.4
					c-1.2,0-2.4,0.2-3,0.4c-0.1,0-0.2,0.1-0.2,0.2c0,0.2,0.1,0.3,0.4,0.4C74.3,33.4,75.5,33.6,76.6,33.6z"/>
        <path class="st25" d="M79.2,29c0-0.1,0.1-0.2,0.2-0.2c0.1,0,0.2,0.1,0.2,0.2c0,0.1-0.1,0.2-0.2,0.2
						C79.3,29.2,79.2,29.2,79.2,29z"/>
        <path class="st26" d="M79.1,28.3c0-0.1,0.1-0.2,0.2-0.2c0.1,0,0.2,0.1,0.2,0.2c0,0.1-0.1,0.2-0.2,0.2
						C79.2,28.5,79.1,28.5,79.1,28.3z"/>
        <path class="st26" d="M78.6,27.9c0-0.1,0.1-0.2,0.2-0.2c0.1,0,0.2,0.1,0.2,0.2c0,0.1-0.1,0.2-0.2,0.2
						C78.7,28.1,78.6,28,78.6,27.9z"/>
        <path class="st26" d="M78,27.7c0-0.1,0.1-0.2,0.2-0.2c0.1,0,0.2,0.1,0.2,0.2c0,0.1-0.1,0.2-0.2,0.2C78.1,27.9,78,27.8,78,27.7z
"/>
        <path class="st26"
              d="M77.3,27.7c0-0.1,0.1-0.2,0.2-0.2c0.1,0,0.2,0.1,0.2,0.2s-0.1,0.2-0.2,0.2C77.4,27.9,77.3,27.8,77.3,27.7z"/>
        <path class="st27" d="M81.3,30.4c0.1-0.2,0.1-0.3,0.1-0.5c0-0.7-0.6-1.4-1.3-1.4c-0.2,0-0.4,0.1-0.6,0.2"/>
        <path class="st8" d="M79,29.5c0.1-0.1,0.1-0.3,0.1-0.4c0-0.5-0.5-1-1.2-1c-0.3,0-0.5,0.1-0.7,0.2"/>
        <path class="st26" d="M81.4,29.8c0-0.1,0.1-0.2,0.2-0.2c0.1,0,0.2,0.1,0.2,0.2c0,0.1-0.1,0.2-0.2,0.2
						C81.5,30,81.4,29.9,81.4,29.8z"/>
        <path class="st26" d="M81.4,29.1c0-0.1,0.1-0.2,0.2-0.2c0.1,0,0.2,0.1,0.2,0.2c0,0.1-0.1,0.2-0.2,0.2
						C81.5,29.3,81.4,29.2,81.4,29.1z"/>
        <path class="st26" d="M80.9,28.5c0-0.1,0.1-0.2,0.2-0.2c0.1,0,0.2,0.1,0.2,0.2c0,0.1-0.1,0.2-0.2,0.2
						C81,28.7,80.9,28.6,80.9,28.5z"/>
        <path class="st26" d="M80.3,28.2c0-0.1,0.1-0.2,0.2-0.2c0.1,0,0.2,0.1,0.2,0.2c0,0.1-0.1,0.2-0.2,0.2
						C80.4,28.4,80.3,28.3,80.3,28.2z"/>
        <path class="st26" d="M79.6,28.2c0-0.1,0.1-0.2,0.2-0.2c0.1,0,0.2,0.1,0.2,0.2c0,0.1-0.1,0.2-0.2,0.2
						C79.7,28.4,79.6,28.3,79.6,28.2z"/>
        <path class="st4" d="M80.1,31.4l-0.3-0.3c0,0-0.3,0.2-0.6,0.1c-0.3-0.1-0.4-0.5-0.4-0.5s-0.4,0.3-0.7,0.3
					c-0.3,0-0.5-0.3-0.5-0.3s-0.3,0.2-0.6,0.2c-0.3,0-0.6-0.4-0.6-0.4S76.3,31,76,31c-0.3,0-0.5-0.3-0.5-0.3s-0.1,0.3-0.5,0.3
					c-0.4,0.1-0.7-0.3-0.7-0.3s-0.2,0.3-0.4,0.4c-0.2,0.1-0.6-0.1-0.6-0.1s-0.1,0.1-0.1,0.2c0,0.1-0.1,0.1-0.1,0.1l0.1,0.2
					c0.9-0.3,2.1-0.4,3.4-0.4c1.3,0,2.6,0.2,3.4,0.4L80.1,31.4z"/>
        <path class="st25" d="M73.5,29c0-0.1,0.1-0.2,0.2-0.2c0.1,0,0.2,0.1,0.2,0.2c0,0.1-0.1,0.2-0.2,0.2
						C73.6,29.2,73.5,29.2,73.5,29z"/>
        <path class="st26" d="M73.6,28.3c0-0.1,0.1-0.2,0.2-0.2c0.1,0,0.2,0.1,0.2,0.2c0,0.1-0.1,0.2-0.2,0.2
						C73.7,28.5,73.6,28.5,73.6,28.3z"/>
        <path class="st26" d="M74.1,27.9c0-0.1,0.1-0.2,0.2-0.2c0.1,0,0.2,0.1,0.2,0.2c0,0.1-0.1,0.2-0.2,0.2
						C74.2,28.1,74.1,28,74.1,27.9z"/>
        <path class="st26" d="M74.7,27.7c0-0.1,0.1-0.2,0.2-0.2c0.1,0,0.2,0.1,0.2,0.2c0,0.1-0.1,0.2-0.2,0.2
						C74.8,27.9,74.7,27.8,74.7,27.7z"/>
        <path class="st26"
              d="M75.4,27.7c0-0.1,0.1-0.2,0.2-0.2c0.1,0,0.2,0.1,0.2,0.2s-0.1,0.2-0.2,0.2C75.5,27.9,75.4,27.8,75.4,27.7z"/>
        <path class="st27" d="M71.9,30.4c-0.1-0.2-0.1-0.3-0.1-0.5c0-0.7,0.6-1.4,1.3-1.4c0.2,0,0.4,0.1,0.6,0.2"/>
        <path class="st8" d="M74.1,29.4c-0.1-0.1-0.1-0.3-0.1-0.4c0-0.5,0.5-1,1.2-1c0.3,0,0.5,0.1,0.7,0.2"/>
        <path class="st26" d="M71.3,29.8c0-0.1,0.1-0.2,0.2-0.2c0.1,0,0.2,0.1,0.2,0.2c0,0.1-0.1,0.2-0.2,0.2
						C71.4,30,71.3,29.9,71.3,29.8z"/>
        <path class="st26" d="M71.3,29.1c0-0.1,0.1-0.2,0.2-0.2c0.1,0,0.2,0.1,0.2,0.2c0,0.1-0.1,0.2-0.2,0.2
						C71.4,29.3,71.3,29.2,71.3,29.1z"/>
        <path class="st26" d="M71.8,28.5c0-0.1,0.1-0.2,0.2-0.2c0.1,0,0.2,0.1,0.2,0.2c0,0.1-0.1,0.2-0.2,0.2
						C71.9,28.7,71.8,28.6,71.8,28.5z"/>
        <path class="st26" d="M72.4,28.2c0-0.1,0.1-0.2,0.2-0.2c0.1,0,0.2,0.1,0.2,0.2c0,0.1-0.1,0.2-0.2,0.2
						C72.5,28.4,72.4,28.3,72.4,28.2z"/>
        <path class="st26" d="M73.1,28.2c0-0.1,0.1-0.2,0.2-0.2c0.1,0,0.2,0.1,0.2,0.2c0,0.1-0.1,0.2-0.2,0.2
						C73.2,28.4,73.1,28.3,73.1,28.2z"/>
        <path class="st4" d="M76.6,30.2l0.1,0c0,0.1,0,0.1,0,0.2c0,0.3,0.2,0.5,0.5,0.5c0.2,0,0.4-0.1,0.5-0.3c0,0,0-0.2,0.1-0.2
					c0,0,0,0.2,0,0.2c0,0.2,0.3,0.4,0.5,0.4c0.3,0,0.5-0.2,0.5-0.5c0,0,0,0,0-0.1l0.2-0.2l0.1,0.2c0,0.1,0,0.1,0,0.2
					c0,0.3,0.2,0.5,0.5,0.5c0.2,0,0.3-0.1,0.4-0.2l0.1-0.1l0,0.2c0,0.2,0.1,0.3,0.2,0.3c0,0,0.2,0,0.4-0.2c0.2-0.2,0.4-0.4,0.4-0.4
					l0,0.2c0,0-0.2,0.4-0.4,0.5c-0.1,0.1-0.3,0.1-0.4,0.1c-0.1,0-0.3-0.1-0.3-0.3c-0.1,0.1-0.2,0.1-0.4,0.1c-0.3,0-0.5-0.2-0.6-0.4
					c-0.1,0.1-0.3,0.2-0.5,0.2c-0.2,0-0.4-0.1-0.6-0.3c-0.1,0.1-0.3,0.2-0.5,0.2c-0.3,0-0.5-0.1-0.6-0.3c-0.1,0.2-0.4,0.3-0.6,0.3
					c-0.2,0-0.4-0.1-0.5-0.2c-0.1,0.2-0.3,0.3-0.6,0.3c-0.2,0-0.4-0.1-0.5-0.2c-0.1,0.2-0.4,0.4-0.6,0.4c-0.1,0-0.3,0-0.4-0.1
					c-0.1,0.1-0.2,0.3-0.3,0.3c-0.1,0-0.3,0-0.4-0.1c-0.2-0.1-0.5-0.5-0.5-0.5l0-0.2c0,0,0.1,0.2,0.4,0.4c0.2,0.2,0.4,0.2,0.4,0.2
					c0.2,0,0.2-0.2,0.2-0.3l0-0.2l0.1,0.1c0.1,0.1,0.2,0.2,0.4,0.2c0.3,0,0.5-0.2,0.5-0.5c0-0.1,0-0.2,0-0.2l0.1-0.2l0.2,0.2
					c0,0,0,0,0,0.1c0,0.3,0.2,0.5,0.5,0.5c0.2,0,0.5-0.2,0.5-0.4c0,0,0-0.2,0-0.2c0,0,0.1,0.2,0.1,0.2c0.1,0.2,0.3,0.3,0.5,0.3
					c0.3,0,0.5-0.2,0.5-0.5c0-0.1,0-0.1,0-0.2L76.6,30.2z"/>
        <path class="st4" d="M76.6,31.5c-1.4,0-2.6,0.2-3.5,0.4c-0.1,0-0.1,0-0.2-0.1c0-0.1,0-0.1,0.1-0.1c0.9-0.3,2.1-0.5,3.5-0.5
					c1.4,0,2.7,0.2,3.5,0.5c0.1,0,0.1,0.1,0.1,0.1c0,0.1-0.1,0.1-0.2,0.1C79.2,31.6,77.9,31.5,76.6,31.5z"/>
        <path class="st9"
              d="M75.3,32c0-0.1,0.1-0.2,0.2-0.2c0.1,0,0.2,0.1,0.2,0.2c0,0.1-0.1,0.2-0.2,0.2C75.3,32.2,75.3,32.1,75.3,32z"/>
        <path class="st3" d="M76.6,32.1h-0.4c-0.1,0-0.1-0.1-0.1-0.1c0-0.1,0.1-0.1,0.1-0.1h0.4H77c0.1,0,0.1,0.1,0.1,0.1
					c0,0.1-0.1,0.1-0.1,0.1H76.6z"/>
        <path class="st10" d="M74.4,32.2l-0.3,0c-0.1,0-0.2,0-0.2-0.1c0-0.1,0-0.2,0.1-0.2l0.3,0l0.3-0.1c0.1,0,0.2,0,0.2,0.1
					c0,0.1,0,0.2-0.1,0.2L74.4,32.2z"/>
        <polygon class="st3" points="73.1,32.5 73.3,32.2 73.6,32.3 73.4,32.5"/>
        <path class="st9"
              d="M77.5,32c0-0.1,0.1-0.2,0.2-0.2c0.1,0,0.2,0.1,0.2,0.2c0,0.1-0.1,0.2-0.2,0.2C77.6,32.2,77.5,32.1,77.5,32z"/>
        <path class="st10" d="M78.8,32.2l0.3,0c0.1,0,0.2,0,0.2-0.1c0-0.1,0-0.2-0.1-0.2l-0.3,0l-0.3-0.1c-0.1,0-0.2,0-0.2,0.1
					c0,0.1,0,0.2,0.1,0.2L78.8,32.2z"/>
        <polygon class="st3" points="80,32.5 79.9,32.2 79.6,32.2 79.7,32.5"/>
        <defs>
            <path id="SVGID_00000106838392627146420910000011224801690232036481_" d="M76.6,33.3c-1.1,0-2.1-0.1-2.9-0.3
							c0.8-0.2,1.8-0.3,2.9-0.3c1.1,0,2.1,0.1,2.9,0.3C78.7,33.2,77.7,33.3,76.6,33.3z"/>
        </defs>
        <use xlink:href="#SVGID_00000106838392627146420910000011224801690232036481_"
             style="overflow:visible;fill-rule:evenodd;clip-rule:evenodd;fill:#B60027;"/>
        <clipPath id="SVGID_00000173861233283046594710000011379866276964168605_">
            <use xlink:href="#SVGID_00000106838392627146420910000011224801690232036481_" style="overflow:visible;"/>
        </clipPath>
        <g style="clip-path:url(#SVGID_00000173861233283046594710000011379866276964168605_);">
            <line class="st8" x1="77.5" y1="32.1" x2="77.5" y2="33.9"/>
            <line class="st12" x1="77" y1="32.1" x2="77" y2="33.9"/>
            <line class="st13" x1="76.6" y1="32.1" x2="76.6" y2="33.9"/>
            <line class="st13" x1="76.3" y1="32.1" x2="76.3" y2="33.9"/>
            <line class="st13" x1="75.9" y1="32.1" x2="75.9" y2="33.9"/>
            <line class="st13" x1="75.6" y1="32.1" x2="75.6" y2="33.9"/>
            <line class="st14" x1="75.3" y1="32.1" x2="75.3" y2="33.9"/>
            <line class="st15" x1="75" y1="32.1" x2="75" y2="33.9"/>
            <line class="st15" x1="74.8" y1="32.1" x2="74.8" y2="33.9"/>
            <line class="st16" x1="74.5" y1="32.1" x2="74.5" y2="33.9"/>
            <line class="st17" x1="74.1" y1="32.1" x2="74.1" y2="33.9"/>
        </g>
        <use xlink:href="#SVGID_00000106838392627146420910000011224801690232036481_"
             style="overflow:visible;fill-rule:evenodd;clip-rule:evenodd;fill:none;stroke:#211915;stroke-width:0.116;stroke-miterlimit:3.8637;"/>
        <path class="st4"
              d="M80,30.8c0-0.1,0-0.2-0.1-0.2c-0.1,0-0.1,0-0.2,0.1c0,0.1,0,0.2,0.1,0.2C79.9,31,80,30.9,80,30.8z"/>
        <path class="st4"
              d="M77.9,30.4c0-0.1,0-0.2-0.1-0.2c-0.1,0-0.1,0.1-0.1,0.2c0,0.1,0,0.2,0.1,0.2C77.8,30.6,77.8,30.5,77.9,30.4z"/>
        <path class="st4"
              d="M75.3,30.4c0-0.1,0-0.2,0.1-0.2c0.1,0,0.1,0.1,0.1,0.2c0,0.1,0,0.2-0.1,0.2C75.4,30.6,75.3,30.5,75.3,30.4z"/>
        <path class="st4"
              d="M73.1,30.8c0-0.1,0-0.2,0.1-0.2c0.1,0,0.1,0,0.2,0.1c0,0.1,0,0.2-0.1,0.2C73.2,31,73.1,30.9,73.1,30.8z"/>
        <polygon class="st4" points="76.6,29.1 76.2,29.3 76.5,30 76.6,30 76.7,30 77,29.3"/>
        <polygon class="st4" points="75.7,30.1 75.9,30.3 76.5,30.1 76.6,30.1 76.5,30 75.9,29.8"/>
        <polygon class="st4" points="77.4,30.1 77.3,30.3 76.6,30.1 76.6,30.1 76.6,30 77.3,29.8"/>
        <polygon class="st4" points="74,29.4 73.7,29.7 74.1,30.2 74.2,30.3 74.3,30.2 74.4,29.5"/>
        <polygon class="st4" points="73.4,30.4 73.6,30.7 74.2,30.4 74.2,30.3 74.2,30.2 73.5,30.1"/>
        <polygon class="st4" points="75.1,30.1 75,30.4 74.3,30.3 74.2,30.3 74.3,30.2 74.8,29.8"/>
        <polygon class="st4" points="72.8,30.5 72.7,30.8 72.1,30.9 72,30.9 72,30.7 72.5,30.3"/>
        <path class="st4"
              d="M74,30.3c0-0.1,0.1-0.2,0.2-0.2c0.1,0,0.2,0.1,0.2,0.2c0,0.1-0.1,0.2-0.2,0.2C74.1,30.5,74,30.4,74,30.3z"
        />
        <polygon class="st4" points="79.1,29.4 79.4,29.7 79,30.2 78.9,30.3 78.8,30.2 78.7,29.5"/>
        <polygon class="st4" points="79.7,30.4 79.5,30.7 79,30.4 78.9,30.3 79,30.2 79.6,30.1"/>
        <polygon class="st4" points="78.1,30.1 78.2,30.4 78.8,30.3 78.9,30.3 78.9,30.2 78.3,29.8"/>
        <polygon class="st4" points="80.3,30.5 80.3,30.8 81,30.9 81.1,30.9 81,30.7 80.6,30.3"/>
        <path class="st4" d="M76.4,30.1c0-0.1,0.1-0.2,0.2-0.2c0.1,0,0.2,0.1,0.2,0.2c0,0.1-0.1,0.2-0.2,0.2
					C76.5,30.3,76.4,30.2,76.4,30.1z"/>
        <path class="st4"
              d="M78.7,30.3c0-0.1,0.1-0.2,0.2-0.2s0.2,0.1,0.2,0.2c0,0.1-0.1,0.2-0.2,0.2S78.7,30.4,78.7,30.3z"/>
        <path class="st5" d="M76.2,27.6c0-0.2,0.2-0.4,0.4-0.4c0.2,0,0.4,0.2,0.4,0.4c0,0.2-0.2,0.4-0.4,0.4
						C76.3,28,76.2,27.8,76.2,27.6z"/>
        <polygon class="st6" points="76.9,27.4 76.9,27.7 76.2,27.7 76.2,27.4 76.4,27.4 76.4,26.8 76.2,26.8 76.2,26.5 76.4,26.5
						76.4,26.3 76.7,26.3 76.7,26.5 77,26.5 77,26.8 76.7,26.8 76.7,27.4"/>
        <defs>
            <path id="SVGID_00000130637457311408748130000011116046927213712826_" d="M76.2,27.6c0-0.2,0.2-0.4,0.4-0.4
								c0.2,0,0.4,0.2,0.4,0.4c0,0.2-0.2,0.4-0.4,0.4C76.3,28,76.2,27.8,76.2,27.6z"/>
        </defs>
        <clipPath id="SVGID_00000010283850920157116030000008561370167003766456_">
            <use xlink:href="#SVGID_00000130637457311408748130000011116046927213712826_" style="overflow:visible;"/>
        </clipPath>
        <polygon
                style="clip-path:url(#SVGID_00000010283850920157116030000008561370167003766456_);fill-rule:evenodd;clip-rule:evenodd;fill:#A07E00;stroke:#211915;stroke-width:0.1328;stroke-miterlimit:3.8637;"
                points="
							77.2,27.4 77.2,27.7 76,27.7 76,27.4 76.4,27.4 76.4,26.8 76.2,26.8 76.2,26.5 76.4,26.5 76.4,26.3 76.7,26.3 76.7,26.5
							77,26.5 77,26.8 76.7,26.8 76.7,27.4"/>
        <path class="st1" d="M76.2,27.6c0-0.2,0.2-0.4,0.4-0.4c0.2,0,0.4,0.2,0.4,0.4c0,0.2-0.2,0.4-0.4,0.4
						C76.3,28,76.2,27.8,76.2,27.6z"/>
        <path class="st1" d="M76.2,27.6c0-0.2,0.2-0.4,0.4-0.4c0.2,0,0.4,0.2,0.4,0.4c0,0.2-0.2,0.4-0.4,0.4
						C76.3,28,76.2,27.8,76.2,27.6z"/>
        <path class="st8"
              d="M76.7,27.2c0.2,0.1,0.3,0.2,0.3,0.4c0,0.2-0.2,0.4-0.4,0.4c-0.2,0-0.4-0.2-0.4-0.4c0-0.2,0.1-0.4,0.3-0.4"
        />
        <path class="st18" d="M71.9,30.9c0,0-0.2-0.2-0.3-0.3c-0.1-0.1-0.3-0.2-0.3-0.2c0,0,0.1-0.1,0.3-0.1c0.1,0,0.2,0,0.2,0.1l0-0.1
					c0,0,0.1,0,0.2,0.2c0.1,0.1,0,0.3,0,0.3S72,30.8,71.9,30.9z"/>
        <path class="st4" d="M71.9,30.8c0.1-0.1,0.2,0,0.2,0c0.1,0.1,0.1,0.2,0.1,0.2c-0.1,0.1-0.2,0-0.2,0
					C71.9,30.9,71.9,30.8,71.9,30.8z"/>
        <path class="st18" d="M81.1,30.9c0,0,0.2-0.2,0.3-0.3c0.1-0.1,0.3-0.2,0.3-0.2c0,0-0.1-0.1-0.3-0.1c-0.1,0-0.2,0-0.2,0.1l0-0.1
					c0,0-0.1,0-0.2,0.2c-0.1,0.1,0,0.3,0,0.3S81.1,30.8,81.1,30.9z"/>
        <path class="st4" d="M81.1,30.8c-0.1-0.1-0.2,0-0.2,0c-0.1,0.1-0.1,0.2-0.1,0.2c0.1,0.1,0.2,0,0.2,0
					C81.2,30.9,81.2,30.8,81.1,30.8z"/>
        <rect x="71.5" y="33.5" class="st19" width="10.1" height="2.8"/>
        <path class="st19" d="M80.6,38.1c-0.1,0-0.1,0-0.2,0h-7.6c-0.1,0-0.1,0-0.2,0c0.3-0.1,0.4-0.3,0.4-0.6c0-0.3-0.2-0.5-0.5-0.6
					c0.1,0,0.1,0,0.2,0h7.6c0.1,0,0.1,0,0.2,0l0,0c-0.3,0.1-0.4,0.3-0.4,0.6C80.1,37.7,80.3,38,80.6,38.1z"/>
        <path class="st19" d="M72.8,38.1h7.6c0.3,0,0.5,0.2,0.5,0.4l0,0c0,0.2-0.2,0.4-0.5,0.4h-7.6c-0.3,0-0.5-0.2-0.5-0.4l0,0
					C72.4,38.2,72.6,38.1,72.8,38.1z"/>
        <path class="st19" d="M72.8,36.3h7.6c0.3,0,0.5,0.1,0.5,0.3l0,0c0,0.2-0.2,0.3-0.5,0.3h-7.6c-0.3,0-0.5-0.1-0.5-0.3l0,0
					C72.4,36.4,72.6,36.3,72.8,36.3z"/>
        <path class="st20" d="M69.5,82.6c0.7,0,1.3-0.2,1.8-0.4c0.5-0.2,1.1-0.4,1.8-0.4c0.7,0,1.3,0.1,1.8,0.4c0.5,0.2,1.1,0.4,1.8,0.4
					c0.7,0,1.3-0.2,1.8-0.4c0.5-0.2,1.1-0.4,1.7-0.4c0.7,0,1.3,0.1,1.7,0.4c0.5,0.3,1.1,0.4,1.8,0.4v1.1c-0.7,0-1.3-0.2-1.8-0.4
					c-0.5-0.2-1.1-0.4-1.7-0.4c-0.7,0-1.3,0.1-1.7,0.4c-0.5,0.3-1.1,0.4-1.8,0.4c-0.7,0-1.3-0.2-1.8-0.4c-0.5-0.2-1.1-0.4-1.8-0.4
					c-0.7,0-1.3,0.1-1.8,0.4c-0.5,0.3-1.1,0.4-1.8,0.4L69.5,82.6z"/>
        <path class="st21" d="M69.5,83.7c0.7,0,1.3-0.2,1.8-0.4c0.5-0.2,1.1-0.4,1.8-0.4c0.7,0,1.3,0.1,1.8,0.4c0.5,0.2,1.1,0.4,1.8,0.4
					c0.7,0,1.3-0.2,1.8-0.4c0.5-0.2,1.1-0.4,1.7-0.4c0.7,0,1.3,0.1,1.7,0.4c0.5,0.3,1.1,0.4,1.8,0.4v1.1c-0.7,0-1.3-0.2-1.8-0.4
					c-0.5-0.2-1.1-0.4-1.7-0.4c-0.7,0-1.3,0.1-1.7,0.4c-0.5,0.3-1.1,0.4-1.8,0.4c-0.7,0-1.3-0.2-1.8-0.4c-0.5-0.2-1.1-0.4-1.8-0.4
					c-0.7,0-1.3,0.1-1.8,0.4c-0.5,0.3-1.1,0.4-1.8,0.4L69.5,83.7z"/>
        <path class="st20" d="M69.5,84.8c0.7,0,1.3-0.2,1.8-0.4c0.5-0.2,1.1-0.4,1.8-0.4c0.7,0,1.3,0.1,1.8,0.4c0.5,0.2,1.1,0.4,1.8,0.4
					c0.7,0,1.3-0.2,1.8-0.4c0.5-0.2,1.1-0.4,1.7-0.4c0.7,0,1.3,0.1,1.7,0.4c0.5,0.3,1.1,0.4,1.8,0.4V86c-0.7,0-1.3-0.2-1.8-0.4
					c-0.5-0.2-1.1-0.4-1.7-0.4c-0.7,0-1.3,0.1-1.7,0.4c-0.5,0.3-1.1,0.4-1.8,0.4c-0.7,0-1.3-0.2-1.8-0.4c-0.5-0.2-1.1-0.4-1.8-0.4
					c-0.7,0-1.3,0.1-1.8,0.4c-0.5,0.3-1.1,0.4-1.8,0.4L69.5,84.8z"/>
        <path class="st21" d="M69.5,87.1c0.7,0,1.3-0.2,1.8-0.4c0.5-0.2,1.1-0.4,1.8-0.4c0.7,0,1.3,0.1,1.8,0.4c0.5,0.2,1.1,0.4,1.8,0.4
					c0.7,0,1.3-0.2,1.8-0.4c0.5-0.2,1.1-0.4,1.7-0.4c0.7,0,1.3,0.1,1.7,0.4c0.5,0.3,1.1,0.4,1.8,0.4V86c-0.7,0-1.3-0.2-1.8-0.4
					c-0.5-0.2-1.1-0.4-1.7-0.4c-0.7,0-1.3,0.1-1.7,0.4c-0.5,0.3-1.1,0.4-1.8,0.4c-0.7,0-1.3-0.2-1.8-0.4c-0.5-0.2-1.1-0.4-1.8-0.4
					c-0.7,0-1.3,0.1-1.8,0.4c-0.5,0.3-1.1,0.4-1.8,0.4L69.5,87.1z"/>
        <path class="st20" d="M69.5,88.2c0.7,0,1.3-0.2,1.8-0.4c0.5-0.2,1.1-0.4,1.8-0.4c0.7,0,1.3,0.1,1.8,0.4c0.5,0.2,1.1,0.4,1.8,0.4
					c0.7,0,1.3-0.2,1.8-0.4c0.5-0.2,1.1-0.4,1.7-0.4c0.7,0,1.3,0.1,1.7,0.4c0.5,0.3,1.1,0.4,1.8,0.4v-1.1c-0.7,0-1.3-0.2-1.8-0.4
					c-0.5-0.2-1.1-0.4-1.7-0.4c-0.7,0-1.3,0.1-1.7,0.4c-0.5,0.3-1.1,0.4-1.8,0.4c-0.7,0-1.3-0.2-1.8-0.4c-0.5-0.2-1.1-0.4-1.8-0.4
					c-0.7,0-1.3,0.1-1.8,0.4c-0.5,0.3-1.1,0.4-1.8,0.4L69.5,88.2z"/>
        <path class="st19" d="M80.6,77.9c0,0.1-0.1,0.2-0.1,0.3c0,0.7,0.6,1.2,1.3,1.2H71.4c0.7,0,1.3-0.6,1.3-1.2c0-0.1,0-0.2,0-0.3
					c0.1,0,0.1,0,0.2,0h7.6C80.4,77.9,80.5,77.9,80.6,77.9z"/>
        <path class="st19" d="M72.8,77.2h7.6c0.3,0,0.5,0.2,0.5,0.4l0,0c0,0.2-0.2,0.4-0.5,0.4h-7.6c-0.3,0-0.5-0.2-0.5-0.4l0,0
					C72.4,77.4,72.6,77.2,72.8,77.2z"/>
        <rect x="71.4" y="79.4" class="st19" width="10.4" height="2.7"/>
        <path class="st22" d="M82.6,67.5c1,0.6,1.7,1.2,1.6,1.6c-0.1,0.3-0.4,0.5-0.8,0.8c-0.7,0.5-1.2,1.5-0.8,1.9c-0.6-0.5-1-1.3-1-2.1
				C81.5,68.8,81.9,68,82.6,67.5z"/>
        <defs>
            <rect id="SVGID_00000143608539369754340080000002001845132628344216_" x="72.9" y="39.2" width="7.4"
                  height="37.5"/>
        </defs>
        <use xlink:href="#SVGID_00000143608539369754340080000002001845132628344216_"
             style="overflow:visible;fill-rule:evenodd;clip-rule:evenodd;fill:#BCBAB9;"/>
        <clipPath id="SVGID_00000103266207079535393420000007256556138990630276_">
            <use xlink:href="#SVGID_00000143608539369754340080000002001845132628344216_" style="overflow:visible;"/>
        </clipPath>
        <line style="clip-path:url(#SVGID_00000103266207079535393420000007256556138990630276_);fill-rule:evenodd;clip-rule:evenodd;fill:none;stroke:#211915;stroke-width:0.174;stroke-miterlimit:3.8637;"
              x1="78.3" y1="38.3" x2="78.3" y2="77.8"/>
        <line style="clip-path:url(#SVGID_00000103266207079535393420000007256556138990630276_);fill-rule:evenodd;clip-rule:evenodd;fill:none;stroke:#211915;stroke-width:0.174;stroke-miterlimit:3.8637;"
              x1="79.1" y1="38.3" x2="79.1" y2="77.8"/>
        <use xlink:href="#SVGID_00000143608539369754340080000002001845132628344216_"
             style="overflow:visible;fill-rule:evenodd;clip-rule:evenodd;fill:none;stroke:#211915;stroke-width:0.174;stroke-miterlimit:3.8637;"/>
        <path class="st22" d="M65.4,53.3c1.6-0.7,4.3-1.2,7.5-1.3c1.1,0,2.3,0.1,3.5,0.3c4.4,0.8,7.8,2.6,7.5,4.1c0,0,0,0.1,0,0.1
				c0,0,1.7-3.9,1.7-4c0.3-1.7-3.4-3.7-8.3-4.5c-1.5-0.3-3-0.4-4.3-0.4c-3.1,0-5.8,0.4-7.5,1L65.4,53.3z"/>
        <path class="st22"
              d="M80.3,58c2-0.2,3.4-0.7,3.6-1.6c0.1-0.7-0.6-1.5-1.8-2.2c-0.6,0.1-1.2,0.1-1.8,0.1L80.3,58z"/>
        <path class="st22" d="M72.9,55.1c-1.3,0.2-2.2,0.5-2.7,0.9l0,0.1c-0.2,0.5,0.9,1.5,2.8,2.7L72.9,55.1z"/>
        <path class="st22" d="M84.9,65.2c0.2-0.6-1.8-1.8-4.6-2.9c-1.3-0.5-2.3-1-3.7-1.6c-3.9-1.8-6.8-3.9-6.4-4.6l0-0.1
				c-0.2,0.2-0.5,3.9-0.5,3.9c-0.4,0.7,2.3,2.7,5.9,4.5c1.2,0.6,3.6,1.5,4.7,1.9c2.1,0.7,4.1,2.1,3.9,2.7L84.9,65.2z"/>
        <path class="st5" d="M70,51.7c0.3-1.1,0.6-2.2,1-3.2c-0.1,0-0.2,0-0.2,0.1c-0.1,0-0.2,0-0.2,0c-0.2,0.8-0.4,1.5-0.6,2.3
					c-0.4-0.7-0.9-1.3-1.3-2c-0.2,0-0.3,0.1-0.5,0.1c-0.2,0-0.3,0-0.5,0.1c0.7,0.9,1.3,1.8,1.9,2.8c0.1,0,0.1,0,0.2-0.1
					C69.8,51.7,69.9,51.7,70,51.7z"/>
        <path class="st5" d="M72.8,48.4c-0.1,0-0.3,0-0.4,0c-0.1,0-0.3,0-0.4,0l-0.1,3l2,0c0-0.1,0-0.1,0-0.2c0-0.1,0-0.1,0-0.2
					c-0.4,0-0.8,0-1.2,0L72.8,48.4z"/>
        <path class="st5" d="M76,48.9c0.3,0,0.6,0.1,0.9,0.1c0-0.1,0-0.1,0-0.2c0-0.1,0-0.1,0-0.2l-2.7-0.2c0,0.1,0,0.1,0,0.2
					c0,0.1,0,0.1,0,0.2c0.3,0,0.6,0,1,0l-0.2,2.7c0.1,0,0.3,0,0.4,0c0.1,0,0.3,0,0.4,0.1L76,48.9z"/>
        <path class="st5" d="M77.1,51.9c0.1,0,0.3,0,0.4,0.1c0.1,0,0.3,0.1,0.4,0.1l0.3-1.4l0,0c0.1,0.2,0.2,0.4,0.2,0.6l0.4,1
					c0.2,0,0.3,0,0.5,0.1c0.2,0,0.3,0.1,0.5,0.1l-0.1-0.3c-0.2-0.5-0.4-0.9-0.6-1.4c0.5,0,0.9-0.2,1-0.6c0.1-0.3,0-0.5-0.3-0.7
					c-0.2-0.1-0.6-0.2-0.8-0.3l-1.1-0.3L77.1,51.9z M78.5,49.4c0.3,0.1,0.7,0.1,0.7,0.5c0,0.1,0,0.2,0,0.2c-0.1,0.4-0.4,0.6-1,0.4
					L78.5,49.4z"/>
        <path class="st5" d="M82.3,52.8c0,0.3-0.1,0.6-0.1,1c0.1,0.1,0.3,0.1,0.4,0.2c0.1,0.1,0.3,0.2,0.4,0.2l0.3-3.4
					c-0.1,0-0.1-0.1-0.2-0.1c-0.1,0-0.1-0.1-0.2-0.1L80,52.6c0.1,0,0.2,0.1,0.2,0.1c0.1,0,0.1,0.1,0.2,0.1c0.2-0.2,0.5-0.4,0.8-0.6
					L82.3,52.8z M81.5,52l1-0.6l-0.1,1.1L81.5,52z"/>
        <path class="st31"
              d="M31.5,21.2c0-0.5,0.4-1,1-1c0.5,0,1,0.4,1,1c0,0.5-0.4,1-1,1C31.9,22.2,31.5,21.7,31.5,21.2z"/>
        <defs>
            <path id="SVGID_00000170251477526775912060000015530575122389056657_" d="M42.5,12.9c3,0,5.7,0.5,7.4,1.2c1,0.5,2.3,0.8,3.8,1
						c1.1,0.2,2.2,0.2,3.1,0.1c1.2,0,3,0.3,4.8,1.2c1.5,0.7,2.7,1.5,3.5,2.3l-0.7,0.7l-0.2,1.9l-1.9,2.3l-1,0.9l-2.3,1.9l-1.2,0.1
						l-0.4,1.1l-14.9-1.8l-14.9,1.8l-0.4-1.1l-1.2-0.1l-2.3-1.9l-1-0.9l-1.9-2.3l-0.2-1.9L20,18.7c0.8-0.8,2.1-1.6,3.5-2.3
						c1.8-0.8,3.6-1.2,4.8-1.2c0.9,0.1,2,0,3.1-0.1c1.5-0.2,2.8-0.5,3.8-1C37,13.3,39.5,12.9,42.5,12.9z"/>
        </defs>
        <use xlink:href="#SVGID_00000170251477526775912060000015530575122389056657_"
             style="overflow:visible;fill-rule:evenodd;clip-rule:evenodd;fill:#B60027;"/>
        <clipPath id="SVGID_00000015321499396255125000000009138298404333060998_">
            <use xlink:href="#SVGID_00000170251477526775912060000015530575122389056657_" style="overflow:visible;"/>
        </clipPath>
        <use xlink:href="#SVGID_00000170251477526775912060000015530575122389056657_"
             style="overflow:visible;fill-rule:evenodd;clip-rule:evenodd;fill:none;stroke:#211915;stroke-width:0.116;stroke-miterlimit:3.8637;"/>
        <path class="st19" d="M42.7,28.6c-5.6,0-10.7,0.7-14.2,1.9c0.3-0.1,0.3-0.5-0.1-1.5c-0.4-1.2-1.1-1.1-1.1-1.1
					c3.9-1.2,9.4-2,15.5-2c6.1,0,11.6,0.8,15.5,2c0,0-0.7-0.1-1.1,1.1c-0.4,1-0.4,1.4-0.1,1.5C53.5,29.3,48.3,28.6,42.7,28.6z"/>
        <path class="st19" d="M42.7,25.9c-6.1,0-11.5,0.8-15.5,2c-0.3,0.1-0.5,0-0.6-0.3c-0.1-0.3,0.1-0.6,0.3-0.6
					c3.9-1.3,9.5-2,15.8-2.1c6.2,0,11.9,0.8,15.8,2.1c0.3,0.1,0.4,0.4,0.3,0.6c-0.1,0.3-0.4,0.4-0.6,0.3
					C54.3,26.6,48.8,25.9,42.7,25.9z"/>
        <path class="st19" d="M42.8,33.3c-5.6,0-10.5-0.7-14.1-1.8c-0.3-0.1-0.4-0.3-0.4-0.6c0-0.2,0.1-0.5,0.4-0.6
						c3.5-1.1,8.5-1.8,14.1-1.8c5.6,0,10.5,0.7,14.1,1.8c0.3,0.1,0.4,0.3,0.4,0.6c0,0.3-0.1,0.5-0.4,0.6
						C53.3,32.6,48.3,33.3,42.8,33.3z"/>
        <defs>
            <path id="SVGID_00000088842160009994874160000012741051910199880862_" d="M42.7,32.6c-5,0-9.5-0.6-13-1.5
								c3.4-0.9,8-1.5,13-1.5c5,0,9.6,0.6,13,1.5C52.3,32,47.8,32.6,42.7,32.6z"/>
        </defs>
        <use xlink:href="#SVGID_00000088842160009994874160000012741051910199880862_"
             style="overflow:visible;fill-rule:evenodd;clip-rule:evenodd;fill:#B60027;"/>
        <clipPath id="SVGID_00000018943907612998906050000010825071736652888449_">
            <use xlink:href="#SVGID_00000088842160009994874160000012741051910199880862_" style="overflow:visible;"/>
        </clipPath>
        <g style="clip-path:url(#SVGID_00000018943907612998906050000010825071736652888449_);">
            <line class="st33" x1="42.8" y1="28.9" x2="42.8" y2="35.1"/>
            <line class="st34" x1="42" y1="28.9" x2="42" y2="35.1"/>
            <line class="st8" x1="41.3" y1="28.9" x2="41.3" y2="35.1"/>
            <line class="st12" x1="40.6" y1="28.9" x2="40.6" y2="35.1"/>
            <line class="st13" x1="39.9" y1="28.9" x2="39.9" y2="35.1"/>
            <line class="st14" x1="39.2" y1="28.9" x2="39.2" y2="35.1"/>
            <line class="st14" x1="38.6" y1="28.9" x2="38.6" y2="35.1"/>
            <line class="st35" x1="38.1" y1="28.8" x2="38.1" y2="35.1"/>
            <line class="st35" x1="37.5" y1="28.8" x2="37.5" y2="35.1"/>
            <line class="st36" x1="37" y1="28.8" x2="37" y2="35.1"/>
            <line class="st36" x1="36.5" y1="28.8" x2="36.5" y2="35.1"/>
            <line class="st36" x1="35.9" y1="28.8" x2="35.9" y2="35.1"/>
            <line class="st37" x1="35.4" y1="28.8" x2="35.4" y2="35.1"/>
            <line class="st38" x1="34.9" y1="28.8" x2="34.9" y2="35.1"/>
            <line class="st39" x1="34.4" y1="28.8" x2="34.4" y2="35.1"/>
            <line class="st40" x1="33.8" y1="28.8" x2="33.8" y2="35.1"/>
            <line class="st40" x1="33.2" y1="28.8" x2="33.2" y2="35.1"/>
            <line class="st41" x1="32.6" y1="28.8" x2="32.6" y2="35.1"/>
            <line class="st42" x1="32.1" y1="28.8" x2="32.1" y2="35"/>
            <line class="st43" x1="31.6" y1="28.8" x2="31.6" y2="35"/>
            <line class="st44" x1="31" y1="28.8" x2="31" y2="35"/>
            <line class="st45" x1="30.4" y1="28.8" x2="30.4" y2="35"/>
        </g>
        <line style="clip-path:url(#SVGID_00000018943907612998906050000010825071736652888449_);fill-rule:evenodd;clip-rule:evenodd;fill:none;stroke:#211915;stroke-width:3.598000e-02;stroke-miterlimit:3.8637;"
              x1="43.7" y1="28.9" x2="43.7" y2="35.1"/>
        <line style="clip-path:url(#SVGID_00000018943907612998906050000010825071736652888449_);fill-rule:evenodd;clip-rule:evenodd;fill:none;stroke:#211915;stroke-width:3.598000e-02;stroke-miterlimit:3.8637;"
              x1="44.6" y1="28.9" x2="44.6" y2="35.1"/>
        <line style="clip-path:url(#SVGID_00000018943907612998906050000010825071736652888449_);fill-rule:evenodd;clip-rule:evenodd;fill:none;stroke:#211915;stroke-width:3.598000e-02;stroke-miterlimit:3.8637;"
              x1="46" y1="28.9" x2="46" y2="35.1"/>
        <use xlink:href="#SVGID_00000088842160009994874160000012741051910199880862_"
             style="overflow:visible;fill-rule:evenodd;clip-rule:evenodd;fill:none;stroke:#211915;stroke-width:0.174;stroke-miterlimit:3.8637;"/>
        <path class="st47" d="M38.4,27.3c0-0.3,0.2-0.5,0.5-0.5c0.3,0,0.5,0.2,0.5,0.5c0,0.3-0.2,0.5-0.5,0.5
						C38.6,27.8,38.4,27.6,38.4,27.3z"/>
        <path class="st22" d="M42.8,27.7h-1.5c-0.3,0-0.5-0.2-0.5-0.5c0-0.3,0.2-0.5,0.5-0.5h1.5h1.5c0.3,0,0.5,0.2,0.5,0.5
						c0,0.3-0.2,0.5-0.5,0.5H42.8z"/>
        <path class="st48" d="M35.3,28.1l-1.1,0.1c-0.3,0-0.5-0.2-0.6-0.4c0-0.3,0.2-0.5,0.4-0.5l1.1-0.1l1.1-0.1
						c0.3,0,0.5,0.2,0.6,0.4c0,0.3-0.2,0.5-0.4,0.5L35.3,28.1z"/>
        <path class="st47" d="M30.9,28.2c0-0.3,0.2-0.5,0.5-0.5c0.3,0,0.5,0.2,0.5,0.5c0,0.3-0.2,0.5-0.5,0.5
						C31.2,28.7,30.9,28.5,30.9,28.2z"/>
        <polygon class="st22" points="27.6,29.1 28.2,28.3 29.7,28.5 28.5,29.5"/>
        <path class="st48" d="M50.2,28.1l1.1,0.1c0.3,0,0.5-0.2,0.6-0.4c0-0.3-0.2-0.5-0.4-0.5l-1.1-0.1L49.3,27
						c-0.3,0-0.5,0.2-0.6,0.4c0,0.3,0.2,0.5,0.4,0.5L50.2,28.1z"/>
        <path class="st47" d="M46.1,27.3c0-0.3,0.2-0.5,0.5-0.5c0.3,0,0.5,0.2,0.5,0.5c0,0.3-0.2,0.5-0.5,0.5
						C46.3,27.8,46.1,27.6,46.1,27.3z"/>
        <path class="st47" d="M53.6,28.2c0-0.3,0.2-0.5,0.5-0.5c0.3,0,0.5,0.2,0.5,0.5c0,0.3-0.2,0.5-0.5,0.5
						C53.8,28.7,53.6,28.5,53.6,28.2z"/>
        <polygon class="st22" points="57.9,29.1 57.3,28.3 55.8,28.5 57,29.5"/>
        <path class="st13" d="M29.2,31.2c3.5-1,8.3-1.7,13.6-1.7c5.3,0,10.1,0.6,13.6,1.7"/>
        <path class="st19" d="M31.5,17l0.6,0.5l0.9-1.6c-1-0.7-1.7-1.8-1.7-3.1c0-0.1,0-0.3,0-0.4c0.1-2,2.5-3.7,5.5-3.7
				c1.6,0,3,0.4,4,1.2C41,9.5,41,9.2,41,8.9c-1.1-0.7-2.5-1.1-4.1-1.1c-3.5,0-6.2,2.1-6.4,4.5c0,0.1,0,0.3,0,0.4
				c0,1.3,0.6,2.5,1.5,3.3L31.5,17z"/>
        <path class="st19" d="M31.6,17c-1.2-0.9-1.9-2.2-1.9-3.6c0-1.6,1-3,2.5-4c-0.9,0.8-1.5,1.8-1.6,2.9c0,0.1,0,0.3,0,0.4
				c0,1.3,0.6,2.5,1.5,3.3L31.6,17z"/>
        <path class="st19" d="M21.1,18.6c-0.7-0.8-1.1-1.8-1.1-2.9c0-0.7,0.1-1.3,0.4-1.9c1-2.1,4-3.6,7.6-3.6c1,0,1.9,0.1,2.8,0.3
				c-0.2,0.2-0.3,0.5-0.5,0.7c-0.7-0.1-1.5-0.2-2.3-0.2c-3.3,0-6,1.3-6.8,3.1c-0.2,0.5-0.3,1-0.3,1.5c0,1.1,0.5,2.1,1.3,2.7l-1.2,2
				L20.2,20L21.1,18.6z"/>
        <path class="st19" d="M22.3,11.8c-0.9,0.6-1.5,1.3-1.9,2C20.1,14.4,20,15,20,15.7c0,1.1,0.4,2.1,1.1,2.9l-0.7,1.2
				c-0.7-0.9-1.1-2-1.1-3.2C19.2,14.7,20.4,13,22.3,11.8z"/>
        <path class="st19" d="M42.7,7.5c0.8,0,1.5,0.5,1.6,1.3c0.1,0.7,0.2,1.4,0.2,2.2c0,0.1,0,0.2,0,0.2c0,0.1,0,0.2,0,0.3
				c0,1.7,0.3,3.1,0.6,4l-2.4,2.4l-2.5-2.4c0.3-0.9,0.6-2.4,0.6-4c0-0.1,0-0.2,0-0.3c0-0.1,0-0.2,0-0.2c0-0.8,0.1-1.5,0.2-2.2
				C41.2,8,41.9,7.5,42.7,7.5z"/>
        <path class="st19" d="M42.7,8.3c0.4,0,0.8,0.3,0.8,0.7c0.1,0.6,0.2,1.3,0.2,2.1c0,0.1,0,0.2,0,0.2c0,0.1,0,0.2,0,0.3
				c0,1.6,0.2,2.9,0.5,3.8l-1.6,1.6l-1.6-1.6c0.3-0.8,0.5-2.2,0.5-3.8c0-0.1,0-0.2,0-0.3c0-0.1,0-0.2,0-0.2c0-0.7,0.1-1.4,0.2-2.1
				C41.9,8.5,42.3,8.3,42.7,8.3z"/>
        <path class="st19" d="M53.9,17l-0.6,0.5l-0.9-1.6c1-0.7,1.7-1.8,1.7-3.1c0-0.1,0-0.3,0-0.4c-0.1-2-2.5-3.7-5.5-3.7
				c-1.6,0-3,0.4-4,1.2c0-0.3-0.1-0.6-0.1-0.9c1.1-0.7,2.5-1.1,4.1-1.1c3.5,0,6.2,2.1,6.4,4.5c0,0.1,0,0.3,0,0.4
				c0,1.3-0.6,2.5-1.5,3.3L53.9,17z"/>
        <path class="st19" d="M53.8,17c1.2-0.9,1.9-2.2,1.9-3.6c0-1.6-1-3-2.5-4c0.9,0.8,1.5,1.8,1.6,2.9c0,0.1,0,0.3,0,0.4
				c0,1.3-0.6,2.5-1.5,3.3L53.8,17z"/>
        <path class="st19" d="M64.3,18.6c0.7-0.8,1.1-1.8,1.1-2.9c0-0.7-0.1-1.3-0.4-1.9c-1-2.1-4-3.6-7.6-3.6c-1,0-1.9,0.1-2.8,0.3
				c0.2,0.2,0.3,0.5,0.5,0.7c0.7-0.1,1.5-0.2,2.3-0.2c3.3,0,6,1.3,6.8,3.1c0.2,0.5,0.3,1,0.3,1.5c0,1.1-0.5,2.1-1.3,2.7l1.2,2
				l0.6-0.5L64.3,18.6z"/>
        <path class="st19" d="M63.1,11.8c0.9,0.6,1.5,1.3,1.9,2c0.3,0.6,0.4,1.2,0.4,1.9c0,1.1-0.4,2.1-1.1,2.9l0.7,1.2
				c0.7-0.9,1.1-2,1.1-3.2C66.2,14.7,65,13,63.1,11.8z"/>
        <line class="st13" x1="42.9" y1="14.9" x2="42.8" y2="14.9"/>
        <path class="st47" d="M41.8,15.8c0-0.5,0.4-0.8,0.9-0.8c0.5,0,0.9,0.4,0.9,0.8c0,0.5-0.4,0.8-0.9,0.8
				C42.2,16.6,41.8,16.3,41.8,15.8z"/>
        <path class="st47" d="M41.8,14.1c0-0.5,0.4-0.8,0.9-0.8c0.5,0,0.9,0.4,0.9,0.8c0,0.5-0.4,0.8-0.9,0.8
				C42.2,15,41.8,14.6,41.8,14.1z"/>
        <path class="st47"
              d="M42,12.3c0-0.4,0.3-0.7,0.7-0.7c0.4,0,0.7,0.3,0.7,0.7c0,0.4-0.3,0.7-0.7,0.7C42.3,13,42,12.7,42,12.3z"/>
        <path class="st47" d="M42.2,10.7c0-0.3,0.2-0.5,0.5-0.5c0.3,0,0.5,0.2,0.5,0.5c0,0.3-0.2,0.5-0.5,0.5
				C42.4,11.2,42.2,11,42.2,10.7z"/>
        <path class="st47"
              d="M42.3,9.3c0-0.2,0.2-0.4,0.4-0.4c0.2,0,0.4,0.2,0.4,0.4c0,0.2-0.2,0.4-0.4,0.4C42.5,9.7,42.3,9.5,42.3,9.3z"/>
        <path class="st19" d="M42.8,20.9l0.6,0.1c-0.1,0.2-0.1,0.5-0.1,0.8c0,1.2,1,2.2,2.2,2.2c1,0,1.8-0.6,2.1-1.5
						c0,0,0.2-0.8,0.3-0.8c0.1,0,0.1,0.8,0.1,0.8c0.1,1.1,1.1,1.9,2.2,1.9c1.2,0,2.2-1,2.2-2.2c0-0.1,0-0.2,0-0.3l0.7-0.7l0.4,0.9
						c-0.2,0.3-0.2,0.6-0.2,1c0,1.2,1,2.1,2.1,2.1c0.7,0,1.4-0.4,1.8-0.9l0.4-0.6l0,0.7c0,0.7,0.3,1.4,1,1.5c0,0,0.8,0.1,1.8-0.8
						c1-0.8,1.6-1.6,1.6-1.6l0.1,0.8c0,0-0.9,1.4-1.8,2c-0.5,0.3-1.3,0.6-1.9,0.5c-0.7-0.1-1.1-0.7-1.4-1.3c-0.5,0.3-1,0.5-1.6,0.5
						c-1.3,0-2.4-0.7-2.9-1.8c-0.6,0.7-1.4,1.1-2.4,1.1c-1,0-1.9-0.5-2.5-1.2c-0.6,0.5-1.4,0.9-2.2,0.9c-1.1,0-2.1-0.6-2.7-1.4
						c-0.6,0.9-1.6,1.4-2.7,1.4c-0.9,0-1.6-0.3-2.2-0.9c-0.6,0.7-1.5,1.2-2.5,1.2c-1,0-1.8-0.4-2.3-1.1c-0.5,1.1-1.6,1.8-2.9,1.8
						c-0.6,0-1.1-0.2-1.6-0.5c-0.2,0.6-0.7,1.2-1.4,1.3c-0.6,0.1-1.4-0.2-1.9-0.5c-0.9-0.6-1.8-2-1.8-2l0.1-0.8c0,0,0.6,0.7,1.6,1.6
						c1,0.8,1.8,0.8,1.8,0.8c0.7-0.1,1-0.8,1-1.5l0-0.7l0.4,0.6c0.4,0.6,1,0.9,1.8,0.9c1.2,0,2.1-0.9,2.1-2.1c0-0.3-0.1-0.7-0.2-1
						l0.4-0.9l0.7,0.7c0,0.1,0,0.2,0,0.3c0,1.2,1,2.2,2.2,2.2c1.1,0,2.1-0.7,2.2-1.9c0,0,0-0.8,0.1-0.8c0.1,0,0.3,0.8,0.3,0.8
						c0.3,0.9,1.1,1.5,2.1,1.5c1.2,0,2.2-1,2.2-2.2c0-0.3,0-0.5-0.1-0.8L42.8,20.9z"/>
        <path class="st47"
              d="M58.1,23.8c0.1-0.4,0-0.8-0.3-0.9c-0.3-0.1-0.6,0.2-0.7,0.6s0,0.8,0.3,0.9C57.6,24.4,57.9,24.2,58.1,23.8z"/>
        <path class="st47" d="M48.4,21.8c0.1-0.4-0.1-0.8-0.4-0.8c-0.3,0-0.6,0.3-0.6,0.7c-0.1,0.4,0.1,0.8,0.4,0.8
						C48.1,22.6,48.3,22.2,48.4,21.8z"/>
        <path class="st47" d="M37.2,21.8c-0.1-0.4,0.1-0.8,0.4-0.8c0.3,0,0.6,0.3,0.6,0.7c0.1,0.4-0.1,0.8-0.4,0.8
						C37.5,22.6,37.2,22.2,37.2,21.8z"/>
        <path class="st47" d="M27.5,23.8c-0.1-0.4,0-0.8,0.3-0.9c0.3-0.1,0.6,0.2,0.7,0.6c0.1,0.4,0,0.8-0.3,0.9
						C27.9,24.4,27.6,24.2,27.5,23.8z"/>
        <path class="st19" d="M31.7,17.1c0.5,0.3,0.9,0.8,1,1.4c0,0,0.1-0.1,0.3-0.3c0.3-0.2,0.5-0.2,0.5-0.2s-0.1,0.5-0.1,0.6
							c0,0.2,0,0.7-0.1,1.1c-0.1,0.4-0.3,0.8-0.3,0.8c-0.2-0.2-0.4-0.2-0.7-0.2c-0.3,0-0.5,0.2-0.6,0.4c0,0-0.3-0.3-0.5-0.6
							c-0.2-0.4-0.4-0.8-0.5-1c-0.1-0.1-0.3-0.5-0.3-0.5s0.2-0.1,0.5,0c0.3,0.1,0.4,0.2,0.4,0.2C31.1,18.2,31.3,17.5,31.7,17.1z"/>
        <path class="st49" d="M31.9,21.9c-0.2-0.1-0.3-0.3-0.3-0.5c0-0.2,0-0.4,0.1-0.6c0,0-0.4-0.2-0.8-0.3c-0.3-0.1-0.9-0.1-1.1-0.1
							c-0.2,0-0.5,0-0.5,0s0,0.1,0.1,0.3c0.1,0.2,0.2,0.4,0.2,0.4c-0.6,0.1-1.1,0.5-1.4,1c0.4,0.3,1,0.5,1.6,0.5
							c0,0-0.1,0.2-0.1,0.4c0,0.2,0,0.3,0,0.3s0.3-0.1,0.5-0.2c0.2-0.1,0.7-0.3,1-0.5C31.6,22.2,31.9,21.9,31.9,21.9z"/>
        <path class="st49" d="M33.2,21.7c0.1-0.2,0.1-0.4,0.1-0.6c0-0.2-0.1-0.4-0.3-0.5c0,0,0.3-0.3,0.7-0.6c0.3-0.2,0.8-0.4,1-0.5
							c0.2-0.1,0.5-0.2,0.5-0.2s0,0.1,0,0.3C35,19.9,35,20,35,20c0.6-0.1,1.2,0.1,1.6,0.5c-0.3,0.5-0.8,0.8-1.4,1
							c0,0,0.1,0.1,0.2,0.4c0.1,0.2,0.1,0.3,0.1,0.3s-0.3,0-0.5,0c-0.2,0-0.7,0-1.1-0.1C33.6,21.9,33.2,21.7,33.2,21.7z"/>
        <path class="st22"
              d="M31.5,21.2c0-0.5,0.4-1,1-1c0.5,0,1,0.4,1,1c0,0.5-0.4,1-1,1C31.9,22.2,31.5,21.7,31.5,21.2z"/>
        <path class="st19" d="M42.7,15.5c0.5,0.4,0.8,1.1,0.9,1.8c0,0,0.1-0.1,0.4-0.2c0.3-0.1,0.6-0.1,0.6-0.1s-0.2,0.5-0.3,0.7
							c-0.1,0.2-0.2,0.7-0.4,1.2c-0.2,0.5-0.5,0.8-0.5,0.8c-0.2-0.2-0.5-0.4-0.8-0.4c-0.3,0-0.6,0.1-0.8,0.4c0,0-0.3-0.4-0.5-0.8
							c-0.2-0.5-0.3-1-0.4-1.2c-0.1-0.2-0.3-0.7-0.3-0.7s0.3,0,0.6,0.1c0.3,0.1,0.4,0.2,0.4,0.2C41.9,16.6,42.3,16,42.7,15.5z"/>
        <path class="st49" d="M42,20.9c-0.1-0.2-0.2-0.4-0.2-0.6c0-0.2,0.1-0.5,0.2-0.6c0,0-0.4-0.3-0.9-0.5c-0.3-0.2-1-0.3-1.2-0.3
							c-0.2,0-0.6-0.1-0.6-0.1s0,0.1,0.1,0.3c0.1,0.3,0.2,0.4,0.2,0.4c-0.7,0-1.3,0.4-1.7,0.8c0.4,0.4,1.1,0.8,1.7,0.8
							c0,0-0.1,0.2-0.2,0.4c-0.1,0.2-0.1,0.3-0.1,0.3s0.4-0.1,0.6-0.1c0.2,0,0.8-0.2,1.2-0.3C41.6,21.2,42,20.9,42,20.9z"/>
        <path class="st49" d="M43.5,20.9c0.1-0.2,0.2-0.4,0.2-0.6c0-0.2-0.1-0.5-0.2-0.6c0,0,0.4-0.3,0.9-0.5c0.3-0.2,1-0.3,1.2-0.3
							c0.2,0,0.6-0.1,0.6-0.1s0,0.1-0.1,0.3c-0.1,0.3-0.2,0.4-0.2,0.4c0.7,0,1.3,0.4,1.7,0.8c-0.4,0.4-1.1,0.8-1.7,0.8
							c0,0,0.1,0.2,0.2,0.4c0.1,0.2,0.1,0.3,0.1,0.3s-0.4-0.1-0.6-0.1c-0.2,0-0.8-0.2-1.2-0.3C43.9,21.2,43.5,20.9,43.5,20.9z"/>
        <path class="st19" d="M53.9,17.1c-0.5,0.3-0.9,0.8-1,1.4c0,0-0.1-0.1-0.3-0.3c-0.3-0.2-0.5-0.2-0.5-0.2s0.1,0.5,0.1,0.6
							c0,0.2,0,0.7,0.1,1.1c0.1,0.4,0.3,0.8,0.3,0.8c0.2-0.2,0.4-0.2,0.7-0.2c0.3,0,0.5,0.2,0.6,0.4c0,0,0.3-0.3,0.5-0.6
							c0.2-0.4,0.4-0.8,0.5-1c0.1-0.1,0.3-0.5,0.3-0.5s-0.2-0.1-0.5,0c-0.3,0.1-0.4,0.2-0.4,0.2C54.4,18.2,54.2,17.5,53.9,17.1z"/>
        <path class="st49" d="M53.7,21.9c0.2-0.1,0.3-0.3,0.3-0.5c0-0.2,0-0.4-0.1-0.6c0,0,0.4-0.2,0.8-0.3c0.3-0.1,0.9-0.1,1.1-0.1
							c0.2,0,0.5,0,0.5,0s0,0.1-0.1,0.3C56,20.8,55.9,21,55.9,21c0.6,0.1,1.1,0.5,1.4,1c-0.4,0.3-1,0.5-1.6,0.5c0,0,0.1,0.2,0.1,0.4
							c0,0.2,0,0.3,0,0.3s-0.3-0.1-0.5-0.2c-0.2-0.1-0.7-0.3-1-0.5C54,22.2,53.7,21.9,53.7,21.9z"/>
        <path class="st49" d="M52.4,21.7c-0.1-0.2-0.1-0.4-0.1-0.6c0-0.2,0.1-0.4,0.3-0.5c0,0-0.3-0.3-0.7-0.6c-0.3-0.2-0.8-0.4-1-0.5
							c-0.2-0.1-0.5-0.2-0.5-0.2s0,0.1,0,0.3c0,0.2,0.1,0.4,0.1,0.4c-0.6-0.1-1.2,0.1-1.6,0.5c0.3,0.5,0.8,0.8,1.4,1
							c0,0-0.1,0.1-0.2,0.4c-0.1,0.2-0.1,0.3-0.1,0.3s0.3,0,0.5,0c0.2,0,0.7,0,1.1-0.1C52,21.9,52.4,21.7,52.4,21.7z"/>
        <path class="st22"
              d="M52.1,21.2c0-0.5,0.4-1,1-1c0.5,0,1,0.4,1,1c0,0.5-0.4,1-1,1C52.6,22.2,52.1,21.7,52.1,21.2z"/>
        <path class="st22" d="M63.1,23.4c-0.2-0.3-0.7-0.2-1.1,0.1c-0.4,0.3-0.5,0.8-0.2,1c0.2,0.3,0.7,0.2,1.1-0.1
							C63.2,24.1,63.3,23.6,63.1,23.4z"/>
        <path class="st49" d="M61.7,24c0-0.2,0.2-0.4,0.3-0.5c0.4-0.3,0.8-0.4,1.1-0.1c0,0,0.1,0.1,0.1,0.1c0,0,0.5-1,1.1-1.3
							c0.6-0.3,1.6-0.2,1.6-0.2c0-0.8-0.6-1.4-1.4-1.4c-0.5,0-0.9,0.2-1.1,0.5l-0.1-0.5c0,0-0.6,0.1-0.9,0.9c-0.3,0.7,0,1.8,0,1.8
							s-0.2-0.5-0.4-0.8c-0.2-0.3-0.8-0.6-1.1-0.8c-0.3-0.2-0.6-0.4-0.6-0.4s0,0.1,0,0.3c0,0.2,0,0.4,0,0.4c-0.6-0.1-1.2,0-1.7,0.2
							c0.2,0.4,0.6,0.9,1.2,1.1c0,0-0.2,0.2-0.4,0.4c-0.1,0.2-0.2,0.2-0.2,0.2s0.4,0.1,0.6,0.1c0.2,0,0.8,0.1,1.2,0.1
							C61.2,24.1,61.5,24,61.7,24z"/>
        <path class="st22" d="M22.5,23.4c0.2-0.3,0.7-0.2,1.1,0.1c0.4,0.3,0.5,0.8,0.2,1c-0.2,0.3-0.7,0.2-1.1-0.1
							C22.3,24.1,22.2,23.6,22.5,23.4z"/>
        <path class="st49" d="M23.8,24c0-0.2-0.2-0.4-0.3-0.5c-0.4-0.3-0.8-0.4-1.1-0.1c0,0-0.1,0.1-0.1,0.1c0,0-0.5-1-1.1-1.3
							c-0.6-0.3-1.6-0.2-1.6-0.2c0-0.8,0.6-1.4,1.4-1.4c0.4,0,0.9,0.2,1.1,0.5l0.1-0.5c0,0,0.6,0.1,0.9,0.9c0.3,0.7,0,1.8,0,1.8
							s0.2-0.5,0.4-0.8c0.2-0.3,0.8-0.6,1.1-0.8c0.3-0.2,0.6-0.4,0.6-0.4s0,0.1,0,0.3c0,0.2,0,0.4,0,0.4c0.6-0.1,1.2,0,1.7,0.2
							c-0.2,0.4-0.6,0.9-1.2,1.1c0,0,0.2,0.2,0.4,0.4c0.2,0.2,0.2,0.2,0.2,0.2S26,24,25.8,24c-0.2,0-0.8,0.1-1.2,0.1
							C24.4,24.1,24,24,23.8,24z"/>
        <path class="st22"
              d="M41.8,20.3c0-0.5,0.4-1,1-1c0.5,0,1,0.4,1,1c0,0.5-0.4,1-1,1C42.2,21.3,41.8,20.8,41.8,20.3z"/>
        <defs>
            <path id="SVGID_00000039111527822344996690000005490706978619737520_" d="M40.7,5.6c0-1.1,0.9-2,2-2s2,0.9,2,2s-0.9,2-2,2
							S40.7,6.7,40.7,5.6z"/>
        </defs>
        <use xlink:href="#SVGID_00000039111527822344996690000005490706978619737520_"
             style="overflow:visible;fill-rule:evenodd;clip-rule:evenodd;fill:#0044AE;"/>
        <clipPath id="SVGID_00000070114806296288392900000012490431933577132704_">
            <use xlink:href="#SVGID_00000039111527822344996690000005490706978619737520_" style="overflow:visible;"/>
        </clipPath>
        <polygon
                style="clip-path:url(#SVGID_00000070114806296288392900000012490431933577132704_);fill-rule:evenodd;clip-rule:evenodd;fill:#A07E00;stroke:#211915;stroke-width:0.116;stroke-miterlimit:3.8637;"
                points="
						45.1,5.3 45.1,6.4 40.5,6.4 40.5,5.3 42.2,5.3 42.2,2.2 41.1,2.2 41.1,1.1 42.2,1.1 42.2,0.1 43.3,0.1 43.3,1.1 44.4,1.1
						44.4,2.2 43.3,2.2 43.3,5.3"/>
        <polygon class="st4" points="44.4,5.3 44.4,6.4 41.1,6.4 41.1,5.3 42.2,5.3 42.2,2.2 41.1,2.2 41.1,1.1 42.2,1.1 42.2,0.1
					43.3,0.1 43.3,1.1 44.4,1.1 44.4,2.2 43.3,2.2 43.3,5.3"/>
        <defs>
            <path id="SVGID_00000027604549828794888420000006175526797766681500_" d="M40.7,5.7c0-1.1,0.9-2,2-2c1.1,0,2,0.9,2,2
							c0,1.1-0.9,2-2,2C41.6,7.6,40.7,6.8,40.7,5.7z"/>
        </defs>
        <clipPath id="SVGID_00000017476309243952028840000005260436515175603074_">
            <use xlink:href="#SVGID_00000027604549828794888420000006175526797766681500_" style="overflow:visible;"/>
        </clipPath>
        <polygon
                style="clip-path:url(#SVGID_00000017476309243952028840000005260436515175603074_);fill-rule:evenodd;clip-rule:evenodd;fill:#A07E00;stroke:#211915;stroke-width:0.116;stroke-miterlimit:3.8637;"
                points="
						45.1,5.3 45.1,6.4 40.5,6.4 40.5,5.3 42.2,5.3 42.2,2.2 41.1,2.2 41.1,1.1 42.2,1.1 42.2,0.1 43.3,0.1 43.3,1.1 44.4,1.1
						44.4,2.2 43.3,2.2 43.3,5.3"/>
        <path class="st8" d="M43.3,3.7c0.8,0.2,1.4,1,1.4,1.9c0,1.1-0.9,2-2,2s-2-0.9-2-2c0-0.9,0.6-1.7,1.5-1.9"/>
        <path class="st52" d="M42.9,89c-5.9,0-11.8-1.5-16.7-4c-3.6-1.9-6.1-5.7-6.1-10V59.3h22.7h22.8V75c0,4.3-2.4,8.1-6.1,10
				C54.6,87.5,48.8,89,42.9,89z"/>
        <rect x="42.8" y="33" class="st52" width="22.8" height="26.2"/>
        <rect x="20.1" y="33" class="st53" width="22.7" height="26.2"/>
        <defs>
            <path id="SVGID_00000100356507456621817590000011123507734292620729_" d="M42.8,75c0,6.2-5,11.2-11.3,11.2
						c-6.3,0-11.4-5-11.4-11.2V59.3h22.7V75z"/>
        </defs>
        <use xlink:href="#SVGID_00000100356507456621817590000011123507734292620729_"
             style="overflow:visible;fill-rule:evenodd;clip-rule:evenodd;fill:#B60027;"/>
        <clipPath id="SVGID_00000049904960872097915180000003299103098267813521_">
            <use xlink:href="#SVGID_00000100356507456621817590000011123507734292620729_" style="overflow:visible;"/>
        </clipPath>
        <rect x="25.1" y="58.7"
              style="clip-path:url(#SVGID_00000049904960872097915180000003299103098267813521_);fill-rule:evenodd;clip-rule:evenodd;fill:#A07E00;stroke:#211915;stroke-width:0.232;stroke-miterlimit:3.8637;"
              width="2.7" height="29.1"/>
        <rect x="20" y="58.7"
              style="clip-path:url(#SVGID_00000049904960872097915180000003299103098267813521_);fill-rule:evenodd;clip-rule:evenodd;fill:#A07E00;stroke:#211915;stroke-width:0.232;stroke-miterlimit:3.8637;"
              width="2.7" height="29.1"/>
        <rect x="30.1" y="58.7"
              style="clip-path:url(#SVGID_00000049904960872097915180000003299103098267813521_);fill-rule:evenodd;clip-rule:evenodd;fill:#A07E00;stroke:#211915;stroke-width:0.232;stroke-miterlimit:3.8637;"
              width="2.7" height="29.1"/>
        <rect x="35.2" y="58.7"
              style="clip-path:url(#SVGID_00000049904960872097915180000003299103098267813521_);fill-rule:evenodd;clip-rule:evenodd;fill:#A07E00;stroke:#211915;stroke-width:0.232;stroke-miterlimit:3.8637;"
              width="2.7" height="29.1"/>
        <rect x="40.3" y="58.7"
              style="clip-path:url(#SVGID_00000049904960872097915180000003299103098267813521_);fill-rule:evenodd;clip-rule:evenodd;fill:#A07E00;stroke:#211915;stroke-width:0.232;stroke-miterlimit:3.8637;"
              width="2.7" height="29.1"/>
        <use xlink:href="#SVGID_00000100356507456621817590000011123507734292620729_"
             style="overflow:visible;fill-rule:evenodd;clip-rule:evenodd;fill:none;stroke:#211915;stroke-width:0.232;stroke-miterlimit:3.8637;"/>
        <path class="st53" d="M65.6,59.3V75c0,6.2-5.1,11.2-11.4,11.2c-6.3,0-11.4-5-11.4-11.2V59.3H65.6z"/>
        <path class="st55" d="M56.8,82.4"/>
        <path class="st8" d="M50.3,67.6"/>
        <path class="st55" d="M46.9,70.2"/>
        <path class="st56" d="M55.3,82c0.6-0.1,1.2-0.3,1.7-0.5l0.4,0.7c-0.6,0.3-1.3,0.5-2,0.6c-0.1,0.6-0.6,1-1.2,1
				c-0.6,0-1.1-0.4-1.2-1c-0.8-0.1-1.5-0.3-2.1-0.6l0.4-0.7c0.6,0.3,1.2,0.4,1.8,0.5c0.1-0.3,0.4-0.5,0.7-0.7l0-3.3h0.8l0,3.3
				C54.9,81.4,55.2,81.7,55.3,82z M53.1,72c0-0.1-0.1-0.1-0.1-0.2h-1.9V71H53c0-0.1,0.1-0.1,0.1-0.2l-2.4-2.7l0.6-0.5l2.3,2.7
				c0,0,0.1,0,0.1-0.1v-3.6h0.8v3.6c0,0,0.1,0,0.1,0l2.3-2.7l0.6,0.5l-2.3,2.7c0.1,0.1,0.1,0.2,0.1,0.3h1.9v0.8l-1.9,0
				c0,0.1-0.1,0.2-0.1,0.2l2.2,2.6l-0.6,0.5l-2.2-2.6c0,0-0.1,0-0.1,0l0,4.3h-0.8l0-4.3c0,0-0.1,0-0.1,0l-2.3,2.6l-0.6-0.5L53.1,72z
				 M47,63.8l2.9,3.3l0.6-0.5l-2.9-3.3c0.1-0.1,0.1-0.2,0.1-0.3h2.1v-0.8h-2.1c-0.2-0.5-0.6-0.8-1.2-0.8c-0.7,0-1.2,0.5-1.2,1.2
				c0,0.5,0.3,1,0.8,1.2l0,2.6h0.8l0-2.5C46.9,63.8,47,63.8,47,63.8z M50.1,80.9l-0.4,0.7c-0.6-0.4-1.2-0.9-1.7-1.5
				c-0.4,0.1-0.8,0-1.2-0.2c-0.5-0.4-0.6-1.2-0.1-1.7l0.1-0.1c-0.3-0.7-0.5-1.5-0.6-2.4l0.8,0c0.1,0.7,0.2,1.4,0.5,2
				c0.2,0,0.4,0,0.7,0.1l1.9-2.2l0.6,0.5l-1.9,2.2c0.3,0.4,0.2,0.9,0,1.3C49.1,80.1,49.6,80.5,50.1,80.9z M46.1,74.4l0-1.9
				c-0.5-0.2-0.9-0.6-0.9-1.2c0-0.5,0.4-1,0.9-1.2l0-2.6h0.8l0,2.6c0.4,0.1,0.7,0.4,0.8,0.8l2.1,0v0.8h-2.1
				c-0.1,0.4-0.4,0.6-0.8,0.8l0,1.9L46.1,74.4z M47.2,78.5c0.2-0.2,0.5-0.2,0.7-0.1c0.2,0.2,0.2,0.5,0.1,0.7
				c-0.2,0.2-0.5,0.2-0.7,0.1C47.1,79.1,47,78.7,47.2,78.5z M46.3,76.3l-0.8-0.2L45.3,74l0.8-0.3l0,1.2
				C46.1,75.4,46.2,75.9,46.3,76.3z M46.9,73.7l0.8,0.2c0,0,0,1.3,0,1c0-0.4,0.1,1.1,0.1,1.1L47,76.3c-0.1-0.4-0.1-0.9-0.1-1.3
				L46.9,73.7z M49.5,80.4c0.7,0.5,1.4,1,2.3,1.3l0.2-0.8c-0.7-0.2-1.3-0.6-1.9-1L49.5,80.4z M49.1,81.1c0.7,0.5,1.5,1,2.3,1.2
				L50.8,83c-0.7-0.3-1.3-0.6-1.9-1L49.1,81.1z M50.2,76.5l0.8,0.3l1.4-1.6l-0.5-0.7L50.2,76.5z M49.6,76l-0.5-0.7l1.4-1.6l0.8,0.3
				L49.6,76z M46,71.4c0-0.3,0.2-0.5,0.5-0.5c0.3,0,0.5,0.2,0.5,0.5c0,0.3-0.2,0.5-0.5,0.5C46.2,71.9,46,71.7,46,71.4z M58.1,80.9
				l0.4,0.7c0.6-0.4,1.2-0.9,1.7-1.5c0.4,0.1,0.8,0,1.2-0.2c0.5-0.4,0.6-1.2,0.1-1.7L61.5,78c0.3-0.7,0.5-1.5,0.6-2.4l-0.8,0
				c-0.1,0.7-0.2,1.4-0.5,2c-0.2,0-0.4,0-0.7,0.1l-1.9-2.2L57.6,76l1.9,2.2c-0.3,0.4-0.2,0.9,0,1.3C59.2,80.1,58.7,80.5,58.1,80.9z
				 M62.1,74.4l0-1.9c0.5-0.2,0.9-0.6,0.9-1.2c0-0.5-0.4-1-0.9-1.2l0-2.6h-0.8l0,2.6c-0.4,0.1-0.7,0.4-0.8,0.8l-2.1,0v0.8h2.1
				c0.1,0.4,0.4,0.6,0.8,0.8l0,1.9L62.1,74.4z M61,78.5c-0.2-0.2-0.5-0.2-0.7-0.1C60,78.7,60,79,60.2,79.2c0.2,0.2,0.5,0.2,0.7,0.1
				C61.2,79.1,61.2,78.7,61,78.5z M62,76.3l0.8-0.2l0.1-2.1l-0.8-0.3l0,1.2C62.1,75.4,62,75.9,62,76.3z M61.3,73.7l-0.8,0.2
				c0,0,0,1.3,0,1c0-0.4-0.1,1.1-0.1,1.1l0.8,0.3c0.1-0.4,0.1-0.9,0.1-1.3L61.3,73.7z M62.1,63.8l0,2.6h-0.8l0-2.6
				c-0.1,0-0.1,0-0.2-0.1l-2.8,3.3l-0.6-0.5l2.9-3.4c0,0,0-0.1-0.1-0.2h-2.1v-0.8h2.1c0.2-0.5,0.6-0.8,1.2-0.8
				c0.7,0,1.2,0.5,1.2,1.2C62.9,63.2,62.6,63.7,62.1,63.8z M54.5,63.8l0,1.6h-0.8l0-1.6c-0.4-0.1-0.7-0.4-0.8-0.8h-1.9v-0.8h1.9
				c0.2-0.5,0.6-0.8,1.2-0.8c0.5,0,1,0.4,1.2,0.8h1.9V63h-1.9C55.2,63.4,54.9,63.7,54.5,63.8z M58.7,80.4c-0.7,0.5-1.4,1-2.3,1.3
				l-0.2-0.8c0.7-0.2,1.3-0.6,1.9-1L58.7,80.4z M59.1,81.1c-0.7,0.5-1.5,1-2.3,1.2l0.6,0.6c0.7-0.3,1.3-0.6,1.9-1L59.1,81.1z
				 M46.1,65.7L45.3,66v2.1l0.8,0.2V65.7z M46.9,65.7l0.8,0.2v2.1l-0.8,0.2V65.7z M61.3,65.7L60.5,66v2.1l0.8,0.2V65.7z M62.1,65.7
				l0.8,0.2v2.1l-0.8,0.2V65.7z M58,76.5l-0.8,0.3l-1.4-1.6l0.5-0.7L58,76.5z M58.6,76l0.5-0.7l-1.4-1.6l-0.8,0.3L58.6,76z M50,66.1
				l0.8-0.3l1.4,1.6l-0.5,0.7L50,66.1z M49.4,66.6L49,67.3l1.4,1.6l0.8-0.3L49.4,66.6z M58.1,66.1l-0.8-0.3L56,67.4l0.5,0.7
				L58.1,66.1z M58.7,66.6l0.5,0.7l-1.4,1.6l-0.8-0.3L58.7,66.6z M49.1,71l0.2-0.8h2.1l0.2,0.8H49.1z M49.1,71.8l0.2,0.8h2.1
				l0.2-0.8H49.1z M46,62.7c0-0.3,0.2-0.5,0.5-0.5c0.3,0,0.5,0.2,0.5,0.5c0,0.3-0.2,0.5-0.5,0.5C46.3,63.2,46,63,46,62.7z M51.7,63
				l-0.2,0.8h-2.1L49.1,63H51.7z M51.7,62.3l-0.2-0.8h-2.1l-0.2,0.8H51.7z M61.2,71.4c0-0.3,0.2-0.5,0.5-0.5c0.3,0,0.5,0.2,0.5,0.5
				c0,0.3-0.2,0.5-0.5,0.5C61.4,71.9,61.2,71.7,61.2,71.4z M59.1,71l-0.2-0.8h-2.1L56.5,71H59.1z M59.1,71.8l-0.2,0.8h-2.1l-0.2-0.8
				H59.1z M53.6,82.5c0-0.3,0.2-0.5,0.5-0.5c0.3,0,0.5,0.2,0.5,0.5c0,0.3-0.2,0.5-0.5,0.5C53.9,83,53.6,82.8,53.6,82.5z M54.5,78.7
				l0.8-0.2v-2.1l-0.8-0.2V78.7z M53.8,78.7L53,78.4v-2.1l0.8-0.2V78.7z M61.2,62.7c0-0.3,0.2-0.5,0.5-0.5c0.3,0,0.5,0.2,0.5,0.5
				c0,0.3-0.2,0.5-0.5,0.5C61.4,63.2,61.2,63,61.2,62.7z M53.6,62.7c0-0.3,0.2-0.5,0.5-0.5s0.5,0.2,0.5,0.5c0,0.3-0.2,0.5-0.5,0.5
				S53.6,63,53.6,62.7z M56.5,63l0.2,0.8h2.1l0.2-0.8H56.5z M56.5,62.3l0.2-0.8h2.1l0.2,0.8H56.5z M53.7,64.7L53,65v2.1l0.8,0.2
				V64.7z M54.5,64.7l0.8,0.2v2.1l-0.8,0.2V64.7z"/>
        <path class="st57" d="M52.9,71.4c0-0.7,0.6-1.2,1.2-1.2c0.7,0,1.2,0.5,1.2,1.2c0,0.7-0.6,1.2-1.2,1.2
				C53.5,72.6,52.9,72.1,52.9,71.4z"/>
        <path class="st22" d="M54.4,39.5l0-0.3l0-0.2c0,0-0.7,0.1-1.1-0.1c-0.4-0.1-0.7-0.3-1.1-0.6c-0.4-0.3-0.5-0.5-0.8-0.6
				c-0.6-0.1-1.1,0.2-1.1,0.2s0.5,0.2,0.8,0.6s0.7,0.7,0.9,0.7c0.3,0.1,1.2,0,1.5,0C53.9,39.4,54.4,39.5,54.4,39.5z"/>
        <path class="st58" d="M57.8,38.4c0,0,0,0.3,0,0.7c0,0.3-0.1,0.6,0,0.8c0,0.2,0.1,0.3,0.1,0.4c0.1,0.1,0.1,0.4,0.1,0.4
					s-0.2-0.1-0.3-0.3c-0.2-0.1-0.3-0.2-0.3-0.2s0,0.3,0,0.5c0,0.1,0.1,0.4,0.2,0.6c0.1,0.2,0.4,0.4,0.5,0.6
					c0.1,0.2,0.1,0.7,0.1,0.7s-0.2-0.4-0.4-0.4c-0.2-0.1-0.6-0.3-0.6-0.3s0.4,0.4,0.4,0.7c0,0.4-0.1,0.8-0.1,0.8s-0.2-0.3-0.4-0.5
					c-0.2-0.2-0.5-0.4-0.5-0.4s0.2,0.5,0.2,0.9c0,0.4-0.1,1.2-0.1,1.2s-0.2-0.3-0.4-0.5C56.3,44,56,43.8,56,43.7
					c-0.1-0.1,0.2,0.3,0.2,0.5c0,0.2,0.1,1.1,0.9,2.2c0.4,0.6,1.1,1.8,2.5,1.4c1.4-0.4,0.9-2.3,0.6-3.3c-0.3-0.9-0.4-1.9-0.4-2.3
					c0-0.4,0.3-1.4,0.2-1.6c0-0.2-0.1-0.9,0.1-1.5c0.2-0.6,0.3-0.9,0.4-1.1c0.1-0.3,0.2-0.4,0.2-0.6c0-0.2,0-0.6,0-0.6
					s0.3,0.5,0.3,0.7c0.1,0.2,0.1,0.7,0.1,0.7s0-0.5,0.4-0.8c0.4-0.3,0.9-0.5,1-0.7c0.1-0.1,0.1-0.2,0.1-0.2s0,0.9-0.3,1.3
					c-0.2,0.2-0.8,1-0.8,1s0.3-0.1,0.6-0.1c0.2,0,0.4,0,0.4,0s-0.3,0.2-0.6,0.8c-0.4,0.5-0.2,0.6-0.5,1c-0.3,0.5-0.5,0.5-0.8,0.7
					c-0.5,0.4-0.2,2.1-0.2,2.3c0.1,0.2,0.9,2.2,0.9,2.7c0,0.5,0.1,1.6-0.7,2.3c-0.5,0.4-1.4,0.5-1.6,0.6c-0.2,0.1-0.6,0.5-0.6,1.4
					c0,0.8,0.3,1,0.5,1.2s0.5,0.1,0.6,0.3c0.1,0.2,0.1,0.3,0.2,0.4c0.1,0.1,0.2,0.2,0.1,0.4c0,0.2-0.4,0.6-0.5,0.9
					c-0.1,0.3-0.4,1-0.4,1.2c0,0.1,0,0.5,0.1,0.6c0,0,0.4,0.5,0.1,0.6c-0.2,0.1-0.4-0.1-0.4-0.1c-0.2,0.1-0.4,0.2-0.4,0.2
					c-0.2,0-0.2-0.1-0.2-0.4c0-0.2,0-0.3-0.1-0.3c-0.1,0-0.1,0.1-0.2,0.2c0,0.1,0,0.4-0.1,0.4c-0.1,0-0.3-0.2-0.4-0.3
					c-0.1,0-0.4-0.1-0.4-0.2c0-0.1,0.2-0.4,0.3-0.5c0.2,0,0.3-0.1,0.2-0.2c-0.1-0.1-0.2-0.1-0.3,0c-0.1,0.1-0.4,0-0.3-0.1
					c0-0.1,0-0.3,0-0.4c0-0.1-0.2-0.2,0-0.4c0.3-0.1,0.4,0.1,0.6,0.1c0.3,0,0.4-0.1,0.5-0.3c0.1-0.2,0.1-0.5-0.1-0.7
					c-0.2-0.2-0.4-0.2-0.4-0.4c-0.1-0.1-0.2-0.4-0.2-0.4s0,0.6,0,0.6c0,0.1,0,0.4,0,0.4s-0.2-0.2-0.3-0.4c-0.1-0.2-0.3-0.6-0.3-0.6
					s0,0.5,0,0.6c0,0.2,0.2,0.3,0.1,0.4c-0.1,0.1-0.4-0.3-0.5-0.4c-0.1-0.1-0.3-0.3-0.5-0.5c-0.1-0.2-0.2-0.5-0.2-0.7
					c0-0.1-0.1-0.6,0-0.7c0.1-0.2,0.2-0.5,0.2-0.5s-0.3,0-0.6,0c-0.3,0-0.6-0.1-0.7,0.1c-0.1,0.2-0.1,0.7,0.1,1.4
					c0.2,0.6,0.3,0.9,0.2,1c0,0.1-0.3,0.4-0.3,0.4c-0.1,0-0.3,0-0.4,0c-0.1,0-0.3-0.1-0.6-0.1c-0.3,0-0.5,0-0.6,0
					c-0.1,0-0.4-0.2-0.5-0.1c-0.1,0-0.4,0.2-0.3,0.3c0.1,0.3-0.1,0.4-0.2,0.3c-0.1,0-0.2-0.1-0.4-0.1c-0.2,0-0.4,0-0.4-0.2
					c0-0.2,0.1-0.2,0.2-0.4c0.1-0.1,0.1-0.2,0-0.2c-0.1,0-0.2,0-0.3,0.1c-0.1,0.1-0.2,0.2-0.3,0.2c-0.1-0.1-0.2-0.2-0.2-0.5
					c0-0.3-0.3-0.6,0-0.6c0.3,0,0.6,0.2,0.7,0.1c0.1-0.2,0-0.2-0.1-0.4c-0.2-0.1-0.3-0.2-0.1-0.4c0.2-0.2,0.3-0.2,0.3-0.3
					c0.1-0.1,0.2-0.4,0.3-0.3c0.3,0.1,0,0.3,0.3,0.7c0.3,0.3,0.5,0.4,0.9,0.4c0.5-0.1,0.6-0.1,0.6-0.3c0-0.1,0-0.4-0.1-0.5
					c0-0.1,0.1-0.5,0.1-0.5s-0.2,0.1-0.3,0.3c-0.1,0.1-0.2,0.4-0.2,0.4s-0.1-0.3,0-0.5c0-0.1,0.1-0.4,0.1-0.4c0-0.1-0.1-0.4-0.1-0.4
					s-0.1,0.3-0.1,0.4c-0.1,0.1-0.1,0.5-0.1,0.5s-0.3-0.3-0.2-0.7c0.1-0.4-0.1-0.8,0.1-1c0.1-0.2,0.3-0.8,0.9-0.8c0.6,0,1,0,1.3,0
					c0.2,0,0.9-0.2,0.9-0.2s-1.3-0.7-1.7-0.9c-0.3-0.2-0.8-0.8-0.9-1c-0.2-0.3-0.3-0.7-0.3-0.7s-0.2,0-0.5,0.1
					c-0.2,0.1-0.4,0.3-0.6,0.5c-0.1,0.2-0.3,0.5-0.3,0.5s0-0.4,0-0.6c0-0.1,0-0.4,0-0.4s-0.2,0.6-0.5,0.8c-0.3,0.2-0.7,0.5-0.7,0.5
					s0-0.3,0-0.4c0-0.1,0.1-0.5,0.1-0.5s-0.2,0.3-0.6,0.4c-0.3,0.1-0.8,0.1-0.9,0.3c0,0.2,0.1,0.5,0,0.7c-0.1,0.2-0.2,0.3-0.2,0.3
					s-0.2-0.2-0.4-0.2c-0.2,0-0.3,0.1-0.3,0.1s-0.1-0.2-0.1-0.3c0.1-0.1,0.3-0.3,0.2-0.4c-0.1-0.1-0.3,0-0.4,0.1
					c-0.1,0.1-0.4,0.1-0.4-0.1c0-0.2,0.1-0.3,0-0.5c-0.1-0.2,0-0.3,0.1-0.3c0.1,0,0.5,0,0.5-0.1c0-0.1-0.1-0.2-0.4-0.3
					c-0.3-0.1-0.4-0.2-0.3-0.4c0.1-0.1,0.2-0.2,0.2-0.3c0.1-0.1,0.1-0.4,0.3-0.2c0.2,0.1,0.2,0.4,0.4,0.5c0.3,0.1,0.9,0,1-0.1
					c0.1-0.1,0.5-0.4,0.7-0.5c0.1-0.1,0.7-0.5,0.7-0.5s-0.3-0.3-0.5-0.4c-0.1-0.1-0.4-0.4-0.5-0.5c-0.1-0.1-0.7-0.3-0.9-0.3
					c-0.2,0-0.8-0.2-0.8-0.2s0.3-0.1,0.4-0.2c0.1-0.1,0.3-0.3,0.4-0.3c0.1,0,0.1,0,0.1,0s-0.6,0-0.7-0.1c-0.1,0-0.4-0.3-0.6-0.3
					S47.5,42,47.5,42s0.3-0.2,0.6-0.3c0.3-0.1,0.5,0,0.5,0s-0.4-0.1-0.5-0.3c-0.1-0.2-0.2-0.4-0.3-0.5c-0.1-0.1-0.1-0.3-0.3-0.3
					c-0.1,0-0.4,0.2-0.5,0.2c-0.1,0-0.2-0.1-0.3-0.3c0-0.2,0-0.1-0.1-0.3c-0.1-0.1-0.3-0.4-0.1-0.4c0.2-0.1,0.6,0,0.6,0
					c0-0.1-0.2-0.3-0.4-0.4c-0.2-0.1-0.4-0.2-0.3-0.4c0.1-0.1,0.3-0.2,0.4-0.3c0.1-0.1,0.2-0.4,0.3-0.3c0.2,0.1,0.4,0.6,0.5,0.6
					c0.1,0,0.1-0.4,0.1-0.5c0-0.2,0-0.4,0.1-0.4c0.1,0,0.2,0.2,0.4,0.2c0.2,0,0.5-0.1,0.5,0.1c0,0.2-0.1,0.3-0.3,0.5
					c-0.1,0.2-0.2,0.5-0.1,0.7c0.1,0.2,0.3,0.6,0.5,0.7c0.2,0.1,0.6,0.2,0.8,0.4c0.2,0.2,0.8,0.6,1,0.7c0.2,0.1,0.4,0.2,0.4,0.2
					s0.2-0.1,0.5-0.1c0.3,0,1,0.1,1.2-0.1c0.3-0.1,0.6-0.3,0.5-0.5c-0.1-0.2-0.7-0.5-0.6-0.6c0.1-0.2,0.3-0.2,0.6-0.2
					c0.3,0,0.8,0.1,0.9-0.4c0.1-0.5,0.1-0.8-0.4-0.9c-0.5-0.1-0.8-0.1-0.9-0.5c-0.1-0.4-0.2-0.5-0.1-0.6c0.1-0.1,0.3-0.2,0.6-0.2
					c0.4,0,0.8,0,0.9-0.1c0.1-0.1,0.1-0.3,0.3-0.4c0.1-0.1,0.7-0.2,0.7-0.2s0.7,0.3,1.3,0.8C57.4,37.8,57.8,38.4,57.8,38.4z"/>
        <path class="st59" d="M53.1,38.1c0,0-0.1-0.2-0.1-0.3c0-0.1-0.1-0.1-0.1-0.1s0.4,0,0.4,0.1c0,0.1-0.1,0.1-0.2,0.2
					C53.2,38,53.1,38.1,53.1,38.1z"/>
        <path class="st60" d="M54.9,37.4l0-0.2c0,0,0.3,0,0.5,0.1c0.3,0.2,0.4,0.5,0.4,0.5c0,0-0.2-0.1-0.4-0.2c0,0-0.1,0-0.2,0
					c-0.1,0-0.2-0.1-0.2-0.1c0-0.1,0-0.1,0-0.1L54.9,37.4z"/>
        <path class="st8" d="M57.4,40.3c0,0-0.2-0.2-0.2-0.3c0-0.1-0.1-0.2-0.1-0.2"/>
        <path class="st22" d="M48.1,38c0,0,0.2,0.2,0.4,0.2c0.2,0,0.3,0,0.4,0c0,0,0.1-0.3,0.1-0.4c-0.1-0.6-0.6-0.7-0.6-0.7
					s0.1,0.3,0.1,0.5C48.3,37.8,48.1,38,48.1,38z"/>
        <path class="st22" d="M47,38.5c0,0-0.2-0.4-0.6-0.3c-0.4,0.1-0.7,0.4-0.7,0.4s0.5,0,0.6,0.1c0.2,0.1,0.2,0.4,0.2,0.4
					s0.2-0.2,0.3-0.3C46.9,38.7,47,38.5,47,38.5z"/>
        <path class="st22" d="M46.5,40c0,0-0.3,0.1-0.5,0.3c-0.2,0.2-0.2,0.7-0.2,0.7s0.2-0.3,0.4-0.3c0.2,0,0.5,0.1,0.5,0.1
					s-0.1-0.3-0.1-0.4C46.7,40.2,46.5,40,46.5,40z"/>
        <path class="st55" d="M53.5,39.9"/>
        <polygon class="st59" points="53.1,39.9 53.3,39.7 53.4,39.9"/>
        <polygon class="st59" points="53.5,39.9 53.7,39.7 53.9,39.9"/>
        <polygon class="st59" points="53.3,38.4 53.7,38.5 53.4,38.7"/>
        <polygon class="st59" points="53.8,38.5 54.1,38.6 53.9,38.8"/>
        <path class="st13" d="M51.3,41.4c0,0-0.4,0.1-0.5,0.3c-0.2,0.3-0.2,0.5-0.2,0.5s0.3-0.3,0.7-0.2c0.4,0.1,0.4,0.2,0.6,0.1
					c0.2,0,0.6-0.2,0.6-0.2s-0.3,0.4-0.3,0.7c0,0.3,0.1,0.4,0.1,0.5c0,0.3-0.3,0.8-0.3,0.8s0.1-0.1,0.5-0.2c0.3-0.1,0.6-0.2,0.8-0.4
					c0.2-0.1,0.4-0.5,0.4-0.5s-0.1,0.5,0,0.7c0.1,0.2,0.1,0.8,0.1,0.8s0.2-0.2,0.4-0.3c0.1-0.1,0.3-0.2,0.4-0.3
					c0.1-0.1,0.1-0.5,0.1-0.5s0.1,0.4,0.2,0.6c0.1,0.2,0.3,0.8,0.3,0.8s0.1-0.4,0.3-0.6c0.1-0.2,0.3-0.4,0.3-0.5c0-0.1,0-0.4,0-0.4
					l0.2,0.4"/>
        <path class="st13" d="M50.8,44c0,0,0.2-0.4,0.4-0.5c0.2-0.1,0.5-0.4,0.6-0.4c0.1,0,0.4-0.2,0.4-0.2"/>
        <path class="st13" d="M52.7,45.4c0,0,0.5-0.3,0.6-0.4c0.3-0.2,0.5-0.5,0.5-0.5"/>
        <path class="st22" d="M47.7,44.7c0,0-0.2-0.2-0.5-0.2c-0.3,0.1-0.6,0.5-0.6,0.5s0.3-0.1,0.4,0c0.2,0,0.3,0.2,0.3,0.2
					s0.2-0.1,0.2-0.2C47.6,44.9,47.7,44.7,47.7,44.7z"/>
        <path class="st22" d="M47.3,46.1c0,0-0.3-0.1-0.5,0.2c-0.2,0.2-0.3,0.6-0.3,0.6s0.2-0.2,0.4-0.2c0.2,0,0.4,0.1,0.4,0.1
					s0-0.2,0.1-0.3C47.4,46.3,47.3,46.1,47.3,46.1z"/>
        <path class="st22" d="M48,47.4c0,0,0,0.4,0.2,0.6c0.2,0.2,0.5,0.3,0.5,0.3s-0.1-0.3-0.1-0.4c0-0.2,0.2-0.4,0.2-0.4
					s-0.2-0.2-0.3-0.2C48.2,47.4,48,47.4,48,47.4z"/>
        <path class="st13" d="M55.5,48.1c0,0,0.9,0.6,0.9,1.1c0,0.5-0.5,1.1-0.5,1.1"/>
        <path class="st22" d="M51.3,50.7c0,0-0.2-0.3-0.6-0.3c-0.3,0-0.7,0.3-0.7,0.3s0.4,0,0.5,0.1c0.1,0.1,0.2,0.3,0.2,0.3
					s0.2-0.1,0.3-0.2C51.1,51,51.3,50.7,51.3,50.7z"/>
        <path class="st22" d="M50.3,52.1c0,0-0.4-0.1-0.6,0.2c-0.2,0.2-0.2,0.6-0.2,0.6s0.3-0.3,0.5-0.3s0.5,0.2,0.5,0.2s0-0.3-0.1-0.4
					C50.4,52.3,50.3,52.1,50.3,52.1z"/>
        <path class="st22" d="M51.2,53.5c0,0-0.2,0.3-0.1,0.5c0.2,0.2,0.5,0.4,0.5,0.4s-0.1-0.2-0.1-0.4c0-0.2,0.3-0.4,0.3-0.4
					L51.2,53.5z"/>
        <path class="st22" d="M56.8,54c0,0-0.4-0.1-0.6,0c-0.2,0.1-0.4,0.7-0.4,0.7s0.3-0.3,0.6-0.3c0.2,0,0.4,0.1,0.4,0.1s0-0.2,0-0.4
					C56.9,54.2,56.8,54,56.8,54z"/>
        <path class="st22" d="M57,55.4c0,0-0.3,0.3-0.2,0.6c0.1,0.3,0.3,0.5,0.3,0.5s0-0.4,0.1-0.5c0.2-0.2,0.5-0.2,0.5-0.2
					s-0.2-0.2-0.3-0.3C57.3,55.6,57,55.4,57,55.4z"/>
        <path class="st22" d="M58.4,55.9c0,0-0.1,0.4,0.1,0.6c0.3,0.2,0.5,0.3,0.5,0.3s-0.2-0.4-0.1-0.6c0.1-0.2,0.2-0.3,0.2-0.3
					s-0.3-0.1-0.4-0.1C58.7,55.7,58.4,55.9,58.4,55.9z"/>
        <path class="st61" d="M44,82c0.9,0.3,1.4,1,1.4,1.9c0,1.1-1,2-2.4,2c-1.4,0-2.5-0.8-2.5-2c0-0.8,0.5-1.8,1.4-1.9
					c0,0,0-0.1-0.1-0.2c-0.1-0.1-0.3-0.3-0.3-0.3s0.4-0.1,0.6,0c0.2,0.1,0.3,0.2,0.3,0.2s0.1-0.2,0.2-0.4c0.1-0.2,0.3-0.3,0.3-0.3
					s0.2,0.2,0.3,0.3c0.1,0.1,0.1,0.3,0.1,0.3s0.2-0.2,0.4-0.2c0.2-0.1,0.4-0.1,0.4-0.1s-0.1,0.2-0.1,0.3C44,81.8,44,82,44,82z"/>
        <path class="st62" d="M42.8,87.1c0,0-1.8-1.3-2.6-1.4c-1-0.2-2.1,0-2.6-0.1c0,0,0.6,0.4,0.8,0.7c0.2,0.3,1.1,0.8,1.6,0.9
					C41.5,87.6,42.8,87.1,42.8,87.1z"/>
        <path class="st62" d="M43.4,87.2c0,0,1.2-1.2,2.4-1.4c1.4-0.2,2.4,0.1,2.9,0.3c0,0-0.5,0.2-0.7,0.4c-0.2,0.2-0.9,0.7-1.9,0.8
					c-1,0-2.1-0.1-2.3-0.1C43.6,87.2,43.4,87.2,43.4,87.2z"/>
        <path class="st53" d="M43,85.7c-0.5-0.4-0.7-1.1-0.7-1.7c0-0.7,0.3-1.3,0.7-1.7c0.5,0.4,0.7,1.1,0.7,1.7
					C43.7,84.6,43.5,85.2,43,85.7z"/>
        <path class="st62" d="M42.5,88.2c0,0,0.3-0.7,0.3-1.3c0-0.5-0.1-1-0.1-1s0.2,0,0.2,0c0.1,0,0.1,0,0.1,0s0.2,0.5,0.2,1
					c0,0.5-0.1,1.1-0.1,1.1s-0.2,0-0.3,0.1C42.8,88.1,42.5,88.2,42.5,88.2z"/>
        <path class="st47" d="M65.3,20.4c0-0.3,0.2-0.5,0.5-0.5c0.3,0,0.5,0.2,0.5,0.5c0,0.3-0.2,0.5-0.5,0.5
					C65.6,20.9,65.3,20.6,65.3,20.4z"/>
        <path class="st47"
              d="M66,19.1c0-0.3,0.2-0.5,0.5-0.5c0.3,0,0.5,0.2,0.5,0.5c0,0.3-0.2,0.5-0.5,0.5C66.2,19.6,66,19.4,66,19.1z"
        />
        <path class="st47" d="M66.5,17.7c0-0.3,0.2-0.5,0.5-0.5c0.3,0,0.5,0.2,0.5,0.5c0,0.3-0.2,0.5-0.5,0.5
					C66.7,18.2,66.5,18,66.5,17.7z"/>
        <path class="st47" d="M66.5,16.1c0-0.3,0.2-0.5,0.5-0.5c0.3,0,0.5,0.2,0.5,0.5c0,0.3-0.2,0.5-0.5,0.5
					C66.7,16.6,66.5,16.4,66.5,16.1z"/>
        <path class="st47" d="M66.2,14.6c0-0.3,0.2-0.5,0.5-0.5c0.3,0,0.5,0.2,0.5,0.5c0,0.3-0.2,0.5-0.5,0.5
					C66.4,15.1,66.2,14.9,66.2,14.6z"/>
        <path class="st47" d="M65.4,13.2c0-0.3,0.2-0.5,0.5-0.5c0.3,0,0.5,0.2,0.5,0.5c0,0.3-0.2,0.5-0.5,0.5
					C65.6,13.7,65.4,13.5,65.4,13.2z"/>
        <path class="st47" d="M64.4,12.1c0-0.3,0.2-0.5,0.5-0.5c0.3,0,0.5,0.2,0.5,0.5c0,0.3-0.2,0.5-0.5,0.5
					C64.6,12.6,64.4,12.3,64.4,12.1z"/>
        <path class="st47" d="M63.2,11.1c0-0.3,0.2-0.5,0.5-0.5c0.3,0,0.5,0.2,0.5,0.5c0,0.3-0.2,0.5-0.5,0.5
					C63.4,11.6,63.2,11.4,63.2,11.1z"/>
        <path class="st47"
              d="M61.8,10.3c0-0.3,0.2-0.5,0.5-0.5s0.5,0.2,0.5,0.5c0,0.3-0.2,0.5-0.5,0.5S61.8,10.6,61.8,10.3z"/>
        <path class="st47" d="M60.3,9.8c0-0.3,0.2-0.5,0.5-0.5c0.3,0,0.5,0.2,0.5,0.5c0,0.3-0.2,0.5-0.5,0.5
					C60.5,10.3,60.3,10.1,60.3,9.8z"/>
        <path class="st47"
              d="M58.7,9.5c0-0.3,0.2-0.5,0.5-0.5c0.3,0,0.5,0.2,0.5,0.5c0,0.3-0.2,0.5-0.5,0.5C58.9,10,58.7,9.8,58.7,9.5z"/>
        <path class="st47"
              d="M57.1,9.4c0-0.3,0.2-0.5,0.5-0.5c0.3,0,0.5,0.2,0.5,0.5c0,0.3-0.2,0.5-0.5,0.5C57.3,9.9,57.1,9.7,57.1,9.4z"/>
        <path class="st47"
              d="M55.6,9.5c0-0.3,0.2-0.5,0.5-0.5c0.3,0,0.5,0.2,0.5,0.5c0,0.3-0.2,0.5-0.5,0.5C55.8,9.9,55.6,9.7,55.6,9.5z"/>
        <path class="st47"
              d="M54.1,9.5c0-0.3,0.2-0.5,0.5-0.5C54.8,9,55,9.2,55,9.5c0,0.3-0.2,0.5-0.5,0.5C54.3,9.9,54.1,9.7,54.1,9.5z"/>
        <path class="st47" d="M54.8,10.8c0-0.3,0.2-0.5,0.5-0.5c0.3,0,0.5,0.2,0.5,0.5c0,0.3-0.2,0.5-0.5,0.5
					C55,11.3,54.8,11.1,54.8,10.8z"/>
        <path class="st47" d="M55.1,12.3c0-0.3,0.2-0.5,0.5-0.5c0.3,0,0.5,0.2,0.5,0.5c0,0.3-0.2,0.5-0.5,0.5
					C55.4,12.8,55.1,12.6,55.1,12.3z"/>
        <path class="st47" d="M55.2,13.8c0-0.3,0.2-0.5,0.5-0.5c0.3,0,0.5,0.2,0.5,0.5c0,0.3-0.2,0.5-0.5,0.5
					C55.4,14.3,55.2,14.1,55.2,13.8z"/>
        <path class="st47" d="M54.7,15.2c0-0.3,0.2-0.5,0.5-0.5c0.3,0,0.5,0.2,0.5,0.5c0,0.3-0.2,0.5-0.5,0.5
					C55,15.7,54.7,15.5,54.7,15.2z"/>
        <path class="st47" d="M53.9,16.4c0-0.3,0.2-0.5,0.5-0.5c0.3,0,0.5,0.2,0.5,0.5c0,0.3-0.2,0.5-0.5,0.5
					C54.1,16.9,53.9,16.7,53.9,16.4z"/>
        <path class="st47"
              d="M52.9,8.5c0-0.3,0.2-0.5,0.5-0.5c0.3,0,0.5,0.2,0.5,0.5c0,0.3-0.2,0.5-0.5,0.5C53.1,9,52.9,8.8,52.9,8.5z"
        />
        <path class="st47"
              d="M51.5,7.7c0-0.3,0.2-0.5,0.5-0.5c0.3,0,0.5,0.2,0.5,0.5c0,0.3-0.2,0.5-0.5,0.5C51.8,8.2,51.5,8,51.5,7.7z"
        />
        <path class="st47"
              d="M50,7.3c0-0.3,0.2-0.5,0.5-0.5C50.8,6.8,51,7,51,7.3c0,0.3-0.2,0.5-0.5,0.5C50.3,7.7,50,7.5,50,7.3z"/>
        <ellipse class="st47" cx="49" cy="7" rx="0.5" ry="0.5"/>
        <path class="st47" d="M47,7c0-0.3,0.2-0.5,0.5-0.5S48,6.7,48,7s-0.2,0.5-0.5,0.5S47,7.3,47,7z"/>
        <path class="st47"
              d="M45.4,7.3c0-0.3,0.2-0.5,0.5-0.5c0.3,0,0.5,0.2,0.5,0.5c0,0.3-0.2,0.5-0.5,0.5C45.6,7.8,45.4,7.6,45.4,7.3z"/>
        <path class="st47"
              d="M43.9,7.8c0-0.3,0.2-0.5,0.5-0.5c0.3,0,0.5,0.2,0.5,0.5c0,0.3-0.2,0.5-0.5,0.5C44.1,8.3,43.9,8.1,43.9,7.8z"/>
        <path class="st47" d="M19.1,20.4c0-0.3,0.2-0.5,0.5-0.5c0.3,0,0.5,0.2,0.5,0.5c0,0.3-0.2,0.5-0.5,0.5
					C19.3,20.9,19.1,20.6,19.1,20.4z"/>
        <path class="st47" d="M18.4,19.1c0-0.3,0.2-0.5,0.5-0.5c0.3,0,0.5,0.2,0.5,0.5c0,0.3-0.2,0.5-0.5,0.5
					C18.6,19.6,18.4,19.4,18.4,19.1z"/>
        <path class="st47" d="M17.9,17.7c0-0.3,0.2-0.5,0.5-0.5c0.3,0,0.5,0.2,0.5,0.5c0,0.3-0.2,0.5-0.5,0.5
					C18.2,18.2,17.9,18,17.9,17.7z"/>
        <path class="st47" d="M17.9,16.1c0-0.3,0.2-0.5,0.5-0.5c0.3,0,0.5,0.2,0.5,0.5c0,0.3-0.2,0.5-0.5,0.5
					C18.1,16.6,17.9,16.4,17.9,16.1z"/>
        <path class="st47" d="M18.3,14.6c0-0.3,0.2-0.5,0.5-0.5c0.3,0,0.5,0.2,0.5,0.5c0,0.3-0.2,0.5-0.5,0.5
					C18.5,15.1,18.3,14.9,18.3,14.6z"/>
        <path class="st47"
              d="M19,13.2c0-0.3,0.2-0.5,0.5-0.5c0.3,0,0.5,0.2,0.5,0.5c0,0.3-0.2,0.5-0.5,0.5C19.2,13.7,19,13.5,19,13.2z"
        />
        <path class="st47"
              d="M20,12.1c0-0.3,0.2-0.5,0.5-0.5c0.3,0,0.5,0.2,0.5,0.5c0,0.3-0.2,0.5-0.5,0.5C20.3,12.6,20,12.3,20,12.1z"
        />
        <path class="st47" d="M21.2,11.1c0-0.3,0.2-0.5,0.5-0.5c0.3,0,0.5,0.2,0.5,0.5c0,0.3-0.2,0.5-0.5,0.5
					C21.4,11.6,21.2,11.4,21.2,11.1z"/>
        <path class="st47"
              d="M22.6,10.3c0-0.3,0.2-0.5,0.5-0.5s0.5,0.2,0.5,0.5c0,0.3-0.2,0.5-0.5,0.5S22.6,10.6,22.6,10.3z"/>
        <path class="st47" d="M24.1,9.8c0-0.3,0.2-0.5,0.5-0.5c0.3,0,0.5,0.2,0.5,0.5c0,0.3-0.2,0.5-0.5,0.5
					C24.3,10.3,24.1,10.1,24.1,9.8z"/>
        <path class="st47"
              d="M25.7,9.5C25.7,9.2,26,9,26.2,9c0.3,0,0.5,0.2,0.5,0.5c0,0.3-0.2,0.5-0.5,0.5C26,10,25.7,9.8,25.7,9.5z"/>
        <path class="st47"
              d="M27.3,9.4c0-0.3,0.2-0.5,0.5-0.5c0.3,0,0.5,0.2,0.5,0.5c0,0.3-0.2,0.5-0.5,0.5C27.5,9.9,27.3,9.7,27.3,9.4z"/>
        <path class="st47"
              d="M28.8,9.5c0-0.3,0.2-0.5,0.5-0.5c0.3,0,0.5,0.2,0.5,0.5c0,0.3-0.2,0.5-0.5,0.5C29.1,9.9,28.8,9.7,28.8,9.5z"/>
        <path class="st47"
              d="M30.4,9.5c0-0.3,0.2-0.5,0.5-0.5c0.3,0,0.5,0.2,0.5,0.5c0,0.3-0.2,0.5-0.5,0.5C30.6,9.9,30.4,9.7,30.4,9.5z"/>
        <path class="st47" d="M29.6,10.8c0-0.3,0.2-0.5,0.5-0.5c0.3,0,0.5,0.2,0.5,0.5c0,0.3-0.2,0.5-0.5,0.5
					C29.8,11.3,29.6,11.1,29.6,10.8z"/>
        <path class="st47" d="M29.3,12.3c0-0.3,0.2-0.5,0.5-0.5c0.3,0,0.5,0.2,0.5,0.5c0,0.3-0.2,0.5-0.5,0.5
					C29.5,12.8,29.3,12.6,29.3,12.3z"/>
        <path class="st47" d="M29.2,13.8c0-0.3,0.2-0.5,0.5-0.5c0.3,0,0.5,0.2,0.5,0.5c0,0.3-0.2,0.5-0.5,0.5
					C29.4,14.3,29.2,14.1,29.2,13.8z"/>
        <path class="st47" d="M29.7,15.2c0-0.3,0.2-0.5,0.5-0.5c0.3,0,0.5,0.2,0.5,0.5c0,0.3-0.2,0.5-0.5,0.5
					C29.9,15.7,29.7,15.5,29.7,15.2z"/>
        <path class="st47" d="M30.5,16.4c0-0.3,0.2-0.5,0.5-0.5c0.3,0,0.5,0.2,0.5,0.5c0,0.3-0.2,0.5-0.5,0.5
					C30.7,16.9,30.5,16.7,30.5,16.4z"/>
        <path class="st47"
              d="M31.5,8.5C31.5,8.2,31.7,8,32,8c0.3,0,0.5,0.2,0.5,0.5C32.5,8.8,32.3,9,32,9C31.7,9,31.5,8.8,31.5,8.5z"/>
        <path class="st47"
              d="M32.9,7.7c0-0.3,0.2-0.5,0.5-0.5c0.3,0,0.5,0.2,0.5,0.5c0,0.3-0.2,0.5-0.5,0.5C33.1,8.2,32.9,8,32.9,7.7z"
        />
        <path class="st47"
              d="M34.4,7.3c0-0.3,0.2-0.5,0.5-0.5c0.3,0,0.5,0.2,0.5,0.5c0,0.3-0.2,0.5-0.5,0.5C34.6,7.7,34.4,7.5,34.4,7.3z"/>
        <ellipse class="st47" cx="36.4" cy="7" rx="0.5" ry="0.5"/>
        <path class="st47"
              d="M37.4,7c0-0.3,0.2-0.5,0.5-0.5c0.3,0,0.5,0.2,0.5,0.5s-0.2,0.5-0.5,0.5C37.7,7.5,37.4,7.3,37.4,7z"/>
        <path class="st47"
              d="M39,7.3c0-0.3,0.2-0.5,0.5-0.5C39.8,6.8,40,7,40,7.3c0,0.3-0.2,0.5-0.5,0.5C39.2,7.8,39,7.6,39,7.3z"/>
        <path class="st47"
              d="M40.5,7.8c0-0.3,0.2-0.5,0.5-0.5c0.3,0,0.5,0.2,0.5,0.5c0,0.3-0.2,0.5-0.5,0.5C40.7,8.3,40.5,8.1,40.5,7.8z"/>
        <polygon class="st63" points="37.9,55.6 25.1,55.6 25.1,52.3 26.9,52.3 26.9,45.4 26.1,45.4 26.1,42.3 27.5,42.3 27.5,40.2
				26.9,40.2 26.9,38.6 27.5,38.6 27.5,39.1 28.1,39.1 28.1,38.6 28.8,38.6 28.8,39.1 29.4,39.1 29.4,38.6 30,38.6 30,40.2
				29.3,40.2 29.3,42.3 30.6,42.3 30.6,37.7 29.8,37.7 29.8,35.9 30.4,35.9 30.4,36.4 31.1,36.4 31.1,35.9 32,35.9 32,36.4
				32.7,36.4 32.7,35.9 33.3,35.9 33.3,37.7 32.4,37.7 32.4,42.3 33.7,42.3 33.7,40.2 33.1,40.2 33.1,38.6 33.6,38.6 33.6,39.1
				34.3,39.1 34.3,38.6 35,38.6 35,39.1 35.6,39.1 35.6,38.6 36.2,38.6 36.2,40.2 35.5,40.2 35.5,42.3 37,42.3 37,45.4 36.1,45.4
				36.1,52.3 37.9,52.3"/>
        <path class="st64" d="M28.2,47.7c0-0.3,0.2-0.6,0.6-0.6c0.3,0,0.6,0.3,0.6,0.6V49h-1.1L28.2,47.7z"/>
        <path class="st64" d="M33.7,47.7c0-0.3,0.2-0.6,0.6-0.6c0.3,0,0.6,0.3,0.6,0.6V49h-1.1L33.7,47.7z"/>
        <path class="st64" d="M30.3,53.6c0-0.7,0.5-1.2,1.2-1.2c0.7,0,1.2,0.5,1.2,1.2v2.1h-2.4L30.3,53.6z"/>
        <ellipse class="st65" cx="42.9" cy="59.2" rx="7.4" ry="8.6"/>
        <path class="st66" d="M37.7,59.1c0-3.5,2.3-6.3,5.2-6.3c2.9,0,5.2,2.8,5.2,6.3c0,3.5-2.3,6.3-5.2,6.3
				C40,65.5,37.7,62.6,37.7,59.1z"/>
        <path class="st67" d="M40.4,54.8c0,0-0.6,0.7-0.6,1.4c0,0.7,0.3,1.2,0.3,1.2c-0.1-0.3-0.3-0.4-0.6-0.4c-0.4,0-0.7,0.3-0.7,0.7
					c0,0.1,0.1,0.3,0.1,0.4l0.2,0.5c0.1-0.2,0.2-0.3,0.4-0.3c0.3,0,0.5,0.2,0.5,0.5c0,0,0,0.1,0,0.1l-0.6,0v0.5l0.5,0L39.6,60
					l0.5-0.2l0.4,0.4l0.4-0.4l0.5,0.2l-0.4-0.8l0.5,0v-0.5l-0.6,0c0,0,0-0.1,0-0.1c0-0.3,0.2-0.5,0.5-0.5c0.2,0,0.4,0.1,0.4,0.3
					l0.2-0.5c0-0.1,0.1-0.3,0.1-0.4c0-0.4-0.3-0.7-0.7-0.7c-0.3,0-0.5,0.2-0.6,0.4c0,0,0.3-0.5,0.3-1.2
					C41.1,55.5,40.4,54.8,40.4,54.8z"/>
        <rect x="39.5" y="58.7" class="st67" width="2" height="0.5"/>
        <path class="st67" d="M45.3,54.8c0,0-0.6,0.7-0.6,1.4c0,0.7,0.3,1.2,0.3,1.2c-0.1-0.3-0.3-0.4-0.6-0.4c-0.4,0-0.7,0.3-0.7,0.7
					c0,0.1,0.1,0.3,0.1,0.4l0.2,0.5c0.1-0.2,0.2-0.3,0.4-0.3c0.3,0,0.5,0.2,0.5,0.5c0,0,0,0.1,0,0.1l-0.6,0v0.5l0.5,0L44.4,60
					l0.5-0.2l0.4,0.4l0.4-0.4l0.5,0.2l-0.4-0.8l0.5,0v-0.5l-0.6,0c0,0,0-0.1,0-0.1c0-0.3,0.2-0.5,0.5-0.5c0.2,0,0.4,0.1,0.4,0.3
					l0.2-0.5c0-0.1,0.1-0.3,0.1-0.4c0-0.4-0.3-0.7-0.7-0.7c-0.3,0-0.5,0.2-0.6,0.4c0,0,0.3-0.5,0.3-1.2
					C45.9,55.5,45.3,54.8,45.3,54.8z"/>
        <rect x="44.3" y="58.7" class="st67" width="2" height="0.5"/>
        <path class="st67" d="M42.9,59.1c0,0-0.6,0.7-0.6,1.4c0,0.7,0.3,1.2,0.3,1.2c-0.1-0.3-0.3-0.4-0.6-0.4c-0.4,0-0.7,0.3-0.7,0.7
					c0,0.1,0.1,0.3,0.1,0.4l0.2,0.5c0.1-0.2,0.2-0.3,0.4-0.3c0.3,0,0.5,0.2,0.5,0.5c0,0,0,0.1,0,0.1l-0.6,0v0.5l0.5,0L42,64.3
					l0.5-0.2l0.4,0.4l0.4-0.4l0.5,0.2l-0.4-0.8l0.5,0V63l-0.6,0c0,0,0-0.1,0-0.1c0-0.3,0.2-0.5,0.5-0.5c0.2,0,0.4,0.1,0.4,0.3
					l0.2-0.5c0-0.1,0.1-0.3,0.1-0.4c0-0.4-0.3-0.7-0.7-0.7c-0.3,0-0.5,0.2-0.6,0.4c0,0,0.3-0.5,0.3-1.2
					C43.5,59.8,42.9,59.1,42.9,59.1z"/>
        <rect x="41.9" y="63" class="st67" width="2" height="0.5"/>
        <path class="st4" d="M57.6,36.4l-0.1,0c0,0-0.1,0.1-0.1,0.2c-0.1,0.1-0.3,0.1-0.4,0c-0.1,0-0.1-0.1-0.1-0.2c-0.1,0-0.2,0-0.2,0
				c-0.1-0.1-0.1-0.2-0.1-0.4c0,0,0-0.1,0-0.1l0-0.2l-0.2,0l0,0.1c-0.1,0.1-0.2,0.1-0.3,0.1c0,0-0.1-0.1-0.1-0.1c0,0,0,0-0.1,0.1
				c-0.2,0.1-0.3-0.5-0.3-0.6l-0.1,0.1c0,0,0.1,0.3,0,0.6c0,0.3-0.1,0.6-0.1,0.6c0.3,0.1,0.8,0.4,1.3,0.8c0.5,0.4,0.9,0.8,1.1,1.1
				c0,0,0.3-0.1,0.5-0.2c0.3-0.1,0.6-0.1,0.6-0.1l0.1-0.1c-0.1,0-0.7,0-0.7-0.2c0,0,0-0.1,0-0.1c0,0-0.1,0-0.1,0
				c-0.1-0.1-0.1-0.2,0-0.3l0.1-0.1l0-0.2l-0.2,0c0,0,0,0-0.1,0.1c-0.1,0.1-0.3,0.1-0.4,0c-0.1-0.1-0.1-0.1-0.1-0.2
				c-0.1,0-0.1,0-0.2,0c-0.1-0.1-0.1-0.2,0-0.4c0-0.1,0.1-0.1,0.1-0.2L57.6,36.4z"/>
        <path class="st60"
              d="M56.6,36.7c0,0,0.1,0,0.1,0c0,0,0,0.1,0,0.1c0,0-0.1,0-0.1,0C56.6,36.8,56.5,36.8,56.6,36.7z"/>
        <path class="st60"
              d="M57,37.1L56.8,37c0,0,0-0.1,0-0.1c0,0,0.1,0,0.1,0L57,37.1l0.2,0c0,0,0,0.1,0,0.1c0,0-0.1,0-0.1,0L57,37.1z"/>
        <path class="st60"
              d="M56.2,36.5l-0.1-0.1c0,0,0-0.1,0-0.1c0,0,0,0,0.1,0L56.2,36.5l0.2,0c0,0,0,0.1,0,0.1s0,0-0.1,0L56.2,36.5z"
        />
        <path class="st60"
              d="M55.7,36.2c0,0,0.1,0,0.1,0c0,0,0,0.1,0,0.1c0,0-0.1,0-0.1,0C55.7,36.3,55.7,36.2,55.7,36.2z"/>
        <path class="st60"
              d="M57.5,37.5c0,0,0-0.1,0-0.1c0,0-0.1,0-0.1,0c0,0,0,0.1,0,0.1C57.4,37.5,57.4,37.5,57.5,37.5z"/>
        <path class="st60" d="M57.7,37.8L57.7,37.8c0.1,0.1,0.2,0.1,0.2,0.1c0,0,0-0.1,0-0.1L57.7,37.8l0-0.2c0,0-0.1,0-0.1,0
				S57.6,37.6,57.7,37.8L57.7,37.8z"/>
        <path class="st60" d="M58.2,38.1c0,0,0-0.1,0-0.1c0,0-0.1,0-0.1,0c0,0,0,0.1,0,0.1S58.1,38.2,58.2,38.1z"/>
        <polygon class="st4" points="56.9,35.3 56.6,35.3 56.6,35.7 56.6,35.8 56.7,35.8 57,35.5"/>
        <polygon class="st4" points="56.2,35.5 56.2,35.8 56.6,35.8 56.7,35.8 56.7,35.7 56.4,35.4"/>
        <polygon class="st4" points="57,36 56.8,36.2 56.6,35.8 56.6,35.8 56.6,35.7 57.1,35.8"/>
        <path class="st4"
              d="M56.5,35.7c0-0.1,0.1-0.1,0.2,0c0.1,0,0.1,0.1,0,0.2c0,0.1-0.1,0.1-0.2,0C56.5,35.9,56.5,35.8,56.5,35.7z"
        />
        <path class="st18" d="M55.5,35.3c0,0-0.1-0.2-0.1-0.3c0-0.1-0.2-0.2-0.2-0.2c0,0,0.2-0.1,0.4,0C55.8,35,55.6,35.2,55.5,35.3
					C55.6,35.2,55.6,35.3,55.5,35.3z"/>

        <polygon class="st4" points="56,35.4 55.8,35.6 55.5,35.3 55.5,35.3 55.5,35.2 56,35.2"/>
        <path class="st4"
              d="M55.5,35.3c0-0.1,0.1-0.1,0.1-0.1c0,0,0.1,0.1,0,0.2c0,0.1-0.1,0.1-0.1,0.1C55.5,35.4,55.5,35.3,55.5,35.3z"/>
        <polygon class="st4" points="57.9,36 57.7,35.9 57.6,36.3 57.6,36.4 57.6,36.4 58,36.2"/>
        <polygon class="st4" points="57.2,36.1 57.1,36.3 57.5,36.5 57.6,36.4 57.6,36.4 57.4,36"/>
        <polygon class="st4" points="58,36.7 57.7,36.8 57.5,36.4 57.5,36.4 57.6,36.4 58,36.5"/>
        <path class="st4"
              d="M57.5,36.3c0-0.1,0.1-0.1,0.2,0c0.1,0,0.1,0.1,0,0.2c0,0.1-0.1,0.1-0.2,0C57.4,36.5,57.4,36.4,57.5,36.3z"
        />
        <polygon class="st4" points="58.8,36.8 58.9,37.1 58.5,37.2 58.4,37.2 58.4,37.2 58.6,36.8"/>
        <polygon class="st4" points="58.8,37.6 58.5,37.6 58.4,37.3 58.4,37.2 58.5,37.2 58.8,37.3"/>
        <polygon class="st4" points="58.1,36.9 58,37.1 58.4,37.3 58.4,37.3 58.5,37.2 58.3,36.8"/>
        <path class="st4"
              d="M58.5,37.3c0.1,0,0.1-0.1,0-0.2c0-0.1-0.1-0.1-0.2,0c-0.1,0-0.1,0.1,0,0.2C58.4,37.4,58.4,37.4,58.5,37.3z"
        />
        <path class="st18" d="M59.1,38.2c0,0,0.2,0,0.4,0c0.1,0,0.2,0.1,0.2,0.1c0,0,0.1-0.2-0.1-0.4c-0.2-0.1-0.4,0.1-0.4,0.1
					S59.1,38.1,59.1,38.2z"/>
        <polygon class="st4" points="58.9,37.7 58.7,38 59.1,38.2 59.1,38.2 59.2,38.1 59.1,37.7"/>
        <path class="st4"
              d="M59.2,38.2c0.1,0,0.1-0.1,0.1-0.1c0,0-0.1,0-0.2,0c-0.1,0-0.1,0.1-0.1,0.1C59,38.2,59.1,38.3,59.2,38.2z"
        />
    </g>
</svg>