<svg width="1500" height="750" clip-rule="evenodd" fill-rule="evenodd" image-rendering="optimizeQuality"
  shape-rendering="geometricPrecision" text-rendering="geometricPrecision" viewBox="0 0 39688 19844"
  xmlns="http://www.w3.org/2000/svg">
  <defs>
    <style>
      .prefix__fil4 {
        fill: red
      }

      .prefix__fil2,
      .prefix__fil3 {
        fill: #00246b;
        fill-rule: nonzero
      }

      .prefix__fil2 {
        fill: #deb500
      }
    </style>
  </defs>
  <path stroke-width=".939" fill="#fff" d="M0 0h39688v19844H0z" />
  <path
    d="M22496.347 12432.523c0 309.79-281.014 438.954-495.547 438.954h-1712.225c-220.01 12.158-298.33 213.427-372.724 355.302-70.05-148.69-160.208-351.56-378.687-355.302h-1821.396c-322.366 0-525.652-249.572-525.652-535.54V6553.734l5306.154-.01z"
    stroke="#00246b" fill="none" stroke-width="102.6074765" stroke-miterlimit="22.926" />
  <path class="prefix__fil2"
    d="M22496.347 6552.784v5879.448c0 309.791-281.014 438.954-495.547 438.954h-1712.225c-163.883 3.743-282.527 153.538-372.724 355.302-88.636-170.01-119.041-355.302-378.687-355.302h-1821.396c-322.366 0-525.652-249.571-525.652-535.54V6553.444zm0 .572v-.572z"
    fill="#f3b44d" />
  <path class="prefix__fil3"
    d="M21814.753 11620.04l344.326-4.925c63.506-13.622 73.647-79.154 55.536-125.964 172.299-72.202 57.252-205.894 133.818-218.042-2.347-23.676-25.025-48.982-51.367-57.514 22.561.04 55.846-21.786 58.822-42.747-137.957-51.764-99.805-263.272-96.072-464.24-265.492-162.148-260.208-325.604-377.049-586.665-41.332-92.33-110.208-219.128-212.108-315.162-79.552-74.966-214.212-317.993-12.71-319.36l347.864-2.366c229.163-1.56 317.402-109.908 317.11-281.354-.193-127.96-67.625-258.249-287.316-257.754l-925.435 2.055c-2.841-51.299-131.19-116.171-214.503 1.62-282.314-27.827-317.935-267.306-52.763-352.975-38.462 1.406-242.049-13.981-272.774 55.642-22.988-26.052-124.276-94.065-183.128-28.543-40.857-23.609-166.103-43.901-178.213-1.6-40.721-38.947-242.746-33.285-307.512-34.807 204.177 127.544 123.56 476.136 513.832 476.718l498.64.737c27.292 70.738 147.226 77.806 191.874-9.056l929.837 3.54c109.724-1.93 157.872 75.595 156.088 142.31-2.511 93.94-84.972 151.667-207.765 151.764l-807.519.64c5.303-21.418 21.66-52.385 19.527-90.178-47.79 53.49-82.402 64.717-156.185 64.775-144.366.117-269.273 2.056-413.251 2.637 10.18-26.4 14.902-49.515-7.863-76.778-21.602 54.76-130.24 48.671-181.83 48.865l-747.804 2.812c2.85-22.358 2.181-37.502-5.614-53.79-66.724 83.778-152.791 61.158-174.46 14.242-16.396-35.466-3.52-94.24 78.378-78.262 96.887 18.916 120.728-22.96 125.973-62.953 16.23-123.84-124.587-77.816-169.4-77.545-204.225 1.232-160.838-188.674 35.641-120.922 162.41 56.001 291.554-111.401 121.3-236.396 5.653-39.014-5.312-69.08-15.958-99.796l-288.5-1.163c-89.625-136.134-240.622-63.922-271.531-38.801-197.207-148.797-319.322 43.038-485.396-145.336-56.496 136.862 9.269 266.48 7.165 266.859-132.547 24.016-182.46 140.42-182.11 232.13-20.962 37.638-43.63 60.344-82.674 63.37 12.022 26.585 29.552 43.784 69.226 32.402-50.863 63.903-114.475 191.748-133.342 301.966-33.489 47.828-77.031 98.497-115.057 117.684 40.401 10.297 73.298 14.63 128.591-17.374-69.11 76.614-71.93 135.94-55.303 229.095-25.664 72.319-74.694 142.485-111.847 164.183l134.777-.892c-1.299 22.33-1.396 44.668.097 67.006l-432.923 1.561c-30.066-94.54-132.693-176.875-279.017-153.422 14.155-393.53-27.526-766.167 216.258-1208.059-61.15-4.819-115.454 5.255-165.357 21.573-16.996-73.89-87.55-198.438-115.823-219.836-5.293-4.014-103.906 120.97-129.114 223.151-48.042-20.884-98.148-24.132-165.095-28.32 65.211 167.635 224.392 413.736 229.366 1255.858-171.795 3.84-159.026 144.928-102.743 221.969-82.78 79.842-77.72 174.548-14.844 246.682-26.74 94.134 23.521 174.752 110.519 210.79l1.62 221.038c42.863-.417 86.29-.814 129.706-1.25l.455-214.223c63.137-8.512 140.4-55.4 215.008-116.636 10.422 19.497 20.205 54.13 3.752 85.495 16.182-.146 109.103-8.164 145.675-59.977l-2.182 49.195c41.458 2.026 145.927-23.453 153.509-103.276 61.518 59.297 162.778 107.339 307.347 105.06l.03 62.265c56.146 6.117 84.922 13.447 127.66-27.38 78.379 91.535 91.322 230.646 40.925 246.236-.689 10.452 42.292-2.24 67.626 30.434L18356 11197.578c-58.454 66.725-111.391 102.21-200.3 161.023-182.284 2.783-316.596 43.562-302.634 277.786 36.038 2.647 117.693-13.467 157.91-41.031 3.568 10.52 11.625 36.135 15.765 46.635 31.54-1.29 111.508.087 154.566-36.659l5.187 33.081c60.063-2.462 102.84-4.74 177.515-36.959 171.27 44.367 333.855-.349 283.67-190.943 62.44 12.526 130.715-2.133 166.055-64.727-24.18-11.102-41.836-39.985-38.074-61.547 73.502 8.949 121.388-22.736 141.4-68.538-26.712.611-62.188-22.678-55.536-103.325 244.491-106.282 345.373-239.876 456.541-319.437 72.445 76.245 175.954 29.164 203.615-3.51-2.346-25.557-1.134-51.28-18.964-71.786 55.167 22 101.182 26.838 173.889-4.624.32-22.659 2.899-21.156-5.779-54.189 19.915 7.05 52.191 11.907 102.298 2.56-.243-43.397-8.581-84.011-18.51-98.584 346.644-19.827 513.27-117.907 695.314-177.505-4.77 386.54 312.951 545.45 287.258 729.751-10.985 78.737-143.009 188.743-227.592 245.8-238.2-2.937-290.225 110.985-283.972 265.095 56.254 4.46 121.582-11.17 166.365-36.397l10.559 40.042c109.704-11.217 244.889-15.764 345.353-81.694 80.648 80.89 256.36 73.347 208.696-105.865 51.173-6.515 108.493-73.094 46.635-121.756 34.478 6.273 78.166-10.103 96.5-57.349-30.056-31.772-58.29-64.679-47.945-106.96 19.217-78.544 123.21-50.165 154.42-150.417-153.605-100.145-87.51-380.742-10.267-569.407 73.153 156.32 171.349 237.046 429.268 366.393 178.572 7.378 517.217 329.715 92.496 546.981-126.284-4.615-317.198 49.835-185.805 264.61l88.53-22.435c-3.908 10.432 5.468 25.722 19.235 36.775l175.179-37.803z"
    fill="#133a84" />
  <g fill="#f3b44d">
    <path class="prefix__fil2"
      d="M22024.176 11393.166c2.24.058 10.016-6.419 10.481-8.959 4.004-22.368-22.183-23.657-131.762-22-50.824.777-79.173-3.257-114.523-15.192 29.368-61.004 162.031-63.69 183.468-217.683 16.53-118.76-72.232-206.553-170.243-299.892-97.275-92.63-220.922-130.57-315.705-167.402-231.005-89.79-285.6-421.677-510.905-489.42-70.01-21.048-127.815-24.16-159.471-19.652-48.904 6.951-101.667 23.676-155.826 50.106-256.689 125.237-632.806 299.358-990.008 312.001 166.23-124.315 193.047-228.212 198.593-373.005 75.218-.698 320.533 5.43 322.58-205.08l281.799.33c323.888.379 390.486-67.519 398.747-214.774 132.45-30.58 172.764-110.878 177.553-222.638 73.59-8.968 112.41-69.643 124.239-131.965l842.354 3.267c278.61 1.086 259.762-355.117 30.027-355.418l-1013.664-1.299c-19.1-10.733-24.86-32.102-1.94-48.817 70.652-3.248 73.735 3.772 1009.108-2.715 175.343 8.31 254.003 120.942 253.111 238.49-.844 110.694-94.328 219.536-276.603 231.81l-470.813.553c-74.704-.66-124.636 33.187-127.264 106.262-6.806 188.704 337.51 352.82 405.33 539.332 22.242 61.14 51.784 155.341 101.202 245.277 45.666 83.1 87.473 180.685 127.166 257.299 36.766 70.952 78.602 100.833 40.935 163.059-10.481 17.316-20.875 21.068-49.98 22.745-115.716 6.652-341.36-138.83-490.942-413.755 75.712 220.088 233.012 363.368 384.718 460.788 60.732 38.996 116.413 55.556 156.407 73.793 110.907 50.59 136.775 170.902 134.08 214.31-10.22 164.26 47.507 229.356 9.462 261.458-6.99 5.885-30.958 16.22-46.655 20.292-33.982 8.794-38.394-8.813-34.04-69.225 2.394-33.489 11.508-112.148 14.601-214.95-68.8 121.427-95.675 236.648-62.439 345.684 13.283 2.065 32.606 15.367 36 33.43 9.569 51.037-102.434 84.864-154.314 89.256-61.382 5.188-129.823-25.12-138.326-74.034-8.319-47.848 27.603-105.323 173.491-101.667z" />
    <path class="prefix__fil2"
      d="M21779.85 11381.531c20.554-1.464 50.533 3.442 79.193 12.798-22.087-.02-41.875 8.687-63.264 89.761-6.457 24.5-21.572 50.02-45.51 52.181-11.49 1.038-31.899 2.705-38.889-.669-22.63-10.917-45.016-42.893-46.577-69.032-2.463-41.264 39.868-79.706 115.047-85.039z" />
    <path class="prefix__fil2"
      d="M21703.255 11387.348c-131.083 14.912-35.63 133.381-136.105 129.746-39.917-1.435-45.57-20.002-43.213-45.308 5.73-61.73 112.982-100.484 179.318-84.438zM20667.776 11365.049c-48.06-12.614-67.607-14.136-112.167-11.674 173.714-118.44 233.487-211.139 234.437-290.758 1.493-126.633-508.646-614.976-84.128-779.47 90.032 91.264 232.44 182.169 370.97 44.144l2.879 644.499c-141.72-2.095-191.865-125.276-231.49-285.271-1.706 224.034 32.945 284.165 129.24 356.048 26.48 19.769 28.448 42.36 27.497 66.705-1.095 28.107-9.637 58.55-46.548 89.635-29.63 24.946-79.134 223.588-55.642 290.448 6.7 19.09 5.41 46.044-2.366 53.364-22.969 23.22-54.227 25.111-75.508 6.961-37.57-32.014-16.938-172.958 77.37-316.742-99.97 80.366-144.075 200.716-159.259 269.651-12.982 11.49-110.17 37.405-170.592 43.843-87.424 9.317-126.274-34.952-124.384-76.701 4.645-102.016 137.929-89.45 204.391-72.668 25.945 6.554 40.052 7.766 44.503-7.213 4.256-14.32-16.696-21.515-29.203-24.801zM20342.007 11561.867c-84.341-62.177-2.463-156.252 76.701-159.277-5.517 12.051-7.204 28.272-6.409 45.278 2.182 46.431.912 98.535-70.292 114zM18573.548 11525.024c18.993-424.168 288.073-644.043 611.379-872.469-83.546 2.201-145.035-15.735-193.63-77.108-17.49 113.99-52.743 176.972-155.554 235.494.67-89.635-28.059-165.347-59.433-240.235-57.66 67.267-337.898 538.905-375.41 621.307 63.816-24.791 98.312-60.228 216.636-55.458 19.052.766 8.542 13.826-3.461 16.288-90.527 18.635-261.09 53.859-395.033 209.84 27.7 29.494 64.436 43.698 148.428 52.617-102.21 13.05-118.1 55.245-118.062 88.53.039 47.867 64.872 76.459 139.634 61.217 26.508 7.05 143.484 18.373 184.506-40.023z" />
    <path class="prefix__fil2"
      d="M18253.596 11423.222c-80.191-7.33-57.387 122.958-130.87 125.246-9.899.3-16.957.02-27.002-.562-112.496-75.683 34.516-186.483 157.872-124.684z" />
    <path class="prefix__fil2"
      d="M18100.407 11409.648c-133.43-24.084-198.563 44.638-192.242 87.715 2.637 17.898 12.895 31.927 35.088 33.304 6.467.398 13.341.437 20.283.407 40.382-.862 32.19-39.722 38.375-59.132 13.457-42.215 30.327-61.431 98.496-62.294zM20936.341 11313.663c21.34-2.58 62.73 14.892 59.143 80.55-45.172.911-66.841-25.005-59.143-80.55zM18708.315 11269.063c28.185 25.19 15.998 51.939 67.772 89.567-186.125-22.804-141.41-155.341-67.772-89.567zM22248.142 11228.342c33.1-8.94 52.627 3.752 59.434 34.303-19.828 10.006-46.403 2.453-59.434-34.303zM20993.545 11191.5c27.04-2.357 62.429 36.774 56.873 80.472-55.933 8.959-63.127-53.655-56.873-80.473zM18869.26 11235.129c-52.656 19.178-110.664-9.027-98.011-48.759 28.165-88.374 80.25 30.396 98.012 48.759zM22244.264 11131.387c28.563-14.776 47.353 1.454 63.37 30.677-23.599 21.65-54.091 4.818-63.37-30.677zM18807.21 11038.31c156.126-158.86 274.091-261.361 465.984-383.96 54.49-3.995 95.83-7.263 162.652-23.687-54.857 71.33-581.197 401.19-628.637 407.647zM19382.153 10707.694c41.244-14.117 101.686 14.718 101.143 65.154-48.05 10.771-78.611-3.025-101.143-65.154zM18784.91 10475.971c25.072 1.658 43.833 17.947 69.284 35.748 1.173 27.244 2.336 54.517 3.51 81.771l11.13-.252c-2.2-23.337 3.083-35.708 9.87-55.904 19.052 4.586 19.052 4.586 30.347 12.13 3.975 27.748-2.075 155.961-52.172 157.086-.63-28.088-65.328-156.883-71.97-230.579zM19511.103 10595.226c62.1-4.014 97.924.359 104.4 38.675 2.59 15.261.437 24.365.67 40.557-62.013 4.42-74.374-11.664-105.07-79.232zM19631.327 10560.322c34.031.369 92.301-.523 110.18 73.25-73.008 3.17-89.315-25.044-110.18-73.25zM17471.17 10384.834l55.264-38.782v284.078h-54.295zM18651.112 10585.53c-63.98-93.115-110.868-169.651-35.709-222.628-6.263 124.442 65.852 136.523 38.24 97.75-16.56-23.25-33.101-71.203 19.4-131.403 13.467 25.83 21.892 56.263 21.369 92.311-1.028 71.388-6.186 110.568-43.3 163.97zM18993.363 10353.808c-9.599-131.422 107.814-260.867 178.3-354.506-21.902 107.562-64.63 265.831-35.32 367.314 16.57 57.358 75.072 132.508 160.47 157.057-41.012 15.048-82.015 17.801-119.255 15.048-94.783-6.99-177.554-93.882-184.195-184.913z" />
    <path class="prefix__fil2"
      d="M19156.247 9995.075c-94.027 111.507-334.446 254.855-142.01 505.853-315.055-101.764-284.262-424.266 142.01-505.853zM19180.486 9999.922c39.102 179.386 118.78 469.757 392.464 379.036-40.178 63.467-134.903 131.723-209.287 119.652-86.445-14.048-144.114-78.911-167.228-146.47-38.956-113.825-21.184-258.133-15.949-352.218z" />
    <path class="prefix__fil2"
      d="M19198.908 9994.105c274.974 209.908 369.66 271.998 512.669 166.743-11.267 107.184-94.29 204.362-211.808 205.584-133.042 1.396-287.685-277.243-300.861-372.327zM20751.157 10263.64c92.175-24.152 72.871-23.793 131.578-73.046 49.233 3.965 130.56 13.845 146.14 71-61.596 62.12-186.183 91.7-277.718 2.046zM18649.173 10129.842c45.656-212.428 293.376-155.875 505.174-156.544-89.034 21.883-245.907 42.99-323.771 122.978-67.268 69.09-101.755 159.113-62.682 259.81-69.12-19.09-135.698-147.235-118.721-226.244zM17838.629 10289.818c32.276-21.214 62.555-26.78 95.21-18.761-3.908 38.384-52.918 66.172-88.704 74.248 3.703-10.927 13.089-29.009-6.506-55.487zM17977.275 10281.092c23.094-11.13 68.973-26.915 92.417-8.426-1.076 19.527-53.849 62.41-88.239 65.406 13.07-25.77 6.584-44.289-4.178-56.98zM18491.136 10320.843c-14.475-19.546-127.001-221.842-2.744-279.337-39.393 132.17 61.673 167.975 40.712 137.482-42.738-62.186-25.975-108.977 21.369-148.03 31.51 72.483 23.87 246.692-59.337 289.885z" />
    <path class="prefix__fil2"
      d="M17570.064 10323.752c38.82-30.667 58.696-87.192 54.692-140.808 175.828 93.164 263.514-109.103 471.385-171.377 73.056-21.883 38.598-81.714-29.648-29.417-114.756 87.939-177.089 99.07-191.167 82.49-34.739-40.935 132.78-163.64 209.82-165.958l217.568-2.23c9.443 98.875 48.613 86.358-1.697 229.744-7.94 22.63-2.783 27.245 4.16 30.376 26.468 11.955 37.21-57.794 98.467-64.135l-.204 186.105c-242.203-79.726-402.508-90.265-441.93-87.9-153.78 9.211-219.497 163.525-391.446 133.11zM17400.392 10278.183c-48.894-43.94 86.213-173.016 134.874-127.65 50.63 47.226-80.288 176.7-134.874 127.65zM19201.816 9972.775l560.332 1.57c-32.46 167.151-117.596 207.736-210.198 194.23-151.095-22.066-349.843-193.783-350.134-195.8z" />
    <path class="prefix__fil2"
      d="M17747.491 9915.571c-230.714 109.172-256.378-114.649-162.487-145.577 210.383-69.333 350.289 261.429 164.484 354.651-59.724 29.96-147.827 10.006-155.777-34.71-23.754-133.642 130.472-91.583 153.78-174.364zM17536.13 10060.034c-151.89 185.223-298.932 18.102-98.051-78.93 52.065-7.815 91.787 32.198 98.05 78.93zM19849.476 10047.43c24.074-23.366 25.664-60.219 14.252-111.013l282.391 1.183c-6.331 51.54-94.512 110.13-168.149 110.024zM18382.546 10023.191c-43.445-78.824-73.714-234.902 37.755-266.79-41.904 118.634-1.251 165.589 12.972 156.679.96-5.517.369-11.712-1.056-18.48-7.534-35.893-23.095-95.345 59.617-157.116 36.727 120.516-42.185 244.521-109.288 285.707zM17479.895 9806.982c34.74 41.128 29 92.175-30.376 135.999-111.72-20.303-146.925-184.38 30.376-136zM18567.73 9892.302c8.833-296.003 293.784-549.638 579.452-550.142 317.596-.543 605.765 285.93 616.682 547.796zM20293.53 9856.429c33.44-12.313 69.827-28.796 68.925-97.382l455.892-2.957c-54.673 93.63-145.568 99.738-240.458 99.883zM20132.584 9837.038l-293.618.087c-7.563-55.361-15.61-77.535-43.233-102.084l497.564 3.006c-16.201 62.274-78.582 98.642-160.713 98.99z" />
  </g>
  <path class="prefix__fil3" fill="#133a84"
    d="M19729.251 9857.398l-1108.195 2.91 310.256-264.688 131.859 138.646L19326.888 9488z" />
  <g fill="#f3b44d">
    <path class="prefix__fil2"
      d="M19582.85 9757.535l-496.41.97 235.6-230.754zM19044.75 9757.535h-258.87l138.645-120.224zM17486.682 9770.139c-10.849-698.794-60.975-972.75-234.437-1258.476 97.866 23.88 257.115 173.84 276.516 453.643l.232-329.54c72.61-90.178 114.97-97.237 227.04-115.416-143.135 136.658-221.91 264.668-222.211 456.183l-1.232 793.732zM20407.936 9666.397c41.371-17.714 78.379-41.012 76.925-105.768l513.463-1.677c-40.536 80.996-136.25 105.04-217.169 106.708zM20224.691 9630.524l-476.184-1.125c-14.466-54.324-41.478-83.352-83.702-108.289l761.184 3.103c-13.38 76.827-134.33 106.466-201.298 106.31zM18431.024 9646.037c34.05-48.536 90.944-260.102 216.5-258.066 20.177.32-141.292 105.73-63.893 151.483 22.445 13.263 43.252-90.197 101.628-155.002 84.177 184.534-131.219 257.037-254.235 261.585zM18301.104 9645.067c-8.987-149.95 13.235-235.65 121.97-252.79-66.182 111.158-38.045 148.65-23.056 149.94 5.09.436 8.406-8.464 6.05-25.17-7.301-51.783 22.144-106.126 84.777-125.382-4.072 59.58-27.68 136.32-49.088 150.513-13.496 8.94-62.216 107.64-140.653 102.889zM20528.16 9458.913c37.94-24.132 75.674-47.527 79.184-95.607l534.096-.756c-22.678 90.236-159.957 94.017-272.599 94.599zM20245.052 9438.553l-591.91.97c41.012-33.353 50.872-72.329 48.952-106.06l842.53.727c-71.32 103.112-184.632 103.83-299.572 104.363zM19344.34 9296.029c10.132-8.842 22.106-10.84 34.05-7.223 31.463 9.53 57.815 57.106 103.16 53.878-74.335-45.307-74.955-150.416 6.235-139.49-32.8 83.605 30.793 125.877 73.986 127.506 25.771.98 57.495-6.796 99.903-26.536-75.344 152.432-392.542 57.523-317.334-8.135zM18496.953 9269.851c30.59-96.043 90.518-230.5 213.68-186.832-5.954 2.56-50.99 32.848-77.041 64.66-27.244 33.274-39.393 69.264-27.487 80.695 23.715 22.745 49.71-156.883 206.534-138.743-36.358 54.596-127.39 143.552-149.447 158.977-47.275 33.062-105.729 44.667-166.239 21.243zM18703.468 9306.694c-1.697-22.552 123.666-278.94 217.518-264.93-44.347 76.643-110.693 167.985-75.605 171.756 15.677 1.697 55.894-26.876 96.053-200.3 6.447.389 80.9 310.916-237.966 293.474z" />
    <path class="prefix__fil2"
      d="M18366.064 9272.76c21.282-183.168 66.191-212.72 159.472-239.75-123.57 113.776-49.864 168.236-50.717 141.903-1.28-39.839 16.976-88.249 105.661-114.533-52.104 149.912-118.915 197.129-214.416 212.38zM19091.288 9141.87c-43.01-152.15 121.116-180.976 129.114-195.858-275.517-92.108-53.102-311.934 143.348-250.522 131.743 41.186 17.927 190.749-81.325 241.941 165.88 90.41 45.404 150.571 240.496 157.27 58.61-50.018 145.85-39.78 133.643 8.358-9.25 36.504-76.963 54.198-109.462 38.317-9.036-4.411-32.829-2.375-43.048 5.032-15.726 11.402-38.637 36.62-68.586 48.468-168.45 66.647-313.911 54.072-344.18-53.005zM20901.437 9017.768c1.969-86.367 95.055-162.836 169.255-76.352-38.084-5.691-95.22 10.365-71.572 66.628 9.656 22.978-81.094 20.893-97.683 9.724zM20237.296 8630.433c125.169 3.355 185.32 54.44 243.938 178.727 41.022 86.997 49.777 130.2 178.601 209.345-180.957 1.512-276.147-83.963-301.026-176.982-22.018-82.314-25.702-147.633-121.513-211.09zM20399.21 8626.36c84.216-24.723 150.853 46.675 170.283 136.213-3.084-105.623 57.31-141.273 121.697-139.45-196.043 179.754-19.536 363.716 199.282 356.018-3.113 13.584-6.157 26.905-6.37 40.246-103.354 5.818-201.928-16.647-277.834-92.378-104.11-103.878-102.695-240.42-207.058-300.648zM20033.69 8615.017c140.653-6.195 218.042 68.77 252.742 221.358 16.822 74.006 78.33 138.733 146.897 178.213-107.659-.281-181.626-13.874-228.019-73.443-88.21-113.263-68.343-249.931-171.62-326.128zM18651.112 8947.96c12.924-3.548 105.05-206.048 282.488-144.25-91.06 15.62-124.306 81.133-126.168 118.722 37.803 18.073 143.455-134.457 215.23-113.34-42.795 200.6-263.688 225.41-371.55 138.869z" />
    <path class="prefix__fil2"
      d="M19691.439 8738.538c-137.23-91.254-229.667 8.794-266.403 116.258 43.474 17.268 94.87 25.684 146.43 33.673 103.83 16.094 174.326-42.175 119.973-149.931zM18483.38 8921.783c7.359-106.554 123.82-260.421 219.409-206.912-46.073 28.36-90.721 71.436-112.798 108.832-8.163 13.826-.387 30.337 3.85 35.544 85.213-89.548 118.081-128.795 201.307-81.976-110.529 12.944-154.72 209.55-311.768 144.512zM18877.017 8752.111c69.924-63.06 145.685-175.498 23.366-173.442-55.836.94-124.102-17.239-187.608-79.407 51.706 24.685 95.258 37.958 145.336 29.863 52.85-8.542 91.215-20.245 125.324-13.613 174.955 34.002 100.3 231.878-106.418 236.6zM19129.1 8701.695c9.395-146.208 80.56-190.381 228.222-118.217-124.887 68.964-132.79-12.973-228.222 118.217z" />
    <path class="prefix__fil2"
      d="M18659.838 8464.93c40.808 119.12 165.929 81.763 120.922 217.093-73.676 47.44-154.624-100.02-120.922-217.092zM19404.452 8622.773l214.067-.126c18.412-.019 21.883 11.596 21.417 23.929-.446 11.615-2.82 23.987-21.417 24.025l-213.62.466c-12.983 0-19.237-10.627-19.721-21.902-.543-12.78 6.33-26.41 19.274-26.392zM17519.647 8620.543l1.726-291.67c-23.968 19.644-99.176 170.787-108.037 207.756 38.084 15.668 77.748 41.904 106.311 83.914z" />
  </g>
  <path class="prefix__fil3"
    d="M18689.894 8366.812c-2.017-156.417-8.474-306.668-21.592-458.015-15.174-87.812-62.759-339.866-97.944-411.177 281.199-7.717 353.798 152.976 352.596 396.45l79.3.261.145 194.918 344.85.621.475-195.384 77.496-.01c-2.133-226.641 99.776-434.319 366.16-378.347-116.113 263.252-122.735 566.256-136.765 850.848z"
    fill="#133a84" />
  <path class="prefix__fil2"
    d="M18715.102 8337.435c-4.334-285.59-28.757-533.36-103.81-803.35 236.445 35.554 196.334 347.603 200.61 517.934 32.839-8.31 31.249-58.493 66.55-58.309l-.359 252.781c49.496-27.894 230.792-120.224 293.842-78.446l-1.057 168.43zM19175.638 8156.42l.01-37.628 192.698.106 1.115-200.028 82.402-.106c14.737-240.943 71.795-395.373 306.436-382.71-170.796 57.27-196.634 212.544-196.537 370.93l.116 174.606c-16.793-71.475-50.446-83.12-63.166-81.365l-.446 292.203c-63.651-134.825-205.758-138.335-322.628-136.008z"
    fill="#f3b44d" />
  <path class="prefix__fil3"
    d="M19055.414 7049.194c31.258-95.598 71.495-195.8 137.948-272.289 48.118 70.002 90.226 159.51 116.82 270.63 59.473 280.657 55.372 491.854-30.453 773.605-39.984 114.843-87.686 209.51-106.253 217.906-13.38 6.05-56.874-96.635-105.506-221.998-83.304-214.745-83.255-551.548-12.556-767.854z"
    fill="#133a84" />
  <path class="prefix__fil2"
    d="M19191.151 6812.527l-17.714 1194.485c-68.78-143.668-133.128-358.2-137.171-517.982-5.944-234.718 50.91-493.045 154.885-676.503z"
    fill="#f3b44d" />
  <path class="prefix__fil3"
    d="M17276.29 12490.696c-.524-252.771-1.105-505.552-1.658-758.324h5138.324c-1.144 258.725-1.716 517.45-2.269 776.174-34.826 210.76-145.238 268.74-341.01 268.972-436.889.524-873.603 1.086-1309.862 2.094-24.006-142.882-250.87-165.337-311.022-166.054l-2.395-774.302-248.883-1.077.33 623.373c-56.195-1.484-226.022 26.07-227.399-122.057l-2.181-345.965-229.745-.746c1.503 79.406-1.444 223.064.504 302.761 4.751 195.18 326.4 216.161 459.538 210.625l-.698 113.602 227.107-.135c55.71 7.543 132.315 88.006 59.86 155.797l-2753.812 1.87c-167.927-.096-454.312-79.745-454.739-286.608z"
    fill="#133a84" />
  <g fill="#f3b44d">
    <path class="prefix__fil2"
      d="M22348.006 12242.491l-231.015-.95-3.548 236.357c-2.269 150.988-236.89 119.265-236.464 2.337 1.144-316.869.689-304.536 4.751-388.373-557.288 3.975-170.573-246.867-167.907-251.394-73.802.164-147.478.862-221.203 1.59-265.705 58.425-202.878 257.134 145.53 246.721l3.587 406.784c.582 65.561 181.093 138.345 366.112 135.078 222.677-3.936 333.496-109.695 334.233-140.468z" />
    <path class="prefix__fil2"
      d="M21352.278 12629.342l.95-233.885c.058-13.748-23.628-62.254-78.388-75.75l-.485 127.136c-.32 83.78-131.092 178.563-365.462 181.316-154.207 1.813-352.964-92.844-354.109-176.361l-3.286-612.552 235.678 1.028.136 604.417c.048 186.076 244.685 198.486 244.5 3.17l-.61-608.499 243.929-.252-.32 449.105c115.095 2.192 330.21 102.821 331.887 173.695l3.994 167.209zM17352.884 12457.732l-4.11-620.474 245.237 1.057.776 120.816c140.39 2.647 496.778-9.967 487.015 207.58l-235.3 1.319c-11.48-165.328-116.366-178.28-251.424-178.33.814 171.097 1.532 324.994 2.86 496.643.485 62.11 60.248 102.317 125.78 101.764 73.918-.62 122.318-29.775 122.813-104.256l1.629-239.643 233.4.193-1.106 217.51c-35.67 95.578-137.996 167.17-355.34 165.492-242.892-1.871-371.376-118.828-372.23-169.671zM18166.337 12622.555l239.993-3.21 7.252-621.442c.475-40.78 37.531-125.809 109.035-125.712 87.027.117 108.697 93.95 108.58 130.87l-.727 219.419 246.886 1.348-1.066-242.97c-.32-72.551-169.022-155.215-345.073-152.442-175.314 2.763-350.657 52.2-356.494 145.917zM18961.368 12461.61l-4.111-620.464 245.228 1.057.786 120.806c140.39 2.647 496.778-9.967 487.024 207.58l-235.31 1.329c-11.48-165.337-116.365-178.281-251.424-178.34.805 171.107 1.532 325.004 2.86 496.653.485 62.1 60.239 102.307 125.77 101.764 73.938-.611 122.319-29.785 122.833-104.256l1.619-239.653 233.41.194.542 218.284c-35.67 95.578-139.644 166.394-356.988 164.717-242.91-1.871-371.386-118.828-372.24-169.671z" />
  </g>
  <g fill="#db2c23">
    <path class="prefix__fil4"
      d="M18176.052 4599.55l3980.002-1071.256-562.339 792.704zM15731.816 6026.146l2857.264-2718.91-133.798 964.8zM14449.102 8527.1l1040.327-3815.858 327.708 958.207zM14471.401 11302.728l-1086.865-3716.77 834.782 577.367zM15996.503 13764.415l-2815.573-2796.182 881.321 167.732zM18646.283 15165.415l-3060.869-1469.838-913.316 440.176zM21472.522 14867.763l-3552.431 708.741-231.723 959.855zM21425.014 16147.57l2522.769-2531.496-2705.045 1783.003zM24426.74 14873.58l944.342-3801.605-1475.655 2813.634zM26418.196 11998.865L25271.22 8206.567l344.19 3381.209zM26506.425 8591.284L23988.504 6070.94l1672.474 2440.648zM25097.67 5507.728l-3942.191-1074.844 3112.255 1451.902z" />
  </g>
</svg>