<svg width="141" height="140" version="1.1" viewBox="0 0 37.306 37.042" xmlns="http://www.w3.org/2000/svg">
   <g fill="#900521">
      <path d="M0 0h37.306v2.646H0zM0 5.292h37.306V31.75H0zM0 34.396h37.306v2.646H0z" />
   </g>
   <path d="M0 31.75h37.306v2.646H0zM0 2.646h37.306v2.646H0z" />
   <g clip-rule="evenodd" image-rendering="optimizeQuality" shape-rendering="geometricPrecision">
      <g text-rendering="geometricPrecision">
         <path
            d="m26.523 18.523c0 6.047-3.52 10.95-7.868 10.95s-7.872-4.903-7.872-10.95c0-6.051 3.524-10.955 7.872-10.955s7.868 4.904 7.868 10.955z"
            fill="#0f91d0" stroke="#d4af37" stroke-width=".30117" />
         <path
            d="M15.569 18.448l-2.125 2.976 3.52-.213 1.691 3.197 1.691-3.197 3.517.213-2.125-2.976 2.054-3.087-3.45.28-1.687-3.007-1.691 3.007-3.45-.28z"
            fill="#fff" />
         <path
            d="M15.569 18.448l-2.125 2.976 3.52-.213 1.691 3.197 1.691-3.197 3.517.213-2.125-2.976 2.054-3.087-3.45.28-1.687-3.007-1.691 3.007-3.45-.28z"
            fill="none" stroke="#fff" stroke-linejoin="round" stroke-miterlimit="10" stroke-width=".12614" />
         <path
            d="M20.15 18.377c.03-.031.09-.079.145-.126.173-.06.382-.126.43-.142-.071.012-.777.028-.793.012.016-.012.596-.387.596-.387l-.722.158c.142-.185.465-.441.58-.544-.044.028-.623.304-.667.316-.043.015-.043 0-.043 0l.426-.615-.639.43c.044-.13.284-.62.327-.69 0 0-.508.532-.524.547l.17-.76-.438.642c-.016-.012.012-.6.028-.745 0 0-.24.63-.284.702 0-.028-.114-.73-.114-.73l-.142.73a7.368 7.368 0 01-.268-.714c.027.142.027.714.015.757l-.398-.63.142.733c-.126-.071-.41-.418-.497-.544.032.055.257.615.272.685l-.626-.413s.343.473.425.603c-.039.012-.551-.288-.638-.316.016.028.496.529.496.544-.153-.043-.705-.189-.705-.189.126.075.497.41.497.41-.099.016-.608 0-.635 0l.591.248-.658.186.717.146a10.64 10.64 0 01-.678.295c.032 0 .655-.043.753-.027 0 0-.469.327-.595.398 0 0 .552-.142.71-.186 0 .016-.485.517-.497.544.083-.027.595-.327.635-.31-.083.125-.422.598-.422.598l.623-.414c-.016.071-.24.631-.269.686.083-.126.367-.473.493-.544l-.142.733.398-.63c.016.04.016.615-.015.757.015-.083.228-.643.272-.718l.138.733s.114-.701.114-.733c.043.075.284.706.284.706-.012-.146-.044-.733-.028-.745l.438.642-.17-.76c.016.015.525.547.525.547a7.652 7.652 0 01-.328-.69l.639.43-.426-.615s0-.015.044 0 .622.288.666.316c-.115-.103-.438-.36-.58-.544l.722.157s-.58-.374-.596-.39c.016-.012.722 0 .793.016-.044-.016-.237-.075-.402-.134a1.812 1.812 0 01-.162-.134l.658-.11z"
            fill="#f9b717" />
         <path
            d="M20.15 18.377c.03-.031.09-.079.145-.126.173-.06.382-.126.43-.142-.071.012-.777.028-.793.012.016-.012.596-.387.596-.387l-.722.158c.142-.185.465-.441.58-.544-.044.028-.623.304-.667.316-.043.015-.043 0-.043 0l.426-.615-.639.43c.044-.13.284-.62.327-.69 0 0-.508.532-.524.547l.17-.76-.438.642c-.016-.012.012-.6.028-.745 0 0-.24.63-.284.702 0-.028-.114-.73-.114-.73l-.142.73a7.368 7.368 0 01-.268-.714c.027.142.027.714.015.757l-.398-.63.142.733c-.126-.071-.41-.418-.497-.544.032.055.257.615.272.685l-.626-.413s.343.473.425.603c-.039.012-.551-.288-.638-.316.016.028.496.529.496.544-.153-.043-.705-.189-.705-.189.126.075.497.41.497.41-.099.016-.608 0-.635 0l.591.248-.658.186.717.146a10.64 10.64 0 01-.678.295c.032 0 .655-.043.753-.027 0 0-.469.327-.595.398 0 0 .552-.142.71-.186 0 .016-.485.517-.497.544.083-.027.595-.327.635-.31-.083.125-.422.598-.422.598l.623-.414c-.016.071-.24.631-.269.686.083-.126.367-.473.493-.544l-.142.733.398-.63c.016.04.016.615-.015.757.015-.083.228-.643.272-.718l.138.733s.114-.701.114-.733c.043.075.284.706.284.706-.012-.146-.044-.733-.028-.745l.438.642-.17-.76c.016.015.525.547.525.547a7.652 7.652 0 01-.328-.69l.639.43-.426-.615s0-.015.044 0 .622.288.666.316c-.115-.103-.438-.36-.58-.544l.722.157s-.58-.374-.596-.39c.016-.012.722 0 .793.016-.044-.016-.237-.075-.402-.134a1.812 1.812 0 01-.162-.134l.658-.11z"
            fill="none" stroke="#f9b717" stroke-linejoin="round" stroke-miterlimit="10" stroke-width=".055188" />
         <g fill="#231f20">
            <path
               d="M17.662 17.967c-.016 0-.028-.008-.04-.016-.015-.023-.011-.05.008-.067l.17-.142a.074.074 0 01.031-.008h.544c.028 0 .048.02.048.048s-.02.047-.048.047h-.528l-.158.126a.043.043 0 01-.027.012zM18.911 19.307h-.544a.031.031 0 01-.031-.031c0-.016.016-.032.031-.032h.544c.02 0 .032.016.032.032 0 .02-.012.031-.032.031zM17.788 18.215a.036.036 0 01-.032-.015c-.02-.016-.02-.048 0-.067l.138-.134a.064.064 0 01.036-.012h.39c.012 0 .028.008.036.02l.067.086c.015.024.011.051-.012.067a.05.05 0 01-.067-.008l-.052-.07h-.342l-.127.122a.064.064 0 01-.035.011z" />
            <path
               d="M17.953 18.07c0 .082.075.153.166.153.095 0 .17-.07.17-.153zM19.026 18.07c0 .082.07.153.165.153.09 0 .166-.07.166-.153zM19.649 17.967a.045.045 0 01-.032-.012l-.158-.126h-.528c-.024 0-.047-.02-.047-.047s.023-.048.047-.048h.548c.008 0 .02.004.028.008l.17.142c.023.016.023.044.007.067a.059.059 0 01-.035.016z" />
            <path
               d="M19.53 18.22a.045.045 0 01-.031-.012l-.138-.127h-.347l-.051.071c-.016.02-.044.024-.067.008-.02-.016-.024-.043-.012-.067l.067-.087a.049.049 0 01.04-.02h.39c.011 0 .023.005.031.013l.15.138c.02.02.02.05.004.067a.048.048 0 01-.036.015zM18.635 18.83a.136.136 0 01-.126-.082h-.126a.031.031 0 01-.031-.032c0-.016.015-.031.031-.031h.146c.016 0 .028.011.032.027 0 .004.015.055.074.055.064 0 .075-.05.075-.059a.034.034 0 01.032-.023h.146c.02 0 .031.015.031.031 0 .02-.012.032-.031.032h-.122a.138.138 0 01-.13.082zM18.643 19.13l-.098-.071-.253.06s-.047.015-.047.058h.8c0-.043-.055-.055-.055-.055l-.248-.063z" />
         </g>
      </g>
      <g fill="#d4af37" stroke-width=".994">
         <path
            d="M27.509 14.282l-.266.473-.543-.044.324.485-.335.469.554-.034.266.503.266-.503.553.034-.335-.469.324-.485-.543.044zM26.511 11.215l-.266.473-.543-.044.324.485-.335.469.554-.034.266.503.266-.503.553.034-.335-.469.324-.485-.543.044zM24.931 8.62l-.266.474-.543-.044.324.485-.335.469.554-.034.266.503.266-.503.553.034-.335-.469.324-.485-.543.044zM22.885 6.692l-.266.473-.543-.044.324.486-.335.468.554-.034.266.503.266-.503.553.034-.335-.468.324-.486-.543.044zM20.525 5.572l-.266.474L19.716 6l.324.486-.335.469.554-.034.266.503.266-.503.553.034-.335-.469.324-.486-.543.045zM18.026 5.344l-.266.473-.543-.044.324.486-.335.468.554-.034.266.503.266-.503.553.034-.335-.468.324-.486-.543.044zM15.574 6.025l-.266.473-.543-.044.324.485-.335.469.554-.034.266.503.266-.503.553.034-.335-.469.324-.485-.543.044zM13.35 7.563l-.266.473-.543-.044.324.486-.335.468.554-.034.266.503.266-.503.553.034-.335-.468.324-.486-.543.044zM11.52 9.846l-.266.473-.543-.044.324.485-.335.469.554-.034.266.503.266-.503.553.034-.335-.469.324-.485-.543.044zM10.218 12.703l-.266.473-.543-.044.324.485-.335.469.554-.034.266.503.266-.503.553.034-.335-.469.324-.485-.543.044zM9.543 15.923l-.266.473-.543-.044.323.485-.334.469.554-.034.266.503.265-.503.554.034-.335-.469.323-.485-.542.044zM9.543 19.267l-.266.473-.543-.044.323.485-.334.469.554-.034.266.503.265-.503.554.034-.335-.469.323-.485-.542.044zM10.218 22.487l-.266.473-.543-.044.324.485-.335.469.554-.034.266.503.266-.503.553.034-.335-.469.324-.485-.543.044zM11.52 25.344l-.266.473-.543-.044.324.485-.335.469.554-.034.266.503.266-.503.553.034-.335-.469.324-.485-.543.044zM13.35 27.627l-.266.473-.543-.044.324.485-.335.469.554-.034.266.503.266-.503.553.034-.335-.469.324-.485-.543.044zM15.574 29.165l-.266.473-.543-.044.324.485-.335.469.554-.034.266.503.266-.503.553.034-.335-.469.324-.485-.543.044zM18.026 29.845l-.266.473-.543-.044.324.485-.335.469.554-.034.266.503.266-.503.553.034-.335-.469.324-.485-.543.044zM20.525 29.617l-.266.473-.543-.044.324.485-.335.469.554-.034.266.503.266-.503.553.034-.335-.469.324-.485-.543.044zM22.885 28.497l-.266.473-.543-.044.324.485-.335.469.554-.034.266.503.266-.503.553.034-.335-.469.324-.485-.543.044zM24.931 26.569l-.266.473-.543-.044.324.485-.335.469.554-.034.266.503.266-.503.553.034-.335-.469.324-.485-.543.044zM26.511 23.975l-.266.473-.543-.044.324.485-.335.469.554-.034.266.503.266-.503.553.034-.335-.469.324-.485-.543.044zM27.509 20.908l-.266.473-.543-.044.324.485-.335.469.554-.034.266.503.266-.503.553.034-.335-.469.324-.485-.543.044zM27.85 17.595l-.266.473-.543-.044.324.485-.335.469.554-.034.266.503.266-.503.553.034-.335-.469.324-.485-.543.044z" />
      </g>
   </g>
</svg>