<svg width="586.45" height="377" enable-background="new 0 0 569.334 377.002" version="1.1" viewBox="0 0 586.45 377"
    xml:space="preserve" xmlns="http://www.w3.org/2000/svg">
    <g>

        <rect width="586.45" height="377" fill="#0161b7" stroke-width="1.0328" />
        <path
            d="m212.52 210.35c-12.478-4.821-25.88-21.357-25.88-21.357l43.839-0.234s-7.944-6.154-19.171-10.719c-6.476-2.633-16.763-3.117-20.25-5.75-9.532-7.197-2.26-10.753-2.26-10.753s5.816 7.361 21.76 5.003c5.899-0.873 19.5 0.25 19.5 0.25s-7.32-2.589-11.5-5.5c-4.179-2.911-14.999-13.751-14.999-13.751s11.222 4.421 17.75 4c6.529-0.421 13.424-1.061 13.424-1.061s-3.326-3.865-4.674-10.439c-1.035-5.047 2.157-12.559-3.25-18.25-4.75-5-14.191-9.589-14.191-9.589s16.691-1.661 26.441 5.839c6.194 4.766 13.538 17.979 13.538 17.979s2.462-8.729 2.212-14.979-1.361-13.092-1.361-13.092 7.361 2.592 10.361 8.342 4.949 11.223 4.949 11.223-1.211-16.913 0.045-28.723c1.146-10.776-1.938-19.461-0.754-18.845 12.061 6.282 11.453 17.063 16.583 28.896 3.731 8.607 6.533 12.312 6.533 12.312s3.71-3.945 5.527-8.794c0.754-2.01-4.271-16.583 1.76-16.332 1.004 0.042-2.011 4.774 3.769 9.799 4.833 4.203 5.527 10.302 5.527 10.302s0.754-6.281 5.276-12.061c9.844-12.577 5.025-23.619 14.824-22.111 0.567 0.087-2.169 3.409-1.759 7.538 0.557 5.604 3.015 7.789 1.005 16.583-1.662 7.283-0.535 18.713-0.535 18.713s3.75-0.75 6.25-7.75 9.104-5.689 9.104-5.689-4.34 5.826-2.104 9.439c3.25 5.25 1 11.5 1 11.5s9.231-7.875 20.5-7.5c7.5 0.25 17.75-17.5 17.75-17.5s0.691 16.086-7.25 24.75c-8.25 9-18.838 15.037-18.838 15.037s7.088 3.953 13.088 3.713c6-0.239 16.5-5 16.5-5s-3.767 6.982-8.5 11.5c-4.732 4.519-11.75 8.75-11.75 8.75s14.25-3.031 24.25 1.984 22.554 2.87 22.554 2.87-0.053 8.727-13.054 8.896c-19.25 0.25-26.499 7.946-26.499 7.946l42.715-0.251s-9.189 14.8-23.367 22.362c-7.537 4.021-23.116 3.518-23.116 3.518s9.557 7.904 12.312 14.071c5.276 11.809 4.641 35.326 4.641 35.326s-20.471 4.875-34.792 1.859c-12.736-2.681-21.351-13.77-21.351-13.77s2.026 15.367-3.775 24.07c-6.03 9.046-23.87 24.875-23.87 24.875s-13.063-11.269-22.614-20.604c-11.056-10.805-7.034-28.142-7.034-28.142s-2.011 5.024-15.077 10.051c-13.065 5.025-40.956 1.005-40.956 1.005s1.006-21.86 4.774-33.921c3.769-12.062 14.322-17.588 14.322-17.588s-8.796 4.025-19.852-0.246z"
            fill="#fffc01" />
        <path
            d="m353.56 187.1s0.25 0.04 0.25 0.062c0.25 32.125-24.792 55.375-55.375 55.375s-55.375-24.793-55.375-55.375c0-0.028 0.749-0.08 0.749-0.08z"
            fill="#fe0000" />
    </g>
    <g fill="#009261">
        <path
            d="m0 189.54v187.46h586.45v-187.46h-17.113v0.00586h-142.31c-0.125 5.479-0.59386 10.869-1.3809 16.158l27.967 20.539c-2.591 10.182-6.1578 19.973-10.59 29.271l-32.955-4.9473c-2.949 5.147-6.2367 10.075-9.8457 14.746l17.088 28.646c-6.651 7.38-13.979 14.137-21.885 20.178l-29.377-17.951c-4.346 2.7-8.8632 5.1491-13.533 7.3281l1.0703 33.662c-9.499 3.503-19.421 6.1232-29.668 7.7812l-16.877-29.73c-2.968 0.204-5.9585 0.31445-8.9785 0.31445-2.752 0-5.4805-0.0956-8.1895-0.26562l-16.117 29.938c-10.208-1.552-20.095-4.0722-29.576-7.4512l0.32031-33.842c-4.694-2.146-9.2345-4.5624-13.605-7.2344l-28.566 18.686c-8.122-6.046-15.647-12.845-22.484-20.287l16.342-29.418c-3.684-4.735-7.0419-9.7338-10.047-14.967l-33.596 3.6055c-4.24-9.091-7.6555-18.641-10.146-28.561l28.258-18.977c-0.887-5.63-1.4168-11.38-1.5508-17.229h-147.14-21.957z" />
        <path
            d="m159.56 188.87c-0.222-3.083-0.34-6.193-0.34-9.333 0-70.357 56.771-127.45 127-127.99-0.334-2e-3 -0.666-0.014-1-0.014-70.691 0-128 57.309-128 128 0 3.14 0.119 6.25 0.34 9.333z" />
        <path
            d="m157.76 166.57c0.455 4.908-1.148 12.873-9.46 12.755-6.701-0.095-10.15-6.903-9.74-13.969 0.515-8.849 7.495-24.546 7.495-24.546s10.949 17.593 11.705 25.76z" />
        <path
            d="m174.28 114.44c-1.411 4.723-5.872 11.512-13.538 8.3-6.182-2.59-6.839-10.194-3.82-16.596 3.781-8.018 16.119-19.973 16.119-19.973s3.588 20.41 1.239 28.269z" />
        <path
            d="m205.87 78.243c-2.329 4.344-8.062 10.103-14.928 5.418-5.535-3.775-4.656-11.357-0.416-17.024 5.312-7.096 19.796-16.336 19.796-16.336s-0.575 20.714-4.452 27.942z" />
        <path
            d="m249.65 55.777c-3.756 3.191-11.195 6.455-15.875-0.417-3.771-5.539-0.181-12.274 5.839-15.997 7.538-4.663 24.397-7.966 24.397-7.966s-8.11 19.071-14.361 24.38z" />
        <path
            d="m178.76 164.56c-1.501 4.694-6.091 11.397-13.693 8.04-6.131-2.708-6.645-10.322-3.504-16.666 3.934-7.943 16.497-19.661 16.497-19.661s3.198 20.474 0.7 28.287z" />
        <path
            d="m194.02 122.14c-4.066 2.783-11.806 5.256-15.746-2.063-3.176-5.9 1.096-12.227 7.47-15.305 7.981-3.854 25.093-5.389 25.093-5.389s-10.048 18.125-16.817 22.757z" />
        <path
            d="m221.25 92.676c-4.709 1.455-12.833 1.526-14.431-6.63-1.287-6.575 4.663-11.354 11.663-12.409 8.767-1.319 25.564 2.278 25.564 2.278s-14.959 14.338-22.796 16.761z" />
        <path
            d="m263.79 72.874c-4.869 0.766-12.919-0.331-13.329-8.633-0.33-6.693 6.246-10.567 13.324-10.604 8.863-0.049 24.972 5.925 24.972 5.925s-16.864 12.041-24.967 13.312z" />
        <path
            d="m434.72 188.87c0.223-3.083 0.34-6.193 0.34-9.333 0-70.357-56.77-127.45-127-127.99 0.334-2e-3 0.666-0.014 1-0.014 70.692 0 128 57.309 128 128 0 3.14-0.118 6.25-0.34 9.333z" />
        <path
            d="m436.52 166.57c-0.454 4.908 1.149 12.873 9.46 12.755 6.701-0.095 10.151-6.903 9.74-13.969-0.514-8.849-7.495-24.546-7.495-24.546s-10.95 17.593-11.705 25.76z" />
        <path
            d="m420 114.44c1.41 4.723 5.872 11.512 13.538 8.3 6.181-2.59 6.839-10.194 3.818-16.596-3.78-8.018-16.119-19.973-16.119-19.973s-3.587 20.41-1.237 28.269z" />
        <path
            d="m388.42 78.243c2.33 4.344 8.061 10.103 14.928 5.418 5.535-3.775 4.657-11.357 0.416-17.024-5.311-7.096-19.795-16.336-19.795-16.336s0.575 20.714 4.451 27.942z" />
        <path
            d="m344.64 55.777c3.756 3.191 11.196 6.455 15.874-0.417 3.772-5.539 0.183-12.274-5.838-15.997-7.539-4.663-24.397-7.966-24.397-7.966s8.11 19.071 14.361 24.38z" />
        <path
            d="m415.52 164.56c1.5 4.694 6.091 11.397 13.693 8.04 6.131-2.708 6.645-10.322 3.504-16.666-3.934-7.943-16.498-19.661-16.498-19.661s-3.197 20.474-0.699 28.287z" />
        <path
            d="m400.27 122.14c4.067 2.783 11.806 5.256 15.745-2.063 3.176-5.9-1.095-12.227-7.469-15.305-7.982-3.854-25.093-5.389-25.093-5.389s10.048 18.125 16.817 22.757z" />
        <path
            d="m373.04 92.676c4.71 1.455 12.834 1.526 14.431-6.63 1.288-6.575-4.663-11.354-11.663-12.409-8.766-1.319-25.562 2.278-25.562 2.278s14.958 14.338 22.794 16.761z" />
        <path
            d="m330.5 72.874c4.869 0.766 12.919-0.331 13.329-8.633 0.33-6.693-6.246-10.567-13.324-10.604-8.864-0.049-24.972 5.925-24.972 5.925s16.864 12.041 24.967 13.312z" />
    </g>
    <path d="m0 187.45v2.1074h169.09v-2.1074z" fill="#e1050f" />
    <path d="m427.04 187.45v2.459h159.41v-2.459z" fill="#e1050f" />
</svg>