<svg width="370.42mm" height="899.981" viewBox="0 0 370.42 238.12" xmlns="http://www.w3.org/2000/svg">
	<path fill="#75aadb" d="M0 238.125H370.42V0H0z" />
	<path fill="#fff" d="M0 158.75H370.42V79.373H0z" />
	<path
		d="M200.71 186.788c.294-2.282-1.08-3.382-2.799-3.51-2.112.022-3.457 2.315-2.563 3.898.73 1.206 1.869 2.102 3.565 2.577 6.777.06 11.85-1.068 17.353-2.887 5.61-2.398 11.794-7.115 14.766-11.376 4.705-7.16 7.38-11.094 9.368-13.935 1.625-1.914 3.124-3.985 5.298-5.211 1.533-.847 3.723-.756 4.572-2.579.513-1.783-.057-3.712-3.903-3.785-1.06.078-2.204.323-3.283.528 3.294-1.412 6.36-6.62 6.422-11.045-.304-12.728-9.584-19.8-12.974-34.384-2.395-10.094-.606-17.134 3.506-22.478 2.463 5.966 8.73 4.53 10.246 1.042 1.753-3.942-1.015-6.868-3.972-7.593-1.429-.323-3.358.257-5.678 1.542 1.604-4.609-1.322-10.52-3.076-12.781-6.466-9.637-17.111-14.74-22-16.346-9.938-3.09-18.533-3.452-23.88 2.784.11-.579.112-1.092-.167-1.496-.096-2.847-4.486-3.422-6.328-3.314-1.862-.063-5.876.322-6.16 3.314-.359.254-.415.915-.329 1.496-5.57-7.19-17.889-5.02-23.88-2.784-9.849 3.524-16.88 9.204-22 16.346-1.914 3.687-4.384 7.014-3.076 12.781-1.705-.882-3.408-1.77-5.678-1.542-2.745.621-5.678 3.115-3.972 7.593 1.92 3.923 8.482 4.352 10.246-1.042 2.625 2.532 6.44 10.196 3.506 22.478-2.896 13.204-12.049 20.484-12.974 34.384.445 5.25 2.508 9.003 6.422 11.045-1.095-.292-2.537-.551-3.283-.528-2.304.258-4.532.592-3.904 3.785.49 1.595 3.04 1.819 4.573 2.579 2.132 1.223 3.662 3.292 5.298 5.211 2.682 3.995 4.733 7.058 9.368 13.935 3.234 3.65 5.576 7.228 14.766 11.376 1.984.394 6.43 2.834 17.353 2.887 1.298-.277 2.653-.94 3.565-2.577.911-1.798-.667-4.062-2.563-3.898-.893.224-2.924.335-2.8 3.51-1.483-3.044-.225-5.295 0-7.845h31.05c.636 4.926 2.294 5.319 0 7.845z"
		fill="#cd6e04" />
	<path
		d="M187.944 48.942c-1.774-.785-3.617-.705-5.51 0 2.045 1.517.415 5.406-2.988 3.575.349.86.713 1.736.985 2.521 1.785.345.248 2.499-.374 2.832 1.527 1.217-1.097 2.263-2.307 2.42-.21 1.86-2.256.38-3.41-.156-1.42.457-1.399-1.182-1.893-1.978-.717-.117-.936-.63-.615-1.572.042-1.258.532-2.233.822-3.335l-1.891-2.353-7.468-.907-8.704 1.915-6.59 3.038-6.7 5.266-3.32 3.997-1.6 2.858-.933 2.603 2.038 1.538 1.169.053 1.284.828.295 2.963.76 1.369-.902 2.084-1.383 1.138-.275 1.503-1.994.476-1.522-.323-.719.64.094.137.549.84 1.044 1.785 1.469 3.23.822 2.947.676 4.012-.27 6.03-1.627 6.877-3.973 10.435-3.792 7.306-2.073 5.327-1.041 3.736-.612 5.03.474 3.695a6.096 6.096 0 011.85-1.839c.033-.73.17-.755.278-.975l.81-.301.857.072 1.67.561.786-.189 1.226.057 1.021.897.756 1.902 1.328 1.124-.023 1.807-1.158 1.822.298 1.323-1.341 1.169-1.923.478-.439.658-.998.147-1.282-.256 2.832 4.413 2.406 5.433 3.97 9.106 5.916 7.139 5.701 4.041 6.356 2.722 5.858 1.286 3.95.64 2.055.198.759.074.211-.043c-.276-4.95 6.107-4.022 5.664-.272-.497 1.563 2.73 2.953 4.266.768 2.267 4.562 8.744 4.64 11.18 0 1.44 2.283 4.687.735 4.266-.768-.238-3.916 5.75-4.637 5.664.272l.26.025.682-.058 1.553-.177 5.526-.944 5.602-1.319 7.012-3.266 5.43-4.299 6.215-8.533 3.96-10.15 3.774-6.288-.788.214-1.302-.056-.619-.625-2.833-.903-.302-2.052-1.349-3.507 1.37-1.084 1.495-2.933 1.516-.254.751.194 2.658-.562.99.298.28.975 1.849 1.839.397-2.143-.201-5.576-4.948-13.413-6.018-13.44-2.271-9.462.412-7.292 1.48-4.847 1.633-3.255.91-1.447.345-.512-.716-.67-1.704.328-1.66-.458-.466-1.656-2.4-2.682.789-1.521.435-2.761.77-1.208 1.502-.11 2.202-1.532-1.172-3.109-3.539-5.248-5.331-4.55-7.874-4.59-8.441-2.147-8.567.786-2.282 2.442c.732 1.056.651 1.92.858 2.851.263.737.873 1.882-.65 2.056-.056 1.041-.399 2.429-1.894 1.978-1.301.721-2.662 1.891-3.41.155-1.24-.289-3.06-.88-2.307-2.42-.848-1.116-1.545-2.196-.375-2.83.329-1.162.658-1.733.986-2.522-3.537 1.764-4.67-2.278-2.988-3.575z"
		fill="#ece6cc" />
	<g fill="#8f4d00">
		<path
			d="M129.805 83.254c-.145-1.704-1.03-2.912-2.415-3.413-1.418-.531-2.623.114-3.746 1.222.48-1.445 2.37-2.228 4.081-1.765 2.065.937 2.34 2.957 2.08 3.956zM132.757 72.628c1.84.348 3.416 1.031 3.695 3.374-.07 1.753-1.1 2.643-2.37 3.32 2.004-.285 2.87-1.834 2.955-3.402-.45-2.935-2.275-3.35-4.28-3.292zM127.87 143.546c1.872-.002 3.552.374 4.278 2.622.269 1.734-.57 2.801-1.686 3.702 1.913-.654 2.464-2.337 2.245-3.892-1.009-2.797-2.881-2.864-4.838-2.432zM173.048 185.909c.001.877-.181 1.665-1.27 2.005-.84.126-1.357-.267-1.793-.79.317.897 1.132 1.155 1.885 1.052 1.355-.472 1.387-1.35 1.178-2.267z" />
		<path
			d="M140.549 75.262c2.154 1.453-.146 3.392-1.478 4.443.238 1.864-1.56 2.305-3.834 1.784-1.66 1.406-3.138-.705-4.436-2.095 2.451 2.48 3.241 2.553 3.962 1.649 1.694.485 3.941.429 3.628-1.668 1.229-.89 3.53-2.809 1.479-4.345-.1-1.488.137-4.048-2.484-3.782-.8-.59-1.252-1.382-2.879-1.493.974-.455 2.204.353 3.49 1.435 2.48-.756 2.7 2.606 2.552 4.072zM135.643 143.714c2.524.663 1.014 3.246.116 4.674.857 1.68-.688 2.685-3.008 2.942-1.087 1.87-3.197.367-4.893-.517 3.153 1.532 3.922 1.341 4.295.252 1.761-.1 3.86-.89 2.853-2.764.856-1.244 2.374-3.808-.081-4.582-.599-1.37-1.246-3.86-3.626-2.748-.955-.293-1.649-.891-3.22-.462.763-.748 2.197-.39 3.776.206 2.082-1.528 3.43 1.57 3.788 3z" />
		<path
			d="M173.896 52.139l-1.23 1.11c-5.742-4.643-14.028-2.889-21.157.354-5.254 2.839-12.77 7.073-16.048 16.063 1.427-6.4 7.705-12.8 15.823-16.896 6.144-3.13 16.456-5.918 22.612-.631zM125.953 143.321c-3.174-7.115 2.877-17.158 8.77-30.537 5.064-12 5.622-21.5-.51-30.85 6.338 8.984 6.553 18.803 1.539 31.246-6.7 14.94-10.902 21.258-9.799 30.141zM169.682 186.788c-14.717-.448-25.969-6.607-31.842-16.99-5.513-9.024-5.089-18.468-13.249-19.648-.442-.095-.195-.122 0-.108.974.068 2.555.384 3.205.598 1.007.33 1.417.769 2.106 1.304 3.904 3.031 3.913 8.036 8.47 16.613 7.528 14.386 19.14 16.46 31.373 18.355z" />
		<g>
			<path
				d="M171.832 56.584c.262-1.824.878-3.407 3.243-3.796 1.783-.018 2.738.95 3.487 2.164-.388-1.955-2.004-2.73-3.6-2.736-2.957.587-3.289 2.401-3.13 4.368zM198.436 56.584c-.262-1.824-.878-3.407-3.243-3.796-1.783-.018-2.738.95-3.487 2.164.388-1.955 2.004-2.73 3.6-2.736 2.957.587 3.289 2.401 3.13 4.368zM187.866 48.957c2.045-.74 2.583.674 2.454 1.783.698-1.23-.454-2.656-2.175-2.126-2.23-.852-4.071-.614-5.779 0-1.267-.458-3.098.353-2.216 2.126-.182-1.548.815-2.357 2.419-1.783 1.74-.59 3.504-.65 5.297 0z" />
		</g>
		<g>
			<path
				d="M240.587 83.254c.146-1.704 1.03-2.912 2.415-3.413 1.418-.531 2.624.114 3.746 1.222-.48-1.445-2.37-2.228-4.081-1.765-2.064.937-2.34 2.957-2.08 3.956zM237.635 72.628c-1.84.348-3.416 1.031-3.694 3.374.07 1.753 1.1 2.643 2.37 3.32-2.005-.285-2.871-1.834-2.956-3.402.45-2.935 2.275-3.35 4.28-3.292zM242.523 143.546c-1.873-.002-3.552.374-4.278 2.622-.27 1.734.57 2.801 1.686 3.702-1.914-.654-2.465-2.337-2.245-3.892 1.008-2.797 2.88-2.864 4.837-2.432zM197.345 185.909c-.002.877.18 1.665 1.27 2.005.84.126 1.356-.267 1.792-.79-.316.897-1.132 1.155-1.885 1.052-1.355-.472-1.387-1.35-1.177-2.267z" />
			<path
				d="M229.844 75.262c-2.154 1.453.146 3.392 1.477 4.443-.237 1.864 1.56 2.305 3.835 1.784 1.659 1.406 3.137-.705 4.436-2.095-2.452 2.48-3.242 2.553-3.963 1.649-1.693.485-3.94.429-3.628-1.668-1.229-.89-3.53-2.809-1.478-4.345.099-1.488-.137-4.048 2.484-3.782.8-.59 1.251-1.382 2.878-1.493-.973-.455-2.204.353-3.49 1.435-2.48-.756-2.7 2.606-2.551 4.072zM234.75 143.714c-2.524.663-1.015 3.246-.117 4.674-.856 1.68.688 2.685 3.009 2.942 1.086 1.87 3.196.367 4.892-.517-3.152 1.532-3.922 1.341-4.295.252-1.76-.1-3.86-.89-2.853-2.764-.856-1.244-2.373-3.808.082-4.582.598-1.37 1.245-3.86 3.625-2.748.955-.293 1.65-.891 3.22-.462-.763-.748-2.197-.39-3.776.206-2.082-1.528-3.43 1.57-3.788 3z" />
			<path
				d="M196.497 52.139l1.229 1.11c5.742-4.643 14.028-2.889 21.158.354 5.253 2.839 12.77 7.073 16.047 16.063-1.426-6.4-7.704-12.8-15.822-16.896-6.145-3.13-16.457-5.918-22.612-.631zM244.44 143.321c3.174-7.115-2.878-17.158-8.771-30.537-5.064-12-5.622-21.5.51-30.85-6.338 8.984-6.552 18.803-1.538 31.246 6.699 14.94 10.901 21.258 9.798 30.141zM200.71 186.788c14.717-.448 25.969-6.607 31.843-16.99 5.513-9.024 5.088-18.468 13.248-19.648.443-.095.196-.122 0-.108-.974.068-2.554.384-3.205.598-1.007.33-1.417.769-2.106 1.304-3.904 3.031-3.913 8.036-8.47 16.613-7.528 14.386-19.139 16.46-31.373 18.355z" />
		</g>
	</g>
	<path
		d="M174.992 187.24c.605 2.248 2.996 2.436 4.394.842 2.227 4.876 9.174 5.078 11.618.02 1.42 1.393 3.245 1.621 4.446-.696l.018-.042a2.6 2.6 0 01-.28-.552l-.013.032c-1.24 2.51-3.67 1.571-4.38.42-2.278 4.611-8.793 4.702-11.24.022-1.41 1.643-3.423 1.597-4.345-.441l-.025-.056a3.453 3.453 0 01-.194.452z"
		fill="#ab121e" />
	<g stroke="#843511" stroke-linecap="round" stroke-linejoin="round">
		<g transform="matrix(.29093 0 0 .28526 90.138 56.485)" stroke-width="2.646">
			<g fill="none">
				<path
					d="M327.26-14.699l-.082 106.46M337.5 20.254l-6.91 72.035M348 17.741L334.635 89.87M352.86 35.464l-15.151 56.717M367.53 22.108l-25.801 70.277M388.67 4.737l-43.668 88.985M387.66 29.601l-39.964 67.554M404.54 20.423l-53.06 77.751M404.54 35.659l-49.599 65.403M419.42 37.511l-62.414 68.006M445.74 29.005l-85.301 79.118M425.75 65.066l-63.076 46.575M452.54 64.14l-87.814 51.139M456.93 81.602l-90.923 38.505M467.69 91.921l-101.24 33.478M449.58 114.42l-82.369 14.428M461.23 124.43l-94.098 9.4M448.86 136.52l-82.721.934M466.38 147.18l-88.726-5.032M428.92 157.32l-42.889-9.709M434.84 168.48l-34.356-10.706M316.15 19.542l7.098 72.035M305.21 17.9l14.395 73.131M292.3 19.636l23.576 71.742M269.04-3.423l42.213 96.526M268.47 26.336l38.244 67.554M248.93 16.893l54.647 81.587M249.07 34.642l50.128 65.667M234.45 36.759l60.562 66.154M207.6 27.989l86.954 80.375M228.01 63.966l63.035 46.658M201.04 63.227l88.469 51.7M196.81 80.85l91.135 38.812M185.92 91.037l99.919 33.082M204.19 113.6l81.527 14.24M191.85 125l92.72 6.513M204.72 136.17l79.541-.376M187.77 146.45l98.645-5.786M225.35 156.17l50.297-11.032M219.57 167.6l43.484-13.616" />
			</g>
			<circle cx="325.69" cy="130.17" r="42.529" fill="#fcbf49" />
		</g>
		<path
			d="M176.14 88.377c1.24-1.697 6.157-1.908 7.612 1.479.243.75.038 2.578.003 3.705M193.77 88.377c-1.238-1.697-6.156-1.908-7.611 1.479-.283 1.14-.037 2.578 0 3.705"
			fill="none" stroke-width=".3806752" />
	</g>
	<g transform="matrix(.28942 0 0 .28473 -43.584 .834)">
		<path d="M763.32 315.4c6.474-7.243 14.208-5.993 18.152.066-6.74 5.059-12.663 4.102-18.152-.066z" fill="#fefefe"
			stroke="#843511" stroke-linecap="round" stroke-linejoin="round" stroke-width="1.328" />
		<ellipse cx="772.4" cy="314.39" rx="2.93" ry="2.979" fill="#211714" />
		<path d="M816.12 315.4c-6.474-7.243-14.208-5.993-18.152.066 6.74 5.059 12.663 4.102 18.152-.066z" fill="#fefefe"
			stroke="#843511" stroke-linecap="round" stroke-linejoin="round" stroke-width="1.328" />
		<ellipse transform="scale(-1 1)" cx="-807.04" cy="314.48" rx="2.93" ry="2.979" fill="#211714" />
	</g>
	<g transform="matrix(.29094 0 0 .28402 89.998 56.568)">
		<g fill="#2d3824" stroke="#1f2716">
			<g stroke-width=".794">
				<path
					d="M303.31 426.94c13.925 5.413 27.754 10.527 43.822 22.634 2.083-.751 3.949-1.829 5.064-4.03-10.332-7.098-27.229-14.195-48.576-21.292z"
					stroke-linecap="round" stroke-linejoin="round" />
				<path
					d="M254.22 407.83c5.373 18.691 31.532 24.368 53.742 19.518-6.28-24.691-39.73-26.81-53.742-19.518z" />
				<path
					d="M270.03 397.5c1.598 22.796 20.37 34.496 37.929 29.854-.285-16.939-24.434-32.081-37.929-29.854z" />
				<path
					d="M259.59 426.52c6.906 9.768 35.953 14.082 48.369.827-7.022-16.321-32.697-15.832-48.369-.827zM211.567 369.757c-1.95 19.35 20.232 34.333 42.655 38.075 3.336-25.257-26.937-39.643-42.655-38.075z" />
				<path
					d="M230.082 366.035c-6.98 21.76 6.107 39.593 24.135 41.802 6.024-15.834-10.778-38.86-24.135-41.802z" />
				<path
					d="M209.614 389.105c2.786 11.634 28.156 26.424 44.606 18.725-.462-17.761-24.483-26.84-44.606-18.725z" />
			</g>
			<g stroke-width=".907">
				<path
					d="M189.271 324.981c-7.864 15.087 5.295 34.459 22.297 44.776 10.908-19.437-9.018-40.95-22.297-44.776z"
					stroke-width=".79347988" />
				<path
					d="M205.521 327.966c-12.732 15.413-7.887 34.148 6.042 41.793 10.033-10.909 3.855-35.068-6.042-41.793z"
					stroke-width=".79347988" />
				<path
					d="M181.406 340.066c-1.512 10.355 14.299 30.604 30.161 29.688 5.39-14.58-11.18-29.75-30.16-29.688z"
					stroke-width=".79347988" />
			</g>
			<g stroke-width=".945">
				<path
					d="M179.45 277.927c-11.035 12.042-3.636 33.27 9.574 47.056 14.936-15.32 1.792-40.214-9.574-47.056z"
					stroke-width=".7936582499999999" />
				<path
					d="M193.78 284.726c-15.63 11.136-15.784 29.713-4.762 40.258 12.01-7.63 12.273-31.567 4.763-40.258z"
					stroke-width=".7936582499999999" />
				<path d="M168.415 289.967c-3.97 9.228 5.67 31.929 20.608 35.013 8.615-12.184-2.99-30.363-20.608-35.013z"
					stroke-width=".7936582499999999" />
			</g>
			<g stroke-width=".908">
				<path
					d="M183.949 228.147c-14.619 8.687-13.622 32.072-4.597 49.783 19.493-10.784 13.87-39.547 4.597-49.783z"
					stroke-width=".7939552" />
				<path d="M196.19 239.23c-18.927 6.404-24.662 24.876-16.844 38.7 14.265-3.996 21.72-27.779 16.845-38.7z"
					stroke-width=".7939552" />
				<path
					d="M169.33 236.832c-6.73 8.006-3.942 33.532 10.022 41.095 12.249-9.557 6.144-31.165-10.022-41.095z"
					stroke-width=".7939552" />
			</g>
			<g stroke-width="1.039">
				<path d="M199.28 187.142c-14.3 4.04-18.73 24.005-15.102 40.991 18.886-4.71 20.623-30.26 15.101-40.99z"
					stroke-width=".79381678" />
				<path
					d="M207.116 199.258c-17.422 1.14-26.427 15.441-22.943 28.873 12.943-.158 24.597-18.555 22.943-28.873z"
					stroke-width=".79381678" />
				<path d="M184.98 191.18c-7.486 5.241-10.884 27.418-.801 36.95 12.494-5.307 12.21-24.924.802-36.95z"
					stroke-width=".79381678" />
			</g>
			<g stroke-width="1.119">
				<path d="M222.419 154.034c-13.794.204-22.543 17.056-23.351 33.162 18.07.291 25.738-22.214 23.35-33.162z"
					stroke-width=".79376265" />
				<path
					d="M226.552 166.777c-15.903-3.143-27.402 7.532-27.488 20.416 11.649 2.953 26.503-10.763 27.488-20.416z"
					stroke-width=".79376265" />
				<path
					d="M208.626 154.236c-7.97 2.912-16.323 21.994-9.557 32.958 12.478-1.773 16.916-19.44 9.557-32.958z"
					stroke-width=".79376265" />
			</g>
			<g stroke-width="1.302">
				<path
					d="M249.526 132.139c-11.447-3.083-22.649 8.78-27.114 21.898 14.863 4.5 26.506-12.289 27.114-21.898z"
					stroke-width=".7936341000000001" />
				<path d="M249.937 143.643c-12.4-6.346-24.419-.235-27.527 10.39 8.93 5.187 24.438-2.646 27.527-10.39z"
					stroke-width=".7936341000000001" />
				<path
					d="M238.08 129.054c-7.272.528-18.673 14.327-15.666 24.982 10.729 1.476 18.56-12.077 15.667-24.982z"
					stroke-width=".7936341000000001" />
			</g>
		</g>
		<g fill="#2d3824" stroke="#1f2716">
			<g stroke-width=".794">
				<path
					d="M351.17 426.94c-13.925 5.413-27.754 10.527-43.822 22.634-2.083-.75-3.949-1.828-5.064-4.03 10.332-7.097 27.229-14.194 48.576-21.291z"
					stroke-linecap="round" stroke-linejoin="round" />
				<path
					d="M400.26 407.83c-5.373 18.691-31.532 24.368-53.742 19.518 6.28-24.69 39.73-26.81 53.742-19.518z" />
				<path
					d="M384.45 397.5c-1.598 22.796-20.37 34.496-37.929 29.854.285-16.939 24.434-32.08 37.929-29.854z" />
				<path
					d="M394.89 426.52c-6.906 9.768-35.953 14.082-48.369.827 7.022-16.32 32.697-15.832 48.369-.827zM442.913 369.758c1.95 19.35-20.232 34.333-42.655 38.075-3.336-25.258 26.937-39.644 42.655-38.075z" />
				<path
					d="M424.398 366.036c6.98 21.76-6.107 39.593-24.135 41.801-6.024-15.834 10.778-38.86 24.135-41.801z" />
				<path
					d="M444.866 389.106c-2.786 11.633-28.156 26.423-44.606 18.725.462-17.762 24.483-26.84 44.606-18.725z" />
			</g>
			<g stroke-width=".907">
				<path
					d="M465.209 324.982c7.864 15.087-5.295 34.458-22.297 44.775-10.908-19.437 9.018-40.95 22.297-44.775z"
					stroke-width=".79347988" />
				<path
					d="M448.959 327.966c12.732 15.414 7.887 34.148-6.042 41.793-10.033-10.909-3.855-35.068 6.042-41.793z"
					stroke-width=".79347988" />
				<path d="M473.074 340.066c1.512 10.356-14.299 30.604-30.161 29.689-5.39-14.58 11.18-29.75 30.16-29.689z"
					stroke-width=".79347988" />
			</g>
			<g stroke-width=".945">
				<path
					d="M475.03 277.928c11.035 12.041 3.636 33.27-9.574 47.056-14.936-15.321-1.792-40.214 9.574-47.056z"
					stroke-width=".7936582499999999" />
				<path d="M460.7 284.726c15.63 11.137 15.784 29.713 4.762 40.258-12.01-7.629-12.273-31.566-4.763-40.258z"
					stroke-width=".7936582499999999" />
				<path d="M486.065 289.967c3.97 9.229-5.67 31.93-20.608 35.014-8.615-12.185 2.99-30.364 20.608-35.014z"
					stroke-width=".7936582499999999" />
			</g>
			<g stroke-width=".908">
				<path
					d="M470.531 228.147c14.619 8.688 13.622 32.073 4.597 49.784-19.493-10.784-13.87-39.548-4.597-49.784z"
					stroke-width=".7939552" />
				<path d="M458.29 239.23c18.927 6.405 24.662 24.876 16.844 38.7-14.265-3.996-21.72-27.779-16.845-38.7z"
					stroke-width=".7939552" />
				<path d="M485.15 236.832c6.73 8.006 3.942 33.532-10.022 41.096-12.249-9.557-6.144-31.166 10.022-41.096z"
					stroke-width=".7939552" />
			</g>
			<g stroke-width="1.039">
				<path d="M455.2 187.143c14.3 4.039 18.73 24.005 15.102 40.99-18.886-4.71-20.623-30.26-15.101-40.99z"
					stroke-width=".79381678" />
				<path
					d="M447.364 199.258c17.422 1.14 26.427 15.442 22.943 28.873-12.943-.158-24.597-18.555-22.943-28.873z"
					stroke-width=".79381678" />
				<path d="M469.5 191.18c7.486 5.242 10.884 27.419.801 36.951-12.494-5.307-12.21-24.925-.802-36.951z"
					stroke-width=".79381678" />
			</g>
			<g stroke-width="1.119">
				<path d="M432.061 154.035c13.794.203 22.543 17.055 23.351 33.161-18.07.291-25.738-22.214-23.35-33.161z"
					stroke-width=".79376265" />
				<path
					d="M427.928 166.778c15.903-3.144 27.402 7.532 27.488 20.415-11.649 2.954-26.503-10.763-27.488-20.415z"
					stroke-width=".79376265" />
				<path d="M445.854 154.237c7.97 2.911 16.323 21.994 9.557 32.957-12.478-1.773-16.916-19.44-9.557-32.957z"
					stroke-width=".79376265" />
			</g>
			<g stroke-width="1.302">
				<path d="M404.954 132.14c11.447-3.084 22.649 8.78 27.114 21.897-14.863 4.5-26.506-12.289-27.114-21.898z"
					stroke-width=".7936341000000001" />
				<path d="M404.543 143.644c12.4-6.347 24.419-.236 27.527 10.39-8.93 5.187-24.438-2.646-27.527-10.39z"
					stroke-width=".7936341000000001" />
				<path d="M416.4 129.055c7.272.527 18.673 14.327 15.666 24.981-10.729 1.476-18.56-12.076-15.667-24.981z"
					stroke-width=".7936341000000001" />
			</g>
		</g>
		<path
			d="M320.83 453.76c.363-6.609 2.89-13.798 5.58-18.747 2.807-5.166 1.319-20.258-3.875-20.062-5.606.47-12.638 6.991-3.679 15.068 2.465 2.221 4.103 3.74 7.553 4.994 2.995-.4 6.006-.955 9.272-4.06 14.138-9.451 2.982-17.461-2.604-14.968-7.16 6.88-4.134 18.89-4.134 18.89 4.434 4.672 5.632 13.043 6.925 18.937"
			fill="none" stroke="#ea2200" stroke-linecap="round" stroke-linejoin="round" stroke-width="2.646" />
		<ellipse cx="328.11" cy="434.88" rx="4.754" ry="3.908" fill="#ea2200" />
	</g>
	<path
		d="M221.34 132.123c0 21.126-16.193 38.26-36.128 38.26-19.934 0-36.128-17.135-36.128-38.26 0-21.164 16.194-38.299 36.128-38.299 19.935 0 36.129 17.134 36.129 38.299z"
		fill="#fff" fill-rule="evenodd" />
	<path d="M149.084 132.576c0-21.126 16.146-38.26 36.128-38.26 19.935 0 36.082 17.135 36.082 38.26v.226l-36.082-.226z"
		fill="#75aadb" fill-rule="evenodd" />
	<path transform="matrix(1.07838 0 0 1.07839 214.785 120.307)" d="M-61.243 11.09H6.354" fill="none" stroke="#cd6e04"
		stroke-width=".927" />
	<g stroke-linecap="round" stroke-linejoin="round">
		<path d="M757.42 399.1c1.78 8.663 17.409 6.253 28.567 7.418 14.884-.378 29.725-.775 32.835-6.569l-31.655-7.773z"
			fill="#ea2200" stroke="#8a0010" stroke-width="1.593" transform="matrix(.28942 0 0 .28473 -43.584 .834)" />
		<path d="M787.06 586.08c2.296.767 4.591.63 6.887 0V392.19h-6.887z" fill="#5b4025" stroke="#111404"
			stroke-width=".994" transform="matrix(.28942 0 0 .28473 -43.584 .834)" />
		<path
			d="M757.42 399.1c7.457-3.49 51.914-3.53 61.401.85 4.302-6.524 3.314-19.167 1.278-22.554 3.857-.396 3.757-6.39 4.157-9.426-.965-3.145-6.163-12.372-9.093-16.728-.597-.887-1.751-1.696-1.751-1.696-7.21-3.712-16.138-12.09-23.078-11.457-6.563.556-18.983 14.6-27.123 25.27-3.62 4.745-4.709 10.098-5.99 14.366 1.313 10.514-1.725 16.438.2 21.376z"
			fill="#ea2200" stroke="#8a0010" stroke-width="1.593" transform="matrix(.28942 0 0 .28473 -43.584 .834)" />
	</g>
	<g stroke-linecap="round" stroke-linejoin="round">
		<path d="M190.531 103.9c1.05 1.377 2.662 2.505 3.244 4.395M178.184 107.952c5.713-.638 9.728-.262 12.946.592"
			fill="none" stroke="#8a0010" stroke-width=".45724159999999997" />
		<g stroke="#554113" stroke-width="1.587">
			<path
				d="M-957.31 656.68c-1.194 1.532-.034 3.132.947 4.282 5.736 6.72 19.954 19.467 22.366 15.304 17.167-10.78 30.704-44.294 43.506-46.385-.321 2.78.616 4.64 2.828 5.569.285 1.715 1.193 2.971 3.325 3.325-.07 2.316.92 3.862 2.994 4.62 2.405 7.203 7.89 1.764 11.44-.564 2.49 3.464 5.56 3.962 9.427.402 3.015.59 5.718.783 6.285-1.754 2.29-.02 4.562-.068 5.774-1.973 1.873.071 3.743.125 5.521-.375 8.424 3.296 11.51 14.152 17.002 21.6 5.034 6.481 11.97 10.33 19.133 14.293 7.47-5.06 14.886-10.177 19.878-17.905-6.403-7.182-12.919-14.404-21.235-21.398-7.008-5.154-15.848-9.713-22.634-16.847-1.165-2.087-3.2-4.637-6.408-6.821-2.69-2.468-9.953-5.41-15.193-8.579-1.613-.3-6.103-.14-8.902-2.038-.409-.277-.716-.587-1.413-.736-2.545-.304-2.97.129-8.297.229-1.069.02-1.473-1.389-4.054-1.545-1.305.39-2.731.568-3.289 2.266-9.163-1.417-19.807 8.514-30.062 15.467-9.376 6.404-19.432 10.607-26.872 16.33-8.488 6.763-17.55 13.028-22.067 23.233z"
				fill="#bc9e6c" transform="matrix(.29372 0 0 .28593 441.675 -29.08)" />
			<g fill="none">
				<path
					d="M-878.31 601.65c-.416 6.989 5.149 7.997 12.106 7.612 2.332 1.522 4.637 3.235 7.235 2.894 3.762 11.497 13.18 18.628 21.91 13.953M-848.42 639.51c-2.152-12.285-10.12-19.551-9.62-24.353M-861.36 625.99c2.684 3.699 7.3 12.846 7.162 15.493M-868.37 628.11c3.504 1.77 5.262 10.085 7.893 15.128M-881.35 643.4c11.655-9.082 13.79-2.452 11.44-.563M-884.34 638.78c11.242-9.933 17.761-5.368 12.121-.24M-887.67 635.45c13.784-12.715 17.435-5.097 14.587-2.779M-890.49 629.88c11.405-8.005 16.532-3.096 13.571-1.447"
					transform="matrix(.29372 0 0 .28593 441.675 -29.08)" />
			</g>
		</g>
	</g>
	<path
		d="M221.347 132.127c0 21.126-16.194 38.26-36.129 38.26-19.934 0-36.128-17.134-36.128-38.26 0-21.163 16.194-38.298 36.128-38.298 19.935 0 36.129 17.135 36.129 38.298z"
		fill="none" stroke="#cd6e04" stroke-width=".9996768" />
	<g fill="#2b2c25">
		<path
			d="M187.847 167.843c-.776-.31-1.212-1.031-1.216-2.009-.003-.712.173-1.114.661-1.514.626-.512 1.373-.51 2.002.005 1.001.82.99 2.582-.022 3.299-.299.211-1.126.338-1.425.219zm1.116-.53c.243-.252.268-.369.263-1.213-.005-.673-.06-1.034-.2-1.29-.361-.663-1.135-.735-1.454-.134-.192.361-.225 1.485-.06 2.044.245.832.945 1.118 1.45.593zm1.875.145c0-.076.095-.196.21-.266.207-.126.206-.155-.054-1.347-.323-1.477-.418-1.704-.708-1.704-.464 0-.211-.283.358-.4l.581-.12 1.136 1.093c.624.602 1.134 1.047 1.132.989-.005-.21-.412-1.861-.487-1.98-.042-.067-.178-.121-.301-.121-.303 0-.204-.24.134-.327.772-.198.99-.207.99-.044 0 .089-.076.19-.167.224-.23.086-.213.294.166 1.89.183.77.333 1.444.333 1.5 0 .316-.544-.04-1.72-1.13-.73-.675-1.335-1.22-1.344-1.212-.01.008.105.548.256 1.2.265 1.146.394 1.398.666 1.301.071-.025.156.023.19.106.057.147-.087.204-1.067.419-.21.046-.304.023-.304-.071zm-11.498-.121c-.62-.13-.762-.3-.334-.397.226-.051.285-.191.501-1.186.294-1.35.315-1.812.088-1.897-.092-.035-.167-.132-.167-.218 0-.158.09-.153 1.218.06.467.09.62.442.191.442-.256 0-.282.067-.56 1.415-.16.778-.264 1.458-.231 1.51.033.052.132.094.22.094.087 0 .16.073.16.162 0 .188-.242.191-1.086.015zm-1.924-.42c-.092-.074-.357-.813-.587-1.644-.593-2.13-.53-2.062-.882-.966-.422 1.318-.468 1.647-.244 1.73.173.065.26.368.107.368-.04 0-.339-.081-.664-.181-.608-.186-.801-.466-.323-.466.243 0 .301-.102.624-1.105.196-.608.361-1.275.369-1.482.011-.347-.016-.38-.331-.41-.31-.03-.465.09-1.574 1.221-.839.855-1.294 1.243-1.429 1.217-.222-.043-.222-.02-.025-2.237.093-1.042.089-1.397-.018-1.59-.21-.383-.053-.412.645-.119.658.276.944.649.459.597-.28-.03-.32.118-.47 1.748l-.075.805.346-.32c.19-.176.592-.595.894-.933.488-.546.533-.637.409-.83-.077-.12-.107-.25-.068-.288.06-.058 1.512.434 2.08.705.096.046.346.697.599 1.557l.434 1.477.337-1.042c.315-.972.325-1.052.149-1.178-.225-.16-.25-.38-.043-.38.08 0 .382.078.67.173.55.183.62.372.174.475-.233.054-.329.252-.767 1.587-.275.838-.53 1.552-.564 1.585-.035.032-.14 0-.232-.074zm20.732-1.517c0-.087.075-.185.166-.22.214-.08.212-.4-.007-.847-.2-.406-2.006-1.63-2.325-1.574-.106.019-.214-.024-.24-.096-.049-.137 1.395-.836 1.505-.728.034.032-.002.16-.081.283-.08.123-.102.257-.052.3.37.305 1.288.872 1.336.826.033-.032.084-.4.115-.817.056-.757.055-.758-.23-.758-.497 0-.435-.199.152-.489.689-.34.979-.298.71.102-.103.152-.228.714-.297 1.325-.11.996-.104 1.088.12 1.514.217.414.266.448.569.389.547-.107.387.148-.306.486-.883.431-1.135.499-1.135.304zm-17.972-2.13c-.362-.205-.133-.962.291-.962.41 0 .68.52.442.85-.178.247-.427.285-.733.112zm26.928-8.822l.318-.348c.227-.248.47-.521.539-.611.068-.09.181-.128.255-.084.1.06.102.117.008.227-.069.081-.109.217-.089.302.043.18 1.969 1.685 2.16 1.687.202.003.702-.636.701-.896 0-.13-.098-.39-.217-.581-.317-.507-.079-.548.5-.087.271.217.493.42.493.454 0 .115-1.907 2.19-2.014 2.19-.06 0-.08-.133-.047-.297.056-.27-.029-.365-.93-1.05-1.05-.8-1.182-.866-1.427-.713-.226.193-.32-.13-.25-.193zm4.713-.494c.062-.242-.034-.334-1.012-.97-1.09-.71-1.327-.8-1.546-.587-.086.085-.142.083-.199-.006-.044-.07.185-.462.523-.899.331-.426.721-.97.867-1.207.147-.237.435-.613.64-.835.31-.335.45-.405.803-.405.334 0 .468.06.61.27.1.148.158.389.13.535l-.053.264.276-.21c.378-.29.922-.274 1.223.038.41.424.269.974-.576 2.257-.427.649-.697.815-.58.357.063-.241-.025-.314-1.053-.876-.617-.337-1.21-.635-1.317-.663-.194-.049-.553.321-.553.57 0 .067.507.45 1.128.852.96.622 1.158.712 1.334.606.41-.25.412.016.004.589-.446.625-.769.785-.649.32zm1.9-2.695c.088-.206.16-.422.16-.48 0-.19-.477-.548-.728-.548-.246 0-.934.592-.933.803 0 .156.77.573 1.085.587.191.01.295-.081.415-.362zm-1.616-.59c.19-.346.139-.849-.1-.973-.336-.175-.644-.132-.89.124-.327.343-.278.554.19.819.515.29.654.296.8.03zm-3.74.835c-.296-.288-.015-.841.426-.841.319 0 .595.468.442.747-.138.25-.65.306-.868.094zm6.457-1.681c-.06-.042-.11-.173-.11-.29 0-.167-.265-.325-1.247-.744-1.188-.506-1.257-.522-1.457-.346-.44.387-.343-.079.277-1.34.349-.711.7-1.293.78-1.293.275 0 1.047.35 1.01.458-.02.06-.222.119-.448.132-.226.013-.516.116-.644.23-.248.218-.542.71-.542.906 0 .152.963.572 1.109.484.181-.11.124-.402-.131-.666-.377-.39-.16-.418.686-.087.711.279.982.564.494.52-.31-.027-.718.158-.718.326 0 .135.933.609 1.199.609.168 0 .462-.7.462-1.103a.788.788 0 00-.278-.624c-.43-.393-.162-.487.483-.169l.563.278-.476.998c-.734 1.536-.892 1.804-1.012 1.72zm1.466-3.214c-.036-.036-.039-.133-.006-.217.072-.182-.28-.336-1.71-.753-.986-.287-1.03-.291-1.174-.101-.081.109-.2.166-.263.128-.073-.044.019-.429.256-1.067.38-1.028.824-1.592 1.252-1.592.36 0 .789.416.789.765 0 .316.002.317.28.14.21-.134.42-.163.83-.116.438.05.551.031.551-.093 0-.087-.079-.157-.175-.157s-.154-.06-.127-.135c.053-.15.392-.121.607.05.198.16.17.685-.048.898-.183.177-.645.174-1.316-.01-.267-.073-.66.217-.764.565-.062.209 0 .256.542.423.572.176.625.176.816.007.424-.373.454-.198.118.698-.226.604-.311.709-.458.567zm-1.297-1.83c.265-.678.05-1.125-.541-1.125-.275 0-.68.485-.68.814 0 .192.103.282.47.408.633.218.628.219.751-.097zm-.368-2.054c-.415-.124-.52-.2-.474-.343.032-.101.18-.684.327-1.296.148-.612.295-1.138.326-1.168.031-.03.335-.022.676.02.735.089.832.317.17.403-.827.108-1.043.54-.355.713.229.057.856.191 1.393.298l.978.193.206-.265c.32-.414.37-.191.155.698-.196.81-.4 1.011-.468.46-.03-.249-.106-.295-.664-.404a70.72 70.72 0 01-1.33-.276c-.92-.201-.927-.2-.886.142.022.194.157.37.39.512.356.218.487.494.226.48-.076-.005-.378-.08-.67-.167zm3.404-2.124c-.034-.088-.758-.516-1.607-.953-1.047-.537-1.535-.845-1.514-.954.022-.117.507-.259 1.745-.51 1.8-.365 2.056-.49 1.89-.93-.083-.218-.17-.233-1.53-.262-1.368-.028-1.444-.018-1.5.19-.032.12-.12.218-.195.218-.207 0-.083-2.005.152-2.445.317-.596.8-.844 1.645-.844.837 0 1.206.19 1.582.816.182.301.213.532.192 1.39-.042 1.646-.195 2.592-.419 2.592-.086 0-.156-.102-.156-.228 0-.184-.049-.215-.25-.163a2.112 2.112 0 01-.394.066c-.108.002-.095.083.05.323.19.313.189.326-.064.588l-.259.268.304.135c.264.117.324.11.451-.06.224-.299.351-.127.28.378-.064.462-.288.676-.403.385zm-.618-1.233c.228-.187.228-.192.02-.436-.205-.238-.238-.242-.96-.12l-.747.127.602.304c.718.361.787.37 1.086.125zm1.19-3.318c.1-.392-.153-.897-.552-1.099-.438-.22-1.496-.24-1.89-.034-.502.261-.834 1.192-.476 1.333.076.03.748.058 1.493.063l1.355.008.07-.271zm-59.943 17.923c-.044-.11 1.197-3.022 1.477-3.466.12-.19-2.073 1.18-2.21 1.382-.042.06-.031.19.023.29.097.175.043.317-.121.317-.126 0-.805-1.079-.727-1.155.038-.037.186-.007.329.067.236.123.353.075 1.301-.53 1.358-.866 1.441-.943 1.36-1.255-.11-.43.208-.292.535.232l.299.479-.612 1.36c-.336.749-.593 1.378-.571 1.4.022.021.429-.21.904-.516.798-.514.859-.578.801-.858-.098-.478.191-.374.58.208.219.328.303.548.234.615-.068.066-.154.057-.24-.026a.479.479 0 00-.28-.13c-.08 0-.742.389-1.47.863-.727.475-1.375.863-1.44.863-.064 0-.142-.063-.172-.14zm-2.788-4.71c-.768-1.442-.881-1.915-.345-1.443.22.194.252.185 1.516-.45 1.193-.599 1.29-.67 1.27-.942-.046-.65.315-.258 1.017 1.106.397.77.72 1.437.72 1.483 0 .045-.248.214-.55.376-.61.328-.81.24-.453-.202.13-.16.229-.442.229-.65 0-.397-.239-1.044-.428-1.158-.065-.039-.374.055-.686.21-.551.271-.563.287-.375.489.118.127.339.208.564.208.204 0 .371.045.371.099 0 .109-1.349.872-1.541.872-.184 0-.145-.193.106-.523.218-.286.206-.663-.02-.663-.057 0-.35.122-.653.271-.62.306-.667.458-.314 1.02.338.541.533.653 1.085.627.717-.034.7.19-.04.51a10.86 10.86 0 01-.648.265c-.013-.002-.384-.679-.825-1.505z" />
	</g>
</svg>