<svg version="1.0" width="550" height="300" xmlns:xlink="http://www.w3.org/1999/xlink"
   xmlns="http://www.w3.org/2000/svg">
   <path fill="#75aadb" d="M0 0h550v300H0z" />
   <path d="M354.588 0h171.31l-85.655 300z" fill="#fff" />
   <g transform="matrix(1 0 0 .78125 36.667 15.86)">
      <path d="M25 72.5h38.208L70 80H31.792z" id="prefix__a" fill="#04a52a" fill-opacity="1" fill-rule="nonzero"
         stroke="none" stroke-width=".25" stroke-linecap="square" stroke-linejoin="miter" stroke-miterlimit="4"
         stroke-opacity="1" />
      <use transform="matrix(-1 0 0 1 95 9.6)" id="prefix__b" x="0" y="0" width="396" height="216"
         xlink:href="#prefix__a" />
      <use transform="translate(47.5)" width="396" height="216" xlink:href="#prefix__a" />
      <use transform="translate(47.5)" width="396" height="216" xlink:href="#prefix__b" />
      <use transform="translate(-47.5)" width="396" height="216" xlink:href="#prefix__a" />
      <use transform="translate(-47.5)" width="396" height="216" xlink:href="#prefix__b" />
      <use transform="translate(-95)" width="396" height="216" xlink:href="#prefix__a" />
      <use transform="translate(-95)" width="396" height="216" xlink:href="#prefix__b" />
      <use transform="translate(95)" width="396" height="216" xlink:href="#prefix__a" />
      <use transform="translate(95)" width="396" height="216" xlink:href="#prefix__b" />
      <use transform="translate(142.5)" width="396" height="216" xlink:href="#prefix__a" />
      <use transform="translate(142.5)" width="396" height="216" xlink:href="#prefix__b" />
      <use transform="translate(190)" width="396" height="216" xlink:href="#prefix__a" />
      <use transform="translate(190)" width="396" height="216" xlink:href="#prefix__b" />
      <use transform="translate(237.5)" width="396" height="216" xlink:href="#prefix__a" />
      <use transform="translate(237.5)" width="396" height="216" xlink:href="#prefix__b" />
      <use transform="translate(285)" width="396" height="216" xlink:href="#prefix__a" />
      <use transform="translate(285)" width="396" height="216" xlink:href="#prefix__b" />
      <use transform="matrix(-1 0 0 1 515 0)" width="396" height="216" xlink:href="#prefix__a" />
      <use transform="matrix(-1 0 0 1 515 0)" width="396" height="216" xlink:href="#prefix__b" />
      <use transform="matrix(-1 0 0 1 565 0)" width="396" height="216" xlink:href="#prefix__a" />
      <use transform="matrix(-1 0 0 1 565 0)" width="396" height="216" xlink:href="#prefix__b" />
   </g>
   <path
      d="M470.106 85.766l-3.9-1.508 3.717-3.717a.622.622 0 000-.88.622.622 0 00-.88 0l-3.7 3.702-1.45-3.883-1.508 3.899-3.717-3.717a.622.622 0 00-.88 0 .622.622 0 000 .879l3.703 3.702-3.885 1.45 3.9 1.507-3.718 3.717a.622.622 0 000 .88.622.622 0 00.88 0l3.702-3.702 1.45 3.884 1.507-3.899 3.717 3.717a.622.622 0 00.88 0 .622.622 0 000-.88l-3.702-3.701zM483.787 62.07l-3.9-1.508 3.717-3.717a.622.622 0 000-.88.622.622 0 00-.88 0l-3.7 3.702-1.45-3.883-1.508 3.899-3.717-3.717a.622.622 0 00-.88 0 .622.622 0 000 .879l3.702 3.702-3.885 1.45 3.9 1.507-3.717 3.717a.622.622 0 000 .88.622.622 0 00.88 0l3.702-3.702 1.45 3.884 1.507-3.898 3.717 3.717a.622.622 0 00.879 0 .622.622 0 000-.88l-3.701-3.702zM479.036 35.125l-3.9-1.509 3.717-3.717a.622.622 0 000-.88.622.622 0 00-.88 0l-3.7 3.702-1.45-3.883-1.509 3.899-3.717-3.717a.622.622 0 00-.879 0 .622.622 0 000 .879l3.702 3.702-3.885 1.45 3.9 1.507-3.717 3.717a.622.622 0 000 .88.622.622 0 00.88 0l3.701-3.702 1.45 3.884 1.507-3.898 3.717 3.717a.622.622 0 00.88 0 .622.622 0 000-.88l-3.701-3.702zM458.075 17.537l-3.9-1.509 3.718-3.717a.622.622 0 000-.879.622.622 0 00-.88 0l-3.7 3.701-1.45-3.883-1.509 3.9-3.717-3.718a.622.622 0 00-.88 0 .622.622 0 000 .88l3.703 3.702-3.885 1.45 3.9 1.507-3.717 3.717a.622.622 0 000 .88.622.622 0 00.879 0l3.702-3.702 1.45 3.884 1.507-3.899 3.717 3.717a.622.622 0 00.88 0 .622.622 0 000-.88l-3.702-3.702zM430.714 17.537l-3.9-1.509 3.717-3.717a.622.622 0 000-.879.622.622 0 00-.88 0l-3.7 3.701-1.45-3.883-1.509 3.9-3.717-3.718a.622.622 0 00-.879 0 .622.622 0 000 .88l3.702 3.702-3.885 1.45 3.9 1.507-3.717 3.717a.622.622 0 000 .88.622.622 0 00.88 0l3.702-3.702 1.45 3.884 1.507-3.899 3.717 3.717a.622.622 0 00.879 0 .622.622 0 000-.88l-3.701-3.702zM409.754 35.125l-3.9-1.509 3.717-3.717a.622.622 0 000-.88.622.622 0 00-.88 0l-3.7 3.702-1.45-3.883-1.509 3.899-3.717-3.717a.622.622 0 00-.879 0 .622.622 0 000 .879l3.702 3.702-3.885 1.45 3.9 1.507-3.717 3.717a.622.622 0 000 .88.622.622 0 00.88 0l3.701-3.702 1.45 3.884 1.507-3.898 3.717 3.717a.622.622 0 00.88 0 .622.622 0 000-.88l-3.701-3.702zM405.002 62.07l-3.9-1.508 3.717-3.717a.622.622 0 000-.88.622.622 0 00-.879 0l-3.7 3.702-1.45-3.883-1.51 3.899-3.716-3.717a.622.622 0 00-.88 0 .622.622 0 000 .879l3.703 3.702-3.885 1.45 3.9 1.507-3.717 3.717a.622.622 0 000 .88.622.622 0 00.879 0l3.702-3.702 1.45 3.884 1.507-3.898 3.717 3.717a.622.622 0 00.88 0 .622.622 0 000-.88l-3.702-3.702zM418.683 85.766l-3.9-1.508 3.717-3.717a.622.622 0 000-.88.622.622 0 00-.88 0l-3.7 3.702-1.45-3.883-1.508 3.899-3.717-3.717a.622.622 0 00-.88 0 .622.622 0 000 .879l3.703 3.702-3.885 1.45 3.9 1.507-3.718 3.717a.622.622 0 000 .88.622.622 0 00.88 0l3.702-3.702 1.45 3.884 1.507-3.899 3.717 3.717a.622.622 0 00.88 0 .622.622 0 000-.88l-3.702-3.701zM444.395 95.125l-3.9-1.509 3.717-3.717a.622.622 0 000-.88.622.622 0 00-.88 0l-3.7 3.702-1.45-3.883-1.509 3.899-3.717-3.717a.622.622 0 00-.879 0 .622.622 0 000 .879l3.702 3.702-3.885 1.45 3.9 1.507-3.717 3.717a.622.622 0 000 .88.622.622 0 00.88 0l3.701-3.702 1.45 3.884 1.507-3.898 3.717 3.717a.622.622 0 00.88 0 .622.622 0 000-.88l-3.701-3.702z"
      fill="#fef000" />
</svg>