<svg xmlns="http://www.w3.org/2000/svg" width="300" height="200" viewBox="0 0 79.375 52.917"><path fill="#007be0" d="M0 0h79.375v17.639H0z"/><path fill="#39c937" d="M0 35.278h79.375v17.639H0z"/><path fill="#fff" d="M0 17.639h79.375v17.639H0z"/><path d="M0 0h26.458v17.64H0z"/><path fill="#fff" d="M13.449 13.958l-.235.705-.235-.705h-.737l.596-.439-.22-.705.596.439.595-.439-.22.705.596.439zM15.845 13.253l.126.736-.533-.517-.658.345.33-.674-.534-.517.737.11.329-.658.125.72.736.11zM17.647 11.514l.454.595-.72-.22-.408.612-.031-.737-.705-.203.705-.25-.016-.737.439.58.705-.235zM18.43 9.148l.674.314-.72.14-.095.737-.36-.658-.72.157.5-.549-.36-.642.674.313.501-.548zM18.038 6.673l.737-.031-.58.47.266.69-.626-.408-.58.454.204-.705-.627-.407.752-.031.188-.72zM16.535 4.684l.626-.376-.297.673.564.486-.737-.063-.297.674-.157-.72-.736-.063.626-.376-.156-.736zM14.263 3.603l.392-.627.062.737.705.188-.673.282.047.736-.47-.564-.69.266.392-.626-.485-.564zM11.772 3.713l.047-.737.392.627.72-.172-.47.564.377.626-.674-.282-.486.564.063-.736-.69-.282zM9.61 4.966l-.297-.674.627.376.564-.501-.157.72.626.376-.736.079-.156.72-.298-.673-.736.062zM8.263 7.08L7.7 6.61l.737.048.25-.69.204.705.736.032-.61.407.187.72-.58-.47-.61.408zM8.075 9.571l-.736-.14.674-.314-.094-.736.517.548.658-.313-.36.642.516.548-.736-.14-.36.642zM9.047 11.874l-.705.22.454-.596-.423-.61.705.25.439-.595-.016.752.705.235-.72.219-.016.736zM10.99 13.456l-.533.517.125-.736-.642-.345.72-.094.126-.736.328.658.737-.094-.533.517.33.658z" class="prefix__st0"/></svg>