<svg xmlns="http://www.w3.org/2000/svg" width="300" height="200" viewBox="0 0 79.375 52.917"><path fill="#003da6" d="M0 0h79.375v17.639H0z"/><path fill="#39c937" d="M0 35.278h79.375v17.639H0z"/><path fill="#d8d2cb" d="M0 17.639h79.375v17.639H0z"/><path d="M0 0h26.458V26.46H0z"/><path fill="#d8d2cb" d="M13.77 20.278l.893.658h-1.105l-.352 1.058-.353-1.058H11.75l.893-.658-.33-1.057.894.658.893-.658zM17.036 19.198l1.104.164-.987.517.188 1.104-.799-.775-.987.517.494-1.01-.799-.776 1.104.165.494-.987zM19.433 16.73l1.057-.352-.634.893.68.893-1.08-.33-.61.917-.048-1.104-1.057-.306 1.057-.376-.023-1.104zM20.42 13.44l.751-.822-.14 1.105 1.01.47-1.081.211-.141 1.104-.54-.986-1.081.235.751-.823-.54-.963zM19.762 10.057l.281-1.08.4 1.033 1.104-.047-.87.705.4 1.034-.94-.611-.869.681.306-1.057-.94-.611zM17.576 7.378l-.235-1.104.846.752.94-.564-.446 1.01.846.729-1.105-.094-.446 1.01-.235-1.08-1.105-.095zM14.428 5.992l-.729-.846 1.081.258.587-.94.094 1.105 1.058.282-1.01.423.07 1.104-.705-.846-1.034.4zM10.997 6.25l-1.034-.423 1.08-.258.071-1.104.588.94 1.08-.259-.704.846.564.94-1.01-.423-.73.846zM8.06 8.083l-1.105.094.846-.728-.446-1.01.94.563.846-.752-.235 1.081.94.564-1.105.118-.235 1.08zM6.32 11.044l-.916.61.376-1.033-.845-.705 1.104.07.376-1.033.305 1.057 1.105.047-.917.61.282 1.082zM6.156 14.498l-.54.963-.118-1.104-1.104-.211 1.01-.47-.14-1.105.775.823.987-.47-.54.963.775.823zM7.613 17.623l-.023 1.105-.635-.917-1.057.33.681-.894-.634-.916 1.057.376.658-.893-.023 1.128 1.057.352zM10.362 19.715l.494.986-.987-.517-.799.776.188-1.105-.963-.516 1.08-.141.189-1.105.493.987 1.104-.14z" class="prefix__st0"/></svg>