<svg xmlns="http://www.w3.org/2000/svg" width="370.14" height="249.85" data-name="Capa 1"><path fill="#fff" d="M0 0h370.14v249.85H0z"/><path fill="#fd9730" d="M0 0v249.85h370.14l-43.97-47.89-124.39-56.61-92.38.11 43.6-28.42-80.74-82.03z"/><path fill="#1983dd" d="M164.97 111.36l51.46-7.59-8.62 33.63 134.96 38.84 27.37 73.6V0H73.94l91.04 111.35z"/><g fill="#fff"><path d="M249.52 28.63l8.55-4.97-2.01-9.8 7.29 6.74 8.55-4.97-4.04 9.13 7.29 6.74-9.79-1.09-4.04 9.13-2.01-9.8-9.79-1.09zM234.09 85.4l8.55-4.97-2.01-9.8 7.29 6.74 8.55-4.97-4.04 9.13 7.29 6.74-9.79-1.09-4.04 9.13-2.01-9.8-9.79-1.09zM312.31 155.12l8.55-4.97-2.01-9.8 7.29 6.74 8.55-4.97-4.04 9.13 7.29 6.74-9.78-1.09-4.04 9.13-2.01-9.81-9.79-1.09zM310.03 36.35l8.55-4.97-2.01-9.8 7.29 6.74 8.55-4.97-4.04 9.13 7.29 6.74-9.79-1.09-4.04 9.13-2.01-9.8-9.79-1.09zM311.53 75.62l4.49-2.61-1.05-5.15 3.83 3.54 4.49-2.61-2.12 4.8 3.83 3.54-5.14-.57-2.12 4.8-1.05-5.15-5.14-.57z"/></g></svg>