<svg xmlns="http://www.w3.org/2000/svg" width="700" height="500"><path fill="#2c2c74" d="M0 0h700v500H0z"/><path fill="#d2ab66" d="M349.994 133.335c52.4 0 96.73 34.553 111.458 82.123-8.47-4.402-19.7-9.726-28.46-12.822-5.017-1.775-7.167-2.805-11.332-6.022-2.8-2.163-5.585-4.316-9.126-5.391-3.607-1.098-6.024-.916-8.194-.753-2.253.17-6.238-.828-8.038-2.242-2.278-1.788-4.75-3.311-14.055-3.451-5.138-.078-12.795-15.545-21.271-8.961-6.917 5.372-12.31 13.883-18.173 18.23-2.579 1.913-4.687 3.797-6.501 5.419-5.983 5.35-5.954 4.682-11.405-2.364-2.368-3.06-4.475-5.783-7.494-6.434-3.084-.664-5.929 1.936-9.06 4.8-2.355 2.114-3.203.851-4.013-.596-1.733-3.103-4.177-4.704-8.802-2.322-1.751.901-3.65 2.055-5.639 3.262-3.967 2.41-8.342 5.067-13.127 6.373-10.371 2.83-25.499 5.478-36.103 7.05 16.538-44.328 59.247-75.898 109.331-75.898zm2.72 173.59c-2.294 2.188-5.046 1.733-7.061.301-1.681 2.291-3.891 2.472-5.653 1.488-.777 3.104-3.565 4.253-5.908 4.376 3.008 5.111 9.166 7.917 15.15 7.917 5.856 0 12.044-2.862 15.117-7.778-2.805.175-5.167-1.686-6.32-4.584-2.51.985-4.244.075-5.325-1.719zm111.47-80.884c1.616 7.74 2.47 15.76 2.47 23.981 0 63.46-50.649 115.083-113.719 116.653v-13.13c8.934-12.943 18.887-21.649 28.348-31.458 8.9-8.172 12.454-8.33 17.392-13.833 4.423-4.932 6.983-10.684 10.27-16.437-2.126 1.15-4.28 2.445-6.774 5.433-1.06 2.383-2.477 4.856-5 7.605-2.836 1.446-5.957 2.436-8.509 4.34-2.69 2.005-4.358 5.167-7.001 7.234-2.988 2.335-5.43 1.188-6.875 2.164-1.908 1.29-1.58 4.492-3.207 6.122-2.798 2.804-5.612-.166-7.937 2.602-5.574 6.636-7.22 13.877-10.706 20.485v-23.597c8.258-1.346 14.79-7.117 16.407-14.465-4.19 1.022-7.506-.07-9.314-4.811-2.758.687-5 .048-6.691-2.008-3.176 2.03-5.949 1.92-8.363-.167-1.899 2.552-4.198 3.235-6.859 1.673-1.831 4.762-5.014 6.025-9.003 5.203 1.645 7.723 8.71 13.726 17.523 14.724v31.552c-3.213-6.39-4.945-13.316-10.295-19.686-2.326-2.769-5.14.201-7.938-2.602-1.627-1.63-1.3-4.832-3.207-6.122-1.444-.977-3.886.17-6.874-2.165-2.644-2.066-4.312-5.228-7.002-7.234-2.552-1.904-5.673-2.893-8.51-4.339-2.521-2.75-3.94-5.222-4.998-7.606-2.495-2.988-4.649-4.283-6.775-5.433 3.287 5.753 5.847 11.505 10.27 16.437 4.939 5.504 8.49 5.662 17.393 13.834 9.316 9.659 19.11 18.248 27.936 30.866v4.806c-62.88-1.777-113.305-53.314-113.305-116.632 0-11.218 1.586-22.066 4.541-32.335 11.175-1.157 29.791-4.702 41.003-7.763 5.864-1.6 11.783-4.449 16.209-7.138 8.203-4.982 3.333 5.761 6.568 5.93 4.582.24 10.698-14.65 17.468-5.9 3.305 4.272 6.565 8.422 12.51 8.315 3.736-.067 6.368-2.42 10.024-5.688 4.817-4.306 8.363-6.927 12.83-11.926 1.798-2.01 3.865-4.18 5.933-6.397 5.38-5.766 4.913-4.893 12.134 1.41 3.324 2.899 6.784 4.364 9.92 4.27 6.386-.19 7.676.821 8.862 1.752 3.723 2.925 8.919 4.296 13.609 3.942 5.58-.418 7.526 1.164 11.813 4.476 4.817 3.72 7.78 5.204 13.565 7.25 10.55 3.727 23.826 10.327 33.87 15.82z"/><path fill="#a31b1f" d="M309.813 239.26c10.204 12.056 19.983 10.612 27.565 33.691 2.11 6.423-.207 11.015 3.56 21.513.955 2.661 2.17 7.596-1.47 6.38-1.403-.47-3.665-1.649-5.35-.407-1.16.857-1.017 2.744-1.128 4.184-.173 2.215-1.92 1.56-3.49 1.267-2.722-.507-1.8-1.22-2.988-3.67-4.303-8.864-11.584-14.584-14.15-25.212-.815-3.372-2.093-7.404-.537-10.596 1.16-2.382 2.014-3.71 1.246-5.973-3.524-6.309-5.13-13.208-3.258-21.176zm66.594-5.068c.024 5.409.41 11.684-1.553 17.775-1.932 5.997-5.228 5.564-5.188 11.558.497 4.346.432 8.309-.03 12.659-.49 4.604-3.35 8.696-4.061 13.272-.567 3.648-.418 7.213-1.655 10.62.2 4.254-.024 6.694 5.972 5.429 15.78-12.17 20.173-34.045 6.515-71.313zm-21.566-2.732c.8 1.034.79 4.03 2.08 4.24 1.597.26 2.558-1.214 4.272-.467 3.484 1.518 5.961 4.108 8.48 7.2 1.31 1.605 3.28 4.407 2.636 6.633-2.532 8.743-4.368 7.793-5.934 13.066-.835 2.815 1.52 7.176-.854 17.184-.982 4.139-1.903 8.386-3.29 12.412-.673 1.956-1.747 3.717-2.434 5.667-.819 2.318-3.172 2.583-4.957 1.099-.813-.909-1.224-2.639-2.44-2.726-1.172-.085-1.117 1.803-1.987 2.59-2.488 2.246-7.648-4.498-8.039-8.871-.613-6.861-1.032-12.141-2.414-17.815-1.032-4.234-2.845-8.606-5.309-12.28-1.301-1.941-2.384-3.883-4.01-5.956 2.726-8.99 9.208-14.56 15.118-20.166 3.84-3.642 5.976-5.835 9.083-1.81z"/></svg>