<svg xmlns="http://www.w3.org/2000/svg" width="700" height="500" fill-rule="evenodd"><path fill="#48a0d3" d="M0 0h700v500H0z"/><g clip-rule="evenodd" image-rendering="optimizeQuality" shape-rendering="geometricPrecision" text-rendering="geometricPrecision"><path fill="#c3bab1" d="M276.754 140.995h146.53v-33.396h-35.56v16.433h-21.602v-16.433h-32.204v16.433h-21.645v-16.433h-35.517zm123.69-5.787h10.072V122.22c0-2.74-2.253-5.036-5.036-5.036-2.739 0-5.036 2.297-5.036 5.036zm-110.97 0h10.072V122.22c0-2.74-2.253-5.036-5.036-5.036s-5.036 2.297-5.036 5.036zm55.484 0h10.072V122.22c0-2.74-2.253-5.036-5.036-5.036s-5.036 2.297-5.036 5.036z"/><path fill="#8f8880" fill-rule="nonzero" d="M423.284 110.685h-1.767v2.916h1.767v.574h-4.86v2.916h4.86v.53h-1.767v2.915h1.767v.575h-4.86v2.915h4.86v.53h-1.767v2.916h1.767v.574h-4.86v2.916h4.86v.574h-1.767v2.915h1.767v.53h-4.86v2.916h4.86v.574h-1.767v2.518h-.575v-2.518h-5.654v2.518h-.53v-2.518h-5.655v2.518h-.53v-2.518h-5.654v2.518h-.574v-2.518h-5.61v2.518h-.575v-2.518h-5.61v2.518h-.574v-2.518h-5.61v2.518h-.575v-2.518h-5.654v2.518h-.53v-2.518h-5.655v2.518h-.574v-2.518h-5.61v2.518h-.575v-2.518h-5.61v2.518h-.574v-2.518h-5.61v2.518h-.575v-2.518h-5.654v2.518h-.53v-2.518h-5.655v2.518h-.574v-2.518h-5.61v2.518h-.574v-2.518h-5.61v2.518h-.575v-2.518h-5.61v2.518h-.574v-2.518h-5.655v2.518h-.53v-2.518h-5.654v2.518h-.53v-2.518h-5.655v2.518h-.574v-2.518h-5.61v2.518h-.574v-2.518h-5.61v2.518h-.575v-2.518h-5.654v2.518h-.53v-2.518h-5.655v2.518h-.53v-2.518h-1.767v-.574h4.86v-2.916h-4.86v-.53h1.767v-2.915h-1.767v-.574h4.86v-2.916h-4.86v-.574h1.767v-2.916h-1.767v-.53h4.86v-2.915h-4.86v-.575h1.767v-2.915h-1.767v-.53h4.86v-2.916h-4.86v-.574h1.767v-2.916h-1.767v-.574h4.86v-2.518h.53v2.518h5.654v-2.518h.574v2.518h5.61v-2.518h.575v2.518h5.61v-2.518h.574v2.518h5.61v-2.518h.575v2.518h5.345v.574h-2.253v2.916h2.253v.574h-5.345v2.916h5.345v.53h-2.253v2.915h2.253v.575h-5.345v2.915h30.392v-2.915h-3.402v-.575h.31v-2.915h-.31v-.53h3.402v-2.916h-3.402v-.574h.31v-2.916h-.31v-.574h3.402v-2.518h.574v2.518h5.655v-2.518h.53v2.518h5.654v-2.518h.53v2.518h5.655v-2.518h.574v2.518h5.61v-2.518h.574v2.518h3.446v.574h-.353v2.916h.353v.574h-3.446v2.916h3.446v.53h-.353v2.915h.353v.575h-3.446v2.915h30.393v-2.915h-5.345v-.575h2.253v-2.915h-2.253v-.53h5.345v-2.916h-5.345v-.574h2.253v-2.916h-2.253v-.574h5.345v-2.518h.574v2.518h5.61v-2.518h.575v2.518h5.61v-2.518h.574v2.518h5.654v-2.518h.53v2.518h5.655v-2.518h.574v2.518h4.86zm-2.342 0h-5.654v2.916h5.654zm-6.184 0h-5.655v2.916h5.655zm-6.185 0h-5.654v2.916h5.654zm-6.228 0h-5.61v2.916h5.61zm-6.185 0h-5.61v2.916h5.61zm-30.967 0h-5.61v2.916h5.61zm-6.184 0h-5.61v2.916h5.61zm-6.185 0h-5.654v2.916h5.654zm-6.184 0h-5.655v2.916h5.655zm-6.229 0h-5.61v2.916h5.61zm-30.922 0h-5.655v2.916h5.655zm-6.229 0h-5.61v2.916h5.61zm-6.184 0h-5.61v2.916h5.61zm-6.185 0h-5.654v2.916h5.654zm-6.184 0h-5.655v2.916h5.655zm-2.563 24.297v2.915h5.655v-2.915zm0-6.936v2.916h5.655v-2.916zm0-6.935v2.915h5.655v-2.915zm0-6.936v2.916h5.655v-2.916zm135.71 23.722v-2.915H412.2v2.915zm0-6.935v-2.916H412.2v2.916zm0-6.936v-2.915H412.2v2.915zm0-6.935v-2.916H412.2v2.916zm-138.8 14.445v2.915h5.655v-2.915zm0-6.98v2.916h5.655v-2.916zm0-6.935v2.915h5.655v-2.915zm141.89 16.83v-2.915h-5.654v2.915zm0-6.98v-2.915h-5.654v2.916zm0-6.935v-2.915h-5.654v2.915zm-6.184 13.915v-2.915h-4.241v-.574h1.148v-2.916h-1.148v-.574h4.24v-2.916h-4.24v-.53h1.148v-2.915h-1.236c-.045-.177-.133-.398-.177-.575h4.506v-2.915h-5.655v1.104a5.208 5.208 0 00-.53-.486v-.618h-1.016a5.287 5.287 0 00-2.076-.442c-.707 0-1.414.177-2.032.442h-.53v.265c-.177.132-.398.265-.574.397v-.662h-5.61v2.915h4.02c-.045.177-.133.398-.177.575h-.751v2.915h.618v.53h-3.71v2.916h3.71v.574h-.618v2.916h.618v.574h-3.71v2.915h3.71v.53h-.618v2.916h5.61v-2.695h.574v2.695h5.654v-2.915h-1.148v-.53zm-3.093-17.36v-2.916h-5.654v2.916zm-6.228 0v-2.916h-5.61v2.916zm-6.185 20.806v-2.915h-5.61v2.915zm0-6.935v-2.916h-5.61v2.916zm0-6.936v-2.915h-5.61v2.915zm0-6.935v-2.916h-5.61v2.916zm-3.092 17.36v-2.915h-5.61v2.915zm0-6.98v-2.915h-5.61v2.916zm0-6.935v-2.915h-5.61v2.915zm-3.092 17.36v-2.914h-5.61v2.915zm0-6.934v-2.916h-5.61v2.916zm-3.092 3.49v-2.916h-5.61v2.915zm0-6.98v-2.916h-5.61v2.916zm-3.093 10.425v-2.915h-5.654v2.915zm0-6.935v-2.916h-5.654v2.916zm-3.092 3.49v-2.916h-5.654v2.915zm0-6.98v-2.916h-5.654v2.916zm-3.092 10.425v-2.915h-5.655v2.915zm0-6.935v-2.916h-5.655v2.916zm-3.092 3.49v-2.916h-5.655v2.915zm0-6.98v-2.916h-5.655v2.916zm-3.093 10.425v-2.915h-5.654v2.915zm0-6.935v-2.916h-5.654v2.916zm-3.136 3.49v-2.916h-5.61v2.915zm0-6.98v-2.916h-5.61v2.916zm-3.092 10.425v-2.915h-5.61v2.915zm0-6.935v-2.916h-5.61v2.916zm-3.093 3.49v-2.916h-5.61v2.915zm0-6.98v-2.916h-5.61v2.916zm0-6.936v-2.915h-5.61v2.915zm-3.092 17.36v-2.914h-5.61v2.915zm0-6.934v-2.916h-5.61v2.916zm0-6.936v-2.915h-5.61v2.915zm0-6.935v-2.916h-5.61v2.916zm-3.092 17.36v-2.915h-3.976v-.574h.884v-2.916h-.884v-.574h3.976v-2.916h-3.976v-.53h.884v-2.915h-1.016c-.045-.177-.089-.398-.133-.575h4.24v-2.915h-5.61v.883c-.176-.176-.397-.31-.574-.442v-.441h-.75a5.287 5.287 0 00-2.077-.442c-.707 0-1.413.177-2.032.442h-.795v.44a4.81 4.81 0 00-.53.443v-.883h-5.655v2.915h4.285c-.088.177-.132.398-.176.575h-1.016v2.915h.883v.53h-3.976v2.916h3.976v.574h-.883v2.916h.883v.574h-3.976v2.915h3.976v.53h-.883v2.916h5.654v-2.695h.53v2.695h5.655v-2.915h-.884v-.53zm-3.092-17.36v-2.916h-5.655v2.916zm-6.185 0v-2.916h-5.654v2.916zm-6.184 20.806v-2.915h-5.655v2.915zm0-6.935v-2.916h-5.655v2.916zm0-6.936v-2.915h-5.655v2.915zm0-6.935v-2.916h-5.655v2.916zm-3.137 17.36v-2.915h-5.61v2.915zm0-6.98v-2.915h-5.61v2.916zm0-6.935v-2.915h-5.61v2.915zm-3.092 17.36v-2.914h-5.61v2.915zm0-6.934v-2.916h-5.61v2.916zm-3.092 3.49v-2.916h-5.61v2.915zm0-6.98v-2.916h-5.61v2.916zm-3.093 10.425v-2.915h-5.61v2.915zm0-6.935v-2.916h-5.61v2.916zm-3.092 3.49v-2.916h-5.61v2.915zm0-6.98v-2.916h-5.61v2.916zm-3.092 10.425v-2.915h-5.61v2.915zm0-6.935v-2.916h-5.61v2.916zm-3.092 3.49v-2.916h-5.655v2.915zm0-6.98v-2.916h-5.655v2.916zm-3.093 10.425v-2.915h-5.654v2.915zm0-6.935v-2.916h-5.654v2.916zm-3.092 3.49v-2.916h-5.654v2.915zm0-6.98v-2.916h-5.654v2.916zm-3.092 10.425v-2.915h-5.654v2.915zm0-6.935v-2.916h-5.654v2.916zm-3.092 3.49v-2.916h-5.655v2.915zm0-6.98v-2.916h-5.655v2.916zm0-6.936v-2.915h-5.655v2.915zm-3.137 17.36v-2.914h-5.61v2.915zm0-6.934v-2.916h-5.61v2.916zm0-6.936v-2.915h-5.61v2.915zm0-6.935v-2.916h-5.61v2.916zm-3.092 17.36v-2.915h-3.71v-.574h.618v-2.916h-.619v-.574h3.711v-2.916h-3.71v-.53h.618v-2.915h-.751c-.044-.177-.089-.398-.177-.575h4.02v-2.915h-5.61v.662c-.177-.132-.354-.265-.574-.397v-.265h-.486c-.663-.265-1.326-.442-2.077-.442s-1.413.177-2.076.442h-.972v.618c-.22.133-.397.31-.574.486v-1.104h-5.654v2.915h4.55c-.089.177-.133.398-.177.575h-1.237v2.915h1.104v.53h-4.24v2.916h4.24v.574h-1.104v2.916h1.104v.574h-4.24v2.915h4.24v.53h-1.104v2.916h5.61v-2.695h.575v2.695h5.61v-2.915h-.619v-.53zm-3.092-17.36v-2.916h-5.61v2.916zm-6.185 0v-2.916h-5.61v2.916z"/><path fill="#8f8880" d="M344.434 135.775v-13.562c0-3.048 2.474-5.566 5.566-5.566s5.61 2.518 5.61 5.566v13.562zm.53-.575h10.072v-12.987c0-2.74-2.253-5.036-5.036-5.036s-5.036 2.297-5.036 5.036zm55.484 0h10.072v-12.987c0-2.74-2.253-5.036-5.036-5.036-2.739 0-5.036 2.297-5.036 5.036zm-110.97 0h10.072v-12.987c0-2.74-2.253-5.036-5.036-5.036s-5.036 2.297-5.036 5.036zm110.44.575v-13.562c0-3.048 2.518-5.566 5.566-5.566 3.092 0 5.61 2.518 5.61 5.566v13.562zm-111.01 0v-13.562c0-3.048 2.518-5.566 5.61-5.566s5.61 2.518 5.61 5.566v13.562z"/><path fill="#1f2124" d="M383.354 111.835v12.193h4.374v-16.433zm-53.849 0v12.193h4.417v-16.433zm-12.855 0v12.193h-4.373v-16.433zm53.85 0v12.193h-4.374v-16.433z"/><path fill="#c3bab1" d="M316.424 292.465h-15.77c-6.273-3.622-14.976-9.365-21.602-16.212-9.586 10.558-19.04 21.204-33.97 28.095 4.329-4.86 8.614-9.85 11.794-16.521-5.433 3.667-11.883 6.008-19.48 6.98 5.83-3.932 11.22-8.305 16.344-13.032-6.891-.53-13.739-1.9-20.409-7.863 4.727 1.06 9.365 1.679 13.783 1.634-4.639-2.164-9.056-5.345-13.076-10.16 4.461 1.502 8.923 2.165 13.385 2.209-4.241-4.418-8.393-8.924-12.148-14.401 2.827.618 5.698 1.634 8.746 3.225-6.758-12.59-4.947-14.357-5.389-29.863 1.811.972 3.578 2.43 5.39 4.462-.752-4.86-1.768-9.63-2.916-14.313 1.811 1.988 3.578 4.506 5.212 7.863.486-4.638.53-9.541.177-14.71 1.546 1.546 2.783 3.578 3.843 5.83.663-4.991.663-10.071 0-15.328 1.856 1.105 3.49 2.784 5.08 4.639-1.325-9.498-5.61-16.3-6.935-24.561 2.032 1.06 3.932 2.827 5.831 4.815a189.2 189.2 0 00-9.232-19.747 27.892 27.892 0 016.184 4.86c-1.59-4.64-3.755-8.614-6.184-12.325 3.975 1.9 7.73 4.594 11.397 7.686-4.197-6.45-9.189-11.441-14.313-16.124 1.458-.22 2.871-.088 4.33.398-1.945-3.8-4.64-6.405-7.378-8.88 8.835 0 22.087 9.013 25.666 22.442 6.493 24.428 1.457 52.745 4.329 77.04 3.225 27.169 28.89 41.48 47.311 51.862zm67.147 0h15.77c6.317-3.622 15.02-9.365 21.645-16.212 9.586 10.558 19.04 21.204 33.927 28.095-4.33-4.86-8.57-9.85-11.795-16.521 5.434 3.667 11.927 6.008 19.481 6.98-5.83-3.932-11.22-8.305-16.3-13.032 6.847-.53 13.694-1.9 20.364-7.863-4.726 1.06-9.32 1.679-13.738 1.634 4.638-2.164 9.056-5.345 13.076-10.16-4.462 1.502-8.924 2.165-13.385 2.209 4.196-4.418 8.349-8.924 12.148-14.401-2.827.618-5.743 1.634-8.791 3.225 6.759-12.59 4.948-14.357 5.39-29.863-1.768.972-3.579 2.43-5.39 4.462.751-4.86 1.767-9.63 2.916-14.313-1.812 1.988-3.579 4.506-5.213 7.863a90.1 90.1 0 01-.177-14.71c-1.546 1.546-2.783 3.578-3.843 5.83-.663-4.991-.663-10.071 0-15.328-1.855 1.105-3.49 2.784-5.08 4.639 1.325-9.498 5.654-16.3 6.935-24.561-1.988 1.06-3.931 2.827-5.83 4.815 2.65-6.627 5.742-13.21 9.232-19.747a27.7 27.7 0 00-6.14 4.86c1.59-4.64 3.71-8.614 6.14-12.325-3.976 1.9-7.73 4.594-11.397 7.686 4.196-6.45 9.188-11.441 14.312-16.124-1.413-.22-2.871-.088-4.329.398 1.988-3.8 4.639-6.405 7.422-8.88-8.88 0-22.132 9.013-25.666 22.442-6.494 24.428-1.502 52.745-4.373 77.04-3.181 27.169-28.847 41.48-47.312 51.862z"/><path fill="#c3bab1" d="M262.934 316.715l76.953-1.987 10.116 6.493 10.16-6.493 76.91 1.987V290.74h-58.666c-9.233-.045-22.22 6.626-28.405 12.103-6.184-5.477-19.172-12.148-28.404-12.103h-58.665z"/><path fill="#0b0e13" fill-rule="nonzero" d="M262.934 295.565c10.293 0 20.1 0 29.907-.045 10.072 0 20.188-.044 30.834-.044 6.405 0 15.726 4.594 21.999 12.06-5.875-4.152-15.064-9.63-22-9.63 0-.044-28.227.044-30.833.044-9.807.044-19.614.044-29.907.044zm174.14 0c-10.293 0-20.1 0-29.862-.045-10.116 0-20.232-.044-30.879-.044-6.36 0-15.726 4.594-21.955 12.06 5.832-4.152 15.02-9.63 21.955-9.63 0-.044 28.228.044 30.879.044 9.762.044 19.57.044 29.862.044zm0 12.722c-10.293 0-20.1-.044-29.862-.044-10.116-.044-19.084-.044-29.774-.044-3.357 0-7.245 1.104-11.353 3.666 3.622-1.016 5.522-1.237 11.353-1.237 0-.044 27.123.044 29.774.044 9.762 0 19.57.045 29.862.045zm0-6.317c-10.293 0-20.1-.044-29.862-.044-10.116-.044-20.232-.044-30.879-.044-6.36 0-15.726 4.594-21.955 12.06 5.832-4.153 15.02-9.63 21.955-9.63 0-.045 28.228.043 30.879.043 9.762 0 19.57.045 29.862.045zm-174.14 6.317c10.293 0 20.1-.044 29.907-.044 10.072-.044 19.083-.044 29.73-.044 3.357 0 7.244 1.104 11.397 3.666-3.667-1.016-5.566-1.237-11.397-1.237 0-.044-27.124.044-29.73.044-9.807 0-19.614.045-29.907.045zm0-6.317c10.293 0 20.1-.044 29.907-.044 10.072-.044 20.188-.044 30.834-.044 6.405 0 15.726 4.594 21.999 12.06-5.875-4.153-15.064-9.63-22-9.63 0-.045-28.227.043-30.833.043-9.807 0-19.614.045-29.907.045z"/><path fill="#0b0e13" d="M254.144 324.985v-9.32l86.937-2.916 8.923 5.963 8.924-5.963 86.936 2.915v9.32l-80.664-5.211-3.622 3.975h-23.104l-3.666-3.975z"/><path fill="#f0e100" d="M350.004 302.455c23.987-13.606 43.954-36.577 59.946-63.347 18.023-30.04 25.621-59.901 24.34-98.245H265.76c-1.325 38.344 6.273 68.206 24.297 98.245 16.035 26.77 35.958 49.74 59.945 63.347z" class="prefix__prefix__fil6"/><path fill="#c31d11" d="M431.154 145.055h-162.3c-.618 35.385 6.804 63.259 23.723 91.443 15.417 25.754 34.5 47.974 57.427 61.359 22.927-13.385 42.055-35.605 57.428-61.36 16.919-28.183 24.34-56.057 23.722-91.442z"/><path fill="#f0e100" d="M350.004 153.365h-44.13v13.739h33.837v26.99h-1.987c-7.82 0-14.225-8.393-14.225-18.597v-2.871h-17.626v7.73c0 22.132 20.012 31.674 33.838 31.497v10.735c-6.228.44-10.337 2.87-14.4 7.553l-7.378-9.674-9.674 12.59 9.674 12.634 7.422-9.763c2.87 4.683 8.172 8.394 14.356 8.835v12.944c-3.048 2.076-6.67 5.345-8.393 9.1 1.9 4.506 7.2 8.48 11.265 7.863.707 4.506 3.843 8.57 7.421 10.425 3.578-1.855 6.759-5.92 7.422-10.425 4.064.618 9.365-3.357 11.264-7.863-1.723-3.755-5.345-7.024-8.393-9.1v-12.944c6.184-.441 11.485-4.152 14.357-8.835l7.465 9.763 9.63-12.634-9.63-12.59-7.421 9.674c-4.02-4.682-8.172-7.112-14.401-7.553v-10.735c13.827.177 33.838-9.365 33.838-31.497v-7.73h-17.626v2.87c0 10.205-6.361 18.599-14.18 18.599h-2.032v-26.991h33.838v-13.74z" class="prefix__prefix__fil6"/><path fill="#7d750c" fill-rule="nonzero" d="M317.924 228.145l-3.799 4.903 3.8 4.948 3.754-4.948zm-5.036 4.373l4.594-6.052.442-.53.398.53 4.594 6.052.442.53-.442.574-4.594 6.052-.398.53-.442-.53-4.594-6.052-.442-.574zm16.124.663c1.193 1.678 2.739 3.048 4.418 4.064 2.076 1.237 4.373 1.943 6.493 2.076l3.358.265h.574v21.336l-.31.22-1.899 1.327c-.928.618-1.988 1.457-3.048 2.43a24.027 24.027 0 00-1.811 1.855c2.783 2.915 4.77 2.606 8.084 2.12l.486-.088.53-.09.132.708.177 1.193c.53 3.799.884 6.096 3.8 8.437 2.915-2.341 3.268-4.638 3.842-8.437l.177-1.193.088-.707.53.089.486.088c3.314.486 5.346.795 8.129-2.12-.575-.663-1.237-1.282-1.856-1.856-1.06-.972-2.12-1.811-3.048-2.43l-1.855-1.325-.353-.22v-21.337h.574l3.357-.265c2.165-.133 4.462-.84 6.538-2.076a14.708 14.708 0 004.373-4.064c-1.546-1.635-3.092-2.828-4.726-3.667-1.856-.884-3.844-1.325-6.185-1.502l-3.357-.22-.575-.045v-21.425h.619l3.578.088h.398c5.875 0 13.208-1.987 19.04-6.228 5.786-4.153 10.16-10.602 10.204-19.57v-2.562h-9.41c-.486 5.92-2.65 11.22-5.83 15.064-3.27 3.976-7.643 6.405-12.414 6.405h-6.184V161.66h33.838v-2.871h-79.957v2.87h33.838v37.859h-6.14c-4.816 0-9.189-2.43-12.458-6.405-3.18-3.843-5.3-9.144-5.787-15.064h-9.453v2.562c.088 8.968 4.417 15.417 10.204 19.57 5.876 4.24 13.164 6.228 19.04 6.228h.397l3.578-.088h.619v21.425l-.574.044-3.358.22c-2.341.178-4.329.62-6.14 1.503-1.679.84-3.225 2.032-4.77 3.667zm3.932 5.477c-2.032-1.237-3.888-2.915-5.257-5.08l-.354-.618.442-.486c1.811-1.988 3.622-3.446 5.566-4.374 1.988-.971 4.064-1.457 6.538-1.634l2.783-.177v-18.377l-3.004.045h-.397c-6.052 0-13.562-2.032-19.614-6.406-6.096-4.417-10.735-11.264-10.823-20.895v-4.152h11.706l.045.75c.353 5.788 2.385 11 5.477 14.71s7.157 6.009 11.663 6.009h4.947v-34.766h-33.838v-5.963h82.342v5.963h-33.837v34.766h4.992c4.462 0 8.57-2.297 11.618-6.008 3.092-3.71 5.124-8.923 5.478-14.71l.044-.751h11.706v4.152c-.088 9.63-4.682 16.478-10.823 20.895-6.052 4.374-13.561 6.406-19.613 6.406h-.398l-3.004-.045v18.377l2.827.177c2.43.177 4.55.663 6.494 1.634 1.944.928 3.755 2.386 5.566 4.374l.442.486-.353.618c-1.37 2.165-3.225 3.843-5.213 5.08-2.209 1.325-4.683 2.076-6.936 2.209l-2.827.22v18.908l1.59 1.104a32.574 32.574 0 013.137 2.518 23.009 23.009 0 012.474 2.606l.486.575-.486.574c-3.446 3.932-5.699 3.622-9.498 3.048l-.044.486c-.663 4.33-1.016 6.935-4.683 9.674l-.309.22-.31-.22c-3.621-2.74-4.019-5.345-4.682-9.674l-.044-.486c-3.799.574-6.008.884-9.453-3.048l-.486-.574.442-.575a23.009 23.009 0 012.473-2.606 32.574 32.574 0 013.137-2.518l1.59-1.104v-18.907l-2.783-.221c-2.297-.133-4.727-.884-6.935-2.21zm45.367-5.61l3.8 4.948 3.754-4.948-3.755-4.903zm3.358 6.626l-4.595-6.052-.441-.574.441-.53 4.595-6.052.441-.53.398.53 4.638 6.052.398.53-.398.574-4.638 6.052-.398.53z"/></g><path fill="#c31d11" d="M190.15 354.32q-.788 2.825-2.092 5.12-1.305 2.293-2.754 3.716-1.383 1.386-3.105 2.4-1.672 1.03-3.134 1.508t-3.021.707q-1.559.23-2.504.243-.88-.024-1.693-.085 2.002 4.933 4.788 7.648 2.772 2.767 7.162 4.102l-.258.924q-.837-.178-2.121-.536-1.952-.544-3.744-1.266-1.755-.655-3.122-1.313-1.33-.593-2.56-1.545-1.243-.9-2.067-1.518-.839-.566-1.754-1.652-.864-1.071-1.329-1.589-.413-.503-1.043-1.62-.63-1.116-.8-1.496-.186-.329-.75-1.483-.513-1.14-.587-1.27-4.65-3.18-6.894-8.236-2.193-5.041-.244-12.028 2.178-7.808 8.294-11.473 6.13-3.716 13.477-1.667 7.347 2.05 10.682 8.35 3.337 6.302 1.173 14.06zm-5.828-1.736q2.006-7.192.216-12.287-1.724-5.132-6.605-6.494-2.568-.716-4.873-.196-2.29.468-3.93 1.783-1.626 1.263-3.05 3.191-1.372 1.943-2.239 3.86-.801 1.88-1.375 3.936-1.26 4.52-1.165 8.146.11 3.575 1.333 5.743 1.223 2.168 2.754 3.426 1.583 1.272 3.535 1.816 2.518.702 4.756.22 2.305-.52 3.945-1.835 1.64-1.314 3.012-3.257 1.387-1.994 2.217-3.977.882-1.97 1.47-4.075zm39.83 26.346l-.219.99-13.28-2.929.217-.99q2.095.408 2.957.215.861-.192 1.08-1.181.275-1.25-.22-3.708l-1.034-5.47-13.646-3.01-3.739 5.566q-.658 1.002-.864 1.94-.471 2.135 3.07 2.916l-.218.99-10.312-2.275.218-.99q1.95.322 3.29-.803 1.404-1.165 5.052-6.314l16.47-23.184 1.042.23 6.446 32.442q.619 3.14 1.28 4.105.66.965 2.409 1.46zm-22.788-18.022l12.031 2.652-2.883-15.655zm44.446-13.148q2.263.374 4.254 1.083 1.99.708 3.991 2.012 2.062 1.26 3.055 3.425.993 2.165.531 4.954-1.159 6.998-10.707 7.2-.167.027-.272.01l8.634 15.106q.887 1.499 1.747 2.182.913.691 2.421 1.05l-.165.999-8.471-1.403-9.839-18.28-2.964-.383-1.717 10.365q-.47 2.842.232 3.823.703.981 3.72 1.697l-.166 1-14.575-2.414.165-1q2.982.278 3.867-.495.946-.816 1.486-4.078l3.773-22.783q.462-2.79-.196-3.709-.597-.964-3.492-1.768l.166-1zm-7.462 16.009q6.384.949 9.591-.142 3.261-1.081 3.984-5.448.61-3.684-1.47-5.812-2.019-2.172-6.965-2.992-1.578-.261-2.227.064-.587.281-.77 1.386zm46.187-9.607l.112-1.007 13.886 1.558-.112 1.007q-2.78-.098-4.236.437-1.396.487-4.284 2.793l-11.188 8.834 10.863 14.635q3.17 4.274 4.394 5.323 1.224 1.05 3.285 1.335l-.113 1.007-16.165-1.814.113-1.007.636.072q.483 0 .748.03.27-.024.647-.035.43-.005.701-.029.277-.076.501-.158.283-.13.407-.277.183-.194.206-.406.107-.954-1.568-3.718-1.623-2.758-4.31-6.065l-4.995-6.195-1.503.958-1.111 9.911q-.327 2.915.373 3.852.758.89 3.862 1.453l-.113 1.007-14.946-1.676.113-1.007q3.15.138 4.047-.673.955-.86 1.323-4.145l2.575-22.95q.315-2.808-.438-3.752-.747-.996-3.797-1.553l.113-1.007 15.052 1.69-.113 1.006q-3.257-.15-4.2.602-.884.706-1.211 3.621l-1.22 10.865 10.339-7.48q4.562-3.353 4.746-4.996.09-.795-.405-1.172-.435-.425-1.643-.668-.742-.083-1.372-.207zm24.614 24.187q-.306 5.324 1.506 8.206 1.868 2.832 7.032 3.127 2.982.171 5.442-.81 2.463-1.034 3.638-2.89 1.356-2.219 1.64-7.17l.824-14.377q.228-3.993-.657-5.326-.882-1.386-3.958-1.776l.058-1.012 12.353.708-.058 1.012q-3.326.237-4.245 1.36-.919 1.122-1.15 5.169l-.797 13.897q-.18 3.141-.9 5.45-.667 2.313-2.226 4.36-1.504 1.997-4.39 2.954-2.833.96-6.933.724-6.815-.39-9.927-3.88-3.056-3.541-2.66-10.463l.953-16.613q.168-2.929-.639-3.776-.753-.845-3.879-1.291l.058-1.012 15.07.864-.059 1.011q-3.21.084-4.11.887-.845.753-1.01 3.628zm40.328-19.08l-2.88-.018q-4.48-.03-6.035 1.186-1.502 1.216-2.49 5.583l-1.28-.009.38-9.064 30.079.201.26 9.069-1.28-.01q-.878-4.432-2.417-5.616-1.485-1.236-6.018-1.266l-2.88-.02-.182 27.253q-.02 2.933.881 3.793.901.86 4.207 1.041l-.007 1.014-15.573-.104.007-1.014q3.308-.191 4.167-1.039.859-.9.882-4.314zm50.856 29.518q1.383-.094 2.543-.332 1.213-.243 2.107-.463.89-.274 1.713-.757l1.336-.786q.514-.302 1.007-.923.543-.678.79-.962.302-.288.628-1.004l.414-.99q.092-.22.365-.934.268-.766.265-.82l1.33-.09-1.929 9.432-28.628 1.933-.068-1.011q2.912-.41 3.706-1.32.79-.962.6-3.782l-1.595-23.626q-.19-2.82-1.1-3.614-.912-.847-3.853-.862l-.068-1.011 15.006-1.014.068 1.011q-3.125.425-3.969 1.391-.847.912-.656 3.733l1.7 25.169q.093 1.383.92 1.755.876.315 3.803.117zm23.975-4.357q.179 1.536 1.07 1.809.943.266 4.758-.177l1.43-.166q5.669-.657 7.952-2.265 2.277-1.66 3.74-6.179l1.483-.172-1.345 9.23-28.608 3.32-.117-1.007q2.889-.55 3.638-1.496.743-.999.417-3.807l-2.73-23.522q-.325-2.807-1.271-3.557-.952-.802-3.89-.676l-.117-1.006 28.13-3.265 1.039 7.557-1.325.154q-1.1-3.47-2.648-4.31-1.547-.84-6.05-.318l-7.152.83q-1.06.123-1.387.537-.281.355-.152 1.467l1.365 11.761 8.158-.947q3.39-.393 4.227-1.51.884-1.177 1.017-4.199l1.218-.141 1.426 12.29-1.218.142q-.911-3.223-2.022-4.007-1.111-.783-4.396-.402l-8.158.947zm42.891-3.726q1.474-.241 2.642-.703 1.167-.46 1.914-.853.799-.401 1.363-1.25.616-.857.871-1.277.309-.429.558-1.55.24-1.175.293-1.508.054-.333.225-1.604l1.21-.198.252 9.47-29.685 4.856-.13-.79 17.759-35.816-11.632 1.903q-2.684.439-4.335 1.25-1.651.81-2.356 2.114-.653 1.296-.814 2.295-.16.999-.193 2.787l-1.368.224-.42-9.172 27.686-4.529.129.79-17.495 35.773zm18.046-20.765l15.796-3.411-2.183-10.113q-.608-2.815-1.56-3.429-.961-.665-4.041-.273l-.214-.99 14.493-3.13.214.99q-2.967.915-3.57 1.918-.612.95-.004 3.765l4.998 23.146q.597 2.763 1.61 3.417 1.015.654 3.99.285l.215.99-14.493 3.13-.214-.99q2.978-.862 3.569-1.917.59-1.055-.119-4.34l-2.195-10.166-15.796 3.411 2.32 10.74q.596 2.762 1.61 3.416 1.014.654 3.99.284l.214.991-14.493 3.13-.214-.99q2.978-.862 3.569-1.918.59-1.055-.119-4.339l-4.874-22.573q-.608-2.815-1.559-3.428-.962-.665-4.042-.273l-.214-.99 14.493-3.13.214.99q-2.967.914-3.569 1.917-.613.95-.005 3.766zm39.963 5.966q.403 1.493 1.324 1.632.972.124 4.68-.875l1.39-.374q5.51-1.484 7.533-3.41 2.008-1.977 2.79-6.661l1.442-.389.027 9.327-27.81 7.49-.263-.978q2.777-.968 3.38-2.014.587-1.098-.148-3.827l-6.159-22.865q-.735-2.73-1.78-3.332-1.06-.653-3.948-.096l-.264-.979 27.345-7.365 2.138 7.322-1.287.347q-1.6-3.27-3.253-3.874-1.654-.604-6.031.575l-6.953 1.873q-1.03.277-1.293.735-.226.392.066 1.474l3.08 11.432 7.93-2.137q3.296-.887 3.959-2.116.701-1.293.388-4.302l1.184-.319 3.218 11.947-1.184.32q-1.375-3.055-2.59-3.667-1.214-.612-4.407.248l-7.93 2.137z" aria-label="QARKUT LEZHE"/></svg>