<svg xmlns="http://www.w3.org/2000/svg" width="700" height="500" version="1.1"><path fill="#f5f17a" d="M0 0h700v250H0z"/><path fill="#3d85d5" d="M0 250h700v250H0z"/><g fill-rule="evenodd" clip-rule="evenodd" shape-rendering="geometricPrecision"><circle cx="350" cy="250" r="111.67" fill="#fff" image-rendering="optimizeQuality"/><path fill="#f8a609" d="m323.04 138.97 26.98 56.236 26.933-56.236a114.74 114.74 0 0 0-26.933-3.224c-9.293 0-18.35 1.138-26.98 3.224z" image-rendering="optimizeQuality"/><path fill="#050d81" d="M425.08 266.047l15.505 3.936c-12.802 12.138.237 19.06 4.836 13.086-4.741 2.087-5.358-6.069.617-4.741 2.987.664 3.414 4.315 2.703 6.875-1.328 4.647-6.307 5.453-10.527 5.216-12.612-.806-14.841-17.354-13.134-24.372zm-111.048 49.645c.71 6.97-.143 13.37-1.328 19.63 3.556-4.837 7.112-9.626 10.716-14.462-3.366-1.85-6.022-3.32-9.388-5.168zm-28.118-1.897c.9-1.043 1.66-2.181 2.276-3.272 1.85-3.509 3.272-7.302 4.315-11.237l8.155 7.539zm-1.375-26.506l-5.974-10.62c-.238 1.374-.617 2.702-.996 3.935-1.09 3.414-2.845 6.638-5.453 9.104-.285.284-.569.521-.901.806zm65.481 38.976c-1.707 0-3.129-.426-4.457-.995 3.035 14.035-3.508 23.139-15.694 29.398 7.681 3.319 18.729 3.84 20.151 3.84 1.376 0 12.423-.521 20.105-3.84-12.186-6.26-18.73-15.363-15.695-29.398-1.328.569-2.75.995-4.41.995zm-11-5.927l-17.307 7.871c10.147 2.466 11.143 9.91 7.587 14.273-3.082 3.698-8.535 5.642-11.285 1.801 4.741 2.04 5.026-6.258-.949-4.93-2.465.52-3.698 4.504-2.37 6.97 1.28 2.418 3.603 3.65 6.258 3.982 14.557 1.66 23.85-15.552 18.066-29.967zm-29.682-11.854l-17.45 9.057c20.247.758 8.298 23.044.522 17.307 5.168.521 2.845-7.492-2.418-4.363-2.134 1.233-2.087 5.406-.095 7.35 5.026 4.884 14.177.142 17.212-5.595 2.513-4.742 4.742-13.182 2.229-23.756zm-18.967-16.927l-17.544 3.509c14.652 6.4 4.552 21.669-1.849 16.88 5.168.521 2.845-7.492-2.418-4.41-2.181 1.28-2.134 5.643-.142 7.587 5.026 4.883 13.466-.57 16.5-6.307 2.513-4.741 4.505-10.763 5.453-17.26zm-15.41-25.51l-15.553 3.936c12.803 12.138-.237 19.06-4.836 13.086 4.742 2.087 5.358-6.069-.616-4.741-2.988.664-3.414 4.315-2.703 6.875 1.328 4.647 6.306 5.453 10.526 5.216 12.613-.806 14.841-17.354 13.182-24.372zm111 49.645c-.71 6.97.143 13.37 1.328 19.63a2834.685 2834.685 0 00-10.716-14.462c3.367-1.85 6.022-3.32 9.389-5.168zm28.118-1.897a20.354 20.354 0 01-2.276-3.272c-1.849-3.509-3.271-7.302-4.314-11.237l-8.156 7.539zm1.376-26.506l5.974-10.62c.284 1.374.616 2.702.996 3.935 1.09 3.414 2.845 6.638 5.453 9.104.284.284.569.521.9.806zm-54.481 33.05l17.306 7.87c-10.147 2.466-11.142 9.91-7.586 14.273 3.082 3.698 8.535 5.642 11.285 1.801-4.742 2.04-5.026-6.258.948-4.93 2.466.52 3.699 4.504 2.418 6.97-1.28 2.418-3.65 3.65-6.306 3.982-14.557 1.66-23.803-15.552-18.065-29.967zm29.682-11.855l17.449 9.057c-20.247.758-8.298 23.044-.522 17.307-5.168.521-2.844-7.492 2.419-4.363 2.18 1.233 2.086 5.406.095 7.35-5.027 4.884-14.178.142-17.212-5.595-2.466-4.742-4.742-13.182-2.229-23.756zm18.966-16.927l17.544 3.509c-14.651 6.4-4.552 21.669 1.85 16.88-5.169.521-2.845-7.492 2.418-4.41 2.18 1.28 2.133 5.643.142 7.587-5.026 4.883-13.466-.57-16.5-6.307-2.514-4.741-4.505-10.763-5.454-17.26z" image-rendering="optimizeQuality"/><path fill="#1d1e21" d="M350.02 284.587l5.88-10.052 39.45-1.044c2.513-.332 4.694-1.09 6.544-2.845 2.702-2.513 4.551-7.017 6.164-10.289 1.422-2.845 3.176-6.875 2.039-10.1-.57-1.612-1.992-2.94-3.462-1.375-1.043 1.091-1.896 3.604-2.608 5.027-.664 1.612-1.47 3.46-3.082 4.314-.996.522-2.086.57-3.224.57h-8.582c-1.375 0-2.893.19-3.936-.854-.9-.854-.9-1.992-.9-3.13 0-.71-.048-1.232.236-1.944.522-1.09 1.518-1.564 2.656-1.801.379-.048.853-.143 1.138-.427.237-.19.474-.474.663-.711.38-.57.759-1.091 1.186-1.66.996-1.233 2.086-2.37 3.793-2.513.901-.047.901.095 1.802-.474 0-.048.095-.095.142-.095.095-.237.285-1.28.332-1.565.427-1.564.806-3.13 1.375-4.646 1.043-2.798 2.75-3.652 5.643-4.22 2.607-.475 4.789-1.47 7.491-.475 2.04.759 4.979 4.363 6.354 6.117.948 1.185 1.85 2.418 2.75 3.651a52.128 52.128 0 011.802 2.655c3.272 5.453 2.466 10.1.332 15.742-4.6 11.95-11.617 22.902-20.626 31.959-29.967 29.967-72.784 29.967-102.703 0-9.057-9.057-16.074-20.01-20.673-31.959-2.134-5.642-2.94-10.289.331-15.742.57-.9 1.186-1.801 1.802-2.655.901-1.233 1.802-2.466 2.75-3.651 1.423-1.754 4.315-5.358 6.354-6.117 2.703-.995 4.884 0 7.492.474 2.892.57 4.6 1.423 5.642 4.22.57 1.518.949 3.083 1.375 4.647.048.285.238 1.328.38 1.565 0 0 .095.047.142.095.853.569.853.427 1.754.474 1.707.142 2.798 1.28 3.794 2.513.426.569.806 1.09 1.232 1.66.143.237.38.521.617.71.284.285.759.38 1.138.428 1.138.237 2.134.71 2.655 1.801.285.712.237 1.233.237 1.944 0 1.138 0 2.276-.853 3.13-1.09 1.043-2.608.853-3.983.853h-8.582c-1.138 0-2.182-.047-3.225-.569-1.612-.853-2.418-2.702-3.082-4.314-.664-1.423-1.565-3.936-2.608-5.027-1.422-1.564-2.892-.237-3.461 1.376-1.138 3.224.616 7.254 2.039 10.1 1.612 3.27 3.461 7.775 6.164 10.288 1.85 1.755 4.03 2.513 6.543 2.845 12.755.285 25.558.712 38.312.996l1.186.048z" image-rendering="optimizeQuality"/><path fill="#f92806" d="M350.02 288.712l-7.112-12.139c-13.845-.332-24.561-.663-38.407-.995-8.677-.996-10.81-6.923-14.462-14.273-1.707-3.46-3.461-7.87-2.134-11.759 1.138-3.271 4.505-4.741 6.97-2.086 1.28 1.328 2.04 3.604 2.988 5.595 1.47 3.367 1.944 3.604 4.41 3.604h8.582c2.655 0 2.75.237 2.75-1.85 0-.9.19-1.422-1.185-1.66-2.419-.473-2.56-1.422-4.268-3.555-2.37-3.035-2.276-.759-5.026-2.56-1.185-.76-1.09-1.565-1.422-2.893-.38-1.517-.76-2.987-1.328-4.41-.617-1.707-1.328-2.418-4.03-2.892-2.229-.427-4.315-1.375-6.354-.617-2.324.901-8.535 9.389-9.863 11.57-2.892 4.836-2.086 8.867-.142 13.893 3.983 10.431 10.384 21.432 20.152 31.2 28.686 28.734 71.029 28.734 99.716 0a88.183 88.183 0 0020.151-31.2c1.945-5.026 2.798-9.057-.142-13.893-1.28-2.181-7.539-10.669-9.862-11.57-2.04-.758-4.126.19-6.354.617-2.703.474-3.414 1.185-4.03 2.892-.57 1.423-.949 2.893-1.328 4.41-.332 1.328-.237 2.134-1.423 2.892-2.75 1.802-2.607-.474-5.026 2.56-1.707 2.134-1.849 3.083-4.267 3.557-1.375.237-1.185.759-1.185 1.66 0 2.086.094 1.849 2.75 1.849h8.582c2.466 0 2.94-.237 4.41-3.604.948-1.991 1.707-4.267 2.987-5.595 2.465-2.655 5.832-1.185 6.97 2.086 1.328 3.888-.427 8.298-2.134 11.76-3.65 7.349-5.784 13.276-14.414 14.272l-38.455.995zm44.05-37.601c.711 0 1.28.569 1.28 1.233 0 .711-.569 1.28-1.28 1.28s-1.28-.569-1.28-1.28c0-.664.569-1.233 1.28-1.233zm-88.146 0c-.712 0-1.28.569-1.28 1.233 0 .711.568 1.28 1.28 1.28s1.28-.569 1.28-1.28c0-.664-.57-1.233-1.28-1.233z" image-rendering="optimizeQuality"/><path fill="#1d1e21" d="M309.717 283.624v2.088l30.19 1.025 10.101 15.26.006-.013.006.013 10.101-15.26 30.19-1.025v-2.088l-30.761.877-9.536 13.998-9.535-13.998-30.762-.877z" image-rendering="optimizeQuality"/><path fill="#3d85d5" d="m466.66 250.02c0 64.439-52.205 116.64-116.64 116.64s-116.69-52.205-116.69-116.64h6.211c0 60.977 49.455 110.48 110.48 110.48 60.976 0 110.48-49.503 110.48-110.48z" image-rendering="optimizeQuality"/><path fill="#1d1e21" d="M337.313 209.527c.047-.095.38-.521.474-.616 1.755-1.186 1.328 1.66 2.229 2.323 1.232.996-.048 1.944-.806 1.992-.901.094-1.423 1.375-1.328 1.801V223.183c0 2.845-3.177 2.37-4.505 1.565-.237 3.508 6.07 4.646 6.78-.143 0-.995-.378-3.319.95-2.655.853.427.9 2.798.047 3.936-1.802 2.513-3.651 4.978-5.453 7.491-.617.664-3.367 1.802-5.358 1.47-2.418-.379-1.85-3.366-3.888-3.414-2.229-.047-3.557 1.423-3.651 2.324 1.849-.759 3.65-.095 2.37 1.043-.758.332-2.465.806-2.513 3.035 1.565-1.376 4.126-1.707 3.604.853-.19.854.616 1.944 2.418 2.134 2.04.237-3.366-4.363 4.6-3.746 2.276.142 5.026.38 5.547 1.47.664 1.422 1.186 1.47 1.612 1.47 1.233.047.57-3.794-.474-3.983-2.133-.332-4.267-.143-1.991-2.987l4.125-5.121c2.086-2.134 3.84-.76 4.41 1.043.379 1.138.521 2.513-.143 2.845-1.09.569-.758 2.37-1.138 3.034-.284.522-1.185.617-1.327.806-.854 1.138 1.422.901 1.896.854 1.091-.048 1.186 1.185.332 1.565-.948.426.143 1.043-.237 1.422-1.185 1.328-2.987 2.845-4.267 4.078-.901.9-2.04-.38-3.035-.285-2.56.19.285 2.134.332 2.134 1.375-.095 1.185 1.328.759 2.039-.617 1.09-.095 2.229.38 2.655.853.712 1.516 1.992 1.516-.332 0-1.801-.474-2.75.38-3.746 1.66-1.612 3.366-3.224 5.073-4.836.57-.522 1.28-.522 1.423.285.237 1.09-.617 3.082-1.565 4.314-.664.901-1.565 1.565-.854 1.802.238.095 1.992.332 1.233.996-.664.569-.806 1.185-1.233 1.612-1.327 1.47-.995 2.039-1.849 3.367-.616.948-.047 2.37.617 2.465 1.28-.284.047-1.233 1.422-1.802.474-.19 1.186-.948 1.565-.663.664.474.9 2.323.711 2.75-.474 2.086.901 3.65 1.517 4.172.57-.521 1.944-2.086 1.47-4.172-.19-.427.048-2.276.712-2.75.426-.285 1.09.474 1.564.663 1.375.57.143 1.518 1.47 1.802.617-.095 1.186-1.517.617-2.465-.901-1.328-.57-1.897-1.897-3.367-.38-.427-.569-1.043-1.233-1.612-.759-.664.996-.9 1.233-.996.711-.237-.19-.9-.854-1.802-.9-1.232-1.801-3.224-1.564-4.314.142-.807.853-.807 1.422-.285l5.121 4.836c.806.996.332 1.945.332 3.746 0 2.324.711 1.044 1.517.332.475-.426 1.044-1.564.38-2.655-.427-.711-.617-2.134.758-2.039.048 0 2.893-1.944.332-2.134-.995-.094-2.133 1.186-3.034.285-1.28-1.233-3.082-2.75-4.268-4.078-.332-.38.711-.996-.237-1.422-.853-.38-.711-1.613.332-1.565.474.047 2.75.284 1.897-.854-.095-.19-1.043-.284-1.328-.806-.38-.664-.047-2.465-1.138-3.034-.664-.332-.522-1.707-.142-2.845.569-1.802 2.323-3.177 4.41-1.043l4.125 5.12c2.276 2.845.142 2.656-1.944 2.988-1.044.19-1.755 4.03-.522 3.983.427 0 .948-.048 1.612-1.47.522-1.09 3.272-1.328 5.595-1.47 7.919-.617 2.513 3.983 4.552 3.746 1.802-.19 2.608-1.28 2.418-2.134-.521-2.56 2.04-2.229 3.604-.853-.047-2.229-1.754-2.703-2.513-3.035-1.28-1.138.522-1.802 2.37-1.043-.094-.901-1.422-2.371-3.65-2.324-2.04.048-1.47 3.035-3.84 3.414-2.04.332-4.79-.806-5.406-1.47-1.802-2.513-3.651-4.978-5.453-7.491-.854-1.138-.806-3.51.047-3.936 1.328-.664.996 1.66.996 2.655.664 4.79 6.97 3.651 6.733.143-1.328.806-4.504 1.28-4.504-1.565V215.027c.094-.426-.427-1.707-1.328-1.801-.711-.048-2.039-.996-.759-1.992.854-.664.474-3.509 2.229-2.323.047.095.38.521.427.616-.095-.19.047-3.082 0-3.414-.095-.474.047-2.702-.949-1.849-.332.284-.142 1.043-.095 1.707.19 1.517-1.232 1.991-1.28 0-.047-.806 0-1.754.048-1.991.047-.712.663-1.186 1.375-1.186.426 0 1.138.332 1.66.474.284 2.56 1.042 6.401 2.038 8.393-.19-1.992-.237-5.31-.237-7.587.19.095.474.143.664.143.19 2.37.664 5.405 1.707 7.444-.19-2.181-.142-5.69-.095-8.108.853-.237.664-1.47 2.086-1.186.711.143 1.897-.142 2.04-.853.047-.474.189-.996.331-1.47.142-.332.332-.854.711-.9.759-.19.712.568.759.805.237 2.56-3.414 3.84-4.22 4.505.142 2.086-.142 13.703 4.41 15.173-1.47-2.56-2.324-8.867-2.04-14.51.807-.331 1.139-.71 1.803-1.327.237 11.19 2.323 19.962 6.258 21.242-2.276-5.358-2.987-12.186-2.987-20.341-.047-1.47 1.375-1.66 1.423-.474.379 6.638.569 11.806 3.271 14.082-1.422-3.509-1.66-8.013-1.612-14.225.237-1.849.712-3.461-.711-3.793-1.043-.19-1.802-2.086-1.991-3.082-.238-1.09.9-.616 1.138-.142 1.043 2.039 2.655 1.754.758-.332-.664-.759.332-.854-.758-1.233-2.798-.9-1.66-.759-3.32-1.754-.616-.38-1.517-.095-1.232-1.565.094-.474 1.754-.19 2.892.616 2.134 1.423.522-.9 2.987-.806.332 0 3.035-.806 3.082-.995.095-.807-.047-2.419.237-3.035.19-.474-.426-1.897-1.138.616-.237.901-2.608.617-1.754-1.802.569-1.66-1.09-2.18-1.707-2.465-1.85-.806-1.09.332-2.513 1.328-.948.663-3.84-2.324.853-3.272 1.186-.237 1.897.427 2.75 1.09.57.427 5.311 3.794 5.69 4.505.38.616.617 1.707 1.233 3.65.19.523.759 4.41.949 6.687.237 3.556-1.802 1.517-1.802-1.518 0-.711.427-4.03-.285-4.22-1.375-.38-1.754 1.233-3.366 1.09-.711-.047-3.035 1.66-.522 1.281 1.328-.237 2.608-1.043 2.608 1.66 0 1.375-1.565.9-1.517 2.276.095 2.987-1.423 3.888-1.328 6.543.427 10.763 3.272 20.958 7.112 24.135-3.413-6.26-4.883-17.165-4.93-28.308 0-2.323 1.422-1.991 1.374-.237-.19 11.57 1.707 20.958 5.121 26.174-2.418-6.259-3.034-14.841-3.271-23.471-.143-3.793 2.465-.19 1.991-5.5-.285-3.13-.9-7.397-1.991-10.337-.712-1.897-4.315-3.888-5.027-4.362-.569-.427-3.129-2.087-3.414-2.229-1.47-.521-1.944.048-2.844.332-1.328.427-2.276 1.707-3.177 2.466-.806.711.237 3.082.663 3.746.712 1.849-.9 4.315-1.991 4.315-1.375 0-1.47-.427-2.276-.332-3.272.426-.284 1.66-4.125 1.47-1.328-.427-3.793-2.134-3.462-3.746.143-.806.048-1.565 1.707-1.328-.19-1.754-2.086-2.323-1.564-3.651.332-.759 1.09-.569 2.56.474 0-1.328-1.28-2.228-.9-4.125.473-2.229 2.417-1.754 4.314-1.754 1.09 0 2.608-.807 2.086-2.229.332 0 .664.095.996.332.996.616 1.944 1.09 2.94 1.138.996 0 1.991-.427 2.892-1.517.19-.143.143-.427-.047-.57a.39.39 0 00-.57.048c-.758.853-1.516 1.185-2.275 1.185-.759-.047-1.612-.426-2.466-.995a3.12 3.12 0 00-1.707-.475c-.047-.379.048-.71.332-.995 1.043-.996 3.556-1.043 3.556.758 1.328-1.138.617-2.892-.237-3.366-.71-.38-2.039-.474-3.224-.048-.806 0-.996-1.422-2.56-1.47-5.643-.331-5.121 3.32-10.859.475-.19 1.564 1.897 2.608 1.897 3.84 0 2.04-2.37.712-1.138 3.177.664 1.66-2.608 1.138-3.983 3.51.806-.143 1.138-.238 2.039-.096 1.138.427.427 1.755-.806 2.703-.806.664-1.612.569-1.944.664-.617.237-.095.9-.095 1.754 0 1.28-.427 1.47-1.66 3.177-1.28-1.707-1.707-1.897-1.707-3.177 0-.853.522-1.517-.094-1.754-.332-.095-1.138 0-1.944-.664-1.233-.948-1.944-2.276-.806-2.703.9-.142 1.232-.047 2.038.095-1.375-2.37-4.646-1.85-3.983-3.509 1.233-2.465-1.138-1.138-1.138-3.177 0-1.232 2.087-2.276 1.897-3.84-5.737 2.845-5.216-.806-10.858-.474-1.565.047-1.755 1.47-2.56 1.47-1.186-.427-2.514-.332-3.225.047-.853.474-1.565 2.228-.19 3.366 0-1.801 2.513-1.754 3.557-.758.237.284.332.616.284.995a3.12 3.12 0 00-1.707.475c-.853.569-1.707.948-2.465.995-.76 0-1.518-.332-2.276-1.185a.39.39 0 00-.57-.047.39.39 0 00-.047.569c.901 1.09 1.897 1.517 2.893 1.517.995-.048 1.944-.522 2.94-1.138a1.67 1.67 0 01.995-.332c-.522 1.422.996 2.229 2.086 2.229 1.897 0 3.888-.475 4.315 1.754.38 1.897-.9 2.797-.9 4.125 1.47-1.043 2.228-1.233 2.56-.474.521 1.328-1.375 1.897-1.565 3.651 1.66-.237 1.565.522 1.707 1.328.332 1.612-2.134 3.319-3.461 3.745-3.841.19-.854-1.043-4.126-1.47-.806-.094-.9.333-2.276.333-1.09 0-2.702-2.466-1.991-4.315.427-.664 1.47-3.035.664-3.746-.901-.759-1.85-2.04-3.177-2.466-.9-.284-1.375-.853-2.798-.332-.331.142-2.892 1.802-3.461 2.229-.711.474-4.315 2.465-5.026 4.362-1.09 2.94-1.707 7.207-1.992 10.337-.474 5.31 2.134 1.707 1.992 5.5-.237 8.63-.854 17.212-3.272 23.47 3.414-5.215 5.358-14.603 5.121-26.173-.047-1.754 1.375-2.086 1.375.237-.047 11.143-1.517 22.049-4.931 28.308 3.84-3.177 6.686-13.372 7.112-24.135.095-2.655-1.422-3.556-1.327-6.543.095-1.375-1.518-.901-1.518-2.276 0-2.703 1.28-1.897 2.608-1.66 2.513.38.19-1.328-.521-1.28-1.565.142-1.992-1.47-3.367-1.09-.711.189-.284 3.508-.284 4.22 0 3.034-2.04 5.073-1.755 1.517.143-2.276.759-6.164.901-6.686.617-1.944.901-3.035 1.233-3.651.38-.711 5.12-4.078 5.737-4.505.806-.663 1.518-1.327 2.703-1.09 4.742.948 1.802 3.935.901 3.272-1.423-.996-.711-2.134-2.56-1.328-.617.284-2.276.806-1.707 2.465.853 2.419-1.47 2.703-1.755 1.802-.711-2.513-1.328-1.09-1.138-.616.285.616.142 2.228.285 3.035 0 .19 2.702.995 3.034.995 2.466-.095.854 2.229 2.987.806 1.138-.806 2.798-1.09 2.893-.616.284 1.47-.617 1.185-1.233 1.565-1.66.995-.522.853-3.32 1.754-1.09.38-.094.474-.758 1.233-1.896 2.086-.284 2.37.759.332.237-.474 1.375-.949 1.138.142-.19.996-.948 2.892-1.992 3.082-1.422.332-.9 1.944-.71 3.793.047 6.212-.19 10.716-1.613 14.225 2.75-2.276 2.94-7.444 3.32-14.082.047-1.186 1.422-.996 1.374.474 0 8.155-.711 14.983-2.94 20.341 3.889-1.28 5.975-10.052 6.212-21.242.664.616.996.996 1.802 1.327.284 5.643-.57 11.95-2.04 14.51 4.553-1.47 4.268-13.087 4.458-15.173-.854-.664-4.505-1.944-4.267-4.505.047-.237 0-.996.758-.806.38.047.57.57.711.901.143.474.285.996.38 1.47.095.711 1.28.996 1.991.853 1.423-.284 1.233.949 2.087 1.186.047 2.418.094 5.927-.095 8.108 1.043-2.039 1.517-5.074 1.707-7.444.19 0 .474-.048.71-.143 0 2.276-.094 5.595-.284 7.587.996-1.992 1.755-5.832 2.04-8.393.52-.142 1.232-.474 1.659-.474.711 0 1.328.474 1.375 1.186.047.237.095 1.185.047 1.991-.047 1.991-1.422 1.517-1.28 0 .048-.664.237-1.423-.095-1.707-.995-.853-.853 1.375-.948 1.85-.047.331.095 3.224 0 3.413zm25.605-39.45c.948-.047 1.896-.095 2.892-.142 1.328-1.66 2.608-3.272 3.935-4.884-1.991.711-3.319.237-3.745-1.138-1.09 1.138-2.466 1.09-3.414.19-.901.995-2.229 1.185-3.414.19-.285 1.422-1.565 2.038-3.651 1.517 1.517 1.47 2.987 2.94 4.457 4.41.996-.048 1.944-.096 2.94-.143zm-2.419-1.138a81.725 81.725 0 01-2.039-1.991c.475-.19.949-.522 1.28-.949.996.332 2.04.237 2.893-.332.996.475 2.039.475 2.987.048.38.38.854.616 1.328.758-.569.76-1.185 1.47-1.754 2.229-.807.047-1.565.095-2.371.142-.759 0-1.565.048-2.324.095zm4.884 25.794c-1.66.854-2.228 3.462-.19 4.078 1.565.522 3.557-.996 2.182-2.465-.332-.332-1.47.379-1.043-.664.094-.332.853-.806 1.185-.806.664 0 1.09-.19 1.233.663.047.238.427 1.897.474 1.992.237.284.237.569.853.664.664.047 1.47-.57 1.423-1.47-.048-1.043-.19-1.944 1.233-1.755.19.048-.048.38.521.617.522.237 1.09-.237.949-.901-.332-1.233-.76-.522-1.233-1.233-.664-.996-1.992-.095-2.181 1.09-.048.285-.664.57-.996.333-.285-.285.427-1.707-.57-1.66-.473 0-1.374.237-1.753.332-.475.19-1.613.853-2.087 1.185zm-1.707-21.526c-.616 0-1.138.474-1.138.995 0 .57.522.996 1.138.996s1.138-.427 1.138-.996c0-.521-.521-.995-1.138-.995zm-26.553-3.13c-.995-.047-1.944-.095-2.94-.142-1.28-1.66-2.607-3.272-3.935-4.884 1.991.711 3.32.237 3.793-1.138 1.043 1.138 2.418 1.09 3.367.19.9.995 2.276 1.185 3.414.19.284 1.422 1.564 2.038 3.65 1.517-1.517 1.47-2.986 2.94-4.456 4.41-.996-.048-1.944-.096-2.893-.143zm2.419-1.138l1.991-1.991c-.474-.19-.9-.522-1.28-.949a3.306 3.306 0 01-2.893-.332 3.472 3.472 0 01-2.987.048c-.38.38-.806.616-1.327.758.569.76 1.185 1.47 1.801 2.229l2.324.142c.806 0 1.564.048 2.37.095zm-4.932 25.794c1.66.854 2.229 3.462.237 4.078-1.564.522-3.603-.996-2.228-2.465.332-.332 1.47.379 1.09-.664-.142-.332-.853-.806-1.232-.806-.664 0-1.091-.19-1.233.663-.048.238-.38 1.897-.474 1.992-.238.284-.238.569-.854.664-.664.047-1.47-.57-1.422-1.47.047-1.043.19-1.944-1.233-1.755-.142.048.047.38-.522.617-.521.237-1.09-.237-.9-.901.284-1.233.71-.522 1.232-1.233.617-.996 1.944-.095 2.134 1.09.047.285.664.57.996.333.331-.285-.427-1.707.569-1.66.474 0 1.375.237 1.754.332.474.19 1.612.853 2.086 1.185zm1.707-21.526c.664 0 1.138.474 1.138.995 0 .57-.474.996-1.138.996-.616 0-1.138-.427-1.138-.996 0-.521.522-.995 1.138-.995zM269.081 236.222c.38-.426.617-.71.712-.853.19-.19.379-.474.569-.854l2.038 1.375c-.331.475-.71.996-1.138 1.47-.426.522-.758.854-.948 1.044.285.9.332 1.991.142 3.271-.237 1.944-.9 3.367-2.038 4.362-1.376 1.138-3.13 1.613-5.264 1.328-2.039-.237-3.603-1.043-4.599-2.323s-1.375-2.94-1.09-5.026c.236-2.087.995-3.604 2.275-4.6s2.94-1.375 5.026-1.138c1.85.237 3.272.901 4.315 1.944zm-2.418 2.75c-.474-.379-1.28-.663-2.418-.806-1.28-.142-2.181 0-2.798.38-.616.427-.948 1.043-1.09 1.849-.095.806.142 1.47.616 1.991.474.57 1.328.901 2.513 1.091 1.375.142 2.371.047 2.987-.38.617-.379.949-.995 1.091-1.801v-.759c-.38.285-.711.759-1.09 1.423l-1.328-.759c.095-.38.237-.616.332-.806.142-.19.426-.522.853-1.043.142-.095.237-.237.332-.38zm5.026-14.367l-1.233 4.315 1.85 1.186-1.091 3.84-10.906-8.06 1.186-4.125 13.513-1.138-1.138 3.982zm-2.892.095l-4.742.048 3.983 2.608zm6.78-5.263l-11.285-5.785 2.94-5.832c.57-1.09 1.09-1.849 1.565-2.323s1.043-.759 1.707-.854c.711-.095 1.422.048 2.134.427.616.285 1.09.711 1.422 1.233.332.474.474 1.043.522 1.66.047.379 0 .853-.143 1.47.332-.38.617-.57.854-.712.142-.095.474-.142.9-.237s.712-.142.949-.142l4.125-.048-2.039 3.983-4.362.095c-.569 0-.996.048-1.233.19-.284.142-.521.38-.664.711l-.19.332 4.6 2.323zm-4.93-6.923l.758-1.517c.095-.142.19-.474.332-.996a1.407 1.407 0 00-.048-.758c-.142-.237-.332-.427-.569-.522-.38-.19-.711-.237-.996-.095-.331.143-.663.522-.995 1.138l-.759 1.565zm1.042-12.612l2.276-3.177 3.888 2.75-1.517-6.117 3.035-4.267 1.185 6.543 9.294.664-2.798 3.936-5.832-.854.569 2.893 2.513 1.801-2.276 3.177zm16.501-19.299l2.845-2.702 5.216 5.5a6.211 6.211 0 011.233 1.754c.284.664.426 1.328.379 2.04 0 .71-.142 1.327-.38 1.848-.379.712-.948 1.47-1.706 2.229-.475.38-.996.854-1.565 1.28s-1.138.759-1.66.901c-.569.142-1.138.19-1.754.142-.617-.094-1.138-.237-1.612-.521a7.634 7.634 0 01-1.755-1.28l-5.215-5.5 2.845-2.703 5.358 5.642c.474.474.995.759 1.517.759.569 0 1.09-.19 1.565-.664s.758-.996.758-1.517-.237-1.09-.711-1.565zm110.527-9.91l4.741 3.367c.949.664 1.612 1.328 1.992 1.991.426.664.616 1.376.664 2.134s-.095 1.47-.38 2.229c-.237.758-.664 1.47-1.138 2.18-.806 1.139-1.517 1.898-2.228 2.324-.664.427-1.375.664-2.134.759s-1.422.047-2.039-.19a9.51 9.51 0 01-2.086-1.043l-4.742-3.414zm1.517 4.6l-4.03 5.642.806.57c.664.473 1.185.758 1.564.805.427.048.806-.047 1.233-.284.427-.285.949-.806 1.518-1.66.806-1.09 1.138-1.944 1.09-2.608-.095-.663-.521-1.28-1.375-1.896zm17.26 10.953l2.702 2.845-5.453 5.216c-.569.521-1.138.9-1.802 1.185a4.853 4.853 0 01-1.991.427c-.711 0-1.328-.142-1.85-.427-.758-.332-1.47-.9-2.228-1.707-.427-.427-.853-.948-1.28-1.517-.474-.617-.759-1.186-.9-1.707s-.19-1.09-.143-1.707.237-1.186.474-1.612c.427-.759.853-1.328 1.328-1.755l5.452-5.215 2.703 2.844-5.595 5.311c-.521.474-.759.996-.759 1.565-.047.521.19 1.043.664 1.565.474.474.949.71 1.518.71.521.048 1.043-.189 1.564-.663zm-4.79 13.608l10.337-7.35 3.793 5.311c.712.996 1.186 1.802 1.375 2.466.19.616.19 1.28-.047 1.944-.237.617-.664 1.186-1.328 1.66-.569.426-1.138.663-1.754.71a3.8 3.8 0 01-1.754-.284 7.171 7.171 0 01-1.186-.853c.142.474.237.853.19 1.09 0 .19-.048.475-.142.901-.143.427-.237.712-.332.901l-1.897 3.699-2.56-3.604 1.944-3.983c.237-.474.379-.853.379-1.138 0-.332-.142-.664-.332-.948l-.19-.285-4.22 2.988zm8.44-1.138l.949 1.328c.095.142.38.427.758.759.19.19.427.284.712.284.237 0 .521-.047.71-.237.333-.237.522-.522.57-.853 0-.332-.19-.807-.57-1.376l-1.042-1.422zm-.663 12.566l11.57-5.216 2.702 5.974c.521 1.09.806 1.992.853 2.656.095.663-.047 1.28-.379 1.896-.38.57-.9 1.043-1.66 1.375-.663.285-1.28.38-1.849.332-.616-.047-1.138-.284-1.66-.616-.331-.237-.663-.57-.995-1.043.047.474.047.853-.048 1.138 0 .142-.142.426-.331.806-.19.426-.38.663-.475.853l-2.56 3.224-1.85-4.03 2.656-3.509c.38-.426.569-.806.616-1.043a1.83 1.83 0 00-.142-.996l-.142-.332-4.694 2.134zm8.487.521l.711 1.47c.048.19.237.474.57.9.142.19.379.333.616.428.284.047.521 0 .806-.095.38-.19.616-.427.664-.759.094-.332 0-.806-.285-1.47l-.711-1.564zm9.199 8.677l2.845 10.1-2.608.711-1.802-6.306-1.944.569 1.66 5.832-2.466.711-1.66-5.832-2.418.664 1.85 6.496-2.75.806-2.94-10.29zm3.414 1.233l.616 2.181-2.039.617-.616-2.182zm1.043 3.556l.616 2.181-2.086.57-.616-2.182zm-9.483 9.863l.71 3.698c-.568.143-.995.38-1.28.664-.473.427-.663 1.043-.568 1.802.095.569.237.948.569 1.233.284.284.616.379.948.332s.616-.237.806-.522c.237-.332.38-1.043.522-2.086.142-1.755.521-3.035 1.043-3.841s1.327-1.28 2.276-1.422c.664-.095 1.28.047 1.896.331.664.332 1.186.807 1.613 1.518s.71 1.754.853 3.034c.237 1.613.047 2.893-.427 3.794-.474.948-1.375 1.564-2.655 1.896l-.711-3.65c.569-.19.948-.427 1.185-.76.237-.379.285-.805.237-1.374-.047-.427-.19-.76-.426-.949-.238-.237-.475-.284-.76-.284-.189.047-.331.142-.473.38-.143.189-.237.616-.332 1.327-.142 1.754-.332 3.034-.617 3.793-.284.806-.71 1.375-1.232 1.802a3.23 3.23 0 01-1.802.711c-.806.142-1.565 0-2.276-.38-.759-.331-1.375-.9-1.802-1.659-.474-.758-.759-1.754-.9-2.987-.285-2.134-.048-3.651.663-4.6.711-.9 1.707-1.517 2.94-1.801z" image-rendering="optimizeQuality"/><path fill="#f5f17a" d="m350.02 133.33c64.439 0 116.64 52.252 116.64 116.69h-6.164c0-61.024-49.503-110.48-110.48-110.48-61.024 0-110.48 49.455-110.48 110.48h-6.211c0-64.439 52.252-116.69 116.69-116.69z" image-rendering="optimizeQuality"/><path fill="#050d81" d="M350 139.53A110.48 110.48 0 00239.53 250h12.975a97.5 97.5 0 0197.5-97.5 97.5 97.5 0 0197.5 97.5h12.975a110.48 110.48 0 00-110.47-110.47z" image-rendering="optimizeQuality"/></g></svg>