<svg width="700" height="500" xmlns="http://www.w3.org/2000/svg">
    <path fill="#5793ae" d="M0 0h700v500H0z" />
    <path
        d="M437.164 121.775c-.132 1.713-1.515 3.425-1.647 5.072-.131 1.91 1.317 3.029 2.766 3.49 1.647.593 3.096.066 4.413.724-.395.79-.659 1.581-.725 2.437-1.449-.197-2.37-1.449-4.083-1.91-1.449-.395-3.227-.329-4.215 1.252-.856 1.448-.658 3.622-1.58 5.136 1.449.988 2.239 3.03 3.622 4.018 1.58.988 3.227.33 4.346-.659 1.318-1.12 1.647-2.7 2.898-3.49.198.395.461.724.725.988.329.329.592.658.922.856-.857 1.185-2.437 1.383-3.688 2.568-1.054 1.054-1.91 2.635-.988 4.281.856 1.449 2.832 2.437 3.688 3.951l3.82-12.38c-.593-.198-1.252-.594-1.713-1.12-1.515-1.647-1.383-4.15.264-5.664 1.053-1.054 2.568-1.317 3.885-.922l3.82-12.316c-1.58.725-3.688.396-5.203 1.12-1.646.79-1.91 2.634-1.646 4.083.33 1.713 1.515 2.7 1.58 4.215-.79 0-1.646.198-2.436.527-.527-1.383.066-2.766-.33-4.478-.395-1.45-1.383-2.964-3.293-3.03-1.646 0-3.424 1.251-5.202 1.251zm-1.976-2.107a19.794 19.794 0 0119.362-4.412l-.46 1.448c-5.994-1.844-12.843-.592-17.848 4.018-7.508 6.915-7.97 18.506-1.054 26.014a18.15 18.15 0 007.969 5.07l-.395 1.45a19.282 19.282 0 01-8.694-5.533c-7.442-8.034-6.915-20.613 1.12-28.055zM350.034 88.32c37.605 0 73.76 5.927 107.743 16.925l-3.293 10.537-2.502-.79.856-4.28c-1.647-.527-3.359-.988-5.071-1.515l-1.647 4.017-5.466-1.58.725-4.281-5.137-1.383-1.515 4.083-5.532-1.383.593-4.281c-1.713-.395-3.49-.79-5.203-1.185l-1.383 4.083-5.532-1.186.395-4.28a72.264 72.264 0 00-5.203-.988l-1.251 4.083-5.598-.988.263-4.28c-1.712-.264-3.49-.528-5.268-.857l-1.054 4.215-5.598-.79.132-4.347-5.335-.593-.922 4.15-5.597-.593-.066-4.215c-1.779-.198-3.557-.395-5.335-.527l-.79 4.215-5.598-.395-.198-4.215c-1.778-.132-3.556-.198-5.334-.33l-.659 4.215-5.663-.197-.33-4.215c-1.778-.066-3.556-.066-5.334-.066l-.461 4.215h-5.664l-.527-4.215c-1.778 0-3.556 0-5.334.066l-.33 4.215-5.663.197-.593-4.214c-1.778.131-3.556.197-5.335.329l-.197 4.215-5.664.395-.79-4.215c-1.778.132-3.557.33-5.335.527v4.215l-5.663.592-.922-4.149c-1.779.198-3.557.396-5.27.593l.067 4.347-5.598.79-1.054-4.215c-1.778.33-3.49.593-5.268.856l.263 4.281-5.598.988-1.185-4.083c-1.779.263-3.49.592-5.269.988l.395 4.28-5.532 1.186-1.383-4.083-5.137 1.185.527 4.28-5.466 1.384-1.515-4.083c-1.778.46-3.49.922-5.203 1.383l.725 4.28-5.4 1.581-1.713-4.017c-1.646.527-3.359.988-5.07 1.514l.855 4.281-2.436.79-3.293-10.537c33.916-10.998 70.138-16.925 107.743-16.925zm0 50.118h2.832l.593 5.202c1.12 0 2.239 0 3.424.066l.725-5.203 5.663.198.461 5.203 3.36.197.987-5.137 5.664.396.197 5.202c1.186.132 2.305.198 3.425.33l1.12-5.137 5.663.592.066 5.269c1.12.132 2.24.198 3.359.395l1.317-5.07 5.598.79-.132 5.202c1.12.198 2.305.33 3.425.527l1.449-5.005 5.598.988-.33 5.202c1.12.198 2.24.461 3.359.659l1.646-4.94 5.533 1.186-.461 5.203c1.12.197 2.239.46 3.358.724l1.778-4.873 5.532 1.383-.658 5.137c1.054.33 2.173.592 3.293.922l1.976-4.808 5.466 1.58-.856 5.072c1.12.33 2.173.658 3.292.988l2.174-4.676 2.832.922-3.293 10.669c-28.187-9.154-58.219-14.16-89.435-14.16s-61.314 5.006-89.435 14.16l-3.359-10.67 2.898-.921 2.108 4.676c1.12-.33 2.239-.659 3.292-.988l-.79-5.071 5.4-1.58 1.976 4.807c1.12-.33 2.24-.593 3.359-.922l-.724-5.137 5.532-1.383 1.844 4.873a48.299 48.299 0 013.292-.724l-.46-5.203 5.532-1.185 1.646 4.939c1.12-.198 2.24-.461 3.359-.659l-.33-5.202 5.598-.988 1.515 5.005c1.12-.198 2.24-.33 3.359-.527l-.132-5.203 5.598-.79 1.317 5.071c1.12-.197 2.24-.263 3.425-.395v-5.269l5.664-.592 1.12 5.137c1.119-.132 2.304-.198 3.424-.33l.263-5.202 5.598-.396.988 5.137c1.12-.066 2.24-.131 3.425-.197l.395-5.203 5.663-.198.79 5.203c1.12-.066 2.24-.066 3.425-.066l.593-5.202zm0-2.437c-1.317-1.186-3.49-1.515-4.676-2.7-1.383-1.252-1.054-3.03-.33-4.347.791-1.58 2.24-2.173 2.7-3.556-.79-.264-1.514-.725-2.107-1.252-.987 1.12-.79 2.635-1.712 4.15-.79 1.25-2.173 2.436-4.017 1.91-1.58-.462-2.964-2.24-4.61-2.7.395-1.713-.395-3.755 0-5.401.395-1.844 2.107-2.437 3.622-2.503 1.712-.066 2.964.922 4.412.659-.065-.461-.065-.856-.065-1.252 0-.46 0-.856.065-1.25-1.448-.264-2.7.658-4.412.592-1.515-.066-3.227-.659-3.622-2.503-.395-1.646.395-3.688 0-5.334 1.646-.527 3.03-2.305 4.61-2.766 1.844-.527 3.227.658 4.017 1.91.922 1.514.725 3.03 1.712 4.149.593-.527 1.318-.922 2.108-1.252-.461-1.383-1.91-1.975-2.7-3.49-.725-1.317-1.054-3.161.329-4.413 1.185-1.185 3.359-1.448 4.676-2.7 1.251 1.252 3.425 1.515 4.676 2.7 1.317 1.252.988 3.096.33 4.413-.857 1.515-2.306 2.107-2.767 3.49.79.33 1.515.725 2.173 1.252.922-1.12.725-2.635 1.713-4.15.724-1.25 2.107-2.436 3.951-1.91 1.58.462 2.964 2.24 4.61 2.767-.395 1.646.461 3.688.066 5.334-.46 1.844-2.173 2.437-3.622 2.503-1.778.066-3.03-.856-4.478-.593.065.395.131.79.131 1.251 0 .396-.066.79-.131 1.252 1.448.263 2.7-.725 4.478-.659 1.449.066 3.161.659 3.622 2.503.395 1.646-.46 3.688-.066 5.4-1.646.461-3.03 2.24-4.61 2.7-1.844.527-3.227-.658-3.951-1.91-.988-1.514-.79-3.029-1.713-4.149-.658.527-1.383.988-2.173 1.252.461 1.383 1.91 1.975 2.766 3.556.659 1.317.988 3.095-.33 4.347-1.25 1.185-3.424 1.514-4.675 2.7zm0-21.075c-2.24 0-4.083 1.844-4.083 4.083 0 2.174 1.844 4.018 4.083 4.018 2.173 0 4.017-1.844 4.017-4.018 0-2.239-1.844-4.083-4.017-4.083zm0-15.806c-10.998 0-19.89 8.891-19.89 19.89 0 10.932 8.892 19.889 19.89 19.889 10.932 0 19.889-8.957 19.889-19.89 0-10.998-8.957-19.889-19.89-19.889zm0 38.264c-10.208 0-18.44-8.232-18.44-18.375a18.41 18.41 0 0118.44-18.44c10.142 0 18.374 8.233 18.374 18.44 0 10.143-8.232 18.375-18.374 18.375zm-87.196-15.609c.132 1.713 1.515 3.425 1.647 5.072.131 1.91-1.317 3.029-2.7 3.49-1.647.593-3.162.066-4.479.724.395.79.659 1.581.79 2.437 1.45-.197 2.371-1.449 4.018-1.91 1.449-.395 3.293-.329 4.215 1.252.856 1.448.724 3.622 1.58 5.136-1.449.988-2.239 3.03-3.622 4.018-1.515.988-3.227.33-4.346-.659-1.318-1.12-1.581-2.7-2.832-3.49-.264.395-.461.724-.79.988-.264.329-.593.658-.923.856.856 1.185 2.437 1.383 3.688 2.568 1.054 1.054 1.91 2.635.988 4.281-.79 1.449-2.766 2.437-3.622 3.951l-3.886-12.38a3.708 3.708 0 001.713-1.12c1.514-1.647 1.449-4.15-.198-5.664a3.923 3.923 0 00-3.885-.922l-3.886-12.316c1.58.725 3.754.396 5.203 1.12 1.712.79 1.91 2.634 1.646 4.083-.33 1.713-1.515 2.7-1.58 4.215.856 0 1.646.198 2.436.527.593-1.383-.066-2.766.395-4.478.396-1.45 1.318-2.964 3.228-3.03 1.646 0 3.49 1.251 5.202 1.251zm1.976-2.107a19.794 19.794 0 00-19.362-4.412l.46 1.448c6.06-1.844 12.909-.592 17.914 4.018 7.442 6.915 7.903 18.506 1.054 26.014-2.305 2.436-5.071 4.149-8.035 5.07l.461 1.45c3.227-.988 6.19-2.832 8.628-5.533 7.442-8.034 6.98-20.613-1.12-28.055zm-31.48 42.94h233.334v132.9c0 64.146-52.489 116.634-116.634 116.634-64.211 0-116.7-52.488-116.7-116.634z" />
    <path
        d="M236.232 236.039v59.47c0 62.564 51.171 113.801 113.802 113.801 62.565 0 113.802-51.237 113.802-113.802v-59.47z"
        fill="#e60004" />
    <path fill="#0a2f51" d="M236.232 165.505v67.636h227.604v-67.636z" />
    <path
        d="M381.053 287.935c-4.347-13.37-16.926-22.326-31.02-22.326s-26.671 8.956-31.084 22.326c-.33 1.317-1.251 2.37-2.568 2.766-1.45.395-3.096-.132-4.15-1.12-1.25-1.185-1.646-2.898-1.119-4.544 5.664-16.596 21.338-27.726 38.922-27.726 17.518 0 33.258 11.13 38.856 27.726.593 1.646.132 3.359-1.12 4.544-1.053.988-2.634 1.515-4.083 1.12-1.383-.396-2.239-1.45-2.634-2.766z" />
    <g fill="#f1a211">
        <path
            d="M277.986 176.635c-3.82 1.91-5.73 4.676-6.125 8.035 0 7.968 3.556 4.873 3.556 23.774h-3.425c.725-6.059-.922-12.052-4.478-14.686-5.07-3.688-10.34-.33-11.854 4.347-1.12 3.754 1.185 8.89 5.07 10.34 1.516-4.61 4.216-4.874 6.126-3.886 2.107 1.185 2.107 5.137-.33 6.322 1.186 1.712 2.766 1.778 5.335 1.778h3.424c0 6.652-5.795 5.335-5.795 8.43h5.466c0 2.107.264 4.742 3.03 5.466 2.766-.724 3.095-3.359 3.095-5.466h5.4c0-3.095-5.73-1.778-5.73-8.43h3.425c2.569 0 4.15-.066 5.335-1.778-2.437-1.185-2.437-5.137-.33-6.322 1.844-.988 4.61-.725 6.125 3.885 3.886-1.449 6.19-6.585 5.005-10.34-1.449-4.675-6.717-8.034-11.788-4.346-3.622 2.634-5.203 8.627-4.544 14.686h-3.36c0-18.9 3.557-15.806 3.557-23.774-.395-3.36-2.305-6.125-6.19-8.035zM422.016 176.635c-3.885 1.91-5.73 4.676-6.124 8.035 0 7.968 3.556 4.873 3.556 23.774h-3.425c.725-6.059-.922-12.052-4.544-14.686-5.07-3.688-10.34-.33-11.788 4.347-1.186 3.754 1.12 8.89 5.005 10.34 1.58-4.61 4.28-4.874 6.19-3.886 2.042 1.185 2.042 5.137-.329 6.322 1.12 1.712 2.7 1.778 5.335 1.778h3.358c0 6.652-5.73 5.335-5.73 8.43h5.401c0 2.107.33 4.742 3.095 5.466 2.766-.724 3.096-3.359 3.096-5.466h5.4c0-3.095-5.73-1.778-5.73-8.43h3.36c2.634 0 4.148-.066 5.334-1.778-2.371-1.185-2.437-5.137-.33-6.322 1.91-.988 4.61-.725 6.191 3.885 3.886-1.449 6.19-6.585 5.005-10.34-1.449-4.675-6.783-8.034-11.788-4.346-3.623 2.634-5.269 8.627-4.545 14.686h-3.424c0-18.9 3.556-15.806 3.556-23.774-.395-3.36-2.305-6.125-6.125-8.035zM350.034 176.635c-3.886 1.91-5.796 4.676-6.19 8.035 0 7.968 3.556 4.873 3.556 23.774h-3.36c.66-6.059-.921-12.052-4.543-14.686-5.071-3.688-10.34-.33-11.789 4.347-1.185 3.754 1.12 8.89 5.005 10.34 1.515-4.61 4.281-4.874 6.125-3.886 2.108 1.185 2.108 5.137-.33 6.322 1.186 1.712 2.767 1.778 5.335 1.778h3.425c0 6.652-5.73 5.335-5.73 8.43h5.4c0 2.107.33 4.742 3.096 5.466 2.766-.724 3.03-3.359 3.03-5.466h5.466c0-3.095-5.796-1.778-5.796-8.43h3.425c2.568 0 4.149-.066 5.334-1.778-2.437-1.185-2.437-5.137-.33-6.322 1.91-.988 4.61-.725 6.126 3.885 3.885-1.449 6.19-6.585 5.07-10.34-1.514-4.675-6.783-8.034-11.854-4.346-3.556 2.634-5.202 8.627-4.478 14.686h-3.425c0-18.9 3.557-15.806 3.557-23.774-.395-3.36-2.305-6.125-6.125-8.035z" />
    </g>
    <path
        d="M312.495 285.498a41.268 41.268 0 013.227-7.179c2.305-3.688 6.388-.592 5.071 2.305a32.844 32.844 0 00-3.161 6.915c-1.054 3.688-6.322 1.45-5.137-2.041zm75.078 0c-.856-2.503-1.976-4.874-3.293-7.179-2.305-3.688-6.388-.592-5.005 2.305 1.251 2.174 2.37 4.479 3.16 6.915.989 3.688 6.323 1.45 5.138-2.041zm-7.771-13.435c-1.91-2.042-3.952-3.952-6.191-5.598-3.49-2.305-5.927 2.042-3.622 4.149a35.298 35.298 0 015.466 4.94c3.03 2.7 6.125-1.054 4.347-3.491zm-13.172-9.747c-1.976-.856-4.017-1.647-6.125-2.24-3.556-.197-4.149 4.413-1.251 5.401 1.054.264 4.94 1.778 4.94 1.778 4.148 1.844 5.992-3.095 2.436-4.94zm-12.579-3.425a41.016 41.016 0 00-8.034 0c-3.162 1.054-2.766 5.598 1.448 5.269-.065.066-.131.066-.197.132.922-.066 1.844-.132 2.766-.132s1.844.066 2.766.132c-.066-.066-.198-.066-.263-.132 4.214.33 4.675-4.215 1.514-5.269zm-33.785 13.172a41.709 41.709 0 016.19-5.598c3.491-2.305 5.928 2.042 3.623 4.149a32.964 32.964 0 00-5.532 4.94c-2.964 2.7-6.125-1.054-4.28-3.491zm13.106-9.747c1.976-.856 4.017-1.647 6.19-2.24 3.491-.197 4.084 4.413 1.186 5.401-1.054.264-4.873 1.778-4.873 1.778-4.15 1.844-6.06-3.095-2.503-4.94z"
        fill="#cac4c4" />
    <path d="M343.25 253.096h13.501v13.5h-13.5z" />
    <path fill="#cac4c4" d="M344.634 254.413h10.8v10.8h-10.8z" />
    <path d="M315.788 350.368v-51.962c0-18.835 15.41-34.246 34.246-34.246s34.246 15.41 34.246 34.246v51.962z" />
    <path d="M317.17 348.985h65.661v-50.579c0-18.045-14.752-32.797-32.797-32.797-18.111 0-32.863 14.752-32.863 32.797z"
        fill="#fff" />
    <path d="M298.072 360.773v-8.495h103.924v8.495z" />
    <path fill="#cac4c4" d="M299.455 353.66H400.54v5.687H299.455z" />
    <path d="M278.249 359.324h143.57v8.496h-143.57z" />
    <path fill="#cac4c4" d="M279.698 360.773h140.679v5.687h-140.68z" />
    <path d="M315.788 345.165h68.492v8.496h-68.492z" />
    <path fill="#cac4c4" d="M317.17 346.548h65.691v5.687h-65.69z" />
    <path d="M278.183 346.548v-84.496h1.449c18.44 0 33.587 15.082 33.587 33.588v50.908z" />
    <path
        d="M279.632 345.165h9.154v-80.346c-2.898-.922-5.993-1.383-9.154-1.383zm10.537 0h11.064v-73.3c-3.16-2.897-6.915-5.137-11.064-6.585zm12.513 0h9.089V295.64c0-8.693-3.49-16.596-9.089-22.392z"
        fill="#cac4c4" />
    <path
        d="M307.029 326.198v1.383h9.747v-1.383zm0-27.397v1.449h9.747v-1.449zm114.79 47.747v-84.496h-1.449c-18.44 0-33.587 15.082-33.587 33.588v50.908z" />
    <path
        d="M420.37 345.165h-9.088v-80.346c2.897-.922 5.927-1.383 9.088-1.383zm-10.537 0h-11.064v-73.3c3.16-2.897 6.915-5.137 11.064-6.585zm-12.513 0h-9.089V295.64c0-8.693 3.49-16.596 9.089-22.392z"
        fill="#cac4c4" />
    <path d="M392.973 326.198v1.383h-9.747v-1.383zm0-27.397v1.449h-9.747v-1.449z" />
    <path class="prefix__prefix__fil0"
        d="M349.997 87.859c37.696 0 75.46 4.972 111.947 15.32l1.41.336-23.383 60.744-1.075-.336c-28.894-8.6-58.93-12.767-88.899-12.767s-60.005 4.166-88.966 12.767l-1.008.336-23.383-60.744 1.41-.336c36.487-10.348 74.25-15.32 111.947-15.32z" />
    <path
        d="M242.351 114.87l1.814 4.704c.404 0 1.143.068 2.42 0 4.031-.134 4.233 2.352 2.889 5.712-.605 1.545 1.276 1.814 1.075.134-.403-3.56.403-5.913 4.3-4.636 4.032 1.411 2.15-.202 4.368 3.696 2.15 3.763.269 5.174-3.091 5.577-1.545.201-.806 2.083.403 1.075 2.688-2.15 4.973-2.62 5.846 1.68.94 4.435 1.277 1.948-.739 5.98-1.949 3.83-4.032 2.755-6.048-.134-.94-1.344-2.15.269-.671.94 3.09 1.412 4.569 3.293 1.612 6.25-.873.873-1.276 1.343-1.612 1.747l1.814 4.636h.134c2.554-.806 5.174-1.545 7.795-2.285l.873-.201 1.075 4.099c.336 1.075 1.344 1.68 2.352 1.41.941-.335 1.546-1.477 1.277-2.485l-1.075-3.965.94-.269c2.352-.604 4.704-1.142 7.056-1.68l.94-.201.673 3.158c.268 1.075 1.276 1.747 2.284 1.478.941-.268 1.613-1.344 1.344-2.419l-.672-3.023.941-.202c2.419-.538 4.77-1.008 7.19-1.478l.94-.135.538 3.36c.202 1.075 1.142 1.814 2.15 1.613 1.008-.135 1.68-1.21 1.546-2.285l-.538-3.36.941-.134c2.352-.403 4.704-.806 7.123-1.142l.94-.135.47 3.36c.135 1.075 1.076 1.881 2.084 1.68 1.008-.134 1.68-1.142 1.545-2.285l-.47-3.225 1.008-.134c2.352-.336 4.77-.605 7.19-.874l.873-.067.403 3.024c.068 1.075 1.008 1.881 2.016 1.747 1.075-.135 1.747-1.143 1.68-2.218l-.336-2.89.94-.134c2.554-.201 5.108-.403 7.661-.537l.94-.067.202 2.956c.067 1.075.941 1.882 1.949 1.815 1.075-.068 1.814-1.008 1.747-2.15l-.202-2.823.941-.067c1.949-.067 3.83-.202 5.712-.202l1.008-.067v3.696c0 1.075.806 1.949 1.881 1.949 1.008 0 1.814-.874 1.814-1.95v-3.762h.941c1.478-.067 3.024-.067 4.502-.067s2.957 0 4.502.067h.94v3.763c0 1.075.807 1.949 1.815 1.949s1.882-.874 1.882-1.95v-3.695l.94.067c1.949 0 3.83.135 5.712.202l1.008.067-.202 2.822c-.067 1.143.672 2.083 1.68 2.15s1.949-.739 2.016-1.814l.202-2.956.94.067c2.554.134 5.107.336 7.66.537l.941.135-.336 2.89c-.134 1.074.605 2.082 1.613 2.217s1.949-.672 2.083-1.747l.336-3.024.94.067c2.42.269 4.771.538 7.19.874l.941.134-.403 3.225c-.202 1.143.538 2.15 1.545 2.285 1.008.201 1.95-.605 2.084-1.68l.47-3.36.94.135c2.352.336 4.771.739 7.123 1.142l.941.134-.538 3.36c-.201 1.075.538 2.15 1.479 2.285 1.008.201 2.016-.538 2.217-1.613l.538-3.36.94.135c2.352.47 4.771.94 7.19 1.478l.941.202-.672 3.023c-.269 1.075.336 2.15 1.344 2.42s2.016-.404 2.285-1.479l.671-3.158.941.202c2.352.537 4.704 1.075 7.056 1.68l.94.268-1.075 3.965c-.269 1.008.336 2.15 1.277 2.486 1.008.269 2.016-.336 2.285-1.411l1.142-4.1.873.202c2.621.74 5.174 1.479 7.795 2.285h.134l.672-1.68c-4.031-2.016-6.988-5.51-8.6-9.541-1.68-4.368-1.882-9.34-.068-14.044 1.747-4.704 5.107-8.198 9.139-10.012 3.897-1.747 8.332-1.949 12.498-.269l.74-1.814a316.16 316.16 0 00-8.535-2.285l-.873-.269.739-3.494c.202-1.075-.47-2.15-1.411-2.352-1.008-.268-2.016.404-2.218 1.479l-.739 3.494-.94-.202a200.776 200.776 0 00-6.787-1.545l-.874-.202.605-3.561c.202-1.075-.47-2.15-1.478-2.352s-1.949.538-2.15 1.613l-.605 3.494-.94-.134a138.128 138.128 0 00-7.258-1.412l-.873-.201.47-3.561c.134-1.076-.538-2.084-1.546-2.218-1.007-.201-2.015.538-2.15 1.68l-.47 3.427-.94-.134c-2.285-.404-4.637-.74-6.99-1.143l-.94-.134.47-3.494c.135-1.075-.604-2.083-1.612-2.285-1.008-.134-1.949.672-2.083 1.747l-.47 3.494-.874-.134-7.862-1.008-.94-.067.335-3.629c.135-1.075-.604-2.083-1.612-2.15-1.075-.134-1.949.672-2.083 1.747l-.336 3.561-.941-.067c-2.419-.269-4.838-.47-7.257-.672l-.94-.067.2-3.628c.068-1.076-.671-2.016-1.746-2.084-1.008-.067-1.882.74-1.949 1.815l-.202 3.561-.94-.067c-2.486-.202-4.973-.336-7.526-.47l-.874-.068.068-3.561c.067-1.142-.74-2.016-1.747-2.083s-1.882.806-1.95 1.949l-.133 3.56-.941-.066-6.72-.202-.94-.067v-3.83c0-1.142-.874-2.016-1.882-2.016s-1.814.874-1.814 2.016v3.763h-10.886v-3.763c0-1.142-.806-2.016-1.814-2.016-1.075 0-1.881.874-1.881 2.016v3.83l-.941.067c-2.218.067-4.502.135-6.787.202l-.94.067-.068-3.561c-.067-1.143-.94-2.016-1.948-1.949s-1.815.94-1.815 2.083l.135 3.561-.94.068c-2.487.134-4.973.268-7.46.47l-.94.067-.202-3.561c-.067-1.075-1.008-1.882-2.016-1.815s-1.747 1.008-1.68 2.084l.202 3.628-.94.067c-2.42.202-4.839.403-7.258.672l-.94.067-.336-3.56c-.135-1.076-1.076-1.882-2.083-1.748-1.008.067-1.748 1.075-1.613 2.15l.336 3.629-.94.067-7.863 1.008-.94.134-.404-3.494c-.201-1.075-1.142-1.881-2.15-1.747-1.008.202-1.68 1.21-1.545 2.285l.403 3.494-.874.134c-2.351.403-4.703.74-6.988 1.143l-.94.134-.471-3.427c-.202-1.142-1.142-1.881-2.15-1.68-1.008.134-1.68 1.142-1.546 2.218l.47 3.56-.873.202c-2.419.404-4.838.874-7.257 1.412l-.94.134-.605-3.494c-.202-1.075-1.143-1.814-2.15-1.613s-1.68 1.277-1.479 2.352l.605 3.561-.94.202a242 242 0 00-6.72 1.545l-.941.202-.74-3.494c-.2-1.075-1.209-1.747-2.217-1.479-1.008.202-1.612 1.277-1.41 2.352l.738 3.494-.94.27c-2.823.738-5.645 1.477-8.467 2.284zm107.646-13.774c4.704 0 8.937 2.016 12.028 5.375 3.09 3.293 4.972 7.862 4.972 12.97 0 5.039-1.881 9.608-4.972 12.968-3.091 3.292-7.324 5.375-12.028 5.375s-8.937-2.083-12.028-5.375a19.136 19.136 0 01-5.04-12.969c0-5.107 1.95-9.676 5.04-12.969 3.091-3.36 7.324-5.375 12.028-5.375zm11.356 6.047c-2.89-3.09-6.921-5.04-11.356-5.04s-8.466 1.95-11.356 5.04c-2.956 3.159-4.77 7.459-4.77 12.297 0 4.77 1.814 9.071 4.77 12.23 2.89 3.158 6.921 5.106 11.356 5.106s8.467-1.948 11.356-5.106 4.704-7.46 4.704-12.23c0-4.838-1.815-9.138-4.704-12.297zm-7.862 4.57c-1.075 1.142.538 2.217.941.537.873-3.494 2.486-5.308 5.577-2.553 3.293 2.956 2.083.739 2.822 5.241.672 4.3-1.612 4.838-4.838 3.897-1.545-.403-1.545 1.613 0 1.143 3.226-.874 5.51-.404 4.838 3.964-.739 4.502.47 2.285-2.822 5.174-3.09 2.822-4.704.94-5.577-2.553-.403-1.613-2.016-.605-.94.604 2.418 2.554 3.09 4.906-.74 6.451-3.964 1.613-1.613 1.613-5.577 0-3.763-1.545-3.091-3.897-.672-6.45 1.075-1.21-.538-2.218-1.008-.605-.873 3.494-2.419 5.375-5.51 2.553-3.292-2.89-2.083-.672-2.822-5.174-.672-4.368 1.613-4.838 4.838-3.964 1.478.47 1.478-1.546 0-1.143-3.225.941-5.51.403-4.838-3.897.739-4.502-.47-2.285 2.822-5.241 3.091-2.755 4.637-.94 5.51 2.553.47 1.68 2.083.605 1.008-.537-2.419-2.62-3.091-4.973.672-6.518 3.964-1.546 1.613-1.546 5.577 0 3.83 1.545 3.158 3.897.74 6.518zm-3.494 5.644c-1.075 0-1.949.94-1.949 2.083s.874 2.083 1.95 2.083 1.88-.94 1.88-2.083-.806-2.083-1.88-2.083zM248.87 131.804l1.411 3.561c.538-.537.74-1.478.47-2.284-.336-.807-1.075-1.344-1.881-1.277zm7.19 18.747c4.032-2.016 6.988-5.51 8.6-9.541 1.68-4.368 1.815-9.34.068-14.044s-5.174-8.198-9.139-10.012c-3.897-1.747-8.332-1.949-12.565-.269l.403.94c3.965-1.612 8.13-1.41 11.76.27 3.83 1.747 6.988 4.972 8.667 9.407s1.546 9.206-.067 13.304c-1.545 3.83-4.3 7.123-8.063 9.005zm188.212-.94l.807-2.016c-.336-.404-.807-.874-1.613-1.747-3.024-2.957-1.478-4.838 1.613-6.25 1.41-.671.268-2.284-.672-.94-2.083 2.89-4.166 3.964-6.048.134-2.016-4.032-1.68-1.545-.739-5.98.874-4.3 3.091-3.83 5.779-1.68 1.277 1.008 1.948-.874.47-1.075-3.36-.403-5.308-1.814-3.158-5.577 2.285-3.898.403-2.285 4.435-3.696 3.897-1.277 4.636 1.075 4.233 4.636-.201 1.68 1.68 1.411 1.075-.134-1.276-3.36-1.075-5.846 2.957-5.712 1.277.068 2.016 0 2.419 0l-1.277 3.226 2.352-6.048-.336.874c-3.965-1.613-8.13-1.411-11.76.269-3.83 1.747-6.987 4.972-8.667 9.407s-1.546 9.206.067 13.304c1.478 3.83 4.3 7.123 8.063 9.005zm5.443-14.246l1.411-3.561c-.806-.067-1.545.47-1.881 1.277s-.067 1.747.47 2.284z"
        fill="#c3c3c2" />
    <g fill="#f8c400">
        <path class="prefix__prefix__fil9"
            d="M349.997 139.666c-1.478 0-3.024.067-4.502.067v2.755c0 1.613-1.277 3.024-2.755 3.024-1.545 0-2.822-1.411-2.822-3.024v-2.62l-5.712.2.135 1.815c.134 1.68-1.075 3.091-2.62 3.225-1.48.135-2.823-1.142-2.957-2.755l-.135-1.948c-2.553.134-5.107.336-7.66.537l.202 1.882c.201 1.68-.874 3.158-2.42 3.36s-2.889-.941-3.09-2.621l-.27-2.083c-2.351.269-4.77.538-7.189.873l.336 2.218c.202 1.68-.806 3.158-2.352 3.427s-2.956-.874-3.158-2.554l-.336-2.351c-2.419.336-4.77.739-7.123 1.142l.336 2.285c.27 1.68-.739 3.225-2.217 3.494-1.546.336-3.024-.807-3.293-2.42l-.336-2.418c-2.419.47-4.838.94-7.19 1.41l.47 2.017c.337 1.612-.604 3.292-2.082 3.695-1.478.336-3.024-.604-3.36-2.217l-.537-2.285c-2.352.538-4.704 1.143-7.056 1.747l.806 2.957c.404 1.545-.47 3.225-1.948 3.696s-3.024-.47-3.427-2.083l-.874-3.159c-2.553.74-5.174 1.479-7.794 2.218l3.628 9.474c27.752-8.265 57.855-12.834 89.302-12.834s61.55 4.57 89.235 12.834l3.628-9.474c-2.553-.74-5.174-1.478-7.794-2.218l-.807 3.159c-.403 1.612-2.016 2.553-3.494 2.083s-2.352-2.15-1.881-3.696l.739-2.957a212.268 212.268 0 00-6.988-1.747l-.538 2.285c-.336 1.613-1.881 2.553-3.36 2.217-1.478-.403-2.419-2.083-2.083-3.695l.47-2.016c-2.418-.47-4.77-.941-7.19-1.411l-.402 2.419c-.27 1.612-1.68 2.755-3.226 2.419-1.545-.27-2.553-1.815-2.284-3.494l.403-2.285a261.45 261.45 0 00-7.123-1.142l-.336 2.351c-.201 1.68-1.68 2.823-3.158 2.554-1.545-.269-2.62-1.747-2.352-3.427l.269-2.218c-2.352-.335-4.77-.604-7.123-.873l-.268 2.083c-.202 1.68-1.613 2.822-3.091 2.62-1.546-.201-2.62-1.68-2.487-3.36l.202-1.88c-2.486-.202-5.04-.404-7.593-.538l-.134 1.948c-.135 1.613-1.479 2.89-3.024 2.755s-2.688-1.545-2.554-3.225l.135-1.814c-1.949-.067-3.83-.135-5.712-.202v2.62c0 1.614-1.276 3.025-2.822 3.025s-2.755-1.411-2.755-3.024v-2.755c-1.545 0-3.024-.067-4.502-.067zM349.997 89.202c-39.242 0-76.803 5.376-111.678 15.254l3.629 9.407c2.89-.74 5.779-1.546 8.668-2.285l-.537-2.553c-.336-1.613.671-3.225 2.15-3.561 1.478-.404 3.024.672 3.36 2.284l.47 2.486c2.284-.537 4.57-1.075 6.787-1.545l-.404-2.553c-.268-1.68.74-3.226 2.218-3.562 1.545-.269 3.024.807 3.292 2.42l.403 2.553a138.128 138.128 0 017.258-1.411l-.336-2.554c-.202-1.68.806-3.225 2.351-3.427 1.546-.269 2.957.874 3.159 2.486l.335 2.487c2.352-.404 4.704-.74 7.056-1.143l-.336-2.486c-.202-1.613.873-3.158 2.352-3.427 1.545-.201 2.956.94 3.158 2.62l.336 2.487 7.862-1.008-.202-2.553c-.201-1.68.94-3.159 2.486-3.293 1.546-.202 2.89 1.008 3.091 2.688l.202 2.553c2.419-.269 4.905-.47 7.324-.672l-.134-2.553c-.135-1.68 1.008-3.158 2.553-3.225 1.546-.135 2.89 1.142 3.024 2.755l.134 2.553c2.486-.202 4.973-.336 7.526-.47l-.134-2.621c0-1.613 1.21-3.024 2.755-3.091 1.478-.067 2.822 1.277 2.889 2.89l.067 2.553c2.285-.067 4.502-.135 6.787-.202v-2.89c0-1.679 1.277-3.023 2.822-3.023 1.478 0 2.755 1.344 2.755 3.024v2.755h9.004v-2.755c0-1.68 1.21-3.024 2.755-3.024s2.822 1.344 2.822 3.024v2.89c2.285.066 4.502.134 6.787.2l.067-2.553c.067-1.612 1.344-2.956 2.89-2.889s2.755 1.478 2.687 3.091l-.067 2.62c2.486.135 4.973.27 7.526.471l.134-2.553c.135-1.613 1.479-2.89 2.957-2.755 1.545.067 2.755 1.545 2.62 3.225l-.134 2.553c2.42.202 4.838.403 7.324.672l.202-2.553c.202-1.68 1.545-2.89 3.09-2.688 1.546.134 2.621 1.613 2.487 3.293l-.269 2.553c2.688.336 5.309.672 7.93 1.008l.268-2.486c.269-1.68 1.68-2.822 3.158-2.62 1.546.268 2.62 1.813 2.42 3.426l-.337 2.486c2.352.403 4.704.74 6.989 1.143l.335-2.487c.27-1.612 1.68-2.755 3.226-2.486 1.478.202 2.553 1.747 2.352 3.427l-.336 2.554c2.419.403 4.838.873 7.257 1.41l.403-2.553c.269-1.612 1.747-2.688 3.292-2.419 1.479.336 2.487 1.882 2.218 3.562l-.47 2.553c2.284.47 4.569 1.008 6.786 1.545l.538-2.486c.336-1.612 1.814-2.688 3.36-2.284 1.478.336 2.418 1.948 2.082 3.56l-.47 2.554c2.89.74 5.712 1.546 8.601 2.285l3.629-9.407c-34.807-9.878-72.436-15.254-111.61-15.254z" />
        <path class="prefix__prefix__fil9"
            d="M352.82 110.974c1.88-2.016 2.754-3.562-.337-4.771-3.897-1.546-1.075-1.546-4.972 0-3.091 1.21-2.285 2.755-.403 4.77 2.284 2.42-1.68 4.839-2.486 1.546-.672-2.755-1.479-4.3-4.032-2.016-3.158 2.822-1.814.202-2.486 4.57-.538 3.56 1.075 3.494 3.628 2.754 3.091-.873 3.091 4.032 0 3.159-2.553-.74-4.166-.74-3.628 2.755.672 4.367-.672 1.747 2.486 4.569 2.553 2.284 3.36.739 4.032-2.016.806-3.293 4.77-.874 2.486 1.545-1.882 2.083-2.688 3.562.403 4.838 3.897 1.546 1.075 1.546 4.972 0 3.091-1.276 2.218-2.755.336-4.838-2.217-2.419 1.747-4.838 2.554-1.545.672 2.755 1.478 4.3 4.031 2.016 3.159-2.822 1.747-.202 2.487-4.57.537-3.494-1.076-3.494-3.696-2.754-3.024.873-3.024-4.032 0-3.159 2.62.74 4.233.807 3.696-2.755-.74-4.367.672-1.747-2.487-4.569-2.553-2.284-3.36-.739-4.031 2.016-.807 3.293-4.771.874-2.554-1.545zm-2.823 5.375c1.546 0 2.822 1.344 2.822 3.091 0 1.68-1.276 3.091-2.822 3.091-1.613 0-2.89-1.411-2.89-3.09 0-1.748 1.277-3.092 2.89-3.092zM455.426 120.515c-.336.067-1.008.135-2.016.067-3.36-.134-3.091 1.68-2.083 4.3 1.276 3.159-3.226 3.83-2.89.404.336-2.822.135-4.57-3.023-3.494-3.898 1.344-1.68-.538-3.898 3.225-1.747 3.024-.201 3.696 2.42 4.032 3.158.47 1.41 4.972-1.076 2.956-2.15-1.747-3.628-2.486-4.367 1.008-.874 4.368-1.277 1.344.672 5.309 1.612 3.158 2.889 2.016 4.502-.269 1.881-2.688 4.703 1.142 1.747 2.486-2.42 1.143-3.763 2.15-1.277 4.57.672.671 1.008 1.142 1.277 1.478l3.964-10.214c-1.075-.806-1.478-2.352-1.008-3.696.538-1.343 1.814-2.083 3.091-1.881zM244.569 120.515c.336.067.94.135 2.015.067 3.36-.134 3.091 1.68 2.016 4.3-1.21 3.159 3.293 3.83 2.89.404-.336-2.822-.135-4.57 3.09-3.494 3.898 1.344 1.68-.538 3.83 3.225 1.815 3.024.27 3.696-2.418 4.032-3.091.47-1.411 4.972 1.142 2.956 2.083-1.747 3.628-2.486 4.368 1.008.873 4.368 1.21 1.344-.672 5.309-1.613 3.158-2.89 2.016-4.502-.269-1.882-2.688-4.704 1.142-1.747 2.486 2.419 1.143 3.762 2.15 1.276 4.57a17.71 17.71 0 00-1.344 1.478l-3.897-10.214c1.075-.806 1.478-2.352 1.008-3.696-.538-1.343-1.814-2.083-3.158-1.881z" />
    </g>
</svg>