<svg width="700" height="500" fill-rule="evenodd" xmlns="http://www.w3.org/2000/svg">
    <path fill="#fff" d="M0 0h700v500H0z" />
    <path
        d="M350 63.352c34.624 0 69.12 5.312 101.952 16.192l1.728.576-21.696 61.184-1.728-.576c-25.664-9.28-52.928-13.824-80.256-13.824-27.264 0-54.528 4.544-80.256 13.824l-1.664.576-21.76-61.184 1.728-.576C280.88 68.664 315.44 63.352 350 63.352z"
        fill="#313031" />
    <path
        d="M350 65.144c35.776 0 70.016 5.696 101.376 16.128l-.768 2.176a2.244 2.244 0 00-.896-.384c-.576-.128-1.152 0-1.664.32s-1.024.768-1.344 1.472c-.448.768-.704 1.728-.768 3.008-.256-.192-.576-.384-.832-.576-.512-.384-1.024-.768-1.408-1.216l-.192-.256-.256.064c-.768.128-1.408.192-2.048.192-.448 0-.832-.064-1.28-.128 1.088-1.856 1.216-3.456.768-4.544-.32-.768-.896-1.28-1.6-1.472-.704-.256-1.472-.128-2.176.384-.896.704-1.6 2.176-1.664 4.544-.384-.192-.704-.448-1.088-.64a6.06 6.06 0 01-1.28-1.28l-.192-.32-.384.128c-.704.192-1.408.384-2.112.448-.384.064-.832.064-1.28.064 1.216-1.92 1.216-3.52.768-4.672-.384-.832-1.088-1.408-1.856-1.6-.768-.256-1.6-.064-2.304.512-.896.768-1.6 2.24-1.472 4.608-.384-.192-.768-.384-1.088-.576-.512-.384-1.024-.768-1.344-1.344l-.256-.384-.384.192c-.96.384-1.92.448-3.008.448 1.088-1.728 1.152-3.136.704-4.16-.32-.896-1.024-1.408-1.856-1.6-.768-.256-1.664-.064-2.368.512-.896.768-1.536 2.176-1.344 4.416-.448-.192-.896-.32-1.28-.576-.576-.256-1.088-.704-1.6-1.28l-.192-.256-.32.064c-.768.256-1.408.448-2.112.576-.384.064-.832.064-1.344.064 1.088-1.984 1.088-3.648.512-4.736-.384-.896-1.088-1.408-1.856-1.6-.832-.192-1.664 0-2.368.64-.832.832-1.472 2.368-1.216 4.864l-.192-.064c-.896-.384-1.728-.704-2.56-1.536l-.256-.256-.32.128c-.576.32-1.152.512-1.792.704-.384.064-.768.192-1.216.256.896-2.112.768-3.712.192-4.736-.448-.768-1.088-1.216-1.856-1.344s-1.536.064-2.24.64c-.896.832-1.6 2.368-1.408 4.8l-.064-.064c-1.088-.512-2.112-.96-2.88-1.728l-.256-.192-.256.064c-.576.256-1.216.448-1.92.64-.384.064-.768.128-1.216.192.768-1.856.576-3.392-.064-4.352-.448-.768-1.152-1.216-1.92-1.344s-1.536.064-2.176.704c-.896.768-1.472 2.24-1.216 4.544-1.088-.384-2.112-.768-3.072-1.408l-.256-.192-.256.128c-.896.384-1.92.576-3.008.704.704-1.92.512-3.456-.064-4.416-.448-.704-1.088-1.088-1.792-1.216s-1.408.064-2.048.576c-.96.768-1.664 2.304-1.536 4.736-.384-.064-.768-.128-1.216-.256-.512-.192-1.088-.448-1.536-.768l-.256-.128-.192.128c-.704.256-1.28.448-1.984.576-.448.064-.896.128-1.408.128.704-2.112.448-3.648-.192-4.608-.512-.704-1.216-1.088-1.984-1.088-.768-.064-1.472.256-2.048.896-.704.832-1.088 2.304-.64 4.352-.64-.192-1.216-.512-1.792-.832-.64-.32-1.216-.768-1.792-1.28l-.64-.64c-.256.32-.512.576-.576.64a8.75 8.75 0 01-1.856 1.28c-.576.32-1.152.64-1.792.832.448-2.048.128-3.52-.64-4.352a2.368 2.368 0 00-2.048-.896c-.704 0-1.408.384-1.92 1.088-.704.96-.96 2.496-.192 4.608-.512 0-1.024-.064-1.472-.128-.64-.128-1.28-.32-1.92-.576l-.256-.128-.192.128a7.364 7.364 0 01-1.6.768c-.384.128-.768.192-1.152.256.128-2.432-.576-3.968-1.536-4.736-.64-.512-1.408-.704-2.112-.576-.64.128-1.28.512-1.728 1.216-.64.96-.832 2.496-.064 4.416-1.152-.128-2.176-.32-3.072-.704l-.256-.128-.256.192c-.896.64-1.984 1.024-3.008 1.408.192-2.304-.384-3.776-1.216-4.544-.704-.64-1.472-.832-2.24-.704-.704.128-1.408.576-1.92 1.344-.576.96-.832 2.496-.064 4.352-.384-.064-.832-.128-1.216-.192-.64-.192-1.28-.384-1.856-.64l-.32-.064-.256.192c-.768.768-1.728 1.216-2.816 1.728l-.064.064c.128-2.432-.512-3.968-1.472-4.8a2.598 2.598 0 00-2.176-.64 2.717 2.717 0 00-1.92 1.344c-.576 1.024-.64 2.624.192 4.736-.384-.064-.768-.192-1.152-.256-.64-.192-1.216-.384-1.856-.704l-.32-.128-.256.256c-.768.832-1.6 1.152-2.496 1.536l-.192.064c.192-2.496-.384-4.032-1.28-4.864-.64-.64-1.536-.832-2.304-.64s-1.472.704-1.92 1.6c-.512 1.088-.576 2.752.512 4.736-.448 0-.896 0-1.344-.064-.64-.128-1.344-.32-2.112-.576l-.32-.064-.192.256a4.3 4.3 0 01-1.6 1.28c-.384.256-.768.384-1.216.576.128-2.24-.512-3.648-1.408-4.416-.704-.576-1.6-.768-2.368-.512-.768.192-1.472.704-1.856 1.6-.384 1.024-.32 2.432.704 4.16-1.024 0-2.048-.064-3.008-.448l-.384-.192-.192.384c-.384.576-.832.96-1.408 1.344-.32.192-.704.384-1.088.576.128-2.368-.512-3.84-1.408-4.608-.704-.576-1.6-.768-2.368-.512-.768.192-1.408.768-1.792 1.6-.512 1.152-.448 2.752.704 4.672-.448 0-.832 0-1.28-.064-.64-.064-1.344-.256-2.112-.448l-.32-.128-.192.32c-.32.448-.768.896-1.344 1.28-.32.192-.704.448-1.088.64 0-2.368-.768-3.84-1.664-4.544-.704-.512-1.472-.64-2.176-.384-.64.192-1.28.704-1.536 1.472-.448 1.088-.384 2.688.768 4.544-.448.064-.896.128-1.28.128a11.09 11.09 0 01-2.048-.192l-.32-.064-.128.256c-.384.448-.896.832-1.408 1.216-.32.192-.576.384-.896.576 0-1.28-.32-2.24-.704-3.008-.384-.704-.832-1.152-1.344-1.472-.576-.32-1.152-.448-1.728-.32-.32.064-.576.192-.896.384l-.768-2.176C280.048 70.84 314.224 65.144 350 65.144zm100.288 19.264l-2.432 6.848h-.064c-5.12-1.856-10.496-1.408-15.04.704-4.544 2.176-8.256 6.08-10.112 11.2a19.535 19.535 0 00.768 14.976c2.112 4.608 6.016 8.32 11.136 10.112l.128.064-.896 2.624h-.384c-.384.064-.768.128-1.088.192-.384-.384-.768-.768-1.216-1.088-.512-.384-1.088-.704-1.728-1.024l-.64-.32v.768c-.064 2.24-.832 3.456-1.664 3.904-.576.32-1.216.32-1.792.128a2.17 2.17 0 01-1.088-1.28c-.256-.896.128-2.24 1.6-3.712l.576-.576-.832-.192a11.377 11.377 0 00-2.496-.448c-.768-.064-1.472-.064-2.24.064-.384-.448-.768-.832-1.28-1.152-.576-.384-1.216-.768-1.92-1.024l-.704-.256.064.704c.064 2.368-.576 3.712-1.344 4.224-.448.32-.96.384-1.344.256a1.985 1.985 0 01-1.152-.896c-.448-.896-.384-2.304.704-4.096l.32-.512-.64-.192c-.64-.192-1.28-.256-1.92-.256-.576 0-1.088.128-1.6.256-.384-.384-.832-.768-1.28-1.024-.576-.384-1.216-.64-1.856-.896l-.64-.192V123c.192 2.24-.448 3.52-1.344 4.096a1.602 1.602 0 01-1.472.32c-.512-.128-.896-.448-1.152-.896-.384-.896-.32-2.304.896-4.16l.448-.64-.768-.128c-.832-.064-1.6-.128-2.432-.064-.704.064-1.408.128-2.112.32-.384-.32-.832-.64-1.344-.96-.576-.32-1.216-.64-1.92-.896l-.768-.256.128.768c.256 2.368-.32 3.776-1.152 4.416-.448.384-1.024.448-1.536.384-.512-.128-.96-.512-1.216-1.024-.448-.896-.384-2.368.832-4.16l.448-.704-.832-.064c-.832-.064-1.536 0-2.24.064-.64.128-1.216.256-1.856.448-.384-.32-.896-.576-1.344-.832-.704-.32-1.472-.64-2.112-.832l-.704-.192.064.704c.256 2.304-.32 3.712-1.152 4.288-.448.384-.96.448-1.472.32s-.96-.448-1.28-.96c-.448-.896-.448-2.304.704-3.968l.512-.832-.96.064c-.768 0-1.472.128-2.112.256s-1.152.32-1.792.576c-.448-.384-.96-.64-1.536-.832a11.595 11.595 0 00-1.984-.576l-.64-.128.064.64c.128 2.368-.448 3.776-1.28 4.352-.448.32-.896.448-1.344.384a1.915 1.915 0 01-1.152-.64c-.704-.832-1.024-2.304-.384-4.288l.192-.64h-.64c-.768 0-1.536.064-2.24.256-.576.128-1.088.32-1.664.576a9.422 9.422 0 00-1.408-.64c-.64-.192-1.28-.384-1.92-.512l-.768-.128.192.704c.576 2.24.192 3.712-.576 4.416-.448.448-1.024.64-1.536.576-.576 0-1.088-.32-1.472-.832-.576-.832-.64-2.24.32-4.16l.32-.704h-.768c-1.472.064-3.392.704-4.928 1.344-1.472-.64-3.392-1.28-4.864-1.344h-.832l.384.704c.96 1.92.832 3.328.256 4.16-.32.512-.832.832-1.408.832a1.933 1.933 0 01-1.6-.576c-.768-.704-1.152-2.176-.576-4.416l.256-.704-.768.128c-.704.128-1.344.32-1.92.512-.512.192-1.024.384-1.472.64a7.31 7.31 0 00-1.664-.576c-.704-.192-1.408-.256-2.176-.256h-.704l.256.64c.64 1.984.32 3.456-.384 4.288-.32.384-.768.576-1.216.64s-.896-.064-1.28-.384c-.832-.576-1.472-1.984-1.28-4.352l.064-.64-.64.128c-.704.128-1.344.32-1.984.576-.576.192-1.152.448-1.6.832a9.128 9.128 0 00-1.728-.576c-.64-.128-1.344-.256-2.112-.256l-.96-.064.512.832c1.088 1.664 1.152 3.072.64 3.968-.256.512-.704.832-1.216.96s-1.088.064-1.536-.32c-.768-.576-1.344-1.984-1.152-4.288l.128-.704-.704.192c-.704.192-1.472.512-2.112.832-.512.256-.96.512-1.344.832-.64-.192-1.28-.32-1.856-.448-.704-.064-1.472-.128-2.304-.064l-.832.064.448.704c1.216 1.792 1.344 3.264.896 4.16a2.034 2.034 0 01-1.28 1.024c-.512.064-1.088 0-1.536-.384-.832-.64-1.408-2.048-1.088-4.416l.064-.768-.704.256c-.704.256-1.344.576-1.92.896-.512.32-.96.64-1.408.96-.704-.192-1.408-.256-2.112-.32-.768-.064-1.6 0-2.368.064l-.768.128.384.64c1.216 1.856 1.344 3.264.896 4.16-.192.448-.64.768-1.088.896-.512.128-1.024.064-1.536-.32-.832-.576-1.472-1.856-1.344-4.096l.064-.704-.704.192c-.64.256-1.216.512-1.792.896-.512.256-.96.64-1.344 1.024-.512-.128-1.024-.256-1.536-.256-.64 0-1.344.064-1.984.256l-.64.192.384.512c1.088 1.792 1.088 3.2.64 4.096-.256.448-.64.768-1.088.896s-.896.064-1.344-.256c-.832-.512-1.408-1.856-1.344-4.224v-.704l-.64.256c-.768.256-1.408.64-1.984 1.024a7.19 7.19 0 00-1.28 1.152c-.704-.128-1.472-.128-2.176-.064-.832.064-1.728.192-2.56.448l-.832.192.64.576c1.472 1.472 1.792 2.816 1.6 3.712-.192.576-.64 1.024-1.152 1.28a2.07 2.07 0 01-1.728-.128c-.896-.448-1.664-1.664-1.664-3.904v-.768l-.704.32c-.64.32-1.216.64-1.728 1.024-.384.32-.832.704-1.152 1.088-.384-.064-.768-.128-1.088-.192h-.384l-.96-2.624.192-.064c5.12-1.792 8.96-5.504 11.136-10.112 2.112-4.544 2.56-9.92.704-14.976-1.792-5.12-5.568-9.024-10.112-11.2-4.544-2.112-9.92-2.56-15.04-.704l-2.432-6.848c.192-.192.448-.32.704-.384.32-.064.704 0 1.024.192.384.256.704.576 1.024 1.088.384.768.64 1.92.576 3.328l-.064.896.768-.448c.512-.256 1.152-.576 1.728-1.024.448-.32.96-.704 1.408-1.152.64.064 1.28.128 1.92.128.704 0 1.408-.064 2.176-.192l.768-.192-.448-.576c-1.344-1.856-1.472-3.328-1.088-4.288.192-.512.512-.832.96-.96.384-.128.832-.064 1.28.256.768.64 1.408 2.048 1.28 4.544l-.064.832.768-.384c.64-.32 1.28-.64 1.92-1.088.512-.32.96-.768 1.344-1.216.64.192 1.28.32 1.92.384.768.128 1.536.064 2.368-.064l.768-.128-.512-.64c-1.344-1.856-1.472-3.328-1.024-4.352a2.362 2.362 0 011.152-1.088c.512-.128 1.024 0 1.472.384.768.64 1.344 2.112 1.024 4.608l-.064.832.768-.32c.704-.32 1.344-.64 1.984-1.024.512-.384 1.024-.832 1.408-1.344 1.216.384 2.432.384 3.712.448h1.216l-.576-.768c-1.344-1.792-1.472-3.136-1.152-4.032.256-.576.704-.96 1.216-1.088.448-.128 1.024 0 1.472.384.768.64 1.28 1.984.96 4.288l-.128.768.768-.256a21.904 21.904 0 002.176-.832 6.407 6.407 0 001.664-1.344c.64.192 1.28.384 1.92.512.704.128 1.472.128 2.368.064l.832-.064-.448-.704c-1.344-1.92-1.408-3.52-.896-4.544.256-.576.768-.896 1.216-1.024.512-.128 1.024 0 1.472.384.768.704 1.216 2.304.832 4.928l-.128.896.832-.384c.32-.192.64-.32.96-.448.896-.32 1.728-.704 2.624-1.536.512.256 1.088.448 1.664.64.64.128 1.408.32 2.24.448l.96.128-.512-.832c-1.088-2.176-1.088-3.776-.576-4.736a1.5 1.5 0 011.152-.832c.448-.128.96.064 1.408.448.832.704 1.408 2.24 1.024 4.736l-.128.96.832-.448c.32-.128.576-.256.832-.384 1.088-.512 2.048-.96 2.88-1.728.576.192 1.152.384 1.792.512.64.192 1.408.32 2.176.448l.96.128-.448-.832c-1.024-1.92-.896-3.392-.384-4.288.32-.512.768-.768 1.28-.896.448-.064.96.064 1.344.448.768.64 1.216 2.112.832 4.48l-.128.832.768-.32c.192-.064.448-.128.768-.256 1.024-.32 2.048-.704 3.072-1.408 1.152.512 2.496.704 3.904.768h.832l-.32-.704c-.96-1.92-.896-3.392-.32-4.224.256-.448.64-.704 1.088-.768s.896.064 1.28.384c.832.64 1.408 2.112 1.152 4.48l-.064.64.576-.064a8.665 8.665 0 001.984-.448c.512-.192 1.088-.384 1.6-.704.64.256 1.216.448 1.856.576a9.284 9.284 0 002.368.128l.704-.064-.256-.576c-.896-2.112-.768-3.52-.192-4.352.32-.448.768-.704 1.216-.704.448-.064.896.128 1.28.576.64.704.896 2.176.192 4.352l-.256.896.896-.32a18.51 18.51 0 002.816-1.152c.704-.384 1.344-.896 1.92-1.408.64.512 1.28 1.024 1.984 1.408.832.448 1.792.832 2.816 1.152l.896.32-.32-.896c-.64-2.176-.384-3.648.256-4.352.32-.448.768-.64 1.216-.576.448 0 .896.256 1.216.704.576.832.704 2.24-.128 4.352l-.32.576.704.064c.896.064 1.664 0 2.368-.128.64-.128 1.28-.32 1.92-.576.512.32 1.024.512 1.6.704.64.256 1.344.384 1.984.448l.576.064-.064-.64c-.256-2.368.32-3.84 1.088-4.48.448-.32.896-.448 1.344-.384.384.064.768.32 1.088.768.512.832.576 2.304-.32 4.224l-.384.704h.832c1.408-.064 2.752-.256 3.904-.768 1.024.704 2.112 1.088 3.136 1.408.256.128.576.192.704.256l.832.32-.128-.832c-.448-2.368.064-3.84.768-4.48.448-.384.896-.512 1.408-.448.448.128.896.384 1.216.896.576.896.64 2.368-.32 4.288l-.448.832.896-.128c.832-.128 1.536-.256 2.24-.448.576-.128 1.152-.32 1.728-.512.832.768 1.792 1.216 2.88 1.728.256.128.576.256.896.384l.832.448-.128-.96c-.384-2.496.192-4.032.96-4.736.448-.384.96-.576 1.408-.448.512.064.896.32 1.216.832.512.96.512 2.56-.64 4.736l-.448.832.96-.128c.832-.128 1.536-.32 2.24-.448a17.746 17.746 0 001.664-.64c.896.832 1.728 1.216 2.624 1.536.32.128.64.256.96.448l.832.384-.128-.896c-.448-2.624.064-4.224.832-4.928.384-.384.96-.512 1.408-.384.512.128.96.448 1.216 1.024.512 1.024.448 2.624-.832 4.544l-.448.704.832.064c.896.064 1.6.064 2.368-.064.64-.128 1.216-.32 1.92-.512.512.576 1.024 1.024 1.664 1.344s1.344.576 2.112.832l.768.256-.128-.768c-.32-2.304.192-3.648.96-4.288.448-.384 1.024-.512 1.536-.384s.96.512 1.152 1.088c.384.896.192 2.24-1.088 4.032l-.64.768h1.216c1.344-.064 2.496-.064 3.712-.448.448.512.896.96 1.472 1.344s1.28.704 1.984 1.024l.768.32-.128-.832c-.256-2.496.256-3.968 1.024-4.608.448-.384 1.024-.512 1.472-.384.512.192.96.576 1.216 1.088.384 1.024.256 2.496-1.088 4.352l-.448.64.768.128c.832.128 1.536.192 2.304.064.64-.064 1.28-.192 1.92-.384.384.448.896.896 1.408 1.216.576.448 1.28.768 1.92 1.088l.768.384-.064-.832c-.128-2.496.448-3.904 1.28-4.544.384-.32.832-.384 1.28-.256.384.128.768.448.96.96.384.96.192 2.432-1.152 4.288l-.448.576.768.192c.768.128 1.536.192 2.24.192.64 0 1.28-.064 1.92-.128.384.448.896.832 1.408 1.152a9.78 9.78 0 001.664 1.024l.768.448v-.896c-.128-1.408.128-2.56.576-3.328.256-.512.64-.832.96-1.088.384-.192.704-.256 1.088-.192.192.064.448.192.704.384zm-16.896 47.552l-2.496 7.04c-24.832-8.96-52.16-13.888-80.896-13.888-28.672 0-56.064 4.928-80.832 13.888l-2.496-7.04c.384 0 .768.064 1.152.192l.256.064.256-.256c.32-.384.704-.768 1.152-1.152.32-.192.576-.384.896-.576.192 2.176 1.088 3.456 2.176 4.032.832.448 1.728.448 2.56.128.768-.32 1.408-1.024 1.664-1.92.32-1.088.064-2.496-1.216-4.032.512-.064 1.024-.192 1.536-.192.704-.064 1.472 0 2.24.128l.256.064.192-.192c.384-.512.832-.896 1.28-1.28.32-.192.704-.448 1.088-.576.064 2.24.768 3.648 1.728 4.288.704.448 1.472.576 2.176.384s1.344-.704 1.728-1.408c.512-1.088.576-2.624-.384-4.48.32-.064.704-.064 1.024-.064.576 0 1.088.128 1.6.32l.256.128.256-.256a5.82 5.82 0 011.344-1.152c.256-.128.576-.32.96-.448 0 2.176.768 3.52 1.792 4.224.704.512 1.536.64 2.24.448.768-.192 1.408-.704 1.792-1.472.512-1.024.512-2.496-.512-4.416h1.408c.704.064 1.472.192 2.176.384l.256.064.192-.192c.448-.32.896-.704 1.408-1.024.32-.192.704-.384 1.088-.512-.128 2.304.576 3.712 1.536 4.48.704.576 1.6.704 2.368.512.768-.128 1.472-.704 1.92-1.536.512-1.024.512-2.56-.512-4.352.448 0 .832.064 1.216.128.704.064 1.28.256 1.984.448l.32.128.192-.192c.32-.384.832-.64 1.344-.896.384-.256.832-.384 1.28-.576-.128 2.304.576 3.712 1.536 4.416.704.576 1.536.704 2.304.512s1.472-.704 1.92-1.472c.512-1.024.576-2.432-.256-4.16.384.064.704.128 1.088.192.576.128 1.152.32 1.792.576l.256.128.256-.192c.448-.32.96-.576 1.536-.832.384-.128.832-.256 1.216-.384 0 2.368.704 3.84 1.728 4.608.576.448 1.28.576 1.984.512.64-.064 1.28-.384 1.792-.96.832-.96 1.28-2.496.768-4.544.448 0 .896.064 1.344.192a7.31 7.31 0 011.664.576l.192.128.256-.128c.448-.256.96-.512 1.536-.704.32-.064.704-.192 1.024-.256-.384 2.176.128 3.712.96 4.544.704.64 1.536.96 2.368.896.832-.128 1.664-.512 2.176-1.28.64-1.024.896-2.496.128-4.416 1.088.128 2.944.896 4.096 1.408 1.216-.512 3.072-1.28 4.16-1.408-.768 1.92-.576 3.392.128 4.416.512.768 1.28 1.152 2.112 1.28.832.064 1.728-.256 2.368-.896.896-.832 1.408-2.368.96-4.544.384.064.704.192 1.088.256.512.192 1.024.448 1.536.704l.192.128.256-.128a6.37 6.37 0 011.664-.576 4.127 4.127 0 011.28-.192c-.448 2.048-.064 3.584.768 4.544.512.576 1.152.896 1.856.96a2.91 2.91 0 001.984-.512c.96-.768 1.728-2.24 1.664-4.608.448.128.832.256 1.216.384.576.256 1.152.512 1.6.832l.192.192.256-.128c.64-.256 1.216-.448 1.856-.576.32-.064.704-.128 1.024-.192-.832 1.728-.768 3.136-.192 4.16.384.768 1.088 1.28 1.856 1.472s1.6.064 2.368-.512c.896-.704 1.6-2.112 1.536-4.416.448.192.832.32 1.28.576.512.256.96.512 1.344.896l.192.192.256-.128c.704-.192 1.344-.384 1.984-.448.384-.064.832-.128 1.216-.128-.96 1.792-.96 3.328-.448 4.352.384.832 1.088 1.408 1.92 1.536.768.192 1.664.064 2.368-.512.96-.768 1.664-2.176 1.536-4.48.384.128.704.32 1.024.512.512.32 1.024.704 1.472 1.024l.192.192.256-.064a12.22 12.22 0 012.112-.384h1.472c-1.024 1.92-1.024 3.392-.576 4.416a2.883 2.883 0 001.792 1.472c.768.192 1.6.064 2.304-.448.96-.704 1.792-2.048 1.792-4.224.32.128.64.32.96.448.448.32.896.704 1.28 1.152l.256.256.32-.128c.512-.192 1.024-.32 1.536-.32.384 0 .704 0 1.088.064-1.024 1.856-.96 3.392-.384 4.48.384.704 1.024 1.216 1.664 1.408a2.657 2.657 0 002.176-.384c.96-.64 1.728-2.048 1.792-4.288.384.128.704.384 1.024.576.512.384.896.768 1.28 1.28l.192.192.32-.064a8.624 8.624 0 012.24-.128c.512 0 1.024.128 1.536.192-1.28 1.536-1.536 2.944-1.28 4.032.256.896.896 1.6 1.728 1.92.768.32 1.728.32 2.56-.128 1.024-.576 1.92-1.856 2.112-4.032.32.192.64.384.896.576.448.384.832.768 1.216 1.152l.192.256.32-.064a3.624 3.624 0 011.152-.192zM350 75.32c5.44 0 10.368 2.176 13.888 5.76 3.584 3.52 5.824 8.448 5.824 13.888s-2.24 10.368-5.824 13.888c-3.52 3.584-8.448 5.76-13.888 5.76s-10.304-2.176-13.888-5.76c-3.584-3.52-5.76-8.448-5.76-13.888s2.176-10.368 5.76-13.888c3.584-3.584 8.448-5.76 13.888-5.76zm0 14.976c2.624 0 4.736 2.048 4.736 4.672 0 2.56-2.112 4.672-4.736 4.672-2.56 0-4.672-2.112-4.672-4.672A4.657 4.657 0 01350 90.296zm0 1.024c-1.984 0-3.648 1.664-3.648 3.648s1.664 3.648 3.648 3.648c2.048 0 3.648-1.664 3.648-3.648s-1.6-3.648-3.648-3.648zm4.096-4.672c-1.28 1.28.576 2.432 1.088.64 1.024-3.776 2.816-5.696 6.4-2.752 3.776 3.136 2.432.768 3.2 5.632.832 4.608-1.792 5.184-5.568 4.16-1.728-.448-1.728 1.728 0 1.28 3.776-1.024 6.4-.448 5.568 4.16-.768 4.864.576 2.496-3.2 5.568-3.584 3.008-5.376 1.024-6.4-2.688-.512-1.792-2.368-.704-1.088.64 2.752 2.752 3.52 5.248-.832 6.912-4.608 1.664-1.856 1.664-6.464 0-4.416-1.664-3.584-4.16-.832-6.912 1.28-1.344-.64-2.432-1.088-.64-1.024 3.712-2.816 5.696-6.464 2.688-3.776-3.072-2.368-.704-3.2-5.568-.768-4.608 1.792-5.184 5.568-4.16 1.728.448 1.728-1.728 0-1.28-3.776 1.024-6.336.448-5.568-4.16.832-4.864-.512-2.496 3.2-5.632 3.648-2.944 5.44-1.024 6.464 2.752.448 1.792 2.368.64 1.088-.64-2.752-2.752-3.584-5.312.832-6.912 4.608-1.728 1.856-1.728 6.464 0 4.352 1.6 3.584 4.16.832 6.912zm-.768-.768c2.176-2.176 3.136-3.776-.448-5.12-4.48-1.664-1.28-1.664-5.696 0-3.584 1.344-2.624 2.944-.448 5.12 2.56 2.624-1.984 5.248-2.944 1.664-.768-2.944-1.728-4.608-4.672-2.176-3.648 3.072-2.048.256-2.816 4.928-.64 3.776 1.216 3.776 4.224 3.008a1.844 1.844 0 010 3.328c-3.008-.768-4.864-.832-4.224 2.944.768 4.672-.832 1.92 2.816 4.928 2.944 2.496 3.904.832 4.672-2.176.96-3.52 5.504-.896 2.944 1.728-2.176 2.176-3.136 3.776.448 5.12 4.416 1.664 1.216 1.664 5.696 0 3.584-1.344 2.624-2.944.448-5.12-2.624-2.624 1.92-5.248 2.88-1.728.832 3.008 1.728 4.672 4.672 2.176 3.648-3.008 2.048-.256 2.88-4.928.64-3.776-1.28-3.712-4.224-2.944a1.844 1.844 0 010-3.328c2.944.768 4.864.768 4.224-3.008-.832-4.672.768-1.856-2.88-4.928-2.944-2.432-3.84-.768-4.672 2.176-.96 3.584-5.504.96-2.88-1.664zm9.856-4.032c-3.392-3.392-8.064-5.44-13.184-5.44s-9.792 2.048-13.12 5.44c-3.392 3.328-5.44 8-5.44 13.12s2.048 9.792 5.44 13.12c3.328 3.392 8 5.44 13.12 5.44a18.575 18.575 0 0018.624-18.56 18.58 18.58 0 00-5.44-13.12zm84.288 10.432l-.704 1.984c-.448-.192-.96.064-3.52.064-4.672.064-4.8 2.752-3.136 6.272.832 1.6-1.344 2.048-1.216.192.32-3.84-.704-6.336-5.12-4.736-4.608 1.664-2.496-.064-4.928 4.16-2.304 4.096 0 5.504 3.84 5.824 1.792.192 1.088 2.24-.448 1.216-3.2-2.24-5.824-2.56-6.656 2.048-.832 4.8-1.344 2.112 1.152 6.336 2.432 4.032 4.8 2.816 6.976-.384 1.024-1.536 2.496.192.832.96-3.52 1.664-5.12 3.776-1.536 6.784 2.048 1.728 2.176 2.24 2.752 2.304l-.704 1.984-.128-.064c-4.864-1.728-8.512-5.248-10.56-9.536s-2.432-9.344-.704-14.208c1.728-4.8 5.248-8.512 9.536-10.496 4.352-2.048 9.408-2.432 14.208-.704zm-1.024 2.944L442.8 105.4l-.064-.064c-2.432-.896-5.12.384-6.016 2.816-.832 2.496.448 5.184 2.88 6.016l.064.064-3.584 10.112c-.384 0-.32-.384-2.368-2.176-2.944-2.432-1.472-3.648 1.28-4.992 3.328-1.536-.064-5.568-2.176-2.56-1.728 2.56-3.2 3.776-5.12.512-2.432-4.096-1.856-.96-1.024-5.632.704-3.776 2.432-3.136 4.992-1.344 3.008 2.048 4.736-2.88 1.152-3.2-3.072-.256-4.864-.832-3.008-4.16 2.304-4.16-.128-2.112 4.352-3.712 3.584-1.28 3.904.576 3.648 3.648-.32 3.648 4.864 2.688 3.328-.64-1.344-2.752-1.728-4.608 2.112-4.672 2.56 0 2.88-.32 3.2-.192zm-3.968 11.136l-2.432 6.848h-.128c-1.856-.704-2.88-2.752-2.176-4.672.704-1.856 2.752-2.88 4.672-2.176zm-177.472 20.928l-.704-1.984c.512-.064.64-.576 2.752-2.304 3.584-3.008 1.984-5.12-1.536-6.784-1.664-.768-.256-2.496.768-.96 2.24 3.2 4.608 4.416 6.976.384 2.496-4.224 1.984-1.536 1.152-6.336-.832-4.608-3.456-4.288-6.656-2.048-1.472 1.024-2.24-1.024-.448-1.216 3.904-.32 6.144-1.728 3.84-5.824-2.368-4.224-.32-2.496-4.928-4.16-4.352-1.6-5.376.896-5.056 4.736.128 1.856-2.048 1.408-1.28-.192 1.664-3.52 1.6-6.208-3.136-6.272-2.56 0-3.072-.256-3.52-.064l-.704-1.984h.064c4.864-1.728 9.92-1.344 14.208.704 4.288 1.984 7.808 5.696 9.536 10.496a18.749 18.749 0 01-.64 14.208 18.72 18.72 0 01-10.56 9.536zm-1.088-2.944l-3.584-10.112.128-.064c2.432-.832 3.712-3.52 2.816-6.016-.896-2.432-3.584-3.712-6.016-2.816l-.064.064-3.584-10.176c.256-.128.576.192 3.136.192 3.84.064 3.456 1.92 2.176 4.672-1.6 3.328 3.584 4.288 3.264.64-.192-3.072.064-4.928 3.712-3.648 4.416 1.6 1.984-.448 4.352 3.712 1.856 3.328.064 3.904-3.008 4.16-3.648.32-1.856 5.248 1.152 3.2 2.496-1.792 4.288-2.432 4.928 1.344.832 4.672 1.408 1.536-1.024 5.632-1.92 3.264-3.328 2.048-5.12-.512-2.048-3.008-5.504 1.024-2.176 2.56 2.816 1.344 4.288 2.56 1.344 4.992-2.112 1.792-1.984 2.176-2.432 2.176zm-3.904-11.136l-2.432-6.848h.064c1.856-.704 3.968.32 4.608 2.176.704 1.92-.256 3.968-2.176 4.672z"
        fill="#fee487" />
    <path d="M246.32 139.384h207.36v135.232c0 57.024-46.656 103.68-103.68 103.68s-103.68-46.656-103.68-103.68z"
        fill="#313031" />
    <path
        d="M398.832 361.72c-14.464 8.192-31.104 12.8-48.832 12.8-17.664 0-34.304-4.608-48.768-12.8h.704c4.672 0 8.128 1.472 11.584 2.88 3.648 1.6 7.296 3.136 12.416 3.136 5.184 0 8.832-1.536 12.48-3.136 3.456-1.408 6.912-2.88 11.584-2.88 4.736 0 8.192 1.472 11.648 2.88 3.648 1.6 7.296 3.136 12.416 3.136s8.768-1.536 12.416-3.136c3.52-1.408 6.912-2.88 11.648-2.88h.704zM432.368 331a101.552 101.552 0 01-14.976 17.28c-2.56-.576-4.736-1.472-6.912-2.432-3.648-1.536-7.296-3.008-12.352-3.008s-8.704 1.472-12.352 3.008c-3.456 1.472-6.976 2.944-11.712 2.944s-8.256-1.472-11.712-2.944c-3.648-1.536-7.296-3.008-12.352-3.008s-8.704 1.472-12.352 3.008c-3.456 1.472-6.912 2.944-11.712 2.944-4.736 0-8.192-1.472-11.712-2.944-3.584-1.536-7.232-3.008-12.288-3.008-5.12 0-8.704 1.472-12.352 3.008-2.176.96-4.416 1.856-6.912 2.432-5.632-5.184-10.688-10.944-15.04-17.28 3.008 1.216 6.144 2.176 10.24 2.176 5.12 0 8.768-1.536 12.416-3.072 3.456-1.472 6.912-2.944 11.648-2.944 4.672 0 8.128 1.472 11.584 2.944 3.648 1.536 7.296 3.072 12.416 3.072 5.184 0 8.832-1.536 12.48-3.072 3.456-1.472 6.912-2.944 11.584-2.944 4.736 0 8.192 1.472 11.648 2.944 3.648 1.536 7.296 3.072 12.416 3.072s8.768-1.536 12.416-3.072c3.52-1.472 6.912-2.944 11.648-2.944 4.672 0 8.128 1.472 11.584 2.944 3.648 1.536 7.36 3.072 12.48 3.072 4.096 0 7.232-.96 10.176-2.176zm15.936-38.272c-1.024 5.376-2.432 10.624-4.288 15.616-3.968.384-7.04 1.664-10.112 3.008-3.52 1.472-6.976 2.88-11.712 2.88-4.8 0-8.256-1.408-11.712-2.88-3.648-1.536-7.296-3.072-12.352-3.072s-8.704 1.536-12.352 3.072c-3.456 1.472-6.976 2.88-11.712 2.88s-8.256-1.408-11.712-2.88c-3.648-1.536-7.296-3.072-12.352-3.072s-8.704 1.536-12.352 3.072c-3.456 1.472-6.912 2.88-11.712 2.88-4.736 0-8.192-1.408-11.712-2.88-3.584-1.536-7.232-3.072-12.288-3.072-5.12 0-8.704 1.536-12.352 3.072-3.52 1.472-6.976 2.88-11.712 2.88-4.8 0-8.256-1.408-11.712-2.88-3.136-1.344-6.208-2.624-10.176-3.008-1.792-4.992-3.264-10.24-4.224-15.616.64-.064 1.344-.064 2.048-.064 4.672 0 8.128 1.408 11.584 2.88 3.648 1.536 7.36 3.072 12.48 3.072s8.768-1.536 12.416-3.072c3.456-1.472 6.912-2.88 11.648-2.88 4.672 0 8.128 1.408 11.584 2.88 3.648 1.536 7.296 3.072 12.416 3.072 5.184 0 8.832-1.536 12.48-3.072 3.456-1.472 6.912-2.88 11.584-2.88 4.736 0 8.192 1.408 11.648 2.88 3.648 1.536 7.296 3.072 12.416 3.072s8.768-1.536 12.416-3.072c3.52-1.472 6.912-2.88 11.648-2.88 4.672 0 8.128 1.408 11.584 2.88 3.648 1.536 7.36 3.072 12.48 3.072s8.768-1.536 12.416-3.072c3.456-1.472 6.912-2.88 11.648-2.88.704 0 1.344 0 2.048.064zm1.664-22.656v3.968a22.9 22.9 0 00-3.712-.32c-5.12 0-8.704 1.536-12.352 3.072-3.52 1.472-6.976 2.944-11.712 2.944-4.8 0-8.256-1.472-11.712-2.944-3.648-1.536-7.296-3.072-12.352-3.072s-8.704 1.536-12.352 3.072c-3.456 1.472-6.976 2.944-11.712 2.944s-8.256-1.472-11.712-2.944c-3.648-1.536-7.296-3.072-12.352-3.072s-8.704 1.536-12.352 3.072c-3.456 1.472-6.912 2.944-11.712 2.944-4.736 0-8.192-1.472-11.712-2.944-3.584-1.536-7.232-3.072-12.288-3.072-5.12 0-8.704 1.536-12.352 3.072-3.52 1.472-6.976 2.944-11.712 2.944-4.8 0-8.256-1.472-11.712-2.944-3.648-1.536-7.296-3.072-12.352-3.072-1.344 0-2.56.128-3.712.32v-3.968z"
        fill="#fee487" />
    <path
        d="M415.856 349.624c-4.48 3.968-9.408 7.552-14.592 10.688-.96-.128-2.048-.256-3.136-.256-5.056 0-8.704 1.536-12.352 3.072-3.456 1.472-6.976 2.944-11.712 2.944s-8.256-1.472-11.712-2.944c-3.648-1.536-7.296-3.072-12.352-3.072s-8.704 1.536-12.352 3.072c-3.456 1.472-6.912 2.944-11.712 2.944-4.736 0-8.192-1.472-11.712-2.944-3.584-1.536-7.232-3.072-12.288-3.072-1.152 0-2.176.128-3.2.256a104.118 104.118 0 01-14.592-10.688c2.24-.576 4.16-1.408 6.144-2.24 3.456-1.472 6.912-2.944 11.648-2.944 4.672 0 8.128 1.472 11.584 2.944 3.648 1.536 7.296 3.072 12.416 3.072 5.184 0 8.832-1.536 12.48-3.072 3.456-1.472 6.912-2.944 11.584-2.944 4.736 0 8.192 1.472 11.648 2.944 3.648 1.536 7.296 3.072 12.416 3.072s8.768-1.536 12.416-3.072c3.52-1.472 6.912-2.944 11.648-2.944 4.672 0 8.128 1.472 11.584 2.944 1.984.832 3.968 1.664 6.144 2.24zm27.52-39.552c-2.496 6.528-5.632 12.672-9.344 18.496l-.128.064c-3.52 1.408-6.976 2.88-11.712 2.88-4.8 0-8.256-1.472-11.712-2.88-3.648-1.536-7.296-3.072-12.352-3.072s-8.704 1.536-12.352 3.072c-3.456 1.408-6.976 2.88-11.712 2.88s-8.256-1.472-11.712-2.88c-3.648-1.536-7.296-3.072-12.352-3.072s-8.704 1.536-12.352 3.072c-3.456 1.408-6.912 2.88-11.712 2.88-4.736 0-8.192-1.472-11.712-2.88-3.584-1.536-7.232-3.072-12.288-3.072-5.12 0-8.704 1.536-12.352 3.072-3.52 1.408-6.976 2.88-11.712 2.88-4.8 0-8.256-1.472-11.712-2.88l-.192-.064c-3.712-5.824-6.848-11.968-9.344-18.496 3.328.448 6.08 1.6 8.768 2.752 3.648 1.536 7.36 3.072 12.48 3.072s8.768-1.536 12.416-3.072c3.456-1.472 6.912-2.944 11.648-2.944 4.672 0 8.128 1.472 11.584 2.944 3.648 1.536 7.296 3.072 12.416 3.072 5.184 0 8.832-1.536 12.48-3.072 3.456-1.472 6.912-2.944 11.584-2.944 4.736 0 8.192 1.472 11.648 2.944 3.648 1.536 7.296 3.072 12.416 3.072s8.768-1.536 12.416-3.072c3.52-1.472 6.912-2.944 11.648-2.944 4.672 0 8.128 1.472 11.584 2.944 3.648 1.536 7.36 3.072 12.48 3.072s8.768-1.536 12.416-3.072c2.752-1.152 5.44-2.304 8.768-2.752zm6.528-34.368c0 5.248-.512 10.368-1.344 15.424-.768-.064-1.536-.128-2.304-.128-5.12 0-8.704 1.536-12.352 3.072-3.52 1.472-6.976 2.944-11.712 2.944-4.8 0-8.256-1.472-11.712-2.944-3.648-1.536-7.296-3.072-12.352-3.072s-8.704 1.536-12.352 3.072c-3.456 1.472-6.976 2.944-11.712 2.944s-8.256-1.472-11.712-2.944C358.704 292.536 355.056 291 350 291s-8.704 1.536-12.352 3.072c-3.456 1.472-6.912 2.944-11.712 2.944-4.736 0-8.192-1.472-11.712-2.944-3.584-1.536-7.232-3.072-12.288-3.072-5.12 0-8.704 1.536-12.352 3.072-3.52 1.472-6.976 2.944-11.712 2.944-4.8 0-8.256-1.472-11.712-2.944-3.648-1.536-7.296-3.072-12.352-3.072-.832 0-1.6.064-2.368.128a102.35 102.35 0 01-1.344-15.424c1.152-.256 2.368-.32 3.712-.32 4.672 0 8.128 1.408 11.584 2.88 3.648 1.536 7.36 3.072 12.48 3.072s8.768-1.536 12.416-3.072c3.456-1.472 6.912-2.88 11.648-2.88 4.672 0 8.128 1.408 11.584 2.88 3.648 1.536 7.296 3.072 12.416 3.072 5.184 0 8.832-1.536 12.48-3.072 3.456-1.472 6.912-2.88 11.584-2.88 4.736 0 8.192 1.408 11.648 2.88 3.648 1.536 7.296 3.072 12.416 3.072s8.768-1.536 12.416-3.072c3.52-1.472 6.912-2.88 11.648-2.88 4.672 0 8.128 1.408 11.584 2.88 3.648 1.536 7.36 3.072 12.48 3.072s8.768-1.536 12.416-3.072c3.456-1.472 6.912-2.88 11.648-2.88 1.28 0 2.496.064 3.648.32z"
        fill="#7793f7" />
    <path
        d="M250.096 143.16h199.872v124.288h-38.656l-12.16-38.976v-25.856H376.56v22.912h-2.816v-9.408h-8.64v9.408h-2.816v-22.912h-24.576v22.912h-2.816v-9.408h-8.576v9.408h-2.816v-22.912h-22.592v25.856l-12.224 38.976h-38.592zm105.28 124.288v-8.832c0-2.944-2.432-5.376-5.376-5.376s-5.376 2.432-5.376 5.376v8.832z"
        fill="#ff605a" />
    <path
        d="M350 204.408h-2.944v7.168h-2.752v-7.168h-4.8v22.976h-6.4v-9.472h-4.992v9.472h-6.4v-22.976h-4.672v7.168h-2.752v-7.168h-4.16v7.168h-2.816v-7.168h-4.608v24.32l-12.096 38.72h52.224v-8.832c0-3.968 3.264-7.168 7.168-7.168 3.968 0 7.168 3.2 7.168 7.168v8.832h52.288l-12.16-38.72v-24.32h-4.608v7.168h-2.752v-7.168h-4.16v7.168h-2.816v-7.168h-4.608v22.976h-6.4v-9.472h-5.056v9.472h-6.4v-22.976h-4.736v7.168h-2.816v-7.168z"
        fill="#fff" />
    <path
        d="M309.36 299.128c-3.84.32-9.6-4.288-4.608-9.536 4.096-4.288 9.088-4.032 15.616-2.432 5.696 1.408 11.84 4.352 16.128 4.608 2.944.192 5.056-1.28 5.44-3.392-2.048-2.56-2.624-4.608-1.088-7.744.192-.96.064-2.24-.064-3.456 2.176.896 2.176 2.56 3.776 4.16.512.512.96 1.152 1.28 1.792.384 1.024.32 2.176-.192 3.264-.192.384-.32.832-.512 1.152-1.152 1.984-1.664 4.672-3.008 5.632-5.184 3.776-19.392-3.264-25.92-4.096-2.112-.256-4.224-.32-6.016.192-4.864 1.408-7.168 6.656 1.856 7.488 4.032.384 8-.384 12.032-.064 3.968.32 8.064 1.728 12.032 1.92 3.712.192 7.744-.832 11.456-.832 3.776.064 7.232 1.024 10.944.96 5.312-.128 10.56-.832 15.872-1.28 8.192.064 13.76 3.392 18.688 7.616 3.712-3.328 7.808-3.712 11.584-.768-2.56.704-5.504 1.28-6.848 3.328-.448 5.056-.192 10.112.512 15.104 1.024 2.816 5.056 3.52 8.32 3.456-3.136 3.392-6.784 4.032-10.688 1.984-.512.704-.96 1.472-2.112 1.92-.96.704-1.536 1.728-2.112 2.816-.704-1.536-1.216-3.2-.256-5.12-1.792 0-3.52-.192-5.248-.128-1.92.128-3.776 1.024-5.632.768-.896-.064-1.28-1.344-2.112-1.664-.192-.128-.384.448-.32.64 1.216 2.24 2.752 4.288 4.16 6.4.832.512 1.792.96 2.496 1.6.448.384.704.896.832 1.408.128.32-.192.704-.064.96.448.832 1.088 1.6 1.792 2.24.384.384 1.024.32 1.344.64.896.832 1.728 1.792 2.304 2.816.192.384-.576 1.088-.192 1.088 4.544.704 4.608 1.408 6.592 4.992h-9.088c-.192-.704-.32-1.472.192-3.136-.256-.256-.448-.64-.768-.704-.96-.192-2.112.256-3.008-.128-.704-.32-1.024-1.152-1.344-1.792-.512-.896-.512-1.984-1.024-2.816-.896-1.344-1.92-2.624-3.136-3.712-.576-.512-1.472-.576-2.176-1.024-1.536-1.152-2.944-2.496-4.48-3.776-.448-.192-.896-.384-1.408-.576.512 1.536.96 3.072 1.6 4.544.128.448 1.216 1.408.512 2.304-.896 1.088-2.048 2.24-3.456 2.432-1.408.256-2.432-.768-3.712-1.28-1.344-.512-2.56-1.216-3.968-1.472-1.152-.192-2.304.384-3.392.128-.704-.128-1.216-.704-1.792-1.088-.192-.192-.32-.448-.512-.576-.256-.192-.576-.384-.896-.448-.256 0-.576.128-.768.256-.32.192-.448.64-.832.768-.512.064-1.088.064-1.536-.256-.896-.576-3.52-.576-4.736-1.792 1.984-1.344 4.032-2.688 6.016-4.032.768.192 1.664.192 2.304.576.512.32.576 1.024.96 1.472.192.256.384.512.704.576s.768-.064 1.088-.256c.192-.128.192-.576.448-.704.32-.128.768-.128 1.088-.064.512.192.896.64 1.344.832.32.128.64.064.896.192.576.32 1.024.768 1.536 1.024.704.384 1.408.832 2.112.832.32 0 .448-.576.32-.832-.384-.704-1.024-1.216-1.664-1.728-1.856-1.536-3.648-3.264-5.824-4.352-1.728-.896-3.84-.576-5.568-1.344-1.856-.832-3.392-2.24-5.12-3.328-2.048-1.344-3.84-3.072-6.08-3.968-2.432-.896-4.992-.768-7.744-1.6.64.896 1.344 1.984 1.28 2.944-.256 2.496-1.664 4.672-2.048 7.104-.128.768.128 1.6.512 2.24 1.984 3.008 4.096 5.952 6.464 8.64.512.576 1.472.576 2.112 1.024.576.32 1.088.832 1.536 1.344.32.32.576.768.704 1.216.064.192-.192.32-.128.448.128.32.448.64.768.832.32.128.704.064 1.088.064 1.664 1.024 2.816 2.624 3.52 4.672h-9.024c-.064-.64-.192-1.28.256-1.984.256-.384.832-.64.768-1.024-.128-.832-.64-1.664-1.344-2.048-.832-.448-1.92.064-2.816-.128-.576-.128-1.28-.384-1.536-.896-.576-1.152-.192-2.624-.832-3.648-1.152-1.792-2.624-3.328-4.352-4.48-.832-.576-2.176.064-3.072-.448-.832-.448-1.472-1.344-1.792-2.24-.256-.64.256-1.344.256-1.984.064-.576.128-1.216-.064-1.728-.064-.448-.384-.832-.704-1.216-.96-1.408-2.112-1.728-2.112-3.52-1.664.576-3.392.768-4.864 1.664-1.856 1.024-3.008 3.072-4.928 4.032-1.6.832-3.904-.064-5.248 1.088-2.432 2.112-3.712 5.312-5.312 8.128-.32.576-.32 1.28-.448 1.92 0 .384.128.832 0 1.216-.128.576-.704 1.024-.64 1.6s.576 1.024 1.024 1.408c.256.256.704.32 1.024.512a121.66 121.66 0 012.176 3.968h-8.576c-.192-1.792-.256-3.52 1.216-4.736.128-.64.448-1.28.384-1.92s-.384-1.216-.704-1.792c-.192-.32-.512-.576-.768-.832-.256-.384-.768-.64-.832-1.152-.128-.768-.128-1.664.32-2.304.704-1.024 2.112-1.472 2.944-2.368 1.728-1.984 3.456-4.032 4.736-6.336.448-.832-.128-1.856.192-2.752.256-.896.576-1.536 1.216-2.24.64-.768 1.664-1.024 2.496-1.536 1.6-1.408 1.792-2.048 1.216-4.416-.32-1.28-1.216-2.368-1.472-3.584-.448-1.664-.192-3.392-.64-5.056-1.664-5.632-2.752-4.288.896-9.28zM350 202.552l-1.408-1.6c-.192-.32-.896.064-1.472-.384-.192-.192-.128-.96-.384-1.28-.64-.64-1.472.512-1.728-.192-.384-1.408 2.688-2.816 1.92-3.52-.64-.576-2.496 1.408-3.2 1.984-1.28 1.152-.384 2.112-.448 2.24-.32.704.128.704-.704.768-.896.128-1.984-.832-1.92-1.92.128-1.856-2.176-.896-1.6-2.752.832-2.816 2.048 2.88 4.992-.384.896-1.024-1.536-1.152-1.6-1.792.32-1.408 1.728-1.728 1.664-2.368-.32-2.56-3.52-3.776-4.8-1.472-1.024 1.792.768 1.088.384 2.816-.256 1.216-.96.64-1.92.256-.896-.32-1.152.128-1.856-.384-.32-.256-.64-.64-.832-.896-.32-.384-.448-1.28-2.816-.576-1.152.32-.64.448-.576.576 1.024 1.408 1.472.448 2.368 2.304l.192.512c.32 1.28-.256 3.648-3.072 3.84-1.856.128-4.416.256-6.144.256-2.432-.128-4.288-.768-5.76-1.024-1.792-.384-4.032.064-5.76-.32-2.24-.384-4.352-2.688-3.008-4.928.448-.704 1.088-.96 1.6-.32.64.896-.128 1.28 1.408 1.664l1.088.192c.384.128 1.088.256 1.408-.192.384-.512-.128-1.728-.704-2.24 1.344-.704 3.52-.064 3.008 1.728-.192.64-.32.832 1.088 1.024 2.496.384 4.672-.192 6.464-.448.576-.064 1.856-.064 1.792-.448-.192-.768-1.344-.768-1.728-1.408-.448-.704.064-.512-.896-.896-.96-.448-.96-.128-1.408-1.024-.256-.512-.512-.896-.384-1.792.32-1.92 1.472-2.304 2.048-2.816 1.92-1.856 7.36.768 9.216-1.92.64-.896.832-1.216.512-2.112-.448-1.216-1.536-1.984-2.304-3.008-.64-.768-.896-1.856-1.664-1.984-.192-.064-.768-.064-1.024 0-.128 1.728-.192 4.672-3.072 5.632.192-1.408.384-3.776-.896-4.864-.064 1.536.256 5.12-3.136 6.144.192-.96.384-4.224-1.024-5.44-.576 4.032-3.712 11.392-8.96 10.112 1.92-2.176 4.928-5.696 3.328-9.728-.704 3.136-5.12 9.856-9.92 7.552 2.176-.768 6.336-4.224 4.928-8.128-1.856 3.072-5.76 7.424-9.216 9.088-2.752 1.344-6.72 1.344-7.36-1.536 3.456-.896 12.672-4.032 13.312-10.048-1.344 1.472-4.736 4.736-8.64 5.952-2.88.896-6.336.512-7.68-2.048 4.8-.96 11.264-2.176 13.76-6.656-2.816 2.176-21.248 8.768-24.128-1.536 2.368.192 17.28 2.56 22.144-3.008-2.752.448-10.944 1.856-17.984 0-3.264-.896-7.488-3.456-6.976-7.616 8.32 3.136 18.24 5.376 24.512 2.56-12.48-1.92-16.64-3.584-25.472-7.104-4.48-1.728-6.208-4.992-3.968-9.28 6.4 3.52 15.104 7.552 25.856 9.856.064-2.048-.384-4.032 1.344-4.672 1.152 1.088 1.984 1.728 3.328 2.432 8.64 4.544 14.784 4.736 18.176 5.312 2.112.192 3.52-.064 3.904 2.112.128.832 1.344 4.096-1.728 4.544-1.664.256-3.136.64-3.008 1.92.128 1.152.64 2.112 1.856 2.176 1.6 0 1.088-.896 3.328-1.536 3.648-1.024 3.968 2.432 5.824.384.512-.576.896-.832 1.728-1.28.896-.512.96-.192 1.792-.768.832-.512 1.024-.832 1.28-1.6-.768.064-1.792.064-2.56-.256 1.344-1.152 1.728-2.752-.64-2.944.256-.32.704-.704.832-1.152.128-.32 0-.768-.128-1.408-1.216-.064-2.752-1.216-3.776-1.216-1.472 0-1.536-1.472.832-1.216 4.032.512.448-.832-1.088-1.856-2.624-1.856-3.072 0-3.456.896-1.664-1.28-1.792-3.968.256-4.992 1.152-.576 3.2-.128 4.608 0-.064-1.088-.064-1.984 2.368-1.792 1.984.128 4.352 2.24 6.976 1.664 1.664-.32 2.048-.896 2.496-1.344.256 1.664.064 2.752-.768 3.712-1.344 1.536.832 2.496 2.048 2.496-.128 1.92-2.688 2.624.064 3.264.704.128 2.24 0 1.984 1.024-.064.384-.384.768-.64 1.408 1.152.384 2.496 2.176 3.328 3.008.832-.832 2.24-2.624 3.328-3.008-.192-.64-.512-1.024-.64-1.408-.256-1.024 1.28-.896 1.984-1.024 2.752-.64.192-1.344.064-3.264 1.28 0 3.456-.96 2.112-2.496-.832-.96-1.024-2.048-.832-3.712.512.448.896 1.024 2.56 1.344 2.624.576 4.992-1.536 6.912-1.664 2.432-.192 2.432.704 2.368 1.792 1.408-.128 3.52-.576 4.608 0 2.112 1.024 1.92 3.712.256 4.992-.32-.896-.768-2.752-3.392-.896-1.536 1.024-5.184 2.368-1.088 1.856 2.304-.256 2.24 1.216.768 1.216-1.024 0-2.56 1.152-3.712 1.216-.128.64-.256 1.088-.192 1.408.192.448.576.832.896 1.152-2.368.192-2.048 1.792-.64 2.944-.832.32-1.792.32-2.56.256.256.768.448 1.088 1.216 1.6.896.576.896.256 1.792.768.832.448 1.216.704 1.728 1.28 1.92 2.048 2.24-1.408 5.824-.384 2.304.64 1.792 1.536 3.392 1.536 1.216-.064 1.664-1.024 1.792-2.176.128-1.28-1.344-1.664-3.008-1.92-3.008-.448-1.856-3.712-1.728-4.544.384-2.176 1.792-1.92 3.968-2.112 3.392-.576 9.472-.768 18.112-5.312 1.408-.704 2.24-1.344 3.392-2.432 1.728.64 1.28 2.624 1.28 4.672 10.816-2.304 19.456-6.336 25.856-9.856 2.304 4.288.512 7.552-3.968 9.28-8.832 3.52-12.992 5.184-25.408 7.104 6.272 2.816 16.192.576 24.448-2.56.512 4.16-3.712 6.72-6.912 7.616-7.104 1.856-15.232.448-17.984 0 4.864 5.568 19.712 3.2 22.08 3.008-2.88 10.304-21.312 3.712-24.128 1.536 2.496 4.48 8.96 5.696 13.76 6.656-1.344 2.56-4.8 2.944-7.68 2.048-3.84-1.216-7.296-4.48-8.64-5.952.704 6.016 9.92 9.152 13.376 10.048-.64 2.88-4.608 2.88-7.424 1.536-3.456-1.664-7.36-6.016-9.216-9.088-1.408 3.904 2.816 7.36 4.992 8.128-4.8 2.304-9.28-4.416-9.92-7.552-1.6 4.032 1.344 7.552 3.264 9.728-5.248 1.28-8.32-6.08-8.896-10.112-1.408 1.216-1.28 4.48-1.024 5.44-3.456-1.024-3.136-4.608-3.2-6.144-1.216 1.088-1.088 3.456-.832 4.864-2.944-.96-3.008-3.904-3.136-5.632-.192-.064-.768-.064-.96 0-.768.128-1.024 1.216-1.664 1.984-.832 1.024-1.92 1.792-2.304 3.008-.32.896-.128 1.216.448 2.112 1.92 2.688 7.36.064 9.28 1.92.512.512 1.728.896 1.984 2.816.192.896-.064 1.28-.32 1.792-.512.896-.448.576-1.472 1.024-.896.384-.448.192-.832.896-.384.64-1.6.64-1.728 1.408-.064.384 1.216.384 1.728.448 1.856.256 4.032.832 6.464.448 1.408-.192 1.28-.384 1.088-1.024-.448-1.792 1.728-2.432 3.072-1.728-.64.512-1.152 1.728-.768 2.24.32.448 1.024.32 1.408.192l1.088-.192c1.536-.384.832-.768 1.408-1.664.512-.64 1.216-.384 1.6.32 1.408 2.24-.704 4.544-2.944 4.928-1.792.384-3.968-.064-5.76.32-1.472.256-3.328.896-5.824 1.024-1.728 0-4.288-.128-6.08-.256-2.88-.192-3.456-2.56-3.072-3.84l.192-.512c.832-1.856 1.28-.896 2.368-2.304.064-.128.512-.256-.64-.576-2.368-.704-2.496.192-2.752.576-.256.256-.576.64-.896.896-.704.512-.896.064-1.792.384-1.024.384-1.664.96-1.92-.256-.448-1.728 1.344-1.024.384-2.816-1.28-2.304-4.48-1.088-4.864 1.472-.064.64 1.344.96 1.728 2.368-.128.64-2.56.768-1.664 1.792 2.944 3.264 4.16-2.432 5.056.384.576 1.856-1.792.896-1.664 2.752.064 1.088-.96 2.048-1.92 1.92-.768-.064-.384-.064-.64-.768-.064-.128.768-1.088-.448-2.24-.704-.576-2.56-2.56-3.264-1.984-.768.704 2.368 2.112 1.92 3.52-.192.704-1.088-.448-1.664.192-.256.32-.192 1.088-.448 1.28-.576.448-1.28.064-1.408.384zm11.904-49.792c-.192.384-.384.512.128 1.216 1.152 1.408 3.264.192 3.904-1.024s-.192-1.536-.256-1.536l-2.688.96c-.384.128-.896.064-1.088.384zm-23.808 0c.256.384.384.512-.128 1.216-1.152 1.408-3.2.192-3.84-1.024s.192-1.536.192-1.536l2.688.96c.448.128.96.064 1.088.384z"
        fill="#313031" />
    <g transform="matrix(.064 0 0 .064 116.69 46.199)">
        <path
            d="M861.44 6090.4c-18.033-5.537-43.769-17.001-57.192-25.475-29.338-18.52-71.628-64.087-77.942-83.982-2.858-9.006-22.304-23.299-52.138-38.323-56.92-28.665-105.14-75.922-129.06-126.47-16.41-34.688-24.873-96.518-24.723-145.82.146-48.066 8.16-108.85 24.967-142.02 23.979-47.32 82.432-106.88 125.67-128.05 54.521-26.696 91.763-33.631 164.85-30.696 58.738 2.36 71.358 5.222 112.68 25.565 144.32 71.042 205.93 242.44 144.89 403.09-25.678 67.58-95.932 138.39-151.02 152.22-9.93 2.492-19.399 6.706-21.041 9.363-5.328 8.622 25.958 46.166 53.209 63.853 23.131 15.012 33.828 17.24 82.817 17.24h56.256l-2.128 18.29c-1.828 15.712-7.338 19.918-39.11 29.847-47.592 14.873-164.54 15.634-210.98 1.374zm5.89-179.27c85.333-48.293 113.87-288.06 49.944-419.7-23.574-48.549-49.314-69.61-90.79-74.284-36.676-4.134-64.347 6.875-89.616 35.655-74.698 85.076-77.9 342.39-5.357 430.4 36.699 44.522 87.902 55.052 135.82 27.934zm2315.6 52.402c-47.325-15.199-93.794-49.807-116.6-86.84l-20.368-33.07-3.362-197.84-3.362-197.84-15.874-12.842c-8.73-7.063-22.9-12.842-31.486-12.842-18.555 0-28.353-22.723-16.142-37.436 6.845-8.248 31.837-9.593 150.17-8.082l141.96 1.812v20.058c0 18.03-2.595 20.48-25.672 24.23-48.038 7.809-48.032 7.787-50.487 186.24-2.516 182.86.683 220.85 21.15 251.22 46.011 68.277 165.17 64.046 205.26-7.287 22.193-39.487 29.312-109.2 26.838-262.84-2.56-159.02-3.076-160.61-54.042-167.44-30.708-4.111-40.76-19.138-25.28-37.79 11.783-14.198 182.68-14.197 194.46 0 12.397 14.938 2.208 37.305-16.996 37.305-8.996 0-22.409 6.052-29.806 13.448-12.559 12.56-13.452 22.451-13.499 149.61-.06 159.88-7.252 233.7-27.316 280.34-16.29 37.866-53.554 75.14-91.836 91.858-35.856 15.66-156.27 19.322-197.7 6.015zm943.43-1.255c-3.549-6.693-52.556-121.1-108.9-254.24-56.348-133.14-108.29-250.35-115.43-260.47-7.136-10.12-22.633-20.886-34.436-23.923-16.465-4.236-21.95-9.68-23.565-23.39-2.907-24.679 5.196-25.849 163.48-23.605l134.48 1.906v20.172c0 16.533-3.033 20.512-16.81 22.055-40.215 4.504-47.069 8.206-47.069 25.426 0 13.169 108.32 288.34 116.87 296.89 4.484 4.484 111.75-279.63 111.75-295.99 0-18.222-6.33-21.763-47.069-26.325-13.777-1.543-16.81-5.523-16.81-22.056v-20.171h188.28l2.107 21.853c1.688 17.504-.356 21.853-10.27 21.853-18.116 0-40.763 17.954-53.525 42.434-6.149 11.795-54.16 130.38-106.69 263.51-88.84 225.16-96.712 242.21-112.72 244.15-11.269 1.364-19.443-2.12-23.668-10.086zm1093.5-1.197c-52.7-17.43-91.95-41.622-124.08-76.482-56.679-61.49-83.055-129.27-82.924-213.08.142-90.122 24.87-153.1 84.781-215.91 62.31-65.326 130.99-90.296 236.69-86.051 58.738 2.359 71.358 5.222 112.68 25.565 120.13 59.133 185.59 188.18 164.47 324.26-15.899 102.47-74.885 182.28-167.07 226.06-45.193 21.462-56.589 23.974-118.11 26.035-53.287 1.785-76.43-.476-106.44-10.4zm145.93-49.95c85.333-48.293 113.87-288.06 49.944-419.7-23.574-48.55-49.314-69.61-90.79-74.284-36.676-4.134-64.347 6.875-89.616 35.655-74.698 85.076-77.9 342.39-5.357 430.4 36.699 44.522 87.902 55.052 135.82 27.934zm-4226.1 29.426c0-16.378 3.369-20.378 20.29-24.094 13.493-2.964 23.984-11.588 31.323-25.75 6.07-11.711 57.143-134.76 113.5-273.45 99.767-245.52 102.97-252.21 121.86-254.15 19.386-1.996 19.463-1.848 116.1 221.9 145.82 337.62 137.17 320.23 165.27 331.98 18.91 7.9 23.781 13.4 22.133 24.989-2.105 14.802-2.66 14.858-146.68 14.858h-144.57v-16.696c0-13.9 3.98-17.343 23.763-20.56 13.07-2.124 27.776-6.342 32.681-9.373 11.186-6.913 6.772-36.248-11.986-79.644l-13.89-32.136-177.79 3.754-17.116 48.464c-19.602 55.501-17.314 61.496 25.675 67.262 25.16 3.375 27.711 5.492 27.711 23.004v19.287h-188.28zm277.62-271.18c-17.08-41.606-33.159-78.102-35.73-81.102-2.573-3.001-12.363 15.154-21.755 40.345-9.392 25.19-23.384 61.686-31.092 81.102l-14.016 35.302h133.65zm320.83 271.51c0-17.224 2.815-19.763 26.023-23.474 45.536-7.282 44.58-1.964 44.58-247.98v-221.46l-15.874-12.854c-8.73-7.07-24.808-12.854-35.728-12.854-18.348 0-19.694-1.657-17.746-21.853l2.107-21.853 174.83.039c209.76.048 248.18 6.933 296.08 53.068 43.508 41.907 55.965 107.5 30.78 162.06-15.278 33.1-37.432 54.049-77.669 73.44l-30.842 14.866 79.101 113.36c55.31 79.264 84.663 115.47 97.593 120.38 14.056 5.336 18.491 11.505 18.491 25.718v18.698l-184.91-.02-87.297-128.32c-48.014-70.576-89.91-129.93-93.104-131.91-3.197-1.977-4.76 40.118-3.478 93.688 2.616 109.3 5.599 117.17 46.909 123.77 23.209 3.71 26.023 6.25 26.023 23.474v19.313h-295.86v-19.313zm306.46-302.74c35.321-16.042 49.921-45.747 49.921-101.57 0-73.991-28.168-107.59-90.205-107.59-23.13 0-32.013 3.096-37.317 13.006-3.884 7.258-6.96 56.293-6.96 110.95v97.942l28.577-.148c15.718-.082 40.91-5.749 55.984-12.595zm301.14 311.97c-6.916-18.025 2.603-28.27 30.401-32.715 16.862-2.697 29.906-9.303 34.197-17.32 4.356-8.14 6.937-93.943 6.937-230.65 0-242.12.524-239.2-44.256-246.44-21.09-3.41-26.8-7.444-28.616-20.218-1.248-8.778 1.777-18.525 6.724-21.66 4.946-3.135 69.897-5.747 144.33-5.804 144.67-.11 156.87 2.642 147.18 33.195-3.096 9.754-10.122 13.771-24.09 13.771-10.846 0-25.771 6.052-33.168 13.448-12.22 12.22-13.423 22.208-13.177 109.27l.271 95.82 94.222-96.534c57.81-59.227 93.411-100.8 92.125-107.59-1.452-7.653-11.384-12.086-32.295-14.415-28.324-3.153-30.198-4.614-30.198-23.534v-20.172l110.95-1.92c133.18-2.304 142.82-.686 139.95 23.515-1.87 15.78-6.345 18.607-40.07 25.306-20.88 4.149-50.953 16.137-66.828 26.642-28.547 18.892-154.09 136.47-154.08 144.3.01 2.23 55.315 72.137 122.91 155.35 80.252 98.79 130.37 154.79 144.42 161.38 16.458 7.717 21.545 14.43 21.656 28.578l.146 18.491h-295.86v-19.786c0-18.406 1.955-19.93 28.055-21.853 15.43-1.137 29.186-5.51 30.568-9.718 2.84-8.651-150.37-204.16-159.99-204.16-3.502 0-6.218 39.789-6.218 91.08 0 87.739.606 91.688 16.505 107.59 9.077 9.078 24.003 16.506 33.168 16.506 16.976 0 29.41 19.9 20.968 33.56-2.61 4.222-58.72 6.784-148.58 6.784-122.14 0-144.98-1.554-148.25-10.086zm2115.7-9.227c0-17.319 2.766-19.755 26.781-23.596 48.036-7.681 47.987-7.41 45.774-251.95-2.161-238.86-1.043-233.04-46.596-242.36-19.514-3.991-22.597-7.336-22.597-24.518v-19.897l137.84-1.904c162.34-2.243 169.75-1.178 166.85 23.992-1.84 15.966-5.722 18.74-30.927 22.104-53.698 7.166-51.868-1.622-51.868 249.09 0 255.5-3.766 241.29 63.944 241.29 88.094 0 148-38.723 185.9-120.16 16.588-35.644 21.563-41.087 37.608-41.147 23.09-.088 23.1.58 1.681 114.24-9.245 49.066-16.81 90.319-16.81 91.674s-111.96 2.463-248.79 2.463h-248.79zm1176.7 0c0-17.224 2.815-19.763 26.023-23.474 45.536-7.281 44.58-1.964 44.58-247.98v-221.46l-15.874-12.854c-8.73-7.07-24.808-12.854-35.728-12.854-18.348 0-19.694-1.657-17.746-21.853l2.107-21.853 174.83.039c209.77.048 248.18 6.934 296.08 53.068 43.507 41.907 55.964 107.5 30.78 162.06-15.278 33.1-37.432 54.049-77.669 73.441l-30.841 14.865 78.937 113.02c47.758 68.378 85.64 115.95 95.912 120.45 9.336 4.088 19.198 10.521 21.915 14.294 3.247 4.51 4.975 4.275 5.043-.685.054-4.15 12.388-9.51 27.403-11.91 45.987-7.355 47.722-17.283 45.34-259.53-1.894-192.62-2.933-208.11-14.846-221.26-8.054-8.894-20.991-14.144-34.848-14.144-16.306 0-23.176-3.582-26.41-13.77-10.47-32.985-5.618-33.597 251.47-31.702l239.49 1.765 1.87 92.457 1.871 92.457h-16.523c-14.217 0-18.005-5.098-27.144-36.536-14.53-49.983-37.427-75.264-79.472-87.75-41.33-12.274-126.68-13.589-138.14-2.128-5.53 5.53-8.069 38.593-8.069 105.08v97.014l28.578-4.561c49.454-7.894 72.625-32.443 84.375-89.396 4.355-21.106 8.372-25.798 23.605-27.574l18.357-2.14-1.81 150.07-1.811 150.07h-16.28c-14.377 0-17.337-4.666-25.356-39.971-12.762-56.194-42.78-84.425-89.768-84.425h-21.123l2.297 99.843c1.656 71.937 4.877 102.95 11.526 110.95 7.015 8.44 20.841 11.105 57.638 11.105 88.931 0 144.64-32.333 184.47-107.07 21.456-40.255 33.154-47.852 53.667-34.856 8.873 5.621.622 56.078-26.788 163.8l-6.42 25.235-688.84-.328-87.224-128.18c-47.973-70.501-89.837-129.8-93.031-131.77-3.198-1.977-4.761 40.118-3.48 93.688 2.617 109.3 5.6 117.17 46.91 123.77 23.209 3.71 26.023 6.25 26.023 23.474v19.313h-295.86v-19.313zm306.46-302.74c35.321-16.042 49.921-45.747 49.921-101.57 0-73.991-28.168-107.59-90.205-107.59-23.13 0-32.013 3.096-37.317 13.006-3.884 7.258-6.96 56.293-6.96 110.95v97.942l28.578-.148c15.718-.082 40.91-5.749 55.984-12.595z" />
        <circle cx="6427.1" cy="5288.2" r="62.5" />
        <circle cx="6593.6" cy="5288.2" r="62.5" />
    </g>
</svg>