<svg xmlns="http://www.w3.org/2000/svg" width="700" height="500"><path fill="red" d="M0 0h700v500H0z"/><path d="M309.262 125.288c-3.968-.067-10.553 1.265-10.406 4.311-11.053-1.894-12.204 2.67-11.554 6.734 1.05-1.613 2.331-2.488 3.315-2.653 1.474-.245 3.017.231 4.591 1.198 1.575.968 3.31 2.529 4.081 3.495-3.901.932-6.914.33-9.972-.205-1.509-.263-3.619-1.111-4.873-1.989-1.254-.878-1.649-1.704-3.622-3.724-2.326-2.382-4.8-1.71-4.03 1.99 1.784 3.436 4.764 4.969 8.52 5.586 1.807.296 4.499.94 7.55.944s6.477-.441 8.341-.052c-1.12.704-2.387 1.916-4.897 2.398-2.554.49-6.435-1.518-8.8-2.066.3 1.99 2.81 3.851 7.754 4.82 8.122 1.77 14.87 3.114 19.333 5.536 4.462 2.422 7.276 5.454 9.285 7.83 3.998 4.729 4.209 8.358 4.464 9.157.822 7.554-1.812 11.804-6.71 13.11-2.448.653-6.796-.577-8.39-2.448-1.595-1.872-3.146-5.088-2.704-10.126.43-1.976 2.69-7.124.765-8.188-8.865-4.9-19.63-9.855-27.42-12.804-2.128-.806-3.882 2.088-4.565 3.214-13.231-1.611-25.161-10.565-30.532-20.1-3.656-6.493-9.685.014-8.672 6.148 1.636 6.846 6.852 11.796 13.11 15.304 6.424 3.536 14.453 7.017 22.574 6.835 4.375.828 4.332 6.49-.918 7.55-10.268.066-18.46-.19-26.196-7.652-5.866-5.356-9.17 1.026-7.473 4.643 2.874 11.148 18.778 14.27 34.868 10.661 6.23-1.031 2.499 5.644.74 5.714-6.724 4.82-18.76 9.536-29.36-.05-4.85-3.715-8.129-.593-6.325 4.768 4.703 13.98 22.694 11.044 35.047 4.158 3.179-1.772 6.064 2.35 2.193 5.484-15.361 10.733-23.042 10.856-29.97 6.734-8.674-3.42-9.438 6.2-4.285 9.361 5.726 3.513 20.3.88 30.99-5.842 4.584-3.406 4.791 1.92 1.888 4.03-12.687 10.965-17.688 13.852-30.914 12.065-6.558-.51-6.46 7.575-1.301 10.738 7.044 4.32 20.8-2.85 31.475-11.707 4.494-2.4 5.231 1.537 3.01 6.198-6.523 8.23-12.646 13.082-18.544 15.33-5.897 2.247-11.57 1.889-15.584.51-4.897-1.683-5.511 3.406-2.806 8.034 1.631 2.789 8.39 3.684 15.687 1.097 7.296-2.587 15.13-8.654 20.507-15.763 4.68-4.097 4.098 1.407 1.964 5.28-10.769 17.024-20.619 23.34-33.592 22.267-5.753-.977-7.058 3.496-3.392 7.626 6.437 5.338 14.487 5.172 21.527-.102 6.26-6.035 18.233-19.029 24.511-25.991 4.426-3.528 5.84-.05 4.54 7.116-1.18 4.104-4.136 8.426-12.19 11.58-5.504 3.14-1.372 7.47 2.754 7.55 2.27.044 6.88-2.61 10.407-6.58 4.639-5.224 4.915-8.732 7.473-16.86 2.417-3.963 6.733-2.113 6.733 2.04-2.07 8.142-3.849 9.602-8.034 12.932-4.003 3.758 2.788 5.011 5.077 3.469 6.619-4.463 9.035-10.234 11.247-15.483 1.596-3.788 6.228-1.952 4.08 4.234-5.13 14.784-13.56 20.606-28.31 23.594-1.496.266-2.408 1.148-1.889 2.882 1.98 2.055 3.964 3.92 5.944 5.969-9.121 2.656-16.532 4.148-25.66 6.81-4.479-2.936-8.097-5.427-12.575-8.366-1.18-2.76-1.732-6.974-8.34-4.004-4.48-2.068-6.545-1.31-9.03.765 3.588.133 5.148 1.094 6.555 2.729 1.837 4.837 6.071 5.305 10.407 3.928 2.82 2.376 4.322 4.198 7.142 6.58-5.265-.179-8.931-.273-14.182-.432-5.012-5.382-9.012-5.087-12.6-.868-2.735.42-3.894.479-5.764 3.8 2.942-1.207 4.793-1.569 6.07-.254 5.329 3.09 8.81 2.4 11.453 0 5.14.314 9.773.58 14.92.918-1.89 1.607-4.485 2.46-6.376 4.081-7.721-2.21-11.752.764-13.11 7.065-1.035 2.544-1.52 5.161-1.072 7.882.748-2.488 1.95-4.628 4.158-5.968 6.882 1.747 9.47-1.061 9.845-5.178 3.318-2.707 8.32-3.304 11.631-6.045 3.871 1.239 5.743 2.007 9.642 3.239 1.386 4.212 4.523 5.88 9.616 4.795 6.063.19 4.993 2.678 5.484 4.668 1.611-2.858 1.566-5.637-2.168-8.162-1.359-3.691-4.37-5.37-8.315-3.24-3.714-1.055-4.691-2.57-8.392-3.622 9.36-2.983 16-3.654 25.353-6.631 2.342 2.208 4.197 3.794 6.556 5.764 1.243.743 2.432.929 3.163 0 5.86-8.483 8.479-15.959 13.926-21.553 2.081-2.314 4.711-5.437 7.627-6.198 1.457-.38 3.245-.148 4.387 1.097 1.142 1.245 2.038 3.54 1.658 6.963-.546 4.914-1.733 6.466-3.112 9.412-1.38 2.947-3.064 4.759-4.795 7.014-3.464 4.512-8.034 7.139-10.738 8.902-5.41 3.527-7.698 1.984-11.887 1.76-5.414.607-6.853 3.244-2.423 6.887 4.142 2.154 7.866 2.421 10.892 1.862 2.598-.48 5.638-3.834 7.805-5.637 2.438-2.817 6.48.524 3.723 3.8-5.011 5.954-10.018 9.88-16.196 9.795-6.493.874-5.278 4.522-.97 6.3 7.756 3.2 14.758-2.794 18.314-6.734 2.745-3.002 4.693-3.12 4.21 1.53-2.725 8.419-6.449 11.67-12.525 12.09-4.929-.456-4.982 3.347-1.377 5.918 8.21 5.684 14.158-3.995 16.936-9.846 1.98-5.276 5.016-2.767 5.331 1.582.041 5.812-2.584 10.555-9.616 16.503 5.38 8.571 11.652 17.29 17.038 25.889l16.329-181.86L350 164.125c-1.7-1.57-7.45-8.344-8.952-9.285-.548-.585-.881-.999-.077-1.3.78-.292 2.6-.619 3.827-.842-3.463-3.468-6.43-4.58-12.984-6.478 1.598-.68 3.15-.284 7.856-.51-1.868-2.652-6.04-6.713-11.427-8.673 3.558-2.528 4.251-2.698 7.78-5.662-6.11-.433-11.33-1.598-16.58-3.189-3.319-1.551-7.93-2.87-10.176-2.907zm.588 7.117c3.228 0 5.228 1.106 5.228 2.448 0 1.365-2 2.474-5.229 2.474-3.216 0-5.254-1.21-5.254-2.576 0-1.342 2.038-2.347 5.254-2.347z"/><path d="M390.737 125.288c3.968-.067 10.553 1.265 10.406 4.311 11.053-1.894 12.204 2.67 11.554 6.734-1.05-1.613-2.331-2.488-3.315-2.653-1.474-.245-3.017.231-4.591 1.198-1.575.968-3.31 2.529-4.081 3.495 3.901.932 6.914.33 9.972-.205 1.509-.263 3.619-1.111 4.873-1.989 1.254-.878 1.649-1.704 3.622-3.724 2.326-2.382 4.8-1.71 4.03 1.99-1.784 3.436-4.764 4.969-8.52 5.586-1.807.296-4.499.94-7.55.944s-6.477-.441-8.341-.052c1.12.704 2.387 1.916 4.897 2.398 2.554.49 6.435-1.518 8.8-2.066-.3 1.99-2.81 3.851-7.754 4.82-8.122 1.77-14.87 3.114-19.333 5.536-4.462 2.422-7.276 5.454-9.285 7.83-3.998 4.729-4.209 8.358-4.464 9.157-.822 7.554 1.812 11.804 6.71 13.11 2.448.653 6.796-.577 8.39-2.448 1.595-1.872 3.146-5.088 2.704-10.126-.43-1.976-2.69-7.124-.765-8.188 8.865-4.9 19.63-9.855 27.42-12.804 2.128-.806 3.882 2.088 4.565 3.214 13.231-1.611 25.161-10.565 30.532-20.1 3.656-6.493 9.685.014 8.672 6.148-1.636 6.846-6.852 11.796-13.11 15.304-6.424 3.536-14.453 7.017-22.574 6.835-4.375.828-4.332 6.49.918 7.55 10.268.066 18.46-.19 26.196-7.652 5.866-5.356 9.17 1.026 7.473 4.643-2.874 11.148-18.778 14.27-34.868 10.661-6.23-1.031-2.499 5.644-.74 5.714 6.724 4.82 18.76 9.536 29.36-.05 4.85-3.715 8.129-.593 6.325 4.768-4.703 13.98-22.694 11.044-35.047 4.158-3.179-1.772-6.064 2.35-2.193 5.484 15.361 10.733 23.042 10.856 29.97 6.734 8.674-3.42 9.438 6.2 4.285 9.361-5.726 3.513-20.3.88-30.99-5.842-4.584-3.406-4.791 1.92-1.888 4.03 12.687 10.965 17.688 13.852 30.914 12.065 6.558-.51 6.46 7.575 1.301 10.738-7.044 4.32-20.8-2.85-31.475-11.707-4.494-2.4-5.231 1.537-3.01 6.198 6.523 8.23 12.646 13.082 18.544 15.33 5.897 2.247 11.57 1.889 15.584.51 4.897-1.683 5.511 3.406 2.806 8.034-1.631 2.789-8.39 3.684-15.687 1.097-7.296-2.587-15.13-8.654-20.507-15.763-4.68-4.097-4.098 1.407-1.964 5.28 10.769 17.024 20.619 23.34 33.592 22.267 5.753-.977 7.058 3.496 3.392 7.626-6.437 5.338-14.487 5.172-21.527-.102-6.26-6.035-18.233-19.029-24.511-25.991-4.426-3.528-5.84-.05-4.54 7.116 1.18 4.104 4.136 8.426 12.19 11.58 5.504 3.14 1.372 7.47-2.754 7.55-2.27.044-6.88-2.61-10.407-6.58-4.639-5.224-4.915-8.732-7.473-16.86-2.417-3.963-6.733-2.113-6.733 2.04 2.07 8.142 3.849 9.602 8.034 12.932 4.003 3.758-2.788 5.011-5.077 3.469-6.619-4.463-9.035-10.234-11.247-15.483-1.596-3.788-6.228-1.952-4.08 4.234 5.13 14.784 13.56 20.606 28.31 23.594 1.496.266 2.408 1.148 1.889 2.882-1.98 2.055-3.964 3.92-5.944 5.969 9.121 2.656 16.532 4.148 25.66 6.81 4.479-2.936 8.097-5.427 12.575-8.366 1.18-2.76 1.732-6.974 8.34-4.004 4.48-2.068 6.545-1.31 9.03.765-3.588.133-5.148 1.094-6.555 2.729-1.837 4.837-6.071 5.305-10.407 3.928-2.82 2.376-4.322 4.198-7.142 6.58 5.265-.179 8.932-.273 14.182-.432 5.012-5.382 9.012-5.087 12.6-.868 2.735.42 3.894.479 5.764 3.8-2.942-1.207-4.793-1.569-6.07-.254-5.329 3.09-8.81 2.4-11.453 0-5.14.314-9.773.58-14.92.918 1.89 1.607 4.485 2.46 6.376 4.081 7.721-2.21 11.752.764 13.11 7.065 1.035 2.544 1.52 5.161 1.072 7.882-.748-2.488-1.95-4.628-4.158-5.968-6.882 1.747-9.47-1.061-9.845-5.178-3.318-2.707-8.32-3.304-11.631-6.045-3.871 1.239-5.743 2.007-9.642 3.239-1.386 4.212-4.523 5.88-9.616 4.795-6.063.19-4.993 2.678-5.484 4.668-1.611-2.858-1.566-5.637 2.168-8.162 1.359-3.691 4.37-5.37 8.315-3.24 3.714-1.055 4.691-2.57 8.392-3.622-9.36-2.983-16-3.654-25.353-6.631-2.342 2.208-4.197 3.794-6.556 5.764-1.242.743-2.432.929-3.163 0-5.86-8.483-8.479-15.959-13.926-21.553-2.081-2.314-4.711-5.437-7.627-6.198-1.457-.38-3.245-.148-4.387 1.097-1.142 1.245-2.038 3.54-1.658 6.963.546 4.914 1.733 6.466 3.112 9.412 1.38 2.947 3.064 4.759 4.795 7.014 3.464 4.512 8.034 7.139 10.738 8.902 5.41 3.527 7.698 1.984 11.887 1.76 5.414.607 6.853 3.244 2.423 6.887-4.142 2.154-7.866 2.421-10.892 1.862-2.598-.48-5.638-3.834-7.805-5.637-2.438-2.817-6.48.524-3.723 3.8 5.011 5.954 10.018 9.88 16.196 9.795 6.493.874 5.278 4.522.97 6.3-7.756 3.2-14.758-2.794-18.314-6.734-2.745-3.002-4.693-3.12-4.21 1.53 2.725 8.419 6.449 11.67 12.525 12.09 4.929-.456 4.982 3.347 1.377 5.918-8.21 5.684-14.158-3.995-16.936-9.846-1.98-5.276-5.016-2.767-5.331 1.582-.041 5.812 2.584 10.555 9.616 16.503-5.38 8.571-11.652 17.29-17.038 25.889l-16.329-181.86L350 164.125c1.7-1.57 7.45-8.344 8.952-9.285.548-.585.881-.999.077-1.3-.78-.292-2.6-.619-3.827-.842 3.463-3.468 6.43-4.58 12.984-6.478-1.598-.68-3.15-.284-7.856-.51 1.868-2.652 6.04-6.713 11.427-8.673-3.558-2.528-4.251-2.698-7.78-5.662 6.11-.433 11.33-1.598 16.58-3.189 3.319-1.551 7.93-2.87 10.176-2.907zm-.588 7.117c-3.228 0-5.228 1.106-5.228 2.448 0 1.365 2 2.474 5.229 2.474 3.216 0 5.254-1.21 5.254-2.576 0-1.342-2.038-2.347-5.254-2.347z"/></svg>