<svg xmlns="http://www.w3.org/2000/svg" width="18" height="12">
    <rect width="18" height="12" fill="#FFF"/>
    <rect width="4" height="12" x="7" fill="LAB(37.84353857098539 56.635195264436724 32.42622123382278)"/>
    <rect width="18" height="4" y="4" fill="LAB(30.878837454107554 12.397898227664793 -42.1308245430155)"/>
    <polygon points="9,4.1432371 9.293892626146237,5.047745597187474 8.524471741852423,4.488728602812527 9.475528258147577,4.488728602812527 8.706107373853763,5.047745597187474" fill="#FFF"/>
    <polygon points="6.1468306,5.1797113 6.440723226146237,6.084219797187473 5.6713023418524235,5.525202802812527 6.622358858147577,5.525202802812526 5.852937973853764,6.084219797187474" fill="#FFF"/>
    <polygon points="11.853169,5.1797118 12.147061626146236,6.084220297187473 11.377640741852423,5.5252033028125265 12.328697258147576,5.5252033028125265 11.559276373853763,6.084220297187473" fill="#FFF"/>
    <polygon points="7.2366433,6.8567624 7.530535926146237,7.761270897187473 6.761115041852423,7.202253902812527 7.712171558147577,7.202253902812526 6.942750673853763,7.761270897187474" fill="#FFF"/>
    <polygon points="10.763355,6.8567629 11.057247626146237,7.761271397187473 10.287826741852424,7.202254402812526 11.238883258147577,7.202254402812526 10.469462373853764,7.761271397187473" fill="#FFF"/>
</svg>