<svg width="120" height="60" xmlns="http://www.w3.org/2000/svg">
    <rect width="60" height="30" fill="#232D62" />
    <line x1="0" y1="0" x2="60" y2="30" stroke="#FFF" stroke-width="6" />
    <line x1="0" y1="30" x2="60" y2="0" stroke="#FFF" stroke-width="6" />
    <line x1="-6" y1="-2" x2="30" y2="16" stroke="#E51B2D" stroke-width="2" />
    <line x1="30" y1="14" x2="60" y2="-1" stroke="#E51B2D" stroke-width="2" />
    <line x1="0" y1="31" x2="30" y2="16" stroke="#E51B2D" stroke-width="2" />
    <line x1="30" y1="14" x2="66" y2="32" stroke="#E51B2D" stroke-width="2" />
    <rect width="60" height="10" fill="#FFF" y="10" />
    <rect width="10" height="30" fill="#FFF" x="25" />
    <rect width="60" height="6" fill="#E51B2D" y="12" />
    <rect width="6" height="30" fill="#E51B2D" x="27" />
    <polygon points="60,0 120,0 120,60 0,60 0,30 60,30" fill="#232D62" />
    <polygon
        points="30,36 31.735534956470232,41.396124528390324 37.036483342212264,39.388591783271394 33.8997116487273,44.10991626417474 38.774351209636414,47.00268840560683 33.12732592987212,47.49395920743493 33.904953652058026,53.10871981112177 30,49 26.095046347941977,53.10871981112177 26.872674070127882,47.49395920743493 21.225648790363586,47.00268840560683 26.100288351272706,44.10991626417474 22.96351665778773,39.3885917832714 28.264465043529768,41.396124528390324"
        fill="#FFF" />
    <polygon
        points="90,5.71428571429 90.82644521736596,8.283868823044727 93.35070635343106,7.327900849179528 91.85700554701114,9.576150601988397 94.17826248077506,10.953661145526107 91.48920282374714,11.187599622586877 91.8595017390734,13.861295148149363 90,11.90476190476 88.1404982609266,13.861295148149363 88.51079717625286,11.187599622586877 85.82173751922494,10.953661145526109 88.14299445298886,9.576150601988397 86.64929364656894,7.327900849179529 89.17355478263404,8.283868823044727"
        fill="#FFF" />
    <polygon
        points="75,21.96428571429 75.82644521736596,24.533868823044727 78.35070635343106,23.577900849179528 76.85700554701114,25.826150601988395 79.17826248077506,27.20366114552611 76.48920282374714,27.437599622586877 76.8595017390734,30.111295148149363 75,28.15476190476 73.1404982609266,30.111295148149363 73.51079717625286,27.437599622586877 70.82173751922494,27.20366114552611 73.14299445298886,25.826150601988395 71.64929364656894,23.577900849179528 74.17355478263404,24.533868823044727"
        fill="#FFF" />
    <polygon
        points="103.33333333333333,17.96428571429 104.15977855069929,20.533868823044727 106.6840396867644,19.577900849179528 105.19033888034447,21.826150601988395 107.51159581410839,23.20366114552611 104.82253615708046,23.437599622586877 105.19283507240672,26.111295148149363 103.33333333333333,24.15476190476 101.47383159425993,26.111295148149363 101.8441305095862,23.437599622586877 99.15507085255827,23.20366114552611 101.47632778632219,21.826150601988395 99.98262697990226,19.577900849179528 102.50688811596737,20.533868823044727"
        fill="#FFF" />
    <polygon
        points="96,30 96.65309472476942,31.601092228472282 98.37764129073788,31.727457514062632 97.05672946255017,32.84335221597216 97.46946313073119,34.522542485937365 96,33.611111111111114 94.53053686926881,34.52254248593737 94.94327053744983,32.84335221597216 93.62235870926212,31.727457514062632 95.34690527523058,31.601092228472282"
        fill="#FFF" />
    <polygon
        points="90,45.71428571429 90.82644521736596,48.28386882304473 93.35070635343106,47.32790084917953 91.85700554701114,49.576150601988395 94.17826248077506,50.953661145526105 91.48920282374714,51.18759962258687 91.8595017390734,53.86129514814937 90,51.90476190476 88.1404982609266,53.86129514814937 88.51079717625286,51.18759962258687 85.82173751922494,50.95366114552611 88.14299445298886,49.576150601988395 86.64929364656894,47.32790084917953 89.17355478263404,48.28386882304473"
        fill="#FFF" />
</svg>