<svg xmlns:xlink="http://www.w3.org/1999/xlink" width="120" height="60" xmlns="http://www.w3.org/2000/svg">
    <rect width="60" height="30" fill="#232D62"/>
    <line x1="0" y1="0" x2="60" y2="30" stroke="#FFF" stroke-width="6"/>
    <line x1="0" y1="30" x2="60" y2="0" stroke="#FFF" stroke-width="6"/>
    <polygon
            points="0,0 30,15 28.5857864376269049511983112757903019214303281246230519268233202620,16.4142135623730950488016887242096980785696718753769480731766797379 -1.4142135623730950488016887242096980785696718753769480731766797379,1.4142135623730950488016887242096980785696718753769480731766797379"
            fill="#E51B2D"/>
    <polygon
            points="60,0 30,15 28.5857864376269049511983112757903019214303281246230519268233202620,13.5857864376269049511983112757903019214303281246230519268233202620 58.5857864376269049511983112757903019214303281246230519268233202620,-1.4142135623730950488016887242096980785696718753769480731766797379"
            fill="#E51B2D"/>
    <polygon
            points="0,30 30,15 31.4142135623730950488016887242096980785696718753769480731766797379,16.4142135623730950488016887242096980785696718753769480731766797379 1.4142135623730950488016887242096980785696718753769480731766797379,31.4142135623730950488016887242096980785696718753769480731766797379"
            fill="#E51B2D"/>
    <polygon
            points="60,30 30,15 31.4142135623730950488016887242096980785696718753769480731766797379,13.5857864376269049511983112757903019214303281246230519268233202620 61.4142135623730950488016887242096980785696718753769480731766797379,28.5857864376269049511983112757903019214303281246230519268233202620"
            fill="#E51B2D"/>
    <rect width="60" height="10" fill="#FFF" y="10"/>
    <rect width="10" height="30" fill="#FFF" x="25"/>
    <rect width="60" height="6" fill="#E51B2D" y="12"/>
    <rect width="6" height="30" fill="#E51B2D" x="27"/>
    <polygon points="60,0 120,0 120,60 0,60 0,30 60,30" fill="#232D62"/>
    <polygon
            points="30,36 31.735534956470232,41.396124528390324 37.036483342212264,39.388591783271394 33.8997116487273,44.10991626417474 38.774351209636414,47.00268840560683 33.12732592987212,47.49395920743493 33.904953652058026,53.10871981112177 30,49 26.095046347941977,53.10871981112177 26.872674070127882,47.49395920743493 21.225648790363586,47.00268840560683 26.100288351272706,44.10991626417474 22.96351665778773,39.3885917832714 28.264465043529768,41.396124528390324"
            fill="#FFF"/>
    <polygon id="s"
             points="90,5.71428571429 90.82644521736596,8.283868823044727 93.35070635343106,7.327900849179528 91.85700554701114,9.576150601988397 94.17826248077506,10.953661145526107 91.48920282374714,11.187599622586877 91.8595017390734,13.861295148149363 90,11.90476190476 88.1404982609266,13.861295148149363 88.51079717625286,11.187599622586877 85.82173751922494,10.953661145526109 88.14299445298886,9.576150601988397 86.64929364656894,7.327900849179529 89.17355478263404,8.283868823044727"
             fill="#FFF"/>
    <use xlink:href="#s" x="-15" y="16.25"/>
    <use xlink:href="#s" x="13.33333333333333" y="12.25"/>
    <use xlink:href="#s" y="40"/>
    <polygon
            points="96,30 96.65309472476942,31.601092228472282 98.37764129073788,31.727457514062632 97.05672946255017,32.84335221597216 97.46946313073119,34.522542485937365 96,33.611111111111114 94.53053686926881,34.52254248593737 94.94327053744983,32.84335221597216 93.62235870926212,31.727457514062632 95.34690527523058,31.601092228472282"
            fill="#FFF"/>
</svg>