<svg width="1014.4106" height="520.00532" xmlns="http://www.w3.org/2000/svg">
    <rect width="1014.4106" height="520.00532" fill="#232D62"/>
    <path
            d="m 0.09114586,230.80266 v -56.4 H 111.78226 Z M 513.60665,0 H 458.17999 L 300.97866,79.201331 V 0 H 212.80133 V 79.201331 L 55.600532,0 H 0 V 31.599999 L 111.6016,88.001331 H 0 V 262.40266 H 56.444265 L 212.98399,183.536 v 78.86666 h 87.816 V 183.54 l 156.52933,78.86266 h 56.27733 V 230.64133 L 402.33466,174.40666 H 513.60665 V 88.001331 H 402.17999 L 513.60665,31.689332 V 0"
            style="fill:#FFF"/>
    <path d="M 478.57999,0 308.57866,88.001331 h 32.88666 L 514.00399,0 v 0 h -35.424" style="fill:#E51B2D"/>
    <path
            d="m 229.60133,0 h 55.20133 v 106.39866 l 228.92266,0.003 -0.12133,50.4 -228.80133,0.005 v 105.596 h -55.20133 v -105.596 L 0,156.80133 v -50.4 l 229.60133,-0.003 V 0"
            style="fill:#E51B2D"/>
    <path
            d="m 330.85333,407.91892 -46.56934,5.5036 4.64934,46.65733 -33.33734,-32.97039 -33.57866,32.72506 4.99333,-46.6224 -46.52133,-5.85373 39.56266,-25.1624 -24.42933,-40.02133 44.34,15.24533 16.05733,-44.056 15.728,44.17333 44.45334,-14.91333 -24.72934,39.83733 z"
            style="fill:#FFF;stroke:#FFF;stroke-width:1.13333"/>
    <path
            d="m 814.56665,447.10372 -24.07867,3.0604 2.61867,24.12667 -17.404,-16.91614 -17.23334,17.08947 2.37467,-24.1536 -24.10533,-2.81613 20.36533,-13.2052 -12.82667,-20.60267 23.01867,7.6896 8.112,-22.87493 8.33867,22.79213 22.94133,-7.91973 -12.62,20.7328 z"
            style="fill:#FFF;stroke:#FFF;stroke-width:1.13333"/>
    <path
            d="m 813.84398,309.28666 3.152,-15.34267 -11.568,-10.56 15.56667,-1.74533 6.468,-14.26667 6.46933,14.26667 15.568,1.744 -11.57067,10.56133 3.152,15.34267 -13.61866,-7.73867 z"
            style="fill:#FFF;stroke:#FFF;stroke-width:1.13333"/>
    <path
            d="m 682.01332,238.79599 -23.88667,2.612 2.17333,23.928 -16.93466,-17.044 -17.352,16.61867 2.76666,-23.86667 -23.81066,-3.208 20.384,-12.716 -12.33867,-20.616 22.65333,8.00934 8.424,-22.50267 7.86134,22.70533 22.84533,-7.444 -12.85067,20.304 z"
            style="fill:#FFF;stroke:#FFF;stroke-width:1.13333"/>
    <path
            d="m 935.73198,200.20133 -24.56534,3.12133 2.66934,24.61733 -17.75734,-17.25866 -17.58133,17.436 2.42267,-24.64267 -24.59467,-2.876 20.776,-13.47067 -13.084,-21.02133 23.48533,7.84667 8.276,-23.33867 8.50934,23.25334 23.40666,-8.08 -12.876,21.15199 z"
            style="fill:#FFF;stroke:#FFF;stroke-width:1.13333"/>
    <path
            d="m 814.46798,101.94 -24.372,2.66533 2.21733,24.41467 -17.27733,-17.39067 -17.704,16.95467 2.82267,-24.352 -24.29467,-3.27067 20.79867,-12.975999 -12.58934,-21.033333 23.112,8.172 8.596,-22.958666 8.02,23.165332 23.31067,-7.593333 -13.112,20.714666 z"
            style="fill:#FFF;stroke:#FFF;stroke-width:1.13333"/>
    <path d="m 35.382799,262.40266 170.001191,-88 H 173.46533 L 0,262.40266 H 0.1005208 35.382799"
          style="fill:#E51B2D"/>
    <path d="M 513.60265,262.40799 343.59999,174.40666 h 39.60133 l 130.40133,66.80133 v 21.2" style="fill:#E51B2D"/>
    <path d="M 0,0 170.00133,88.001331 H 130.4016 L 0,21.199999 V 0" style="fill:#E51B2D"/>
</svg>