<svg width="1875" height="1125" xmlns="http://www.w3.org/2000/svg">
    <g transform="translate(273.25549,-6.0050597)">
        <rect x="-273.25549" y="6.0050573" width="1875" height="1125"/>
        <g transform="matrix(1.0172267 0 0 1.0172267 320.92362 .47631629)" fill="#fff">
            <circle cx="-113.99141" cy="415.16287" r="26.263966"/>
            <circle cx="-113.99155" cy="509.78055" r="26.263966"/>
            <circle cx="-113.99155" cy="604.39819" r="26.263966"/>
            <circle cx="-113.99155" cy="699.01581" r="26.263966"/>
            <circle cx="-222.99156" cy="368.69595" r="26.263966"/>
            <circle cx="-222.99156" cy="462.3876" r="26.263966"/>
            <circle cx="-222.99156" cy="556.07922" r="26.263966"/>
            <circle cx="-222.99156" cy="649.77087" r="26.263966"/>
            <circle cx="-222.99156" cy="743.46252" r="26.263966"/>
            <rect transform="rotate(24.399009)" x="-30.609798" y="421.33008" width="85.357887" height="6.5659914"/>
            <rect transform="matrix(-.91069081 .41308868 .41308868 .91069081 0 0)" x="289.25302" y="328.65103"
                  width="85.357887"
                  height="6.5659914"/>
            <rect transform="matrix(-.91069081 .41308868 .41308868 .91069081 0 0)" x="329.48288" y="412.45062"
                  width="85.357887"
                  height="6.5659914"/>
            <rect transform="matrix(-.91069081 .41308868 .41308868 .91069081 0 0)" x="363.90393" y="494.44827"
                  width="85.357887"
                  height="6.5659914"/>
            <rect transform="matrix(-.91069081 .41308868 .41308868 .91069081 0 0)" x="403.96783" y="576.6593"
                  width="85.357887"
                  height="6.5659914"/>
            <rect transform="rotate(24.399009)" x="10.618228" y="511.60959" width="85.357887" height="6.5659914"/>
            <rect transform="rotate(24.399009)" x="41.022808" y="598.20215" width="85.357887" height="6.5659914"/>
            <rect transform="rotate(24.399009)" x="79.787399" y="684.88477" width="85.357887" height="6.5659914"/>
            <circle cx="-10.398377" cy="287.29077" r="26.263966"/>
            <circle cx="-125.77324" cy="200.50554" r="26.263966"/>
            <rect transform="matrix(.79009115 .61298938 -.65535855 .75531793 0 0)" x="60.624012" y="234.30641"
                  width="96.440514"
                  height="7.3379855"/>
            <ellipse cx="471.03021" cy="965.88391" rx="26.264" ry="26.263966"/>
            <circle cx="324.95877" cy="965.88391" r="26.263966"/>
            <circle cx="178.88734" cy="965.88391" r="26.263966"/>
            <rect x="200.31592" y="962.14789" width="262.14285" height="5"/>
            <ellipse cx="808.53015" cy="982.29077" rx="26.264" ry="26.263966"/>
            <circle cx="749.60156" cy="932.29077" r="26.263966"/>
            <circle cx="686.74445" cy="759.43359" r="26.263966"/>
            <circle cx="631.74445" cy="835.14789" r="26.263966"/>
            <circle cx="693.88733" cy="881.57648" r="26.263966"/>
            <circle cx="745.31592" cy="808.005" r="26.263966"/>
            <circle cx="807.45874" cy="859.43359" r="26.263966"/>
            <circle cx="868.17303" cy="906.57648" r="26.263966"/>
            <rect transform="rotate(39.81942)" x="1008.4847" y="230.52888" width="262.14285" height="5"/>
            <rect transform="rotate(39.81942)" x="1001.6946" y="137.61234" width="262.14285" height="5"/>
            <rect transform="rotate(-51.24995)" x="-264.34854" y="1242.2115" width="102.85714" height="5"/>
            <rect transform="rotate(-51.24995)" x="-262.04062" y="1007.7238" width="102.85714" height="5"/>
            <ellipse transform="scale(-1,1)" cx="-705.31592" cy="338.71936" rx="26.264" ry="26.263966"/>
            <circle transform="scale(-1,1)" cx="-778.53021" cy="279.43365" r="26.263966"/>
            <circle transform="scale(-1,1)" cx="-866.74445" cy="225.14789" r="26.263966"/>
            <circle transform="scale(-1,1)" cx="-803.88727" cy="146.21928" r="26.263966"/>
            <circle transform="scale(-1,1)" cx="-722.10162" cy="205.14787" r="26.263966"/>
            <circle transform="scale(-1,1)" cx="-645.67303" cy="263.00504" r="26.263966"/>
            <path transform="translate(-273.25552,6.0050483)"
                  d="m1142.418 210.67188-184.05667 126.27343 2.82812 4.12305 183.92185-126.17774z"/>
            <rect transform="matrix(-.62592415 -.77988394 -.77988394 .62592415 0 0)" x="-709.99036" y="-341.23959"
                  width="102.85714" height="5"/>
            <rect transform="matrix(-.62592415 -.77988394 -.77988394 .62592415 0 0)" x="-716.05896" y="-535.3277"
                  width="102.85714" height="5"/>
            <path d="m821.5178 131.77175-184.05667 126.27343 2.82812 4.12305 183.92185-126.17774z"/>
            <path transform="translate(-273.25552,6.0050483)"
                  d="m201.01953 766.75195a26.263966 26.263966 0 0 0-26.26367 26.26367 26.263966 26.263966 0 0 0 3.38476 12.83399l-60.90624 45.55664a26.263966 26.263966 0 0 0-21.269536-10.91406 26.263966 26.263966 0 0 0-26.263672 26.26562 26.263966 26.263966 0 0 0 26.263672 26.26367 26.263966 26.263966 0 0 0 14.580076-4.44336l33.48633 43.57227a26.263966 26.263966 0 0 0-8.66992 19.45899 26.263966 26.263966 0 0 0 26.26367 26.26367 26.263966 26.263966 0 0 0 26.26367-26.26367 26.263966 26.263966 0 0 0-3.79101-13.53907l60.5332-45.27734a26.263966 26.263966 0 0 0 20.0293 9.32031 26.263966 26.263966 0 0 0 26.26367-26.26562 26.263966 26.263966 0 0 0-26.26367-26.26368 26.263966 26.263966 0 0 0-14.55078 4.42188l-27.43946-46.125a26.263966 26.263966 0 0 0 4.61524-14.86524 26.263966 26.263966 0 0 0-26.26563-26.26367zm-20.02734 43.20899a26.263966 26.263966 0 0 0 20.02734 9.31836 26.263966 26.263966 0 0 0 18.23242-7.36524l26.93555 45.2793a26.263966 26.263966 0 0 0-7.79102 18.6543 26.263966 26.263966 0 0 0 3.38477 12.83398l-60.66406 45.37305a26.263966 26.263966 0 0 0-19.49219-8.70899 26.263966 26.263966 0 0 0-13.58398 3.81641l-33.61524-43.73828a26.263966 26.263966 0 0 0 7.80274-18.66602 26.263966 26.263966 0 0 0-2.45313-11.00976z"/>
            <path transform="translate(-273.25552,6.0050483)"
                  d="m390.54102 69.615234a26.263966 26.263966 0 0 0-26.26368 26.263672 26.263966 26.263966 0 0 0 26.26368 26.263674 26.263966 26.263966 0 0 0 26.13867-23.763674h58.45508a26.263966 26.263966 0 0 0 23.65039 23.640624v36a26.263966 26.263966 0 0 0-23.79297 26.12305 26.263966 26.263966 0 0 0 26.26367 26.26367 26.263966 26.263966 0 0 0 26.04297-23.04883h62.92383a26.263966 26.263966 0 0 0 26.0332 23.04883 26.263966 26.263966 0 0 0 26.26367-26.26367 26.263966 26.263966 0 0 0-23.87695-26.14453v-35.98633a26.263966 26.263966 0 0 0 23.75195-23.632814h57.74024a26.263966 26.263966 0 0 0 24.50781 23.683594v35.875a26.263966 26.263966 0 0 0-24.65039 26.20508 26.263966 26.263966 0 0 0 26.26367 26.26367 26.263966 26.263966 0 0 0 26.26367-26.26367 26.263966 26.263966 0 0 0-22.87695-26.01758v-36.23438a26.263966 26.263966 0 0 0 22.87695-26.011714 26.263966 26.263966 0 0 0-26.26367-26.263672 26.263966 26.263966 0 0 0-26.13867 23.763672h-57.74219a26.263966 26.263966 0 0 0-26.11914-23.763672 26.263966 26.263966 0 0 0-26.26367 26.263672 26.263966 26.263966 0 0 0 23.65039 26.132814v36.02539a26.263966 26.263966 0 0 0-23.56055 24.32031h-62.625a26.263966 26.263966 0 0 0-23.67187-24.35156v-36.01172a26.263966 26.263966 0 0 0 23.73437-26.115234 26.263966 26.263966 0 0 0-26.26367-26.263672 26.263966 26.263966 0 0 0-26.13867 23.763672h-58.45508a26.263966 26.263966 0 0 0-26.12109-23.763672z"/>
            <circle cx="842.96301" cy="558.07648" r="39.39595"/>
        </g>
        <g
                transform="matrix(1.0155939,0,0,1.0155939,321.41554,1.8750649)">
            <g transform="matrix(.80952381 0 0 .80952381 64.21769 106.30028)">
                <path d="m337.14287 408.0769v300a150 150 0 0 0 150-150 150 150 0 0 0-150-150z" fill="#d63233"/>
                <path
                        d="m337.14287 408.07605v300.00001a150 150 0 0 1-150-150 150 150 0 0 1 150-150.00001z"
                        fill="#174651"/>
            </g>
            <g transform="matrix(-.6 0 0 .6 539.42855 223.23058)">
                <path d="m337.14287 408.0769v300a150 150 0 0 0 150-150 150 150 0 0 0-150-150z" fill="#d63233"/>
                <path d="m337.14287 408.07605v300.00001a150 150 0 0 1-150-150 150 150 0 0 1 150-150.00001z"
                      fill="#174651"/>
            </g>
            <circle cx="337.14288" cy="558.07648" r="66.021164" fill="#eff978" stroke="#fff" stroke-linecap="square"
                    stroke-width="2"/>
            <circle cx="337.14288" cy="558.07648" r="37.81892" stroke="#fff" stroke-linecap="square" stroke-width="2"/>
            <g fill="none" stroke="#fff">
                <circle cx="337.14288" cy="558.07648" r="122.25694" stroke-linecap="square" stroke-width="1.38893"/>
                <g stroke-width="2">
                    <circle cx="337.14288" cy="558.07648" r="90.261002" stroke-linecap="square"/>
                    <path d="m337.14287 436.2193v55.71429"/>
                    <path d="m337.14287 624.43911v55.71429"/>
                </g>
            </g>
        </g>
        <g transform="rotate(180,942.26175,569.04384)"
           fill="#fff">
            <rect x="899.15833" y="518.66669" width="16.702587" height="40.87669" rx="3.75" ry="3.75"/>
            <rect x="933.91046" y="518.66669" width="16.702587" height="40.87669" rx="3.75" ry="3.75"/>
            <rect x="968.6626" y="518.66669" width="16.702587" height="100.75431" rx="3.75" ry="3.75"/>
            <rect x="899.15833" y="577.88873" width="16.702587" height="40.87669" rx="3.75" ry="3.75"/>
            <rect x="933.91046" y="577.88873" width="16.702587" height="40.87669" rx="3.75" ry="3.75"/>
        </g>
        <g transform="rotate(-90,935.47815,840.32044)"
           fill="#fff">
            <rect x="899.15833" y="518.66669" width="16.702587" height="40.87669" rx="3.75" ry="3.75"/>
            <rect x="968.39325" y="518.66669" width="16.702587" height="40.87669" rx="3.75" ry="3.75"/>
            <rect x="934.17981" y="518.66669" width="16.702587" height="100.75431" rx="3.75" ry="3.75"/>
            <rect x="899.15833" y="577.88873" width="16.702587" height="40.87669" rx="3.75" ry="3.75"/>
            <rect x="968.39325" y="577.88873" width="16.702587" height="40.87669" rx="3.75" ry="3.75"/>
        </g>
        <g transform="rotate(-39.321906,943.32948,1331.8974)"
           fill="#fff">
            <rect x="968.3924" y="518.66669" width="16.702587" height="100.75431" rx="3.75" ry="3.75"/>
            <rect x="933.8103" y="518.66669" width="16.702587" height="100.75431" rx="3.75" ry="3.75"/>
            <rect x="898.95801" y="518.66669" width="16.702587" height="100.75431" rx="3.75" ry="3.75"/>
        </g>
        <g transform="translate(-556.51596)" fill="#fff">
            <rect x="899.15833" y="518.66669" width="16.702587" height="40.87669" rx="3.75" ry="3.75"/>
            <rect x="968.6626" y="518.66669" width="16.702587" height="100.75431" rx="3.75" ry="3.75"/>
            <rect x="899.15833" y="577.88873" width="16.702587" height="40.87669" rx="3.75" ry="3.75"/>
            <rect x="934.08813" y="518.66669" width="16.702587" height="100.75431" rx="3.75" ry="3.75"/>
        </g>
        <g transform="rotate(44.387374,921.08118,-112.65667)"
           fill="#fff">
            <rect x="899.15833" y="518.66669" width="16.702587" height="40.87669" rx="3.75" ry="3.75"/>
            <rect transform="rotate(.53240026)" x="938.40967" y="509.41708" width="16.702587" height="40.87669"
                  rx="3.75"
                  ry="3.75"/>
            <rect x="899.15833" y="577.88873" width="16.702587" height="40.87669" rx="3.75" ry="3.75"/>
            <rect x="933.91046" y="577.88873" width="16.702587" height="40.87669" rx="3.75" ry="3.75"/>
            <rect transform="rotate(-.01020342)" x="967.94617" y="517.89026" width="16.702587" height="40.87669"
                  rx="3.75"
                  ry="3.75"/>
            <rect transform="rotate(-.94761291)" x="958.48608" y="593.4873" width="16.702587" height="40.87669"
                  rx="3.75"
                  ry="3.75"/>
        </g>
        <g transform="rotate(90,936.12294,296.10501)"
           fill="#fff">
            <rect x="933.91046" y="518.66669" width="16.702587" height="40.87669" rx="3.75" ry="3.75"/>
            <rect x="968.6626" y="518.66669" width="16.702587" height="100.75431" rx="3.75" ry="3.75"/>
            <rect x="933.91046" y="577.88873" width="16.702587" height="40.87669" rx="3.75" ry="3.75"/>
            <rect x="899.51367" y="518.66669" width="16.702587" height="100.75431" rx="3.75" ry="3.75"/>
        </g>
        <g transform="rotate(-39.334918,654.60543,578.50796)"
           fill="#fff">
            <rect x="899.15833" y="518.66669" width="16.702587" height="40.87669" rx="3.75" ry="3.75"/>
            <rect x="968.6626" y="518.66669" width="16.702587" height="100.75431" rx="3.75" ry="3.75"/>
            <rect x="899.15833" y="577.88873" width="16.702587" height="40.87669" rx="3.75" ry="3.75"/>
            <rect x="934.08813" y="518.66669" width="16.702587" height="100.75431" rx="3.75" ry="3.75"/>
        </g>
        <g transform="rotate(39.682245,666.19323,557.24214)"
           fill="#fff">
            <rect x="899.15833" y="518.66669" width="16.702587" height="40.87669" rx="3.75" ry="3.75"/>
            <rect x="933.91046" y="518.66669" width="16.702587" height="40.87669" rx="3.75" ry="3.75"/>
            <rect x="968.6626" y="518.66669" width="16.702587" height="100.75431" rx="3.75" ry="3.75"/>
            <rect x="899.15833" y="577.88873" width="16.702587" height="40.87669" rx="3.75" ry="3.75"/>
            <rect x="933.91046" y="577.88873" width="16.702587" height="40.87669" rx="3.75" ry="3.75"/>
        </g>
    </g>
</svg>
